<svg id="Layer_1" data-name="Layer 1" xmlns="http://www.w3.org/2000/svg" width="165.82" height="166.1" viewBox="0 0 165.82 166.1"><defs><style>.cls-1{fill:#3d3d3d;}.cls-2{fill:#fff;}.cls-3{fill:#f2f2f2;}</style></defs><title>back</title><rect class="cls-1" width="165.82" height="166.1" rx="25"/><path class="cls-2" d="M74.81,77.23v-.32L56.46,48.19H70.77l12.34,21h.33l12.46-21h13.59l-19,29v.28l18.8,29H95.37L82.63,86h-.32L69.48,106.39H56.34Z"/><path class="cls-3" d="M48,136.42V125.94H44.34v-2.18h10v2.18H50.64v10.48Z"/><path class="cls-3" d="M55.15,124.42a1.33,1.33,0,1,1,1.33,1.32A1.31,1.31,0,0,1,55.15,124.42Zm.06,2.59h2.56v9.41H55.21Z"/><path class="cls-3" d="M59.53,123.76H62.1v12.66H59.53Z"/><path class="cls-3" d="M66.47,134.8h-.06v1.62H63.89V123.76h2.56v4.88h0a3.06,3.06,0,0,1,2.9-1.78c2.37,0,3.83,1.82,3.83,4.85s-1.45,4.86-3.82,4.86A3.09,3.09,0,0,1,66.47,134.8Zm0-3.09c0,1.71.84,2.79,2.09,2.79s2.08-1.07,2.08-2.79-.81-2.79-2.08-2.79S66.44,130,66.44,131.71Z"/><path class="cls-3" d="M74.19,133.72c0-1.72,1.32-2.71,3.66-2.85l2.37-.14v-.62c0-.88-.61-1.39-1.58-1.39A1.53,1.53,0,0,0,77,129.89H74.62c.09-1.82,1.65-3.08,4.14-3.08s4,1.25,4,3.14v6.47H80.27V135h-.06a3.22,3.22,0,0,1-2.86,1.59A2.92,2.92,0,0,1,74.19,133.72Zm6-.75v-.68l-2,.12c-1,.07-1.5.5-1.5,1.16s.58,1.15,1.45,1.15A1.88,1.88,0,0,0,80.22,133Z"/><path class="cls-3" d="M84.34,137.08h2.51a1.87,1.87,0,0,0,1.91,1.1c1.33,0,2.06-.74,2.06-1.82v-1.65h0a3.06,3.06,0,0,1-2.9,1.68c-2.3,0-3.82-1.77-3.82-4.71s1.47-4.82,3.86-4.82a3.08,3.08,0,0,1,2.9,1.79h0V127h2.53v9.28c0,2.24-1.88,3.67-4.7,3.67C86.22,140,84.54,138.76,84.34,137.08Zm6.49-5.38c0-1.7-.81-2.78-2.09-2.78s-2.07,1.07-2.07,2.78.79,2.72,2.07,2.72S90.83,133.4,90.83,131.7Z"/><path class="cls-3" d="M103.63,133.54c-.28,1.84-2,3.08-4.29,3.08-2.89,0-4.63-1.85-4.63-4.86s1.75-4.95,4.54-4.95,4.46,1.85,4.46,4.71v.78H97.23v.16a2.09,2.09,0,0,0,2.16,2.26,1.87,1.87,0,0,0,1.89-1.18Zm-6.38-2.81h4a2,2,0,0,0-2-2A2,2,0,0,0,97.25,130.73Z"/><path class="cls-2" d="M141.82,14.71c5.45,0,9,3.17,9,7.41,0,3.12-1.53,5-5.83,9.15l-5.35,5.12v.1h11.54v4.24H132.71V37.07l9-8.53c3.23-3.11,4-4.33,4-6.09a3.6,3.6,0,0,0-3.86-3.6A4.19,4.19,0,0,0,137.35,23h-4.94C132.41,18.11,136.29,14.71,141.82,14.71Z"/><path class="cls-3" d="M19.33,139.84c2.2,0,3.66,1.29,3.66,3,0,1.27-.62,2-2.36,3.71l-2.17,2.07v0h4.67v1.72H15.64V148.9l3.65-3.46c1.31-1.25,1.6-1.75,1.6-2.46a1.46,1.46,0,0,0-1.56-1.46,1.7,1.7,0,0,0-1.81,1.69h-2C15.52,141.22,17.09,139.84,19.33,139.84Z"/><path class="cls-3" d="M108,131.34c1,0,1.75.61,1.75,1.43,0,.61-.3,1-1.13,1.78l-1,1v0h2.24v.82h-3.59v-.71L108,134c.63-.61.77-.84.77-1.18a.7.7,0,0,0-.75-.7.81.81,0,0,0-.87.81h-1A1.65,1.65,0,0,1,108,131.34Z"/><path class="cls-3" d="M110.56,135.87a.54.54,0,0,1,.55-.55.55.55,0,0,1,.55.55.55.55,0,0,1-.55.55A.55.55,0,0,1,110.56,135.87Z"/><path class="cls-3" d="M112.26,133.9c0-1.59.77-2.57,2-2.57s2,1,2,2.57-.75,2.59-2,2.59S112.26,135.5,112.26,133.9Zm3,0c0-1.12-.36-1.74-1-1.74s-1,.62-1,1.74.36,1.76,1,1.76S115.24,135,115.24,133.9Z"/><path class="cls-3" d="M118.11,133.47h.55c.52,0,.85-.28.85-.68s-.27-.66-.77-.66a.76.76,0,0,0-.85.69h-1a1.61,1.61,0,0,1,1.8-1.48c1.05,0,1.75.51,1.75,1.3a1.18,1.18,0,0,1-1,1.16v0a1.18,1.18,0,0,1,1.21,1.18c0,.89-.77,1.49-1.92,1.49a1.7,1.7,0,0,1-1.92-1.51h1c0,.4.39.68.93.68s.87-.29.87-.71-.35-.74-1-.74h-.56Z"/><path class="cls-3" d="M123.09,131.34c1.06,0,1.75.61,1.75,1.43,0,.61-.29,1-1.13,1.78l-1,1v0h2.23v.82h-3.58v-.71l1.74-1.65c.63-.61.77-.84.77-1.18a.7.7,0,0,0-.75-.7.81.81,0,0,0-.86.81h-1A1.65,1.65,0,0,1,123.09,131.34Z"/><path class="cls-3" d="M127.31,131.34c1.06,0,1.76.61,1.76,1.43,0,.61-.3,1-1.14,1.78l-1,1v0h2.23v.82h-3.58v-.71l1.74-1.65c.63-.61.77-.84.77-1.18a.7.7,0,0,0-.75-.7.81.81,0,0,0-.86.81h-1A1.65,1.65,0,0,1,127.31,131.34Z"/></svg>
