<svg id="Layer_1" data-name="Layer 1" xmlns="http://www.w3.org/2000/svg" width="609.03" height="1202.11" viewBox="0 0 609.03 1202.11"><defs><style>.cls-1{fill:#a9154a;}.cls-2{fill:#fe5201;}.cls-3{fill:#fbbd01;}.cls-4{fill:#8701b2;}.cls-5{fill:#fc9a01;}.cls-6{fill:#fdfe01;}.cls-7{fill:#fe2301;}</style></defs><title>color_half</title><path class="cls-1" d="M446,1180.22c-12.92-2.43-25.34-6.71-37.76-10.81-49.75-16.43-96.66-38.77-140.11-68.16a610.79,610.79,0,0,1-90.37-75.06,15.34,15.34,0,0,1-1.42-1.94c2.31-.51,3.51-2.45,5-4Q257.58,944.17,333.69,868c2-2,4.63-3.32,5.75-6.09a29.19,29.19,0,0,1,2.7,2.11,368.71,368.71,0,0,0,80.76,60.42c26.07,14.54,53.76,25.12,82.36,33.46-1.27,5.14-2.46,10.31-3.83,15.42q-11.22,41.78-22.5,83.53-11.67,43.46-23.25,86.91Q450.82,1161.95,446,1180.22Z"/><path class="cls-2" d="M22,757c-5.66-17.93-9.4-36.33-12.71-54.78C2.71,665.5-.72,628.43.13,591A572.8,572.8,0,0,1,13.74,478.31c2.44-10.85,4.48-21.79,8.14-32.32,6.11,1.54,12.23,3,18.31,4.64,19.07,5.12,38.12,10.32,57.19,15.44q36.27,9.75,72.58,19.43c18.59,4.94,37.28,9.54,55.77,14.84,6.15,1.76,12.71,2.36,18.4,5.63-3.51,15.67-6.94,31.34-9,47.3a365.09,365.09,0,0,0-2.56,69.14A349.64,349.64,0,0,0,237,662c2.05,11.75,4.94,23.29,7.23,35-5.63,1.38-11.28,2.65-16.87,4.16-20.62,5.58-41.2,11.3-61.83,16.83-21.42,5.73-42.9,11.25-64.34,16.94-18.86,5-37.76,9.91-56.5,15.33C37.15,752.4,29,752.73,22,757Z"/><path class="cls-3" d="M176.17,178.08c8.7-10.34,19-19.06,29-28C248.8,111,297.11,79,350.65,55a632.79,632.79,0,0,1,93.4-33,9.85,9.85,0,0,1,2-.11c-.31,2.65,1.46,4.71,2.06,7.12q4.6,18.52,9.5,37c3.43,13,7,25.85,10.48,38.78q3.87,14.34,7.72,28.69,5.14,19.16,10.28,38.32,4.85,18.23,9.63,36.46,4.76,18,9.49,35.95c-17.22,5.75-34.55,11.11-51.25,18.41a376.16,376.16,0,0,0-87.4,53.57c-9.52,7.77-18,16.65-27.49,24.43.2-4.31-4.27-4.67-6.17-7.23-7.53-10.16-17.84-17.64-26.26-27-7.15-7.95-15.46-14.84-23.05-22.41-7-7-13.36-14.7-20.66-21.35-8.71-7.94-16.6-16.68-25.09-24.82-7.08-6.8-14-14-20.89-21-11-11.19-22.43-21.9-33.08-33.42C181.68,181,179.4,178.86,176.17,178.08Z"/><path class="cls-4" d="M609,970.07a344.84,344.84,0,0,1-39.59-1.35,497.32,497.32,0,0,1-51.16-7.82c-4.37-.88-8.68-2-13-3-1.27,5.14-2.46,10.31-3.83,15.42q-11.22,41.78-22.5,83.53-11.67,43.46-23.25,86.91-4.86,18.24-9.65,36.51c10.68,3.74,21.79,5.78,32.79,8.26a564.12,564.12,0,0,0,105.27,13.34q12.49.42,24.94.24Z"/><path class="cls-5" d="M176.17,178.08c3.23.78,5.51,2.91,7.67,5.25,10.65,11.52,22.11,22.23,33.08,33.42,6.91,7.05,13.81,14.23,20.89,21,8.49,8.14,16.38,16.88,25.09,24.82,7.3,6.65,13.66,14.35,20.66,21.35,7.59,7.57,15.9,14.46,23.05,22.41,8.42,9.35,18.73,16.83,26.26,27,1.9,2.56,6.37,2.92,6.17,7.23-.61,1.84-2.2,2.89-3.45,4.18a369.51,369.51,0,0,0-47.5,60.62c-19.76,31.3-33.87,65.07-44,100.59-5.69-3.27-12.25-3.87-18.4-5.63-18.49-5.3-37.18-9.9-55.77-14.84q-36.32-9.66-72.58-19.43C78.31,461,59.26,455.75,40.19,450.63,34.11,449,28,447.53,21.88,446c2.42-12.78,6.64-25.05,10.69-37.34C49,358.79,71.36,311.78,100.81,268.24a594.57,594.57,0,0,1,53.43-67.75c1.77-1.94,3.29-4.19,5.69-5.5,2.41,0,3.21-1.38,3.13-3.55A84.1,84.1,0,0,1,176.17,178.08Z"/><path class="cls-6" d="M609,.07A565.84,565.84,0,0,0,482.72,12.7C470.38,15.31,458,17.65,446,21.86c-.31,2.65,1.46,4.71,2.06,7.12q4.6,18.52,9.5,37c3.43,13,7,25.85,10.48,38.78q3.87,14.34,7.72,28.69,5.14,19.16,10.28,38.32,4.85,18.23,9.63,36.46,4.76,18,9.49,35.95c16.95-4.07,34-7.76,51.32-9.73A389.38,389.38,0,0,1,609,232Z"/><path class="cls-7" d="M22,757c6.94-4.3,15.12-4.63,22.7-6.82,18.74-5.42,37.64-10.31,56.5-15.33,21.44-5.69,42.92-11.21,64.34-16.94,20.63-5.53,41.21-11.25,61.83-16.83,5.59-1.51,11.24-2.78,16.87-4.16,2.48,7.72,4.87,15.48,7.46,23.17a364.62,364.62,0,0,0,57.1,106.37c9.52,12.41,20.25,23.72,30.61,35.37-1.12,2.77-3.79,4.12-5.75,6.09q-76.1,76.23-152.31,152.34c-1.5,1.51-2.7,3.45-5,4-11.16-9.79-20.82-21-30.58-32.12A557.23,557.23,0,0,1,33.72,796.52c-2.59-7.87-5.85-15.55-7-23.84.42-1.2.43-2.23-1.09-2.62a7.72,7.72,0,0,1-.93-4.34c.45-1.19.46-2.2-1-2.67C23.12,761,22.57,759,22,757Z"/><path class="cls-3" d="M163.06,191.44c.08,2.17-.72,3.56-3.13,3.55A5,5,0,0,1,163.06,191.44Z"/><path class="cls-2" d="M23.67,763.05c1.46.47,1.45,1.48,1,2.67A2,2,0,0,1,23.67,763.05Z"/><path class="cls-2" d="M25.6,770.06c1.52.39,1.51,1.42,1.09,2.62A2,2,0,0,1,25.6,770.06Z"/></svg>
