<svg id="Layer_1" data-name="Layer 1" xmlns="http://www.w3.org/2000/svg" width="1202.13" height="1202.13" viewBox="0 0 1202.13 1202.13"><defs><style>.cls-1{fill:#3d01a7;}.cls-2{fill:#a9154a;}.cls-3{fill:#63b226;}.cls-4{fill:#0190cf;}.cls-5{fill:#fe5201;}.cls-6{fill:#fbbd01;}.cls-7{fill:#8701b2;}.cls-8{fill:#fc9a01;}.cls-9{fill:#fdfe01;}.cls-10{fill:#013dfe;}.cls-11{fill:#fe2301;}.cls-12{fill:#cfeb01;}</style></defs><title>color</title><path class="cls-1" d="M177.08,1025c-12.3-11-23.1-23.44-33.89-35.86A558.75,558.75,0,0,1,43.63,824.4,653.18,653.18,0,0,1,22,758.08a8.6,8.6,0,0,1-.08-2c2.48.27,4.4-1.37,6.64-2,15.54-4.06,31.09-8.1,46.6-12.26,18.09-4.84,36.13-9.85,54.22-14.68q33.38-8.93,66.8-17.69,24-6.35,48.12-12.61c1.86,5.84,3.74,11.67,5.6,17.51,14.2,44.64,36.53,84.82,66.13,121.07,7.47,9.15,15.9,17.42,23.5,26.43-.74,2.36-2.7,3.76-4.33,5.39q-76.11,76.15-152.27,152.28C181,1021.47,179,1023.22,177.08,1025Z"/><path class="cls-2" d="M21.9,446c2.43-12.92,6.71-25.34,10.81-37.76,16.43-49.75,38.77-96.66,68.16-140.11a610.79,610.79,0,0,1,75.06-90.37,15.34,15.34,0,0,1,1.94-1.42c.51,2.31,2.45,3.51,3.95,5Q258,257.58,334.17,333.69c2,2,3.31,4.63,6.09,5.75a29.19,29.19,0,0,1-2.11,2.7,368.71,368.71,0,0,0-60.42,80.76c-14.54,26.07-25.12,53.76-33.46,82.36-5.14-1.27-10.31-2.46-15.42-3.83q-41.78-11.22-83.54-22.5-43.44-11.67-86.9-23.25Q40.17,450.82,21.9,446Z"/><path class="cls-3" d="M1024.57,1025.43c-9.86,11.31-21.24,21.06-32.47,30.91a560.4,560.4,0,0,1-125.73,83.78c-34.81,16.85-71,29.84-108.29,40a8.58,8.58,0,0,1-2,.08,22.54,22.54,0,0,0-.41-2.46q-14.55-54.36-29.13-108.71-14.91-55.57-29.83-111.14c1.88-.66,3.74-1.42,5.65-2,53.11-15.12,100.28-41.09,141.91-77.32,6.25-5.45,11.69-11.79,18.49-16.61,1.8,2,3.54,4,5.42,5.83q75.49,75.54,151,151A30.23,30.23,0,0,1,1024.57,1025.43Z"/><path class="cls-4" d="M696.74,957.91q14.91,55.56,29.83,111.14,14.58,54.35,29.13,108.71a22.54,22.54,0,0,1,.41,2.46c-11.93,4.28-24.37,6.57-36.7,9.18-44.28,9.35-89,13.92-134.32,12.46a564.18,564.18,0,0,1-106.25-13.37c-11-2.48-22.13-4.49-32.81-8.24,3.92-14.9,7.79-29.8,11.77-44.68,5.06-18.9,10.22-37.76,15.29-56.65q9.81-36.48,19.53-73c4.26-16,8.44-32.05,12.65-48.08,15.54,3.26,31,6.81,46.79,9a367.3,367.3,0,0,0,68.14,2.9,353.35,353.35,0,0,0,41.06-4.54C673.19,963.18,684.89,960.2,696.74,957.91Z"/><path class="cls-5" d="M445.09,22c17.93-5.66,36.33-9.4,54.77-12.71,36.76-6.61,73.83-10,111.22-9.19A572.61,572.61,0,0,1,723.8,13.74c10.85,2.44,21.8,4.48,32.33,8.14-1.54,6.11-3,12.23-4.64,18.31-5.12,19.07-10.32,38.12-15.44,57.19Q726.3,133.65,716.62,170c-5,18.59-9.54,37.28-14.84,55.77-1.77,6.15-2.36,12.71-5.63,18.4-15.67-3.51-31.34-6.94-47.3-9a365.09,365.09,0,0,0-69.14-2.56A349.64,349.64,0,0,0,540.15,237c-11.75,2.05-23.3,4.94-35,7.23-1.38-5.63-2.65-11.28-4.16-16.87-5.58-20.62-11.3-41.2-16.83-61.83-5.73-21.42-11.25-42.9-16.94-64.34-5-18.86-9.91-37.76-15.33-56.5C449.71,37.15,449.39,29,445.09,22Z"/><path class="cls-6" d="M1024,176.17c10.33,8.7,19.06,19,28,29,39.09,43.65,71.1,92,95.06,145.5a630.5,630.5,0,0,1,33,93.4,9.16,9.16,0,0,1,.12,2c-2.65-.31-4.71,1.46-7.12,2.06q-18.53,4.6-37,9.5c-13,3.43-25.85,7-38.78,10.48l-28.69,7.72q-19.15,5.14-38.33,10.28-18.21,4.85-36.45,9.63L958,505.18c-5.75-17.22-11.11-34.55-18.41-51.25A376.16,376.16,0,0,0,886,366.53c-7.77-9.52-16.65-18-24.43-27.49,4.31.2,4.66-4.27,7.23-6.17,10.16-7.53,17.63-17.84,27-26.26,8-7.15,14.84-15.46,22.41-23.05,7-7,14.7-13.36,21.35-20.66,7.94-8.71,16.67-16.6,24.82-25.09,6.8-7.08,14-14,21-20.89,11.19-11,21.9-22.43,33.42-33.08C1021.13,181.68,1023.26,179.4,1024,176.17Z"/><path class="cls-7" d="M21.9,446q18.26,4.82,36.51,9.65,43.46,11.61,86.9,23.25,41.77,11.22,83.54,22.5c5.11,1.37,10.28,2.56,15.42,3.83-1,4.34-2.17,8.65-3.05,13a494.6,494.6,0,0,0-7.82,51.16,359,359,0,0,0-.85,52.86,341.58,341.58,0,0,0,4.5,39.6c2,11.77,4.95,23.32,7.23,35q-24.06,6.3-48.12,12.61-33.4,8.81-66.8,17.69c-18.09,4.83-36.13,9.84-54.22,14.68-15.51,4.16-31.06,8.2-46.6,12.26-2.24.58-4.16,2.22-6.64,2-4.16-11.78-6.49-24-9.06-36.19C3.37,675.14-1.27,629.87.3,584.09A564.12,564.12,0,0,1,13.64,478.82C16.12,467.82,18.16,456.71,21.9,446Z"/><path class="cls-8" d="M1024,176.17c-.78,3.23-2.91,5.51-5.25,7.67-11.52,10.65-22.23,22.11-33.42,33.08-7,6.91-14.23,13.81-21,20.89-8.15,8.49-16.88,16.38-24.82,25.09-6.65,7.3-14.35,13.66-21.35,20.66-7.57,7.59-14.46,15.9-22.41,23.05-9.36,8.42-16.83,18.73-27,26.26-2.57,1.9-2.92,6.37-7.23,6.17-1.84-.61-2.89-2.2-4.18-3.45a369.16,369.16,0,0,0-60.63-47.5c-31.29-19.76-65.06-33.87-100.58-44,3.27-5.69,3.86-12.25,5.63-18.4,5.3-18.49,9.89-37.18,14.84-55.77q9.66-36.32,19.43-72.58c5.12-19.07,10.32-38.12,15.44-57.19,1.63-6.08,3.1-12.2,4.64-18.31,12.77,2.42,25,6.64,37.34,10.69C843.32,49,890.34,71.36,933.88,100.81a593.59,593.59,0,0,1,67.74,53.43c2,1.77,4.2,3.29,5.51,5.69,0,2.41,1.38,3.21,3.55,3.13A84.1,84.1,0,0,1,1024,176.17Z"/><path class="cls-9" d="M958,505.18l35.95-9.49q18.23-4.8,36.45-9.63,19.19-5.12,38.33-10.28l28.69-7.72c12.93-3.49,25.83-7.05,38.78-10.48q18.46-4.87,37-9.5c2.41-.6,4.47-2.37,7.12-2.06,4.21,11.94,6.55,24.37,9.16,36.7,9.22,43.62,13.74,87.74,12.51,132.35a565,565,0,0,1-8.24,81.84q-5,28.51-12.36,56.47a25.78,25.78,0,0,1-1.07,2.76c-8.93-2.37-17.87-4.7-26.79-7.12-15.65-4.26-31.26-8.65-46.92-12.85-12.78-3.42-25.63-6.57-38.41-10-12.13-3.24-24.18-6.73-36.3-10-13.58-3.63-27.2-7.13-40.81-10.67q-16.54-4.31-33.09-8.57c1-4.35,2.09-8.69,3-13.06a416.06,416.06,0,0,0,7.8-50.18,378.34,378.34,0,0,0-1.1-77.24C965.71,539.18,962,522.13,958,505.18Z"/><path class="cls-10" d="M505.27,957.88c-4.21,16-8.39,32.06-12.65,48.07q-9.72,36.49-19.53,73c-5.07,18.89-10.23,37.75-15.29,56.65-4,14.88-7.85,29.78-11.77,44.68-9.34-.85-17.92-4.61-26.73-7.33-52.91-16.35-102.75-39.29-148.86-70.1A614.26,614.26,0,0,1,178.52,1027a15.31,15.31,0,0,1-1.44-2c1.94-1.8,3.95-3.55,5.83-5.42q76.16-76.12,152.27-152.28c1.63-1.63,3.59-3,4.33-5.39,1.37,1.17,2.83,2.26,4.12,3.53A370.41,370.41,0,0,0,426,926.08C451.2,939.79,477.85,949.8,505.27,957.88Z"/><path class="cls-11" d="M445.09,22c4.3,6.94,4.62,15.12,6.82,22.7,5.42,18.74,10.31,37.64,15.33,56.5,5.69,21.44,11.21,42.92,16.94,64.34,5.53,20.63,11.25,41.21,16.83,61.83,1.51,5.59,2.78,11.24,4.16,16.87-7.72,2.48-15.48,4.87-23.17,7.46a364.8,364.8,0,0,0-106.38,57.1c-12.4,9.52-23.72,20.25-35.36,30.61-2.78-1.12-4.12-3.79-6.09-5.75q-76.23-76.1-152.35-152.31c-1.5-1.5-3.44-2.7-3.95-5,9.79-11.16,21-20.82,32.12-30.58A557.23,557.23,0,0,1,405.6,33.72c7.87-2.59,15.55-5.85,23.84-7,1.2.42,2.23.43,2.62-1.09a7.72,7.72,0,0,1,4.34-.93c1.19.45,2.2.46,2.67-1Z"/><path class="cls-12" d="M957.94,697q16.54,4.29,33.09,8.57c13.61,3.54,27.23,7,40.81,10.67,12.12,3.24,24.17,6.73,36.3,10,12.78,3.41,25.63,6.56,38.41,10,15.66,4.2,31.27,8.59,46.92,12.85,8.92,2.42,17.86,4.75,26.79,7.12-2.46,12.94-6.73,25.38-10.85,37.82-14.36,43.39-33.15,84.78-57.46,123.56a577.46,577.46,0,0,1-67.44,87.71c-6.46,6.92-12.49,14.26-19.94,20.2a30.23,30.23,0,0,0-5.33-6.55q-75.53-75.49-151-151c-1.88-1.87-3.62-3.88-5.42-5.83.71-2,2.42-3.15,3.79-4.57a372.23,372.23,0,0,0,57.15-77C938.58,754,949.4,726,957.94,697Z"/><path class="cls-6" d="M1010.68,163.06c-2.17.08-3.56-.72-3.55-3.13A5,5,0,0,1,1010.68,163.06Z"/><path class="cls-5" d="M439.07,23.67c-.47,1.46-1.48,1.45-2.67,1A2,2,0,0,1,439.07,23.67Z"/><path class="cls-5" d="M432.06,25.6c-.39,1.52-1.42,1.51-2.62,1.09A2,2,0,0,1,432.06,25.6Z"/></svg>
