<svg id="Layer_1" data-name="Layer 1" xmlns="http://www.w3.org/2000/svg" width="138.9" height="148.62" viewBox="0 0 138.9 148.62"><defs><style>.cls-1{fill:#aab4ae;}.cls-2{fill:#d6d8d3;}.cls-3{fill:#98a9a5;}.cls-4{fill:#d3d6cf;}.cls-5{fill:#a8b0aa;}.cls-6{fill:#406764;}.cls-7{fill:#7a8787;}.cls-8{fill:#96a9a4;}.cls-9{fill:#436c6a;}.cls-10{fill:#658b86;}.cls-11{fill:#cbcfc7;}.cls-12{fill:#b1bbb3;}.cls-13{fill:#e5e8e2;}.cls-14{fill:#d7d9d4;}.cls-15{fill:#a7b4ad;}.cls-16{fill:#dbddd7;}.cls-17{fill:#c6d2ca;}.cls-18{fill:#498280;}.cls-19{fill:#436263;}.cls-20{fill:#94b7b1;}.cls-21{fill:#81817e;}.cls-22{fill:#446c6b;}.cls-23{fill:#081413;}.cls-24{fill:#95b9b2;}.cls-25{fill:#40837f;}.cls-26{fill:#2f6b6d;}.cls-27{fill:#6a6f71;}.cls-28{fill:#b3b6b0;}.cls-29{fill:#cbcdc6;}.cls-30{fill:#d3dad2;}.cls-31{fill:#4a8d8d;}.cls-32{fill:#daddd5;}.cls-33{fill:#dfe2dc;}.cls-34{fill:#bec4bb;}.cls-35{fill:#d5d8cf;}.cls-36{fill:#f2f5ee;}.cls-37{fill:#b2b2b1;}.cls-38{fill:#ecefe8;}.cls-39{fill:#f1f3ed;}.cls-40{fill:#dfe2db;}.cls-41{fill:#333035;}.cls-42{fill:#262427;}.cls-43{fill:#4b484a;}.cls-44{fill:#2a252b;}.cls-45{fill:#e7e9e3;}.cls-46{fill:#687c7c;}.cls-47{fill:#072b2b;}.cls-48{fill:#0e3732;}.cls-49{fill:#070807;}.cls-50{fill:#658685;}.cls-51{fill:#90adac;}.cls-52{fill:#809c97;}.cls-53{fill:#749997;}.cls-54{fill:#729692;}.cls-55{fill:#77938f;}.cls-56{fill:#1e201f;}.cls-57{fill:#c1c3bb;}.cls-58{fill:#c1c2b9;}.cls-59{fill:#dde0d9;}.cls-60{fill:#cdd0c9;}.cls-61{fill:#272727;}.cls-62{fill:#242025;}.cls-63{fill:#585457;}.cls-64{fill:#3b383c;}.cls-65{fill:#fafbf7;}.cls-66{fill:#f7f9f3;}.cls-67{fill:#f3f4f1;}.cls-68{fill:#2e2e2f;}.cls-69{fill:#e1e1df;}.cls-70{fill:#90938c;}.cls-71{fill:#a6a9a2;}.cls-72{fill:#29252b;}.cls-73{fill:#312c32;}.cls-74{fill:#363338;}.cls-75{fill:#2d282e;}.cls-76{fill:#2e2b30;}.cls-77{fill:#2e292f;}.cls-78{fill:#241f25;}.cls-79{fill:#1f1e1d;}.cls-80{fill:#e0e2dc;}.cls-81{fill:#c5c8c1;}.cls-82{fill:#729191;}.cls-83{fill:#cddcd5;}.cls-84{fill:#e8f1ea;}.cls-85{fill:#171415;}.cls-86{fill:#e1e1e0;}.cls-87{fill:#353036;}.cls-88{fill:#84938c;}</style></defs><title>computer2</title><path class="cls-1" d="M2.81,8.64c2.4-4.27,6.33-5.37,10.84-5.26l.36.74c-.64,2-2.57,1.77-4,2.39-3.22,1.16-4.2,3.43-3.3,6.65a17.3,17.3,0,0,1-.13,9.75C4.38,30.36,5.7,38,5.23,45.57c-.12,2,1,5-2.79,5-3-4.27-1.08-9-1-13.46.19-7.75.56-15.51.84-23.27C2.51,12.11,1.85,10.3,2.81,8.64Z"/><path class="cls-2" d="M45.82.64,98.57.72l2.25.78a1.43,1.43,0,0,1-.11,1.72c-3.4,3.44-7.5,1.08-10.91.65C80.16,2.63,70.56,3.44,61,3.12c-2.82-.1-5.65,0-8.47,0s-5.75-.33-8.51.76A39.3,39.3,0,0,1,38,4.08c-1.42-.06-2.88,0-4.07-1a1.18,1.18,0,0,1-.17-1.54L40.86.79C42.48-.38,44.14-.09,45.82.64Z"/><path class="cls-1" d="M33.79,1.56l-.08,1c-4.2,2.87-9.29.91-13.74,2.51-2.06-.14-4.28.48-6-1.24l-.3-.45A78.78,78.78,0,0,1,33.79,1.56Z"/><path class="cls-3" d="M137.74,16.67c1.12,19.46,1.37,38.93,1,58.4-.24,12.47-.7,24.94-1.06,37.41a1.61,1.61,0,0,1-2.45-.13c-1.78-3.46-1-7.18-.71-10.71,1.09-14.3,2-28.6,1.81-42.94-.36-7.67.78-15.39-.7-23-.73-6.83,0-13.76-1.2-20.58-.07-1-.07-2-.09-3.06a5.21,5.21,0,0,1,.27-2.25,3.33,3.33,0,0,1,.84-1.23,1,1,0,0,1,1.29.16l0,0c1.25,1.81,2.05,3.71,1.15,5.93C137.81,15.29,137.78,16,137.74,16.67Z"/><path class="cls-4" d="M100.81,2.61V1.5a140.79,140.79,0,0,1,26,2.1,11.82,11.82,0,0,0,2.05,1.09,4.2,4.2,0,0,1,1.56,1.85c2.61,9.17,4.34,18.39,1.6,27.87-3.35.14-2.76-2.62-3.06-4.45A87.5,87.5,0,0,1,128,13.39c-.16-.48-.32-1-.49-1.44-1.34-6.29-6.7-5.44-11.13-6.24-2.83-.81-5.62-1.86-8.65-1.58C105.29,4.32,102.49,6,100.81,2.61Z"/><path class="cls-5" d="M135.87,8.52l-.15,1.05c-2.91-.13-3.82-2.1-4.21-4.55l.41-.57,2.55.27C136.5,5.4,136.69,6.78,135.87,8.52Z"/><path class="cls-5" d="M127.83,4.6l-1-1a7.27,7.27,0,0,1,5.1.85l-.16.23C130.43,5.94,129.13,5.37,127.83,4.6Z"/><path class="cls-6" d="M133.81,127.62c-1.79.79-2.76,2.95-5,3-2.57,2.52-5.59,1.39-8.52,1.07a3.44,3.44,0,0,1-2-2.58c.2-2.5,2.27-2.62,4-2.83,3.31-.41,6.46-.73,8.42-4.11a3,3,0,0,1,4-1,.89.89,0,0,1,.23,1.32A9.88,9.88,0,0,1,133.81,127.62Z"/><path class="cls-7" d="M134.89,122.53c-.06-.3-.12-.59-.16-.89-1.52-1.27-4.31.91-5.24-1.94-.12-2.87,3.1-2.85,4.09-4.77a5.19,5.19,0,0,1,2.3-2.24l1.79-.21C139.21,116.51,137.5,119.65,134.89,122.53Z"/><path class="cls-8" d="M1.9,13.68l.81-.24c-.07,8.13.51,16.25-.67,24.4-.6,4.13.47,8.5.78,12.76,2.07,2,1.35,4.46,1.31,6.83A50.41,50.41,0,0,0,3.93,76c.41,10.7,1.3,21.39,1.69,32.1.09,2.68.53,4.92,3.26,6.06a4.07,4.07,0,0,1,1.87,1c.34,1.57.94,3.09,1.2,4.69-2.18,2.33-4.14-.47-6.23-.25-3.6-1.51-.81-6.14-3.87-7.91C.32,79-1.43,46.33,1.9,13.68Z"/><path class="cls-9" d="M12.81,130.66l-4-.06a11.06,11.06,0,0,0-4-4c.11-2.19-.58-4.64,2-6l.68,0c.17,0,.41,0,.48.09,3.6,4.81,8.83,5.74,14.31,6,1.59.11,1.79-1,2.06-2.2.32-1.39.38-3.08,2.55-2.86,2.2,2.83,1.71,5.63-.07,8.43a5,5,0,0,1-2.09,1.56c-2.3.66-4.65.35-7,.44A7.34,7.34,0,0,1,12.81,130.66Z"/><path class="cls-10" d="M25.81,129.6c1.14-2.65,1.89-5.31,0-7.95l-.81.19c-4.42.6-8.89,0-13.32.42-1.73-.15-3.2-1.12-4.83-1.6l0-.08-1.07-1c2-2.86,4,1.43,6-.05a19.77,19.77,0,0,1,15.93-1.1,5.45,5.45,0,0,1,2.21,2.6,7.86,7.86,0,0,1,.39,2.46,11.16,11.16,0,0,1-.35,4,4,4,0,0,1-2.68,2.66A1.9,1.9,0,0,1,25.81,129.6Z"/><path class="cls-11" d="M10.76,115.68l-1.89-.17a5.63,5.63,0,0,1-2.45-3.73C4.65,101.12,5.6,90.29,4.35,79.59c-.73-6.24-1.9-12.58-.87-18.8C5,51.88,4.74,43,4.81,34,4.38,26.28,7.15,18.75,6.36,11,6.08,8.19,8.54,6.68,10,4.72c1.38-.09,2.79,0,4-.9l5.87-.2A1.16,1.16,0,0,1,19.89,5c-1.61,1.6-4,1.79-5.8,2.94a4.59,4.59,0,0,0-3,3.63c-.81,4.62-2.15,9.22-1,14A7.64,7.64,0,0,1,10,27.81c-1.11,2.79-.5,5.73-.77,8.6A8.64,8.64,0,0,1,9,38.09C7.69,43,8.34,47.93,8.35,52.85,8.35,61.91,8,71,8.57,80A14.21,14.21,0,0,1,9,81.56c.25,10,.39,19.93,3,29.65a7.3,7.3,0,0,1,.89,1.18c.61,1.17.95,2.34,0,3.49A1.78,1.78,0,0,1,10.76,115.68Z"/><path class="cls-12" d="M10,4.72C6.11,14,6.43,23.86,5.8,33.6,5.6,48,3.31,62.25,4.89,76.65c1,9,.81,18.17,1.4,27.24.19,3,.14,6,1.51,8.72l1.07,2.9c-4,0-4.7-3.27-4.86-5.9-.63-11-.84-22-1.2-33a74.74,74.74,0,0,1,0-19c0-2.33,0-4.66,0-7,1.55-1.69.9-3.79,1-5.72.32-8.25-.88-16.6,1.8-24.72a10,10,0,0,0-.12-5.4C4,9.4,4.87,7.2,10,4.72Z"/><path class="cls-13" d="M100.81,2.61c2.25,1.84,4.56-.11,6.84.1,2.59,1.63,5.69.76,8.42,1.72,2.18,1.19,4.7,1.18,7,1.84a7.74,7.74,0,0,1,5.71,5.34h0c-.05,2.4,1.56,5.82-3.26,5.28-4-6.3-9.73-9-17.06-8.81-2,.06-4,0-5.94,0a7.37,7.37,0,0,1-2.24-.33c-2.31-1-4.73-.56-7.12-.65C80.92,5.34,68.51,7,56.26,5.33c-8.72.54-17.49.53-26.12,2.25-3.85.77-7.92.37-11.51,2.56-2,1.25-3.63,2.41-2.4,5.07A2.37,2.37,0,0,1,16,16.76a2.88,2.88,0,0,1-1.44.71c-4.42-.35-4.11-3.56-4-6.64-.08-1.94,1.23-2.69,2.78-3.24,2.21-1.38,4.75-1.88,7.16-2.74,5.58-2.4,11.74-.31,17.38-2.22l6,0c2.58-1.28,5.48.23,8.07-.89C66.75,2,81.67.55,96.46,3.22,97.83,3.47,99.36,2.84,100.81,2.61Z"/><path class="cls-14" d="M37.85,2.63c-5.64,3.28-12.18,1.06-18,3-.26-.23-.34-.45-.25-.68s.17-.33.25-.33c0-.33,0-.66,0-1A61.05,61.05,0,0,1,33.71,2.56Z"/><path class="cls-14" d="M51.88,1.71c-2.54,1.66-5.38.59-8.07.89C46.33.75,49.18,1.89,51.88,1.71Z"/><path class="cls-15" d="M135.88,112.69c-.13,1.09-.14,2.22-1.18,2.93-1.61,2-3.13,2.41-4.51-.22,2.87-11.66,2.12-23.65,3.26-35.47,1.22-12.55.13-25-.22-37.5-.28-9.69.09-19.44-1.42-29.08-.45-2.82-.94-5.56-3-7.73l-1-1,3.93.08,4,4.89c0,.68.05,1.35.07,2-.73,1-1.27,2,0,3,1.32,6.62.74,13.33,1,20,.38,8,.24,16,.95,24C138.33,76.66,136,94.64,135.88,112.69Z"/><path class="cls-5" d="M137.76,58.58c-.91-8-2.47-15.91-.95-24C138.86,42.52,137.35,50.59,137.76,58.58Z"/><path class="cls-5" d="M135.82,14.6c-.57,0-1.56.14-1.64-.07-.63-1.54.53-2.24,1.61-2.93Z"/><path class="cls-16" d="M125.79,16.58c3.22-.32,2-3.29,3-5,1.9,5.81.77,12,2,17.85.35,1.71-.44,3.64,1,5.14l.57.55c.67,9.68.74,19.37.77,29.07,0,6.39-1.54,12.76-.23,19.16a6.69,6.69,0,0,1,.08,2.4,31.19,31.19,0,0,0-1.36,9.8c-.16,5.29-3.35,9.3-4.56,14.1-.71,2.78-3.37,4.47-6.65,4.19-2.52-.67-5.3-1-5.16-4.71,0-.58.27.1-.1-.46-2.84-4.21-2.85-4.26,2.57-6.1a7.22,7.22,0,0,0,3-1.58c3.36-1.44,7.3-2.29,7.62-7.84,0,.09-.86.84-.19.79-.21,2.59-.85,4.2-3.38,1.46-1-4.29.12-8.72-1-13,.34-11.85,1.85-23.66,1.54-35.55-.11-4.13,0-8.25-1-12.29,0-4.88,0-9.78-1.16-14.58a5.46,5.46,0,0,1-.3-1.55,3.46,3.46,0,0,1,.32-1.52,1.77,1.77,0,0,1,1.2-.86A1.82,1.82,0,0,1,125.79,16.58Z"/><path class="cls-17" d="M131.81,85.6v-2c.82-15.54.4-31.09.5-46.64a3.56,3.56,0,0,0-.5-2.36h0c0-9.76.34-19.56-3-29a4.33,4.33,0,0,1,3.1,4c.9,8.49,2.41,16.85,2.32,25.52-.07,6.66.44,13.48,1,20.2,1,12.21-.23,24.38-.9,36.53-.23,4.13-.47,8.26-.5,12.39a21.24,21.24,0,0,1-3,11.34c-1.6,1.81-3.48,1.69-5.46.77a1.46,1.46,0,0,1-.58-2.11C131.2,105.7,131.1,95.56,131.81,85.6Z"/><path class="cls-16" d="M128.8,11.61c-2.84-5.1-8.83-4.36-13-7,.33-.4.67-.42,1,0C125.1,4.67,127.6,6.13,128.8,11.61Z"/><path class="cls-2" d="M116.81,4.59h-1c-2.25,0-4.51,0-6.76,0-1.38,0-1.6-.75-1.4-1.87A15.09,15.09,0,0,1,116.81,4.59Z"/><path class="cls-18" d="M129.88,119.59c1.09,1.94,4.14-.77,4.85,2-.77.25-2.08.31-2.23.77-2.38,7-8.89,4.7-13.71,6.17-.86.89-1.64.5-2.39-.16a11.76,11.76,0,0,0-2.83-3.56,2.56,2.56,0,0,1-.2-1.28c.67-1.26,0-2.57.13-3.86a2.45,2.45,0,0,1,1.08-1C119.72,118.47,124.86,118,129.88,119.59Z"/><path class="cls-19" d="M116.85,127.66l1.94.91c.34.67.68,1.34,1,2-2.11.37-4-.61-6-1l-.45-.6a1.64,1.64,0,0,1,.74-1.93A2.23,2.23,0,0,1,116.85,127.66Z"/><path class="cls-20" d="M129.88,119.59c-5.34,2.19-10.68.42-16,0-.71,1-1.43,2-2.54.38,1.55-5.73,7.47-7.66,13.51-4.41l6,.06c1.29,1.55,2.59.65,3.89,0C134.43,118.56,130.85,117.49,129.88,119.59Z"/><path class="cls-21" d="M26.83,129.62l1.73-2a7.73,7.73,0,0,1,4.29-1c10.55.81,21.13.07,31.72.69a199.58,199.58,0,0,0,33.69-.42c3-.34,5.95.78,8.88-.2a9.77,9.77,0,0,1,4.89,1c.87.35,1.19,1.25,1.83,1.85h0c.45,1.42.54,3,2,4-1.44,1.92-3.56,1.46-5.5,1.53-3.64.13-7.32-.31-10.87.88-19.62.26-39.25.19-58.86,0-5.36-1.68-10.94-.37-16.37-1.16-1.72-.79-2.49-1.87-.36-3C25,131.28,26.2,130.88,26.83,129.62Z"/><path class="cls-22" d="M121.55,133.78l3.45-.06c2.46,3.64,3.86,7.33.52,11.25a51.72,51.72,0,0,0-7,1.05c-30.54.16-61.07,0-91.6.07-1.43,0-2.88,0-4.31,0-2.56-.11-5.09-1.28-7.68-.21-3.22-3.69-3.27-7.1-.18-12.22v-.34a3.24,3.24,0,0,1,3.86-.36A3.44,3.44,0,0,1,20,135.65c-.77,2.77.72,3.88,3.19,4.25,18.12.49,36.22.16,54.32.18,13.28,0,26.57.29,39.83-.17,1.42-.32,2.66-.81,2.42-2.66A4.51,4.51,0,0,1,121.55,133.78Z"/><path class="cls-23" d="M121.55,133.78c-.3,1.22-.6,2.43-.91,3.64-1,2.6-3.34,2.57-5.58,2.65-29.46.29-58.93.61-88.39,0-3.06-.19-6.48.39-7.73-3.63l0-2.79a2.55,2.55,0,0,1,3.93-.19c5.73.77,11.57-.36,17.27,1-5.22,1.83-10.7,0-14.68.95,28.25-.68,57.8.31,85.8-.38-2.86-.36-7.36.89-11.72-.56,5.37-1.29,10.88-.11,16.28-.9Z"/><path class="cls-24" d="M10.76,115.68l2.07-.18c4.59-2.88,9-1.19,13.39.57a2.63,2.63,0,0,1,1.47,3.65c-5.3-2-10.66,1-16-.23C9.92,118.6,8.91,117.5,10.76,115.68Z"/><path class="cls-1" d="M2.8,57.59q0,9.51,0,19A39.11,39.11,0,0,1,2.8,57.59Z"/><path class="cls-25" d="M6.83,120.66l4.95,0c4,.9,8.11.28,12,1.72a4.22,4.22,0,0,1-1,5.19C16,128.71,10.09,127.72,6.83,120.66Z"/><path class="cls-26" d="M22.77,127.55l.06-5.94a2.48,2.48,0,0,1,3-.07v.11c.22,2.64,0,5.12-2.29,6.93-.06.06-.36,0-.41-.13A6.86,6.86,0,0,1,22.77,127.55Z"/><path class="cls-27" d="M24.8,130.59a6.26,6.26,0,0,1-6.94.13Z"/><path class="cls-28" d="M108.84,127.63a101.21,101.21,0,0,1-21.56,1.83c-3.92-.08-7.85.13-11.75-.06-15.65-.77-31.36.2-47-1.76.15-1.34.3-2.69.46-4,2.4-1,4.93-.58,7.38-.54,19.6.33,39.19,0,58.79,0,5.08,0,10.19-.64,15.25.45a2.76,2.76,0,0,1,.91,1.38C111.58,126.83,110.21,127.23,108.84,127.63Z"/><path class="cls-29" d="M110.75,124.59c-11.45.11-22.91.34-34.37.31-15,0-30-.24-45-.43A7.19,7.19,0,0,1,29,123.6l-.18-2c3.91-3.43,7.94-2.27,12-.33,2,1.11,4.22.8,6.35.81,12.47,0,24.93,0,37.38,0A108.26,108.26,0,0,0,99.53,121c2.41-1.39,5.14-1.61,7.77-2.27s3.55.53,4.31,2.53A2.67,2.67,0,0,1,110.75,124.59Z"/><path class="cls-30" d="M38.8,121.59c-3.32-1.09-6.63,0-9.95,0l-1.16-1.9c-1.58-3.9-5.3-3.44-8.42-4a46,46,0,0,0-6.44-.24l-1-2.89c2.17-2.36,4.9-1.91,7.62-1.51,3.15,1.64,6.6.6,9.88,1,1.83.84,3.88.89,5.77,1.46.5.21.74.76,1.22,1a2.38,2.38,0,0,1,.07-1,2.64,2.64,0,0,1,.93-.92,4.26,4.26,0,0,1,4.24.25c.93.82.64,1.76.27,2.71-1.28,1.4-1.52,3.23-2,5A2.48,2.48,0,0,1,38.8,121.59Z"/><path class="cls-31" d="M25.78,121.54l-3,.07c-1.82.22-1.11,3.34-3.41,3-1-.15-2.41-.1-2.71-.64-.87-1.59,1.85-.78,1.76-2.12-2.18-.73-4.71.58-6.69-1.18C16.45,121,21.22,119.6,25.78,121.54Z"/><path class="cls-32" d="M19.81,112.6h-9c1.34-3.88-1-7.31-1.47-10.95C8.47,95,9.58,88.18,7.81,81.6c0-1.38-.34-2.93,1.74-3.16a2,2,0,0,1,.8,1.18A2,2,0,0,0,10,78.29a9.44,9.44,0,0,1-.65-4.39c.22-16.25-.64-32.52.56-48.75.2-2.55-1.22-6.94,4.1-6.75a3.75,3.75,0,0,1,1.18,2.38c1,13.91-1.31,27.74-.91,41.64a38.53,38.53,0,0,0,1.13,9.81,45.58,45.58,0,0,1,.38,9.19c-.89,3.91-.18,7.92-.64,11.86-1.78,2.84-3.28,5.68.46,8.23.82,3.17,2.38,5.31,6.11,5.27,1.41,0,2.55.81,3.28,2.5.94,2.2,1,3.26-1.68,3.31C22.14,112.61,21,112.6,19.81,112.6Z"/><path class="cls-33" d="M13.71,18.59c-3.27,2.2-2.75,5.83-2.79,8.87-.22,16.09-.06,32.17-.14,48.25,0,3.23,2,6.3.64,9.69-2.18-1.85-.8-4.93-2.61-6.8C6.85,74.46,7.53,70,7.6,65.71c.05-2.77.1-5.56.21-8.34-.18-3.72.43-7.46-.45-11.15.19-3.2-.61-6.45.45-9.62h0c1.34-2.89-.32-6.11,1-9v-2c.6-5-.65-10.27,2-15,1.81,1.74,0,5.89,4.14,6.09C15.22,17.77,14.72,18.34,13.71,18.59Z"/><path class="cls-34" d="M7.8,112.61a3.69,3.69,0,0,1-2-3.74c.19-4.16-.91-8.29-.87-12.36.15-13.3-2.26-26.57-1-39.8C4.74,49,3.72,41.17,5.8,33.6A629.5,629.5,0,0,0,7.8,112.61Z"/><path class="cls-35" d="M8.8,57.6a163.5,163.5,0,0,0,0,21c-.33,1-.66,2-1,3-1.07-1-1-2.37-1-3.69q0-18.81,0-37.61c0-1.32-.08-2.66,1-3.7q0,5,0,10C9.16,50.17,7.46,54,8.8,57.6Z"/><path class="cls-35" d="M7.81,81.6c2.7,4.51,1.87,9.52,2,14.38.11,3.77.17,7.51,1.94,11,1,2,1.37,4.08-.93,5.62-2.73-2.09-1.43-5.48-1.82-7.95A94.44,94.44,0,0,1,7.81,81.6Z"/><path class="cls-14" d="M10.82,10.6c-2.19,4.8.31,10.22-2,15C7.32,19.88,8.62,14.38,10.33,9A3.76,3.76,0,0,1,13.8,6.59a1.32,1.32,0,0,1,0,2A3.25,3.25,0,0,0,10.82,10.6Z"/><path class="cls-33" d="M13.8,8.59v-2a9.94,9.94,0,0,1,6-2v1Z"/><path class="cls-14" d="M8.81,27.6c-.4,3,1,6.18-1,9C8.21,33.61,6.87,30.42,8.81,27.6Z"/><path class="cls-36" d="M100.82,6.6h2c1.36,1.73,5.85-1.18,5.18,3.53-1.26,1.92-2.85,2.63-5.1,1.61-4.28-1.94-9-1.59-13.5-2.77A11.4,11.4,0,0,1,88,8.72a17.62,17.62,0,0,0-7.71-.46c-5.47.55-10.93,1.61-16.47.62a12.5,12.5,0,0,0-7.65-.35,4.44,4.44,0,0,1-1.5,0c-5.54.56-10.43,3.52-16,4.18-3.87.46-7.73,1.42-11.59,2.12-3.08.56-6.28.54-8.51-2.4,1.6-3.7,4.9-4.13,8.38-4.92,9.54-2.15,19.4-1.68,28.92-3.89,3.81,1.51,7.86.91,11.75.86,8.77-.09,17.49.65,26.23,1.12C96,6.9,98.53,5.94,100.82,6.6Z"/><path class="cls-37" d="M13.71,18.59,15,16.69a4.13,4.13,0,0,0,.86-.11,7.16,7.16,0,0,1,3.7-2.25,83.67,83.67,0,0,0,21.13-1.25,5.75,5.75,0,0,1,1.85,0c18,.17,35.93-.06,53.89.1a13.71,13.71,0,0,1,1.81.19c7.26,1.64,14.66.21,22,.94a5.28,5.28,0,0,1,3.58,2.36c0,.38,0,.75,0,1.13A4.4,4.4,0,0,1,120.57,19c-10.52-.13-21,.5-31.55.32-13.59-2.14-27.19-1.71-40.8-.28-8.59.15-17.18.84-25.78.57a17.71,17.71,0,0,0-6.79,1.26,2.26,2.26,0,0,1-1.73-.13Z"/><path class="cls-38" d="M41,14.69c-7.3,1.67-14.72.57-22.08,1-1,.88-2.05,0-3.07-.06-3.16-2.84-2.45-4.9,1.51-7,4.3-2.29,9-2,13.44-2.65,8.3-1.16,16.7-1.59,25.06-2.33C55.17,6.17,53,5.76,51.36,5.55,42.61,4.46,34.46,8,26,9a15,15,0,0,0-7.17,3.62c5,3,10.22.73,15.35.72C36.55,13.31,39.09,12.28,41,14.69Z"/><path class="cls-39" d="M107.81,9.6c-.57-2.82-4.24-.49-5-3,5.51.48,11.16-1.15,16.51,1.86,2.15,1.21,3.4,4.27,6.58,3.53,0,1.53-.07,3.06-.1,4.59-.33,0-.65,0-1,0-1.21-.7-2.73-.66-3.84-1.6C116.29,13.93,111.06,14.2,107.81,9.6Z"/><path class="cls-39" d="M100.82,6.6c-2.49.74-4.95,1.29-7-1C96.15,5.92,98.69,4.82,100.82,6.6Z"/><path class="cls-33" d="M15.81,15.6c1.07-2.41,2,.76,3.07.06a3.78,3.78,0,0,1-3.07.92Z"/><path class="cls-40" d="M19.81,112.6c1.26-1.46,3.08-.75,3.34-1.56a16.24,16.24,0,0,0,.44-1.66c.16-1.07-.28-1.73-2.86-1.26-5.88,1.08-6.08-2.42-5.92-6.52a3.2,3.2,0,0,1,1-1c6.37-.13,12.73-.85,19.12.3,3.75.67,7.62.18,11.43.21,8.76.07,17.52.56,26.26.74,10.12.21,20.34-1.79,30.38-.11,5.82,1,11-2.12,16.61-1a2.66,2.66,0,0,1,1.15.89c.72,2.94.64,3.17-1.62,2.44-2.76-.88-3.75,2.57-6.2,2.38l4.86.36c-2,2.92-1.31,4.91,2,5.82-3,2.49-6.61,2.68-10.24,2.05-1.65-.29-3.22-.68-4.84,0a6.7,6.7,0,0,1-1.54.47c-1.61.15-3.22-.1-4.83.07-9.09-.56-18.23-.47-27.3-.64-7.32-.14-14.84,1.06-22.3,1-2.45,0-5.07.33-6.95-1.89l-5,0c-2.33.57-4.65-.25-7,0C26.49,113.17,23,114.6,19.81,112.6Z"/><path class="cls-41" d="M89,17.52c11.56-.67,23.11.28,34.67.26a1.38,1.38,0,0,1,.36.71c-1.32,1.85-3.25,2.08-5.27,1.85-4.09-.47-8.18-.13-12.26-.24a28.13,28.13,0,0,1-3.43-.1,20.19,20.19,0,0,0,2.46.16c1.88.09,4.53.63,4.07,2.47s0,5.37-3.67,5.4c-1.36,0-2.51.74-3.8,1a24.44,24.44,0,0,1-6.27.36A27.58,27.58,0,0,0,91.1,29a5.71,5.71,0,0,1-2.23-.5c-2.67-5.39-7.54-5.31-12.61-5.46s-9.91,1.3-14.93.68c-1.68-.21-2.83,1-3.69,2.22-2.12,3-4.93,3.64-8.35,3.07A16,16,0,0,0,43.81,29c-4.12.76-5.07,3.28-2.71,6.81-1.09,3.48-4.62,2.72-7,4-3.68.88-7,2.93-10.9,3.14-5-1.29-6.58-5.77-3.23-9.8.9-1.07,1.76-2,1.62-3.42C21.45,27.9,21,26,23.23,25c1.35-.6,2.34-.06,4.95,2.54,2.39-8.19,9.52-7.66,15.76-8.39,9.47-1.1,19-1.41,28.54-2.06C78,17.36,83.54,16.58,89,17.52Z"/><path class="cls-42" d="M125.89,33.6c1.43,16.34.81,32.67-.06,49-1.15,3.81-.17,7.73-.57,11.57-3.46,2.63-7.41,1.89-11.27,1.61-6.08-.44-12.14-1.64-18.23,0a3.17,3.17,0,0,1-3.62-1c-1.07-1.54.5-2.32,1.22-3.32,1.79-2.48,4.18-3.91,7.25-3.39,5.06.86,8.21-1.45,10.35-5.72,1.53-1.77,3.9-1.91,5.78-3,1.82-1.74,1.28-4.22,2-6.31,1-4.25,0-8.66,1-12.91.7-1.84,3.5-2.6,2.67-5.25,1.65-7-.13-14.24,1.94-21.16A1.19,1.19,0,0,1,125.89,33.6Z"/><path class="cls-43" d="M124.55,94.57c.85-3.94-.72-8.15,1.28-12q-.09,6.95-.17,13.89c-.06.27-.13.55-.2.82-2.1,2.39-5.16,2-7.86,2.75-8.66.07-17.31,0-26,0H50.3c-3.41-.07-6.83.13-10.23-.17-6.94-1.43-14.18-.54-21-2.81-1.24-.42-2.64-.33-3.44-1.62,1.15-3.36,4.1-2.47,6.32-2.28,18.21,1.49,36.45,1.4,54.7,1.32,8.61,0,17.26,1.42,25.75.68C109.81,94.58,117.22,96.12,124.55,94.57Z"/><path class="cls-4" d="M103.81,113.6c5.25-1.66,10.72.09,16-1,3.71.09,4.73-2.25,6.38-5.27,3.77-6.9,3.62-14.54,5.62-21.73,1.9,6-.11,11.74-.75,17.59-.09.81-.81,1.64-.68,2.36.88,4.9-2.06,7.59-5.56,10-3.25.19-6.56-.19-9.7,1.09a5,5,0,0,0-3.41,3.84c-.16.37-.4.44-.73.21a28,28,0,0,0-10.19.9,2.59,2.59,0,0,1-.93-1.8c1.27-2.51-2.32-.17-1.88-1.87a3.67,3.67,0,0,1,.85-4.31h5c.61.62,1.41.46,2.15.51C105.22,114.06,104.43,114.2,103.81,113.6Z"/><path class="cls-44" d="M125.89,33.6h-1.07c-2-.88-1.14-4.57-4.26-4.38-3.07.35-6.13.71-9.06-.68-1.65-1.31-.8-2.19.55-2.93s3.25-.4,4.77-1.24c-.74-2.81-3-2.57-5-3.16-2.35-.68-5.67,1-6.94-2.59l19.23-.13c3.25,2.29,1.43,5.75,1.89,8.66A36.63,36.63,0,0,1,125.89,33.6Z"/><path class="cls-4" d="M131.81,34.6a7.11,7.11,0,0,1,.93,2.23q.84,22.28,0,44.55a7.16,7.16,0,0,1-.93,2.22c-2.24-3-1-6.54-.76-9.56A240.6,240.6,0,0,0,131,41.93C130.85,39.51,131.52,37.05,131.81,34.6Z"/><path class="cls-45" d="M120.81,101.6h-1c-.64-2.37.54-3.37,2.72-3.47,1.36-.06,2.65-.09,3.19-1.66l-.07,0c2.55-.56,1.65-3.23,2.81-4.82C129.18,99.66,128.07,101.07,120.81,101.6Z"/><path class="cls-13" d="M121.81,14.6l3,2-1.1.1a3.89,3.89,0,0,1-2.94-1,.94.94,0,0,1-.33-.79c0-.3.09-.44.16-.44A.84.84,0,0,1,121.81,14.6Z"/><path class="cls-46" d="M111,120.69a3.19,3.19,0,0,0,.73-.21l2.14-.9,0,1a2,2,0,0,1,.16,2.8l-.14,1.32a4.39,4.39,0,0,1-.08,3c0,.62.07,1.25.1,1.87l-1.9-1c-1.45-.66-.46-2.13-1-3.09a1.83,1.83,0,0,0-.19-.89C110.83,123.29,110.9,122,111,120.69Z"/><path class="cls-47" d="M113.76,127.7c-.84-1-1.31-2.06.08-3,1.64.37,4.18-.17,3,3Z"/><path class="cls-48" d="M114,123.33c0-.93-.11-1.87-.16-2.8,1,.13,2.57-.3,2.63,1.23C116.5,123.14,115.13,123.29,114,123.33Z"/><path class="cls-49" d="M99.52,134.44h16.84c0,.39,0,.78,0,1.17-2.18,0-4.37-.07-6.55,0-9.26.35-18.57-.84-27.81.93-4.32.82-8.51-1.05-12.84-1-8.75.14-17.5,0-26.24.07-3.07,0-6.83,1.49-8.93,1.09-4.18-.8-8.59.65-12.57-1l0-1.32h78Z"/><path class="cls-20" d="M110.94,125.48l1,3.09c-1.48,1.14-2-.75-3.12-.94Z"/><path class="cls-50" d="M25.8,138.54c16.75.25,33.5.68,50.25.69,13.26,0,26.53-.49,39.79-.76-.1,2.5-2.06,1.56-3.25,1.58-5.74.11-11.49,0-17.24,0-2.89,0-5.79.11-7.43,0,1.63.45,4.56-.18,7.44,0,7.29-.22,14.59.44,21.86-.39a2.83,2.83,0,0,1,2.68,1c-1.41,1.2-3.13.89-4.77.89H25.49c-1.63,0-3.35.29-4.79-.86a2.39,2.39,0,0,1,2.16-1c8.35.88,16.76.06,22.42.41-3.39,0-9.49.09-15.58-.07C28.39,140,26.17,141.39,25.8,138.54Z"/><path class="cls-51" d="M21.78,144.56l4,.08c1.73.88,3.59.44,5.38.44q40.3,0,80.6.07c1.71,0,3.66-.82,5.15.84-.52,1.93-2.13.73-3.18,1.11-8.11,0-16.2.37-24.29,1-10.09.09-20.18.07-30.27,0-4.59-.94-9.24-.47-13.85-.4-6.13.1-12.21-.54-18.32-.56-.87,0-1.74,0-2.61,0C23.2,146.61,21.5,146.63,21.78,144.56Z"/><path class="cls-52" d="M116.81,146.61c-1.68-1.58-3.77-1-5.7-1q-39.78-.06-79.57-.06c-1.93,0-4,.6-5.72-.92l93.88-.11c1.47-.29,3.17-1.54,4,.92l.16.29C121.75,147.92,119.27,147.19,116.81,146.61Z"/><path class="cls-53" d="M25.8,138.54c4.25,2.24,8.81.71,13.21,1.05,3.45.26,6.93,0,10.4,1.13H20.7c-2.14-.77-4.27-1.55-1.76-4.26C20.82,138.51,23.43,138.13,25.8,138.54Z"/><path class="cls-54" d="M94.83,139.74c5.29-.05,10.58-.06,15.87-.16,1.77,0,3.69.47,5.14-1.11l4.8-1.05c2,1.59,1.17,2.55-.74,3.27l-25.09-.1c-.39-.19-.52-.38-.38-.57S94.69,139.74,94.83,139.74Z"/><path class="cls-52" d="M21.78,144.56c.67.71,1.34,1.41,2,2.11-2.65.51-5.3,1.07-7.87-.32a1.61,1.61,0,0,0-.2-.71C17.14,141.86,19.72,144.69,21.78,144.56Z"/><path class="cls-55" d="M123.71,145.45c-1.13-1.19-2.65-.72-4-.92,1.78-1.08,3.53-1.51,5.23.14a3.59,3.59,0,0,1-.14.87Z"/><path class="cls-56" d="M15.93,146.35l7.87.32,1.75.07a.61.61,0,0,1,.58.7l-10.31.16C15.85,147.18,15.89,146.76,15.93,146.35Z"/><path class="cls-57" d="M38.8,121.59l0-1a2.59,2.59,0,0,1,2.7-1.61c5.38,2.16,11.08.47,16.57,1.38a60.13,60.13,0,0,0,20.47,0c2.85-.13,5.73-.89,8.5.45,2.05,2-.33,2.06-1.24,2.75l-40.17,0C43.17,123.61,40.65,123.74,38.8,121.59Z"/><path class="cls-58" d="M85.83,123.57l2-2,.49-.63c4-1.51,8.33-.72,12.47-1.34,0,.65,0,1.3,0,2C96.09,124.45,90.82,123,85.83,123.57Z"/><path class="cls-59" d="M87.82,121.61l-9,0c-1.39.84-2.91.3-4.37.42-1.68-2.79.89-3.66,2.35-3.63,4.76.11,9-2.42,13.39-2.45a11.92,11.92,0,0,0-7.36.75c-5,.88-10.19-.44-15.13,1,1,1.14,2.4,1.15,3.62,1.64,1,.68,2.57,1.12,1,2.71-4,.1-7.9,0-11.84,0-3.6-1.67-7.52-.82-11.27-1.31a24.94,24.94,0,0,1-8.06-2.16c-1.68-.84-2-1.81-.31-3,.33-.66.66-1.33,1-2,9.43-.9,19-.62,28.4-.9a264.87,264.87,0,0,1,28.62.9c0,1.66,0,3.33,0,5,.07,2.37-1.59,2.39-3.29,2.52-2.57.19-5.21-.58-7.73.46Z"/><path class="cls-60" d="M29.81,113.6c2.33-1.63,4.66-.57,7,0,0,.32,0,.64,0,1-.32.49-.65.52-1,0C33.8,114.37,31.59,115.27,29.81,113.6Z"/><path class="cls-40" d="M35.82,114.61l1,0c-.21,1.2.56,2.75-1.09,3.43-.28.11-1-.27-1.19-.61C33.63,115.92,35.39,115.56,35.82,114.61Z"/><path class="cls-29" d="M40.81,115.6c-.19.67-.88,1.34,0,2a1.37,1.37,0,0,1,0,2l-2,1C39.13,118.8,37.86,116.37,40.81,115.6Z"/><path class="cls-56" d="M58.81,147.61c10.34.45,20.67.33,31-.05,4.68-.59,9.35-1,14,.17-1.27,1.1-2.81.87-4.29.87H37.07c-1.48,0-3,.23-4.26-.94A129.09,129.09,0,0,1,58.81,147.61Z"/><path class="cls-52" d="M58.81,147.61l-26,0-6.68-.22c-.21-.23-.4-.46-.58-.7l30.56-.08A3.51,3.51,0,0,1,58.81,147.61Z"/><path class="cls-55" d="M103.81,147.73l-14-.17c8-1.85,16.14-.77,24.21-.81.15.43,0,.68-.45.74Z"/><path class="cls-61" d="M113.57,147.49a6.36,6.36,0,0,0,.45-.74l2.79-.14c2.43.3,4.84.51,7.06-.87C121,149.53,117,146.88,113.57,147.49Z"/><path class="cls-62" d="M13.81,81.6l-.15-8.67c-.76-7.35-.15-14.72-.34-22.07.46-5.13,3.66-7.47,8.4-8.24,5,.77,5.55,1.61,3.44,5.93a13.23,13.23,0,0,0-1.47,5.72c-.13,8.61.3,17,4.59,24.92,3.17,5.88,8.26,7.72,14.15,8.65,1.79.29,3.68.13,5.31,1.12,1.16.71,2.3,1.67,2.06,3.13s-1.74,2-3.09,2c-5.31,0-10.67.85-15.89.34a142.74,142.74,0,0,0-15.74-.33,2,2,0,0,1-.73-2,12.12,12.12,0,0,0,.1-6.41C14,84.35,14.82,82.84,13.81,81.6Z"/><path class="cls-63" d="M13.81,81.6c1.22,1.12.78,2.67,1,4A10,10,0,0,1,15,91.45l0,2.12c.48.58.26,1.42.74,2l24,3C37.58,101,34.64,99.9,32,100.05c-3.08.17-6.17,0-9.26,0a27.35,27.35,0,0,1-3.5-.17c-2-.85-4.51-.75-5.82-3a2.41,2.41,0,0,1,.32-2.34Q13.76,88.12,13.81,81.6Z"/><path class="cls-64" d="M14.06,49.6q-.2,11.65-.4,23.33c-1.37-17.4-.05-34.79.26-52.18a1.72,1.72,0,0,0,.77-.34c2,.92,2.1,2.78,2.11,4.6,0,5.42-.07,10.85,0,16.27C16.88,44.47,14.4,46.64,14.06,49.6Z"/><path class="cls-45" d="M13.73,94.61l.2,1.68c.43,2.18,2.25,1.7,3.7,1.94a1.56,1.56,0,0,1,.65,1.13c-.25,1.39-1.66,1.48-2.47,2.24h-1C10.48,99.16,10.12,96.86,13.73,94.61Z"/><path class="cls-14" d="M8.8,57.6c-2-3.52-.53-7.35-1-11C9.82,50.11,8.36,53.94,8.8,57.6Z"/><path class="cls-65" d="M63.81,7.6c5.4.72,10.67-.64,16-1,2.89,1.34,6.11-.32,9,1h0c3.69.75,6.86,3,11,2.58,3.53-.32,3.9,2.15,1.79,4.79-1.3.09-2.63.44-3.86-.33h0c-2.54-1.16-5.21-.53-7.83-.54-12.49,0-25,0-37.47,0-2.35-3.57-1.82-4.6,3.31-6.46h0C58.48,7.63,61.14,8.79,63.81,7.6Z"/><path class="cls-66" d="M55.81,7.6c-1.09,2.16-4.67,2.66-4,6-3.23,1.43-6.81-.47-10,1.05l-.41.06-.42,0L24,14.6c-2,0-4.08.23-5.21-2,6.83,1.75,13.18-1,19.76-1.75C44.47,10.16,49.48,5.13,55.81,7.6Z"/><path class="cls-67" d="M101.76,14.51c-.2-1.75,1-3.91-3-2.87-3.36.86-7-1.55-9.94-4,4.91.77,10.15.35,14.6,2.81,2.16,1.19,2.89-1,4.4-.81l14,5h-1A68.37,68.37,0,0,1,101.76,14.51Z"/><path class="cls-66" d="M63.81,7.6c-2.67,3.31-5.33,2.52-8,0C58.48,5.82,61.15,6.44,63.81,7.6Z"/><path class="cls-67" d="M88.81,7.6c-3-.41-6.18,1-9-1C82.8,7,86,5.64,88.81,7.6Z"/><path class="cls-68" d="M14.06,49.6a210.68,210.68,0,0,0,.63-29.19c.29-2.95,2.75-2.58,4.54-2.62,9.41-.21,18.83-.23,28.24-.32,7.78-.39,15.55-1,23.3.32a7.83,7.83,0,0,1-7,1.67c-4.4-1.48-8.13-.66-11.9,1.18a4.68,4.68,0,0,1-3.33.09C43,19.65,38,21.7,32.89,23c-2.79.69-2.62,3.91-3.07,6.3-.22,1.16-.27,2.64-1.65,2.69-1.7.06-1.15-1.64-1.43-2.66a11.83,11.83,0,0,0-.62-1.88c-.53-1.15-1.36-2.06-2.72-1.36s0,1.63,0,2.43c0,2.57,1.43,6.16-4.44,5.9,4,2.23,2.79,4.21.05,6.15l3.81,1.09c.62,1.14-.43,1.45-1,2C18.78,45,15.79,46.49,14.06,49.6Z"/><path class="cls-67" d="M41.79,14.65c3.16-2.1,6.7-.59,10-1.05,13.78-.22,27.58.43,41.36-.32,1.56-.09,3.38,0,4.62,1.37Z"/><path class="cls-64" d="M70.77,17.79l-23.29-.32A274.56,274.56,0,0,1,89,17.52Z"/><path class="cls-39" d="M101.76,14.51l19.06.1,0,1.08c-7.67-.5-15.41.63-23-1Z"/><path class="cls-69" d="M15.81,101.6l2-2c.88-.6,1.77.08,2.66,0,1.89.35,3.71-.76,5.62-.27,2.3.61,4.57.18,6.84-.2,5.33,0,10.66,0,16,0,.82,0,1.64,0,2.46,0a20.2,20.2,0,0,0,8.72.07,6.62,6.62,0,0,1,1.65.27c8.68.06,17.37.49,26.05-.24a33.53,33.53,0,0,1,4.48-.13c8.85-.36,17.73.71,26.55-.59,2.18-1.08,5,.08,6.9-2-.51,3.4-5.74,1.35-5.91,5.13-3.61,1.1-7.49.62-11.08,2.69-1.3.75-4.66-.55-7-1-4.94-.84-9.82-1.68-14.49.47-2.49,1.15-3.79-1.27-6.07-1-9.56,1-19.15,0-28.73-.2C40.2,102.38,28,101.93,15.81,101.6Z"/><path class="cls-70" d="M69.77,109.49c-1.11-.21-3,.74-3.08-1-.15-1.94,1.6-2,3.1-1.82A1.93,1.93,0,0,1,69.77,109.49Z"/><path class="cls-71" d="M69.77,109.49c0-.95,0-1.9,0-2.85,1,.9,3.55.32,3.35,2.1C73,110.3,71,109.56,69.77,109.49Z"/><path class="cls-72" d="M21.82,43.61c.33-.67.66-1.34,1-2,3.8-.49,7-3.06,11-3,1.28-1,2.94-.11,4.31-.84s2.37-.43,2.78,1-.66,2.05-1.72,2.66c-8.42,4.8-10.52,12.8-10,21.54.68,11.87,8.43,17.68,19.19,20.36a63,63,0,0,0,12.74,1.76c3.83.12,7.31.45,10.87,2.64,3.82,2.35,8.94,1,12.55-.5,6.14-2.64,13.21-2.8,18.71-7.42,2-1.65,5.55-.55,8.18-3,2.27-2.09,2.26-3.52,1.38-5.89-2.19-5.89-1.46-11.78.26-17.64,4.74,1.8,6.85,5.47,6.14,11.5-.36,3-.51,6,.63,8.82-.61,2.35,1.56,5.5-2,7-2.26-.11-4.49-.13-6,2-.4,4.52-2.67,7.86-7.34,7.44s-8.69-.35-11.15,4.5c10.32-2.74,20.75.4,31.23,0-.52.37-1.07,1.1-1.54,1.05-8.91-1-17.78,2-26.65.29-3.26-.63-6.17.81-9.34.73-8.79-.21-17.61.24-26.39-.13C47.92,96,35.17,96.07,22.49,94.7c-2.21-.24-4.66-.81-6.7.88a2.07,2.07,0,0,1-.74-2c9.35-1.82,18.81-.07,28.2-.95,1.75-.16,3.54,0,5.43,0-.28-1.74-1.33-2.94-2.28-2.72-4.62,1.06-8.68-1.24-12.76-2.31-3.85-1-6.37-4.78-7.49-8.78-.6-2.12-.73-4.22-3.1-5.22A1.84,1.84,0,0,1,22,71.5c1.49-6.43-1-12.82-.16-19.24.25-1.83.39-3.85,1.72-5.08C27.19,43.79,24.08,44,21.82,43.61Z"/><path class="cls-73" d="M88.81,27.6h2a1,1,0,0,1,0,1.37A4,4,0,0,1,88.94,30c-4,.62-8.1,1.27-10.68,5a7.57,7.57,0,0,1-5.81.7c-4.74-1-8.54.8-11.56,4-2.4,2.54-4.68,2.76-7.52,1.34a7.88,7.88,0,0,0-6.29,3.52A8.24,8.24,0,0,1,44.55,47c-5.65,3.52-5.7,3.53-4.12,10,.47,2,1.41,4.06.36,5.83-2.42,4,.23,5.6,2.8,8,7,6.66,15.36,8.69,24.67,8.25a21.52,21.52,0,0,1,6.41.65,23.91,23.91,0,0,0,13.24-.66c2.66-.84,5.07-.84,5.18,3-2.65,4.07-6.73,5.68-11.08,4.54-5.53-1.45-11.1-.72-16.62-1.3S54,84.7,48.27,84.13A38.43,38.43,0,0,1,32.71,67.85c-1.76-3.3-2.7-6.4-.84-9.9a11.69,11.69,0,0,0,1.23-5.3c.12-5,2.46-8.63,6.37-11.76,2.14-1.72,3.24-4.44,6.61-4.89,1.77-.24-1.58-1.18-.41-2.21,4.29-3.73,9.92-3.65,14.94-4.42,7.17-1.09,14.38-2.23,21.6-3.12C84.62,26,86.83,26.09,88.81,27.6Z"/><path class="cls-74" d="M88.81,27.6c-14.43,1.74-28.91,3.15-43,7-1.24,2.45-3,2.46-5,1-1.85-.09-4-.11-4.59-2.18s2-2.65,3-4c3.42-4.4,7.73-1.86,11.66-1.92,1.43,0,3.09,1,4-.68,2.2-4,4.72-5.1,9.81-4.82a105.35,105.35,0,0,0,15.72-.53C85.37,21,88.4,22.28,88.81,27.6Z"/><path class="cls-44" d="M88.82,28.61h2c1.49-1.23,3.51.23,5-1h7c2-1,4.19-.2,6.25-.58.82,7.51,5.29,13,10.2,18.19.7.74,1.49,1.73,1,2.62-1.11,2.23.14,3.59,1.22,5.3,1.38,2.17.75,4.45-.72,6.47.22,3.75-.5,7.55.55,11.27.38,1.36-.48,2.13-1.55,2.73-5.18-.92-3.08-4.9-2.53-7.38,1.21-5.38-.29-9.36-4.47-12.62-2.94,1.16-5.1,0-5.7-2.81-1.3-6.16-5.8-9.66-10.28-13.17-2.19-1.72-4.24-3.63-6.54-5.24C89.12,31.55,88,30.36,88.82,28.61Z"/><path class="cls-75" d="M40.81,35.6a8.67,8.67,0,0,0,5-1c1.17,0,2.33,0,3.49,0,1,.06,2.19.15,2.12,1.5s-1.23,1-2.23,1.12C41.9,37.82,35,45.45,34.81,52.93c0,1.64.37,3.46-.82,4.81-3.32,3.76-1.49,7,.8,10.29,3.25,4.71,5.5,10.28,11.42,12.62,1.07.42,1.52,1.71,1.6,2.95a.6.6,0,0,1,.26.67c-.09.22-.17.33-.26.33-3.27-1.21-7.41.13-10-3.07s-6.27-5.85-8.72-9c-2.56-3.27-2.47-8.78-1.82-13.14C28.07,54.18,28.71,49,33,44.28c2.28-2.48,3.52-4.79,7.57-4.49-2.45-2.22-4.74-.69-6.8-1.19C35.84,36.88,38.9,37.59,40.81,35.6Z"/><path class="cls-76" d="M109.81,27.6h-7c1.31-1.68,3.51-.41,5-1.48-.28-2.52-2.76.06-3.43-1.53.95-1.89,3.2-.22,4.52-1.77-1.64-2-3.93-.85-5.84-1.24-1.28-.25-3.42,1-3.58-1.36-.16-2.52,2.08-1.34,3.33-1.59a9.35,9.35,0,0,1,2,0c2.68,1.9,5.75.54,8.59,1,1.28.21,3-.91,3.68,1.32.54,1.79,3.41,2.91,2.64,4.72-.86,2-3.46.64-5.27.9-1.29.19-2.65-.06-3.67,1A.65.65,0,0,1,109.81,27.6Z"/><path class="cls-77" d="M95.81,27.6c-1.43,1.5-3.3.84-5,1v-1Z"/><path class="cls-78" d="M109.81,27.6h12c2.23,7,1.36,14.17,1.45,21.3,0,2.58-.27,5.17.55,7.7,2,4-2.62,1.37-3,3-.28-2.88,1.25-6.36-3.32-7.65-1.56-.44-1-2.05.47-3,2.41-1.48,1.53-2.75-.6-3.23-2.4-.54-2.44-2.85-3.66-4C110,38.1,110,31.77,104.52,29.54,105.88,27.7,108.52,29.43,109.81,27.6Z"/><path class="cls-79" d="M123.81,56.61a21.27,21.27,0,0,1-2-11.52c.52-5.85-2.12-11.67,0-17.48,4.59.19,2.46,3.77,3,6C124.89,41.29,124.91,49,123.81,56.61Z"/><path class="cls-44" d="M111.81,82.6c1-3.72,3.24-3.61,6-2C116.06,82,113.81,81.92,111.81,82.6Z"/><path class="cls-63" d="M60.8,99.55h-1a11.84,11.84,0,0,1-8-.06H50.19a.69.69,0,0,1-.66-.71l42.51,0a.63.63,0,0,1-.64.75H87.85A126.73,126.73,0,0,1,60.8,99.55Z"/><path class="cls-40" d="M49.53,98.77c.21.24.43.48.66.71l-18.39.15a8.2,8.2,0,0,1-6,0l-6,1c-.62-1.95,1.58-1.12,2-2h18Z"/><path class="cls-80" d="M91.4,99.48c.22-.25.44-.49.64-.75l26.79-.21c-2.48,2-5.41,1-8.11,1C104.28,99.68,97.84,99.52,91.4,99.48Z"/><path class="cls-29" d="M87.8,121.58c1.8-1.58,4-.85,6-1s3.92.13,5-2l2-3.46v4.5C96.85,122.9,92.17,121.2,87.8,121.58Z"/><path class="cls-81" d="M103.81,113.6h4.56c-2.13,1.42-3.38,1.09-4.56,0Z"/><path class="cls-82" d="M94.83,139.74c0,.29,0,.57,0,.85h-7.7v-.85Z"/><path class="cls-30" d="M40.79,119.62c0-.66,0-1.33,0-2,6.17,2.13,12.7,2.56,19,3.95a1.36,1.36,0,0,1-2,0l-12.2,0A6.16,6.16,0,0,1,40.79,119.62Z"/><path class="cls-29" d="M57.81,121.61l2,0h13a.59.59,0,0,1,1,0l5,.08A47.4,47.4,0,0,1,57.81,121.61Z"/><path class="cls-40" d="M73.82,121.57h-1c-.78-1-1.9-1-3-1,.08-3.15,3.48-2.2,4.77-3.86,2.64-1.12,5.55-.25,8.22-1.12,3.94-2.26,7.94.19,12.06.38-2.84.6-6.27.42-8.41,2C82.5,120.85,77.18,117.66,73.82,121.57Z"/><path class="cls-83" d="M74.86,117.53c-.39,3.17-3.83,1.28-5.06,3.06-1.5-1.31-4.55-.12-5-3.09A8.49,8.49,0,0,1,74.86,117.53Z"/><path class="cls-84" d="M74.86,117.53a12.51,12.51,0,0,0-10.1,0c-1.08-1.93.49-1.84,1.54-1.85,5.49-.06,11,0,16.49,0C80.47,117.59,77.24,115.81,74.86,117.53Z"/><path class="cls-72" d="M19.09,64.5c1.16,1.74.85,3.1-.85,4.28C18.52,67.35,18.8,65.93,19.09,64.5Z"/><path class="cls-85" d="M15,91.45c0-1.94-.11-3.87-.16-5.81A4.85,4.85,0,0,1,15,91.45Z"/><path class="cls-40" d="M17.74,98.77c-1.61-.29-3.76.23-3.81-2.48,1.2,2,3.55,1.18,5.16,2.17A.91.91,0,0,1,17.74,98.77Z"/><path class="cls-86" d="M17.74,98.77l1.35-.31,2.73.12-2,2-2-1A7.74,7.74,0,0,0,17.74,98.77Z"/><path class="cls-80" d="M60.8,99.55l27.05-.07c-2.11,2-4.74,1.19-7.08,1C74.11,100.12,67.35,101.86,60.8,99.55Z"/><path class="cls-80" d="M51.78,99.49l8,.06A7.24,7.24,0,0,1,51.78,99.49Z"/><path class="cls-86" d="M25.81,99.61l6,0A4.68,4.68,0,0,1,25.81,99.61Z"/><path class="cls-77" d="M47.81,84.6v-1c2-.91,3.87-1.7,5.94-.08.91.72,2.11.57,3.32.55,8.67-.16,17.4-1.37,25.91,1.36,4.32,1.38,6.51-2.67,9.83-3.83a5.28,5.28,0,0,1,2.55-2.23,23.69,23.69,0,0,0,5.36-2.77,4.91,4.91,0,0,1,1.31-.43c3.59-1.65,6.14-8.33,5.61-12.92-.57-5-2.18-9.21-6.31-12.26a5.37,5.37,0,0,1-.74-1.15c-1.6-2.77-5.61-3-6.72-6.26-1.61-5.33-6.52-5.94-10.76-7.4-1.33-.45-2.92.1-4.3-.58a2.82,2.82,0,0,1-1-1c1.4-6.17,6.64-5.29,11-6,.88,3.55,4.81,5,6.91,6,4.92,2.46,7,7.41,11.23,10.08,1.26.79,2.21,2,1.69,3.28-1.74,4.33,1.79,4.49,4.16,5.61,2.49,6.35-1.63,13.54,2.57,19.81.67,1,2.64,5.5-2.75,4.16-1.36-.34-1.85,2.08-2.94,3s-2.42,4.18-4.1.26c-.46-1.09-1.42-.79-1.86.09-3,5.88-9.7,3.43-14.07,6.39-3.5,2.37-7.86,2.08-12,2.64-3.44.47-6.48,1.39-8.71-2.33-.76-1.26-2.33-.8-3.67-.83C59.43,86.64,53.52,86.37,47.81,84.6Z"/><path class="cls-87" d="M77.81,34.6h1a21,21,0,0,1,7.85,7.65c2,3.06,5,4.53,8.56,5a5,5,0,0,1,1.62,2.4c.44,2.42.47,4.89,1.83,7.15a6.65,6.65,0,0,1,.23,6.24,17.9,17.9,0,0,0-1.33,5.28c-.65,5.9-1.84,6.52-7.29,8.47-10.86,3.89-21.76,2.63-32.78,1.6-4.43-.41-6.27-2.18-5.29-7-2.8,3.63-4.94,3.8-6.49.52a117.2,117.2,0,0,1-5.8-15.77c-.41-1.35-.4-3.73,1.44-3.61,3.38.22,3.3-1.81,3.62-4,.24-1.68.81-3.55,2.5-4.05,3.22-.95,4.63-3.54,6.33-5.95,2.4,2.46,3.9,2.66,6.43-.59,3.41-4.38,8.79-4.76,14.13-3.73A33.07,33.07,0,0,0,77.81,34.6Z"/><path class="cls-73" d="M53.81,38.6,52.73,44c-.25,1.22-.88,2.67-2.17,2.14-5.61-2.31-4,2.93-4.16,4.55-.3,4.22-1.07,5-5.8,3.1.72,4.12,2.6,7.74,4.16,11.12,1.09,2.38.79,5.08,2.41,7.16.65.85,1.35,1.63,2.44,1.24s.81-1.26.29-2c-1.07-1.57-1-3,1-3.33s2.45,1.51,2.67,2.95c.16,1.09-.36,2.26-.38,3.41,0,1.44.4,2.43,2.24,2.57,6.42.47,12.82,1.53,19.23,1.61,6.66.09,12.62-3.6,19.17-4.5a1.85,1.85,0,0,0,.83-.52c.7-.61,3.42-15.39,2.75-15.84-3.3-2.18-2-5.17-1.63-8a4.52,4.52,0,0,1,6,0c2.34,3,.83,6.83,2.17,10.06a10.86,10.86,0,0,1,.34,1.58c.79,3.63.46,7.3.37,10.95-.06,2.25-.64,4.29-2.88,5.41h-1c-1.73.9-4,.92-5,3l-3,1c-.7-1.26-1.65-2.21-3.2-1.7-12.68,4.18-24.91.7-37.34-1.73C45.43,76.83,42.7,70.4,37,67.93c-1-.45-.93-1.73.14-2.42,3.47-2.21,2.71-5.2,1.82-8.39-.62-2.21-1.4-4.44-1.14-6.84s.44-4.45,3.72-3.78a2.75,2.75,0,0,0,3-1.3C46.4,41.14,50,39.75,53.81,38.6Z"/><path class="cls-88" d="M72.66,118.18a8.76,8.76,0,0,1-6.24,0A8.57,8.57,0,0,1,72.66,118.18Z"/><path class="cls-73" d="M102.81,59.6c-.84-.5-2.11-1.31-1.54-2.11,1.87-2.62.34-5.28.54-7.89,1.24,1.08,2,2.69,3.63,3.33,2.45.94,4,2.42,2.69,5.35a3.3,3.3,0,0,0,.6,3.28c1.67,2.47,1.5,4.92-.14,7.41a4.56,4.56,0,0,0-.71,2.82c.53,4.69-2.36,5.64-6.07,5.81C103.9,71.7,102.32,65.59,102.81,59.6Z"/><path class="cls-73" d="M94.81,47.6c-6.22,3.33-7.57-3.07-10.54-5.65-1.79-1.55-2-4.66-5.43-4.83-1.16,0-.28-1.63,0-2.52,3.8.29,8.38-2.14,10.77,3.1a1,1,0,0,0,.84.45c7-2.59,3.6,3.1,4.39,5.45C95.64,44.94,96.1,46.27,94.81,47.6Z"/><path class="cls-73" d="M94.81,47.6v-4c1.56,2.9,6.78,1.54,7,6-2,.08-4,.69-6,0C95.48,48.94,95.14,48.27,94.81,47.6Z"/><path class="cls-73" d="M95.81,80.6c-.18-4.08,2.17-3.94,5-3C99.72,79.57,97.86,80.24,95.81,80.6Z"/><path class="cls-74" d="M67.93,49.63c-1.9-.89-5.67,2.18-5.55-1.55.09-2.74,3.8-.16,5.31-.85,5.68-2.58,9.15.09,12.43,4.15a2.64,2.64,0,0,0,2.2.76c2-.43,4.06,0,4.7,1.76.84,2.34-1.86,2.14-3.11,2.93A3.62,3.62,0,0,0,82,60.12c.44,4.22-1.38,4.74-5.29,4.89a30.45,30.45,0,0,0-13.6,3.34c-.94.52-1.76,1.19-2.56.14-2.76-3.66-6.1-7.44-5.14-12.29.86-4.3,5.2-3.05,8.16-3.05s5.81,1.24,8.79.7c1.19-.21,3,0,3.12-1.8s-1.53-2.35-3.12-2.4S69.36,49.63,67.93,49.63Z"/><path class="cls-77" d="M104.42,57.09c1,0,1.23.59,1.18,1.27-.06.85-.45,1.61-1.41,1.57-.45,0-1.43.28-1.3-.8A2.19,2.19,0,0,1,104.42,57.09Z"/></svg>
