<svg id="Layer_1" data-name="Layer 1" xmlns="http://www.w3.org/2000/svg" width="146.13" height="146.76" viewBox="0 0 146.13 146.76"><defs><style>.cls-1{fill:#969795;}.cls-2{fill:#a7a7a5;}.cls-3{fill:#babcb9;}.cls-4{fill:#b0b2af;}.cls-5{fill:#b6b9b2;}.cls-6{fill:#989896;}.cls-7{fill:#8e908b;}.cls-8{fill:#ababa9;}.cls-9{fill:#e3e6de;}.cls-10{fill:#cbcdc6;}.cls-11{fill:#b4b6b0;}.cls-12{fill:#eaeaea;}.cls-13{fill:#e6e7e1;}.cls-14{fill:#ebede7;}.cls-15{fill:#929490;}.cls-16{fill:#8b8c87;}.cls-17{fill:#787875;}.cls-18{fill:#bcbcb8;}.cls-19{fill:#d5d6d1;}.cls-20{fill:#848681;}.cls-21{fill:#f4f6f1;}.cls-22{fill:#ebeee7;}.cls-23{fill:#f2f2f3;}.cls-24{fill:#d3d5cd;}.cls-25{fill:#a1a39d;}.cls-26{fill:#afb2aa;}.cls-27{fill:#f0f1ec;}.cls-28{fill:#e7e9e2;}.cls-29{fill:#dcdfd7;}.cls-30{fill:#d6d8d1;}.cls-31{fill:#f2f4ee;}.cls-32{fill:#1b1b1e;}.cls-33{fill:#5e5d5e;}.cls-34{fill:#fbfdf8;}.cls-35{fill:#08070c;}.cls-36{fill:#e2e4df;}.cls-37{fill:#bdbeb8;}.cls-38{fill:#eeefef;}.cls-39{fill:#a5a7a2;}.cls-40{fill:#d5d6ce;}.cls-41{fill:#d3d2d1;}.cls-42{fill:#f6f5f5;}.cls-43{fill:#ecede6;}.cls-44{fill:#1e1d22;}.cls-45{fill:#141315;}.cls-46{fill:#1b1a1f;}.cls-47{fill:#19181c;}.cls-48{fill:#010104;}.cls-49{fill:#232323;}.cls-50{fill:#18171c;}.cls-51{fill:#222126;}.cls-52{fill:#323136;}.cls-53{fill:#2c2b2f;}.cls-54{fill:#242328;}.cls-55{fill:#28272c;}.cls-56{fill:#3e3d42;}.cls-57{fill:#1e1d21;}.cls-58{fill:#27262b;}.cls-59{fill:#3a393e;}.cls-60{fill:#37363b;}.cls-61{fill:#26252a;}</style></defs><title>computer3</title><path class="cls-1" d="M71.17,102.07c0-3.64-2.74-3.07-5-3.07q-30.5,0-61,0c-2.8-.54-4.23-2.49-5.14-5a1.1,1.1,0,0,1,.51,0,2.6,2.6,0,0,1,1.51-.84A3.5,3.5,0,0,1,4.58,94a8.83,8.83,0,0,0,5.65,1.59c18.78,0,37.57.2,56.35-.13a12.14,12.14,0,0,1,8.58,1.81l.39.56a3.48,3.48,0,0,1,.26,1.24c.06.55,4.94-2.44,5.38-2,.33.25-1.28.69-1,1s-2.63,4.19-2.62,4.64a2,2,0,0,1-.8,1.11,4.61,4.61,0,0,1-3.58.35A3.3,3.3,0,0,1,71.17,102.07Z"/><path class="cls-2" d="M6.15,0,114.72.1c2.82,0,5.64.09,8.46.14.46,2.2-.49,3.35-2.69,3.54-14-.45-27.95-.12-41.92-.18-18.89-.07-37.78-.47-56.67,0a11.93,11.93,0,0,1-3.48-.25C12.64,1.67,7.28,2.88,2.14,5.65A2.38,2.38,0,0,1,.45,5.16,8.07,8.07,0,0,1,6.15,0Z"/><path class="cls-3" d="M.45,5.16a3.23,3.23,0,0,0,.62,0C3.18,6.66,2.66,9,2.67,11q0,18.3,0,36.59c-.09,7.1.16,14.21-.14,21.32a4.28,4.28,0,0,1-.64,1.72,1.21,1.21,0,0,1-1.6.42C.13,49.11-.35,27.13.45,5.16Z"/><path class="cls-4" d="M.3,71.08h.78A3.34,3.34,0,0,1,2.62,74c.12,5.55.06,11.1,0,16.65A4.52,4.52,0,0,1,1,94l-.47.06C-.32,86.44.11,78.76.3,71.08Z"/><path class="cls-5" d="M121,3c1.26-.48,1.57-1.75,2.21-2.73l16.94,0,5,4c.05.55.11,1.11.16,1.67.8,10.43.21,20.87.34,31.3.1,8,.07,15.93,0,23.89,0,1.46,1,3.41-1.29,4.27-2-1.36-1.6-3.47-1.63-5.39-.08-5.11,0-10.21,0-15.3-.71-8.32,1.23-16.54,1-24.46-1.2,2.67,2.08,6.49-1.64,9.1-2.24-2.37-1.16-5.32-1.36-8-.23-3.11.25-6.26-.35-9.36-.29-1.27-.55-2.55-.81-3.83-.53-3-2.94-1.64-4.62-2-2.49-.57-5-.1-7.44-.08-25.81.29-51.63.39-77.44,0-7.15-.11-14.29-.44-21.43-.08a46,46,0,0,1-11.48-.16C13.64,5.88,9.91,7.23,7,3.94,8.26,1.4,10.68,2,12.66,2.16c10.74.65,21.5.36,32.24.39,24.38.06,48.75.13,73.13.06A6.27,6.27,0,0,1,121,3Z"/><path class="cls-6" d="M145.07,94c-.19,2.36-1.63,3.57-3.78,4.13-3.44.94-6.95.39-10.41.41-15.5.07-31,0-46.48,0-1.72,0-3.55.38-5.11-1.28,17.59-.7,35.17-.7,52.75-.69-16.26,0-32.52,0-48.78,0-1.64,0-3.33.31-5-.28.37-3.57,3.25-2.61,5.23-2.62,15.46-.13,30.92-.08,46.38-.06a30.77,30.77,0,0,0,7.42-.63,12.78,12.78,0,0,1,2.39-.2c1.35.11,2.71-.11,4.08-.13C144.56,92.82,144.73,93.5,145.07,94Z"/><path class="cls-7" d="M78.09,96.06h58.72v1H80.56c0,.35,0,.7,0,1h60.72c-2.89,1.72-6.09.48-9.11,1l-57-.06c0-.32,0-.64,0-1C75.51,96.52,76.29,95.57,78.09,96.06Z"/><path class="cls-8" d="M145.07,94l-.91-.93c-2.37-2.51-1.27-5.63-1.43-8.49-.17-3.12,0-6.26,0-9.39.47-3.39-1.17-7.1,1.53-10.15,1.49-1.73.89-3.83.9-5.77q.15-26.73.2-53.48c1.14,1.65.75,3.54.75,5.34q0,38,0,76A17,17,0,0,1,145.07,94Z"/><path class="cls-9" d="M97.26,111.94a3.07,3.07,0,0,1,2,1.92c1.86,2.76,2.79,6,4.69,8.75a3.93,3.93,0,0,1-.24,2.84c-19.34,21.24-40,21.28-60.09,1.81.12-3.65-.36-7.37,1.42-10.79.65-1.73,2.24-2.79,3.12-4.37a13.38,13.38,0,0,1,5.94-4.22c.93,1.17.5,2.34,0,3.52-5,7.3-3.84,11.63,4,15.92,7.05,3.85,14.69,3.45,22.19,3.13,5.44-.23,13.44-8.94,14.53-14.55C95.18,114.3,95.24,112.52,97.26,111.94Z"/><path class="cls-10" d="M48.19,112.1c.07,1.7-1.38,2.64-2,4-2.61,3.15-1.21,7.57-3.43,10.85a14.65,14.65,0,0,0-.21,2.48c.08,11.4,2.29,13.25,14.07,11.77a59,59,0,0,1,10.71.38c1.69.27,3.18.62,4,2.25.14,2.4-1.72,2.08-3.1,2.15a122.78,122.78,0,0,1-27.27-2c-3.48-.63-4.66-3.45-4.76-6.73-.11-3.87.91-7.57,1.88-11.26A28.7,28.7,0,0,1,48.19,112.1Z"/><path class="cls-11" d="M38.09,126c.7,3.53-1.29,6.81-.92,10.35.41,3.83,1.53,6.57,6.11,6.94,9.31.74,18.55,2.78,27.93.89,2.78-2.12,6-1.52,9.07-1.3,2.25,1,4.65.75,7,.78,1.9.13,3.9-.33,5.61.92A1,1,0,0,1,93,146l.15,0c-2.33,1.38-4.87.58-7.3.61-8.82.11-17.63,0-26.45.06-5.46,0-10.8-1.19-16.22-1.47-4.13-.08-7.3-1.44-8.08-6C35.6,134.62,35.44,130,38.09,126Z"/><path class="cls-12" d="M53.18,111.1c.31-1.08.63-2.15,1-3.22l1.74-.9c1.16-.26,2.05-1.28,3.33-1.2,2.14-.16,4.27.26,6.39.11,1.74-.11,3,.37,3.29,2.16.34,2.08-1,3.08-2.8,3.4-3.24.6-6.42,1.57-9.76,1.52A4.08,4.08,0,0,1,53.18,111.1Z"/><path class="cls-13" d="M59.27,106.16l-3.4.82c4.34-4,10.33-2.85,15.3-4.91l2,1.14a1.93,1.93,0,0,1-.17,3.06,21.93,21.93,0,0,0-4.19.39C65.74,104.64,62.41,107.18,59.27,106.16Z"/><path class="cls-13" d="M78.09,96.06l-2.9,2.06C73.07,96.81,70,98.44,68.3,96c-19.65.34-39.31,0-59,.18a6.84,6.84,0,0,1-5.94-3c-1.06-1.67-.7-3.55-.7-5.36q0-37.71,0-75.43C2.72,10.11,2,7.57,4.45,6,7.9,7.44,7.11,10.6,7.12,13.23c.06,18.12.13,36.23-.37,54.34-.11,4.34-.21,8.83,1.9,12.9.12.27.11.61.31.76-.58-20.39-.12-40.68-.25-61a37.19,37.19,0,0,0-.56-7.45c-.31-4.5,2.41-5.6,6.19-5.52,5.38.48,10.79-.93,16.15.27,29.64-.69,59.28-.46,88.92-.52a83.64,83.64,0,0,1,12,.61,6.44,6.44,0,0,1,2.86.65c.89.69,1.32,1.44.32,2.39-2.3,1.4-4.86.88-7.31.89q-52.94,0-105.86,0c-2.46,0-5-.47-7.29,1A5.39,5.39,0,0,0,13,14c.46,21.44-.83,42.87-.32,64.31.06,2.29-.4,4.69,1.25,6.7,2.26,1.95,5,1.56,7.63,1.56q51.39,0,102.78,0c2.46,0,5-.46,7.35.78.66,4.37-3,3.71-5,3.5-5.47-.59-10.87.25-16.3.2-10.25-.09-20.5.27-30.74-.23a2.38,2.38,0,0,0-2.83,1.85c-.51.4-1,.85-1.73.42a1.83,1.83,0,0,1-.56-.78,2.37,2.37,0,0,0,.55,1c9.68-2.31,19.5-.85,29.24-1.23,4.63-.17,9.25-.77,13.81-1,7.06-.43,14.43-.09,21.17,3-1.67,1.59-3.77,1-5.7,1-16.76,0-33.53,0-50.29.06C81.58,95.24,79.67,94.7,78.09,96.06Z"/><path class="cls-14" d="M72.2,106.08c1-.73,1-1.8,1-2.87l4-.19c7.64.8,14.47,3.42,20,8.92a6.2,6.2,0,0,0-.61,3.33c.17,2.26-1.16,5.82-2.75,6.76-2.72,1.62-3.58,4.66-6.36,6.67-6.46,4.68-12.55,2.53-19.11,3-7,.47-10.91-3.23-15.74-6.27-5.07-3.19-5.1-10.47.49-14.3,1.11,0,2.24,0,3,1,.83,8.34,7.59,10,13.78,11,7.32,1.26,13.71-1.13,17.17-9-3.58-.27-6.62-5.87-10.53-.44-1.82.49-3.64-.24-5.45,0-3.51-2,.18-3.53.26-5.31A3,3,0,0,1,72.2,106.08Z"/><path class="cls-15" d="M5.1,5.88C4,6.9,4,8.26,4,9.59q.11,41.75.25,83.48a1.14,1.14,0,0,1-1.08,1L1,94l.06-23,.18-1a104.89,104.89,0,0,0,0-21.84q-.1-21.54-.2-43.07C5.2,1.35,10.29.5,15.48,1.22c9.18,1.27,18.4.54,27.58.7,24.21.42,48.43.14,72.65.18,1.77,0,3.7-.57,5.26.86q-53.77.09-107.56.22c-2.1,0-4.34-.57-6.27.84A2,2,0,0,1,5.1,5.88Z"/><path class="cls-16" d="M3.17,94.1l1.08-1c2,2.1,4.62,2.23,7.35,2.22q25.67-.08,51.34,0c1.79,0,3.68-.45,5.35.64-1.44,1.59-3.37,1.13-5.14,1.13-17.74,0-35.48,0-53.22,0C7.15,97.13,4.58,97,3.17,94.1Z"/><path class="cls-17" d="M75.24,99.17c0,1,0,1.94,0,2.91-.78-.14-1.63-.23-1.74-1.25C73.32,99.54,74.22,99.27,75.24,99.17Z"/><path class="cls-10" d="M87.13,145c-2.33-.21-4.82.79-7-.83,2-3.92,5.67-2.74,8.91-2.85,4.24.8,8.24-.6,12.24-1.59,3.43-.85,2.72-4.08,3.11-6.62a7.28,7.28,0,0,0-1.06-5.23,4.38,4.38,0,0,1-.13-2.77l0-3c-.57-1.14.22-1.59,1-2,3.3,1.76,1.86,5.82,4,8.17a32.11,32.11,0,0,1,1,9.81c0,3.57-1.71,5.62-5.26,6.05-3.77.46-7.48,1.43-11.38.61A9.22,9.22,0,0,0,87.13,145Z"/><path class="cls-18" d="M87.13,145c4.9-1.56,10-1.25,15-1.72,4.29-.4,5.89-2.3,6-6.14.08-3,0-5.94,0-8.9,2.79,4.3,2.09,9.1,1.94,13.82-2.16,1.32-4.1,3.15-6.9,3a22.37,22.37,0,0,1-9.77.17Z"/><path class="cls-19" d="M104.2,120.06l-1,2c-3.81-1.57-2.66-5.47-3.89-8.25C101.92,115.15,102.89,117.74,104.2,120.06Z"/><path class="cls-20" d="M1.27,48.19A47.67,47.67,0,0,1,1.26,70Q1.26,59.11,1.27,48.19Z"/><path class="cls-21" d="M132.14,9.06,30.24,9c0-.49,0-1.15.57-1.2,5-.49,9.94-.11,14-.24H32.47c-2.33,0-4.41-.27-4.24-3.38l109-.13a7.66,7.66,0,0,1,4,3l1,3c-1,1.67-.25,3.5-.5,5.24-1.08,2.33-2.52.48-3.82.33a6,6,0,0,1-2.38-2.24,4,4,0,0,1-.51-2.56c0-.22.07-.43.11-.65-.3-.38-.59-.77-.88-1.15C133.51,8.81,132.82,7.46,132.14,9.06Z"/><path class="cls-22" d="M5.1,5.88,7.14,4l10,.23c2.07,3.89,2.07,3.89-2.9,4.78C12.34,9.5,8.66,7.74,10,12.38,9.24,27.19,10,42,9.62,56.83c-.95,6.53-.16,13.09-.45,19.63-.09,1.9.57,4-1,5.63-4.56-4-2.73-9.57-2.82-14.32C4.94,47.15,5.13,26.51,5.1,5.88Z"/><path class="cls-23" d="M14.27,9c2.91-.42,2.94-2.58,2.9-4.78l11.06,0c1.25,2.38,3.32,3,5.86,2.91,4.25-.11,8.5,0,12.75.28C41.38,9.06,35.61,6.79,30.24,9Z"/><path class="cls-24" d="M141.2,16.11c.3-2-.67-4.23,1-6l.12,19c1.84,4.11.63,8.43.85,12.64s.05,8.23.05,12.34c0,11.9,0,23.81,0,35.71-.36,1.35.54,3.56-2.24,3.22a6.56,6.56,0,0,1-1.66-6c.78-5.6.23-11.21.42-16.8a76.57,76.57,0,0,1,0-16.3c-.24-10.77-.37-21.54,0-32.31C139.76,19.66,139.23,17.53,141.2,16.11Z"/><path class="cls-25" d="M142.27,90.1q0-18,0-36c.84-2.52.16-5.12.42-7.67.09-1-.49-2.47,1.47-2.3q0,10.47,0,20.95l-.06,10.08c-1.06,3.92-.14,7.94-.51,11.89C143.54,88.14,144.52,89.9,142.27,90.1Z"/><path class="cls-26" d="M144.18,44.12c-2.38,3,.33,7-1.89,10v-25c2-3.68.1-7.82,1.89-11.6Z"/><path class="cls-27" d="M141.2,7.1c-1.88-.28-2.77-1.88-4-3C139.4,3.92,141,4.62,141.2,7.1Z"/><path class="cls-28" d="M141.15,70.11V93c.26.24.32.45.19.62a.46.46,0,0,1-.35.22l-1.65.3c-5.92-.26-11.93.56-17.64-1.91-3-1.29-5.09,1.85-8,1.9-12.92.21-25.86-.73-38.77.53-1.5.15-1.79-.57-.64-1.65L75,93c3.86-1.67,0-2.37-.61-3.88,17.48,0,34.79,0,52.1,0,1.94,0,4,.54,5.75-.87A3.12,3.12,0,0,1,134,86.5c.88-.69,1.18-1.8,1.86-2.64,1.63-3.79.87-7.72.54-11.58-.12-1.45-.74-2.84-.19-4.32a3.37,3.37,0,0,1,.87-1.15c2.21-.65,3.33.52,2.88,2.44C139.45,71.35,141.24,69.21,141.15,70.11Z"/><path class="cls-7" d="M141,93.86c.06-.28.11-.56.16-.84,1.07-.71,1-1.86,1.12-2.92,1.79-2.94.55-6.17.92-9.24.23-1.92-.57-4,1-5.71V93.1C143.16,93.6,142.59,95.85,141,93.86Z"/><path class="cls-29" d="M103.21,125.1l1,2c0,6-3.16,10.73-8.59,11.44-3.25.42-3.42,3.33-5.43,4.55-3.36.28-6.85-.72-10,1.07l-8.93,0c-5.23-2.07-10.69-.54-16-1.06-5.93-.63-8-6.76-12.88-9.18-1.54-.76-1-4.86,1.2-7l.68.17c4.23,2.53,9.65,3.36,12.1,8.47a1.73,1.73,0,0,0,1.13.92c6.33.42,11.87,5.5,18.51,3.52,4.16-1.24,8.09-3.27,12.6-3,1.45-6.49,10.54-4.48,12.13-10.88C101,124.85,102.27,125.22,103.21,125.1Z"/><path class="cls-29" d="M41.2,126.09c1.18-1.76,2.58-3.53,2.35-5.76s1.05-3.27,2.62-4.25c-1.12,3.59-.25,7.54-2,11h0C43.28,126.49,41.91,127.27,41.2,126.09Z"/><path class="cls-30" d="M41.2,126.09c1.1,0,2.21,0,3,1-.91,2.74-4.3,5.41,2,7.15,3.65,1,5.27,6.55,9.06,8.82-3.9-.4-7.79-.92-11.7-1.14-1.6-.09-1.71-.64-2-2A61.88,61.88,0,0,1,41.2,126.09Z"/><path class="cls-31" d="M76.12,113.11c.82-.7.68-1.41,0-2.1s-1-1.46-.34-2.21a1.88,1.88,0,0,1,2.3-.38c3.63,1.57,7.23,3.19,10.86,4.76,1.14.49,2.21,1.09,1.95,2.49-.29,1.56-1.47.85-2.39.69s-1.85,0-1.91,1c-.36,5.91-5.54,6.24-9.27,7.19a16.81,16.81,0,0,1-11.8-1c-3.52-1.64-7.49-1.87-9.64-5.82-1.11-2-2-3.87.32-5.63a26.24,26.24,0,0,1,9.49-2.06c1.21,0,2.71-.42,2.18-1.86-1.42-3.8-1,.91-1.93.51-2.18-.94-4.43-1.71-6.66-2.54,3.3-.29,6.59-3.26,9.91-.06a10.74,10.74,0,0,0,4,2c1.65,2.43-3.58,2.44-1.73,4.93C73,112.26,74.52,115.21,76.12,113.11Z"/><path class="cls-12" d="M73.18,108.09c-2.28,1.25-3.66.66-4-2,1-.83,2-2.3,3,0Z"/><path class="cls-32" d="M11.27,87.05C11.18,72.32,11,57.59,11,42.87c0-10.26.15-20.52.23-30.78a2.54,2.54,0,0,1,2.81-.59c3.91,3.44,4,8.36,5,12.92a4.37,4.37,0,0,1-.29,1.52c-2.29,6.38-.76,12.94-.95,19.42,0,1.08,1.18,1.48,1.8,2.2,1.74,2.75,1.39,5.77,1,8.74A93.33,93.33,0,0,0,20,65.75c-.16,3.94.5,7.25,4.67,8.93a5.9,5.9,0,0,1,2.83,2.77C31,84.2,37.09,83.73,43.13,83c2.65-.32,5.18-.79,7.88-.2,2.41.53,4.44-.87,6.54-1.94,6-3.08,10.49-1.7,12.58,3.65.43,1.11.29,1.93-.89,2.41-16.79.42-33.58.17-50.37.13-5.15,0-6.21-2.4-6.15-8.5.12-12.67,0-25.36-.29-38-.41-.65-.78.45-.25.05.23-.18.39-.08.39.3.07,15.23.34,30.46.21,45.69A1,1,0,0,1,11.27,87.05Z"/><path class="cls-33" d="M11.27,87.05a5,5,0,0,1,.94-.16c2.15-1.94,4.47-.22,6.69-.23,16.13-.1,32.32.76,48.38-.27,19.27-1.23,38.51-.3,57.75-.77,7.32-.18,7.65-.41,7.66-7.5q0-17.7,0-35.41c0-7.77.09-15.55,0-23.32-.09-5.75-.92-6.48-6.62-6.8h-41c-20.55,0-41.1,0-61.64,0-4.15,0-8.24-.12-12.2-1.5C11.7,9.5,13.06,10,14.12,10q60.47.08,121,.21H135a22.34,22.34,0,0,1,1.69,9.63c-.28,16.26.33,32.53-.35,48.8-.26,6.08.92,12.21-.66,18.27-.16.61-.57.72-.91,1l-2.57.26L44.32,88c-9.49,0-19,.07-28.47,0C14.32,88,12.5,88.8,11.27,87.05Z"/><path class="cls-34" d="M9.16,57.13c0-13.16,0-26.32.05-39.47,0-1.77-.6-3.69.79-5.28q0,34.71.05,69.42c0,1.47.28,3-.85,4.29A172.87,172.87,0,0,1,9.16,57.13Z"/><path class="cls-35" d="M11.21,11.12l74,.15a1.24,1.24,0,0,1-.51,1.57,5.84,5.84,0,0,1-3.57.74,347.88,347.88,0,0,1-39,.19c-7-.64-13.94.85-20.93.39-2.5-.16-5,0-7-2l-2.95-.09Z"/><path class="cls-36" d="M9.16,57.13q0,14.48,0,29c-2-.91-.59-2.69-1-4,0-6.59,0-13.19,0-19.78C8.22,60.55,7.72,58.65,9.16,57.13Z"/><path class="cls-37" d="M75,93a3.35,3.35,0,0,0-.63,0L71,91.6C72.71,91.07,74.54,90.14,75,93Z"/><path class="cls-38" d="M132.14,9.06l-2-1.53c2-.88,3.1.06,4,1.53Z"/><path class="cls-39" d="M76.12,113.11c0,.89.57,2.35-.42,2.53-1.94.36-2.71-1.91-4.26-2.62C73,111.28,74.58,112.11,76.12,113.11Z"/><path class="cls-40" d="M90.18,143.09c.43-3.84,2.08-5.54,6.38-6.38s5.85-5.74,7.64-9.61c3.41,4.19,2.25,8.48,0,12.61-2.1,3.89-6.55,1.69-9.65,3.27C93.39,143.58,91.65,143.09,90.18,143.09Z"/><path class="cls-27" d="M141.2,16.11q0,19,0,38c-1.1,1.38-2.21,1.9-2.4-.46a53.6,53.6,0,0,1,0-7.13c-.75,4.2.83,9.41.46,14.66-.16,2.17-.28,4.3-2,5.93h0a.9.9,0,0,1-1.42-.54c-.17-8.58-.06-17.17-.06-25.76a129.8,129.8,0,0,0,.94-20.86c-.06-1.83-.5-3.71,1.53-4.84C139.62,14.15,140.31,15.43,141.2,16.11Z"/><path class="cls-41" d="M136.25,40.05q0,13.52,0,27c1,6,1.84,12,0,18-.1,1.16,0,2.41-1.48,2.87a8.43,8.43,0,0,0,.45-1.93q-.09-37.9-.22-75.8c1.31.58,1.15,1.8,1.26,2.9,1.48,6.16,1.05,12.42.74,18.62C136.85,34.49,137.22,37.35,136.25,40.05Z"/><path class="cls-42" d="M136.25,40.05V13.12l1.93,2c-.41,7.23.72,14.53-1,21.72C137,37.93,137.19,39.15,136.25,40.05Z"/><path class="cls-43" d="M137.19,67.1c-.57-7.56,2-14.94,2-22.54,0,2.45,0,4.9,0,7.35,0,1.27-.3,2.92,2,2.19q0,8,0,16L139.67,72C138.47,70.5,140.21,67.54,137.19,67.1Z"/><path class="cls-43" d="M136.24,85.08v-18h.95a67.69,67.69,0,0,1,1,14.07C138.08,82.76,138.48,84.57,136.24,85.08Z"/><path class="cls-44" d="M42.19,12.11l40,0c.81.48-1,1.82.28,1.69,3.38-.35,5.54,1.82,8,3.4,1.5,1,2.59,2.32,4.79,1.77s3.2,1.24,4,2.94a30,30,0,0,1,2.61,9.48c-2.81,6.26-5.21,12.83-12,16.19-3.74-2.87-4.29-6.83-3.8-11.13.12-1,1.31-2.53-.57-2.85C81.65,33,79.19,30,76,28.51c-4.65-2.09-9.33-4.64-15.19-3-4.2,1.21-8.92.43-13.4-.24-5.75-.85-10.6.43-13.49,6.05a5.14,5.14,0,0,1-2.71,2.84c-4.84,1.57-5.35,5.4-5.23,9.61.2,7.13-.78,14.33,1.43,21.33.39,1.23.18,3,1.95,3,6.09,0,10,5,15.37,6.65,2.12.65,3.57,1.11,5.39-.51,3-2.68,7.1-2.66,10.73-3.71C67.64,68.62,73.51,66,76,58.49c1.29-3.86,3.92-4.1,7.06-1.29a4.78,4.78,0,0,1,.1,1.46c-.63,2.62-2.42,4.6-3.78,6.82a18.89,18.89,0,0,0-3.07,4.24c-.45.76-.87,1.53-1.25,2.32-.69,1.87-2,3.41-2.76,5.27,3.56,2.46,8.18,2.27,11.64,4.87a2.48,2.48,0,0,0,2.33.34c2-.61,4.5-.83,4.81,1.71S88.57,86.06,87,86.6c-5.61-.39-11.24.51-16.82-.52-1.35-1.26-3.81-1.51-3.47-4.3.1-.86-7.09-.66-8.29.44-2.92,2.65-5.93,2.74-9.88,2.14-3.58-.54-7.59.82-11.48.79s-6.86-.19-9.15-4.33c-1.29-2.34-3-5.61-7.11-6-2-.17-2.51-3-2.69-5.38-.54-7.18,1.39-14.22,1.06-21.38-.21-.25-.57-.48-.61-.77-1.17-7.39-2.64-14.78-.38-22.23v-1c6.3-5.18,12-11.54,21.29-10.93A3.26,3.26,0,0,0,42.19,12.11Z"/><path class="cls-45" d="M70.19,86.08h18c5.89-2.4,12.09-1.89,18.21-2,6.46,1.32,12.93,0,19.38-.08,4.23-.06,5.37-4.13,5.47-7.07.16-4.46.54-9,.44-13.44-.38-7-1.15-14,.72-20.89a1.28,1.28,0,0,1,1.62-.5c.08,13.64.11,27.28.3,40.91,0,2.91-.68,4.1-3.87,4.09q-59.13-.23-118.25-.22V38.52h1c0,7.37.33,14.77-.1,22.12-.4,6.79,1.23,13.45.42,20.32-.36,3.08,3.41,5.18,7.19,5.17C37.2,86.07,53.69,86.09,70.19,86.08Z"/><path class="cls-46" d="M42.19,12.11C40,16.34,35.48,15,32.05,15.89c-2.44.67-5.11,1.72-5.7,3.47-1.48,4.36-4.91,4.12-8.16,4.74-2.44-3.61-2.34-8.06-4-11.92Z"/><path class="cls-46" d="M18.19,25.1c-.66,7.71,1.37,15.3,1,23-1.38-.06-2.87-.24-2.87-2q0-9.63.26-19.26C16.59,26.25,17.62,25.68,18.19,25.1Z"/><path class="cls-47" d="M134,42.11h-.83a3,3,0,0,1-1.11-1.31,15,15,0,0,1-.4-4.27c0-4.49,0-9,0-13.47-.71-3.06,1.21-6.65-1.85-9.24a6,6,0,0,1-3.45-1.18,1,1,0,0,1-.17-1.35,18.45,18.45,0,0,0,2-.14c4.6-.78,6.4.74,6.11,5.75C133.81,25.28,134.08,33.71,134,42.11Z"/><path class="cls-48" d="M85.2,12.06v-.79l28.93-.07a1.84,1.84,0,0,1-.75,1.68c-6.51,2.56-13.29.81-19.94,1.19C90.59,14.23,87.45,14.75,85.2,12.06Z"/><path class="cls-49" d="M114.11,12.07a3.62,3.62,0,0,0,0-.87l12.09.09c0,.26,0,.53,0,.79-1.22,1.68-3,1.7-4.77,1.54-2.27-.22-4.69.75-6.77-.86Z"/><path class="cls-50" d="M85.2,12.06h28.92l.2.09c1.24,2.08-.18,3.48-1.33,4.85a26.43,26.43,0,0,0-3.62,5.36,26.51,26.51,0,0,1-3.19,4.49c-1.42,1.09-2.17,2.86-3.78,3.78a3.52,3.52,0,0,1-1.26.45c-2-2.69-2.2-6.05-3.43-9-.74-1.81-1.24-3.35-3.17-.95-.56.71-1.56,2-2.3.74-3.2-5.37-8.22-7-14.16-7,.68-2.46,3.23-1.17,4.08-2.71Z"/><path class="cls-51" d="M82.19,58.1c-2.5-3.41-4.08-1.53-4.88,1.13C75.16,66.35,68.87,70.64,62,72.47c-3.81,1-9.15-.46-11.79,4.6-.88,1.68-3.82,1.7-5,.52-1.77-1.86-4.3-1.73-5.86-2.88-3.79-2.79-7.19-5.61-12.33-4.56-.39.08-1.42-1.08-1.53-1.76a134,134,0,0,1-1.11-30.34c.13-1.65,1.09-3.76,2.61-4,3.78-.6,5.11-3.33,6.83-6.08,2.82-4.53,7.51-5.11,12.22-4.75,6.82.52,13.7,2.86,20.16-1.43a1.36,1.36,0,0,1,.44-.19c2.86,4.28,9.1,2.83,11.71,6.07S84.09,31.2,87.31,32c1.08.29,2.56-.1,3,1.29s-1,1.44-1.78,1.94c-2,1.27-1.48,3.27-1,4.94a67.86,67.86,0,0,0,2.67,6.88c.67.88.3,1.75,0,2.61a31.19,31.19,0,0,1-4,6.24C84.83,56.74,84.26,58.78,82.19,58.1Z"/><path class="cls-52" d="M108.11,22.07c.82-4.09,5-6.1,6.21-9.91l6.86-.05c4.07,2.58,4.55,6.4,5.08,11,.79,6.83.13,13.46-.37,20.17a19,19,0,0,1-1.79,5.68c-1.37,3.37-3.21,6.58-2.64,10.46a3.89,3.89,0,0,1-.7,2.87C116.22,68,111.18,73.86,103.69,75s-15.4,1-22.76-2.49c-4.26-2-4.94-3.13-2.74-7.41a21.57,21.57,0,0,1,4-6c.19.14.39.27.59.4,2.82,5.47,3.09,5.63,9.3,4.49,4.5-.83,9.33.68,13.6-2.11,1.56-1,3.25-1.78,3.82-3.68,1.84-6.1,5.79-11.35,6.8-17.8.88-5.61,1.84-11.15-.9-16.51-.94-1.84-2-3.7-4.55-1.95A2.59,2.59,0,0,1,108.11,22.07Z"/><path class="cls-53" d="M78.19,65.1c-1.53,3.59.13,5.28,3.53,5.9.81.14,1.9-.1,2.43.34,5.89,5,13,.49,19.27,2.5.61.19,1.51-.49,2.27-.76,5-1.8,7.54-6.8,12.23-9.07,1.14-.55,2.35-3.15,2-4.29-2-5.91,2.77-9.79,3.85-14.7a49.37,49.37,0,0,0,1.49-12.82c-.21-4.59-1.65-9.17-.88-13.8.38-2.27-1.34-2.29-2.4-3.11s-2.91-1.53-.78-3.18l5,0,4,.05c2,4.07,1.23,8.47,1.49,12.75-.13,5.4.26,10.63-2.43,15.94-2,3.93-.62,9.1-1.43,13.72-1,6-3.46,10.69-7.1,15.79-6.31,8.83-14.28,9.75-23.48,9-2.88-.22-5.11,1.87-8.53.91a73.2,73.2,0,0,1-10.89-4.42c-3.17-1.46-4.15-3.57-2.62-6.76C76,67.62,76.45,65.88,78.19,65.1Z"/><path class="cls-54" d="M133.17,41.09l0,1q0,11,0,22c-2.24,1.66-2,4.44-2.76,6.68C127.06,80.59,120.06,85.11,110,85.6c-1,.05-2-.27-2.83.5h-19c.71-.61,1.92-1.17,2-1.86.12-.89-1.22-1.26-1.92-.88-5.13,2.86-8.27-2.79-12.71-3-.74,0-1.45-1.35-2.59-.87s-2.18,2.53-3.14.55c-.5-1,.08-3.22,1-4.16,1.37-1.49,2.21-3.26,3.4-4.81C75.89,77,81.45,78.39,86,79.53c6.73,1.67,13.92.63,20.87.36,4.37-.18,8.79-1.61,10.74-6.47A6,6,0,0,1,119.43,71c7.34-6,8.72-14.13,8.33-23-.13-2.93,0-6.07,3.3-7.66A2.64,2.64,0,0,1,133.17,41.09Z"/><path class="cls-55" d="M131.19,41.1c-1.67,2.91-4.54,5.6-1.38,9.31.34.4-.13,1.58-.35,2.36-2.15,7.46-2.71,15.61-10.18,20.59-2,1.31-1.87,4.41-4.66,6-8,4.41-16.13,2-24.28,1.67-4.14-.18-8.06-.61-11.79-2.82-2.87-1.71-4.7-3.6-4.37-7.06.34-.67.67-1.34,1-2-.12,2.5.33,4.22,3.29,5.23,3.74,1.29,6.72,4.23,11.18,4.39,1.78.07,3.09,1,4.58-.79,1.1-1.29,2.73-.56,4.22-.28,6.1,1.16,13.06.69,16.84-3.43,5.5-6,12.24-12.32,11.32-22-.89-9.32,4.9-17.75,3.57-27.12,1.42-.57.49-3.49,3-3v15C131.81,38.09,132.55,40.12,131.19,41.1Z"/><path class="cls-56" d="M89.18,49.09l1-2c4.22-5,7.44-10.58,11-16,.07-.3.12-.61.17-.92,1.45-.09,2.4-1.6,4-1.39,3.39,1.68,4.26,4.32,3.24,7.89-.91,3.2-1.14,6.55-1.71,9.82-1.06,6.2-3.83,9.07-9.92,10.27-1.31.26-2.64.34-4,.5-2.15.27-4.62,1-6.18-.72-1.85-2.07,1.29-3.31,1.6-5.15A4.41,4.41,0,0,1,89.18,49.09Z"/><path class="cls-52" d="M82.19,58.1l3-3c1,1.26.71,2.47-.14,3.66-.85.82-1.77,1.19-2.83.36l0,0C82.18,58.76,82.18,58.43,82.19,58.1Z"/><path class="cls-57" d="M107.18,86.1c5.15-.6,9.35-3.78,14.2-5.28,2.49-.77,4.33-3.48,5.42-6.06,1.72-4.07,4.1-8,3.88-12.57,2-.58,1.39,1.66,2.48,1.88,0,3.81-.38,7.67.13,11.41s-2.79,6-2.87,9.53c0,1.68-2.16,1-3.37,1C120.43,86.12,113.81,86.09,107.18,86.1Z"/><path class="cls-58" d="M133.17,22.11c-1.63.37.14,4.12-3,3,.23-4.33-1.59-8.65,0-13,2.33-.13,3.08,1.14,3,3.27S133.17,19.87,133.17,22.11Z"/><path class="cls-58" d="M131.19,41.1c.11-1.61-.45-3.55,2-4v4Z"/><path class="cls-59" d="M84.19,58.1l1-3c1.33-2,2.67-4,4-6,.36,2.49-1.58,4.27-2.19,6.78a33.76,33.76,0,0,0,12.79-1.62c3.42-1.07,4.78-3.91,5.35-7.19.72-4.14,0-8.41,2.35-12.46,1.08-1.87-1.46-4.05-3.29-5.5-.55-1.3.51-2.09,1-3.07l3-4,2.07-1c2.24,0,2,1.84,2.22,3.18a73.45,73.45,0,0,1,.26,20.3c-1.53,11.17-8.69,17-20.38,17.1a18,18,0,0,0-2.93.45C86.14,62.68,84.16,61.68,84.19,58.1Z"/><path class="cls-60" d="M105.15,26l-1,3.07c-.58,1.4-1.53,1.79-2.89,1.07Z"/><path class="cls-61" d="M68.15,50.8a45.93,45.93,0,0,1,0,5c-.37,3.22-2.34,5.2-5.43,3.86-4.43-1.93-8.79-2-13.45-1.64-4,.33-6.12-1.37-6.19-6.12-.18-13-.07-13.44,12.78-14.38C62.78,37,68.18,42.8,68.15,50.8Z"/><path class="cls-60" d="M84.19,58.1c1.11.72,1.23,3.28,2.5,2.72,5.5-2.42,12.45,1.36,17-3.25,3.77-3.87,7.34-8.52,7.49-14.45.19-7.35.35-14.73-.95-22,1.6-3.7,4.21-2.75,5.54-.4a24.76,24.76,0,0,1,3.43,11.67c.21,5.92-2.14,11.16-3.44,16.49-1,4.28-4,8.56-6.09,12.9-.91,2-3.53,1.41-5.25,2.45-5.31,3.23-11.5.58-17.32,2.24-3.16.91-5.74-3.12-4.84-7.33Z"/></svg>
