<svg id="Layer_1" data-name="Layer 1" xmlns="http://www.w3.org/2000/svg" width="259.47" height="204.85" viewBox="0 0 259.47 204.85"><defs><style>.cls-1{fill:#8f9191;}.cls-2{fill:#999f97;}.cls-3{fill:#3b3a3f;}.cls-4{fill:#010102;}.cls-5{fill:#d9ded6;}.cls-6{fill:#dce1da;}.cls-7{fill:#d8ded6;}.cls-8{fill:#37363b;}.cls-9{fill:#060607;}.cls-10{fill:#b9beb6;}.cls-11{fill:#9ea29c;}.cls-12{fill:#c9cec5;}.cls-13{fill:#a9b0a8;}.cls-14{fill:#b8bdb6;}.cls-15{fill:#afb4ad;}.cls-16{fill:#232227;}.cls-17{fill:#16151a;}.cls-18{fill:#302f34;}.cls-19{fill:#999f98;}.cls-20{fill:#1d1c21;}.cls-21{fill:#9ea59d;}.cls-22{fill:#c6ccc3;}.cls-23{fill:#c0c7bd;}.cls-24{fill:#a2aaa2;}.cls-25{fill:#939894;}.cls-26{fill:#b1b6af;}.cls-27{fill:#373534;}.cls-28{fill:#d1d5ce;}.cls-29{fill:#7d7e7c;}.cls-30{fill:#e5e6e2;}.cls-31{fill:#d2d7ce;}.cls-32{fill:#c1c6bd;}.cls-33{fill:#cdd1c7;}.cls-34{fill:#e1e1df;}.cls-35{fill:#dfe4dd;}.cls-36{fill:#dbe0d9;}.cls-37{fill:#ccd0c7;}.cls-38{fill:#a9aca5;}.cls-39{fill:#2a2725;}.cls-40{fill:#afb0aa;}.cls-41{fill:#131416;}.cls-42{fill:#0d0d0d;}.cls-43{fill:#e6ebe5;}.cls-44{fill:#47464b;}.cls-45{fill:#434246;}.cls-46{fill:#2a292e;}.cls-47{fill:#17161b;}.cls-48{fill:#1a191e;}.cls-49{fill:#0a0a0d;}.cls-50{fill:#101013;}.cls-51{fill:#333237;}.cls-52{fill:#38373c;}.cls-53{fill:#b0b0ac;}.cls-54{fill:#9c9c9c;}.cls-55{fill:#c8c9c4;}.cls-56{fill:#bbbcb8;}.cls-57{fill:#121511;}.cls-58{fill:#989996;}.cls-59{fill:#91928d;}.cls-60{fill:#3f3e43;}.cls-61{fill:#242328;}.cls-62{fill:#201f24;}.cls-63{fill:#2d2c31;}.cls-64{fill:#a5a6a1;}</style></defs><title>computer5</title><path class="cls-1" d="M100.65,173.76l-1,.21-90-.19c-3.55.68-6.34-.92-9-3a79,79,0,0,1,.09-20.89l2.92.16a5.65,5.65,0,0,0,2.28.93,4.29,4.29,0,0,1,1.14.69c1.26,1.12,1.2,2.62,1.3,4.13.35,5-2.14,9.87-.1,15,1.13-.55,3,.42,5,.49,1.25,0,2.5,0,3.75,0s2.67-.18,4-.08a23.84,23.84,0,0,1,6.8-.06c2.36-.54,4.7.34,7.05.14,4.21-.41,8.45.47,12.64-.39,2.73-.05,5.45.82,8.17-.06,4-.42,7.9.38,11.85.09,3-.24,6,1,9.08,0,3.33-.08,6.66.89,10-.05,4.51.81,9.2-.31,13.65,1.24A1.24,1.24,0,0,1,100.65,173.76Z"/><path class="cls-2" d="M219.65,173.88h-2c-18.7,0-37.4,0-56.11-.06-7,0-1.76,4.63-2.75,6.89a.92.92,0,0,1-.55,1.43c-17.21-.64-34.43-.12-51.64-.31-2.09,0-4.36.58-6.14-1.17-.29-2.31,1.43-4.56.2-6.9,0-.26,0-.51,0-.77a3.25,3.25,0,0,1,1.3-1.3c3.59-1.32,7.33.27,11-.54,4.35-1,8.67.74,13,.08,10.54-1,21.11-.23,31.66-.45,6.63,1.13,13.31.3,20,.55,5.66.31,11.29-.44,17-.52,4.24,1.33,8.58-.74,12.83.3a22.09,22.09,0,0,0,6.29,0,49.79,49.79,0,0,0,7.12.22c3.26.44,6.49-.74,9.75-.17,2.64,0,5.28-.43,7.89.17,1.47,0,2.93,0,4.4,0,2.38,0,4.77-.67,7.16.06,1.31.15,2.49.49,2.9,2a1.61,1.61,0,0,1-1.6.94"/><path class="cls-3" d="M208.64.83h4c12.39,0,24.78,0,37.17,0a25.69,25.69,0,0,1,7.81,1c.7,2.16,2.66,4,1.47,6.6-.16.32-.41.69-.67.65-9.27-1.58-18.74-.45-28-1.82-6.11-.9-12-2-18.21-.93C209.12,6.9,207.85,4.59,208.64.83Z"/><path class="cls-4" d="M164.63.74,207.48,1c1.37,3,.61,5.39-1.86,7.38a8.79,8.79,0,0,1-7.13,2.94c-2.33,0-4.66,0-7,0H19.13c-7.74,0-8,.22-8,8.18q0,55.95,0,111.91c0,7.66.76,8.19,8.43,7.62,9.45-.7,18.94-.1,28.4-.13,60.12-.16,120.24,0,180.36-.12,4.61.9,9.27.59,13.91.51s5.79-1.32,5.88-6.08c.16-8-.24-15.92,1-23.86.49-3.13,1.72-5,5-5,2.43,0,4.09.91,4.07,3.82-.07,11.63,0,23.27-.06,34.9,0,2-1,3.83-1.47,5.74l-112.4.07c-45.8,0-91.6,0-137.39.2-5.08,0-6.42-1.35-6.4-6.39C.65,98.05.58,53.41.59,8.78c0-1.66,0-3.33-.08-5l.21-1.7C4-1.24,8.28.42,12,.37,20.54.26,29.09-.11,37.6.74h2.08A149.18,149.18,0,0,1,64.6.75Z"/><path class="cls-5" d="M194.69,172.65h-17c-.29-1.84,2.5-1.62,2.28-3.42a3.78,3.78,0,0,1,2-.43c1-.13,2.39,1,3.11-.46.56-1.14,0-2.28-.83-3.18a7.66,7.66,0,0,0-2.44-1.68c-3.86-1.9-3.64-4.84-2.53-8.37,1-3.33,2.83-4.47,6.25-3.85a22.49,22.49,0,0,0,5.67,0c-1.59-.24-3.69.56-5.67-.51,4.27-2,8.74-.52,13.11-.78,2.2.72,4.48.05,6.7.42,1,2.51-1.22,2.5-2.52,3s-2.68,1.52-1.89,2.89c2.6,4.55-1,8.63-.69,13C200.57,173.19,196.75,171.84,194.69,172.65Z"/><path class="cls-6" d="M185.55,150.79h8.8c0,.35,0,.69,0,1-2.77,0-5.55.06-8.32,0-3.32-.09-4.62.88-5.25,4.71-.71,4.29.66,5.51,4.17,6.45,1.72.47,3.45,6.59,2.29,7.83-2.21,2.4-3.79-.18-5.58-1a10.36,10.36,0,0,0-7.47-1.91c-3.08.41-4.83-1.06-4.66-4.23.19-3.78-1.2-5.69-5.21-6.28-3.39-.5-3.62-2.74-1.06-6,1.47,0,2.94-.16,3.41-.09-9.43,1.93-20,.53-30.41,1.32a12.91,12.91,0,0,1-10.33.38c-4.07-1.38-8.5-.52-12.78-.68-2.1-.07-4.32.49-6.25-.89a1,1,0,0,1-.21-1.39q37.06-.07,74.12-.09A26.5,26.5,0,0,1,185.55,150.79Z"/><path class="cls-7" d="M112.64,172.85l-11-.06c-2.89-1-5.86-.24-8.79-.46-1-.08-2.08.16-2.51-1.05a1.69,1.69,0,0,1,.81-2.13c2.73-1.25,2.28-3.19,1.37-5.31a4.43,4.43,0,0,1-.23-1L87.39,151.2c.66-1.54,2.28-.44,3.24-1.18h10a.51.51,0,0,1,.33.76,40.91,40.91,0,0,1,7.66.73,5.52,5.52,0,0,1,2.55,5.55,36.35,36.35,0,0,0-.29,8.6c.15,2.36-.16,4.07,2,5.46C113.42,171.44,113.16,172.33,112.64,172.85Z"/><path class="cls-8" d="M205.58,6.8c.82-1.89,2.41-3.52,1.9-5.84l1.16-.13c.46,3.4,1.42,4.48,5.54,3.45,4.29-1.07,9.28-1.34,13.69,1.26,1,.6,2.6.25,3.92.28,4.31.09,8.59-.05,12.9.78,1.73.33,5,2.58,5.89-1.78.19-.92,1.41,0,2.08.41l6,3.6q0,3.49,0,7c0,.34,0,.68-.05,1a1,1,0,0,1-1.23.13,4.69,4.69,0,0,1-.83-1c-2.87-2.38-4.92-2.59-5.73,1.83-.25,1.37-.9,3.26-3,1.37-1-1.77-.47-4.08-2-5.67-1.57-2.11-3.88-1.56-6-1.58-9.26-.07-18.52,0-27.78,0-2.46,0-5,.21-7.2-1.27C203.48,9,204.24,7.86,205.58,6.8Z"/><path class="cls-9" d="M256.63,148.8c-2.29-2.81,1.14-4.77,1.09-7.37-.21-10.66-.12-21.32-.07-32,0-2.48-.86-3.65-3.48-3.65s-3.28,1.09-3.6,3.57c-1.16,8.94-1,17.91-.87,26.88.05,3.44-1.07,4.78-4.59,4.64-5.48-.23-11-.07-16.48-.07.17-2.68,2.25-2.41,4-2.46,3.28-.1,6.57-.13,9.84,0s5.08-.92,4.59-4.48a8.34,8.34,0,0,1-.11-3.48,69.63,69.63,0,0,0-.19-14.36c-.55-3,.53-6,.13-9a17.81,17.81,0,0,1,.26-6.26c2.17-4.35-.09-9.29,1.82-13.67,5-1.72,7.34-.55,9,4.44.65,2-.42,4.26.69,6.24,0,15.57.07,31.14,0,46.7C258.66,146.17,259.44,148.4,256.63,148.8Z"/><path class="cls-10" d="M55.6,172.69h-8a3.77,3.77,0,0,0-1.39-.44c-5.31-1.15-6.09-2.14-6-7.62a23.46,23.46,0,0,1,.35-3.44c.61-3.81,1.38-7.66-3.76-9.14-.39-.11-.44-.82-.34-1.33a3.34,3.34,0,0,1,2.08-.4c1.68-.13,3.4.29,5.06-.3h23c-1,3.49-4,1.74-6.13,2.4-3.63.88-6.9-2-10.35-1,5.51,0,5.57,0,4.18,5.5S53.91,167.53,55.6,172.69Z"/><path class="cls-11" d="M256.63,172.72l-3.79.2-3.29-.23c-2.61-5.26-1.33-10.89-1.55-16.37-.05-1.29.72-2.57,0-3.83-.88-.72-2.47-.78-2.35-2.44,13-.7,13-.7,13,12,0,3.25.6,6.6-1,9.71A1.54,1.54,0,0,1,256.63,172.72Z"/><path class="cls-12" d="M59.65,150.83c2.32-.26,4.78.64,7-.81h24a3.84,3.84,0,0,1-3,.81c-4.57,3.28-9.65.77-14.41,1.28,2.44,1.06,2.33,3,1.83,5.07-.75,3.12-1.28,6.06,1.09,9,1.46,1.8-.54,4.37.45,6.52h-9c-4.69-1.87-3.3-6.57-4-9.89C62.7,158.59,62.68,154.28,59.65,150.83Z"/><path class="cls-13" d="M38.63,150.82h-2c.56,1.15-3.11-.12-1.11,2.07,1.54,1.7,1.43,4,.93,6.13-.57,2.45-1,4.85.08,7.25.68,1.51-1.25,3.19,1,4.95,1.06.85-2,.54-2.74,1.46H27.68c-2.74-4.2-2.52-9-2.81-13.72-.16-2.6,0-5.27-2.39-7.1a1.27,1.27,0,0,1,.33-1.38c2.24-.48,4.56.24,6.78-.45h9.06c.37.18.49.36.37.53A.53.53,0,0,1,38.63,150.82Z"/><path class="cls-14" d="M238.66,172.63l-8.06,0c-2-6-.35-12.06-.4-18.09,0-1.36.45-2.6-1.19-3.27a1.4,1.4,0,0,1-.38-1.23h8.05c3.16,0,4.26,1,4,4.62-.41,5.24-1,10.6,0,15.87C241.06,172.43,239.58,172.17,238.66,172.63Z"/><path class="cls-15" d="M238.66,172.63c0-6,.1-12-.26-18-.09-1.42,2.28-4.43-1.72-4.59l9,0c1.18,1,2.62.71,4,.78-2.89,3.48-2.72,7.63-2.83,11.82-.1,3.78-.71,7.54-4.16,10Z"/><path class="cls-16" d="M258.62,32.83q0,8,0,16a1.06,1.06,0,0,1-1.41-.1,4.48,4.48,0,0,1-1-2.8c-.33-1.88,1.41-3.39,1-5-.06-.48-.07-.31-.06.18a1.86,1.86,0,0,1-.13,1c-1.15,1.76-1.89.22-2.7-.39-.64-.49-1.05-1.3-2-1.38-2.08.65-.3,5.64-4.46,4-1.23-2-.33-4.31-1-6.38a17.61,17.61,0,0,1,.61-7.6,4.53,4.53,0,0,1,1.41-1.91c3.08-.64,5.89-2.44,9.18-2.27C258.48,28.37,257.55,30.68,258.62,32.83Z"/><path class="cls-17" d="M258.62,97.82c-1.62-1.78-.73-4-1-6-3.21-5.81-1.11-12.12-1.77-18.17-.23-3.74-.46-7.49.39-11.19a4.22,4.22,0,0,1,.82-1.48,1.19,1.19,0,0,1,1.53-.16Z"/><path class="cls-18" d="M258.62,32.83c-1.74-2.13-.68-4.66-1-7-2.71-3-2-6,0-9l1,0Z"/><path class="cls-19" d="M5.64,151.83h-1c-.28-2.69,2.18-.79,2.94-1.75l8,0c-.34,2.61-2.79,2.17-4.36,3C9.16,153.53,7.44,152.51,5.64,151.83Z"/><path class="cls-20" d="M258.61,60.83h-1c-2.92-4-2.93-8,0-12h1Q258.62,54.83,258.61,60.83Z"/><path class="cls-21" d="M11.64,151.83,15.57,150h7.08c.36.18.48.35.36.52s-.24.26-.37.26c-1.25,1.78-3.4,1.2-5.05,1.95a8,8,0,0,1-1.37.32,5.69,5.69,0,0,1-4.15-.7Z"/><path class="cls-22" d="M207.64,150h11a1.66,1.66,0,0,1-.66,1.49,14.15,14.15,0,0,1-9.95,0A1.15,1.15,0,0,1,207.64,150Z"/><path class="cls-23" d="M218.63,150.83V150h10c0,.26,0,.53,0,.8l-.53.66a11.08,11.08,0,0,1-8.94,0Z"/><path class="cls-12" d="M207.64,150v.8a1.36,1.36,0,0,1-2,0c-2.33-.26-4.79.63-7-.82Z"/><path class="cls-24" d="M22.64,150.83c0-.26,0-.52,0-.78h6.94C27.4,151.46,25,150.58,22.64,150.83Z"/><path class="cls-12" d="M100.66,150.81c0-.27,0-.53,0-.8h6c0,.27,0,.53-.06.8A7.68,7.68,0,0,1,100.66,150.81Z"/><path class="cls-25" d="M7.58,150.07l-2.94,1.75-1-1.73Z"/><path class="cls-26" d="M38.63,150.82c0-.26,0-.53,0-.79h5C42.1,151.24,40.31,150.7,38.63,150.82Z"/><path class="cls-27" d="M105.64,204.79l-11,.06-7-1.08c0-.74,0-1.48,0-2.22,1.7-1.16,3.51-.62,5.31-.36,1,.23,2.14.18,3.18.51,1.89.77,3.9.53,5.87.71C103.63,202.55,105.57,202.34,105.64,204.79Z"/><path class="cls-28" d="M100.45,180.66a26.49,26.49,0,0,1,4.36-.8c16.89-.35,33.8.53,50.67-.53,2.33-.15,1.94,1.87,3,2.65,1.09,5.1.23,6.7-4.58,6.78-16.45.27-32.89.18-49.34.05-1.87,0-3.65-.39-4.84-2.07C100.17,184.73,98.92,182.53,100.45,180.66Z"/><path class="cls-29" d="M99.73,186.74c18.3,0,36.59,0,54.88.2,3.86,0,4.59-1.74,3.88-5,.1-.42.19-.85.29-1.27,1.24,1.92.83,4.09.95,6.18s.33,4.28,2.85,5.12c1.09.56,1.94,1.19.59,2.37a7.27,7.27,0,0,1-4.28.21c-10.8.23-21.58.25-32.37.26-8.47,0-16.93-.5-25.39-.56-1.65,0-3.38.09-4.54-1.5.92-1.53,2.5-2.78,2.1-4.87Z"/><path class="cls-30" d="M87.92,199c1.23.37,1.68-1,2.64-1.19,3.75-1.06,6.08.45,7.27,4-1.56,1.51-3.6-.15-5.24.81-1.94,1.06-3.19-1-4.88-1.07A2.3,2.3,0,0,1,87.92,199Z"/><path class="cls-31" d="M70.64,151.83c-.33,0-.77.09-1-.08-1.59-1.32.2-.88.54-.89,5.82,0,11.63,0,17.44,0a10.12,10.12,0,0,0,2.62,1.29c3.8.59,4.79,2.26,3.65,6.14-1,3.57,0,7.21,3,10.23l-6.09,2.18c3.73,2.44,7.78-.21,10.86,2.12l-1,.19-14-.29a5.81,5.81,0,0,0-3.39-.34c-2.54.22-3.77-1-3.76-3.38,0-2.8-.59-5.56-.5-8.37.24-6.75.21-6.76-6.46-8.24C71.85,152.22,71.17,152.3,70.64,151.83Z"/><path class="cls-32" d="M59.65,150.83c4.33,1.19,5.52,3.68,5.24,8.36a30.54,30.54,0,0,0,2.73,13.49h-12c-5.93-3-3-8.73-3.57-13.17-.19-1.67-1.34-5.32,2.84-6.63-3.31-1.73-6.24-.59-8.81-2.06Z"/><path class="cls-26" d="M34.75,172.69c2.07-1.93,2.07-1.93-2.15-3.39,1.38-.62,4-.2,2.12-3.08a6.08,6.08,0,0,1-.25-6.17c1.5-3.23,1.06-6.32-2.47-9.22h4.64c.13.11.23.28.38.32,6.21,1.8,6.65,2.54,5.46,9.49-.45,2.58-2.14,5.15.84,7.56.79.65-2.27.41-1.61,2.42a5.88,5.88,0,0,1,5.9,2.08Z"/><path class="cls-33" d="M70.64,151.83h2.49c8.24,0,8.31,0,7.51,8.37-.31,3.29,1,6.35.52,9.8-.45,3.24,4,.73,5.43,2.69l-10,0c-.68-2.15-3.63-.59-4.37-2.7.37-1.9,2.94-.48,3.41-2.51-5-1.81-3.68-6.45-2.54-9.36C74.55,154.42,73.51,153.13,70.64,151.83Z"/><path class="cls-21" d="M20.72,172.69l-4,0c-4.41-6.95-1.81-13.92-.05-20.89h0c5.51-.87,7.64.45,7.63,5.65S25,168.35,20.72,172.69Z"/><path class="cls-24" d="M20.72,172.69a73.51,73.51,0,0,0,1.94-14.85c.19-4.3-1.39-6.63-6-6,1.77-1.66,4-.75,6-1,3.34,1,4.54,3.29,4,6.69-.8,5.13,1.85,10,1,15.17Z"/><path class="cls-25" d="M5.64,151.83h6c2.9,3.38.36,7.39,1.25,11,.53,2.14-.45,4.47,1.44,6.53,1.54,1.68-.43,2.51-1.62,3.33l-8.15-1.13c.3-1.41,4.58-1.21,1.09-3.58-1.54-1.05-.41-2.52.06-4C7,160,7.56,155.89,5.64,151.83Z"/><path class="cls-19" d="M12.71,172.74c.33-.57,1.06-1.51.93-1.65-5.53-5.94-1.58-12.83-2-19.26h5c-.1,4.5,1.69,9.07-.92,13.48-1.49,2.53,2.7,4.65,1,7.41Z"/><path class="cls-34" d="M166.52,196.89a1.89,1.89,0,0,0,2.12.85.61.61,0,0,0,.73.22c4,4.37-.15,3.66-2.54,4a3.38,3.38,0,0,1-1.79.69c-2-.11-4.87,1.52-5.56-1.92-.47-2.37,2.55-4.58,5.75-4.51A2.79,2.79,0,0,1,166.52,196.89Z"/><path class="cls-35" d="M100.66,150.81h6l16.41,0h1.49c3.71-.13,7.43,2.75,11.15,0,6.86,1.13,13.78.17,20.66.52,2.11.11,4.29-.53,6.32.48.63,1.45-1.57,4.15,2.34,4.18,5.71,0,6.85,1.57,6.1,7.79-.34,2.87.93,3.68,3,2.55,4.41-2.45,5.74.88,7.6,3.48h-2c-4.6,2.81-9.9,1.07-14.79,2.23-2.27.53-4.8.13-7.17.68l-32,.13c-1,.12-.56-2-2.75-1-2.44,1.17-5.2-1.44-6.05-3.95s2-3.08,3.65-3.89a24.87,24.87,0,0,1,4.15-1.58c1.33.22,2.31,1.27,3.6,1.59s2.38.4,3-.9a3.54,3.54,0,0,0-.09-2.9c-.59-1.43-1.73-1.25-2.91-.87a17.66,17.66,0,0,1-3.76,1.18c-.67,0-1.64-.1-1.74-.67-1.06-5.84-5.66-6-10.11-6.43a5.42,5.42,0,0,1-4-1.63H97.71C98.7,150.35,99.79,151.06,100.66,150.81Z"/><path class="cls-36" d="M124.58,162.83c-1.78,2.18-4.34,3.16-6.88,4.47,1.29,1.63,3.48,2.29,4.13,4.43,2.27-1.16.36-3.58,2.65-4.64.4,2,.78,3.88,1.17,5.78l-13,0c-.3-.56-.59-1.59-.91-1.6-4.23-.15-7.58-.53-2-4.81a1.72,1.72,0,0,0,.29-1.25c-4.49-2.28-1.39-4.82-.26-7.27,1-2.29-1.67-3.89-1.09-6.09,3.51.47,7-.07,10.63,1.08,3.9,1.22,5.35,2.32,4.15,6.2,0,.11.73.47,1.12.71A2,2,0,0,1,124.58,162.83Z"/><path class="cls-31" d="M205.63,150.83l2,0,11,0h0c.26,1.8-1.11,2-2.3,2.39-3.88.18-6.58,1.09-3.93,5.79a3.25,3.25,0,0,1-.37,3.31c-1.43,2.16-2.79,4.12.26,6.19,1.07.73.25,1.81-.68,2.33-1.27.71-2.89.65-4,1.78l-12.93,0c2.83-.93,5.79-1.63,3.71-5.87-.44-.91.11-2.88.9-3.72,1.78-1.88,1.06-3.17.07-5.12-2-3.88-.82-5.62,3.54-6.11A3.92,3.92,0,0,0,205.63,150.83Z"/><path class="cls-23" d="M228.64,150.82h4.48c-3.25,7.11-.1,14.77-2.52,21.79l-9.89,0c3.1-4.16,1.13-8.77,1.11-13.18,0-7.51-.13-7.51,6.81-8.63Z"/><path class="cls-37" d="M207.62,172.62c.19-2.38,2.2-2.57,4-3.16-4.23-1.46-4.84-3.35-1.93-6.49,1.21-1.31,2.21-2.19,1.31-4.2-2.9-6.46-2.65-6.76,4.66-6.94,3.4,2.44,4.14,6.36,4.89,10a4.77,4.77,0,0,1-4.06,5.94c1.07.76,3.52.64,3.23,2.79s-2.45,1.72-4,1.79a4.77,4.77,0,0,0-1.94.32Z"/><path class="cls-22" d="M213.71,172.64c1.34-1.45,3.64-.14,5-1.78,0-2-2.3-1.41-3.13-2.6,2.81-3.08,5.74-6,1.57-10.36-1.35-1.41-.23-4.21-1.52-6.07,1.1,0,2.22,0,3-1h10c-1,1.14-2.38.95-3.67,1s-2.58.85-2.09,2.11c1.63,4.14-.12,8.59,1.43,12.7,1.27,3.4.26,5.57-3.59,5.95Z"/><path class="cls-38" d="M242.65,172.67a30.92,30.92,0,0,0,2.62-14.83c-.23-3.55.74-6,4.37-7l1.82.43c-4.26,6.82-.06,14.4-1.91,21.43Z"/><path class="cls-6" d="M157.68,172.74c7.11-2.56,14.5-3,22-2.91,1.21,2.21-1.34,1.84-1.94,2.82Z"/><path class="cls-39" d="M105.64,204.79c-3-2.32-7,.34-10-1.86,6.5-3,13.39-1,20.09-1.6,13.21-.18,26.42.21,39.64-.18,3.65-.11,7.34,1.36,11.1,1.56a4.82,4.82,0,0,1,1.44.34c.61.36.38.68-.23.74-3.44.35-6.89,1-10.34,1C140.12,204.87,122.88,204.8,105.64,204.79Z"/><path class="cls-40" d="M166.48,202.71l-50.84-.05a1.24,1.24,0,0,1,.48-1.58,4.49,4.49,0,0,1,1.69-.66c8.72-.19,17.46,0,26.18-.09,1.66,0,3.33,0,5-.08,1.18-.17,2.45-.38,2.54-1.87.3-4.78,3.32-5.54,7.25-5.06a2.34,2.34,0,0,0,1.87-.45l3,.95c1,1,2.66,1.36,2.88,3.07-2.71.37-5,1.27-6.17,4.57l6.48.54A2.61,2.61,0,0,0,166.48,202.71Z"/><path class="cls-41" d="M248.63,133.82c.8,4.74-1.12,6.31-5.94,6.15-4.65-.15-9.49-1.19-14.06.85H17.16c-7.51,0-7.53,0-7.53-7.4,0-39.16.08-78.32-.1-117.48,0-4.76,1.23-6.22,6.12-6.21q89.24.26,178.47.11c4.09,0,8.22.15,11.46-3-.36,1-.73,1.93-1.1,2.9a2.94,2.94,0,0,1-.47,2.21c-1.67,1.63-1.91,4.6-4.78,5.14-.17,0-.43.08-.49,0-4-5.4-9.76-4.17-15.19-4.17q-78.45,0-156.9,0c-1.83,0-3.66,0-5.49,0-6.7.37-8.47,2.19-8.47,8.91q0,53,0,105.93c0,7.38.68,7.8,8.11,7.26,9.14-.66,18.31-.16,27.46-.17q92.45-.15,184.89,0c2.64,0,6.29-1,7.66,1,2.37,3.49,2.54.51,3.57-.54S246.67,132.71,248.63,133.82Z"/><path class="cls-42" d="M131.11,4.43a1.19,1.19,0,0,1-1.19,1.25c-.83.06-1.68,0-1.91-1s.35-1.52,1.3-1.55A1.82,1.82,0,0,1,131.11,4.43Z"/><path class="cls-43" d="M162.64,151.83c-7.26,0-14.53,0-21.8,0-1.76,0-3.67.49-5.18-1h36.6l0,1Z"/><path class="cls-44" d="M203.56,10.67l.93-1,38.83.13c2.31,0,4.87-.35,5.31,3-.83,1.29-.58,2.86-1.12,4.26-.92,2.4-2,3.87-4.71,2.1-1.5-1-3.21-.72-4.84-.59-7.76.62-15.54-.76-23.31.18-2.67.33-5.28-.5-7.79-1.33C203.57,16.36,201.75,14.35,203.56,10.67Z"/><path class="cls-45" d="M203.56,10.67c-.12,6.78,6,6.21,9.28,6.15,9.12-.19,18.31,1.05,27.38-.7,2.47-.47,3.43,1.51,4.87,2.88,1.25-2.19,2.4-4.18,3.54-6.17,0,2.33,0,4.67,0,7,0,.23-.09.46-.13.69-2.44,4.86-7.4,4.08-11.27,4.11-4.27,0-9,.67-12.94-2.32a2.48,2.48,0,0,0-2.85-.06c-5.59,4-12.29,1.12-18.3,3.06-3.71,1.19-5-.91-3.82-4.84a11,11,0,0,0,.57-3.38,4.57,4.57,0,0,1,.58-1.27C200.43,13.46,201.8,12,203.56,10.67Z"/><path class="cls-46" d="M257.64,16.82v9c-1.4,4.38-4.93,3.05-8,3-2.55-4.79-1.93-7.83,2.67-9.93,1.92-.87,2.82-3.38,5.33-3.07Z"/><path class="cls-18" d="M257.64,15.83c-1.3,2.31-1.78,5.43-5.72,4.81-1.7-.26-2,1.5-2.15,2.76-.19,1.79-.1,3.62-.13,5.43l-1,1a3.47,3.47,0,0,1-1.19-1.36c-1.25-3.11-.24-5.92,1.16-8.68h0a8.57,8.57,0,0,0,.92-2.21c.64-5.47,2.18-6.55,7.36-4.79C258.43,13.34,257.34,14.84,257.64,15.83Z"/><path class="cls-47" d="M200.49,15.82l.21,1c-1,4.09-3.92,7.08-5.85,10.64-1.9,2.56-3.16,5.54-5.2,8-2.81,3.76-4.68,8.09-7.19,12-3,3.67-5.15,7.91-7.67,11.9-1.17,1.68-2,3.58-3.25,5.2-3.83,4.51-6,10.18-9.86,14.65a54.45,54.45,0,0,0-3.92,5.63c-1.88,4.16-4.93,7.67-6.54,12a53.12,53.12,0,0,0-10,19.19c24.76-.39,49.11-.14,73.46-.17,8.12,0,16.29-.52,24.36.89,2.15.38,2.67-.47,2.66-2.32a35.47,35.47,0,0,1,.14-4c.54-5.14,1.77-5.8,6.79-3.67q0,4.5,0,9c-.65,5-2.11,10,0,15v3c-3.1,2.59-5.42,7-10.65,4.53.71-1.32,2.65.33,3.46-1.52H47.93c-8.46,0-16.93.21-25.37-.11-3-.12-5.48,3-8.95.53-1.83-1.28-3-2-3-4.32q.08-58,0-116c0-5.61,5-4.07,7.55-6,.53-.41,1.63-.11,2.46-.11h176c1,0,2,.09,2.73.13C200.83,12.49,193.45,15.73,200.49,15.82Z"/><path class="cls-48" d="M248.61,106.83c-6.88.18-4.78,5.29-5,9.1-.09,1.85,0,3.68-1.82,5.5-2.24-5-6.78-3.49-10.52-3.51-28.32-.16-56.63-.09-84.95-.1-1.7,0-3.31.14-4.64,1.4-.69.65-1.61,1.68-2.49.68a3.16,3.16,0,0,1-.49-2.78c1.8-3.49,1.46-7.71,4.34-10.9s2.62-8.65,7.54-10.39c.67,0,1.47-.27,2,.07,6.28,4.33,13.42,2.85,20.26,2.89,21.11.12,42.22-.07,63.32.13,4.85,0,8.49-.85,10-6,.35-1.17.81-2.7,2.72-2,.22,3.3.66,6.62-.27,9.89Z"/><path class="cls-49" d="M257.63,72.84q0,9.5,0,19c-1.45-3.61-5.19-3.55-8-5-2.33-2.14-1.21-4.93-1.43-7.47a4.91,4.91,0,0,1,.63-2.29C252,76.05,255.15,75.19,257.63,72.84Z"/><path class="cls-41" d="M248.63,130.83c-4.28-5-1.28-10,0-15Z"/><path class="cls-50" d="M249.63,78.82q0,4,0,8c-.48,4.66,1.06,9.46-1,14,0-3.33,0-6.67,0-10-2.26-2.17-1.19-5-1.46-7.54.06-1.46-.06-3,.91-4.22A1.19,1.19,0,0,1,249.63,78.82Z"/><path class="cls-51" d="M181.57,46.81c2-4.19,3.71-8.59,7.06-12,6.37,4.24,13.56,2.83,20.54,3.08,11.41.41,22.89-1.11,34.25,1,1.89.35,3.25-1.8,5.2-1.09l0,7a3,3,0,0,1,.73,3.22c-1.19,3.62-3.09,6-7.5,5.47-14.56-1.6-29.19-.39-43.78-.74-3.49-.08-7,.2-10.44-.44C184.54,51.76,182,50.46,181.57,46.81Z"/><path class="cls-52" d="M248.62,37.83c-1.34.62-1.69,1.91-2.26,3.13-.73,1.58-2.25,2.59-3.39.77-1.53-2.47-3.69-1.87-5.74-1.88-12.49-.05-25-.16-37.46,0-4.7.07-9.21.56-11.14-5.08q2.52-4,5-8c1.46.22,2.77,1.06,4.34.85,11.86-1.65,23.78-.63,35.67-.71,4.23,0,9-1.35,12.53,2.52.61-.92,1.3-1.54,2.42-.71,0,.35,0,.7,0,1.05Q248.65,33.83,248.62,37.83Z"/><path class="cls-17" d="M249.63,78.82l-1,0c-2.22-1.82-1.09-4.56-1.87-6.77-.53-3.2.41-6.33.38-9.5a27.83,27.83,0,0,1,.13-3.16c.1-1,.65-1.86.79-2.85,1.18-8.52,1.18-8.52,9.55-10.72,0,1,0,2,0,3q0,6,0,12h0c-4.36,3.05-7.2,6.82-6.37,12.56a4.23,4.23,0,0,1-1.62,3.44C249.64,77.49,249.64,78.16,249.63,78.82Z"/><path class="cls-20" d="M257.63,45.84c-1.12.43-.66,2.59-2.11,2.36-6.57-1.06-6.09,3.27-5.9,7.47a3.85,3.85,0,0,1-1,3.17c-1.16-.74-1.36-2-1.65-3.17.52-2.62.19-5.41,1.61-7.85,0-1,0-2,0-3,.31-.74.68-1.47.94-2.23.62-1.81-1.35-5,1.79-5.29,2.16-.21,4.27,1.6,5,4.33.15-1.17.31-2.33.46-3.5l.76,0Z"/><path class="cls-50" d="M249.64,76.83V71c0-7.88,0-7.88,8-10.12v12C256.73,77.69,253.88,78.65,249.64,76.83Z"/><path class="cls-53" d="M115.64,201.87v.79l-20,.27-3.06-.31c1.38-1.5,3.22-.64,4.84-.94.69-1.27,2.48-.52,3.16-1.77-.58-2.18-4-3.73-1.4-6.55,1.61-.05,3.23,0,4.84,0,2.19,1.41.48,5.45,4,5.95C110.68,199.87,113.64,199.45,115.64,201.87Z"/><path class="cls-54" d="M104.6,193.85l-6,0a1.94,1.94,0,0,1-2.88.05l.83-1.08,64,.08a3.76,3.76,0,0,1-3.21.94c-2.71-.19-4,.91-3.81,3.72s-.93,4.46-4,4.27l-1-1c-.33-.36-.64-.73-.95-1.1-1.55-2-3.51-1.15-5.46-.89a50.85,50.85,0,0,1-11.63-.05c-7.45-.72-15.18-1.69-22.48,1.44C105.44,198.9,106.58,195.51,104.6,193.85Z"/><path class="cls-55" d="M101.67,200.8c.58.23,1.57.63.18.91a20.43,20.43,0,0,1-4.42,0c-2.32-1.25-4-3.62-6.87-3.91l2.79-2.09C98.19,194,99.81,197.6,101.67,200.8Z"/><path class="cls-56" d="M101.67,200.8c-3-1.37-4.46-5.18-8.32-5.11l2.41-1.82,2.88-.05C99,196.44,102.76,197.56,101.67,200.8Z"/><path class="cls-57" d="M124.58,162.83c0-1,0-2,0-3,1.88-2,4.34-3.6,6.84-2.74,3.33,1.15,1.36,4.87,2.27,7.32.29.78-.88,2-2.39,1.87C128.49,166.11,125.51,166.52,124.58,162.83Z"/><path class="cls-58" d="M107.63,199.82c1.67-3.55,4.8-3.44,8-3.17,6.54.56,13.13-.3,19.66,1.15,2.52.55,5.24-.17,7.86-.78s5.4-.58,6.49,2.81c-3.71,2.13-7.74.62-11.6.89-5.91.41-11.88.11-17.83.1-1.26,0-2.69-.51-3.56,1l-1,.07-9-1.06Q106.28,199.46,107.63,199.82Z"/><path class="cls-59" d="M116.64,201.8c-1.69-1.75-1.64-3.18,1.09-2.69,10.62,1.9,21.29-.28,31.9.72v1c-1.48,1.23-3.49-.2-5,1Z"/><path class="cls-58" d="M144.64,201.8c1.44-1.46,3.3-.82,5-1,0,.32,0,.65,0,1Z"/><path class="cls-60" d="M248.61,28.81c-1.24-.26-2,.9-3.53.75-14.17-1.4-28.41-.52-42.62-.7a7,7,0,0,0-3.32.67c-3.22,1.78-5,.92-5.49-2.67,2.11-3.51,3.56-7.47,7-10,2.3,2.45-.41,4.2-1.06,6.72,2.63-.54,5.46,2.08,7.43-1.72.59-1.13,1.67.5,2.53.57,3.51.29,7.13,1.6,10.26-1.55,1.71-1.73,3.86-1.24,5.94-.13,4.95,2.66,9.82,3.39,15.44,1.08,2.12-.87,5.33.5,7.39-2Q248.63,24.32,248.61,28.81Z"/><path class="cls-61" d="M248.63,61.82v10c-1.37,3.68-.86,7.53-1,11.32,0,1,0,2.13-1.17,2.49s-1.8-.76-2.15-1.57c-1-2.32-2.88-2.34-5-2.32-21.78.2-43.56,0-65.34.09a23,23,0,0,0-7.8,1.25c-3.43,1.2-5.24-.41-5.52-4.27,3.23-5.06,5.62-10.69,10-15a14.65,14.65,0,0,0,6.76,1.24c19.08-.5,38.15-.15,57.23-.21,3.71,0,7.28-.16,10.37-2.6C246.05,61.43,247.28,60.84,248.63,61.82Z"/><path class="cls-20" d="M248.63,82.83c0,2.67,0,5.33,0,8-2.33,2.63.19,7.62-4.54,9.19-1,.34-1.8,1.1-3.13,1.09-26.14-.15-52.28-.4-78.42-.12-5.18.05-8.59-1.94-11.9-5.16-.35-5.18,4.93-7.54,6-12,1.61.32,3.45.08,4.76,1.25,4.38,3.88,9.64,3.84,15,3.81,19.8-.1,39.59,0,59.38,0a9.85,9.85,0,0,1,2.49,0c5.35,1.43,8.76-.06,9.43-6C247.74,82.75,248.28,82.76,248.63,82.83Z"/><path class="cls-62" d="M248.63,82.83c-2.09,2.56.16,7.83-3.07,8.39-2.64.47-6.13-.34-9.22-.35-21.57-.08-43.14-.12-64.7,0-4.51,0-8.27-1.19-11.22-4.5-.58-.64-.73-.87-1.38-.41-4,2.89-1.8-1.21-2.4-2.15,1.33-1.67,2-3.87,4-5,1.59,2.25,2.86,5.11,6.12,1.5.72-.81,2.84-.47,4.31-.48q32.44,0,64.89,0c1.33,0,2.86.41,4-.09,5.13-2.35,6.57-.18,6.07,5,1.23-4.45-.47-9.16,2.64-12.88,0,2.33,0,4.67,0,7C248.65,80.17,248.64,81.5,248.63,82.83Z"/><path class="cls-63" d="M248.62,47.82q0,4,0,8c-1.78,5.88-4.13,7.28-10.55,6.22a38.64,38.64,0,0,0-7-.37c-16.3.26-32.6-.42-48.9.31-2.89.13-7.21,1.81-8.57-3.17,2.43-4.15,4-8.86,7.94-12,3,3.9,7.13,4.11,11.58,4.07,13.5-.14,27,.18,40.49-.21,3.73-.1,7.32.84,11.16.58C248.3,51,245.46,46.3,248.62,47.82Z"/><path class="cls-46" d="M173.63,58.82c3,2.09,6.56,1.82,9.73,1.58,17.91-1.39,35.83-.12,53.74-.51a6,6,0,0,1,2.81.84c1.86,1,3.22,1.17,3.35-1.47,0-.85-.13-1.85,1.06-1.72s.39,1.83,1.56,2.54c.9-1.4,1.82-2.82,2.73-4.25,0,1,0,2,0,3l0,3c-4.15,4.37-9.28,5.13-15.12,5.12-20,0-40-.73-60,.46-3,.17-3.44-1.15-2.84-3.57Z"/><path class="cls-64" d="M107.63,199.82l-1,1c-2.5-1.78-4.49-3.72-2.07-7C110.69,193.26,106.81,197.74,107.63,199.82Z"/></svg>
