<svg id="Layer_1" data-name="Layer 1" xmlns="http://www.w3.org/2000/svg" width="151.28" height="151.01" viewBox="0 0 151.28 151.01"><defs><style>.cls-1{fill:#f0f3ec;}.cls-2{fill:#e9e9e5;}.cls-3{fill:#c5c6c0;}.cls-4{fill:#dde0d8;}.cls-5{fill:#9ea099;}.cls-6{fill:#858680;}.cls-7{fill:#ecefe8;}.cls-8{fill:#f4f6f0;}.cls-9{fill:#edeeec;}.cls-10{fill:#ebeee7;}.cls-11{fill:#edf0e9;}.cls-12{fill:#717172;}.cls-13{fill:#ecede8;}.cls-14{fill:#e2e2df;}.cls-15{fill:#bec0ba;}.cls-16{fill:#f4f3f2;}.cls-17{fill:#ecede9;}.cls-18{fill:#bbbcb5;}.cls-19{fill:#dedfd9;}.cls-20{fill:#d8d9d4;}.cls-21{fill:#e1e2e1;}.cls-22{fill:#f9f9f9;}.cls-23{fill:#fafbf9;}.cls-24{fill:#141511;}.cls-25{fill:#050505;}.cls-26{fill:#090a0c;}.cls-27{fill:#58555a;}.cls-28{fill:#38373c;}.cls-29{fill:#464549;}.cls-30{fill:#565458;}.cls-31{fill:#242328;}.cls-32{fill:#605c5f;}.cls-33{fill:#5b585d;}.cls-34{fill:#757474;}.cls-35{fill:#615e62;}.cls-36{fill:#3a393e;}.cls-37{fill:#161519;}.cls-38{fill:#111113;}.cls-39{fill:#2d2c30;}.cls-40{fill:#0c0d0f;}.cls-41{fill:#403f44;}.cls-42{fill:#444348;}.cls-43{fill:#4b4a4f;}.cls-44{fill:#666366;}.cls-45{fill:#6b696b;}.cls-46{fill:#605f62;}.cls-47{fill:#514e54;}.cls-48{fill:#1e1d22;}.cls-49{fill:#060607;}.cls-50{fill:#0e0f11;}.cls-51{fill:#4a494e;}.cls-52{fill:#302f34;}.cls-53{fill:#323135;}.cls-54{fill:#2b2a2f;}.cls-55{fill:#3e3d42;}.cls-56{fill:#3e3d41;}.cls-57{fill:#252429;}.cls-58{fill:#36353a;}.cls-59{fill:#504e53;}.cls-60{fill:#4b4b4f;}.cls-61{fill:#1c1b20;}.cls-62{fill:#3b3a3f;}.cls-63{fill:#313035;}.cls-64{fill:#1a191d;}</style></defs><title>computer4</title><path class="cls-1" d="M.25,114.86Q.12,73.8,0,32.75C0,23.13.13,13.51.2,3.89L4.11,1.72l.58.54A4.25,4.25,0,0,1,5.17,4.5c-2,13.11-1.46,26.19.34,39.25.38.64-.63,0,0,0,.13,0,.13-.12.08-.4-1.88-10.11-1.52-20.31-.89-30.5.08-1.32.25-4.91,3.47-2,.72,2.12.46,4.3.46,6.46q0,33.22,0,66.46c0,2.52,0,5,1.27,7.26,2.46,2.43,5.54,1,8.33,1.35,1.92.2,3.88-.1,5.79.28,2.89,2.15,6.25,1.85,9.54,1.75,6.4-.19,11.69,1.27,14.38,8,1.94,4.86,6.22,6.71,11.19,6.71,2.33,0,3.8.72,4.68,3.25,1.12-2.3,1.67-4.52,2.92-6.38,1.74-2.59,3.66-3.36,5.83-.41a6,6,0,0,1,.49,1.91c.23,1.81.26,4,2.64,4.17s1.82-2.28,2.37-3.67c.45-1.12,1-2.12,2.26-2.41,3.32,1.8,2.42,4.8,1.8,7.44-.79,3.36-4,2.16-6.28,2.63-.61.21.13.9-.11.28,0-.11.13-.29.44-.2,5.2,1.37,8.32-2.18,11.23-5.28a11.72,11.72,0,0,1,6.82-3.61c2-.39,4.67-.07,3.69-4-.51-2,2.12-2.39,3.72-1.94,5.74,1.62,10.45,0,14.58-4a5.14,5.14,0,0,1,3.87-1.57c-2.58.44-6,2.12-9.72.87-1.74-.58-4-1.39-.93-3.46a304.09,304.09,0,0,1,30.94,0c1.52.63,2.7,1.79,2.11,3.4-.85,2.33-3.23,1.82-5.12,2.09-3.31-.62-5.6-.33-6.25,4-.6,4.06-2.85,4.53-6.82,2.17.86,3.6.76,6.74-3.63,7.88-.33.08-.79.14-.89.4-3.41,9.06-11.68,5.24-17.91,6.62a25.8,25.8,0,0,1-7.1.09c3-.18,6.9.35,10.83-.24,1.69-.26,3.49.43,3.48,2,0,2.28-2.27,2.27-3.81,1.77-4.22-1.37-7.79-.2-11.17,2.28-13.09.38-26.18.31-39.25,0a20.33,20.33,0,0,0-12.32-2.63c-3,.26-4.47-.81-5.05-3.42-.71-3.18-2.27-5-5.8-4.81a3.55,3.55,0,0,1-3.52-2.41c-.93-3.66-5.3-5.71-4.47-10.17.33-1.73-1.35-2-2.66-2.32-2.45-.52-4.86-1.18-7.28-1.8A7.19,7.19,0,0,0,7.62,98.9C4.85,101,4,99.21,3.81,97c-.18-2.5-1.07-4.87.45-7.64,1.37-2.5.42-5.88.38-8.88-.3-1.52.06-3,0-4.57a18.58,18.58,0,0,0,.54-6c-.24-2.34-.56-4.67-.64-7,0-.08-.23-.22-.34-.21s-.23.16-.33.29c-.46,1.22.13,2.25.49,3.3a11.39,11.39,0,0,1,.82,5.44,17.19,17.19,0,0,1-.1,2.15c-1.15,2.5-1,5.24-1.39,7.88-.88,9.44,1.15,19-.91,28.37-.06.59-.11,1.17-.15,1.76C2.36,113.21,2.38,114.88.25,114.86Z"/><path class="cls-2" d="M120.2.87h3a26,26,0,0,1,11,0h5c1.33-1.37,2.66-1,4,0,2.75.62,6,.3,7,4l-.93.29c-6.26-2.31-12.72-2.07-19.19-1.41a46.3,46.3,0,0,1-5,.16c-31.75-.25-63.5.09-95.24-.06-7.14,0-14.29-.58-21.44-.52A5.59,5.59,0,0,1,4.27,2l-.16-.3L6.2.94c.32-.62.65-.63,1,0l28,0a58.41,58.41,0,0,1,17,0h6C68.24-.28,78.32.6,88.38.43,92,.37,95.64-.18,99.2.89h5A53,53,0,0,1,120.2.87Z"/><path class="cls-3" d="M55.22,128.86q-23.73,0-47.45,0c-5.6,0-7.51-2.06-7.6-7.93a1.24,1.24,0,0,1,1.16-.42c1.07.42,2,1,3.08,1.53a11.33,11.33,0,0,0,2.93,1.13,13.22,13.22,0,0,0,2.5.23c26.94-.66,53.88,2.22,80.79.8,17.45-.92,34.89,0,52.3-1.09a8.63,8.63,0,0,0,2.2-1,5.2,5.2,0,0,0,3.23-3.79c.73-4.75.17-9.52.34-14.29-.07-31.21.15-62.41-.11-93.61,0-2,0-3.91,1.21-5.61l.44.13.66.13c.08,16,.2,32,.25,47.94q.1,33,.13,65.93c-.67,8.55-2.13,9.92-10.69,10L95.31,129c-1.68,1.59-3.76,1.9-6,1.89-9.41,0-18.82-.1-28.23,0C58.92,130.88,56.83,130.59,55.22,128.86Z"/><path class="cls-4" d="M53.35,142l1.86-8.09c1.25-2.4,3.45-3,5.89-3,9.66-.07,19.32,0,29,0,3.43,0,5.8,1.21,6,5,.34,1.38.67,2.77,1,4.16A3.08,3.08,0,0,1,99,143.67c-1.38,3-4.58,2.27-6.53,2.12-11.56-.88-23.09-.18-34.64-.21C55.59,145.57,52.37,146.2,53.35,142Z"/><path class="cls-5" d="M96.09,135.94c-1-1.73-1.9-3.15-4.43-3.11-10.89.16-21.78,0-32.67.11a15.88,15.88,0,0,0-3.78.95c0-1.68,0-3.36,0-5l40.09.11C95.53,131.3,96.71,133.51,96.09,135.94Z"/><path class="cls-6" d="M98.13,142.92a3.28,3.28,0,0,1,1,.15c2,2.15,4,4.33,3,7.65a1.22,1.22,0,0,1-1.6,0c-3.35-3.68-7.78-2.43-11.75-2.22-11.28.6-22.55.41-33.82.11a13.29,13.29,0,0,0-4.87.64c-3.78-.32-2.56-2.51-1.51-4.39.8-1.44,2.45-2,3.77-3l1,.09c.19,2.09,1.94,2.31,3.31,2.24,13.39-.67,26.79-.19,40.18-.07C97.7,144.16,97.87,143.51,98.13,142.92Z"/><path class="cls-7" d="M1.13,120.94l-1,0,.08-6c1-.78.94-1.89,1-3C4.59,114.43,4.56,118.23,1.13,120.94Z"/><path class="cls-8" d="M72.12,105.85c-2.49-1.71-3.79-.32-4.66,1.87-.61,1.5-1,3.08-1.58,4.61-.48,1.35-1,2.68-1.47,4a1.55,1.55,0,0,1-1.92-1.35c-.23-2.93-.12-4.2-4.58-3.88-5.62.4-11-4-12.8-9.48S39.54,96.66,36,96c-2.88-.54-5.95-.11-8.93-.12-1.19,0-2.52.12-1.85-1.81,1.38-2,3.5-1.64,5.44-1.64q36.06-.08,72.13,0c1.94,0,4.07-.34,5.42,1.67C113,96,118,94.07,123,95.47c-2.93,0-4.63,1.76-6.62,3.54-4.17,3.75-9,6.24-14.79,3.25a4,4,0,0,0-1.94-.15c-.25,0-.48.36-.75.59.09,1.56,1.86,1.14,2.47,2.11.92,1.43.85,3-.94,2.81-2.51-.33-4.45,1.12-6.72,1.24-2,.11-4.63-.62-4,3.14.18,1-1,1.72-2.13,1.46-2.5-.59-3.48.42-3.15,2.86.12.89-.22,2.29-.77,2-3.42-2-6.81-1.09-10.27-.44-.62.11-1.46-.22-1.31-1.06a2.94,2.94,0,0,1,1.08-1.53,3.27,3.27,0,0,1,1.42-.35c7.4-1.38,7.41-1.4,5.53-9C77.47,105.74,74.78,108,72.12,105.85Z"/><path class="cls-7" d="M14.19,95.88c1.91.57,3.81,1.57,5.73,1.63,4.49.14,7.63,1,5.36,6.51a2.9,2.9,0,0,0,.12,1.41c4.69-.32,2.91,3.44,3.75,5.64.41,1.1,1.62,2.68,3,2.05,5.82-2.57,6.05,2,6.83,5.38.51,2.17.8,3.28,3.41,2.58,3.36-.91,6.7,1.21,10.3.2,1.69-.47.72,1.58.48,2.58-13.71.72-27.42,1.33-41.06-.83-1.54-1-1.59-2.12,0-3a7.78,7.78,0,0,1,3.62-.69c1.29-.24.54-1.22.76-.59.08.22,0,.34-.25.4a26.79,26.79,0,0,1-7.31.36c-1.9-.12-3.48-1.12-3.6-3.4.89-2.59.19-5.18,0-7.75-.55-6.69.16-8,6.19-11.19A15.68,15.68,0,0,0,14.19,95.88Z"/><path class="cls-9" d="M149.8,4.75,150,10c-1.43,1.77-.14,4.28-1.64,6-3.21-1.89-4.36-5.93-2.94-11.27-4.9,2.75-10.61.29-15.23,3.43-14.25.32-28.5,0-42.74.21-2.49,0-5-.09-7.38.82a22.37,22.37,0,0,1-6.17-.09c-2.39-.9-4.87-.82-7.37-.82-15.13,0-30.26.54-45.38-.27-1.56-2.39-3.32-3.38-6.58-2.87S7.45,6,4.19,3.88c0-.62.06-1.24.08-1.86Q73.43,2,142.58,1.87A10.74,10.74,0,0,1,149.8,4.75Z"/><path class="cls-10" d="M11.2,121.88c13.89,3,28,1.75,42,2h42c1-.91,1.92-2.21,3.32-2,10.8,1.92,21.63-1.4,31.64,0-3.45-1.32-7.76.1-12-.16a15.34,15.34,0,0,1-3.93-.61c-.94-.31-2.11-.76-1.94-1.91s1.37-1.22,2.39-1.35a156,156,0,0,1,15.82-1.58c3-.07,4.17-1.21,3.56-3.82-1-4.21,1.15-8.2.52-12.36-.26-1.79,1.4-2.47,2.66-3.25.84-1.06,1.85-.75,3-.58,2.58.39,1.41-1.13,1-2.21,1.06-11.79.26-23.6.53-35.39.05-2.14-.36-4.35.78-6.35,2.85-1.46,2.85,1.09,3.28,2.55.65,2.23.38,4.59.39,6.9,0,6.28.14,12.57-.06,18.85a52.49,52.49,0,0,0,2.19,17c.45,2.76,1.16,5.5.78,8.33-.74,3.45-.16,7-.44,10.4-.18,2.22.25,4.78-2.4,6a6.27,6.27,0,0,1-1.21.75,3.09,3.09,0,0,1-1.42.09c.54.2,1.21,0,1.62.58-1.56,1.38-3.46.9-5.25.9q-64.29,0-128.57,0c-2.1,0-4.35.6-6.26-.9,1.11-1.79,3.17-1.27,4.73-2C10.32,121.9,10.76,121.89,11.2,121.88Z"/><path class="cls-11" d="M137.2,96.88c-.27.42-.84.94-.74,1.25,1.28,4.27-1.6,8.25-.85,12.43,1.25,6.87.67,6.47-5.84,7.31-5.41.71-10.84.53-16.22,1.2,0,.47,0,.94,0,1.41,6.14,0,12.27.09,18.4-.07,1.61,0,3.47-.21,3.44,1.54s-2,1.94-3.58,1.59c-6.74-1.58-13.43.3-20.14.45-5.5.11-11-1.92-16.47-.14.49-3.34,3.06-3,5.37-2.94a52.56,52.56,0,0,0,7.33.27c-5.57-2.4-11.67-.51-17.42-2.06,7.71.92,15-1.46,22.54-2.25,1.13-.12,2.26-.36,3.39-.54-2.61-6.65,7.64-4.46,6.82-9.93-.25-1.64-.16-3.32-.36-5-.12-1-.57-2.13.92-2.28,1.16-.12,1.87.63,1.71,1.87-.23,1.9-.63,4,2.35,3.64,2.47-.29,1.72-2.2,1.74-3.86C129.67,95.2,130,95.05,137.2,96.88Z"/><path class="cls-12" d="M143.4,51.94q-.06,18.66-.15,37.32c0,1.84.87,4.18-2.06,4.83h-33l-83,0L8.33,93.84a.86.86,0,0,1,0-1.44,3.62,3.62,0,0,1,1.54-.8,69.76,69.76,0,0,1,7.92-.21H32.48c33.48.35,66.94-.92,100.42-.58,6.78.07,7.21-.42,7.23-7s.94-13,.57-19.46c0-3.07,0-6.15,0-9.22,0-2.11,0-4.23,0-6.34a79.15,79.15,0,0,0-.24-9c.45-3.87.15-7.75.23-11.62,0-2.25.06-4.51-.06-6.76-.47-3.15,1.21-6.56-1.17-9.47-2.06-.3-4.15-.26-6.21-.6-6,.57-12-.13-18,.39-3.77.07-7.55.41-11.31-.26-14.83-.67-29.63.69-44.46.41-4.28-1.5-9.09.83-13.22-1.77a1.24,1.24,0,0,1,.31-1.72c7.27-1.26,14.63-.72,21.9-.52,15.31.42,30.6-.48,45.89,0,8.66.25,17.31-.3,26-.54,3.33.26,4.64,2.54,4.74,5.39.41,11.74.25,23.49.1,35.24A5.22,5.22,0,0,1,143.4,51.94Z"/><path class="cls-13" d="M4.19,3.88,21.87,3c.8,2.27-2.12,2.2-1.67,3.86-1.57,2.06-3.85,1.27-5.87,1.48s-4.48-.75-6.49.76a1.87,1.87,0,0,1-.72.78c-2,7-.63,14.11-1,21.16-.3,5.89-.06,11.81-.73,17.79C7.21,44.47.5,41.61,3.61,37.05c-3.14-8-.75-16.24-1.32-24.36C2.08,9.72,2.14,6.5,4.19,3.88Z"/><path class="cls-13" d="M14.19,95.88c-.73.9-1.28,2.22-2.22,2.62-6.48,2.72-5.39,8-4.58,13.16.28,1.73.85,3.26-1.19,4.22-.84.73-.41,2.93-2.39,2.26-1.6-.54-.51-1.94-.59-2.93-.14-1.73.33-3.66-2-4.33a262.93,262.93,0,0,0,1-31c3.42,1.61.39,4.63,1.62,6.57C5,84.94,1.05,80.92,6.19,80.88c1.31,5.9-2.79,11.55-.68,17.5C7.22,93.62,11.29,96.82,14.19,95.88Z"/><path class="cls-14" d="M7.12,9.9l.06-1L8,8.62A2.74,2.74,0,0,1,9.22,9.76c1.22,3.28.08,6.68.5,10,0,1.4,0,2.8,0,4.2,0,1.69,0,3.39,0,5.09.07,2.87-.23,5.76.34,8.62a7.43,7.43,0,0,1-.1,2.66c.44,4.2-.36,8.37-.16,12.56.86,3.32,0,6.67.21,10,0,4-.78,7.93.09,11.89.23,4.29-.91,8.56-.18,12.86-.14,1.86-.15,3.76-1.63,5.2,0,.34.05.67.07,1-2-1.71-1.14-4-1.15-6.09Q7.08,48.83,7.12,9.9Z"/><path class="cls-2" d="M1.2,110.88c6.05-.31,1.29,4.61,3.17,6.38,1.08.28.35-2.11,1.83-1.38,1,3.2,3.52,2,5.68,2.22a63.6,63.6,0,0,1,6.48,1.26c-2.66.9-5.28.74-7.16,2.52v1a14.37,14.37,0,0,1-8.09,0,2.15,2.15,0,0,1-2-2c.87-3,2-6,.07-9.05Z"/><path class="cls-15" d="M72.12,105.85c2.67.21,5.36-2.29,8,0-.3,1-1,2-.82,2.82,1,3.46.51,5.65-3.76,5.11-4-.52-4.5-3.3-4-6.59A5.84,5.84,0,0,1,72.12,105.85Z"/><path class="cls-7" d="M2.2,61.88c.09-1.09-.3-2.42,1.58-2.45a2,2,0,0,1,2.31,2c.12,2.48.07,5,.1,7.45-1.27.6.65,3.31-2,3a5.2,5.2,0,0,0-2-5A5.55,5.55,0,0,0,2.2,61.88Z"/><path class="cls-7" d="M6.19,80.88C2.51,82,5.25,85.54,3.7,87.62c-1.37-2.47.58-5.52-1.5-7.74,1-1.9-.85-4.73,2-6,1.19.13,1.32,1.33,2,2Z"/><path class="cls-13" d="M6.19,75.87l-2-2v-2c.66-1,1.32-2,2-3Z"/><path class="cls-13" d="M2.2,61.88a3.49,3.49,0,0,1,0,5Z"/><path class="cls-13" d="M3.69,47.43C1.72,46,2.53,45,2.1,44,3.94,44.89,2.68,45.87,3.69,47.43Z"/><path class="cls-16" d="M148.2,15.88c.16-2.12-.65-4.53,1.84-5.92q0,47.4,0,94.79c-2.48-1.78-1.37-4.6-2-6.92-.51-9.87-2-19.64-1-29.65,1.08-10.4-1.46-20.84-.75-31.35.39-5.77,1.57-11.54.58-17.39A3.59,3.59,0,0,1,148.2,15.88Z"/><path class="cls-9" d="M149.19,97.87c.29,2.3-.69,4.74.84,6.88-.31,5,1.29,10.17-.87,15.1a28.19,28.19,0,0,1-1-14q-.51-4-1-8A1.33,1.33,0,0,1,149.19,97.87Z"/><path class="cls-17" d="M148.2,105.88l1,14a2.85,2.85,0,0,1-2.89,3.06.64.64,0,0,1-1.07,0c1.93-1.5,1.92-3.6,2.06-5.81C147.5,113.34,146.16,109.45,148.2,105.88Z"/><path class="cls-11" d="M145.2,122.88l1.07,0-1,1a8,8,0,0,1-1,0c-1.55-.24-3.83.8-4.44-1-.66-2,.86-1.92,2.25-1.09a17.22,17.22,0,0,0,2.16,1A3.15,3.15,0,0,0,145.2,122.88Z"/><path class="cls-7" d="M3.11,122.91l8.09,0c-1.79,1.67-4,.74-6,1Z"/><path class="cls-18" d="M101.09,150.74l-1.88.2c-.63-2.31-2.49-2.1-4-2.05,1,.44,3.18-.75,3,2l-45,0a1.17,1.17,0,0,0-2,0c-1.44.09-1.78-.89-2-2,1.14-2.25,3.23-1.9,5.2-1.9,14,0,28.1.05,42.15,0C99.37,146.9,101.7,147,101.09,150.74Z"/><path class="cls-19" d="M98.19,150.9c-2.66-2.26-6.09-.14-9.35-1.72,3.37-2.07,6.78-1.19,10-1,1.73.1.66,1.75.41,2.76Z"/><path class="cls-20" d="M51.2,150.86c.13-1.06-.29-2.73,1.31-2.65,2,.11.36,1.77.68,2.66Z"/><path class="cls-17" d="M149.19,97.87h-2c-1.61-2.78-3-5.58-3-8.95.06-10.57,0-21.15,0-31.72,0-1.77.44-3.66-.78-5.27q-.18-19.33-.34-38.68c0-2.11.47-4.55-2.88-4.58a15.78,15.78,0,0,0-2-.69c-2.28-.6-4.88.83-6.94-1.12.43-2.59,3.42-2.81,4.25-2.37,4.28,2.32,9.74-4.58,13.39,2.12-.69.68-4.42-1.63-2.44,2.19,1.07,2.08.33,4.91,1.8,7.07,2.13,8.21-.14,16.42,0,24.63.22,9.76,1.49,19.59.7,29.26C148.16,79.23,150.09,88.51,149.19,97.87Z"/><path class="cls-21" d="M139.14,7.85l1,.83q-41.25.11-82.49.2C53.86,8.89,50,9,46.2,9c-1.79,1.62-4,1.26-6.13,1.32-8.91.24-17.84-.46-26.74.43a5.9,5.9,0,0,1-5-1.74l-.22-.28C9.53,6.15,12,7.93,13.88,7.38c18.29-.08,36.58.14,54.87-.08,1.78,0,3.67-.33,5.39.54l6.06,0c9.06-1.14,18.16-.46,27.23-.46C118,7.42,128.58,6.8,139.14,7.85Z"/><path class="cls-22" d="M139.14,7.85l-58.94,0c4.08-2.14,8.48-.43,12.68-1,5.21-.74,10.74,1.76,15.86-1.48.21-.13,3.77,1.49,6,1.49H131.2C133.84,7.26,136.68,6,139.14,7.85Z"/><path class="cls-23" d="M74.14,7.84H13.23c-.65-.3-.65-.62,0-1h7c14.25,0,28.5,0,42.75,0C66.7,6.89,70.61,5.24,74.14,7.84Z"/><path class="cls-24" d="M76.4,4.33c.22,1.58-.46,1.82-1.07,1.84-.36,0-1-.42-1-.72-.08-.56-.09-1.36.84-1.43C75.83,4,76.39,4.18,76.4,4.33Z"/><path class="cls-25" d="M142,63.94c.07,8.48,0,17,.24,25.44.08,2.89-1,3.68-3.75,3.67q-53.16-.22-106.31-.31a1.11,1.11,0,0,1,.32-1.5,3.67,3.67,0,0,1,1.56-.69c3.69-.24,7.37-.77,11.09-.38,2,0,4,.35,6,.21h6.89c2.76,0,5.52,0,8.27,0a20.79,20.79,0,0,0,12-2.8C82.7,84.92,88.51,85.22,92,80.76a2.38,2.38,0,0,1,2.83-.4c3.91,1.88,7.11,0,10.25-1.88a9.28,9.28,0,0,1,5.66-1.59,6.19,6.19,0,0,0,5.73-2.31c1.62-2,4-2.2,6.4-1.86,4.31.59,8.65.29,13,.42,1.29,0,2.72.39,3.53-1.13C140.74,69.47,137.92,65.53,142,63.94Z"/><path class="cls-26" d="M142,63.94c-1.72,3.18-.46,6.63-.84,9.93-8.51-1.5-16.73-3.87-25.45.69-5,2.6-11.38,1.52-17.15,2-3.25.29-6.69-.47-9.29,2.41a2.6,2.6,0,0,1-2.36.51c-3.82-.66-6.38.92-8.09,4.29a9.53,9.53,0,0,1-2.76,2.83c-.91.74-3.73.36-1.95,3,.24.36-1.14.82-2,1a19.36,19.36,0,0,1-6.75-.29c.84.24,2.22-.18,1.77,1.55h-9c-.61-.49-1.71-1.2-1-1.86,1.2-1-.31-1.19-.28-1.77,2.57-2.29,4.82-5,8-6.47a11.28,11.28,0,0,0,4.5-4.53c1.19-1.88,2.65-3.6,5.2-3,1.63.35,2.43-.63,3.45-1.46a8.47,8.47,0,0,1,5.45-2.23c9.32.3,17.52-3.69,26.06-6.4,1.76-.56,3.67-1,5.4-.38,5.14,1.91,10.52,1.16,15.78,1.74,4.16.46,7.21-.7,8.5-5,.7-1.55,0-3.38,1-4.89a2.59,2.59,0,0,1,1.09-1l.69.26Q142.05,59.41,142,63.94Z"/><path class="cls-27" d="M8.26,39.89c0-.67,0-1.35,0-2-.07-5.63,2.71-9.5,7.44-12.2S24.63,19.19,30,17.24c5.65-2.06,10.77-5.2,17.09-5.73,4-.33,8.11-.88,12.13-1.6h45c1.73,2.21-.36,3.71-1,5.48a2.45,2.45,0,0,1-2.51,1c-1.11-.44-1.26-2.23-2.85-2-17.82.35-35.52,1-53.12,4.74-7.78,1.66-12.94,6.5-19.32,9.89A26.77,26.77,0,0,0,13.41,41a3.17,3.17,0,0,1-1,1.19C10,43.22,9.18,41.5,8.26,39.89Z"/><path class="cls-28" d="M142,21v7c-.44.78-.12,1.94-1.21,2.4C128.52,33.7,116.42,37.63,104,40c-4.51.86-9.15,1-13.56,2.57-1.62-.19-3.12-.61-4-2.19a4.44,4.44,0,0,1-.18-3.11,4.5,4.5,0,0,1,.7-1.38c1-1,1.66-2.7,3.62-2.18,3.5,3.34,7.26,1.22,10.9.41,1.54-.35,2.81-1.61,4.51-1.65,7.15.09,13.5-3.1,20.1-5.11,3.79-1.15,7.67-1.87,11.47-2.92a3.41,3.41,0,0,0,2.64-2.51A1.67,1.67,0,0,1,142,21Z"/><path class="cls-29" d="M142,21l-.79.88c-3.51,3.4-8.26,3.09-12.53,4.2-6.19,1-11.52,4.84-17.72,5.61-4.6.58-8.88,2.17-13.33,3.23s-5.77.07-6.8-4.48a6.7,6.7,0,0,1,.2-1.61c.83-1.62,1.25-3.69,3.78-3.43a2.33,2.33,0,0,1,1.14.91c2.93,3,7.17,1.69,9.43.61,3.95-1.89,8.33-2.18,12.08-4.29,6.76-.57,12.73-4.08,19.33-5.23,2.94-.51,3-2.57,3-4.78a4.1,4.1,0,0,1,1.43-2.71C143,13.5,141.82,17.3,142,21Z"/><path class="cls-30" d="M141.21,9.91c0,1,0,2,0,3-2.55,4.76-7.76,3.83-11.77,5.49-9-1.39-16.51,3.92-24.84,5.58-3.29.65-5.88,1.12-7.29-2.65a3.66,3.66,0,0,1,1.27-3.59,3,3,0,0,1,1.42-.53c4.72,1,8.77-1.94,13.32-2.5,7-.87,13.94-3.09,20.9-4.77Z"/><path class="cls-31" d="M141.19,29.87c.27-.61.53-1.23.8-1.85,0,4,0,8,0,12-.72,1,.22,2.67-1.27,3.41-3.57.68-7.16,1.35-10.79,1-3.28-.35-5.2,2.81-8.25,2.93-7.55,1.45-15,3.65-22.7,3.93-2.75.1-6,1.48-8-1.87,1.88-3.13,5.46-2.75,8-2.66,6.42.21,11.82-2.85,17.64-4.42,3.77-1,7.94-1.06,11.28-3.51a7.17,7.17,0,0,1,4.38-1.18c2.34.28,4.77.89,6.43-1.6a3.53,3.53,0,0,0,1-2.32C139.75,32.21,139.9,30.82,141.19,29.87Z"/><path class="cls-32" d="M59.19,9.91c-5.24-.07-9.44,3.62-15.07,3.45-4.25-.13-8.54,3.42-12.94,5-5.54,2-9.78,6.07-15,8.55-1.83-2.35-.36-3.8,1.35-5.27,2.2-1.91,5.21-2.68,7-5.13a5.25,5.25,0,0,1,1.27-.75c3.35.2,5.27-2.76,8.08-3.74,2.23-.62,3.84-2.79,6.41-2.61,2,.23,4-.5,5.89.47Z"/><path class="cls-33" d="M134.2,9.91c-3.6,1.57-7.06,3.87-10.82,4.54-6.95,1.24-14,1.62-20.49,4.88-1.36.69-2.09-.42-2.7-1.46a1.37,1.37,0,0,1,0-2l2-1a30.8,30.8,0,0,1,14.86-2.25c-1-.62-2.49-1-1.83-2.72Z"/><path class="cls-34" d="M46.19,9.85l-7,.05a31.79,31.79,0,0,1-11.06,1.75c-7.1,0-13.51,1.69-18.17,7.59a1.61,1.61,0,0,1-1.72.63A49,49,0,0,1,8.36,9H46.2C46.2,9.31,46.2,9.58,46.19,9.85Z"/><path class="cls-35" d="M115.23,9.91c.56,1.91,2.7,1.54,4.37,3-6.14.65-11.52,3.13-17.4,2,.66-1.66,1.31-3.31,2-5Z"/><path class="cls-36" d="M8.26,92.84c0-1.66,0-3.32,0-5,1-2,.19-4.2.46-6.29.18-1.4.2-1.4,1.94-.56,0,0,.07.15.07.1a2.67,2.67,0,0,1,1.58-2.8,2.59,2.59,0,0,1,2.24.38c1.38,1.55,1.2,3.41,1,5.26a46.4,46.4,0,0,1-3,8c-1,.81-2.27.16-3.27.78Z"/><path class="cls-37" d="M32.22,91.9v.85l-15,0a1,1,0,0,1,.09-1.34,4,4,0,0,1,1.32-.76,20.05,20.05,0,0,1,3.1-.26c1.35-.14,2.7.08,4.06,0C28.11,90.25,30.51,89.64,32.22,91.9Z"/><path class="cls-38" d="M141.19,42.87c0-1-.06-2.1.84-2.89v8.9a1.06,1.06,0,0,1-1.4-.26,4.1,4.1,0,0,1-.81-3A3.47,3.47,0,0,1,141.19,42.87Z"/><path class="cls-39" d="M17.23,91.9c0,.27,0,.54,0,.82l-7.93,0c.78-.89,1.84-.8,2.87-.82C13.88,90.22,15.56,90.3,17.23,91.9Z"/><path class="cls-40" d="M141.2,48.88H142q0,3,0,6h-.86c-1.58-1.29-1.61-2.93-1.09-4.71A2.94,2.94,0,0,1,141.2,48.88Z"/><path class="cls-9" d="M13.21,6.88c0,.32,0,.64,0,1-1.72.2-3.58-.4-5.09.93-.32.05-.64.08-1,.1-1.3-.28-1.3-.76-.19-1.34C9,6.5,11.13,7,13.21,6.88Z"/><path class="cls-41" d="M12.2,78.88c-2.41,2.51-2.92,5.86-3.95,9v-13c2-10.61,5.3-21,11.77-29.49,8.53-11.17,19.66-19,34-22.39,7.92-1.89,15.94-.32,23.62-2.62A39,39,0,0,1,90.73,18.9c2.15.09,4.14-.11,3.85,3C91.48,24.29,88,25.12,84,25.33,68.43,26.15,53,28.25,39.38,36.62c-7.71,4.75-14.63,10.5-18,19.76A89.66,89.66,0,0,1,14.1,71.46C12.69,73.84,14.82,76.94,12.2,78.88Z"/><path class="cls-42" d="M94.19,21.88c-.21-1.07-.69-1.91-2-1.76C78.4,21.74,64.42,22.57,50.8,25.27c-9.24,1.84-16.44,8.57-23.75,14.62-11.14,9.22-12.42,23.4-18.8,35v-12c2.37-2.64,2.14-6.21,3.21-9.31C13.42,48,16.86,43.4,20.61,39c4.54-7.7,13.74-9.23,19.76-15a1.75,1.75,0,0,1,.9-.42c8.92-1.49,17.58-4.3,26.61-5.34,7.61-.87,15.42.27,22.84-2.62,2.1-.82,4.6-.28,6.92-.27,1.61,0,2.59.7,1.56,2.5-.33,1-.67,2-1,3-.34,1.72-.12,3.85-2.83,3.83A2.59,2.59,0,0,1,94,24,1.79,1.79,0,0,1,94.19,21.88Z"/><path class="cls-43" d="M21.2,39.88a3.9,3.9,0,0,1-1.54,3.49c-5,3.93-6.51,9.6-7.46,15.46-.39,2.46-2.22,3.1-3.94,4v-10A6.1,6.1,0,0,0,10,48.61c.1-2.38.27-4.91,2.25-6.73h0a47.91,47.91,0,0,1,6.11-6.54c1.68-1.59,3.57-3.18,6.16-1.58C26,37.2,22.22,37.8,21.2,39.88Z"/><path class="cls-44" d="M27.21,9.9h12c-1.87.66-2.14,4-5,3-2.75,1.18-5.35,2.63-8,4h-1C20.72,20.68,14.59,22.56,12,28.63c-.62,1.47-2.34,2.55-3.77.26v-5C12.55,16.47,20.25,13.69,27.21,9.9Z"/><path class="cls-45" d="M27.21,9.9c-5.42,5.88-13,8.83-19,14v-4C10.4,13.87,18,9.88,27.21,9.9Z"/><path class="cls-46" d="M8.24,28.89c4.33.87,3.09-3.83,5.3-5.41,3.7-2.64,7.26-5.28,11.66-6.6-.13,2.5-2.34,2.9-3.92,4-2.17,1.54-5.43,2.26-5.08,6-3.4,3.12-7.29,5.89-7.95,11Z"/><path class="cls-47" d="M12.2,41.88c.25,2.76-.68,5.4-.85,8.09-.14,2.36-1.72,2.31-3.09,2.9v-13C9.57,40.56,10.54,41.9,12.2,41.88Z"/><path class="cls-37" d="M141.19,49.87v5h0c-.24.23-.51.65-.75.62-7.55-.83-14.46,4.67-22.15,2.25-2.21-.7-3.75,1-5.64,1.39-9.9,1.87-19.77,3.56-29.92,4-8.91.43-17,3.14-23.17,11.21-2.88,3.77-5.22,9.21-11,10.76-3,.81-2.25,4.45-3.4,6.71l-12,0c-.23-2,1.22-1.8,2.44-1.87s-.23-.83.28-1.09c4.07-7.78,9.44-14.75,13.7-22.44a19.62,19.62,0,0,1,13-9.61,19.33,19.33,0,0,0,8.79-4.32c2.43-2.21,5.13-2.38,7.34.49a6.1,6.1,0,0,0,5.71,2.36c5.42-.43,10.81-1.06,16.21-1.83,10.08-1.43,19.74-4.43,29.63-6.44C133.66,46.45,138.7,44.67,141.19,49.87Z"/><path class="cls-38" d="M45.17,91.85c-1.38-4.64.07-7.62,4.51-9.22.46-.17,1.31-.1,1.4-.35,1.53-4.15,5.21-6.49,7.73-9.7C60.1,70.93,61.07,69.22,63,68c5.22-3.43,11.06-7.13,16.89-6.52s11.21-3.51,16.72-.08c.45.28,1.71.22,1.81,0,2.45-5.91,7.65-1.55,11.35-3s7.54-3,12-1.68c2.24.66,5.45,1.43,7.43-2.08,1-1.7,3.74-.81,5.62-.49a26.49,26.49,0,0,0,6.39.78v6c-6.1,1.37-12.31.87-18.34.08-5.74-.75-10.41,1.13-15.24,3.45-4.33,2.07-8.74,4-13.77,3a6.79,6.79,0,0,0-7.83.51,10.69,10.69,0,0,1-5.05.48c-4.58.62-8.82,2.9-13.57,2.71-.5,0-1.12.44-1.11.83,0,5.07-5.75,6-7.11,10.07-.45,1.31-1.77,1.76-3,2.41-2.9,1.57-5.25,3.69-5,7.44Z"/><path class="cls-48" d="M36.2,89.88c.39.19,1.62.29.4.86-1.05.49-2.51,0-3.4,1.14l-1,0-7,0c-1-1-2.05-2.29-.81-3.42,5.14-4.68,5.57-12,9.81-17.2,3.21-4,5.82-8.52,8.91-12.62,5.41-7.19,12.38-12.12,21.49-14,6-1.25,11.51-4.18,17.53-5.49,1.63-.36,3.32-1.33,3.83,1.33a7,7,0,0,1-.73,2.77c-1.85,1.74-1.08,4.47-2.4,6.41a1.64,1.64,0,0,1-1.25.54c-5.88-2.66-10,1.67-14.56,3.9-2.34,1.15-4.26,2.75-7.13,3-2.2.16-4.84,1.12-6.12,3-3,4.28-6.59,8.12-9.22,12.57-2.35,4-3.74,8.44-7.1,11.87C36.11,85.8,35.13,87.73,36.2,89.88Z"/><path class="cls-49" d="M67.18,91.87c-1.2-1.46-3.1-.69-4.57-1.94H72.82v-.81l-4.74-.52c.58-2.12,2.19-1.48,3.36-1.79,3-.78,5.78-1.8,6.69-5.22.7-2.67,2.68-4.1,5.15-3.83,4.9.55,8.37-3.74,13.52-3.1s10.57-.84,15.84-.66c4,.13,5.89-4,10-3.82,1.88.07,3.58-.86,5.79.26a8.26,8.26,0,0,0,6.31.16c3.89-1.69,5.62-.44,6.43,3.27a1.36,1.36,0,0,1-1.74,1.23c-6.07-.86-12.26.68-18.31-1a2.92,2.92,0,0,0-3.89,2.13c-.51,1.6-1.58,2.86-3.22,2.53-5.89-1.18-10,2.41-14.52,5-.61.36-1.36.85-1.76.3-3.56-5-5.21.21-8,1C82.17,87.19,75.6,92.76,67.18,91.87Z"/><path class="cls-50" d="M51.18,91.85a5.49,5.49,0,0,0-3.9-3.63C51.86,85,57.78,84.37,58.61,78c.15-1.08,1.55-1.06,2.53-1.18s2.39-.42,2.45-1.38c.47-8.35,7.08-6.1,11.77-6.66,2-.23,2.22-4,4.84-1.92.31,4.25-1.74,6.9-5.51,6.6-4.08-.34-6.42,0-8.33,4.93s-7.14,8.52-12.11,9.46a2.64,2.64,0,0,1,3,1c2.53.26-.49,2.36,1,3Z"/><path class="cls-40" d="M57.2,88.88h-6c4.65-3.88,10-5,12.71-9.67.4-.69,2.1-.73,1.74-2-2.27-8,5.27-6.14,7.37-5.59,5.09,1.32,5.55-2.08,7.14-4.75h6c2.62-.66,5.23-1.47,8-1,4.65,1.61,8.32-1.55,12.3-2.81a19.51,19.51,0,0,0,5.23-2.43c4.92-3.55,10.17-1,15.18-1.17,3.22-.1,6.58.79,9.79,0,2-.51,3.08.7,4.49,1.41C139.65,67,135.45,68,129.9,67.06c-5.16-.82-10.65.85-15.56-2.07a1.72,1.72,0,0,0-1.47,0c-5.7,3.26-13.05,2.15-18.21,6.84-1.34,1.21-2.68.67-4.19.32-4.54-1.06-8.34,1.17-12.54,2.32-5.15,1.42-7,5.64-10.72,7.68S61.2,87.68,57.2,88.88Z"/><path class="cls-47" d="M24.19,33.87c-3,.43-4.85,2.37-6.61,4.74a8.45,8.45,0,0,1-5.38,3.27c.72-6.53,4.62-10.68,10.32-13.22,2.81-1.25,4.76-3.48,7.13-5.14a31.49,31.49,0,0,1,13.6-5.58c10.08-1.58,19.91-4.38,30.31-4.18a106.4,106.4,0,0,0,17.78-1.55c2.8-.43,5.2,1.15,7.86.67a2.88,2.88,0,0,1-3.27,3.38c-4-.28-7.83,1.15-11.79,1.12-14.42-.08-28.41,2.91-42.42,5.89-2.66.57-3.29,3-5.33,4.1C32.36,29.61,28.27,31.72,24.19,33.87Z"/><path class="cls-51" d="M24.19,33.87c2.26-4.47,7.74-4.35,10.89-7.72,6-6.39,14.53-5.65,22.17-7.56,11.61-2.89,23.38-2.71,35.17-2.69,2.78,0,5.38-.08,6.78-3,2.36.32.76,2,1,3,0,.66,0,1.33,0,2h-1c-2.5-2.33-6.12-1.67-8.06-.66C85,20.44,78.47,19.29,72.29,19.57,62.52,20,53.08,22.42,44.06,25c-6.87,2-14.75,5.29-19.24,12.33-.88,1.37-2.34,1.8-3.62,2.52C21.08,37.32,24.84,36.7,24.19,33.87Z"/><path class="cls-52" d="M92.22,28.9c0,.33,0,.66,0,1-1.09,1.12.19,3.43-2,4l-2,3a6.45,6.45,0,0,0-2.37-1.77c-5.16,1.86-10.64,1.78-15.91,1.83a20.08,20.08,0,0,0-13.89,5c-3.76-.21-7.46,3.52-11.27.19a4.27,4.27,0,0,1-.87-2.22c0-2.52,1.21-3.91,3.73-4.47,4.29-1,8.9-1.09,12.42-4.35a2.49,2.49,0,0,1,1.88-.55c6,.73,11.6-2,17.56-2.33,3.63-.17,7.28-1.51,11.06-1.54C92.21,26.66,93.17,27,92.22,28.9Z"/><path class="cls-53" d="M141.19,29.87v5a328.05,328.05,0,0,0-32.46,7.93A45.72,45.72,0,0,1,93,44.32a3.29,3.29,0,0,1-2.89-1.65c0-.26,0-.53.08-.8,2.89-2.14,6.18-2.67,9.72-3.12a86,86,0,0,0,17.49-3.6c7.31-2.52,15.11-3.15,22.21-6.3C139.93,28.71,140.66,29.51,141.19,29.87Z"/><path class="cls-54" d="M56.2,40.87c2.73-5.15,7.5-4.79,12.45-5.66,5.4-.94,11.39,1.84,16.28-2.39,1-.89,1.76.15,2.27,1.06a4,4,0,0,0,0,3c0,1,0,2,0,3a1,1,0,0,1-1.28,0c-.5-1.41-1.68-1.51-2.87-1.35-8.57,1.15-16.76,4-25.22,5.75a6.44,6.44,0,0,0-3,1.72c-2.63,2.41-5.27,2.52-7.86-.11C49.14,42.52,52.65,41.67,56.2,40.87Z"/><path class="cls-55" d="M90.19,33.87l2-4c-.29,4.41,2.19,4.53,5.41,3.48,9.29-3,19.26-3.79,28.14-8.31.94-.47,2.29-.13,3.45-.17-1,4.33-5.12,3.8-8,4.94-4.82,1.88-9.93,2.83-15,4.06-4,1.7-8.07,3.31-12.62,3C91.45,36.79,90.09,36.26,90.19,33.87Z"/><path class="cls-56" d="M106.2,33.88c.62-2.6,2.77-1.71,4.45-2,6.59-1.22,13-2.84,18.55-7,3.93-1.26,7.84-2.61,12-3,.21,2.74-.1,3.84-3.77,4.32-6.85.9-13.6,3.15-20.17,5.47C113.6,33,110.06,34,106.2,33.88Z"/><path class="cls-57" d="M87.2,36.88c-.94-.21-1.88-.47-1.72-1.72.12-1,1-1.11,1.72-1.28,1,.76,1,1.87,1,3Z"/><path class="cls-53" d="M86.2,39.88h1l3,2h0c-1.81,2.38-3.41,2.89-4.61-.48A2.83,2.83,0,0,1,86.2,39.88Z"/><path class="cls-58" d="M92.22,28.9a12.76,12.76,0,0,0-6.83-.62c-4.5,3.65-10.27,2.34-14.83,2.68-7.93.59-14.24,5.55-21.9,5.87-2.11.09-3.59.57-3.46,3.05-3.62,4-7.69,7.6-11.62,11.3a21.27,21.27,0,0,0-5.82,8.42C25,67.48,21,74.9,18.58,82.94c-.64,2.14-1.92,3.57-4.38,1.94v-6a2.67,2.67,0,0,1-.62-1.34,9.57,9.57,0,0,1,3.24-7.86c2.71-2.37,2.34-5.93,3.11-9,5.28-16.43,17.52-25.21,33.2-30.22a20.64,20.64,0,0,0,11-2.52,5.94,5.94,0,0,1,3-.51c7-.42,14-1.95,21-2.12a5.5,5.5,0,0,0,3.08-1.5,2.35,2.35,0,0,1,2.94.09l1,0a1.37,1.37,0,0,1,0,2C93.2,25.9,93.39,28.06,92.22,28.9Z"/><path class="cls-59" d="M95.19,25.87c0-.67,0-1.33,0-2,2,0,1.82-2.18,3-3,1.31,2.36,2.57,2.33,5.46,1.61,8.44-2.08,16.35-6.95,25.54-5.61.45,2.82-1.42,3.41-3.58,4.12-3.31,1.08-7.24.39-9.9,3.36-5.52.3-10.38,3.65-16,3.46-1.59-.05-3.27.68-4.5-.94Z"/><path class="cls-60" d="M116.19,23.88c.84-3.83,3.89-4,6.88-4,2.64,0,4.86-.45,6.13-3,3.7-2.21,8.38-1.52,12-4-.17,2.18.8,5.37-2.27,5.77-7.45,1-14,5.66-21.72,5.23C116.86,24.28,116.53,24.3,116.19,23.88Z"/><path class="cls-43" d="M116.19,23.88h1c-4.94,1.8-9.55,4.6-14.94,5a12.42,12.42,0,0,0-4.82.89c-.83.41-1.85,1.25-2.69.32s.07-2.14.45-3.18C102.37,27.09,109,23.79,116.19,23.88Z"/><path class="cls-54" d="M86.19,40.87c.67,3,2.43,1.62,4,1,6.37,2.28,12.71.22,18.84-.82,8.49-1.44,16.32-6.07,25.17-6.13,2.32,0,4.67-4.08,7-.07l-1,2c-2.74-.75-4.33,2.52-7,2-1.4.07-2.91-.29-4,1-13.3,3.11-26.34,7.42-40.09,8.39-3.93.27-5.59-1.38-4.92-5.39l1-2C85.52,40.24,85.86,40.24,86.19,40.87Z"/><path class="cls-57" d="M84.19,42.87C84.1,46.28,86,46.92,89,46.75c12.43-.69,24.36-3.75,36.27-7,1.2-.34,2.6.09,3.92.16-3.43,3.09-8.09,2.42-12.08,3.92a73.11,73.11,0,0,1-25.93,5.09c-2.67,3.65-4.12,3.81-9,1C82.48,47.43,81.23,44.55,84.19,42.87Z"/><path class="cls-48" d="M82.2,49.87c3-.55,6.28,1.92,9-1,6.08,2.38,12-.64,18-.53,4.49.09,8.35-3.23,13-2.47l.37.6a2.33,2.33,0,0,1-.65,1.25c-2.4,1.17-4.77,2.42-7.18,3.59A132.05,132.05,0,0,1,92,54.72c-2.8.13-5.62.43-8.35-.34-2.47-.71-3.91-2-1.49-4.5Z"/><path class="cls-61" d="M122.2,46.88v-1c5.89-3.78,12.36-3.92,19-3,0,1,0,2,0,3-2,1.48-4.43,1.38-6.58,1.28a19.71,19.71,0,0,0-8.6,1A2.91,2.91,0,0,1,122.2,46.88Z"/><path class="cls-57" d="M133.2,38.88c2.25-1,3.69-4.73,7-2C138.25,38.89,136.22,40.63,133.2,38.88Z"/><path class="cls-46" d="M26.19,16.87c1.75-3.17,4.85-3.64,8-4C31.82,14.78,29.82,17.46,26.19,16.87Z"/><path class="cls-62" d="M14.2,77.88v1h-2c-1.19-7.32,2.52-13.13,6-18.95,2.67-4.5,3.37-10,7-14,.42-.46.42-1.52.86-1.71,6.52-2.82,10.7-8.78,17.45-11.71,13.91-6,28.28-8.31,43.16-8.7,2.69-.07,4.68-2.7,7.55-2,0,.66,0,1.32,0,2l-2,1c-7.4,1.23-14.84,2.15-22.3,3a4,4,0,0,0-2.7,1h-3a99.89,99.89,0,0,1-11,3c-15.08,4.8-26.38,13.76-32,29-1.05,3.65-2.09,7.36-5,10.06C14.13,72.93,15.25,75.68,14.2,77.88Z"/><path class="cls-63" d="M14.2,84.88c1-.07,2.6-.1,2.54-1-.35-5.16,2.75-9.37,4.81-13.29,3.68-7,3.64-15.77,11.4-21,4.19-2.83,7.2-7.6,12.25-9.67v2c.17,3.4-2.21,5.62-4.3,7.48-4.77,4.27-7.29,10-10.85,15.07-4.79,6.8-5.71,15.3-9.3,22.68-.8,1.63-1.69,3.19-2.55,4.77-.32,0-.64,0-1,0l-5,0C10.53,88.87,13.27,87.13,14.2,84.88Z"/><path class="cls-57" d="M86.19,40.87h-1c-.85-.28-.78.17-3.57.57C75,42.37,69,44.88,63,47.61a2.16,2.16,0,0,1-1,.19c-5.28-.33-8.79,3.11-12.33,6.13-6,5.09-9.44,12.23-14.23,18.29-3.36,4.25-4.42,9.4-6.82,14-1,2-5,2.19-3.5,5.65h-4c-1.27-.76-2.07-1.68-1.24-3.25,1.71-3.21,2.6-6.78,4.27-10,2.29-4.38,5.08-8.38,6.43-13.35,1.49-5.54,6.26-9.26,9.94-13.47,1.92-2.19,2.53-6.08,6.6-5.95,2.81.22,5,.3,7.61-2.25,3.22-3.11,9-1.43,13.17-3.7s9.4-1.32,13.93-3c2.11-.8,3.67.79,4.29,3C86.2,40.21,86.19,40.54,86.19,40.87Z"/><path class="cls-39" d="M47.2,45.88c-4.79,6.11-11,11.6-14,18.48C29.34,73.1,24.11,81.12,20.67,90c-.19.48.34,1.24.53,1.87h-3c0-5.17,2.88-9.41,4.62-14a15,15,0,0,0,1.41-4.12c.54-6.19,4.24-10.7,8.21-15,.34-.37,1-.64,1.07-1,.59-7.74,8.63-10,11.69-15.85,3.79,1.1,7.22-1.84,11-1C53.07,42.32,50.68,45.09,47.2,45.88Z"/><path class="cls-64" d="M122.2,46.88c6.32-.55,12.6-1.65,19-1,0,1,0,2,0,3,0,.33,0,.66,0,1-6.28-3.6-12.25-.67-18.39.65-6.46,1.39-12.75,3.32-19.44,4.07C97.62,55.23,91.9,56.78,86,57c-3.58.11-7.22,1.14-9.08-3.7-.73-1.92-3.53-1.41-4.4.29-2.18,4.24-6.86,3-10.05,5-1.8,1.14-12.1,7.63-12.43,9.85-.78,5.27-5,8.31-7.46,12.49-1.85,3.15-2.66,7.13-6.39,9-3.55-1.92-2.5-4.63-.38-6.39,3.14-2.59,4.48-5.94,6.07-9.44,1.32-2.91,1.4-7.16,6.14-7.55,1.12-.09,1.06-1.54,1.32-2.48,1.2-4.37,3.63-7.33,8.47-7.91,7-.83,12-6.07,18.35-8.46,3.47-1.31,4.94-1.09,6,2.23-.72,2.5.41,3.1,2.76,3,9.18-.23,18.46.93,27.36-2.52a15.94,15.94,0,0,1,3.89-.51c1.83-1.34,4.34-1.32,6-3Z"/><path class="cls-50" d="M94.2,65.88c-2.57,1.16-5.14,2.2-8,1C88.46,63.3,91.35,64.77,94.2,65.88Z"/><path class="cls-28" d="M67.2,28.88c.2-.84.52-1.79,1.46-1.79,7.92,0,15.53-3.23,23.54-2.21C88.84,28.67,84,26.49,80,27.51A50.79,50.79,0,0,1,67.2,28.88Z"/><path class="cls-36" d="M14.2,77.88c-1.06-7.06,4.52-11.4,7-17C21,65,20.4,69.05,16.79,71.76,14.67,73.35,15.92,76.21,14.2,77.88Z"/><path class="cls-28" d="M53.2,31.88c3.49-1.65,6.89-3.62,11-3C61.15,32.15,57.11,31.79,53.2,31.88Z"/><path class="cls-61" d="M122.2,46.88c-1.23,2.54-3.38,3.24-6,3C117.28,47.05,120,47.38,122.2,46.88Z"/></svg>
