<svg id="Layer_1" data-name="Layer 1" xmlns="http://www.w3.org/2000/svg" width="116.15" height="155.27" viewBox="0 0 116.15 155.27"><defs><style>.cls-1{fill:#f7f3d3;}.cls-2{fill:#917850;}.cls-3{fill:#a3926b;}.cls-4{fill:#bcad8a;}.cls-5{fill:#a18e6b;}.cls-6{fill:#2f271a;}.cls-7{fill:#a69472;}.cls-8{fill:#f2e6b5;}.cls-9{fill:#f2dfa3;}.cls-10{fill:#f2ebc2;}.cls-11{fill:#e4cb8f;}.cls-12{fill:#ecd39a;}.cls-13{fill:#bfad7f;}.cls-14{fill:#d7c398;}.cls-15{fill:#b2a27e;}.cls-16{fill:#eeebd6;}.cls-17{fill:#3e3e3e;}.cls-18{fill:#9a7e51;}.cls-19{fill:#826436;}.cls-20{fill:#8c7243;}.cls-21{fill:#715738;}.cls-22{fill:#524e49;}.cls-23{fill:#ba9c63;}.cls-24{fill:#c3a669;}.cls-25{fill:#d4b67b;}.cls-26{fill:#ddc388;}.cls-27{fill:#d1b578;}.cls-28{fill:#bc9f69;}.cls-29{fill:#b1935d;}.cls-30{fill:#5a4c33;}.cls-31{fill:#f1dfad;}.cls-32{fill:#eee8c5;}.cls-33{fill:#e5d49a;}.cls-34{fill:#dfc889;}.cls-35{fill:#e1ce98;}.cls-36{fill:#e1cb8e;}.cls-37{fill:#dbc185;}.cls-38{fill:#ead5a9;}.cls-39{fill:#daba75;}.cls-40{fill:#ad9c69;}.cls-41{fill:#c8b88d;}.cls-42{fill:#9d8353;}.cls-43{fill:#94764b;}.cls-44{fill:#977b4f;}.cls-45{fill:#8c6f43;}.cls-46{fill:#866b3a;}.cls-47{fill:#402b0b;}.cls-48{fill:#4d381a;}.cls-49{fill:#ac8e57;}.cls-50{fill:#ead5a2;}.cls-51{fill:#bfa264;}.cls-52{fill:#b5975c;}.cls-53{fill:#806c4a;}.cls-54{fill:#bda779;}.cls-55{fill:#d3b576;}.cls-56{fill:#cbaf72;}.cls-57{fill:#6b593d;}.cls-58{fill:#584830;}.cls-59{fill:#c9ac69;}.cls-60{fill:#d0b36f;}.cls-61{fill:#c3a667;}.cls-62{fill:#b69761;}.cls-63{fill:#b79d62;}.cls-64{fill:#bfa265;}.cls-65{fill:#bb9e62;}.cls-66{fill:#d5ba72;}.cls-67{fill:#1d1512;}.cls-68{fill:#1e100a;}.cls-69{fill:#30231b;}.cls-70{fill:#271c16;}.cls-71{fill:#817557;}.cls-72{fill:#574724;}.cls-73{fill:#cab376;}.cls-74{fill:#271e12;}.cls-75{fill:#c0a15c;}.cls-76{fill:#a3732d;}.cls-77{fill:#c6a052;}.cls-78{fill:#a59156;}.cls-79{fill:#cfb26c;}.cls-80{fill:#2c2212;}.cls-81{fill:#e1cea3;}.cls-82{fill:#dec89c;}.cls-83{fill:#20140a;}.cls-84{fill:#c2a768;}.cls-85{fill:#cfbb8e;}.cls-86{fill:#1e130c;}.cls-87{fill:#292010;}.cls-88{fill:#362308;}.cls-89{fill:#8c7445;}.cls-90{fill:#3b2c19;}.cls-91{fill:#e2ce97;}.cls-92{fill:#211308;}.cls-93{fill:#9a886c;}.cls-94{fill:#130400;}.cls-95{fill:#836b2f;}.cls-96{fill:#2d1e11;}.cls-97{fill:#68522d;}.cls-98{fill:#392928;}.cls-99{fill:#41302c;}.cls-100{fill:#312523;}.cls-101{fill:#968353;}.cls-102{fill:#d1bf8f;}.cls-103{fill:#c1a562;}.cls-104{fill:#af904b;}.cls-105{fill:#bfa96f;}.cls-106{fill:#251b19;}.cls-107{fill:#281e1c;}.cls-108{fill:#1f1715;}.cls-109{fill:#2d2220;}.cls-110{fill:#352a28;}.cls-111{fill:#af9b6e;}.cls-112{fill:#b1924d;}.cls-113{fill:#463433;}.cls-114{fill:#40302e;}.cls-115{fill:#3a2e2c;}.cls-116{fill:#2c211f;}.cls-117{fill:#4e3a38;}.cls-118{fill:#544040;}</style></defs><title>computer1</title><path class="cls-1" d="M.73,1.33C1,1,1.31.57,1.61.2l17-.2,4.93.36C22.33,4.17,18.86,5,15.75,6.18,12.87,7.27,9.7,7.37,6.82,8.55c-3.72,2.15-3.17,6-3.9,9.4-.24,1.15.58,4.63-2.83,2.31C.43,14-.67,7.6.73,1.33Z"/><path class="cls-2" d="M111.89,138.17l-.34,1.09c-1.58,2.9-.56,6.16-1.22,9.19-.4,1.89-.16,4-1.78,5.5l0,.46a57,57,0,0,0-6.27-.23c-3.18-.06-6.35.14-9.52-.12a2.78,2.78,0,0,1-1.24-.72c-.71-2.62,4.1-1.44,3-4.35,1.47-1.79,3.9-.79,5.6-1.91,1.13-.76,1.14-2.32,2.2-3.14,4.38.71,5-2.83,6.21-5.59.63-.78.65-2,1.59-2.55a1.4,1.4,0,0,1,1.66.49Z"/><path class="cls-3" d="M115.44,24.16c.62,26-.71,52-.93,78a1.17,1.17,0,0,1-1.55-.34c-1.5-2.73-.61-5.7-.87-8.56-.2-13.35-.09-26.67.59-40,.19-3.86.11-7.82.4-11.73,0-4.24-.09-8.47.06-12.7C113.21,27,112.68,24.73,115.44,24.16Z"/><path class="cls-4" d="M115.44,24.16c-1.93,5.9-.29,12-1,18-1.15.15-1.64-.63-2.08-1.48a209.17,209.17,0,0,1-.3-21.25,34.72,34.72,0,0,0-1-10.3c0-.89,0-1.78-.16-2.67a5.12,5.12,0,0,1,1.15-4.17,1.08,1.08,0,0,1,1.55-.12l2,1,0,.09c.81,4.28.39,8.58.25,12.88C115.75,18.75,115.59,21.46,115.44,24.16Z"/><path class="cls-5" d="M113.59,102.18h.92c0,9.57-.09,19.13,0,28.7,0,2.37-.68,4.18-2.74,5.41h-2.19l-.3-.54a19.34,19.34,0,0,1,.31-4.3,3.83,3.83,0,0,1,1.48-2c2.19-3.71.57-7.77,1-11.64,0-3.58,0-7.14,0-10.71C112.15,105.33,111.89,103.45,113.59,102.18Z"/><path class="cls-6" d="M102.63,153.36c2,0,4.1-.37,5.87,1-1.63,1.18-3.53.78-5.32.78q-46.67,0-93.32,0c-1.78,0-3.71.5-5.23-1l1-.07c1.85-2,4.31-1.42,6.56-1.42q27.09-.08,54.17,0a50.78,50.78,0,0,0,9.38-.71,32.58,32.58,0,0,1,7-.21c2.25.6,4.51,1.22,6.86.46a2.87,2.87,0,0,1,2.06.91l0,.2A39.61,39.61,0,0,0,102.63,153.36Z"/><path class="cls-7" d="M108.55,154c.71-5-.14-10.23,3-14.69-.14,4.66,1.09,9.4-.8,14A2,2,0,0,1,108.55,154Z"/><path class="cls-8" d="M60.61,1.06l6,.08c.24.71.08,1.49-.57,1.68C60.22,4.54,55.18,8.6,48.86,8.63c-5,0-9.34,2.7-14.58,3.23C38,12,38,12,38.15,14.91c-4.52,1.53-9.18.43-13.76.76-3.77.27-7.6-.59-11.31.64a6.16,6.16,0,0,0-1.13,1c-1.59,2.49-.55,5.3-1,7.93a3.63,3.63,0,0,1-.82,2c-2.32.83-4.29,1.88-5.22,4.55-.62,1.8-2.16,3-4.07.93C-.26,27.44,2,22.61,2.63,17.59c.51-2.42.77-6.61,2.53-6.5,3.21.21,3.11-3.06,5.26-3.3,4.6-1.93,9.38.37,14.17-.88C31.06,5.23,38,5.7,44.15,2.2,47.26.45,51.26,1,54.89,1.4,56.83,1.59,58.76,2.22,60.61,1.06Z"/><path class="cls-9" d="M38.56,14c-1.57-1.65-3.82-1.66-6.38-2.23C43.6,6.65,55.9,6.5,66.59,1.14l2,0c1,6.32,1,6.32-6.82,8.46-2.49,0-5,.56-7.47.13-2.69-.08-5.1.4-6.86,2.77s-4.54,2.17-7,2.62A2.17,2.17,0,0,1,38.56,14Z"/><path class="cls-10" d="M60.61,1.06c-1.28,1.48-3,1-4.64,1.12-5,.27-10.13-.42-14.32,3.65-1.42,1.38-4,1.17-6.17,1.42C27.2,8.22,18.92,9,10.58,9.17a1.56,1.56,0,0,1-.35-1.5C13.12,5.18,16.82,6,20.14,5.41c3.6-.58,7.09-.76,10.27-3.06,2.28-1.65,5.46-1,8.2-1.66,5.77.23,11.55-.48,17.3.38A9.13,9.13,0,0,1,60.61,1.06Z"/><path class="cls-11" d="M72.59,1.21A19.39,19.39,0,0,1,82.35,2a5.29,5.29,0,0,1,2.92-.26c.44.32.65,1.13.38,1.2-3.19.84-3.41,4.18-5.28,6.11a7.06,7.06,0,0,1-3.82.8c-1.77-.46-3.72.25-5.38-.84C69.67,6.08,73.44,4.06,72.59,1.21Z"/><path class="cls-12" d="M72.59,1.21c1.87,1.7.77,5.53-2,7C69,10.12,66.92,10,64.77,9.55a3.09,3.09,0,0,1-2.21-1.4c4.46-.26,4.28-4.48,6-7Z"/><path class="cls-13" d="M85.57,2.2,82.35,2c2.51-2,5.44-.95,8.12-.84,7.73.32,15.53-.89,23.2.94l-1.27.16a5.49,5.49,0,0,1-4,1.82c-6.32.19-12.64.22-19,0A4.85,4.85,0,0,1,85.57,2.2Z"/><path class="cls-8" d="M55.91,1.07,37.5,1.23a1.75,1.75,0,0,1-1.81.29A.77.77,0,0,1,35.4.8c.05-.26.11-.39.19-.39H55.2A5.59,5.59,0,0,1,55.91,1.07Z"/><path class="cls-1" d="M35.59,1.17l1.92.06c-7.56,4.07-15.3,7.34-24.2,6a3.17,3.17,0,0,0-2.74.94,4,4,0,0,1-3.79.4,1,1,0,0,1-.21-1.4C12.45,5.49,18.41,4,23.51.36l6.11,0C31.53,1.24,33.72,0,35.59,1.17Z"/><path class="cls-10" d="M35.59,1.17c-2-.17-4.12.57-6-.79l6,0C35.58.66,35.58.92,35.59,1.17Z"/><path class="cls-14" d="M.48,134.22l.09-23a1.17,1.17,0,0,1,1.55.23c1.75,3.19.61,6.66.95,10-.81,3.58,1.51,6.37,2.46,9.51A5.94,5.94,0,0,1,4,136c-1.17.86-1.87.06-2.58-.73Z"/><path class="cls-15" d="M1.46,135.24l2.06.9.58.46a3.92,3.92,0,0,1,.53,2.81c-.87,2.6-.33,5.47-1.48,7.55.09-.77.64-1.34,1.91-.8a5.18,5.18,0,0,1,1.19,6.59l-.62.54c-3.83.28-4-2.43-4.21-5.13Q1.44,141.7,1.46,135.24Z"/><path class="cls-16" d="M.47,37.2a100.18,100.18,0,0,1,0-16c2.13-3,.66-6.76,2-10,.86-2.09,1.25-4.18,4.1-4,0,.34,0,.67,0,1-2,2.66-2.45,5.85-3,9-.21,5.39-2.32,10.55-2,16A3,3,0,0,1,2,37.08,1.07,1.07,0,0,1,.47,37.2Z"/><path class="cls-17" d="M76.63,153.37c-1.48,1.07-3.18.77-4.82.78H5.58c0-.28,0-.57,0-.85L5.51,153a11.18,11.18,0,0,1,1.63-1c7.56-1.73,15.16-.6,22.75-.31,13.32.27,26.62-1,39.94-.49C72.3,151.29,74.91,150.94,76.63,153.37Z"/><path class="cls-18" d="M76.63,153.37,29.56,153c-.81-1.08-3.53-.54-2.8-2.72.54-1.62,2.34-1.5,3.9-1.25,3.61.58,7.25-.82,9.82,0-6.82,2.08-13.6-2.59-21-3.55-2.08-.28-2.24-2.15-2-3.94.78-2.34,2.64-3,4.75-2.65,10.05,1.54,20.28-.14,30.3,1.76a4.67,4.67,0,0,0,1.48-.13,16.87,16.87,0,0,1,11.9,4c2.15,1.78,4.87,2.35,7.78,2.76,3.44.49,7.25-.59,10.42,2.16,1.13,1,3.19-.1,4.77-.52,1.75-.48,3.45-1.28,5.26-.26.17.17.33.36.49.54,2.49,4-2.13,2.59-3,4l-2,.18a11.68,11.68,0,0,1-6.07,0Z"/><path class="cls-19" d="M102.59,144.18c-.09,1.41.27,2.93-1,4.07a2.93,2.93,0,0,1-1-1,18.91,18.91,0,0,1-.72-4.9,2.72,2.72,0,0,0-.5-1.2c-9.41-1.6-18.88-1.4-28.34-1.48-2.23,0-4.66.63-6.56-1.28a1.52,1.52,0,0,1,.2-1.6c2.4-1.39,5.11-1.56,7.74-2,10.26-1,20.54-.57,30.81-.56,2.32,0,4.7-.15,6.4,1.94l-.07.15c.26.63.89,1.26,0,1.9C108.54,141.68,105.22,142.53,102.59,144.18Z"/><path class="cls-20" d="M102.59,144.18c0-1.6.35-3,2.31-2.94,2.39.12,3-2.3,4.68-3.06-.35,1.24-.7,2.48-1,3.72C107.31,146.4,106.32,146.79,102.59,144.18Z"/><path class="cls-21" d="M101.59,140.18l0,1.08A7.16,7.16,0,0,1,98.71,143c-1.67.91-2.28,1.81,0,2.75a4.44,4.44,0,0,1,2.85,1.38l.09,1.13c-2.16,1.64-4.67.63-7,.89h0c-2.29-2.08-1.53-4.7-1.28-7.23C95.32,137.73,98.67,140,101.59,140.18Z"/><path class="cls-22" d="M102.63,153.36a17.67,17.67,0,0,1-11.09,0Z"/><path class="cls-23" d="M113.59,102.18l0,16.94a1.74,1.74,0,0,1-2.15.3c-2.26-2.56-1.37-5.62-1.32-8.53a35.3,35.3,0,0,0,0-6.42c-.45-2.62.14-5.34-.54-7.93-.5-1.91-1.34-3.08-3.43-1.2-3.71,3.34-8.39,3.33-13,3.41l-.2,0a1.19,1.19,0,0,0,.23,0c1.53.62,3.7,1,3.37,2.94-.37,2.26-2.68,1.81-4.4,1.93s-3.57-.25-5.2.74c-1.13.83-1.82,2.3-3.46,2.38-3.83-.57-7.79.71-11.54-.87-.73-.66-.88-1.55-.14-2.11,3.76-2.85,6.8-6.81,11.66-8,3.9-.93,5.73-3.51,6.38-7.23,2.17-1.44,4.78-.52,7.06-1.35a6.06,6.06,0,0,1,1.41-.06c2,.27,4,1.07,5.89-.36a7.54,7.54,0,0,0,1.16-.88,7.86,7.86,0,0,1,2.72-2c3.36-1.47,4.79-.57,5,3,.14,2.08-.49,4.22.43,6.24C113.55,96.15,113.57,99.17,113.59,102.18Z"/><path class="cls-24" d="M113.52,93.14c-1.18-1.18-.81-2.71-1-4.14s.76-3.62-1.16-4.34-3.34.67-4.55,2.07c-.42.48-.87,1-1.3,1.43-1.55-1.21-2.63-2.72-2-4.73.87-2.77.19-5.66.88-8.42,1-3.07.53-6.26.68-9.39.06-1.33,0-2.69.9-3.8.44-.52,1-.9,1.64-.29a1.74,1.74,0,0,1,.51,1.13c-.1-1.8-1.77-4-.84-6.46.37-1,.83-2.11,1.92-2a1.89,1.89,0,0,1,1.35,2.36c-.91,3.5.12,6.89.29,10.33.52,2-.18,4.2.35,5.87-.44-2.19.17-4.87-.61-7.41.37-2.72-1.32-5.47.1-8.18.75-3.79.13-7.63.41-11.44.14-1.84-.49-4.2,2.43-4.63l.9,1Q114,67.62,113.52,93.14Z"/><path class="cls-25" d="M76.59,8.2l4,0c1.43-.79,2.77-1.86,4.49-1.88,9.15-.07,18.31-.39,27.47-.11,0,.67,0,1.34,0,2a4.18,4.18,0,0,1-3,2.46c-6,1.13-12.15-.83-18.08,1.07a2.49,2.49,0,0,1-1.38.15c.42.41.87.11,1.29,0,.62-.12,1.22-.33,1.86-.41,3.78-.56,7.83-1.89,9.55,3.37-1.1,2-3.05,1.69-4.85,1.82-18.37.05-36.74,0-55.1,0-10.14-.19-20.29.37-30.43-.28a4.47,4.47,0,0,1-1.61-1c1.18-2.12,3.22-1.3,4.91-1.33C23.33,14,30.94,14,38.56,14l2,.09a59.43,59.43,0,0,1,20.15-1.38h2.56a37.28,37.28,0,0,1,14.44,1c1.44.12.8-1.08.89-.42,0,.16-.07.24-.28.22-1.88-.18-4.3.44-4.87-2.13C73,9.18,75.18,8.92,76.59,8.2Z"/><path class="cls-26" d="M112.54,6.18a9.29,9.29,0,0,1-6.47,2c-8.5-.11-17-.05-25.49-.05-1.23-4.42,1.88-5.19,5-6l26.83.08C112.45,3.58,112.49,4.88,112.54,6.18Z"/><path class="cls-27" d="M109.58,9.18l3-1c2.06,10.94.58,22,1,33-2,3.16-.56,6.66-1,10-.3,2.35.76,4.89-1,7-3.09-4.4-2-9.56-2.51-14.39-1.14-10.91-.69-21.84-.23-32.76A4.44,4.44,0,0,1,109.58,9.18Z"/><path class="cls-28" d="M109.62,136.13l-38,.13c-13.83,2.09-27.74,1.53-41.62,1.13-1.8-.84-2.43-1.89-.28-3a10.71,10.71,0,0,1,4-.79c-5.46,1.63-11.26-1.09-17.22-.73-4.09.24-7.87.38-10.71,3.75a2.08,2.08,0,0,1-2.11-.38l-.12-.07,1.11-4.94a3,3,0,0,1,2.48-2.29,85.43,85.43,0,0,1,8.91-.22c5.82.39,11.6-.65,17.41-.51,4.17,1,8.35.37,12.53,0a31.9,31.9,0,0,0,10.32.12,9.76,9.76,0,0,1,6.25.93c3.73,1.74,7.57,2.92,11.77,2.21,1.8-.92,3.57-1.93,5.7-1.78,3.15.1,6.12-1.43,9.3-1a82,82,0,0,1,13.83.63c3.38-1.33,5.8-.25,7.43,2.87C111,133.69,111,135.09,109.62,136.13Z"/><path class="cls-3" d="M111.58,119.17l2,0c0,3.49,0,7,0,10.48,0,2.54-1.1,1.18-2,.58a4.45,4.45,0,0,1-1.54-3.23C109.48,124.14,109.2,121.39,111.58,119.17Z"/><path class="cls-29" d="M111.57,127.18c0,1,0,2,0,3-.34.67-.68,1.35-1,2a11.43,11.43,0,0,0-8-2,1.11,1.11,0,0,1,.11-1.43C105.49,127.35,108.29,125.89,111.57,127.18Z"/><path class="cls-22" d="M83.54,153.33h6.07A5.88,5.88,0,0,1,83.54,153.33Z"/><path class="cls-30" d="M10.8,15.41h.79c5.11,1.67,3.92,5.7,3.53,9.45-.11,6.76,0,13.51,0,20.26,0,3.35,0,6.69,0,10-.31,5.44.81,10.83.5,16.27A22.51,22.51,0,0,0,15.41,80a4,4,0,0,1-.38,1.7,3.73,3.73,0,0,1-.57.78c-1.13,1-1.69,3.3-3.65,2.6s-1.57-2.94-1.66-4.68a8.58,8.58,0,0,1,.33-2.89,194.35,194.35,0,0,0-.15-36.1,81.21,81.21,0,0,1-.24-9.1c-.43-2.48,1.05-4.69,1-7.12.22-3-.45-6,.41-9A1.55,1.55,0,0,0,10.8,15.41Z"/><path class="cls-31" d="M1.57,37.16l0-4c2.14-.32,2.55-2.25,2.6-3.67.16-4.87,2.4-4.23,5.34-2.34,1,1.59.32,3.36.54,5-.11,1.68.25,3.38-.28,5-4,.37-4.6,3.25-5.21,6.5C2,57.83,3.48,72.05,3.07,86.2c-.18,2.27.47,4.64-.93,6.73a1.18,1.18,0,0,1-1.57.25q-.06-22-.11-43.93C2.16,45.34.1,41.09,1.57,37.16Z"/><path class="cls-32" d="M3.58,17.18c.49-3.17-1.49-7.17,3-9h4c0,.33,0,.67,0,1C6.65,10.45,4.63,13.39,3.58,17.18Z"/><path class="cls-33" d="M10.49,16.2l0,9c-.26.52-.52.55-.8,0C9.89,22.21,8.73,19.06,10.49,16.2Z"/><path class="cls-34" d="M9.65,25.21l.8,0,0,7c-.22.55-.47.57-.75.05,0-1.68-.09-3.35-.13-5C9.58,26.52,9.61,25.87,9.65,25.21Z"/><path class="cls-35" d="M61.55,14.13l-21-.06c2.58-1.38,6.41-.68,7.08-5.3.19-1.29,3.87-.38,5.94-.56,1.6,1.7,3.92,2.14,5.83,3.29C60.43,12.11,62,12.28,61.55,14.13Z"/><path class="cls-36" d="M61.55,14.13a37.46,37.46,0,0,1-5.22-2.28c-1.28-.8-3.71-1-2.75-3.64l9-.06,2,0c-.86,3.17-2.68,1.81-4.16,1.34.56.88,1.89.54,3,.67s2.35.42,2.48,1.9c.14,1.72-1.6,1.33-2.38,2Z"/><path class="cls-37" d="M63.58,14.14c.42-1,3.19-2.05,0-2.88-1.36-.36-2.94-.06-3.88-1.58,1.49-1.09,3.66.16,4.94-1.48l6,0,6,0c-3.31,3.81-3.24,3.92,3.51,5.94Z"/><path class="cls-38" d="M.57,93.18h1a23.33,23.33,0,0,1,0,18l-1,0Z"/><path class="cls-34" d="M1.57,111.16q0-9,0-18,0-3.49,0-7C2.67,79.6,2,73,2,66.37c0-4.82.33-9.61.64-14.4.14-2.24.12-5.1,3.38-5.16s3.93,2.44,4,5.16a12.31,12.31,0,0,0,.39,3c.21,1.81.1,3.63.13,5.45,0,4.48.07,9-.06,13.46-1.29,3.88-.52,8-1.36,11.93-2.5,1.3-2.78-.85-3.06-2.24A30.6,30.6,0,0,1,5.89,71c-1.26,4.38-.12,8.33-.48,12.19-.84,9,.15,18.08-.67,27.09a10.44,10.44,0,0,1,.25,3,10.84,10.84,0,0,1-.11,1.51,6.6,6.6,0,0,1-.42,1.44c-1.08,1.91,1,5.34-2.85,5.94C1.6,118.52,1.58,114.84,1.57,111.16Z"/><path class="cls-39" d="M1.61,122.2c2-2-.1-5.08,2-7a5.42,5.42,0,0,0,4,1.73,5.59,5.59,0,0,1-4-1.73v-1C6,112,5.46,107.46,9.77,107a3.31,3.31,0,0,1,1.2,1.61c1.06,2.49,2.15,2.48,3.27,0,1.64-3,3.78-1.61,5.88-.69,1.23,2.22,4.26,1.22,5.67,3.15a2,2,0,0,1-1.47,2.29c-2.75,1.14-5.35,2-3.42,6.06A1.9,1.9,0,0,1,18.42,122c-2.7-1.35-4.57-.23-6.73,1-1.87,1-4.14-1.32-6.2.39,6.06,1.9,11.93,3.75,18.22,3.6,1,0,2.39.52,1.89,2.23-3.21,1.09-6.52.22-9.78.5-3.07.27-6.21-.56-9.24.5l-1.95,1C2.37,128.62,1.08,125.71,1.61,122.2Z"/><path class="cls-40" d="M3.64,136.21l1.94,0c.16.18.33.35.5.53a63.4,63.4,0,0,1,2.21,14.16A2.26,2.26,0,0,1,6.59,153l-1.08,0c.4-2.36-.39-4.55-1-6.77-1.81-2.13-1.9-4.5-1-7Z"/><path class="cls-41" d="M3.57,139.19a20.88,20.88,0,0,0,1,7c-1.47.68-.19,2.45-1.58,3.66C2.64,146,1.71,142.56,3.57,139.19Z"/><path class="cls-42" d="M6.59,153l1-1.85c.1-3.08-1-6.1-.52-9.19.32-2,0-4.37,2.51-5.41a3.67,3.67,0,0,1,1.4.13c2.77,1.5,6,2.32,7.61,5.48.08.79.24,2.35.69,2.08,3.91-2.36,6.84.42,9.5,2.13,4.48,2.87,9.41-.33,13.81,1.76.94.44,2.31-.3,3.63,1.5H27.49c1,1.58,1.52,2.47,2.07,3.36Z"/><path class="cls-43" d="M18.58,142.17c-2.79-1.46-6.1-2.07-8-5,1.11-1.38,2.6-1.39,4.16-1.2,6.05,1.19,12.21,1,18.31,1.12,9.93.26,19.88.12,29.81.26,4.57,3,9.71,1.48,14.6,1.63a26.08,26.08,0,0,1,5.3.4c3.09.75,4.11,2.46,2.59,5.41-5.81,3.85-11.26.15-16.81-.92-4.63-.89-9-3.33-14-1.71-7.4.06-14.69-1.41-22.24-.76-2.59.23-6.67.81-9.88-1C21.09,139.7,19.09,139.84,18.58,142.17Z"/><path class="cls-44" d="M54.58,142.18A17.32,17.32,0,0,1,67,141.67c2.81.87,5.38,2,8.44,1.59,1-.16,2.71-.56,2.41,1.83-.11.84.89,1.09,1.29.26,1.79-3.8,3.62-1,5.45-.18,1.68-1.65,4-2.18,5.49-4.52s3.36-.33,4.44,1.54l.09,7c-3.78,0-7.56,4-10.8,1.76-2.89-2-5.61-1.77-8.34-1.83-5.4-.13-9.9-1.7-13.73-5.57C59.81,141.56,57,142.27,54.58,142.18Z"/><path class="cls-44" d="M79.25,151.12A13.82,13.82,0,0,1,77,151c-.42-.09-.37-.56.09-.62a18.58,18.58,0,0,1,2.24,0Z"/><path class="cls-45" d="M94.52,142.19l-5.47-2.42c3.49,3.46,3.1,5,0,5.3-1.48.15-3,.07-4.49.1,1-5-2.72-5.87-5.8-5.32-4.33.77-8.54-.88-12.78.24-1.27.33-2.19-.53-2.44-1.89a.63.63,0,0,1,1,0c11.94.08,23.9-.24,35.81,1,.58.06,1.46-.14,1.19,1C99.2,140.75,96.06,138.65,94.52,142.19Z"/><path class="cls-42" d="M14.62,137.21l-4,0,0,0a1.29,1.29,0,0,1,.45-1.69c5.93-1.74,11.85-2.73,17.6.66l43,.12c-2.19,1.55-4.7.59-7,.92-6.38,1.06-12.81.6-19.22.48C35.12,137.46,24.86,138.26,14.62,137.21Z"/><path class="cls-46" d="M14.62,137.21l50,0c0,.33,0,.66,0,1l-1,0c-14.41,0-28.81,0-43.21,0C18.42,138.15,16.33,138.76,14.62,137.21Z"/><path class="cls-47" d="M101.54,147.12l-4,.1c-1.28-.47,1.72-1.15-.23-2.07s-.93-2.66.25-3.94l4,0Z"/><path class="cls-48" d="M97.59,141.21c0,1.21-1.25,2.77.46,3.55,3.7,1.69-1.06,1.52-.48,2.46C94.79,146.13,94.8,143.85,97.59,141.21Z"/><path class="cls-49" d="M111.57,127.18c-2.69,2.07-5.8,2.22-9,2-2.22,1-4.56.24-6.82.49a1.94,1.94,0,0,1-2.22-2.06c.58-4.07-.45-7.94-1-11.87,1.54-1.29,3.32-1,5.08-.71a6.19,6.19,0,0,0,5-1.15c1.55-1,1.66-2.66,1.87-4.32.62-5.06,1.56-5.73,7.08-5.38,1,5-.43,10,0,15C111.58,121.84,111.57,124.51,111.57,127.18Z"/><path class="cls-50" d="M98.58,88.25h-1c-3.51,1-7.35-.35-10.73,1.54a17.66,17.66,0,0,1-6.4.25c-5.63-.86-11.31-.06-16.95-.46-2.2-.61-4.4-.93-6.59.06-3.77,1.24-7.64-.18-11.43.46a40.45,40.45,0,0,1-9.2-.4c-3.34-.28-6.61.73-9.95.51-2.17-.14-4.35-.11-6-1.81-1.25-3.47.75-4.48,3.64-4.62,4.1-.21,8.21-.06,12.31-.09,4.71.08,9.43-.17,14.15.17,10.47,1.47,20.95,1.09,31.43.23,2.39-.7,5,0,7.32-1.07,2.66-.76,5.58.34,8.16-1.09a8.2,8.2,0,0,1,3.41-1.58,3.11,3.11,0,0,1,2.16.62c.55,2.53,2,5,.27,7.65C101.62,88.57,100.05,89.05,98.58,88.25Z"/><path class="cls-51" d="M80.58,88.21l6,0c.79,1,2.2,0,3,1C91,92.7,89.53,97,86.34,97c-4.57.06-7.18,2.72-10.12,5.4-1.29,1.19-3.07,1.85-4.64,2.75-2.41,2.36-5.27,1.47-8,1.08-.66-.46-1.47-.85-1-1.91.15-.32.73-.58.69-.61-2.79-2.25-2.75-4.17.18-6a11.42,11.42,0,0,1,2.8-1c4.94-1.49,6.15-2.84,6.5-7.06,0-.43.65-.71,1.12-.91C76.08,88.35,78.41,89.26,80.58,88.21Z"/><path class="cls-52" d="M111.57,104.19c-.79.54-1.72,1.66-2.35,1.51-3.65-.84-3.11,1.41-3.24,3.68-.12,2.11.63,4.81-2.36,5.85-.14-.18-.28-.35-.43-.52-.28-3,.58-6.36-2.71-8.39-1.77-2.48-4.42-1.33-6.72-1.67-2.75-.4-5.88,1.15-8.19-1.55,3.05-2,6.54-.22,9.81-1.18-.63-2.5-3.44-2.22-4.8-3.74a.65.65,0,0,1,1,0c4,.11,7.37-3,11.53-2.16a1.53,1.53,0,0,0,1.74-1.43c.09-1.6-.6-3.69,2.31-3,2.25.51,4.13,1.59,4.28,4.17C111.6,98.55,111.53,101.37,111.57,104.19Z"/><path class="cls-53" d="M85.57,103.1c4.26,0,8.53.08,12.8.09,2.16,0,4.08.21,3.51,3.19a1.81,1.81,0,0,1-.17,2,1.85,1.85,0,0,1-1.33.07,17.36,17.36,0,0,1-2-1.69c-2.49-1.82-5.35-.8-8-1a6.59,6.59,0,0,0-1.76.27c-.91.61-1.07,1.77-1.85,2.49a4.1,4.1,0,0,1-3.69.78c-6.6-1.14-13.24-.28-19.85-.55-.9,0-1.8,0-2.69,0-1.55-.09-3.14-.07-4.12-1.61a1.61,1.61,0,0,1,.76-1.61c3.44-1.65,6.74.56,10.19.38a88.78,88.78,0,0,1,16.3.2Z"/><path class="cls-54" d="M83.58,106l-27,.27a2.38,2.38,0,0,1-3.06.09c-.5-1.31.14-2.14,1.16-2.82a7.93,7.93,0,0,1,7.9,1.61h9C75.56,105.69,79.69,104.16,83.58,106Z"/><path class="cls-55" d="M103.45,88.1c-.81-2.23-1.52-4.49-.88-6.91a11.5,11.5,0,0,1,1-5A2.32,2.32,0,0,1,105,75l.62.23c.65,4.32-1.52,8.63-.06,13l-1,0C104.17,88.69,103.79,88.66,103.45,88.1Z"/><path class="cls-56" d="M89.58,89.17c-1.1,0-2.22,0-3-1l11,.06C95.08,90,92.24,88.83,89.58,89.17Z"/><path class="cls-56" d="M103.45,88.1l1.15.1a4.87,4.87,0,0,1-6,0Z"/><path class="cls-51" d="M91.58,98.18h-1c-.51-.44-.88-1-.26-1.52.26-.23.82-.12,1.24-.17Z"/><path class="cls-55" d="M109.58,9.18c2,3.76.91,7.88.83,11.71-.19,8.57.3,17,.93,25.57.28,3.82-.36,7.8.24,11.71-2,2.33.78,4.68,0,7-.65.49-.26,1.51-1,2-2.3-3.64-.09-7.83-1.79-12.87V64.7c-2,.16-.42-2.22-2-2.15-.94,4.17.89,8.6-1.2,12.65l-.08-.06a5.58,5.58,0,0,1-2.26-5.24c1.71-11.36.44-22.77.76-34.15.08-2.65.77-5.29.44-7.89-.22-1.72-.85.19-1.36.23a1.62,1.62,0,0,1-1.46.35,3.43,3.43,0,0,1-1.48-2.77,21.48,21.48,0,0,1-.15-2.4c.1-3.06,1.73-5.15,4.21-6.69,1.37-2.1-1.64-1.24-1.65-2.4-3.19-1.72-6.47-2.67-10-1-.66-.67-1.86-.8-2-2,.6-3,2.82-1.08,4.31-1.42C99.76,8.64,104.69,9.42,109.58,9.18Z"/><path class="cls-27" d="M110.59,67.16c.32-.66.65-1.31,1-2V74C110.14,71,110.79,69.06,110.59,67.16Z"/><path class="cls-57" d="M42.54,15.27q25.41.09,50.81.16c1.65,0,3.31-.09,5-.15a.74.74,0,0,1,.06,1.28c-2.08,1.28-4.21-.46-6.15.14,1,.31,2.92-.79,3.26,1,.22,1.22-1.35,1.73-2.54,1.84-3,.26-6,.09-9,.13-4.81-.09-9.61.21-14.4-.19-7.21-1.66-14.53-.43-21.79-.81-1.65-.08-3.36.21-4.9-.52S40.85,16.45,42.54,15.27Z"/><path class="cls-58" d="M42.54,15.27c-.58,2.94,1.73,1.82,2.85,1.84,6.31.12,12.63.06,18.94.12,1.8,0,3.69-.41,5.3.84-1.39,1.94-3.51,1.54-5.43,1.58-4.94.08-9.89,0-14.83,0-1.75,0-3.51-.06-5.26.12a27.6,27.6,0,0,1-4.06-.27,8,8,0,0,0-6.56-.07,13.68,13.68,0,0,1-2.31.2c-1.81,0-3.62,0-5.43,0s-3.46-.08-5.17.12c-2.91,0-4.07,3.4-6.91,3.52,2.19-3.39-2.05-5.1-2.08-7.9C21.9,14.52,32.22,15.05,42.54,15.27Z"/><path class="cls-27" d="M98.83,16c-.16-.26-.33-.51-.51-.76,1.46-.22,3.09.23,4.26-1.1l3-.35c1.08-.13,2.18.12,2.47,1.16.43,1.55-.92,1.86-2,2.2a17.65,17.65,0,0,0-3.77.36C100.83,17.56,99.56,17.41,98.83,16Z"/><path class="cls-27" d="M90.58,11.18l2,2c-.79,0-1.58,0-2.36-.08s-1.81-.34-1.66-1.22S89.84,11.28,90.58,11.18Z"/><path class="cls-59" d="M54.58,104.18l-.92,2.17c1.18,1.46,2.49,2.69,4.6,2.35,1.5.07,3.05-.09,4.28,1.07a1.6,1.6,0,0,1,.29,1.43c-1.66,2.27-4.84.77-6.64,2.68A3.12,3.12,0,0,0,54.55,118c.32.94.73,1.84,1.05,2.78.85,2.54-.13,5-.8,7.26-.93,3.11-3.9,1.05-5.9,1.58-.76.21-1.65-.14-2.32.53h-13c.31-2.56,1.79-2.19,3.45-1.38-1.41-1.3-1.62-2.72-.38-4.25.62-.77,1.58-1.24,2.14-2,1.74-2.44,4.5-4.67,1-8-1.89-1.77.35-2.8,1.3-3.94-2-1.54-.85,1.58-2,1.26a4.32,4.32,0,0,1-4.25.17,3.41,3.41,0,0,1-1.17-1,3.38,3.38,0,0,1-.48-2.92c2.4-1.77,4.1-4.51,7.79-4.39,2.11.06,1.71-2.46,2.13-3.89.82-2.79.76-6,4.23-7.24,4,2.07,7.17.55,10.12-2.16,2.19-.4,4.23.26,3.13,2.69C58.89,96.93,58.5,101.56,54.58,104.18Z"/><path class="cls-60" d="M43.58,111.19,40.19,113c.59,1.76,2.35,1,3.35,1.74.65.48,1.87,1.38,1.29,1.68-3.22,1.67-1.68,6-4.67,7.8-1.16.7-4,.64-3.06,3,.72,1.89,3,.2,5,1-2.92,2.13-6.3-.22-8.55,2l-18,0c-.61-.33-.6-.65,0-1,3.33-.44,6.84,1,10-1-1.22-1.46,0-2.43.76-3.43a5.44,5.44,0,0,0,.89-5.13c-1.45-5.22.21-7.65,6.09-9.06a2.58,2.58,0,0,1,1.25.61h5C40.93,109.06,42.26,108.92,43.58,111.19Z"/><path class="cls-61" d="M46.58,130.18a8.81,8.81,0,0,1,1.73-.88c1.85-.51,4.08,1.09,4.82-3,.51-2.81,1.84-4.61-.42-7.28-1.85-2.2.11-5.59,3-5.88a4,4,0,0,1,1.4-.79c2.9,0,5.79-.66,8.69-.09,2.49,1.67-.55,3.21-.13,4.74.85,3.11-.15,6.65,2.31,9.39,1.13,1.26,2,2.72.49,4.36a14.82,14.82,0,0,1-5.89.46C57.39,128.58,51.88,131,46.58,130.18Z"/><path class="cls-62" d="M94.58,129.18h8v1c0,.64,1,1.92.55,1.62-4.34-2.7-9-1.21-13.55-1.62-3.39-1.61-6.74.63-10.2.1-2.89-.44-3.88-1.45-2.92-4.2,1.11-3.16.86-7,3.76-8.21-2.56-.13-4-1.65-3.66-5.06,1.85-1.74,4.38-.68,6.44-1.56a3.53,3.53,0,0,1,2.1.27c.29,1.66,1.76,1.54,2.92,1.88a3.69,3.69,0,0,1,2,1.84c.09,1.6-1,3,.18,4.88,1.68,2.78,1.28,5.76-2.27,7.08C90.23,127,92.76,126.89,94.58,129.18Z"/><path class="cls-63" d="M28.62,136.14l-18,.05c-1.67.64-3.33,1.58-5,0v0c.52-4.5,3.35-5.51,7.34-5,5.34.67,10.67-.61,16.17,1.41,2.93,1.07,7.14-1.81,11.05.57C36.92,137.09,31.93,133.59,28.62,136.14Z"/><path class="cls-64" d="M68.58,130.18c-.06-.32,0-.85-.2-.93-5.22-2.49-2.76-8.12-4.85-11.93-1.43-2.61,1.93-2.79,3-4.13,1.75-2,3.91-1.53,6.08-1,.9,2.37.9,2.37-2.45,2.17a4.57,4.57,0,0,0,3.38.16c2-.36,3.81.27,4.29,2.28.53,2.21-1.59,2-2.93,2.34-2.07.53-1.77,2.2-1.53,3.59.51,2.88.92,6,4.42,7,.87.25,2.13-.11,1.74,1.52-2.12-.48-3.15,1.78-5,2C73.1,131.13,69.73,132.89,68.58,130.18Z"/><path class="cls-65" d="M79.58,131.18c-3.87-1.57-7.86-2.37-7.92-8.31-.06-5.35,0-6.29,5.54-5.57-2.24-3.15-5.59-1.56-8.58-2.47,1.63-1.21,3.81,0,5-1.64a2,2,0,0,1,3,0c2.07,1.45,2.22,5.83,6.92,3.8-6.73,1.89-2.65,8.59-6.25,11.41,3.86,2.75,8.53-.86,12.33,1.78Z"/><path class="cls-65" d="M68.58,130.18c2,1,5.59-1.18,6,3-4.23.73-8.07-.89-12-2C64.45,130.05,66.52,130.16,68.58,130.18Z"/><path class="cls-66" d="M15.58,129.19c0,.32,0,.65,0,1l-9,0C9.41,128.23,12.59,129.59,15.58,129.19Z"/><path class="cls-67" d="M13.63,72.2q0-8.51,0-17c.69-.58.28-2.14,1.6-2.06.85.05,1.32.88,1.53,1.68.55,2.14,0,4.56,1.68,6.4A6.41,6.41,0,0,1,19,64c.65,7.29,3.15,10.29,10.33,12.45,1.25.38,2.4,1,3.65,1.48,2.81,1.34,5.89,1.08,8.75.89,6.78-.45,13.4,1.21,20.14,1,2.35-.08,4.64.31,5.79,2.84-.56,1.8-2.11,2.09-3.59,2-15-1.08-30.07.37-44.89-2.88-2.32-.51-4-1.46-4.73-3.78C13.58,76.11,14.66,74,13.63,72.2Z"/><path class="cls-68" d="M14.58,77.18c3.73,4.36,9.34,4.62,14.05,4.69,11.93.18,23.8,1.44,35.73,1.31a4.15,4.15,0,0,0,3.22-1l.54-.56c1.78-.91,3.58-.46,5.38-.14,4.17.86,8.2-.39,12.28-.84,1.77-.4,3.59-.09,5.37-.33,3.28-.45,5.42-1.33,4.63-5.62a8.93,8.93,0,0,1,3.14-8.77c2.27.65,2.14,2.86,2.94,4.47.36,2.26,0,4.55.4,6.8a5.38,5.38,0,0,1-1.49,4c-.13,1.45-1.82,1-2.38,2-4.43,1-9.09.06-13.49,1.48-15.83,1.38-31.64,0-47.46,0-1.51,0-3,0-4.53-.05-3.45-.85-7-.29-10.44-.44-3-.16-6.87,2.2-8.12-2.87l.19-1.08A2.6,2.6,0,0,1,14.58,77.18Z"/><path class="cls-69" d="M13.67,23.31c1.61-2.12,2.49-5.09,5.92-5.12,1.49,1.43,4.08-.74,5.29,1.61-.51,3.16-4.39,2.82-5.53,5.33-3.26,2.83-2,6.71-2.37,10.21a6.77,6.77,0,0,1-.3,1.54c-.65,1.55-.51,3.21-.68,4.82s.06,3.47-2.4,3.48Q13.63,34.25,13.67,23.31Z"/><path class="cls-70" d="M13.6,45.18c2.31-2.64-.35-6.37,2-9a2.33,2.33,0,0,1,1.28,2c-.53,5.89,1.58,11.38,2.46,17.05-.29,1.37.76,2.43.88,3.69.18,1.89-.23,3.26-2.62,2.25-3.91-.09-1.29-3-1.95-4.57-.44-1,.58-3.63-2-1.43C13.6,51.85,13.6,48.51,13.6,45.18Z"/><path class="cls-71" d="M14.35,81.32c2.06,3,5.2,1.72,8,2,.57.32.62.7.16,1.16-1.53.12-2.86,1-4.4,1.13-3.41-1.09-5.06,3-8.18,2.78A2.06,2.06,0,0,1,9,86.26c.45-4-.53-8.09.55-12.08l.14-13.85c.64-.43,1.08-.28,1.32.46,0,5.76.42,11.52-.26,17.27V84C12.6,83.86,12.4,81.09,14.35,81.32Z"/><path class="cls-72" d="M10.75,78.06q-.16-9-.35-18c-.72-4.59-.74-9.25-1.2-13.88-.18-1.79-.28-3.72,1.56-4.95,1.68,4,.84,8.17.73,12.22C11.29,61.64,12.61,69.91,10.75,78.06Z"/><path class="cls-73" d="M10.76,41.21,10.4,60l-.71.28c-.09-1.76-.18-3.53-.26-5.29C8.87,51.68,8.9,48.29,7.82,45a7.53,7.53,0,0,1,1.69-7.8c.05-1.65.1-3.3.16-4.95l.75-.05C10.53,35.18,10.65,38.19,10.76,41.21Z"/><path class="cls-74" d="M14.58,77.18c0,1,0,2,0,3.06-1.63-2.53-.78-5.34-.91-8C15.07,73.65,14.42,75.49,14.58,77.18Z"/><path class="cls-33" d="M9.51,37.16q0,8.93-.08,17.87c-.94-.92-.85-2.12-.85-3.27,0-1.93-.12-4-2.68-3.86-2.18.11-2.12,2-2.35,3.73-1.29,9.75-.92,19.54-1,29.32,0,1.78.48,3.69-.95,5.23C2,68.86,0,51.37,4.84,34.09,7,34.33,7.15,37.55,9.51,37.16Z"/><path class="cls-39" d="M9.64,87.17l.82.76c2.59-.73,4.46-3.14,7.35-3.19,1.81.38,2.37,1.61,2.23,3.3-.69,4.32-2.24,8.45-1.65,13,.47,3.62-3.39,3.32-5.39,4.7-3.32-.39-5.61.71-6.52,4.19-.37,1.39-1.25,2.45-2.9,1.23-2.15-3.21.59-6.43,0-9.65-1.65-8.87.81-17.74,0-26.6-.23-2.51.43-4.37,2.73-5.53,1.93,5.43-.12,11.4,2.28,16.77C9.17,86.24,9.24,86.89,9.64,87.17Z"/><path class="cls-66" d="M3.58,111.18c3.37-1.68,3.17-5.61,5.24-8.29,1.08,1,1.8,2.75,3.75,2.28l.21.64c-.63,1.46-1.59,2.16-3.19,1.37-2.64,1.79-1.69,6.64-6,7C3.59,113.18,3.58,112.18,3.58,111.18Z"/><path class="cls-73" d="M9.64,87.17l-1.08-1c.51-4-1-8.13,1-12Z"/><path class="cls-66" d="M12.57,105.17c1.1-1.11,2.92-7.28,3.78-9.69s.4-5.71,3.28-7.32c.25-.54.57-.56,1-.13l16,.19c1.31.73,1.59,1.73.35,2.67-4.08,3.07-4.08,7.58-4.26,12-.1,2.34.16,4.7-2.75,5.6-2.19,0-4.24,1-6.44.89-1.41-.13-2.61-.93-4-1.18-.88,2-3.57-2.17-4,1.19a1.26,1.26,0,0,1-1.22-.09c-1.4-1-.75-2.86-1.66-4.08Z"/><path class="cls-66" d="M33.57,111.21c-2.71.37-3.48,3.38-5.8,4.31a1.35,1.35,0,0,0-.37,1.17c4.62,4.68,1.62,8.11-1.82,11.49-3.64,0-7.29,0-10.93,0-1.47,0-2.93.13-4.12-1.2s-2.44-4.55-4-.12c-.32.92-1,.15-1.52-.27-1.5-1.26-1.9-2.78-.74-4.36.57-.79,1-2.79,2.37-1.78,5.05,3.72,6.77-.43,8.75-3.82,1.89,1.21.36,5.62,4.36,4-3.42-4.74-2.62-6.7,3.17-8.2a15.7,15.7,0,0,0,2.63-1.24C28.24,109.11,30.91,109.1,33.57,111.21Z"/><path class="cls-75" d="M33.57,111.21h-8c-2.25-.55-5.81,1.53-6.07-3a1.86,1.86,0,0,1,3.13-.07c.09.19.18.38.28.57,3,1,6.09-.63,9.11.19a12.27,12.27,0,0,1,2.53,1.28c0,.34,0,.68,0,1Z"/><path class="cls-76" d="M14.63,109.12l.84.26c-.16,1.62-.83,2.76-2.66,2.76a2.8,2.8,0,0,1-3.15-2.86A3.38,3.38,0,0,1,14.63,109.12Z"/><path class="cls-77" d="M14.63,109.12l-5,.16c0-.7,0-1.4-.07-2.1l3-2C15,105.59,14.49,107.53,14.63,109.12Z"/><path class="cls-66" d="M3.58,115.18l5.61,1.29c-2.12.68-4.49,2.56-5.61-1.29Z"/><path class="cls-78" d="M5.59,136.2h5c0,.33,0,.65,0,1-1.93,3-3.27,6.17-2.5,9.75a5.73,5.73,0,0,1-.49,4.24C6.39,146.24,4.86,141.37,5.59,136.2Z"/><path class="cls-29" d="M94.58,129.18l-9.73-1.25c6.39-4.92,6.47-7,.46-10.78.71-2.27,3.76.82,4.28-1.88a1.47,1.47,0,0,1,1.09-.53,2.22,2.22,0,0,1,1.91,1.46C98.75,119.68,94.32,124.79,94.58,129.18Z"/><path class="cls-62" d="M92.59,116.2l-2-.92a12.9,12.9,0,0,1,13-.11l.06.06C100.18,118.28,96.25,115.68,92.59,116.2Z"/><path class="cls-79" d="M29.56,107.2c2.15-.42,1.73-1.75,1.46-3.38-.7-4.14,1.1-7.91,1.89-11.84.56-2.78,5-.33,3.69-3.76l9,0c2.65.85,4,2.2,2,4.92-3.46,3.15-2.08,8-4.1,11.67-.66,1.18-1,3.25-2.54.59-.8-1.37-2.14-1.41-2.62,0-.86,2.48-3,2.1-4.76,2.77a2.74,2.74,0,0,1-1.93.91,3,3,0,0,1-2.07-.59A1.08,1.08,0,0,1,29.56,107.2Z"/><path class="cls-56" d="M47.58,93.18a5,5,0,0,0-2-4.92l12-.19a6.92,6.92,0,0,1,4.91,0l18,.13c-2.14,1.74-4.66.66-7,1-3.46,2.56-7.4,2.17-11.29,1.69-1.64-.2-3.19-.62-4.71.31C53.59,97,50.91,97.57,47.58,93.18Z"/><path class="cls-80" d="M36.36,84.3,85.71,84c1.42-.27,2.87-.73,4.17.38l-7.3.84a211,211,0,0,1-32,0A77.24,77.24,0,0,0,37.15,85,.78.78,0,0,1,36.36,84.3Z"/><path class="cls-81" d="M50.58,85.2l32,0c-1.83,1.64-4.09,1-6.13.95C67.83,85.69,59.13,87.35,50.58,85.2Z"/><path class="cls-82" d="M100.77,81.2l-.17-4c1-1.57.14-3.38.63-5a2.07,2.07,0,0,1,1.66-1.34c2.51,1.14,1.14,3.52,1.66,5.29,0,2,.23,4-2,5Z"/><path class="cls-81" d="M36.36,84.3l.78.74c-4.3,0-8.61.14-12.92.14-2,0-3.7.27-3.63,2.85a7.9,7.9,0,0,1-1,.13,3.34,3.34,0,0,0-2-3c-.61-.36-.58-.65.1-.85l4.93-.29a23.25,23.25,0,0,1,9.93.11Z"/><path class="cls-83" d="M89.88,84.34,85.71,84c4.14-1.63,8.46-.4,12.68-.78C95.76,85.06,92.75,84.18,89.88,84.34Z"/><path class="cls-81" d="M62.54,88.08H57.63A3.72,3.72,0,0,1,62.54,88.08Z"/><path class="cls-84" d="M57.58,91.18c4.94-3.84,10.68-1.24,16-2-.36,1.1-.31,1.9,1.17,2s3.32-.45,6.15,2.13c-7.71-2.17-9.58,6.44-16,5.41-1.86-.3-2.65,1.39-2.77,2.86-.21,2.48,2.34,1,3.3,2l-2.84,1.59a21.18,21.18,0,0,1-8-1c1.37-3.54,1.89-7.42,4.35-10.52C60.35,91.87,59.77,91.06,57.58,91.18Z"/><path class="cls-85" d="M103.56,115.17l-13,.11-.49,0-.49,0-2.07-1.12a2.59,2.59,0,0,1,1.19-1.8c2-1,4.18-.81,6.23-.6,3.12.32,5.3-.6,6.55-3.51l.39-1.86C106.25,108.58,104.69,111.91,103.56,115.17Z"/><path class="cls-86" d="M87.62,104.26h2c3.61,1.21,7.45-.36,11,.9,0,.92.07,1.84.1,2.76.88,3.24-1.32,3.62-3.6,3.74-2.8.14-5.6.21-8.4.47-1.73.11-3.14-1.12-4.84-1.14-8.16-.81-16.43.43-24.54-1.3a5.84,5.84,0,0,1-1.61-.17c-.93-3.1,2.37-1,2.88-2.35l2,.07c5.23,1,10.5.18,15.75.46,1.79.1,3.63-.38,5.37.41,1.09,0,2.19.07,3-.89C87.65,106.44,86.52,105,87.62,104.26Z"/><path class="cls-87" d="M88.28,111.31c2.78-1.27,5.78-.93,8.69-1.1,1.74-.1,3.35-.15,3.76-2.3a2.15,2.15,0,0,0,.76.33c1.18,3.77-.12,5.18-4.08,4.8a78.76,78.76,0,0,0-8.82.1A1.44,1.44,0,0,1,88.28,111.31Z"/><path class="cls-88" d="M83.69,108.1c-7-.37-14.15,1.2-21.12-.87C69.61,107.5,76.71,106.22,83.69,108.1Z"/><path class="cls-89" d="M57.69,110.08c-3,.59-4.51-.52-4-3.73l2.94-.07c0,.32,0,.63,0,.94.73.44.45,1.41,1,1.93h0c.33.18.45.38.36.59S57.8,110.08,57.69,110.08Z"/><path class="cls-90" d="M100.63,105.15c-3.67-.41-7.49.89-11-.9C93.27,104.47,97.08,103.27,100.63,105.15Z"/><path class="cls-90" d="M87.62,104.26c-.23,1,1.35,2.6-1,2.95C87,106.21,84.74,104.42,87.62,104.26Z"/><path class="cls-88" d="M57.63,109.15a1.89,1.89,0,0,1-1-1.93l4-.06Z"/><path class="cls-91" d="M104.55,76.17c-1.65-1.28-.3-3.74-2-5-2.25-2.44-1.24-5.47-1.5-8.28,0-9.47,0-19,0-28.42,0-2.13-.36-4.37,1.22-6.2.86-2.12-1-6.32,2.08-6.18s2.36,4.3,2,6.68c-1.66,11.2-.52,22.45-.83,33.67-.11,4.23-1.46,8.48-.06,12.71Z"/><path class="cls-92" d="M101.51,23.12l-.06,2.07a3.66,3.66,0,0,1-3.1,1.17c-6.19-3.43-13-3.65-19.82-3.67A69.86,69.86,0,0,1,65.25,21a1.72,1.72,0,0,1-.82-1.47c4.69-1.83,9.57-.41,14.35-.82,1.78-.15,3.58,0,5.37,0,4.11-.24,8.25.49,12.36-.46a3.67,3.67,0,0,1,3.87,1.68C101,20.88,100.92,22.11,101.51,23.12Z"/><path class="cls-93" d="M102.33,28.26q.06,17.41.11,34.83a1.09,1.09,0,0,1-1.56-.38c-1.17-2-.68-4.2-.79-6.33,0-7.63,0-15.25,0-22.87,0-1.93-.37-4.06,1.62-5.44A2.54,2.54,0,0,1,102.33,28.26Z"/><path class="cls-94" d="M101.74,28.07q-.18,14.52-.34,29c-2.82-.57-2.22-2.9-2.25-4.7C99,46,99.1,39.59,99.09,33.19a15.67,15.67,0,0,0-.84-6.3,2.08,2.08,0,0,1,.33-1.71h2.87Z"/><path class="cls-95" d="M101.51,23.12l-1-1.83c-2.59-3,.14-3.95,2.09-5.16a3.18,3.18,0,0,1,3.34,1.06C103.81,18.67,101.34,19.91,101.51,23.12Z"/><path class="cls-96" d="M84.72,19.09c-5.14,0-10.28,0-15.42.1-1.63,0-3.36-.37-4.72,1-2.23,3.08-5.29,1.7-8.12,1.51a16.88,16.88,0,0,1-4.81-.3c-1.31-.79-3.31-.92-3.07-3.2l21-.12,14.82.2c.37.08.54.23.49.44S84.82,19.09,84.72,19.09Z"/><path class="cls-97" d="M84.72,19.09l-.27-.82H95.23c-2.86-1.78-5.13-.52-7.12-2.23H98.83l3.77.09c-.15,1.94-3.53,2.58-2.09,5.16C95.68,17.47,90,19.87,84.72,19.09Z"/><path class="cls-98" d="M24.59,20.18c-1.26-1.68-3.74-.32-5-2h6a8,8,0,0,0,6,0h2a7.81,7.81,0,0,1,6,0h4c2.25,1.16,4.83,1,7.17,1.8,1.54,1.44,3.57,1.63,5.45,2.25,7.27,2.42,9.79,8.78,6,15.47-1.78,3.16-2.57,7-5.64,9.32-2.81,2.14-5.79,4-9.6,3.38a3.6,3.6,0,0,1-1.34-.74c-1.69-3.09,1.54-4.3,2.43-6.41A22.17,22.17,0,0,1,53,37.17c3.37-3.08,3.12-6.14-.44-8.93-2.45-1.94-3.95-5.59-8.07-4.59a6.94,6.94,0,0,1-2.16-.5A7.94,7.94,0,0,0,38,21.7C33.53,21,28.77,23.15,24.59,20.18Z"/><path class="cls-69" d="M50.58,20.19c-2.53,0-5.11.21-7-2h5l3,2C51.25,20.64,50.92,20.62,50.58,20.19Z"/><path class="cls-99" d="M31.58,18.19a4.67,4.67,0,0,1-6,0Z"/><path class="cls-100" d="M39.56,18.18h-6A4.78,4.78,0,0,1,39.56,18.18Z"/><path class="cls-101" d="M88.28,111.31c.1.61.21,1.22.31,1.83l-1.07,1c-1.21-.06-2.91.39-1.94-1.9-6-.41-12,.18-17.92-.09-1.71-.08-3.65.6-5-1.17a4.06,4.06,0,0,1-.16-.69c7.33-1.19,14.68-.66,22-.26C85.85,110.27,87.24,110.26,88.28,111.31Z"/><path class="cls-102" d="M62.67,111c6.45.05,12.89,0,19.33.21,1.15,0,3-1.22,3.58,1l-2,.06c-7.23.83-14.48.12-21.71.38-1.79.07-3.63-.42-5.36.44l-.4,0H55.7C57.15,109.49,60.44,112,62.67,111Z"/><path class="cls-88" d="M84.54,110l-22,.26-4.82-.22a7.26,7.26,0,0,1-.06-.93c7.23,0,14.46,0,21.69,0C81.08,109.21,83,108.76,84.54,110Z"/><path class="cls-103" d="M43.58,111.19a3.42,3.42,0,0,0-4,0l-2.39-1.66C42.74,107.31,44,107.63,43.58,111.19Z"/><path class="cls-104" d="M31.59,108.26l2-.07,1,2h-3A1.23,1.23,0,0,1,31.59,108.26Z"/><path class="cls-105" d="M56.51,113.13c5.46-2,11.1-.55,16.65-.89,3.46-.21,7,0,10.42.07-2.17,1.56-4.66.59-7,.88h-10Z"/><path class="cls-106" d="M31.58,79.18c-2.16-.72-4-3.22-6.66-1-.52.44-1.54.42-1.7-.27-1.15-4.89-7.29-7.74-5.64-13.76.71-1.58,1.51-3.51,3.21-.93,1.89,2.88,4.93,4.41,7.22,6.81,3,3.12,6.55,3.08,10,1.09,2.84-1.63,5.65-2.79,9-2.21a5.48,5.48,0,0,0,5-1.63c5.28-6,12.24-5.82,19.71-5.6A28.21,28.21,0,0,1,70.56,55c0-3,.8-6.08,4.29-6.3,3.65-.22,3.05,3.16,3.39,5.51a5.84,5.84,0,0,0,.27,1.94c1.6-2.91,1.6-2.92-.92-7.09-1.12-1.85-2.6-3.7-.81-5.89,1.64-2,3.82-2.44,6.31-2,1.66.32,3.6,2.4,5,.41s.64-4.42-.44-6.43c-1.48-.31-1.92.81-2.69,1.34-3,2.07-5.39,1.16-5.27-2.43.16-4.85-1.34-7.92-6.36-9-1.3-.29-2.82-1.43-1.37-3.33,2.81-.48,5.61.55,8.42,0,1.29-.25,1.86.59,2.77,1.41a11.38,11.38,0,0,0,7,3.39c3.9.24,5.7,2.92,5.49,6.45-.63,10.95,2,21.83-.1,32.85-1.5,7.86-5.1,11.69-13,11.24-4.85-.28-9.59-.56-14,2.22-1.85,1.17-4.29.9-6.34.84C52,79.83,41.78,80.1,31.58,79.18Z"/><path class="cls-107" d="M71.58,22.18a3.74,3.74,0,0,0,2.72,1.95C79.9,25.24,81.87,28,81,33.5c-.2,1.24-.36,2.44.94,3,1.61.7,1.8-1,2.44-1.81.92-1.23,1.25-3.39,3.56-2.54,2,.75,2.38,2.33,2.14,4.39-.17,1.43.56,3,.47,4.41-.23,3.83-2.26,4.83-5.66,2.95a5.61,5.61,0,0,1-.76-.64c-2.29-1.87-4.54-1-6.29.61-2,1.94.46,3.76,1.36,4.52,4.45,3.76,2.94,7.27.2,11-.49.66-.93,1.58-1.89,1.06a2.22,2.22,0,0,1-.81-1.63c-.11-2,0-4-.1-6-.08-1.17.58-3-1.51-3a2.69,2.69,0,0,0-2.61,2.58c-.52,3.29-.45,6.55,1.57,9.4.55.78,1.6,1.22,1,2.91-4.62-3.42-9.75.09-14.68-1.29-1.82-.51-2.56,1.83-3.84,2.81-3.5,2.67-6.55,6.33-11.84,4.12-1.64-.68-3.13.62-4.52,1.59-5.19,3.65-9.23,3.29-13.79-1.26-2.31-2.31-5.46-3.74-6.87-7-.53-1.26-1.16.5-1.85.58v-3c5-1.67-1.88-3.33,0-5,3.48-1.45,4.51,1,5.05,3.5.93,4.33,3.6,5.1,7.42,4.32a40.89,40.89,0,0,1,8.37-1.25c4.19.64,8.14-1.57,12.34-1,1,.13,1.77-.81,2.44-1.56s.85-1.64,1.51-2C60,55.63,62.28,49.81,67,46.65c3.06-2.06,2.47-5.23,3.07-8,.51-2.38,0-4.92,2.16-6.92,1.2-1.1-.58-4.34-2.29-4.29-3.4.1-5.82-1.06-6.73-4.55a1.8,1.8,0,0,1,.67-1.26C66.5,20.73,69.14,20.12,71.58,22.18Z"/><path class="cls-108" d="M71.58,22.18a18.45,18.45,0,0,0-8,0c-.57-1.9,1.51-1.15,2-2,8.7.51,17.4,1.1,26.11,1.5a9.59,9.59,0,0,1,6.89,3.49c0,.33,0,.66,0,1,2.17,5.37.94,11.06,1.3,16.57.41,6.33-.4,12.74.52,19.12a4.22,4.22,0,0,1-1.83,4.32c.49,4-3.15,7.89-.2,12.11.67,1-.74,2-2.17,2.67-3.15,1.37-6.37,1.19-9.62,1.22C84.76,81,82.9,82,81.05,82.1c-2.8-.74-5.74-.36-8.59-1.18-1.59-.46-3.61-.51-4.88,1.26h0c-10.2-1.71-20.53-1.54-30.82-2-1.76-.08-3.67.49-5.18-1,3.19-1.41,6.29-.52,9.58-.17a80.41,80.41,0,0,0,18.92.19c3.4-.46,7.28-.32,10.52-2.8,3-2.26,6.92-1.83,10.41-1.22,8,1.41,11.24-2.11,12.83-10C96,54.37,92.48,43.74,94.07,33c.44-3-1.16-5.38-5.1-4.9-2.29.28-4.06.3-5.63-2.92C81.17,20.73,75.7,22.69,71.58,22.18Z"/><path class="cls-92" d="M98.58,66.18c1.25-13.34,0-26.67,0-40,2.55.64,2,2.73,2,4.44,0,7.08,0,14.17,0,21.25,0,1.77-.45,3.65.81,5.24q.16,3.07.34,6.15c.58,1.18.27,2.43.28,3.66-.49,1.1-.25,2.53-1.49,3.29Z"/><path class="cls-67" d="M67.58,82.18c.19-1.65,1-2.94,2.72-2.87,3.5.13,7,.39,10.28,1.87.07,2.34-1.74,1.28-2.77,1.47-1.72.31-3.55-.44-5.22.51Z"/><path class="cls-83" d="M72.59,83.16c2.28-2.19,5.71.24,8-2,2,.24,4.22-.66,6,1C81.94,82.83,77.3,83.52,72.59,83.16Z"/><path class="cls-80" d="M32.59,84.18l-9.93-.11a2,2,0,0,0-.36-.74C25.74,83.42,29.29,82.24,32.59,84.18Z"/><path class="cls-83" d="M100.53,70.2c.06-1.07,0-2.18.86-3,1.22,1.59.75,3.26.28,4.94-.7,1.64.25,3.61-1.07,5.12C100.58,74.89,100.55,72.54,100.53,70.2Z"/><path class="cls-109" d="M38.58,64.18c-3.28.92-6.74.72-10,2.18-2.94,1.32-7.81-2.12-7.53-5.36.27-3-.81-4.29-3.47-4.82-1.22-6.61-2.77-13.19-2-20v-1c1.11-.52,1.85.1,2.56.82a4.13,4.13,0,0,1,1,3.21C18.23,44.27,21.79,48,23,52.34c.65,2.33,2.66,2.66,4.48,3.31,7,.1,14,1.78,20.19-3.62,3-2.57,7.07-3,10.21.77,1.13,4.12-2.32,5.05-4.72,5.41-3.3.48-6,1.5-8.23,3.87C43.13,64,40.44,62.74,38.58,64.18Z"/><path class="cls-99" d="M24.59,20.18h15a1.82,1.82,0,0,1,.1,2.35,5.8,5.8,0,0,1-3,1.29c-2.33-.18-4.67.45-7,0-3.55-1-6,.7-8,3.37a4,4,0,0,1-1.21.71,2.87,2.87,0,0,1-2.07-.26c-1.27-1.23-1.43-2.39.22-3.44C19.29,20.9,22.62,21.57,24.59,20.18Z"/><path class="cls-110" d="M18.58,24.18a2.87,2.87,0,0,0,0,3,2.82,2.82,0,0,1,.88,1.88c-.77,2.17-.19,4.61-1.33,6.7-.18.15-.37.29-.56.43l-2-1C16,31.35,14.26,26.94,18.58,24.18Z"/><path class="cls-111" d="M17.73,84.36a4.81,4.81,0,0,0-.1.85c-2.26,1.24-4.18,3.39-7.17,2.72C12.38,85.71,14.29,83.48,17.73,84.36Z"/><path class="cls-75" d="M29.56,107.2c0,.33,0,.65,0,1-2.33,1.5-4.66,3-7,0l.07-.08Z"/><path class="cls-112" d="M22.57,108.2c2.34,2.11,4.67.26,7,0l2,.07c0,.64,0,1.28,0,1.91-2.91,0-5.83.14-8.73-.06C21.11,110,20.08,109.22,22.57,108.2Z"/><path class="cls-55" d="M101.67,72.12c-.09-1.64-.19-3.29-.28-4.94.12-1.31.23-2.62.35-3.93a5.88,5.88,0,0,0,.7-.16l.15,8.07Z"/><path class="cls-107" d="M65.58,20.19l-2,2h0a4,4,0,0,1-2.15,1.39,7.46,7.46,0,0,1-5.06-.93c-1.59-.92-.81-1.72.2-2.46a18.65,18.65,0,0,0,8,0Z"/><path class="cls-100" d="M56.57,20.19c.26,4.2,3.45,1,5,2,3.27,1.71,4.41,5.45,7.32,7.59a3.66,3.66,0,0,1,.65,4.66c-3.15,5-4,10.93-7.14,15.9-1.1,1.77-2.47,3.18-4.83,2.85-4.88-2.56-8.84-1-12.51,2.6-1.63,1.6-4,1.47-6.11,1.5-4.13.07-8.26,1-12.38-.1,1.48-2.54,4-2.73,6.5-2.74a19.93,19.93,0,0,0,13.5-5.26c5.68-.45,10.24-2.4,12.06-8.46a19.82,19.82,0,0,1,2.42-4.31c3.08-5.09.54-12-5.3-12.62-2.94-.32-3.91-1.76-5.18-3.6h6Z"/><path class="cls-113" d="M36.58,22.18h3a2.21,2.21,0,0,1,3,0h2C48.2,23.7,50.17,27,51.9,30.05c1.85,3.32-.3,6.52-2.32,9.13-2.2,2.83-5.46,4-8.94,5s-6.13,2.86-9.71.14c-2.42-1.83-4.91,1-7.43,1.46a2.37,2.37,0,0,1-1.39-.58c-1.17-3.09-2.56-6.14-2.1-9.59,1.76-1.87,3.44-.72,4.73.46,2.61,2.39,5.49,1.89,8.35,1.07a37.13,37.13,0,0,1,5.19-1.61c2.12-.28,3.94-1.2,4.57-3.29.72-2.37-1-3.95-2.4-5.6S36.13,25.17,36.58,22.18Z"/><path class="cls-114" d="M23.58,45.18c2.17-4.13,5.7-3.92,8.74-1.84,2.69,1.84,4.29,2,6.09-.71A2.13,2.13,0,0,1,40,41.7c6.95,1.33,8.71-3.91,11-8.55a2.15,2.15,0,0,0-.62-3c-2.74-2-3.78-5.32-5.75-7.93C47.83,22,51,22,52.12,26c.2.7.68.94,1.35,1.22,4.42,1.89,5.24,8.62,1,11.19a12.41,12.41,0,0,0-4.93,5.82A41.56,41.56,0,0,0,43.83,47C37.6,51.4,31.27,48.14,25,47.38A1.64,1.64,0,0,1,23.58,45.18Z"/><path class="cls-110" d="M46.58,49.18c-1.88,5.34-6.38,6.63-11.27,6.93-2.94.18-5.89.14-8.73,1.07-3.07-.71-6.11-1.43-5.35-5.75a1.64,1.64,0,0,0-.43-1.36c-4.67-3.81-2.71-9.13-3.23-13.88h0c4.55,1,3.07,5.09,4,7.92,2.74,4.58,10.06,7.35,15,5.36a12.46,12.46,0,0,1,8.95-.28Z"/><path class="cls-115" d="M45.58,49.18c-7.27.89-14.56,4.66-21.8-.43a14.94,14.94,0,0,1-3.2-3.57,1.35,1.35,0,0,1,2,0h1c1.49,1.32,3.19,1.87,5,.94s3.38-1,4.64,1,2.65,1.68,4.62.61c3.61-2,7.4-3.75,11.72-3.59C48.51,46.06,46.14,46.9,45.58,49.18Z"/><path class="cls-114" d="M42.58,22.18h-3v-2A3.22,3.22,0,0,1,42.58,22.18Z"/><path class="cls-116" d="M57.58,53.18c3.69-2,4.62-6,6.09-9.38C65,40.69,65,37.08,68,34.6c1.2-1,1.09-3.78-.42-4.46-3.64-1.62-3.44-5.78-6-8h2c3.36,4.13,3.36,4.13,10.93,3.18-5.65,4.83,4.22,3.56,2.2,7.22-4.19-1-4.92.64-4.85,5.23.07,4,.77,10-5.92,11.2-1.39,5.37-6.72,6.85-9.91,10.33-2.55,2.77-3.84,5.31-8.23,4-3-.88-6,2.16-9.22.82,5.44-.86,7-9,14.11-7.23C54.79,57.48,57.18,56.05,57.58,53.18Z"/><path class="cls-117" d="M36.58,22.18c2.19,2,5.25,2.89,6.87,5.63.89,1.51,3,2.75,1.69,4.75s-2.32,4.64-5.37,4.58a14.14,14.14,0,0,0-6.23,1.49c-5.21,2.34-9-.86-12.95-3.46a2.8,2.8,0,0,1-.94-1.08c-.47-2.41-.47-4.75.93-6.9h0c.73-1.08,1.56-1.9,3-1.29.88.93.79,2.13.82,3.27.1,3.43,1.88,5.06,5.26,5.28,3.56.23,5.62-1.79,6.92-4.63,1-2.28-1.2-1.84-2.27-2-3.18-.55-6.71.16-9.18-2.76-.58-3,2.36-1.81,3.44-2.84Z"/><path class="cls-113" d="M23.58,26.19l-3,1c1.23-4,3.84-5.72,8-5-.82,1.18-3,1-3,3C25.59,26.87,24.74,26.83,23.58,26.19Z"/><path class="cls-113" d="M20.58,27.19v7c-3.46-.55-1.32-3.34-2-5v-2Z"/><path class="cls-114" d="M18.58,29.18c1.69,1.26.31,3.74,2,5,0,.33,0,.66,0,1,.66,3.34,2.49,6.44,2,10h-2c-.34-3.22-.13-6.62-3-9C18.13,33.87,15.68,31.15,18.58,29.18Z"/><path class="cls-118" d="M23.58,26.19l2-1c4,.51,8.08.91,12.08,1.56,2.08.33,2.88,1.16,1,3.21-2.34,2.5-3,6.5-7.88,6.34C23.57,36.05,21.3,33.23,23.58,26.19Z"/></svg>
