<svg id="Layer_1" data-name="Layer 1" xmlns="http://www.w3.org/2000/svg" width="165.82" height="166.1" viewBox="0 0 165.82 166.1"><defs><style>.cls-1{fill:#3d3d3d;}.cls-2{fill:#fff;}.cls-3{fill:#f2f2f2;}</style></defs><title>link</title><rect class="cls-1" width="165.82" height="166.1" rx="25"/><path class="cls-2" d="M103,106.35l-37.63.07-.1-58.19,12.18,0,.08,48.12,25.45,0Z"/><path class="cls-3" d="M72.54,136.42H64.35V123.76H67v10.46h5.54Z"/><path class="cls-3" d="M74.11,136.42V123.76h2.65v12.66Z"/><path class="cls-3" d="M78.87,136.42V123.76h2.21L87,132h.07v-8.24H89.6v12.66H87.4l-5.92-8.29H81.4v8.29Z"/><path class="cls-3" d="M91.7,136.42V123.76h2.65v5.77h.08l4.76-5.77h3l-4.69,5.61,5,7H99.29l-3.75-5.29-1.19,1.42v3.87Z"/><path class="cls-2" d="M135.54,27.06h3.08c2.89,0,4.77-1.57,4.77-3.83s-1.55-3.69-4.31-3.69-4.61,1.45-4.78,3.85H129c.29-5.05,4.31-8.29,10.08-8.29s9.78,2.89,9.78,7.31c0,3.52-2.5,5.8-5.76,6.47V29c4.1.39,6.78,2.82,6.78,6.6,0,5-4.35,8.35-10.76,8.35-6.24,0-10.48-3.37-10.73-8.44h5.51c.19,2.26,2.18,3.79,5.22,3.79,2.89,0,4.88-1.61,4.88-3.94,0-2.68-1.95-4.18-5.3-4.18h-3.16Z"/><path class="cls-3" d="M18.14,144.31h1.14c1.08,0,1.78-.59,1.78-1.43s-.57-1.38-1.6-1.38a1.6,1.6,0,0,0-1.79,1.44h-2c.11-1.89,1.61-3.1,3.77-3.1s3.65,1.08,3.65,2.73A2.47,2.47,0,0,1,21,145v0a2.46,2.46,0,0,1,2.52,2.46c0,1.87-1.62,3.12-4,3.12s-3.91-1.26-4-3.15h2.06c.07.84.82,1.41,1.95,1.41s1.82-.6,1.82-1.47-.73-1.56-2-1.56H18.14Z"/><path class="cls-3" d="M107.46,133.47H108c.51,0,.85-.28.85-.68s-.28-.66-.77-.66a.77.77,0,0,0-.86.69h-.94a1.61,1.61,0,0,1,1.8-1.48c1,0,1.74.51,1.74,1.3a1.17,1.17,0,0,1-1,1.16v0A1.18,1.18,0,0,1,110,135c0,.89-.78,1.49-1.92,1.49s-1.88-.6-1.92-1.51h1c0,.4.39.68.94.68s.87-.29.87-.71-.35-.74-1-.74h-.56Z"/><path class="cls-3" d="M110.7,135.87a.54.54,0,0,1,.55-.55.55.55,0,0,1,.55.55.55.55,0,0,1-.55.55A.55.55,0,0,1,110.7,135.87Z"/><path class="cls-3" d="M113.69,133.47h.55c.52,0,.86-.28.86-.68s-.28-.66-.77-.66a.77.77,0,0,0-.86.69h-.94a1.61,1.61,0,0,1,1.8-1.48c1,0,1.74.51,1.74,1.3a1.17,1.17,0,0,1-1,1.16v0a1.18,1.18,0,0,1,1.21,1.18c0,.89-.77,1.49-1.92,1.49s-1.87-.6-1.91-1.51h1c0,.4.39.68.93.68s.88-.29.88-.71-.35-.74-.95-.74h-.57Z"/><path class="cls-3" d="M116.89,135.13h1a.79.79,0,0,0,.83.54c.74,0,1.07-.72,1.06-1.78h0a1.33,1.33,0,0,1-1.31.8,1.57,1.57,0,0,1-1.64-1.61,1.77,1.77,0,0,1,1.9-1.75c1.09,0,2.06.74,2.06,2.54,0,1.63-.78,2.62-2.06,2.62A1.74,1.74,0,0,1,116.89,135.13Zm2.76-2.07a.89.89,0,0,0-.91-.9.88.88,0,0,0-.9.88.86.86,0,0,0,.9.89A.87.87,0,0,0,119.65,133.06Z"/><path class="cls-3" d="M121.36,135a1.31,1.31,0,0,1,1.15-1.26v0a1.15,1.15,0,0,1-1-1.1c0-.76.75-1.32,1.82-1.32s1.82.55,1.82,1.33a1.15,1.15,0,0,1-1,1.09v0a1.32,1.32,0,0,1,1.15,1.26c0,.86-.82,1.45-2,1.45S121.36,135.9,121.36,135Zm2.92-.07a.94.94,0,1,0-.92.76A.82.82,0,0,0,124.28,135Zm-.12-2.2a.81.81,0,1,0-.8.68A.72.72,0,0,0,124.16,132.77Z"/></svg>
