<svg id="Layer_1" data-name="Layer 1" xmlns="http://www.w3.org/2000/svg" width="165.82" height="166.1" viewBox="0 0 165.82 166.1"><defs><style>.cls-1{fill:#3d3d3d;}.cls-2{fill:#fff;}.cls-3{fill:#f2f2f2;}</style></defs><title>menu</title><rect class="cls-1" y="0.05" width="165.82" height="166.05" rx="25"/><path class="cls-2" d="M102.88,106.39V67.11h-.33l-15.8,39.28H79.08L63.27,67.11H63v39.28H52.1V48.19H66.22L82.75,90h.33L99.61,48.19h14.12v58.2Z"/><path class="cls-3" d="M63,136.42v-8.55h-.07l-3.44,8.55H57.84l-3.44-8.55h-.07v8.55H52V123.76H55l3.6,9.09h.07l3.59-9.09h3.07v12.66Z"/><path class="cls-3" d="M75.87,136.42H67.48V123.76h8.39v2.18H70.13V129h5.41v2H70.13v3.19h5.74Z"/><path class="cls-3" d="M77.78,136.42V123.76H80L85.91,132H86v-8.24h2.53v12.66H86.32l-5.92-8.29h-.08v8.29Z"/><path class="cls-3" d="M93.27,131.68a2.66,2.66,0,1,0,5.31,0v-7.92h2.65v8.18c0,2.79-2.07,4.7-5.3,4.7s-5.31-1.91-5.31-4.7v-8.18h2.65Z"/><path class="cls-2" d="M143.77,21h-.11l-7,4.79V20.67l7.13-5h5.74V43.32h-5.72Z"/><path class="cls-3" d="M18.22,142.05h0l-2.63,1.79v-1.92l2.66-1.85h2.15v10.31H18.22Z"/><path class="cls-3" d="M107.5,132.39h0l-1.26.86v-.92l1.27-.88h1v4.93h-1Z"/><path class="cls-3" d="M109.61,135.87a.55.55,0,0,1,.55-.55.54.54,0,0,1,.55.55.55.55,0,0,1-.55.55A.55.55,0,0,1,109.61,135.87Z"/><path class="cls-3" d="M111.32,133.9c0-1.59.76-2.57,2-2.57s2,1,2,2.57-.76,2.59-2,2.59S111.32,135.5,111.32,133.9Zm3,0c0-1.12-.36-1.74-1-1.74s-1,.62-1,1.74.36,1.76,1,1.76S114.29,135,114.29,133.9Z"/><path class="cls-3" d="M115.9,133.9c0-1.59.77-2.57,2-2.57s2,1,2,2.57-.76,2.59-2,2.59S115.9,135.5,115.9,133.9Zm3,0c0-1.12-.36-1.74-1-1.74s-1,.62-1,1.74.36,1.76,1,1.76S118.88,135,118.88,133.9Z"/><path class="cls-3" d="M120.49,135a1.31,1.31,0,0,1,1.16-1.26v0a1.16,1.16,0,0,1-1-1.1c0-.76.75-1.32,1.82-1.32s1.82.55,1.82,1.33a1.15,1.15,0,0,1-1,1.09v0a1.31,1.31,0,0,1,1.14,1.26c0,.86-.82,1.45-2,1.45S120.49,135.9,120.49,135Zm2.92-.07a.94.94,0,1,0-.92.76C123,135.73,123.41,135.41,123.41,135Zm-.12-2.2a.81.81,0,1,0-.8.68A.72.72,0,0,0,123.29,132.77Z"/></svg>
