<svg id="Layer_1" data-name="Layer 1" xmlns="http://www.w3.org/2000/svg" width="473" height="143" viewBox="0 0 473 143"><defs><style>.cls-1{fill:#333;}</style></defs><title>name</title><g id="E8Hgnf.tif"><path d="M45.83,53.14V18h-.29L31.37,53.14H24.51L10.34,18h-.28V53.14H.34V1H13L27.8,38.43h.29L42.9,1H55.55V53.14Z"/><path d="M61.91,33.74c0-12.54,7.58-20.17,19.18-20.17s19.19,7.59,19.19,20.17C100.28,46.49,92.8,54,81.09,54S61.91,46.46,61.91,33.74Zm27.64,0c0-7.69-3.33-12.14-8.46-12.14S72.6,26.08,72.6,33.77s3.29,12.14,8.49,12.14S89.55,41.54,89.55,33.77Z"/><path d="M105.7,14.41h10.19v7h.22c1.37-4.92,4.66-7.59,9.21-7.59a10.6,10.6,0,0,1,3,.4v9.28a10.9,10.9,0,0,0-3.83-.61c-5.2,0-8.24,3.18-8.24,8.64V53.14H105.7Z"/><path d="M131.14,55.89h10.33c.83,2.67,3.87,4.51,7.88,4.51,5.45,0,8.49-3,8.49-7.51v-6.8h-.22c-1.8,4.12-6.36,6.94-12,6.94-9.46,0-15.72-7.3-15.72-19.4,0-12.29,6.07-19.84,15.9-19.84a12.7,12.7,0,0,1,12,7.37H158V14.41h10.41V52.6c0,9.25-7.73,15.14-19.33,15.14C138.87,67.74,132,62.79,131.14,55.89ZM157.88,33.7c0-7-3.37-11.45-8.64-11.45s-8.49,4.4-8.49,11.45,3.25,11.2,8.49,11.2S157.88,40.71,157.88,33.7Z"/><path d="M173.77,42c0-7,5.42-11.13,15.07-11.71l9.76-.57V27.16c0-3.61-2.53-5.71-6.51-5.71s-6.43,1.95-6.93,4.81h-9.65c.4-7.52,6.79-12.69,17.05-12.69,9.94,0,16.41,5.14,16.41,12.94V53.14H198.78V47.21h-.22c-2.17,4.12-7,6.54-11.81,6.54C179.37,53.75,173.77,49,173.77,42Zm24.83-3.07V36.12l-8.17.51c-3.94.29-6.18,2.06-6.18,4.8s2.39,4.7,6,4.7C194.8,46.13,198.6,43.13,198.6,38.94Z"/><path d="M215.76,14.41H226v6.9h.22c2.06-4.81,6.14-7.63,12.1-7.63,8.6,0,13.44,5.42,13.44,14.49v25H241.16V30.38c0-5.06-2.38-7.95-7.12-7.95s-7.73,3.47-7.73,8.49V53.14H215.76Z"/><path d="M297.42,54c-15.57,0-25.11-10.19-25.11-27.13,0-16.7,9.54-26.81,24.86-26.81,12.17,0,21.35,7.19,22.91,17.74H309.13c-1.59-5.46-6-8.71-11.93-8.71-8.6,0-13.76,6.54-13.76,17.63,0,11.31,5.49,18.21,14.16,18.21,7.12,0,12.07-4.37,12.29-10.84l0-.83H298.58V25.35h22v5.89C320.54,45.44,312,54,297.42,54Z"/><path d="M326.83,14.41H337v7h.22c1.37-4.92,4.66-7.59,9.21-7.59a10.6,10.6,0,0,1,3,.4v9.28a10.9,10.9,0,0,0-3.83-.61c-5.2,0-8.24,3.18-8.24,8.64V53.14H326.83Z"/><path d="M351.37,42c0-7,5.42-11.13,15.06-11.71l9.76-.57V27.16c0-3.61-2.53-5.71-6.5-5.71s-6.44,1.95-6.94,4.81H353.1c.4-7.52,6.79-12.69,17.06-12.69,9.93,0,16.4,5.14,16.4,12.94V53.14H376.37V47.21h-.22c-2.16,4.12-7,6.54-11.81,6.54C357,53.75,351.37,49,351.37,42Zm24.82-3.07V36.12l-8.17.51c-3.94.29-6.18,2.06-6.18,4.8s2.39,4.7,6,4.7C372.4,46.13,376.19,43.13,376.19,38.94Z"/><path d="M393.14,55.89h10.33c.83,2.67,3.87,4.51,7.88,4.51,5.45,0,8.49-3,8.49-7.51v-6.8h-.22c-1.81,4.12-6.36,6.94-12,6.94-9.47,0-15.72-7.3-15.72-19.4,0-12.29,6.07-19.84,15.9-19.84a12.7,12.7,0,0,1,12,7.37H420V14.41h10.41V52.6c0,9.25-7.73,15.14-19.33,15.14C400.87,67.74,394,62.79,393.14,55.89ZM419.87,33.7c0-7-3.36-11.45-8.63-11.45s-8.49,4.4-8.49,11.45,3.25,11.2,8.49,11.2S419.87,40.71,419.87,33.7Z"/><path d="M472.59,41.29C471.44,48.88,464.5,54,454.92,54c-11.92,0-19.08-7.62-19.08-20s7.23-20.38,18.69-20.38c11.27,0,18.39,7.63,18.39,19.41v3.21H446.21v.65c0,5.53,3.51,9.33,8.89,9.33,3.87,0,6.83-1.92,7.81-4.88ZM446.32,29.73h16.44c-.21-4.95-3.43-8.35-8.13-8.35S446.68,24.88,446.32,29.73Z"/><path class="cls-1" d="M19.67,89.8c9.79,0,16.69,6.87,16.69,16.73s-7,16.8-16.77,16.8h-12v18.61H1.06V89.8ZM7.56,117.55H18c7.44,0,11.71-4.08,11.71-11s-4.23-11-11.71-11H7.56Z"/><path class="cls-1" d="M39.18,123.15c0-12,7-19.44,17.41-19.44S74,111.15,74,123.15s-7,19.44-17.38,19.44S39.18,135.11,39.18,123.15Zm28.4,0c0-8.85-4.34-13.91-11-13.91s-11,5.06-11,13.91,4.38,13.91,11,13.91S67.58,132,67.58,123.15Z"/><path class="cls-1" d="M80.3,104.36h5.92v6.14h.15a9.21,9.21,0,0,1,9.1-6.79A16.41,16.41,0,0,1,98,104v6.11a12.65,12.65,0,0,0-3.36-.36c-4.88,0-8.06,3.5-8.06,8.82v23.41H80.3Z"/><path class="cls-1" d="M111.41,95.29v9.07h7.3v5.17h-7.3v22.33c0,3.43,1.44,5,4.66,5a22.55,22.55,0,0,0,2.6-.18v5.28a22.41,22.41,0,0,1-4,.29c-6.91,0-9.58-2.82-9.58-10V109.53h-5.6v-5.17h5.6V95.29Z"/><path class="cls-1" d="M127.42,109.53h-5.24v-5.17h5.24v-4.19c0-7.23,3.36-10.66,10.29-10.66a27.38,27.38,0,0,1,3.83.29v5.09a22.39,22.39,0,0,0-2.85-.21c-3.4,0-5,1.8-5,5.53v4.15h7.69v5.17H133.7v32.41h-6.28Z"/><path class="cls-1" d="M144.22,123.15c0-12,7-19.44,17.41-19.44S179,111.15,179,123.15s-7,19.44-17.38,19.44S144.22,135.11,144.22,123.15Zm28.4,0c0-8.85-4.34-13.91-11-13.91s-11,5.06-11,13.91,4.37,13.91,11,13.91S172.62,132,172.62,123.15Z"/><path class="cls-1" d="M185.66,89.8H192v52.14h-6.29Z"/><path class="cls-1" d="M200,93.74a3.94,3.94,0,1,1,3.94,3.94A3.92,3.92,0,0,1,200,93.74Zm.79,10.62h6.29v37.58h-6.29Z"/><path class="cls-1" d="M213.7,123.15c0-12,7-19.44,17.42-19.44s17.38,7.44,17.38,19.44-7,19.44-17.38,19.44S213.7,135.11,213.7,123.15Zm28.4,0c0-8.85-4.34-13.91-11-13.91s-11,5.06-11,13.91,4.37,13.91,11,13.91S242.1,132,242.1,123.15Z"/></g><path class="cls-1" d="M248,101.71a6.84,6.84,0,1,1,6.84,6.85A6.72,6.72,0,0,1,248,101.71Zm12.47,0a5.63,5.63,0,1,0-5.63,5.64A5.52,5.52,0,0,0,260.47,101.71Zm-3.57-1.23A1.85,1.85,0,0,0,255,99.14c-1.32,0-2.19,1-2.19,2.55s.88,2.59,2.19,2.59A1.78,1.78,0,0,0,256.9,103h1.2a2.87,2.87,0,0,1-3.1,2.38c-2.07,0-3.42-1.4-3.42-3.66A3.29,3.29,0,0,1,255,98.07a2.93,2.93,0,0,1,3.11,2.41Z"/></svg>
