<svg id="Layer_1" data-name="Layer 1" xmlns="http://www.w3.org/2000/svg" width="165.82" height="166.1" viewBox="0 0 165.82 166.1"><defs><style>.cls-1{fill:#3d3d3d;}.cls-2{fill:#fff;}.cls-3{fill:#f2f2f2;}</style></defs><title>pdf</title><rect class="cls-1" width="165.82" height="166.1" rx="25"/><path class="cls-2" d="M85.92,48.19c11.94,0,20.16,8,20.16,19.93S97.57,88,85.31,88H74.42v18.35H62.24V48.19ZM74.42,78.52h8.23c7,0,11-3.71,11-10.36s-4-10.33-11-10.33H74.42Z"/><path class="cls-3" d="M72.35,123.76a4.13,4.13,0,0,1,4.38,4.33,4.21,4.21,0,0,1-4.52,4.34H69.85v4H67.2V123.76Zm-2.5,6.6h1.79a2.26,2.26,0,1,0,0-4.51H69.85Z"/><path class="cls-3" d="M83.13,123.76c3.8,0,6,2.26,6,6.28s-2.24,6.38-6,6.38H78.3V123.76Zm-2.19,10.46h1.87c2.37,0,3.65-1.43,3.65-4.17s-1.31-4.11-3.65-4.11H80.94Z"/><path class="cls-3" d="M90.88,136.42V123.76h8.29v2.18H93.53v3.4h5.15v2.09H93.53v5Z"/><path class="cls-2" d="M142,38.25H128.29V33.43a185.23,185.23,0,0,1,11.08-17.72h8.15V33.64h3.64v4.61h-3.64v5.07H142Zm-8.71-4.45h8.83V19.85H142a138.73,138.73,0,0,0-8.71,13.79Z"/><path class="cls-3" d="M18.56,148.48H13.43v-1.79a68.93,68.93,0,0,1,4.13-6.62h3.05v6.69H22v1.72H20.61v1.9H18.56Zm-3.25-1.66H18.6v-5.2h0a49,49,0,0,0-3.25,5.14Z"/><path class="cls-3" d="M108.61,135.47h-2.45v-.86a31.89,31.89,0,0,1,2-3.16h1.46v3.2h.64v.82h-.64v.91h-1Zm-1.55-.79h1.58v-2.5h0a24,24,0,0,0-1.55,2.47Z"/><path class="cls-3" d="M110.87,135.87a.55.55,0,0,1,1.1,0,.55.55,0,0,1-1.1,0Z"/><path class="cls-3" d="M113.62,132.39h0l-1.25.86v-.92l1.27-.88h1v4.93h-1Z"/><path class="cls-3" d="M117,132.39h0l-1.26.86v-.92l1.27-.88h1v4.93h-1Z"/><path class="cls-3" d="M120.29,133.47h.55c.52,0,.86-.28.86-.68s-.28-.66-.77-.66a.77.77,0,0,0-.86.69h-.94a1.61,1.61,0,0,1,1.8-1.48c1,0,1.74.51,1.74,1.3a1.17,1.17,0,0,1-1,1.16v0a1.18,1.18,0,0,1,1.21,1.18c0,.89-.77,1.49-1.92,1.49s-1.87-.6-1.91-1.51h1c0,.4.39.68.93.68s.88-.29.88-.71-.35-.74-1-.74h-.57Z"/></svg>
