<svg id="Layer_1" data-name="Layer 1" xmlns="http://www.w3.org/2000/svg" width="1434" height="581" viewBox="0 0 1434 581"><defs><style>.cls-1{fill:#8f9191;}.cls-2{fill:#999f97;}.cls-3{fill:#3b3a3f;}.cls-4{fill:#010102;}.cls-5{fill:#d9ded6;}.cls-6{fill:#dce1da;}.cls-7{fill:#d8ded6;}.cls-8{fill:#37363b;}.cls-9{fill:#060607;}.cls-10{fill:#b9beb6;}.cls-11{fill:#9ea29c;}.cls-12{fill:#c9cec5;}.cls-13{fill:#a9b0a8;}.cls-14{fill:#b8bdb6;}.cls-15{fill:#afb4ad;}.cls-16{fill:#232227;}.cls-17{fill:#16151a;}.cls-18{fill:#302f34;}.cls-19{fill:#999f98;}.cls-20{fill:#1d1c21;}.cls-21{fill:#9ea59d;}.cls-22{fill:#c6ccc3;}.cls-23{fill:#c0c7bd;}.cls-24{fill:#a2aaa2;}.cls-25{fill:#939894;}.cls-26{fill:#b1b6af;}.cls-27{fill:#373534;}.cls-28{fill:#d1d5ce;}.cls-29{fill:#7d7e7c;}.cls-30{fill:#e5e6e2;}.cls-31{fill:#d2d7ce;}.cls-32{fill:#c1c6bd;}.cls-33{fill:#cdd1c7;}.cls-34{fill:#e1e1df;}.cls-35{fill:#dfe4dd;}.cls-36{fill:#dbe0d9;}.cls-37{fill:#ccd0c7;}.cls-38{fill:#a9aca5;}.cls-39{fill:#2a2725;}.cls-40{fill:#afb0aa;}.cls-41{fill:#131416;}.cls-42{fill:#0d0d0d;}.cls-43{fill:#e6ebe5;}.cls-44{fill:#47464b;}.cls-45{fill:#434246;}.cls-46{fill:#2a292e;}.cls-47{fill:#17161b;}.cls-48{fill:#1a191e;}.cls-49{fill:#0a0a0d;}.cls-50{fill:#101013;}.cls-51{fill:#333237;}.cls-52{fill:#38373c;}.cls-53{fill:#b0b0ac;}.cls-54{fill:#9c9c9c;}.cls-55{fill:#c8c9c4;}.cls-56{fill:#bbbcb8;}.cls-57{fill:#121511;}.cls-58{fill:#989996;}.cls-59{fill:#91928d;}.cls-60{fill:#3f3e43;}.cls-61{fill:#242328;}.cls-62{fill:#201f24;}.cls-63{fill:#2d2c31;}.cls-64{fill:#a5a6a1;}.cls-65{fill:#edde41;opacity:0.7;}.cls-66{fill:#fff;}</style></defs><title>tema_4_button_1</title><path class="cls-1" d="M988.93,453.08l-2.19.45-197.84-.42c-7.79,1.49-13.93-2-19.76-6.5a173.89,173.89,0,0,1,.22-45.92l6.4.35a12.16,12.16,0,0,0,5,2,10.14,10.14,0,0,1,2.5,1.52c2.77,2.47,2.63,5.77,2.86,9.09.78,11.06-4.71,21.69-.23,32.94,2.49-1.2,6.6.92,10.89,1.08,2.75.06,5.49,0,8.23,0,3,.16,5.88-.4,8.83-.18,5-.47,9.95-1.07,14.94-.12,5.2-1.2,10.33.73,15.51.3,9.24-.9,18.56,1,27.78-.86,6-.12,12,1.81,17.94-.13,8.69-.91,17.36.85,26.05.19,6.65-.53,13.3,2.11,20,0,7.31-.18,14.64,2,22-.11,9.91,1.78,20.23-.69,30,2.73A2.71,2.71,0,0,1,988.93,453.08Z"/><path class="cls-2" d="M1250.49,453.34h-4.41c-41.11,0-82.22,0-123.32-.14-15.48-.07-3.89,10.17-6,15.15a2,2,0,0,1-1.21,3.14c-37.83-1.42-75.67-.27-113.51-.68-4.6-.05-9.58,1.27-13.49-2.58-.64-5.07,3.14-10,.43-15.15,0-.57,0-1.14-.08-1.71a7.19,7.19,0,0,1,2.86-2.85c7.89-2.89,16.1.58,24.06-1.2,9.56-2.28,19.07,1.63,28.62.18,23.17-2.09,46.39-.5,69.59-1,14.57,2.47,29.26.65,43.88,1.2,12.45.68,24.83-1,37.25-1.14,9.34,2.92,18.86-1.64,28.21.65a48.55,48.55,0,0,0,13.83,0,110.48,110.48,0,0,0,15.65.47c7.16,1,14.27-1.61,21.43-.36,5.79-.06,11.59-.94,17.34.37,3.22.08,6.44.05,9.66.05,5.24-.1,10.5-1.48,15.74.11,2.88.35,5.48,1.1,6.38,4.34a3.57,3.57,0,0,1-3.52,2.07"/><path class="cls-3" d="M1226.29,73l8.8,0c27.23,0,54.46.08,81.7-.07a56.64,56.64,0,0,1,17.15,2.27c1.54,4.74,5.86,8.86,3.23,14.51-.35.7-.9,1.52-1.47,1.42-20.37-3.47-41.18-1-61.44-4-13.43-2-26.34-4.49-40-2.05C1227.34,86.34,1224.56,81.25,1226.29,73Z"/><path class="cls-4" d="M1129.56,72.79l94.18.48c3,6.51,1.34,11.84-4.09,16.23-4.13,4.83-9.52,6.44-15.67,6.45-5.13,0-10.25.09-15.37.09H809.77c-17,0-17.56.49-17.57,18q0,123,0,246c0,16.83,1.68,18,18.51,16.75,20.79-1.53,41.63-.22,62.45-.28,132.13-.36,264.26,0,396.39-.27,10.13,2,20.39,1.3,30.58,1.13s12.72-2.92,12.93-13.38c.34-17.49-.53-35,2.21-52.43,1.08-6.88,3.77-11,10.9-11,5.34,0,9,2,9,8.39-.15,25.57,0,51.14-.13,76.71,0,4.39-2.1,8.42-3.24,12.61l-247,.15c-100.65.07-201.31-.05-302,.46-11.16.05-14.11-3-14.06-14.07.46-98.09.31-196.19.33-294.28,0-3.66-.12-7.31-.18-11,.15-1.25.31-2.49.46-3.73,7.31-7.32,16.62-3.69,24.85-3.79,18.72-.25,37.5-1.06,56.2.82l4.58,0a327.34,327.34,0,0,1,54.77,0Z"/><path class="cls-5" d="M1195.63,450.63H1158.3c-.64-4,5.5-3.55,5-7.51a8,8,0,0,1,4.39-.94c2.32-.3,5.26,2.16,6.83-1,1.24-2.51-.08-5-1.82-7a17,17,0,0,0-5.35-3.71c-8.49-4.18-8-10.62-5.58-18.39,2.3-7.31,6.23-9.81,13.75-8.47,4.34.77,9,.38,12.46.1-3.49-.52-8.1,1.23-12.47-1.12,9.38-4.32,19.21-1.14,28.82-1.72,4.83,1.57,9.85.12,14.72.92,2.18,5.52-2.67,5.5-5.53,6.65-3.11,1.24-5.88,3.33-4.16,6.34,5.72,10-2.27,19-1.5,28.67C1208.54,451.82,1200.17,448.85,1195.63,450.63Z"/><path class="cls-6" d="M1175.53,402.59h19.35c0,.76,0,1.52,0,2.28-6.1,0-12.2.14-18.29,0-7.29-.21-10.16,1.93-11.55,10.33-1.55,9.44,1.45,12.12,9.17,14.19,3.79,1,7.59,14.47,5,17.21-4.87,5.26-8.34-.41-12.28-2.15a22.65,22.65,0,0,0-16.42-4.2c-6.75.88-10.6-2.33-10.24-9.31.42-8.31-2.64-12.51-11.45-13.8-7.44-1.09-7.94-6-2.33-13.27,3.23,0,6.47-.35,7.5-.19-20.72,4.23-43.86,1.15-66.84,2.9-7.45,3.55-14.64,3.57-22.69.83-9-3-18.71-1.14-28.1-1.49-4.63-.17-9.5,1.07-13.73-2a2.29,2.29,0,0,1-.48-3.06q81.47-.14,162.93-.19C1168.57,400.67,1172.05,401.92,1175.53,402.59Z"/><path class="cls-7" d="M1015.29,451.07l-24.2-.13c-6.34-2.13-12.88-.54-19.31-1-2.12-.16-4.59.35-5.52-2.29a3.69,3.69,0,0,1,1.78-4.69c6-2.74,5-7,3-11.68a9.4,9.4,0,0,1-.5-2.11s-10.75-25.65-10.76-25.66c1.46-3.4,5-1,7.12-2.59l22,0a1.12,1.12,0,0,1,.74,1.66c5.66.2,11.3.36,16.84,1.61,4.28,3,6.41,7.41,5.6,12.19a79.28,79.28,0,0,0-.64,18.92c.33,5.19-.34,8.95,4.48,12C1017,448,1016.44,449.92,1015.29,451.07Z"/><path class="cls-8" d="M1219.57,86.1c1.8-4.14,5.3-7.73,4.17-12.83l2.55-.28c1,7.47,3.12,9.84,12.16,7.59,9.45-2.35,20.4-3,30.11,2.77,2.22,1.3,5.7.55,8.61.61,9.46.19,18.88-.11,28.36,1.72,3.8.73,11,5.65,12.94-3.92.42-2,3.09,0,4.58.89l13.12,7.92q0,7.68.08,15.37l-.12,2.24a2.23,2.23,0,0,1-2.69.28,10,10,0,0,1-1.82-2.29c-6.31-5.24-10.83-5.71-12.6,4-.55,3-2,7.16-6.53,3-2.26-3.89-1-9-4.35-12.46-3.46-4.63-8.54-3.43-13.1-3.47-20.35-.16-40.7,0-61-.1-5.42,0-11,.47-15.84-2.79C1214.94,91,1216.61,88.43,1219.57,86.1Z"/><path class="cls-9" d="M1331.76,398.21c-5-6.18,2.5-10.49,2.39-16.2-.45-23.42-.26-46.85-.14-70.27,0-5.46-1.89-8-7.64-8s-7.22,2.41-7.92,7.84c-2.55,19.66-2.21,39.38-1.92,59.08.12,7.58-2.34,10.51-10.08,10.2-12.06-.49-24.15-.14-36.23-.15.39-5.88,5-5.29,8.75-5.41,7.21-.22,14.44-.29,21.63,0s11.16-2,10.09-9.85a18.18,18.18,0,0,1-.25-7.63c.7-10.54,1.06-21.06-.41-31.57-1.2-6.6,1.15-13.14.28-19.74a39,39,0,0,1,.58-13.75c4.77-9.56-.2-20.42,4-30.06,10.93-3.78,16.13-1.21,19.75,9.76,1.42,4.47-.92,9.37,1.52,13.73,0,34.22.14,68.43.07,102.65C1336.22,392.43,1338,397.34,1331.76,398.21Z"/><path class="cls-10" d="M889.93,450.73H872.37a8.82,8.82,0,0,0-3.06-1c-11.66-2.52-13.38-4.69-13.2-16.74a51.77,51.77,0,0,1,.75-7.56c1.34-8.37,3-16.85-8.26-20.08-.86-.25-1-1.82-.74-2.94,1.39-1,3-.85,4.56-.87,3.71-.29,7.49.64,11.14-.67l50.57,0c-2.2,7.66-8.87,3.82-13.47,5.27-8,1.94-15.19-4.45-22.77-2.23,12.12-.09,12.26-.05,9.19,12.08C884.06,428,886.21,439.38,889.93,450.73Z"/><path class="cls-11" d="M1331.76,450.79l-8.32.45-7.24-.51c-5.74-11.56-2.92-23.94-3.41-36-.11-2.82,1.59-5.63,0-8.41-1.94-1.59-5.43-1.71-5.16-5.35,28.52-1.56,28.59-1.56,28.45,26.46,0,7.16,1.33,14.53-2.21,21.35A3.39,3.39,0,0,1,1331.76,450.79Z"/><path class="cls-12" d="M898.82,402.68c5.1-.59,10.51,1.39,15.31-1.79h52.78c-1.84,1.86-4.22,1.75-6.57,1.77-10,7.22-21.21,1.7-31.68,2.82,5.38,2.32,5.13,6.59,4,11.13-1.65,6.86-2.81,13.33,2.39,19.72,3.22,4-1.18,9.61,1,14.32l-19.76,0c-10.29-4.11-7.23-14.42-8.81-21.73C905.52,419.73,905.48,410.26,898.82,402.68Z"/><path class="cls-13" d="M852.64,402.65l-4.38,0c1.21,2.54-6.83-.26-2.46,4.55,3.4,3.74,3.15,8.82,2.06,13.48-1.25,5.39-2.17,10.66.18,15.93,1.48,3.31-2.75,7,2.08,10.88,2.33,1.86-4.32,1.2-6,3.2H828.56c-6-9.23-5.55-19.82-6.18-30.14-.34-5.72.08-11.59-5.24-15.61a2.74,2.74,0,0,1,.72-3c4.92-1.07,10,.51,14.9-1l19.91,0q1.23.6.81,1.17A1.14,1.14,0,0,1,852.64,402.65Z"/><path class="cls-14" d="M1292.26,450.59l-17.71,0c-4.49-13.14-.77-26.5-.89-39.76,0-3,1-5.72-2.59-7.18a3.12,3.12,0,0,1-.85-2.72l17.7,0c6.94-.05,9.36,2.18,8.74,10.16-.89,11.52-2.28,23.3,0,34.89C1297.55,450.15,1294.28,449.58,1292.26,450.59Z"/><path class="cls-15" d="M1292.26,450.59c-.09-13.2.23-26.42-.57-39.58-.19-3.14,5-9.74-3.77-10.1l19.74.06c2.59,2.23,5.74,1.55,8.74,1.7-6.34,7.65-6,16.78-6.23,26-.21,8.3-1.54,16.57-9.13,22Z"/><path class="cls-16" d="M1336.14,143.32q0,17.6,0,35.18a2.34,2.34,0,0,1-3.1-.23c-1.65-1.72-2.06-3.91-2.29-6.15-.72-4.15,3.11-7.45,2.29-10.89-.14-1.06-.16-.67-.14.4a3.92,3.92,0,0,1-.28,2.15c-2.53,3.88-4.16.48-5.93-.85-1.42-1.08-2.32-2.86-4.38-3-4.57,1.43-.67,12.4-9.8,8.7-2.7-4.38-.74-9.46-2.19-14a38.48,38.48,0,0,1,1.35-16.69,9.88,9.88,0,0,1,3.1-4.2c6.77-1.41,12.94-5.36,20.17-5C1335.83,133.52,1333.78,138.61,1336.14,143.32Z"/><path class="cls-17" d="M1336.15,286.17c-3.57-3.92-1.61-8.76-2.17-13.18-7-12.76-2.44-26.64-3.88-39.93-.52-8.22-1-16.45.84-24.6a9,9,0,0,1,1.82-3.24,2.57,2.57,0,0,1,3.35-.35Z"/><path class="cls-18" d="M1336.14,143.32c-3.82-4.68-1.5-10.23-2.17-15.36-6-6.62-4.49-13.22,0-19.82l2.14,0Q1336.13,125.75,1336.14,143.32Z"/><path class="cls-19" d="M780.12,404.87h-2.19c-.63-5.93,4.79-1.75,6.45-3.86l17.57-.06c-.76,5.74-6.15,4.78-9.59,6.64C787.85,408.61,784.06,406.37,780.12,404.87Z"/><path class="cls-20" d="M1336.11,204.87l-2.12,0q-9.65-13.2,0-26.38l2.1,0Q1336.11,191.69,1336.11,204.87Z"/><path class="cls-21" d="M793.3,404.87l8.65-3.93,15.55,0c.81.39,1.07.77.8,1.14a1.09,1.09,0,0,1-.82.56c-2.74,3.92-7.47,2.64-11.09,4.29a17.43,17.43,0,0,1-3,.71c-3.19.37-6.32.4-9.12-1.54Z"/><path class="cls-22" d="M1224.08,400.87l24.16,0a3.68,3.68,0,0,1-1.44,3.27,31,31,0,0,1-21.86,0A2.53,2.53,0,0,1,1224.08,400.87Z"/><path class="cls-23" d="M1248.25,402.67c0-.59,0-1.18,0-1.77l22,0c0,.59,0,1.18,0,1.77l-1.16,1.44c-6.55,2.51-13.1,3.06-19.66,0C1249,403.64,1248.64,403.16,1248.25,402.67Z"/><path class="cls-12" d="M1224.08,400.87c0,.59,0,1.18,0,1.76-1.46,1.2-2.94,1.42-4.43.05-5.11-.58-10.52,1.39-15.32-1.81Z"/><path class="cls-24" d="M817.48,402.67c0-.57,0-1.14,0-1.7l15.26,0C828,404.06,822.58,402.12,817.48,402.67Z"/><path class="cls-12" d="M989,402.63c0-.59-.05-1.17-.1-1.76h13.3c0,.59-.09,1.19-.12,1.78A16.91,16.91,0,0,1,989,402.63Z"/><path class="cls-25" d="M784.38,401l-6.45,3.86L775.76,401Z"/><path class="cls-26" d="M852.64,402.65c0-.58,0-1.16,0-1.73h10.89C860.25,403.58,856.33,402.38,852.64,402.65Z"/><path class="cls-27" d="M999.92,521.27l-24.2.14L960.4,519l.09-4.86c3.74-2.56,7.72-1.38,11.67-.8,2.31.51,4.72.4,7,1.12,4.17,1.68,8.59,1.15,12.91,1.56C995.5,516.36,999.75,515.88,999.92,521.27Z"/><path class="cls-28" d="M988.5,468.23c3.2-.61,6.38-1.69,9.59-1.76,37.12-.77,74.27,1.17,111.37-1.16,5.12-.32,4.26,4.1,6.6,5.83,2.39,11.22.51,14.73-10.06,14.9-36.15.59-72.3.39-108.45.11-4.1,0-8-.85-10.62-4.56C987.89,477.19,985.13,472.35,988.5,468.23Z"/><path class="cls-29" d="M986.93,481.59c40.2.12,80.41.1,120.62.46,8.47.07,10.08-3.84,8.51-10.91.22-.93.43-1.86.65-2.79,2.72,4.21,1.82,9,2.07,13.58.27,4.8.74,9.41,6.26,11.26,2.4,1.23,4.27,2.6,1.32,5.2-3.09,1.38-6.24,1-9.42.47-23.73.49-47.43.54-71.14.57-18.62,0-37.2-1.1-55.81-1.24-3.62,0-7.43.2-10-3.28,2-3.38,5.49-6.12,4.61-10.73Z"/><path class="cls-30" d="M961,508.48c2.7.82,3.69-2.14,5.8-2.62,8.24-2.32,13.37,1,16,8.85-3.42,3.32-7.92-.32-11.53,1.79-4.25,2.32-7-2.24-10.72-2.34A5.05,5.05,0,0,1,961,508.48Z"/><path class="cls-31" d="M923,404.87c-.73,0-1.69.2-2.15-.17-3.5-2.91.45-1.95,1.19-1.95,12.78-.09,25.55-.07,38.32-.08,1.92,1,3.74,2.52,5.76,2.83,8.35,1.3,10.53,5,8,13.51-2.31,7.84-.08,15.84,6.5,22.47l-13.39,4.8c8.2,5.36,17.09-.46,23.86,4.66l-2.24.43L958,450.72c-2.37-1.29-5-1-7.44-.74-5.58.48-8.29-2.15-8.26-7.43,0-6.17-1.31-12.23-1.1-18.41.51-14.82.46-14.85-14.21-18.11C925.64,405.72,924.15,405.91,923,404.87Z"/><path class="cls-32" d="M898.82,402.68c9.52,2.6,12.14,8.08,11.53,18.36-.59,9.79,2,20.16,6,29.65l-26.41,0c-13-6.61-6.68-19.2-7.84-29-.44-3.67-3-11.69,6.24-14.56-7.28-3.82-13.72-1.31-19.38-4.53Z"/><path class="cls-26" d="M844.09,450.71c4.55-4.24,4.55-4.24-4.72-7.45,3-1.35,8.83-.43,4.65-6.75-2.63-4-2.81-8.69-.54-13.57,3.31-7.1,2.34-13.89-5.42-20.27h10.2c.27.24.51.61.83.7,13.65,4,14.61,5.6,12,20.85-1,5.69-4.7,11.34,1.85,16.63,1.75,1.42-5,.9-3.54,5.33,4.93-1.16,9.4.59,13,4.55Z"/><path class="cls-33" d="M923,404.87h5.46c18.12,0,18.27,0,16.53,18.41-.68,7.23,2.18,14,1.13,21.53-1,7.13,8.89,1.6,11.94,5.93l-21.95-.06c-1.5-4.73-8-1.3-9.6-5.92.79-4.19,6.44-1.07,7.48-5.52-10.9-4-8.09-14.18-5.58-20.57C931.58,410.56,929.28,407.72,923,404.87Z"/><path class="cls-21" d="M813.26,450.72l-8.86.07c-9.7-15.28-4-30.6-.11-45.92h0c12.11-1.92,16.8,1,16.77,12.4C821.05,428.83,822.7,441.19,813.26,450.72Z"/><path class="cls-24" d="M813.26,450.72C816,440,817,429.1,817.53,418.09c.42-9.46-3-14.58-13.22-13.23,3.9-3.65,8.75-1.67,13.17-2.19,7.35,2.26,10,7.24,8.82,14.71-1.76,11.26,4.06,22.05,2.26,33.33Z"/><path class="cls-25" d="M780.12,404.87H793.3c6.37,7.42.79,16.24,2.76,24.28,1.15,4.7-1,9.82,3.16,14.35,3.39,3.7-.94,5.53-3.56,7.33l-17.91-2.49c.65-3.1,10-2.66,2.4-7.87-3.39-2.31-.91-5.54.13-8.72C783.19,422.89,784.33,413.79,780.12,404.87Z"/><path class="cls-19" d="M795.66,450.83c.73-1.25,2.33-3.32,2.05-3.62-12.17-13-3.48-28.21-4.41-42.34h11c-.21,9.89,3.71,19.93-2,29.64-3.28,5.55,5.94,10.21,2.12,16.28Z"/><path class="cls-34" d="M1133.72,503.91a4.14,4.14,0,0,0,4.65,1.86,1.35,1.35,0,0,0,1.61.5c8.7,9.59-.33,8-5.58,8.87-1.23.73-2.55,1.6-4,1.52-4.46-.25-10.69,3.33-12.2-4.22-1-5.22,5.59-10.08,12.62-9.91C1132,502.56,1132.82,503.35,1133.72,503.91Z"/><path class="cls-35" d="M989,402.63H1002l36.06,0c1.09,0,2.19,0,3.28,0,8.17-.27,16.33,6.06,24.5,0,15.09,2.47,30.29.37,45.42,1.13,4.64.24,9.41-1.16,13.89,1.07,1.38,3.19-3.45,9.11,5.15,9.18,12.54.09,15,3.45,13.4,17.11-.76,6.31,2,8.1,6.51,5.62,9.68-5.38,12.61,1.92,16.69,7.63h-4.39c-10.11,6.18-21.76,2.35-32.5,4.89-5,1.19-10.56.29-15.77,1.5l-70.4.29c-2.13.27-1.22-4.45-6-2.16-5.38,2.56-11.43-3.17-13.31-8.69-1.8-5.26,4.37-6.78,8-8.56a54.28,54.28,0,0,1,9.12-3.46c2.94.49,5.08,2.79,7.92,3.48,2.56.62,5.24.89,6.6-2a7.8,7.8,0,0,0-.19-6.36c-1.32-3.14-3.81-2.76-6.4-1.92-2.75.88-5.32,2.34-8.27,2.61-1.48,0-3.6-.22-3.83-1.48-2.33-12.85-12.43-13.25-22.23-14.14-3.32-.3-6.48-.84-8.78-3.58h-24C984.64,401.63,987.05,403.18,989,402.63Z"/><path class="cls-36" d="M1041.54,429.05c-3.92,4.79-9.54,6.94-15.13,9.82,2.83,3.58,7.66,5,9.08,9.73,5-2.53.79-7.86,5.83-10.2.87,4.35,1.72,8.53,2.56,12.71l-28.59,0c-.66-1.22-1.28-3.49-2-3.51-9.3-.34-16.67-1.17-4.47-10.59a3.69,3.69,0,0,0,.63-2.73c-9.86-5-3.05-10.6-.57-16,2.3-5-3.67-8.55-2.39-13.38,7.71,1,15.27-.16,23.35,2.37,8.58,2.69,11.77,5.1,9.14,13.62-.08.25,1.6,1,2.47,1.58C1043.55,424.62,1043.54,426.82,1041.54,429.05Z"/><path class="cls-31" d="M1219.67,402.68l4.43,0,24.15,0h0c.58,3.95-2.45,4.4-5.06,5.25-8.53.4-14.47,2.39-8.63,12.73,1.25,2.22.63,5.1-.82,7.28-3.14,4.73-6.13,9.06.57,13.61,2.35,1.59.55,4-1.49,5.11-2.79,1.56-6.37,1.44-8.78,3.92l-28.41.06c6.22-2,12.72-3.57,8.16-12.9-1-2,.24-6.34,2-8.17,3.91-4.14,2.34-7,.15-11.27-4.35-8.52-1.8-12.33,7.79-13.41C1215.92,404.63,1218.05,404.44,1219.67,402.68Z"/><path class="cls-23" d="M1270.25,402.65h9.85c-7.15,15.64-.24,32.46-5.55,47.9l-21.72.05c6.81-9.14,2.47-19.26,2.42-29-.09-16.52-.28-16.52,15-19Z"/><path class="cls-37" d="M1224,450.57c.41-5.24,4.85-5.66,8.75-7-9.29-3.19-10.64-7.36-4.25-14.25,2.67-2.88,4.87-4.83,2.89-9.24-6.37-14.2-5.83-14.85,10.24-15.25,7.47,5.36,9.1,14,10.76,21.91,1.25,6-1.73,11.66-8.94,13.07,2.36,1.66,7.75,1.41,7.11,6.13-.66,4.95-5.39,3.77-8.9,3.93a10.54,10.54,0,0,0-4.27.7Z"/><path class="cls-22" d="M1237.43,450.61c3-3.18,8-.3,11-3.92,0-4.42-5-3.08-6.87-5.7,6.17-6.78,12.61-13.21,3.46-22.78-3-3.1-.52-9.24-3.35-13.34,2.43,0,4.89,0,6.58-2.2h22c-2.2,2.51-5.23,2.08-8.08,2.29s-5.66,1.88-4.58,4.64c3.57,9.11-.27,18.88,3.13,27.93,2.81,7.46.58,12.23-7.87,13.06Z"/><path class="cls-38" d="M1301,450.68a68,68,0,0,0,5.76-32.59c-.51-7.8,1.63-13.25,9.6-15.42l4,.95c-9.35,15-.13,31.64-4.19,47.11Z"/><path class="cls-6" d="M1114.28,450.82c15.63-5.61,31.88-6.5,48.27-6.39,2.65,4.86-3,4.06-4.25,6.2Z"/><path class="cls-39" d="M999.92,521.27c-6.63-5.1-15.29.74-22-4.08,14.28-6.55,29.43-2.28,44.14-3.52,29-.4,58.07.45,87.12-.41,8-.23,16.15,3,24.4,3.43a10.92,10.92,0,0,1,3.16.75c1.34.79.86,1.5-.49,1.63-7.58.78-15.15,2.13-22.73,2.17C1075.68,521.44,1037.8,521.3,999.92,521.27Z"/><path class="cls-40" d="M1133.62,516.69l-111.74-.11a2.73,2.73,0,0,1,1-3.47,10,10,0,0,1,3.72-1.44c19.18-.41,38.37-.07,57.55-.2,3.65,0,7.31.11,11-.19,2.61-.36,5.4-.82,5.6-4.1.66-10.51,7.28-12.17,15.93-11.12a5.13,5.13,0,0,0,4.12-1l6.59,2.11c2.27,2.1,5.84,3,6.33,6.74-6,.81-11.09,2.78-13.56,10l14.24,1.19A5.64,5.64,0,0,0,1133.62,516.69Z"/><path class="cls-41" d="M1314.18,365.3c1.75,10.41-2.46,13.87-13,13.51-10.24-.34-20.87-2.62-30.92,1.86H805.43c-16.51,0-16.53,0-16.54-16.27,0-86.07.17-172.14-.22-258.21,0-10.46,2.71-13.67,13.44-13.64q196.14.52,392.27.23c9,0,18.06.34,25.19-6.67q-1.21,3.2-2.41,6.39a6.54,6.54,0,0,1-1.05,4.84c-3.67,3.6-4.2,10.12-10.5,11.3-.38,0-1,.18-1.09,0-8.71-11.86-21.44-9.16-33.37-9.17q-172.43,0-344.85,0c-4,0-8.06-.11-12.08.1-14.72.8-18.6,4.8-18.61,19.57q-.06,116.41,0,232.83c0,16.22,1.48,17.14,17.82,16,20.09-1.46,40.24-.35,60.36-.38q203.17-.33,406.35-.08c5.81,0,13.83-2.16,16.83,2.24,5.23,7.66,5.59,1.12,7.86-1.2C1307.39,365.89,1309.87,362.85,1314.18,365.3Z"/><path class="cls-42" d="M1055.89,80.91a2.61,2.61,0,0,1-2.61,2.74c-1.83.13-3.7-.1-4.21-2.29s.78-3.34,2.86-3.41S1055.18,79.11,1055.89,80.91Z"/><path class="cls-43" d="M1125.19,404.88c-16,0-31.94.05-47.92-.06-3.88,0-8.07,1.09-11.39-2.14h80.46c0,.74,0,1.47.05,2.2Z"/><path class="cls-44" d="M1215.12,94.62l2-2.12q42.67.12,85.35.27c5.09,0,10.71-.77,11.68,6.59-1.82,2.84-1.29,6.29-2.47,9.37-2,5.28-4.44,8.5-10.35,4.61-3.3-2.17-7-1.57-10.64-1.29-17.06,1.36-34.15-1.67-51.22.4-5.89.71-11.61-1.11-17.12-2.93C1215.14,107.12,1211.14,102.7,1215.12,94.62Z"/><path class="cls-45" d="M1215.12,94.62c-.26,14.89,13.22,13.65,20.39,13.51,20-.41,40.26,2.32,60.19-1.53,5.43-1,7.54,3.33,10.7,6.32l7.79-13.56q0,7.69,0,15.39c-.1.51-.2,1-.29,1.52-5.36,10.68-16.26,9-24.77,9-9.38.09-19.84,1.47-28.45-5.11a5.46,5.46,0,0,0-6.26-.13c-12.28,8.75-27,2.46-40.23,6.72-8.13,2.63-11.06-2-8.38-10.64a24.69,24.69,0,0,0,1.26-7.42,9.44,9.44,0,0,1,1.27-2.8C1208.25,100.75,1211.25,97.42,1215.12,94.62Z"/><path class="cls-46" d="M1334,108.14l0,19.82c-3.08,9.63-10.84,6.71-17.57,6.56-5.61-10.52-4.23-17.19,5.88-21.81,4.21-1.93,6.19-7.42,11.69-6.75C1334,106.69,1334,107.41,1334,108.14Z"/><path class="cls-18" d="M1334,106c-2.84,5.08-3.9,11.93-12.56,10.58-3.73-.58-4.41,3.3-4.72,6.07-.43,3.93-.22,7.94-.29,11.91l-2.14,2.27a7.39,7.39,0,0,1-2.62-3c-2.76-6.84-.54-13,2.55-19.07h0c.7-1.61,1.84-3.18,2-4.85,1.39-12,4.79-14.4,16.17-10.53C1335.72,100.5,1333.32,103.77,1334,106Z"/><path class="cls-47" d="M1208.38,105.93l.45,2.27c-2.09,9-8.61,15.56-12.85,23.38-4.18,5.63-6.94,12.18-11.42,17.61-6.19,8.27-10.3,17.78-15.81,26.45-6.62,8.08-11.33,17.39-16.87,26.16-2.55,3.7-4.34,7.88-7.13,11.43-8.43,9.93-13.12,22.37-21.68,32.22-3.44,3.72-5.69,8.28-8.61,12.36-4.13,9.14-10.84,16.85-14.37,26.33-10,12.59-17.71,26.32-22,42.18,54.42-.86,107.94-.3,161.45-.36,17.87,0,35.81-1.16,53.54,1.94,4.73.83,5.87-1,5.85-5.11a82.55,82.55,0,0,1,.32-8.75c1.18-11.3,3.89-12.75,14.92-8.07q0,9.88,0,19.78c-1.43,11-4.65,22,0,33v6.59c-6.82,5.68-11.92,15.34-23.41,9.95,1.56-2.91,5.82.71,7.62-3.35H873.06c-18.59,0-37.2.46-55.76-.24-6.57-.25-12,6.51-19.67,1.17-4-2.81-6.59-4.37-6.59-9.5q.15-127.45,0-254.89c0-12.32,11-8.94,16.59-13.24,1.17-.9,3.56-.23,5.39-.23H1199.7c2.15,0,4.31.21,6,.3C1209.12,98.62,1192.91,105.74,1208.38,105.93Z"/><path class="cls-48" d="M1314.14,306c-15.13.39-10.51,11.62-10.89,20-.18,4-.1,8.08-4,12.07-4.93-10.95-14.89-7.67-23.13-7.71-62.23-.35-124.47-.19-186.71-.21-3.74,0-7.26.3-10.19,3.08-1.51,1.42-3.55,3.68-5.47,1.48-1.2-1.37-1.86-4.59-1.07-6.11,4-7.66,3.19-16.95,9.52-23.95s5.76-19,16.59-22.85c1.46,0,3.23-.59,4.32.17,13.81,9.51,29.49,6.26,44.54,6.35,46.38.27,92.78-.17,139.16.29,10.66.1,18.65-1.87,22-13.14.77-2.59,1.78-6,6-4.42.48,7.27,1.44,14.55-.59,21.75Z"/><path class="cls-49" d="M1334,231.25q0,20.87,0,41.74c-3.19-7.93-11.41-7.8-17.57-11-5.13-4.69-2.66-10.84-3.15-16.42a10.59,10.59,0,0,1,1.39-5C1321.48,238.31,1328.52,236.42,1334,231.25Z"/><path class="cls-41" d="M1314.18,358.71c-9.42-11-2.8-22,0-33Q1314.19,342.22,1314.18,358.71Z"/><path class="cls-50" d="M1316.39,244.41q0,8.81,0,17.6c-1.07,10.23,2.32,20.78-2.2,30.77q0-11,0-22c-5-4.77-2.63-11-3.22-16.58.13-3.2-.14-6.49,2-9.26A2.6,2.6,0,0,1,1316.39,244.41Z"/><path class="cls-51" d="M1166.79,174c4.47-9.2,8.15-18.86,15.53-26.34,14,9.31,29.8,6.22,45.13,6.77,25.09.89,50.31-2.45,75.29,2.23,4.15.78,7.13-3.94,11.43-2.39l.07,15.38c2.24,2,2.24,4.46,1.6,7.09-2.6,7.95-6.78,13.09-16.48,12-32-3.53-64.15-.87-96.22-1.63-7.66-.18-15.36.44-22.94-1C1173.31,184.92,1167.66,182.07,1166.79,174Z"/><path class="cls-52" d="M1314.17,154.31c-3,1.36-3.73,4.19-5,6.88-1.6,3.47-5,5.7-7.44,1.7-3.38-5.43-8.12-4.11-12.62-4.13-27.45-.11-54.9-.35-82.34.1-10.33.17-20.24,1.23-24.47-11.16l11-17.49c3.2.47,6.08,2.33,9.54,1.85,26-3.61,52.26-1.38,78.39-1.54,9.29-.06,19.73-3,27.53,5.53,1.34-2,2.87-3.39,5.34-1.56,0,.76.07,1.53.11,2.29Z"/><path class="cls-17" d="M1316.39,244.41l-2.16,0c-4.88-4-2.4-10-4.12-14.88-1.17-7,.91-13.9.83-20.87,0-2.32,0-4.65.29-6.95s1.43-4.09,1.74-6.27c2.59-18.72,2.6-18.72,21-23.55l0,6.55q0,13.18,0,26.38l0,0c-9.6,6.69-15.84,15-14,27.6.42,2.87-1.43,5.47-3.57,7.56C1316.4,241.49,1316.39,243,1316.39,244.41Z"/><path class="cls-20" d="M1334,171.92c-2.48,1-1.45,5.69-4.65,5.17-14.44-2.32-13.38,7.2-13,16.42.12,2.55-.14,5-2.13,7-2.55-1.63-3-4.35-3.61-7,1.13-5.75.42-11.89,3.53-17.25,0-2.19,0-4.39.08-6.58.69-1.63,1.5-3.21,2.07-4.88,1.36-4-3-11,3.94-11.64,4.75-.45,9.37,3.52,11,9.51q.51-3.84,1-7.68l1.68.09Z"/><path class="cls-50" d="M1316.4,240V227.1c0-17.32,0-17.32,17.57-22.23v26.38C1332,241.91,1325.71,244,1316.4,240Z"/><path class="cls-53" d="M1021.88,514.86v1.72l-43.92.61-6.75-.69c3-3.3,7.09-1.4,10.64-2,1.52-2.8,5.47-1.16,7-3.91-1.28-4.79-8.83-8.19-3.08-14.39,3.55-.11,7.09-.09,10.63,0,4.82,3.11,1.06,12,8.84,13.1C1011,510.46,1017.49,509.54,1021.88,514.86Z"/><path class="cls-54" d="M997.62,497.23l-13.1-.06c-2.08,1.81-4.18,2-6.33.11l1.83-2.37,140.78.15c-2,2-4.51,2.27-7.06,2.09-6-.43-8.84,2-8.38,8.17s-2,9.8-8.76,9.38l-2.19-2.28c-.71-.8-1.4-1.6-2.09-2.42-3.39-4.4-7.71-2.53-12-2-8.51,1.11-16.86.73-25.57-.11-16.36-1.58-33.35-3.71-49.41,3.16C999.46,508.32,1002,500.87,997.62,497.23Z"/><path class="cls-55" d="M991.18,512.51c1.27.5,3.46,1.38.39,2s-6.46,0-9.71-.06c-5.11-2.75-8.81-7.94-15.1-8.59l6.13-4.58C983.53,497.63,987.1,505.48,991.18,512.51Z"/><path class="cls-56" d="M991.18,512.51c-6.54-3-9.79-11.4-18.29-11.23l5.3-4,6.33-.11C985.25,502.93,993.59,505.39,991.18,512.51Z"/><path class="cls-57" d="M1041.54,429.05c0-2.2-.06-4.41-.08-6.61,4.12-4.32,9.52-7.93,15-6,7.32,2.52,3,10.7,5,16.09.64,1.72-1.93,4.31-5.25,4.12C1050.13,436.26,1043.57,437.15,1041.54,429.05Z"/><path class="cls-58" d="M1004.29,510.35c3.67-7.81,10.53-7.56,17.54-7,14.38,1.22,28.88-.67,43.23,2.51,5.53,1.22,11.5-.37,17.26-1.72s11.88-1.27,14.28,6.2c-8.15,4.68-17,1.35-25.5,1.94-13,.91-26.11.25-39.18.23-2.78,0-5.92-1.12-7.84,2.14l-2.2.17-19.72-2.33Q1001.31,509.56,1004.29,510.35Z"/><path class="cls-59" d="M1024.08,514.69c-3.72-3.84-3.6-7,2.41-5.9,23.32,4.17,46.79-.62,70.11,1.59,0,.72,0,1.44,0,2.16-3.26,2.72-7.67-.43-11,2.15Z"/><path class="cls-58" d="M1085.63,514.69c3.17-3.2,7.24-1.78,11-2.15,0,.72,0,1.44,0,2.16Z"/><path class="cls-60" d="M1314.15,134.49c-2.74-.57-4.34,2-7.78,1.64-31.14-3.07-62.43-1.14-93.67-1.53a15.25,15.25,0,0,0-7.29,1.48c-7.08,3.91-10.92,2-12.06-5.88,4.63-7.71,7.82-16.42,15.48-22,5.07,5.4-.9,9.24-2.32,14.77,5.78-1.19,12,4.57,16.34-3.78,1.29-2.48,3.65,1.11,5.54,1.26,7.73.63,15.68,3.51,22.55-3.41,3.77-3.8,8.49-2.73,13.06-.29,10.89,5.84,21.58,7.45,33.93,2.38,4.68-1.92,11.73,1.1,16.26-4.39Q1314.18,124.61,1314.15,134.49Z"/><path class="cls-61" d="M1314.18,207.05q0,11,0,22c-3,8.09-1.87,16.55-2.26,24.87-.1,2.14-.06,4.69-2.58,5.49-2.77.88-3.95-1.67-4.74-3.46-2.21-5.1-6.32-5.14-10.91-5.1-47.88.45-95.75.11-143.62.2a50.62,50.62,0,0,0-17.13,2.74c-7.54,2.65-11.52-.89-12.15-9.37,7.12-11.13,12.36-23.5,22-32.95a32.17,32.17,0,0,0,14.86,2.71c41.92-1.08,83.85-.31,125.78-.45,8.16,0,16-.35,22.79-5.71C1308.52,206.18,1311.22,204.88,1314.18,207.05Z"/><path class="cls-20" d="M1314.18,253.22q0,8.79,0,17.58c-5.13,5.79.4,16.75-10,20.19-2.26.75-4,2.43-6.86,2.41-57.46-.33-114.92-.88-172.37-.27-11.37.12-18.87-4.26-26.14-11.35-.77-11.38,10.83-16.56,13.2-26.36,3.55.7,7.57.17,10.46,2.73,9.62,8.54,21.18,8.44,33,8.39,43.5-.22,87-.09,130.51-.09,1.82,0,3.75-.38,5.46.08,11.76,3.14,19.27-.13,20.73-13.15C1312.24,253.05,1313.4,253.05,1314.18,253.22Z"/><path class="cls-62" d="M1314.18,253.22c-4.59,5.63.36,17.2-6.75,18.45-5.79,1-13.46-.76-20.27-.79-47.4-.17-94.8-.25-142.2.05-9.91.07-18.17-2.62-24.66-9.88-1.27-1.42-1.59-1.93-3-.91-8.87,6.36-4-2.67-5.28-4.72,2.91-3.68,4.39-8.51,8.78-11,3.5,4.94,6.3,11.22,13.45,3.29,1.6-1.78,6.25-1,9.49-1q71.31-.09,142.61,0c2.93,0,6.28.9,8.7-.2,11.29-5.17,14.45-.38,13.34,10.94,2.72-9.79-1-20.14,5.8-28.32l.06,15.4Q1314.22,248.82,1314.18,253.22Z"/><path class="cls-63" d="M1314.16,176.27q0,8.8,0,17.61c-3.92,12.92-9.08,16-23.18,13.67a86.3,86.3,0,0,0-15.31-.82c-35.82.56-71.64-.93-107.46.69-6.36.29-15.87,4-18.85-7,5.34-9.12,8.81-19.47,17.45-26.4,6.54,8.57,15.67,9.05,25.46,9,29.66-.31,59.35.4,89-.45,8.19-.23,16.08,1.85,24.52,1.26C1313.46,183.26,1307.21,172.94,1314.16,176.27Z"/><path class="cls-46" d="M1149.34,200.44c6.55,4.61,14.42,4,21.38,3.47,39.38-3.06,78.76-.26,118.13-1.11a12.94,12.94,0,0,1,6.16,1.85c4.1,2.25,7.09,2.57,7.37-3.24.1-1.87-.29-4.07,2.33-3.77,2.91.33.86,4,3.43,5.56l6-9.32c0,2.2.07,4.41.1,6.61l-.06,6.56c-9.11,9.6-20.4,11.27-33.23,11.25-44-.06-88-1.61-131.93,1-6.52.39-7.57-2.51-6.25-7.83Z"/><path class="cls-64" d="M1004.29,510.35l-2.13,2.18c-5.48-3.92-9.86-8.17-4.54-15.3C1011,495.93,1002.48,505.77,1004.29,510.35Z"/><rect class="cls-65" width="1434" height="581"/><path class="cls-66" d="M155.1,195.28v11.95h9.58v10.64H155.1v24.8c0,4,1.94,5.85,6.1,5.85a22.26,22.26,0,0,0,3.43-.24v10.4a32.36,32.36,0,0,1-6.72.58c-12.19,0-16.93-4.06-16.93-14.17V217.87h-7.3V207.23H141V195.28Z"/><path class="cls-66" d="M219,243.2c-1.54,10.16-10.83,17-23.64,17-16,0-25.53-10.21-25.53-26.79s9.67-27.27,25-27.27c15.08,0,24.61,10.2,24.61,26v4.3H183.69v.88c0,7.39,4.69,12.47,11.89,12.47,5.17,0,9.14-2.56,10.45-6.53Zm-35.15-15.47h22c-.29-6.63-4.59-11.17-10.88-11.17S184.31,221.25,183.83,227.73Z"/><path class="cls-66" d="M226.68,207.23h13.63v9.38h.29a15.22,15.22,0,0,1,14.8-10.35c7.5,0,12.72,3.87,14.46,10.64h.29c2.32-6.53,8.51-10.64,16.1-10.64,10.16,0,17,7,17,17.41v35.39H289.11V227.2c0-6-3-9.29-8.47-9.29s-8.89,3.92-8.89,9.67v31.48H258.16v-32.3c0-5.56-3.15-8.85-8.37-8.85-5.37,0-9,4.07-9,9.87v31.28H226.68Z"/><path class="cls-66" d="M310.2,244.17c0-9.43,7.25-14.89,20.16-15.67l13.06-.77V224.3c0-4.84-3.39-7.64-8.71-7.64s-8.61,2.61-9.28,6.43H312.52c.53-10.06,9.09-17,22.82-17,13.3,0,22,6.86,22,17.31v35.63H343.66v-7.93h-.29c-2.9,5.52-9.33,8.76-15.81,8.76C317.69,259.89,310.2,253.5,310.2,244.17Zm33.22-4.11v-3.77l-10.93.68c-5.27.38-8.27,2.75-8.27,6.43,0,3.86,3.19,6.28,8,6.28C338.34,249.68,343.42,245.67,343.42,240.06Z"/><path class="cls-66" d="M367.79,236.87V224.54h31.77v12.33Z"/><path class="cls-66" d="M409.58,224.05c0-22.53,10.88-36.36,28.48-36.36s28.43,13.78,28.43,36.32-10.74,36.6-28.43,36.6S409.58,246.64,409.58,224.05Zm42.06,0c0-15.9-5-24.66-13.58-24.66s-13.64,8.8-13.64,24.66,5,24.86,13.64,24.86S451.64,240.06,451.64,224.05Z"/><path class="cls-66" d="M508.71,246.25H474V234.06c6.09-11.55,13.68-23.74,28-44.77h20.6V234.6h9.18v11.65h-9.18v12.81H508.71Zm-22-11.27H509V199.73h-.29c-10.11,14.56-16.44,24.47-22,34.87Z"/><path class="cls-66" d="M532.41,274.78V264.24H578.3v10.54Z"/><path class="cls-66" d="M580.38,262.74h13.83c1.11,3.58,5.18,6,10.54,6,7.3,0,11.37-4.06,11.37-10v-9.1h-.29c-2.42,5.52-8.51,9.29-16,9.29-12.67,0-21-9.77-21-26,0-16.44,8.12-26.54,21.27-26.54,7.45,0,13.3,3.91,16,9.86h.24v-9h13.93v51.11c0,12.38-10.35,20.26-25.87,20.26C590.73,278.6,581.49,272,580.38,262.74Zm35.78-29.69c0-9.33-4.49-15.33-11.55-15.33s-11.37,5.9-11.37,15.33,4.36,15,11.37,15S616.16,242.43,616.16,233.05Z"/><path class="cls-66" d="M639.43,207.23h13.63v9.33h.29c1.84-6.58,6.24-10.15,12.34-10.15a14.41,14.41,0,0,1,4,.53v12.42a14.65,14.65,0,0,0-5.13-.82c-7,0-11,4.26-11,11.56v29H639.43Z"/><path class="cls-66" d="M723.33,259.06H709.69v-9.33h-.29c-2.56,6.53-7.69,10.3-15.52,10.3-11.22,0-18.67-7.3-18.67-19.39V207.23h14.12v30.46c0,6.92,3.44,10.59,9.68,10.59s10.2-4.5,10.2-11.36V207.23h14.12Z"/><path class="cls-66" d="M732.52,207.23h13.64v9.23h.29c2.75-6.43,8.22-10.2,16.2-10.2,11.51,0,18,7.25,18,19.39v33.41H766.51V228.6c0-6.77-3.19-10.64-9.52-10.64s-10.35,4.64-10.35,11.37v29.73H732.52Z"/><path class="cls-66" d="M787.7,233.05c0-16.44,8.22-26.64,21.23-26.64,7.49,0,13.3,4,15.81,9.71H825V189.29h14.12v69.77H825.22v-8.89H825c-2.51,5.7-8.51,9.72-16.15,9.72C795.87,259.89,787.7,249.63,787.7,233.05Zm14.46.1c0,9.52,4.35,15.37,11.46,15.37s11.51-5.9,11.51-15.37-4.5-15.43-11.51-15.43S802.16,223.67,802.16,233.15Z"/><path class="cls-66" d="M848.92,189.29H863v69.77H848.92Z"/><path class="cls-66" d="M909.51,250.31h-.43c-3.63,5.95-10.11,9.58-18.86,9.58-12.23,0-19.78-6.39-19.78-15.72s7.21-14.84,20.51-15.57l12.86-.72V225c0-4.79-3.92-8.36-9.29-8.36-5.07,0-8.8,2.66-9.23,6.48H872.57c.48-10.11,9-17,21.62-17,8.27,0,14.45,3,17.26,7.78h.39c3.48-4.93,9.28-7.78,17.07-7.78,14,0,23.3,10,23.3,26v4.26h-35.3v.92c0,7.35,4.74,12.47,11.8,12.47,5,0,8.8-2.56,10.16-6.53h13c-1.55,10.16-10.74,17-23.31,17C919.86,260.18,912.8,256.36,909.51,250.31Zm-5.7-10.25v-3.63l-11.17.73c-5.42.39-8.71,2.61-8.71,6.29s3.49,6.43,8.27,6.43C898.63,249.88,903.81,245.38,903.81,240.06Zm13.25-12.33h21.56c-.24-6.72-4.35-11.17-10.49-11.17S917.54,221.2,917.06,227.73Z"/><path class="cls-66" d="M959.23,262.74h13.83c1.11,3.58,5.18,6,10.54,6,7.31,0,11.37-4.06,11.37-10v-9.1h-.29c-2.42,5.52-8.51,9.29-16,9.29-12.67,0-21-9.77-21-26,0-16.44,8.12-26.54,21.27-26.54,7.45,0,13.3,3.91,16,9.86h.24v-9h13.93v51.11c0,12.38-10.35,20.26-25.87,20.26C969.58,278.6,960.34,272,959.23,262.74ZM995,233.05c0-9.33-4.49-15.33-11.55-15.33s-11.37,5.9-11.37,15.33,4.36,15,11.37,15S995,242.43,995,233.05Z"/><path class="cls-66" d="M1018,262.74h13.83c1.11,3.58,5.17,6,10.54,6,7.3,0,11.36-4.06,11.36-10v-9.1h-.29c-2.41,5.52-8.51,9.29-16,9.29-12.67,0-21-9.77-21-26,0-16.44,8.13-26.54,21.28-26.54,7.45,0,13.3,3.91,16,9.86h.25v-9h13.92v51.11c0,12.38-10.34,20.26-25.87,20.26C1028.34,278.6,1019.1,272,1018,262.74Zm35.78-29.69c0-9.33-4.49-15.33-11.56-15.33s-11.36,5.9-11.36,15.33,4.35,15,11.36,15S1053.77,242.43,1053.77,233.05Z"/><path class="cls-66" d="M1124.33,243.2c-1.55,10.16-10.83,17-23.65,17-16,0-25.53-10.21-25.53-26.79s9.67-27.27,25-27.27c15.09,0,24.61,10.2,24.61,26v4.3H1089v.88c0,7.39,4.69,12.47,11.89,12.47,5.18,0,9.14-2.56,10.45-6.53Zm-35.16-15.47h22c-.29-6.63-4.59-11.17-10.88-11.17S1089.66,221.25,1089.17,227.73Z"/><path class="cls-66" d="M1132,207.23h13.64v9.23h.29c2.75-6.43,8.22-10.2,16.2-10.2,11.51,0,18,7.25,18,19.39v33.41H1166V228.6c0-6.77-3.19-10.64-9.52-10.64s-10.35,4.64-10.35,11.37v29.73H1132Z"/><path class="cls-66" d="M1187.2,233.05c0-16.44,8.22-26.64,21.23-26.64,7.49,0,13.3,4,15.81,9.71h.29V189.29h14.12v69.77h-13.93v-8.89h-.24c-2.51,5.7-8.51,9.72-16.15,9.72C1195.37,259.89,1187.2,249.63,1187.2,233.05Zm14.46.1c0,9.52,4.35,15.37,11.46,15.37s11.51-5.9,11.51-15.37-4.5-15.43-11.51-15.43S1201.66,223.67,1201.66,233.15Z"/><path class="cls-66" d="M1295.38,243.2c-1.55,10.16-10.84,17-23.65,17-16,0-25.53-10.21-25.53-26.79s9.67-27.27,25-27.27c15.09,0,24.61,10.2,24.61,26v4.3h-35.73v.88c0,7.39,4.69,12.47,11.89,12.47,5.18,0,9.14-2.56,10.45-6.53Zm-35.16-15.47h22c-.29-6.63-4.59-11.17-10.88-11.17S1260.71,221.25,1260.22,227.73Z"/><path class="cls-66" d="M185.08,377.91H171.45v-9.33h-.29c-2.56,6.53-7.69,10.3-15.52,10.3-11.22,0-18.67-7.3-18.67-19.39V326.08h14.12v30.46c0,6.92,3.43,10.59,9.67,10.59s10.2-4.5,10.2-11.36V326.08h14.12Z"/><path class="cls-66" d="M215.31,359.92l-9.72,18H190.75L207,352.09l-16.16-26h15.91l9.34,17.5h.29l9.18-17.5h15.38l-16.2,25.62,16,26.21H225.47l-9.87-18Z"/></svg>
