<svg id="Layer_1" data-name="Layer 1" xmlns="http://www.w3.org/2000/svg" width="749" height="460" viewBox="0 0 749 460"><defs><style>.cls-1{fill:#8f9191;}.cls-2{fill:#999f97;}.cls-3{fill:#3b3a3f;}.cls-4{fill:#010102;}.cls-5{fill:#d9ded6;}.cls-6{fill:#dce1da;}.cls-7{fill:#d8ded6;}.cls-8{fill:#37363b;}.cls-9{fill:#060607;}.cls-10{fill:#b9beb6;}.cls-11{fill:#9ea29c;}.cls-12{fill:#c9cec5;}.cls-13{fill:#a9b0a8;}.cls-14{fill:#b8bdb6;}.cls-15{fill:#afb4ad;}.cls-16{fill:#232227;}.cls-17{fill:#16151a;}.cls-18{fill:#302f34;}.cls-19{fill:#999f98;}.cls-20{fill:#1d1c21;}.cls-21{fill:#9ea59d;}.cls-22{fill:#c6ccc3;}.cls-23{fill:#c0c7bd;}.cls-24{fill:#a2aaa2;}.cls-25{fill:#939894;}.cls-26{fill:#b1b6af;}.cls-27{fill:#373534;}.cls-28{fill:#d1d5ce;}.cls-29{fill:#7d7e7c;}.cls-30{fill:#e5e6e2;}.cls-31{fill:#d2d7ce;}.cls-32{fill:#c1c6bd;}.cls-33{fill:#cdd1c7;}.cls-34{fill:#e1e1df;}.cls-35{fill:#dfe4dd;}.cls-36{fill:#dbe0d9;}.cls-37{fill:#ccd0c7;}.cls-38{fill:#a9aca5;}.cls-39{fill:#2a2725;}.cls-40{fill:#afb0aa;}.cls-41{fill:#131416;}.cls-42{fill:#0d0d0d;}.cls-43{fill:#e6ebe5;}.cls-44{fill:#47464b;}.cls-45{fill:#434246;}.cls-46{fill:#2a292e;}.cls-47{fill:#17161b;}.cls-48{fill:#1a191e;}.cls-49{fill:#0a0a0d;}.cls-50{fill:#101013;}.cls-51{fill:#333237;}.cls-52{fill:#38373c;}.cls-53{fill:#b0b0ac;}.cls-54{fill:#9c9c9c;}.cls-55{fill:#c8c9c4;}.cls-56{fill:#bbbcb8;}.cls-57{fill:#121511;}.cls-58{fill:#989996;}.cls-59{fill:#91928d;}.cls-60{fill:#3f3e43;}.cls-61{fill:#242328;}.cls-62{fill:#201f24;}.cls-63{fill:#2d2c31;}.cls-64{fill:#a5a6a1;}.cls-65{fill:#edde41;opacity:0.7;}.cls-66{fill:#fff;}</style></defs><title>tema_4_button</title><path class="cls-1" d="M327.24,345.9l-1.62.33-146.24-.31c-5.76,1.11-10.3-1.49-14.61-4.8a129.06,129.06,0,0,1,.16-33.95l4.74.26a8.85,8.85,0,0,0,3.7,1.51,7.47,7.47,0,0,1,1.85,1.13c2.05,1.82,1.95,4.26,2.12,6.71.57,8.18-3.49,16-.17,24.35,1.84-.89,4.87.68,8.05.8,2,0,4.05,0,6.08,0s4.35-.3,6.53-.14c3.68-.35,7.36-.79,11-.09,3.84-.89,7.63.55,11.46.22,6.84-.66,13.73.77,20.54-.63,4.42-.09,8.85,1.34,13.26-.1,6.43-.67,12.84.63,19.26.14,4.92-.39,9.83,1.56,14.75,0,5.41-.13,10.82,1.45,16.23-.07,7.33,1.31,14.95-.51,22.17,2A2,2,0,0,1,327.24,345.9Z"/><path class="cls-2" d="M520.59,346.09h-3.26c-30.39,0-60.78,0-91.16-.1-11.44-.05-2.88,7.52-4.47,11.19a1.5,1.5,0,0,1-.89,2.33c-28-1.05-55.95-.2-83.92-.5-3.39,0-7.07.94-10-1.91-.47-3.75,2.32-7.41.32-11.2,0-.42,0-.84-.05-1.26a5.27,5.27,0,0,1,2.1-2.11c5.84-2.14,11.91.43,17.79-.88,7.07-1.69,14.1,1.2,21.16.13,17.13-1.55,34.29-.37,51.44-.72,10.77,1.82,21.63.48,32.44.89,9.2.5,18.35-.71,27.53-.85,6.9,2.16,14-1.21,20.86.48a35.71,35.71,0,0,0,10.22,0,79.77,79.77,0,0,0,11.57.35c5.29.72,10.54-1.19,15.84-.27,4.28,0,8.57-.69,12.82.28,2.38.05,4.76,0,7.14,0,3.87-.07,7.76-1.09,11.63.09,2.13.25,4,.81,4.72,3.2a2.63,2.63,0,0,1-2.6,1.53"/><path class="cls-3" d="M502.7,64.94h6.5c20.14,0,40.27.06,60.4,0a41.61,41.61,0,0,1,12.67,1.68c1.15,3.5,4.34,6.54,2.4,10.72-.26.52-.67,1.12-1.1,1-15.05-2.56-30.44-.72-45.41-2.95-9.92-1.47-19.47-3.32-29.58-1.51C503.48,74.8,501.42,71,502.7,64.94Z"/><path class="cls-4" d="M431.2,64.79l69.62.35c2.22,4.82,1,8.76-3,12-3.05,3.57-7,4.76-11.58,4.77-3.79,0-7.58.06-11.37.06h-280c-12.58,0-13,.36-13,13.29q0,90.92,0,181.82c0,12.44,1.23,13.3,13.68,12.38,15.37-1.13,30.77-.17,46.16-.21,97.67-.26,195.35,0,293-.2,7.48,1.46,15.07,1,22.6.84s9.41-2.16,9.56-9.89c.25-12.93-.39-25.87,1.63-38.76.8-5.08,2.79-8.13,8.06-8.14,4,0,6.64,1.47,6.62,6.2-.11,18.91,0,37.81-.1,56.71,0,3.25-1.56,6.22-2.39,9.32L398,305.45c-74.4.05-148.81,0-223.21.34-8.25,0-10.43-2.2-10.39-10.4.34-72.51.23-145,.24-217.53,0-2.71-.08-5.41-.13-8.11.11-.92.23-1.84.34-2.76,5.4-5.41,12.28-2.73,18.37-2.81C197.1,64,211,63.4,224.8,64.8h3.39a241,241,0,0,1,40.48,0Z"/><path class="cls-5" d="M480,344.09h-27.6c-.47-3,4.07-2.63,3.71-5.55a6,6,0,0,1,3.25-.7c1.71-.22,3.89,1.6,5.05-.75.91-1.85-.06-3.71-1.35-5.16a12.55,12.55,0,0,0-4-2.74c-6.27-3.09-5.92-7.85-4.12-13.6,1.7-5.4,4.61-7.25,10.17-6.26a37,37,0,0,0,9.21.08c-2.59-.39-6,.91-9.22-.83,6.94-3.19,14.2-.84,21.3-1.27,3.57,1.16,7.28.09,10.88.68,1.61,4.08-2,4.06-4.09,4.91-2.29.92-4.34,2.46-3.07,4.69,4.23,7.39-1.68,14-1.11,21.19C489.58,345,483.39,342.78,480,344.09Z"/><path class="cls-6" d="M465.18,308.58h14.3l0,1.68c-4.51,0-9,.11-13.52,0-5.39-.16-7.51,1.43-8.53,7.64-1.15,7,1.07,9,6.77,10.49,2.8.75,5.61,10.69,3.74,12.72-3.61,3.89-6.17-.3-9.08-1.59a16.8,16.8,0,0,0-12.14-3.11c-5,.66-7.84-1.72-7.57-6.87.31-6.15-1.95-9.25-8.47-10.21-5.49-.81-5.87-4.45-1.72-9.81,2.39,0,4.79-.26,5.55-.14-15.32,3.13-32.43.85-49.41,2.14-5.51,2.63-10.82,2.64-16.78.62-6.61-2.25-13.82-.84-20.77-1.1-3.41-.13-7,.79-10.14-1.46a1.68,1.68,0,0,1-.36-2.26q60.23-.1,120.44-.14C460,307.16,462.61,308.08,465.18,308.58Z"/><path class="cls-7" d="M346.73,344.42l-17.9-.1c-4.68-1.57-9.51-.4-14.27-.75-1.56-.12-3.39.26-4.08-1.7a2.74,2.74,0,0,1,1.32-3.47c4.43-2,3.71-5.18,2.22-8.63a7.54,7.54,0,0,1-.37-1.56s-7.94-19-7.95-19c1.08-2.51,3.71-.72,5.27-1.91l16.22,0a.84.84,0,0,1,.55,1.23,67.31,67.31,0,0,1,12.44,1.19,9,9,0,0,1,4.14,9,58.86,58.86,0,0,0-.47,14c.25,3.84-.25,6.62,3.31,8.87C348,342.12,347.57,343.56,346.73,344.42Z"/><path class="cls-8" d="M497.73,74.63c1.33-3.07,3.92-5.72,3.09-9.49l1.88-.2c.75,5.52,2.31,7.27,9,5.6,7-1.73,15.08-2.17,22.26,2,1.64,1,4.21.41,6.36.45,7,.14,14-.08,21,1.27,2.82.54,8.11,4.18,9.57-2.89.31-1.5,2.29,0,3.39.66l9.7,5.85c0,3.79,0,7.57.05,11.36,0,.55-.06,1.1-.08,1.65a1.65,1.65,0,0,1-2,.21,7.33,7.33,0,0,1-1.35-1.69c-4.66-3.88-8-4.22-9.32,3-.4,2.22-1.46,5.29-4.82,2.22-1.67-2.87-.76-6.62-3.21-9.21-2.56-3.43-6.32-2.54-9.69-2.57-15-.12-30.08,0-45.13-.07-4,0-8.11.35-11.71-2.06C494.31,78.24,495.54,76.35,497.73,74.63Z"/><path class="cls-9" d="M580.67,305.34c-3.73-4.57,1.84-7.76,1.76-12-.33-17.31-.19-34.63-.1-51.94,0-4-1.4-5.94-5.65-5.94s-5.34,1.78-5.86,5.8c-1.88,14.53-1.63,29.1-1.41,43.67.08,5.6-1.73,7.76-7.45,7.53-8.92-.36-17.86-.1-26.79-.11.29-4.34,3.67-3.9,6.47-4,5.33-.17,10.67-.22,16,0s8.25-1.49,7.46-7.28a13.41,13.41,0,0,1-.19-5.64c.52-7.79.79-15.57-.3-23.34-.89-4.88.85-9.71.21-14.59a28.75,28.75,0,0,1,.43-10.17c3.52-7.06-.15-15.09,3-22.22,8.08-2.79,11.92-.89,14.6,7.22,1.05,3.31-.68,6.92,1.12,10.15,0,25.29.1,50.58.05,75.88C584,301.07,585.24,304.69,580.67,305.34Z"/><path class="cls-10" d="M254.06,344.16h-13a6.63,6.63,0,0,0-2.26-.71c-8.63-1.86-9.89-3.46-9.76-12.37a38.77,38.77,0,0,1,.55-5.59c1-6.19,2.26-12.45-6.1-14.85-.64-.18-.71-1.34-.55-2.17a5.5,5.5,0,0,1,3.37-.64c2.75-.21,5.54.47,8.23-.49l37.39,0c-1.63,5.67-6.56,2.83-10,3.9-5.9,1.43-11.22-3.29-16.83-1.65,9-.07,9.06,0,6.79,8.93S251.31,335.78,254.06,344.16Z"/><path class="cls-11" d="M580.67,344.21l-6.16.33-5.35-.38c-4.24-8.55-2.16-17.69-2.52-26.61-.08-2.08,1.18-4.16,0-6.22-1.44-1.17-4-1.26-3.82-3.95,21.08-1.15,21.14-1.15,21,19.56,0,5.3,1,10.74-1.64,15.78A2.5,2.5,0,0,1,580.67,344.21Z"/><path class="cls-12" d="M260.63,308.64c3.77-.43,7.77,1,11.32-1.32h39c-1.37,1.37-3.13,1.29-4.86,1.31-7.42,5.34-15.68,1.25-23.42,2.08,4,1.72,3.79,4.88,3,8.23-1.21,5.07-2.07,9.85,1.77,14.58,2.38,2.92-.87,7.1.74,10.59h-14.6c-7.61-3-5.35-10.66-6.52-16.06C265.59,321.25,265.55,314.25,260.63,308.64Z"/><path class="cls-13" d="M226.49,308.62l-3.23,0c.89,1.88-5-.19-1.82,3.36,2.51,2.76,2.32,6.52,1.52,10-.92,4-1.6,7.88.13,11.78,1.1,2.45-2,5.19,1.54,8,1.73,1.38-3.19.89-4.46,2.37H208.69c-4.44-6.82-4.1-14.65-4.56-22.28-.26-4.23.06-8.57-3.88-11.54a2,2,0,0,1,.53-2.24c3.64-.78,7.4.38,11-.73l14.72,0c.6.3.8.59.59.87A.83.83,0,0,1,226.49,308.62Z"/><path class="cls-14" d="M551.47,344.06l-13.09,0c-3.32-9.72-.57-19.6-.66-29.4,0-2.2.74-4.23-1.92-5.31a2.32,2.32,0,0,1-.63-2l13.09,0c5.13,0,6.92,1.61,6.46,7.5-.66,8.52-1.69,17.23,0,25.8C555.38,343.73,553,343.32,551.47,344.06Z"/><path class="cls-15" d="M551.47,344.06c-.07-9.76.17-19.53-.43-29.26-.14-2.32,3.71-7.2-2.78-7.46l14.59,0c1.91,1.65,4.25,1.15,6.46,1.26-4.69,5.65-4.42,12.4-4.6,19.21-.16,6.13-1.15,12.25-6.75,16.28Z"/><path class="cls-16" d="M583.91,116.92l0,26a1.75,1.75,0,0,1-2.3-.17,7.24,7.24,0,0,1-1.69-4.55c-.53-3.06,2.29-5.5,1.69-8.05-.1-.78-.12-.5-.1.3a2.91,2.91,0,0,1-.21,1.59c-1.87,2.87-3.07.35-4.38-.63-1-.8-1.72-2.12-3.24-2.25-3.38,1.06-.49,9.16-7.24,6.43-2-3.23-.55-7-1.62-10.36a28.62,28.62,0,0,1,1-12.34,7.31,7.31,0,0,1,2.3-3.1c5-1,9.56-4,14.91-3.7C583.67,109.68,582.16,113.44,583.91,116.92Z"/><path class="cls-17" d="M583.91,222.52c-2.64-2.9-1.19-6.47-1.6-9.74-5.21-9.44-1.81-19.7-2.87-29.52-.38-6.08-.75-12.16.62-18.18a6.69,6.69,0,0,1,1.34-2.4,1.91,1.91,0,0,1,2.48-.26Z"/><path class="cls-18" d="M583.91,116.92c-2.83-3.46-1.11-7.56-1.61-11.35-4.42-4.89-3.32-9.77,0-14.65l1.58,0Q583.9,103.93,583.91,116.92Z"/><path class="cls-19" d="M172.88,310.26h-1.61c-.47-4.39,3.54-1.3,4.77-2.86l13,0c-.57,4.24-4.55,3.53-7.1,4.91C178.6,313,175.8,311.37,172.88,310.26Z"/><path class="cls-20" d="M583.88,162.42h-1.56q-7.14-9.76,0-19.5l1.56,0Z"/><path class="cls-21" d="M182.63,310.26l6.4-2.9,11.49,0c.59.29.79.57.59.84a.8.8,0,0,1-.61.42c-2,2.89-5.52,1.95-8.19,3.17a13.24,13.24,0,0,1-2.24.52c-2.35.27-4.67.3-6.74-1.14Z"/><path class="cls-22" d="M501.07,307.31l17.86,0a2.75,2.75,0,0,1-1.07,2.42,23,23,0,0,1-16.16,0A1.88,1.88,0,0,1,501.07,307.31Z"/><path class="cls-23" d="M518.94,308.64c0-.44,0-.88,0-1.31h16.24l0,1.3c-.29.36-.58.71-.86,1.07-4.84,1.85-9.69,2.26-14.54,0C519.51,309.36,519.22,309,518.94,308.64Z"/><path class="cls-12" d="M501.07,307.31c0,.43,0,.87,0,1.3a2.23,2.23,0,0,1-3.27,0c-3.78-.43-7.78,1-11.33-1.34Z"/><path class="cls-24" d="M200.5,308.64c0-.42,0-.84,0-1.26l11.28,0C208.25,309.67,204.27,308.23,200.5,308.64Z"/><path class="cls-12" d="M327.27,308.61c0-.44,0-.87-.08-1.31H337l-.09,1.31A12.45,12.45,0,0,1,327.27,308.61Z"/><path class="cls-25" d="M176,307.4l-4.77,2.86-1.6-2.83Z"/><path class="cls-26" d="M226.49,308.62l0-1.28h8C232.12,309.31,229.22,308.43,226.49,308.62Z"/><path class="cls-27" d="M335.36,396.31l-17.89.1-11.31-1.76.06-3.6c2.76-1.89,5.7-1,8.63-.59,1.7.38,3.48.3,5.16.83,3.09,1.24,6.35.85,9.55,1.15C332.09,392.67,335.24,392.32,335.36,396.31Z"/><path class="cls-28" d="M326.92,357.1c2.37-.45,4.72-1.25,7.09-1.3,27.44-.57,54.91.86,82.33-.86,3.78-.23,3.15,3,4.88,4.31,1.77,8.29.37,10.89-7.44,11-26.72.44-53.44.29-80.17.08-3,0-5.93-.62-7.85-3.36C326.47,363.72,324.43,360.14,326.92,357.1Z"/><path class="cls-29" d="M325.76,367c29.72.08,59.44.07,89.16.33,6.27.06,7.46-2.83,6.3-8.06l.48-2.06c2,3.11,1.34,6.64,1.53,10,.2,3.55.55,7,4.63,8.33,1.77.91,3.15,1.92,1,3.84-2.28,1-4.61.73-7,.35-17.53.36-35.06.4-52.58.42-13.76,0-27.5-.81-41.26-.92-2.67,0-5.49.15-7.36-2.42,1.48-2.49,4-4.52,3.4-7.93Z"/><path class="cls-30" d="M306.57,386.85c2,.61,2.72-1.58,4.28-1.93,6.1-1.72,9.88.74,11.82,6.54-2.53,2.45-5.86-.24-8.52,1.32-3.15,1.72-5.18-1.65-7.93-1.73A3.72,3.72,0,0,1,306.57,386.85Z"/><path class="cls-31" d="M278.49,310.26c-.54,0-1.25.15-1.59-.13-2.59-2.14.33-1.43.88-1.43,9.45-.07,18.89-.06,28.33-.06,1.41.72,2.76,1.86,4.25,2.09,6.18,1,7.79,3.68,5.93,10-1.7,5.8-.06,11.71,4.81,16.62l-9.9,3.54c6.06,4,12.64-.34,17.63,3.45l-1.64.31-22.79-.47c-1.75-1-3.68-.71-5.5-.55-4.13.36-6.13-1.59-6.11-5.49,0-4.56-1-9-.81-13.61.38-11,.34-11-10.5-13.39C280.46,310.89,279.35,311,278.49,310.26Z"/><path class="cls-32" d="M260.63,308.64c7,1.93,9,6,8.52,13.58-.43,7.24,1.45,14.9,4.43,21.91l-19.52,0c-9.63-4.88-4.94-14.19-5.8-21.41-.32-2.7-2.18-8.63,4.62-10.76-5.38-2.82-10.15-1-14.33-3.35Z"/><path class="cls-26" d="M220.17,344.15c3.37-3.14,3.37-3.14-3.49-5.51,2.26-1,6.53-.32,3.44-5-1.94-2.94-2.08-6.42-.39-10,2.44-5.25,1.72-10.26-4-15h7.54c.2.18.37.45.61.52,10.09,2.93,10.8,4.13,8.86,15.41-.72,4.2-3.47,8.38,1.37,12.29,1.3,1.05-3.68.66-2.61,3.94,3.64-.85,6.94.44,9.59,3.37Z"/><path class="cls-33" d="M278.49,310.26h4c13.39,0,13.5,0,12.22,13.61-.51,5.34,1.61,10.32.83,15.91-.73,5.27,6.58,1.18,8.82,4.38l-16.22,0c-1.1-3.5-5.9-1-7.1-4.38.59-3.09,4.76-.79,5.53-4.08-8.05-2.93-6-10.48-4.12-15.2C284.85,314.47,283.15,312.37,278.49,310.26Z"/><path class="cls-21" d="M197.38,344.15l-6.55.06c-7.16-11.3-2.93-22.63-.08-33.95h0c8.95-1.41,12.42.73,12.4,9.17S204.36,337.11,197.38,344.15Z"/><path class="cls-24" d="M197.38,344.15A118.63,118.63,0,0,0,200.54,320c.31-7-2.26-10.77-9.77-9.78,2.88-2.69,6.46-1.23,9.73-1.61,5.44,1.67,7.39,5.35,6.53,10.87-1.31,8.33,3,16.3,1.66,24.64Z"/><path class="cls-25" d="M172.88,310.26h9.75c4.71,5.49.58,12,2,17.95.85,3.48-.74,7.26,2.33,10.61,2.51,2.73-.69,4.08-2.62,5.42l-13.25-1.84c.48-2.29,7.43-2,1.78-5.82-2.51-1.71-.68-4.09.1-6.45C175.16,323.59,176,316.86,172.88,310.26Z"/><path class="cls-19" d="M184.38,344.24c.53-.92,1.72-2.45,1.51-2.68-9-9.65-2.58-20.85-3.26-31.3h8.12c-.15,7.32,2.75,14.74-1.49,21.91-2.42,4.11,4.39,7.55,1.57,12Z"/><path class="cls-34" d="M434.27,383.47a3.06,3.06,0,0,0,3.44,1.38,1,1,0,0,0,1.19.37c6.43,7.09-.25,5.94-4.12,6.56a5.52,5.52,0,0,1-2.92,1.12c-3.31-.19-7.9,2.46-9-3.12-.78-3.85,4.13-7.45,9.33-7.32A4.38,4.38,0,0,1,434.27,383.47Z"/><path class="cls-35" d="M327.27,308.61h9.66l26.66,0c.81,0,1.61,0,2.42,0,6-.2,12.07,4.48,18.11,0,11.16,1.82,22.4.27,33.58.83,3.43.18,7-.86,10.27.79,1,2.36-2.55,6.73,3.8,6.78,9.27.08,11.12,2.56,9.91,12.66-.56,4.66,1.51,6,4.81,4.15,7.16-4,9.33,1.42,12.34,5.64h-3.25c-7.47,4.56-16.08,1.73-24,3.61-3.69.88-7.81.22-11.66,1.11l-52,.21c-1.57.21-.9-3.29-4.46-1.59-4,1.89-8.45-2.35-9.84-6.43-1.32-3.88,3.24-5,5.93-6.32a39.32,39.32,0,0,1,6.75-2.56c2.17.36,3.75,2.06,5.85,2.57,1.89.46,3.87.66,4.87-1.46a5.76,5.76,0,0,0-.13-4.7c-1-2.32-2.82-2-4.73-1.43s-3.94,1.74-6.12,1.93c-1.09,0-2.66-.16-2.83-1.09-1.72-9.49-9.19-9.79-16.43-10.45-2.46-.22-4.79-.62-6.49-2.65H322.47C324.07,307.87,325.85,309,327.27,308.61Z"/><path class="cls-36" d="M366.13,328.14c-2.9,3.54-7.05,5.12-11.18,7.26,2.09,2.65,5.66,3.72,6.71,7.19,3.69-1.87.59-5.81,4.31-7.54.64,3.22,1.27,6.3,1.89,9.39l-21.13,0c-.49-.91-1-2.58-1.47-2.6-6.88-.25-12.33-.87-3.31-7.83a2.71,2.71,0,0,0,.47-2c-7.29-3.72-2.25-7.84-.43-11.82,1.71-3.72-2.7-6.33-1.76-9.9,5.7.77,11.29-.12,17.26,1.76,6.34,2,8.7,3.76,6.76,10.07-.06.18,1.18.76,1.82,1.16C367.62,324.86,367.61,326.49,366.13,328.14Z"/><path class="cls-31" d="M497.81,308.65l3.27,0,17.86,0h0c.42,2.92-1.82,3.25-3.75,3.88-6.3.29-10.69,1.77-6.38,9.41a5.3,5.3,0,0,1-.6,5.38c-2.32,3.5-4.53,6.7.42,10.06,1.74,1.18.4,2.93-1.1,3.77-2.07,1.16-4.71,1.07-6.49,2.91l-21,0c4.59-1.51,9.4-2.64,6-9.53-.73-1.49.18-4.69,1.45-6,2.89-3.07,1.73-5.16.12-8.34-3.22-6.29-1.33-9.11,5.75-9.91C495,310.09,496.61,309.94,497.81,308.65Z"/><path class="cls-23" d="M535.2,308.62h7.28c-5.29,11.56-.18,24-4.1,35.41l-16.06,0c5-6.76,1.83-14.24,1.79-21.41-.07-12.21-.21-12.2,11.07-14Z"/><path class="cls-37" d="M501,344.05c.3-3.88,3.58-4.19,6.47-5.15-6.87-2.36-7.87-5.44-3.15-10.53,2-2.13,3.6-3.57,2.14-6.84-4.71-10.49-4.31-11,7.57-11.27,5.52,4,6.73,10.34,7.95,16.2.93,4.44-1.27,8.62-6.6,9.66,1.74,1.23,5.73,1,5.25,4.53-.49,3.66-4,2.79-6.58,2.9a7.85,7.85,0,0,0-3.15.52Z"/><path class="cls-22" d="M510.94,344.07c2.17-2.35,5.91-.22,8.13-2.89,0-3.27-3.73-2.28-5.08-4.21,4.56-5,9.32-9.77,2.55-16.84-2.19-2.3-.37-6.84-2.47-9.87,1.8,0,3.61,0,4.87-1.62h16.24c-1.62,1.86-3.87,1.54-6,1.7s-4.18,1.39-3.39,3.43c2.64,6.73-.19,14,2.32,20.65,2.07,5.51.42,9-5.82,9.65Z"/><path class="cls-38" d="M558,344.13a50.3,50.3,0,0,0,4.25-24.1c-.37-5.76,1.21-9.79,7.1-11.39l3,.7c-6.91,11.08-.09,23.39-3.1,34.82Z"/><path class="cls-6" d="M419.9,344.23c11.55-4.15,23.57-4.8,35.68-4.72,2,3.59-2.18,3-3.14,4.58Z"/><path class="cls-39" d="M335.36,396.31c-4.89-3.77-11.3.55-16.23-3,10.56-4.84,21.76-1.69,32.63-2.6,21.47-.3,42.93.33,64.4-.3,5.95-.18,11.94,2.21,18,2.53a7.94,7.94,0,0,1,2.34.56c1,.58.63,1.1-.37,1.2-5.6.58-11.2,1.58-16.8,1.61C391.37,396.44,363.37,396.33,335.36,396.31Z"/><path class="cls-40" d="M434.2,392.92l-82.6-.08a2,2,0,0,1,.78-2.57,7.52,7.52,0,0,1,2.74-1.06c14.18-.3,28.37,0,42.55-.14,2.69,0,5.4.07,8.09-.14,1.93-.27,4-.61,4.14-3,.49-7.77,5.38-9,11.78-8.22a3.8,3.8,0,0,0,3-.73l4.88,1.55c1.67,1.55,4.31,2.2,4.67,5-4.41.61-8.2,2.06-10,7.42l10.53.89A3.84,3.84,0,0,0,434.2,392.92Z"/><path class="cls-41" d="M567.67,281c1.29,7.7-1.82,10.25-9.64,10-7.57-.25-15.43-1.93-22.86,1.37H191.6c-12.21,0-12.23,0-12.23-12,0-63.62.13-127.25-.16-190.87,0-7.73,2-10.11,9.93-10.08q145,.39,290,.17c6.65,0,13.35.25,18.62-4.93L496,79.35a4.83,4.83,0,0,1-.77,3.58c-2.72,2.66-3.11,7.48-7.77,8.35-.28,0-.7.13-.8,0-6.44-8.76-15.85-6.77-24.67-6.78H207c-3,0-6-.08-8.92.08-10.89.59-13.75,3.54-13.76,14.46q0,86.06,0,172.11c0,12,1.1,12.68,13.18,11.8,14.85-1.08,29.74-.26,44.61-.28q150.2-.24,300.39-.06c4.29,0,10.22-1.59,12.44,1.66,3.86,5.66,4.13.83,5.81-.89C562.65,281.45,564.48,279.2,567.67,281Z"/><path class="cls-42" d="M376.74,70.79a1.92,1.92,0,0,1-1.93,2c-1.35.1-2.74-.07-3.11-1.69s.58-2.47,2.11-2.52A3,3,0,0,1,376.74,70.79Z"/><path class="cls-43" d="M428,310.27c-11.81,0-23.62,0-35.42,0-2.87,0-6,.81-8.43-1.58H443.6l0,1.62Z"/><path class="cls-44" d="M494.44,80.92c.51-.52,1-1,1.51-1.57q31.55.11,63.1.21c3.75,0,7.91-.58,8.63,4.87-1.35,2.1-1,4.65-1.83,6.93-1.5,3.9-3.28,6.28-7.65,3.4-2.44-1.6-5.21-1.16-7.86-1-12.62,1-25.25-1.23-37.87.29-4.35.53-8.58-.82-12.66-2.17C494.46,90.16,491.5,86.9,494.44,80.92Z"/><path class="cls-45" d="M494.44,80.92c-.19,11,9.78,10.1,15.08,10,14.82-.31,29.76,1.72,44.49-1.13,4-.77,5.57,2.46,7.91,4.67l5.76-10c0,3.79,0,7.58,0,11.37l-.21,1.12c-4,7.9-12,6.63-18.31,6.69-6.93.07-14.67,1.09-21-3.78a4,4,0,0,0-4.63-.09c-9.07,6.47-20,1.81-29.73,5-6,1.93-8.18-1.47-6.2-7.87a18.22,18.22,0,0,0,.93-5.48,7.06,7.06,0,0,1,.94-2.07C489.37,85.45,491.58,83,494.44,80.92Z"/><path class="cls-46" d="M582.32,90.92l0,14.65c-2.28,7.12-8,5-13,4.85-4.15-7.78-3.13-12.71,4.35-16.13,3.11-1.42,4.58-5.48,8.64-5C582.3,89.84,582.31,90.38,582.32,90.92Z"/><path class="cls-18" d="M582.3,89.31c-2.1,3.75-2.89,8.81-9.28,7.82-2.76-.44-3.27,2.43-3.49,4.48-.32,2.91-.17,5.87-.22,8.81l-1.58,1.67a5.43,5.43,0,0,1-1.94-2.2c-2-5-.4-9.62,1.89-14.1h0c.52-1.19,1.36-2.35,1.5-3.58,1-8.89,3.54-10.65,12-7.78C583.59,85.27,581.82,87.69,582.3,89.31Z"/><path class="cls-47" d="M489.46,89.29,489.8,91c-1.55,6.66-6.37,11.5-9.5,17.29-3.09,4.16-5.14,9-8.45,13-4.57,6.1-7.61,13.13-11.68,19.55-4.9,6-8.38,12.85-12.47,19.34-1.89,2.73-3.21,5.82-5.28,8.44-6.23,7.34-9.7,16.54-16,23.82-2.55,2.75-4.2,6.12-6.36,9.14C417,208.31,412,214,409.42,221c-7.4,9.31-13.1,19.46-16.29,31.18,40.23-.64,79.79-.22,119.34-.27,13.21,0,26.47-.86,39.58,1.44,3.49.61,4.34-.77,4.33-3.78a60.83,60.83,0,0,1,.23-6.47c.87-8.35,2.87-9.42,11-6q0,7.32,0,14.62c-1.06,8.13-3.44,16.25,0,24.37V281c-5,4.2-8.81,11.34-17.3,7.36,1.15-2.15,4.3.52,5.62-2.48H241.59c-13.74,0-27.5.34-41.22-.18-4.85-.18-8.9,4.81-14.54.87-3-2.08-4.87-3.23-4.87-7q.1-94.2,0-188.41c0-9.11,8.15-6.61,12.27-9.79.86-.66,2.63-.17,4-.17H483c1.6,0,3.19.16,4.44.22C490,83.88,478,89.14,489.46,89.29Z"/><path class="cls-48" d="M567.64,237.15c-11.19.29-7.77,8.6-8,14.79-.14,3-.07,6-3,8.93-3.65-8.1-11-5.67-17.1-5.7-46-.26-92-.14-138-.16-2.77,0-5.37.23-7.54,2.28-1.11,1-2.62,2.72-4,1.1a5.06,5.06,0,0,1-.79-4.52c2.92-5.66,2.36-12.53,7-17.71s4.26-14,12.27-16.89c1.07,0,2.38-.43,3.19.13,10.21,7,21.8,4.63,32.92,4.69,34.29.2,68.59-.12,102.88.21,7.87.08,13.78-1.37,16.26-9.71.57-1.91,1.31-4.4,4.42-3.26.35,5.37,1.06,10.75-.44,16.08Z"/><path class="cls-49" d="M582.3,181.92q0,15.44,0,30.86c-2.36-5.86-8.44-5.77-13-8.12-3.79-3.47-2-8-2.33-12.14a7.81,7.81,0,0,1,1-3.72C573.07,187.14,578.27,185.74,582.3,181.92Z"/><path class="cls-41" d="M567.67,276.14c-7-8.12-2.07-16.24,0-24.37Q567.67,264,567.67,276.14Z"/><path class="cls-50" d="M569.3,191.65q0,6.51,0,13c-.79,7.56,1.72,15.36-1.63,22.75l0-16.25c-3.67-3.53-1.94-8.1-2.37-12.26.09-2.36-.11-4.8,1.48-6.84A1.91,1.91,0,0,1,569.3,191.65Z"/><path class="cls-51" d="M458.72,139.63c3.3-6.8,6-13.94,11.48-19.47,10.34,6.88,22,4.6,33.35,5,18.55.67,37.2-1.81,55.66,1.66,3.07.57,5.27-2.92,8.45-1.78l.05,11.37c1.66,1.47,1.66,3.3,1.19,5.24-1.92,5.88-5,9.69-12.18,8.9-23.66-2.61-47.42-.64-71.13-1.21-5.66-.13-11.35.33-17-.72C463.54,147.67,459.36,145.56,458.72,139.63Z"/><path class="cls-52" d="M567.66,125c-2.19,1-2.76,3.11-3.68,5.09-1.18,2.57-3.66,4.22-5.5,1.26-2.5-4-6-3-9.33-3-20.29-.09-40.58-.27-60.87.07-7.63.12-15,.91-18.08-8.25q4.07-6.47,8.15-12.93c2.37.35,4.49,1.73,7,1.37,19.26-2.67,38.63-1,58-1.14,6.87,0,14.58-2.19,20.35,4.09,1-1.51,2.13-2.51,3.95-1.15,0,.56.05,1.13.08,1.69Q567.7,118.57,567.66,125Z"/><path class="cls-17" d="M569.3,191.65l-1.59,0c-3.61-3-1.78-7.4-3.05-11-.86-5.18.67-10.28.61-15.43,0-1.71,0-3.43.22-5.13s1.06-3,1.28-4.64c1.92-13.84,1.92-13.84,15.53-17.41,0,1.62,0,3.23,0,4.85v19.5h0c-7.09,5-11.71,11.08-10.35,20.4.31,2.12-1.06,4.05-2.64,5.59C569.31,189.49,569.31,190.57,569.3,191.65Z"/><path class="cls-20" d="M582.3,138.06c-1.83.71-1.07,4.21-3.44,3.83-10.67-1.72-9.89,5.32-9.57,12.14.08,1.88-.11,3.72-1.57,5.15-1.89-1.2-2.2-3.21-2.68-5.15.84-4.25.31-8.79,2.61-12.75l.06-4.87c.52-1.2,1.11-2.37,1.53-3.6,1-3-2.18-8.13,2.92-8.61,3.51-.33,6.93,2.61,8.15,7l.75-5.67,1.24.07Z"/><path class="cls-50" d="M569.31,188.41v-9.56c0-12.8,0-12.8,13-16.43v19.5C580.83,189.8,576.19,191.36,569.31,188.41Z"/><path class="cls-53" d="M351.6,391.57v1.27l-32.47.45-5-.51c2.24-2.44,5.23-1,7.86-1.52,1.12-2.06,4-.85,5.14-2.88-.94-3.54-6.53-6.06-2.28-10.64,2.63-.08,5.25-.07,7.86,0,3.56,2.3.79,8.86,6.54,9.68C343.55,388.32,348.35,387.64,351.6,391.57Z"/><path class="cls-54" d="M333.66,378.54l-9.68-.05c-1.53,1.34-3.09,1.51-4.67.08l1.35-1.75,104.06.12c-1.45,1.5-3.33,1.67-5.22,1.54-4.4-.32-6.53,1.47-6.19,6s-1.51,7.24-6.48,6.93c-.54-.56-1.08-1.12-1.61-1.69s-1-1.18-1.55-1.78c-2.51-3.26-5.7-1.87-8.86-1.46a82.5,82.5,0,0,1-18.91-.07c-12.09-1.17-24.65-2.75-36.52,2.33C335,386.74,336.88,381.22,333.66,378.54Z"/><path class="cls-55" d="M328.9,389.83c.94.37,2.56,1,.29,1.48s-4.78,0-7.18-.05c-3.77-2-6.51-5.87-11.16-6.34l4.53-3.39C323.25,378.83,325.89,384.63,328.9,389.83Z"/><path class="cls-56" d="M328.9,389.83c-4.83-2.23-7.23-8.42-13.52-8.3l3.93-3,4.67-.08C324.52,382.75,330.68,384.57,328.9,389.83Z"/><path class="cls-57" d="M366.13,328.14l-.06-4.89c3-3.19,7-5.86,11.11-4.46,5.4,1.86,2.2,7.91,3.68,11.89.48,1.28-1.42,3.19-3.88,3.05C372.48,333.47,367.63,334.13,366.13,328.14Z"/><path class="cls-58" d="M338.6,388.24c2.71-5.77,7.78-5.59,13-5.15,10.63.9,21.35-.49,32,1.86,4.08.9,8.5-.28,12.76-1.27s8.78-.94,10.55,4.58c-6,3.46-12.57,1-18.85,1.43-9.61.67-19.3.19-29,.17-2.06,0-4.38-.83-5.8,1.58l-1.62.13L337,389.84C336.6,388.38,337.13,387.85,338.6,388.24Z"/><path class="cls-59" d="M353.22,391.44c-2.74-2.83-2.66-5.15,1.79-4.36,17.24,3.09,34.58-.46,51.82,1.18,0,.53,0,1.06,0,1.59-2.4,2-5.67-.31-8.1,1.6Z"/><path class="cls-58" d="M398.72,391.45c2.34-2.37,5.35-1.32,8.11-1.6v1.6Z"/><path class="cls-60" d="M567.65,110.4c-2-.43-3.21,1.46-5.75,1.21-23-2.27-46.15-.85-69.24-1.13a11.29,11.29,0,0,0-5.39,1.09c-5.24,2.89-8.08,1.49-8.92-4.34,3.42-5.7,5.78-12.15,11.44-16.27,3.75,4-.66,6.83-1.71,10.92,4.27-.88,8.86,3.38,12.08-2.8.95-1.83,2.7.82,4.09.94,5.71.46,11.59,2.59,16.67-2.53,2.79-2.81,6.28-2,9.65-.21,8.06,4.32,16,5.51,25.09,1.76,3.46-1.42,8.67.81,12-3.25Z"/><path class="cls-61" d="M567.67,164q0,8.13,0,16.26c-2.22,6-1.38,12.23-1.67,18.38-.07,1.58,0,3.47-1.9,4.06-2.05.65-2.93-1.23-3.51-2.56-1.63-3.76-4.67-3.8-8.07-3.77-35.38.33-70.77.08-106.16.15a37.56,37.56,0,0,0-12.67,2c-5.57,1.95-8.51-.66-9-6.93,5.26-8.22,9.14-17.37,16.25-24.36a23.78,23.78,0,0,0,11,2c31-.8,62-.23,93-.33,6,0,11.83-.26,16.84-4.23C563.48,163.39,565.48,162.43,567.67,164Z"/><path class="cls-20" d="M567.67,198.16q0,6.5,0,13c-3.79,4.28.3,12.38-7.39,14.92-1.67.56-2.92,1.8-5.07,1.78-42.47-.24-85-.64-127.42-.2-8.4.09-13.95-3.15-19.32-8.39-.57-8.41,8-12.24,9.75-19.48,2.63.51,5.6.13,7.74,2,7.11,6.31,15.66,6.24,24.42,6.19,32.16-.15,64.32-.06,96.47-.06a16,16,0,0,1,4,.06c8.69,2.33,14.24-.1,15.33-9.72C566.23,198,567.1,198,567.67,198.16Z"/><path class="cls-62" d="M567.67,198.16c-3.39,4.16.27,12.72-5,13.64-4.28.75-9.95-.56-15-.58-35-.13-70.08-.19-105.12,0-7.32.05-13.43-1.93-18.23-7.3-.94-1-1.18-1.43-2.23-.67-6.56,4.7-2.93-2-3.91-3.49,2.16-2.72,3.25-6.29,6.5-8.14,2.58,3.65,4.65,8.3,9.94,2.43,1.18-1.31,4.62-.77,7-.77q52.71-.06,105.41,0c2.17,0,4.65.67,6.44-.15,8.34-3.81,10.67-.28,9.86,8.09,2-7.24-.76-14.88,4.28-20.93,0,3.79,0,7.59.05,11.38C567.7,193.83,567.68,196,567.67,198.16Z"/><path class="cls-63" d="M567.65,141.28q0,6.51,0,13c-2.9,9.55-6.71,11.82-17.14,10.1a64,64,0,0,0-11.32-.6c-26.47.41-52.95-.69-79.43.51-4.7.21-11.73,2.93-13.93-5.17,3.95-6.73,6.51-14.38,12.9-19.51,4.83,6.34,11.58,6.69,18.82,6.62,21.93-.23,43.87.29,65.78-.33,6-.18,11.89,1.36,18.13.93C567.14,146.45,562.52,138.82,567.65,141.28Z"/><path class="cls-46" d="M445.82,159.14c4.84,3.41,10.66,3,15.81,2.57,29.1-2.26,58.22-.19,87.31-.82a9.6,9.6,0,0,1,4.56,1.37c3,1.67,5.24,1.9,5.45-2.4.07-1.38-.22-3,1.72-2.78,2.15.24.63,3,2.54,4.11l4.43-6.89c0,1.63.05,3.25.08,4.88s0,3.23-.05,4.85c-6.74,7.1-15.08,8.33-24.57,8.32-32.5,0-65-1.19-97.52.73-4.82.29-5.6-1.85-4.62-5.79Z"/><path class="cls-64" d="M338.6,388.24l-1.58,1.6c-4-2.89-7.28-6-3.36-11.3C343.56,377.58,337.26,384.85,338.6,388.24Z"/><rect class="cls-65" width="749" height="460"/><path class="cls-66" d="M62.57,177.12v6.63h5.32v5.91H62.57v13.78c0,2.2,1.08,3.25,3.39,3.25a12.54,12.54,0,0,0,1.9-.14v5.78a17.81,17.81,0,0,1-3.73.32c-6.77,0-9.4-2.26-9.4-7.87V189.66h-4v-5.91h4v-6.63Z"/><path class="cls-66" d="M98.05,203.73c-.86,5.64-6,9.43-13.13,9.43-8.86,0-14.18-5.67-14.18-14.88s5.37-15.14,13.88-15.14,13.67,5.66,13.67,14.42V200H78.45v.48c0,4.11,2.6,6.93,6.6,6.93,2.88,0,5.08-1.42,5.8-3.63Zm-19.52-8.59H90.75c-.17-3.68-2.56-6.2-6-6.2S78.79,191.54,78.53,195.14Z"/><path class="cls-66" d="M102.32,183.75h7.57V189h.16a8.46,8.46,0,0,1,8.22-5.74c4.16,0,7.06,2.15,8,5.9h.16a9.13,9.13,0,0,1,9-5.9c5.63,0,9.42,3.86,9.42,9.66v19.66H137v-17.7c0-3.33-1.66-5.15-4.7-5.15s-4.94,2.17-4.94,5.37v17.48H119.8V194.6c0-3.09-1.74-4.91-4.64-4.91s-5,2.25-5,5.48v17.37h-7.84Z"/><path class="cls-66" d="M148.7,204.27c0-5.24,4-8.27,11.2-8.7l7.25-.43v-1.91c0-2.68-1.88-4.24-4.84-4.24s-4.77,1.45-5.15,3.57H150c.29-5.58,5-9.42,12.67-9.42,7.39,0,12.2,3.81,12.2,9.61v19.79h-7.58v-4.4h-.16a9.9,9.9,0,0,1-8.78,4.86C152.86,213,148.7,209.45,148.7,204.27ZM167.15,202v-2.1l-6.07.38c-2.93.21-4.59,1.53-4.59,3.57s1.77,3.49,4.43,3.49C164.33,207.33,167.15,205.1,167.15,202Z"/><path class="cls-66" d="M180.68,200.22v-6.85h17.65v6.85Z"/><path class="cls-66" d="M203.89,193.1c0-12.52,6-20.2,15.82-20.2s15.79,7.66,15.79,20.17-6,20.33-15.79,20.33S203.89,205.64,203.89,193.1Zm23.36,0c0-8.84-2.79-13.7-7.54-13.7s-7.58,4.89-7.58,13.7,2.79,13.8,7.58,13.8S227.25,202,227.25,193.1Z"/><path class="cls-66" d="M258.94,205.43H239.66v-6.77c3.38-6.42,7.6-13.19,15.55-24.87h11.44V199h5.1v6.48h-5.1v7.11h-7.71Zm-12.22-6.26H259.1V179.59h-.16A192.46,192.46,0,0,0,246.72,199Z"/><path class="cls-66" d="M272.1,221.27v-5.85h25.49v5.85Z"/><path class="cls-66" d="M298.74,214.58h7.68c.62,2,2.87,3.36,5.86,3.36,4.05,0,6.31-2.26,6.31-5.59v-5h-.16c-1.35,3.06-4.73,5.15-8.89,5.15-7,0-11.69-5.42-11.69-14.42s4.52-14.74,11.82-14.74a9.43,9.43,0,0,1,8.89,5.48h.13v-5h7.74v28.39c0,6.87-5.75,11.25-14.37,11.25C304.49,223.39,299.36,219.71,298.74,214.58Zm19.87-16.49c0-5.18-2.49-8.51-6.41-8.51s-6.32,3.28-6.32,8.51,2.42,8.33,6.32,8.33S318.61,203.3,318.61,198.09Z"/><path class="cls-66" d="M331.53,183.75h7.58v5.19h.16c1-3.66,3.46-5.64,6.84-5.64a8,8,0,0,1,2.23.29v6.9a8.26,8.26,0,0,0-2.84-.45c-3.87,0-6.13,2.36-6.13,6.42v16.08h-7.84Z"/><path class="cls-66" d="M378.12,212.54h-7.57v-5.18h-.16c-1.42,3.62-4.27,5.72-8.62,5.72-6.23,0-10.37-4.06-10.37-10.77V183.75h7.85v16.92c0,3.84,1.9,5.88,5.37,5.88s5.66-2.49,5.66-6.31V183.75h7.84Z"/><path class="cls-66" d="M383.23,183.75h7.57v5.13H391c1.53-3.57,4.57-5.66,9-5.66,6.39,0,10,4,10,10.77v18.55h-7.84V195.62c0-3.76-1.78-5.91-5.29-5.91s-5.75,2.58-5.75,6.32v16.51h-7.84Z"/><path class="cls-66" d="M413.87,198.09c0-9.13,4.57-14.79,11.79-14.79a9.25,9.25,0,0,1,8.78,5.4h.16V173.79h7.84v38.75h-7.73V207.6h-.13a9.5,9.5,0,0,1-9,5.4C418.41,213,413.87,207.31,413.87,198.09Zm8,.06c0,5.29,2.42,8.54,6.36,8.54s6.4-3.28,6.4-8.54-2.5-8.57-6.4-8.57S421.9,192.88,421.9,198.15Z"/><path class="cls-66" d="M447.87,173.79h7.84v38.75h-7.84Z"/><path class="cls-66" d="M481.52,207.68h-.24c-2,3.3-5.62,5.32-10.48,5.32-6.79,0-11-3.55-11-8.73s4-8.24,11.39-8.65l7.14-.4v-1.58c0-2.66-2.18-4.65-5.16-4.65-2.82,0-4.88,1.48-5.13,3.6H461c.27-5.61,5-9.45,12-9.45,4.59,0,8,1.69,9.58,4.32h.22c1.93-2.74,5.15-4.32,9.48-4.32,7.76,0,12.94,5.53,12.94,14.42v2.36h-19.6v.51c0,4.08,2.63,6.93,6.55,6.93a5.6,5.6,0,0,0,5.64-3.63H505c-.86,5.64-6,9.43-12.95,9.43C487.27,213.16,483.35,211,481.52,207.68ZM478.35,202v-2l-6.2.41c-3,.21-4.84,1.45-4.84,3.49s1.94,3.57,4.59,3.57C475.48,207.44,478.35,204.94,478.35,202Zm7.36-6.85h12c-.14-3.73-2.42-6.2-5.83-6.2S486,191.51,485.71,195.14Z"/><path class="cls-66" d="M509.13,214.58h7.68c.61,2,2.87,3.36,5.85,3.36,4.06,0,6.31-2.26,6.31-5.59v-5h-.16c-1.34,3.06-4.73,5.15-8.89,5.15-7,0-11.68-5.42-11.68-14.42s4.51-14.74,11.82-14.74a9.45,9.45,0,0,1,8.89,5.48h.13v-5h7.73v28.39c0,6.87-5.74,11.25-14.36,11.25C514.87,223.39,509.74,219.71,509.13,214.58ZM529,198.09c0-5.18-2.5-8.51-6.42-8.51s-6.31,3.28-6.31,8.51,2.42,8.33,6.31,8.33S529,203.3,529,198.09Z"/><path class="cls-66" d="M541.76,214.58h7.68c.61,2,2.87,3.36,5.85,3.36,4.06,0,6.31-2.26,6.31-5.59v-5h-.16c-1.34,3.06-4.73,5.15-8.89,5.15-7,0-11.68-5.42-11.68-14.42s4.51-14.74,11.82-14.74a9.42,9.42,0,0,1,8.88,5.48h.14v-5h7.73v28.39c0,6.87-5.74,11.25-14.36,11.25C547.5,223.39,542.37,219.71,541.76,214.58Zm19.87-16.49c0-5.18-2.5-8.51-6.42-8.51s-6.31,3.28-6.31,8.51,2.42,8.33,6.31,8.33S561.63,203.3,561.63,198.09Z"/><path class="cls-66" d="M600.81,203.73c-.86,5.64-6,9.43-13.13,9.43-8.86,0-14.18-5.67-14.18-14.88s5.37-15.14,13.88-15.14,13.67,5.66,13.67,14.42V200H581.21v.48c0,4.11,2.6,6.93,6.6,6.93,2.88,0,5.08-1.42,5.8-3.63Zm-19.52-8.59h12.22c-.16-3.68-2.55-6.2-6-6.2S581.56,191.54,581.29,195.14Z"/><path class="cls-66" d="M605.08,183.75h7.57v5.13h.16c1.54-3.57,4.57-5.66,9-5.66,6.39,0,10,4,10,10.77v18.55H624V195.62c0-3.76-1.77-5.91-5.29-5.91s-5.75,2.58-5.75,6.32v16.51h-7.84Z"/><path class="cls-66" d="M635.72,198.09c0-9.13,4.57-14.79,11.79-14.79a9.24,9.24,0,0,1,8.78,5.4h.17V173.79h7.84v38.75h-7.74V207.6h-.13a9.5,9.5,0,0,1-9,5.4C640.26,213,635.72,207.31,635.72,198.09Zm8,.06c0,5.29,2.42,8.54,6.37,8.54s6.39-3.28,6.39-8.54-2.5-8.57-6.39-8.57S643.75,192.88,643.75,198.15Z"/><path class="cls-66" d="M695.8,203.73c-.86,5.64-6,9.43-13.13,9.43-8.87,0-14.18-5.67-14.18-14.88s5.37-15.14,13.88-15.14S696,188.8,696,197.56V200H676.19v.48c0,4.11,2.61,6.93,6.61,6.93,2.87,0,5.08-1.42,5.8-3.63Zm-19.53-8.59h12.22c-.16-3.68-2.55-6.2-6-6.2S676.54,191.54,676.27,195.14Z"/><path class="cls-66" d="M79.22,278.54H71.65v-5.18h-.16c-1.42,3.62-4.27,5.72-8.62,5.72-6.23,0-10.37-4.06-10.37-10.77V249.75h7.84v16.92c0,3.84,1.91,5.88,5.38,5.88s5.66-2.49,5.66-6.31V249.75h7.84Z"/><path class="cls-66" d="M96,268.55l-5.4,10H82.37l9-14.34-9-14.45h8.84l5.18,9.72h.16l5.1-9.72h8.54l-9,14.24,8.91,14.55h-8.51l-5.48-10Z"/></svg>
