<svg id="Layer_1" data-name="Layer 1" xmlns="http://www.w3.org/2000/svg" width="1439.68" height="586.34" viewBox="0 0 1439.68 586.34"><defs><style>.cls-1{fill:#aab4ae;}.cls-2{fill:#d6d8d3;}.cls-3{fill:#98a9a5;}.cls-4{fill:#d3d6cf;}.cls-5{fill:#a8b0aa;}.cls-6{fill:#406764;}.cls-7{fill:#7a8787;}.cls-8{fill:#96a9a4;}.cls-9{fill:#436c6a;}.cls-10{fill:#658b86;}.cls-11{fill:#cbcfc7;}.cls-12{fill:#b1bbb3;}.cls-13{fill:#e5e8e2;}.cls-14{fill:#d7d9d4;}.cls-15{fill:#a7b4ad;}.cls-16{fill:#dbddd7;}.cls-17{fill:#c6d2ca;}.cls-18{fill:#498280;}.cls-19{fill:#436263;}.cls-20{fill:#94b7b1;}.cls-21{fill:#81817e;}.cls-22{fill:#446c6b;}.cls-23{fill:#081413;}.cls-24{fill:#95b9b2;}.cls-25{fill:#40837f;}.cls-26{fill:#2f6b6d;}.cls-27{fill:#6a6f71;}.cls-28{fill:#b3b6b0;}.cls-29{fill:#cbcdc6;}.cls-30{fill:#d3dad2;}.cls-31{fill:#4a8d8d;}.cls-32{fill:#daddd5;}.cls-33{fill:#dfe2dc;}.cls-34{fill:#bec4bb;}.cls-35{fill:#d5d8cf;}.cls-36{fill:#f2f5ee;}.cls-37{fill:#b2b2b1;}.cls-38{fill:#ecefe8;}.cls-39{fill:#f1f3ed;}.cls-40{fill:#dfe2db;}.cls-41{fill:#333035;}.cls-42{fill:#262427;}.cls-43{fill:#4b484a;}.cls-44{fill:#2a252b;}.cls-45{fill:#e7e9e3;}.cls-46{fill:#687c7c;}.cls-47{fill:#072b2b;}.cls-48{fill:#0e3732;}.cls-49{fill:#070807;}.cls-50{fill:#658685;}.cls-51{fill:#90adac;}.cls-52{fill:#809c97;}.cls-53{fill:#749997;}.cls-54{fill:#729692;}.cls-55{fill:#77938f;}.cls-56{fill:#1e201f;}.cls-57{fill:#c1c3bb;}.cls-58{fill:#c1c2b9;}.cls-59{fill:#dde0d9;}.cls-60{fill:#cdd0c9;}.cls-61{fill:#272727;}.cls-62{fill:#242025;}.cls-63{fill:#585457;}.cls-64{fill:#3b383c;}.cls-65{fill:#fafbf7;}.cls-66{fill:#f7f9f3;}.cls-67{fill:#f3f4f1;}.cls-68{fill:#2e2e2f;}.cls-69{fill:#e1e1df;}.cls-70{fill:#90938c;}.cls-71{fill:#a6a9a2;}.cls-72{fill:#29252b;}.cls-73{fill:#312c32;}.cls-74{fill:#363338;}.cls-75{fill:#2d282e;}.cls-76{fill:#2e2b30;}.cls-77{fill:#2e292f;}.cls-78{fill:#241f25;}.cls-79{fill:#1f1e1d;}.cls-80{fill:#e0e2dc;}.cls-81{fill:#c5c8c1;}.cls-82{fill:#729191;}.cls-83{fill:#cddcd5;}.cls-84{fill:#e8f1ea;}.cls-85{fill:#171415;}.cls-86{fill:#e1e1e0;}.cls-87{fill:#353036;}.cls-88{fill:#84938c;}.cls-89{fill:#edde41;opacity:0.7;}.cls-90{fill:#fff;}</style></defs><title>tema_1_button_1</title><path class="cls-1" d="M992.36,116.59c6.43-11.47,17-14.42,29.14-14.13l1,2c-1.73,5.32-6.93,4.78-10.83,6.42-8.67,3.13-11.3,9.23-8.88,17.88a46.64,46.64,0,0,1-.34,26.23c-5.85,20-2.29,40.62-3.55,60.92-.33,5.25,2.76,13.38-7.53,13.46-8-11.49-2.9-24.24-2.6-36.2.51-20.84,1.51-41.7,2.28-62.56C991.56,125.94,989.77,121.06,992.36,116.59Z"/><path class="cls-2" d="M1108,95.1l141.84.2,6.05,2.09a3.83,3.83,0,0,1-.3,4.63c-9.12,9.27-20.16,2.93-29.33,1.75-25.91-3.33-51.73-1.15-77.56-2-7.59-.26-15.2-.07-22.79-.06-7.66.22-15.44-.9-22.87,2-5.3.91-10.64.56-16,.62-3.82-.15-7.74.12-11-2.62a3.17,3.17,0,0,1-.46-4.15l19-2.06C1099,92.34,1103.48,93.12,1108,95.1Z"/><path class="cls-1" d="M1075.65,97.56l-.21,2.69c-11.31,7.73-25,2.46-36.93,6.75-5.55-.38-11.53,1.31-16.2-3.34l-.81-1.2C1039.37,98.81,1057.36,96.58,1075.65,97.56Z"/><path class="cls-3" d="M1355.16,138.21c3,52.3,3.7,104.65,2.67,157-.66,33.54-1.89,67.06-2.86,100.59-2.31,2-4.5,1.74-6.59-.35-4.78-9.31-2.61-19.32-1.89-28.81,2.92-38.44,5.33-76.88,4.85-115.46-1-20.63,2.11-41.38-1.88-61.9-2-18.39,0-37-3.23-55.35-.19-2.74-.17-5.49-.24-8.24a13.88,13.88,0,0,1,.73-6,9,9,0,0,1,2.25-3.32,2.63,2.63,0,0,1,3.49.43l-.08-.12c3.35,4.87,5.51,10,3.08,16Z"/><path class="cls-4" d="M1255.86,100.39l0-3c23.5-.57,46.75,1.92,69.91,5.66,1.63,1.36,3.68,1.94,5.52,2.93a11.4,11.4,0,0,1,4.2,5c7,24.65,11.65,49.44,4.3,74.91-9,.39-7.43-7-8.23-11.95a235.65,235.65,0,0,1-2.52-44.56c-.44-1.29-.87-2.6-1.32-3.87-3.6-16.91-18-14.62-29.93-16.78-7.62-2.17-15.1-5-23.25-4.25C1267.91,105,1260.37,109.62,1255.86,100.39Z"/><path class="cls-5" d="M1350.14,116.27l-.42,2.84c-7.81-.36-10.25-5.66-11.31-12.25l1.11-1.52,6.84.71C1351.83,107.9,1352.33,111.59,1350.14,116.27Z"/><path class="cls-5" d="M1328.52,105.74l-2.73-2.69c4.81-.66,9.48-.43,13.73,2.29l-.43.61C1335.5,109.34,1332,107.82,1328.52,105.74Z"/><path class="cls-6" d="M1344.61,436.52c-4.82,2.14-7.44,7.93-13.45,8.08-6.91,6.76-15,3.73-22.91,2.87a9.22,9.22,0,0,1-5.41-6.94c.53-6.73,6.09-7,10.69-7.62,8.91-1.09,17.39-2,22.64-11,2-3.45,6.44-4.54,10.71-2.59a2.4,2.4,0,0,1,.62,3.55C1347.47,427.6,1347.08,432.28,1344.61,436.52Z"/><path class="cls-7" d="M1347.5,422.84c-.17-.8-.32-1.6-.43-2.41-4.08-3.4-11.59,2.47-14.1-5.2-.32-7.71,8.36-7.66,11-12.82,1.71-2.37,3.2-5,6.18-6l4.82-.57C1359.12,406.66,1354.52,415.08,1347.5,422.84Z"/><path class="cls-8" d="M989.9,130.15l2.19-.64c-.19,21.87,1.36,43.69-1.81,65.62-1.6,11.1,1.26,22.85,2.1,34.3,5.55,5.29,3.63,12,3.51,18.37-3.51,16.56-3.17,33.18-.53,49.81,1.1,28.79,3.5,57.52,4.53,86.32.26,7.22,1.45,13.23,8.78,16.29a10.81,10.81,0,0,1,5,2.65c.92,4.22,2.54,8.29,3.23,12.6-5.86,6.26-11.14-1.26-16.75-.68-9.68-4.05-2.17-16.5-10.4-21.25C985.64,305.74,981,217.94,989.9,130.15Z"/><path class="cls-9" d="M1019.23,444.71l-10.72-.18a29.61,29.61,0,0,0-10.78-10.74c.3-5.88-1.56-12.47,5.32-16.2l1.84.08c.44.07,1.09,0,1.28.25,9.68,12.93,23.74,15.44,38.49,16.18,4.27.31,4.81-2.78,5.54-5.91.86-3.74,1-8.28,6.84-7.7,5.91,7.61,4.61,15.15-.17,22.68a13.63,13.63,0,0,1-5.64,4.2c-6.16,1.77-12.5.94-18.77,1.18C1027.68,448.55,1023.09,447.87,1019.23,444.71Z"/><path class="cls-10" d="M1054.21,441.84c3-7.13,5.06-14.26-.06-21.36L1052,421c-11.9,1.6-23.9-.14-35.81,1.13-4.68-.41-8.62-3-13-4.31l-.11-.22-2.88-2.8c5.32-7.69,10.79,3.85,16.14-.12,13.85-7.24,28.15-7.77,42.84-3a14.61,14.61,0,0,1,5.94,7,20.8,20.8,0,0,1,1,6.6c0,3.58.41,7.21-.93,10.69s-3.41,6.18-7.2,7.17A5,5,0,0,1,1054.21,441.84Z"/><path class="cls-11" d="M1013.72,404.43l-5.08-.46c-3.27-2.64-6.08-5.59-6.57-10.05-4.77-28.66-2.23-57.78-5.58-86.55-2-16.78-5.1-33.81-2.34-50.55,3.94-23.94,3.4-47.91,3.58-71.93-1.17-20.85,6.29-41.1,4.16-62.06-.75-7.45,5.88-11.5,9.72-16.76,3.69-.26,7.5,0,10.7-2.42l15.78-.54a3.15,3.15,0,0,1,.19,3.62c-4.34,4.32-10.62,4.82-15.59,7.92a12.34,12.34,0,0,0-8.08,9.75c-2.18,12.43-5.78,24.78-2.67,37.6a20.55,20.55,0,0,1-.33,6.16c-3,7.49-1.34,15.4-2.07,23.11a23.6,23.6,0,0,1-.49,4.52c-3.59,13.1-1.83,26.47-1.81,39.7,0,24.35-1,48.71.61,73,.45,1.36.81,2.76,1.13,4.15.66,26.78,1,53.61,8.12,79.75a19.75,19.75,0,0,1,2.37,3.16c1.66,3.15,2.57,6.3-.09,9.4A4.86,4.86,0,0,1,1013.72,404.43Z"/><path class="cls-12" d="M1011.61,106.07c-10.38,24.92-9.53,51.47-11.22,77.64-.53,38.59-6.69,77-2.44,115.76,2.68,24.33,2.16,48.85,3.76,73.26.52,8,.37,16,4.07,23.43l2.86,7.81c-10.74,0-12.64-8.79-13-15.88-1.7-29.54-2.27-59.15-3.25-88.73a201.14,201.14,0,0,1,0-51.13q0-9.4,0-18.8c4.18-4.56,2.41-10.18,2.61-15.38.86-22.2-2.36-44.63,4.84-66.46,1.43-4.37.91-10-.34-14.52C995.55,118.65,997.9,112.74,1011.61,106.07Z"/><path class="cls-13" d="M1255.86,100.39c6.06,4.94,12.27-.29,18.39.28,7,4.37,15.3,2,22.65,4.62,5.86,3.19,12.62,3.17,18.87,4.94,8.24,2.34,12.74,6.89,15.36,14.35h0c-.13,6.45,4.19,15.65-8.76,14.2-10.63-16.92-26.16-24.28-45.88-23.69-5.31.16-10.64,0-16,0a20.16,20.16,0,0,1-6-.87c-6.2-2.58-12.72-1.52-19.13-1.75-33-4.7-66.34-.27-99.28-4.74-23.45,1.45-47,1.43-70.22,6.06-10.36,2.07-21.32,1-31,6.89-5.46,3.34-9.75,6.47-6.45,13.63a6.33,6.33,0,0,1-.63,4.16,7.68,7.68,0,0,1-3.87,1.9c-11.88-.93-11.05-9.57-10.82-17.84-.22-5.22,3.31-7.24,7.46-8.73,5.94-3.71,12.77-5,19.25-7.36,15-6.46,31.57-.82,46.74-6l16-.08c6.94-3.45,14.72.63,21.71-2.4,40,.75,80.08-3.11,119.86,4.08C1247.85,102.7,1252,101,1255.86,100.39Z"/><path class="cls-14" d="M1086.57,100.44c-15.15,8.81-32.76,2.86-48.52,8-.67-.61-.9-1.21-.67-1.82s.46-.91.69-.91c0-.88,0-1.76,0-2.64,12.32-2.65,24.81-3.08,37.36-2.86Z"/><path class="cls-14" d="M1124.31,98c-6.83,4.47-14.47,1.59-21.71,2.4C1109.38,95.39,1117,98.46,1124.31,98Z"/><path class="cls-15" d="M1350.15,396.39c-.33,2.92-.37,5.95-3.17,7.86-4.31,5.52-8.4,6.5-12.13-.57,7.73-31.36,5.7-63.61,8.79-95.38,3.28-33.74.35-67.26-.61-100.83-.74-26.07.25-52.27-3.82-78.21-1.19-7.59-2.53-14.94-8-20.77-.89-.91-1.77-1.83-2.65-2.75l10.57.21,10.63,13.16c.07,1.82.14,3.63.2,5.45-2,2.71-3.42,5.41.07,8.08,3.57,17.79,2,35.84,2.68,53.77,1,21.48.63,43,2.56,64.46C1356.75,299.49,1350.56,347.84,1350.15,396.39Z"/><path class="cls-5" d="M1355.23,250.87c-2.46-21.42-6.65-42.77-2.56-64.46C1358.18,207.72,1354.11,229.4,1355.23,250.87Z"/><path class="cls-5" d="M1350,132.64c-1.53,0-4.18.37-4.41-.19-1.69-4.15,1.42-6,4.34-7.89Q1350,128.6,1350,132.64Z"/><path class="cls-16" d="M1323,138c8.64-.87,5.51-8.85,8.08-13.38,5.1,15.62,2.07,32.15,5.33,48,.94,4.6-1.17,9.81,2.77,13.83l1.54,1.47c1.78,26,2,52.09,2.07,78.18.06,17.18-4.16,34.3-.62,51.5a18.77,18.77,0,0,1,.21,6.47c-3.11,8.5-3.42,17.8-3.67,26.35-.41,14.23-9,25-12.26,37.9-1.9,7.49-9,12-17.86,11.27-6.79-1.79-14.26-2.77-13.89-12.66,0-1.56.74.26-.26-1.23-7.64-11.34-7.68-11.45,6.89-16.41,3-1,5.79-2,8-4.24,9-3.89,19.61-6.15,20.47-21.09-.07.23-2.29,2.26-.5,2.13-.58,7-2.29,11.28-9.1,3.92-2.77-11.53.34-23.46-2.55-35,.92-31.89,5-63.63,4.13-95.61-.28-11.09-.06-22.17-2.67-33-.08-13.14-.07-26.3-3.12-39.21a13.9,13.9,0,0,1-.81-4.18,9.73,9.73,0,0,1,.85-4.08,4.79,4.79,0,0,1,3.24-2.31A4.88,4.88,0,0,1,1323,138Z"/><path class="cls-17" d="M1339.21,323.54v-5.37c2.22-41.78,1.07-83.6,1.36-125.41,0-2.21.11-4.44-1.35-6.35h0c0-26.25.91-52.59-8-77.92,5,1.87,7.73,5,8.34,10.77,2.42,22.83,6.49,45.3,6.24,68.62-.18,17.93,1.2,36.24,2.72,54.33,2.76,32.83-.61,65.54-2.42,98.22-.61,11.09-1.25,22.21-1.35,33.32s-2.39,21.14-8.17,30.48c-4.32,4.86-9.36,4.54-14.69,2.08-2.09-1.46-3-3.77-1.56-5.69C1337.57,377.59,1337.32,350.31,1339.21,323.54Z"/><path class="cls-16" d="M1331.13,124.58c-7.64-13.7-23.74-11.71-34.93-18.83.89-1.07,1.78-1.13,2.69,0C1321.17,105.92,1327.88,109.85,1331.13,124.58Z"/><path class="cls-2" d="M1298.89,105.72l-2.69,0c-6.06,0-12.13-.11-18.19,0-3.69,0-4.3-2-3.76-5C1283,99.89,1291.25,101.25,1298.89,105.72Z"/><path class="cls-18" d="M1334,414.92c2.91,5.23,11.11-2.05,13,5.51-2.07.66-5.59.83-6,2.06-6.4,18.92-23.91,12.63-36.85,16.58-2.33,2.41-4.41,1.36-6.45-.42-1.74-3.8-4.58-6.75-7.6-9.56a7.1,7.1,0,0,1-.55-3.46c1.81-3.38,0-6.89.36-10.36a6.62,6.62,0,0,1,2.91-2.78C1306.7,411.93,1320.54,410.65,1334,414.92Z"/><path class="cls-19" d="M1299,436.64l5.24,2.43,2.71,5.43c-5.67,1-10.7-1.63-16-2.77l-1.23-1.6c-.46-2.16,0-4,2-5.2C1294.5,433.91,1297,434.23,1299,436.64Z"/><path class="cls-20" d="M1334,414.92c-14.37,5.9-28.74,1.15-43.1,0-1.93,2.66-3.87,5.29-6.84,1,4.17-15.41,20.09-20.61,36.32-11.86l16.11.16c3.48,4.16,7,1.74,10.45,0C1346.25,412.16,1336.63,409.28,1334,414.92Z"/><path class="cls-21" d="M1056.93,441.91c1.56-1.78,3.12-3.55,4.67-5.33a20.5,20.5,0,0,1,11.52-2.73c28.38,2.16,56.81.17,85.29,1.84,30,1.76,60.45,2.24,90.59-1.14,8-.9,16,2.11,23.87-.54,4.69-.55,8.94,1.06,13.16,2.79,2.35.94,3.21,3.36,4.91,5v0c1.22,3.83,1.45,8.15,5.25,10.72-3.88,5.15-9.59,3.92-14.8,4.11-9.79.34-19.68-.83-29.24,2.36-52.76.7-105.52.52-158.26.12-14.42-4.53-29.42-1-44-3.12-4.63-2.13-6.7-5.05-1-7.95C1052.05,446.36,1055.25,445.29,1056.93,441.91Z"/><path class="cls-22" d="M1311.63,453.1l9.26-.18c6.62,9.8,10.39,19.73,1.42,30.26A137.74,137.74,0,0,0,1303.5,486c-82.1.43-164.2.07-246.28.19-3.86,0-7.75,0-11.61-.07-6.87-.29-13.67-3.42-20.66-.55-8.65-9.92-8.77-19.09-.45-32.86l0-.93c3.23-2.81,6.73-2.74,10.38-1,2.52,1.77,3.38,4.37,3.64,7.27-2,7.47,1.94,10.43,8.59,11.44,48.71,1.3,97.38.42,146.05.49,35.72,0,71.44.76,107.11-.48,3.8-.85,7.14-2.16,6.49-7.14A12.16,12.16,0,0,1,1311.63,453.1Z"/><path class="cls-23" d="M1311.63,453.1q-1.22,4.89-2.44,9.77c-2.8,7-9,6.9-15,7.15-79.23.76-158.46,1.62-237.69,0-8.22-.49-17.41,1.07-20.79-9.75l0-7.52c3.37-3.51,6.9-3.61,10.57-.5,15.42,2.07,31.11-1,46.44,2.56-14,4.92-28.78.1-39.47,2.56,75.94-1.83,155.41.83,230.7-1-7.7-1-19.79,2.39-31.52-1.5,14.45-3.49,29.26-.3,43.79-2.42Z"/><path class="cls-24" d="M1013.72,404.43l5.57-.5c12.33-7.74,24.33-3.2,36,1.54a7.08,7.08,0,0,1,4,9.82c-14.24-5.37-28.67,2.69-42.94-.62C1011.47,412.26,1008.75,409.32,1013.72,404.43Z"/><path class="cls-1" d="M992.33,248.23q0,25.56,0,51.13A105.32,105.32,0,0,1,992.33,248.23Z"/><path class="cls-25" d="M1003.16,417.81l13.32,0c10.6,2.4,21.79.75,32.2,4.62,2.23,5.26,1.64,10-2.65,13.95C1027.72,439.45,1011.91,436.79,1003.16,417.81Z"/><path class="cls-26" d="M1046,436.34l.15-16c2.6-1.94,5.25-1.75,7.94-.19l0,.3c.58,7.08-.07,13.77-6.16,18.64-.17.14-1-.11-1.09-.37A16.45,16.45,0,0,1,1046,436.34Z"/><path class="cls-27" d="M1051.47,444.51c-6.14,4.16-12.37,3.71-18.65.35Z"/><path class="cls-28" d="M1277.45,436.54a272.29,272.29,0,0,1-58,4.94c-10.53-.23-21.09.34-31.61-.17-42.07-2.07-84.31.54-126.26-4.73q.62-5.41,1.24-10.85c6.45-2.79,13.26-1.55,19.86-1.44,52.69.88,105.38,0,158.06.12,13.68,0,27.41-1.74,41,1.19a7.42,7.42,0,0,1,2.46,3.73C1284.81,434.4,1281.14,435.48,1277.45,436.54Z"/><path class="cls-29" d="M1282.6,428.38c-30.81.3-61.62.91-92.43.84-40.37-.08-80.74-.65-121.11-1.17-2.08,0-4.14-1.51-6.21-2.32-.15-1.78-.31-3.56-.47-5.34,10.51-9.21,21.35-6.1,32.27-.87,5.43,3,11.35,2.14,17.1,2.15,33.51.09,67,0,100.5,0,13.48.25,26.83-1.35,40.16-3,6.49-3.73,13.83-4.32,20.9-6.1,7.25-1.83,9.55,1.43,11.58,6.82C1286,422.93,1285.79,426,1282.6,428.38Z"/><path class="cls-30" d="M1089.12,420.32c-8.92-2.94-17.83,0-26.74.07l-3.13-5.1C1055,404.8,1045,406,1036.61,404.58c-5.64-1-11.54-.48-17.32-.65-.92-2.59-1.83-5.18-2.75-7.78,5.86-6.32,13.19-5.12,20.49-4,8.48,4.42,17.75,1.63,26.58,2.78,4.93,2.26,10.43,2.39,15.51,3.93,1.35.55,2,2,3.28,2.75a6.13,6.13,0,0,1,.18-2.54,7.27,7.27,0,0,1,2.51-2.48,11.52,11.52,0,0,1,11.4.67c2.51,2.21,1.72,4.73.73,7.28-3.45,3.77-4.08,8.71-5.46,13.34A6.8,6.8,0,0,1,1089.12,420.32Z"/><path class="cls-31" d="M1054.12,420.18l-7.94.19c-4.88.58-3,9-9.17,8-2.54-.41-6.47-.27-7.29-1.74-2.34-4.26,5-2.08,4.73-5.69-5.86-1.95-12.64,1.57-18-3.16C1029,418.74,1041.86,415,1054.12,420.18Z"/><path class="cls-32" d="M1038.06,396.14h-21.52l-2.65,0c3.59-10.42-2.68-19.63-4-29.44-2.35-17.94.61-36.22-4.13-53.9,0-3.71-.91-7.88,4.67-8.49a5.29,5.29,0,0,1,2.15,3.15c.3-1.36-.46-2.48-1-3.57-1.84-3.77-1.8-7.79-1.75-11.8.58-43.7-1.74-87.44,1.51-131.08.51-6.86-3.3-18.67,11-18.15a9.93,9.93,0,0,1,3.17,6.39c2.82,37.4-3.53,74.59-2.44,112,.26,8.94.51,17.77,3,26.39,1.4,8.19,1.29,16.45,1,24.7-2.4,10.53-.48,21.31-1.74,31.89-4.79,7.65-8.81,15.28,1.24,22.13,2.2,8.52,6.39,14.3,16.45,14.19,3.79,0,6.84,2.16,8.79,6.73,2.53,5.9,2.7,8.74-4.5,8.87C1044.32,396.16,1041.19,396.14,1038.06,396.14Z"/><path class="cls-33" d="M1021.67,143.35c-8.81,5.92-7.41,15.69-7.52,23.87-.58,43.24-.15,86.49-.38,129.74,0,8.66,5.27,16.94,1.73,26-5.86-5-2.14-13.26-7-18.27-5.29-11.14-3.45-23.1-3.25-34.67.12-7.45.26-15,.56-22.44-.49-10,1.16-20.05-1.22-30,.5-8.62-1.63-17.36,1.21-25.87h0c3.59-7.77-.86-16.43,2.68-24.2,0-1.79,0-3.59,0-5.38,1.61-13.47-1.75-27.61,5.39-40.34,4.86,4.67.14,15.85,11.12,16.38C1025.73,141.15,1024.37,142.69,1021.67,143.35Z"/><path class="cls-34" d="M1005.78,396.16c-4-2.15-5.5-5.7-5.31-10,.51-11.21-2.45-22.3-2.33-33.26.4-35.75-6.07-71.42-2.62-107,2-20.71-.73-41.77,4.87-62.14A1692.69,1692.69,0,0,0,1005.78,396.16Z"/><path class="cls-35" d="M1008.46,248.25c-.83,18.82-1.56,37.65,0,56.48-.9,2.68-1.79,5.37-2.69,8.06-2.89-2.77-2.68-6.39-2.68-9.93q0-50.57,0-101.13c0-3.55-.21-7.16,2.66-9.94l0,26.87C1009.42,228.28,1004.86,238.63,1008.46,248.25Z"/><path class="cls-35" d="M1005.8,312.79c7.26,12.13,5,25.58,5.38,38.67.28,10.11.44,20.19,5.21,29.57,2.77,5.44,3.69,11-2.5,15.1-7.33-5.6-3.84-14.73-4.9-21.37C1005.75,354.45,1004,333.59,1005.8,312.79Z"/><path class="cls-14" d="M1013.89,121.87c-5.9,12.9.82,27.48-5.39,40.34-4-15.39-.54-30.18,4.08-44.73,1.21-3.82,5-6,9.33-6.39,1.75,1.8,1.52,3.59,0,5.37A8.72,8.72,0,0,0,1013.89,121.87Z"/><path class="cls-33" d="M1021.89,116.46c0-1.79,0-3.58,0-5.37,4.73-3.75,10.25-5.12,16.16-5.34,0,.91,0,1.82,0,2.73Z"/><path class="cls-14" d="M1008.48,167.59c-1.07,8,2.58,16.61-2.68,24.2C1006.88,183.74,1003.26,175.17,1008.48,167.59Z"/><path class="cls-36" d="M1255.88,111.11l5.37,0c3.63,4.63,15.73-3.18,13.93,9.48-3.4,5.16-7.68,7.06-13.72,4.33-11.51-5.21-24.35-4.26-36.32-7.45a27.23,27.23,0,0,1-3.8-.67c-6.79-2.34-13.75-2-20.72-1.25-14.73,1.48-29.41,4.33-44.3,1.68a33.68,33.68,0,0,0-20.56-1,12.12,12.12,0,0,1-4,0c-14.92,1.5-28.07,9.46-43.06,11.23-10.41,1.23-20.79,3.83-31.18,5.72-8.27,1.5-16.88,1.43-22.88-6.46,4.3-10,13.19-11.12,22.54-13.23,25.66-5.78,52.18-4.53,77.75-10.46,10.27,4.06,21.15,2.43,31.6,2.32,23.6-.25,47,1.75,70.55,3C1243,111.93,1249.73,109.34,1255.88,111.11Z"/><path class="cls-37" d="M1021.67,143.35c1.11-1.7,2.22-3.41,3.34-5.1a11.06,11.06,0,0,0,2.29-.3c2.9-2.7,5.8-5.39,9.94-6,19.06.9,38,.56,56.83-3.37a15.47,15.47,0,0,1,5,0c48.3.44,96.6-.16,144.89.27a34.37,34.37,0,0,1,4.86.51c19.53,4.41,39.42.56,59.06,2.53,3.9,1,7.51,2.57,9.63,6.34l-.06,3a11.79,11.79,0,0,1-8.44,3.31c-28.28-.35-56.54,1.35-84.83.86-36.54-5.73-73.12-4.58-109.72-.74-23.1.4-46.18,2.26-69.31,1.52a47.92,47.92,0,0,0-18.26,3.39,6.09,6.09,0,0,1-4.66-.34Z"/><path class="cls-38" d="M1094.94,132.87c-19.63,4.49-39.59,1.53-59.37,2.6-2.8,2.37-5.51,0-8.26-.15-8.49-7.63-6.58-13.17,4.07-18.84,11.55-6.13,24.08-5.43,36.11-7.11,22.33-3.13,44.93-4.28,67.41-6.26-1.76,6.86-7.52,5.75-12,5.19-23.52-2.94-45.43,6.56-68.22,9.22-5.47.64-13.73,4.68-19.28,9.74,13.4,8.13,27.49,2,41.27,1.92C1083.08,129.17,1089.89,126.38,1094.94,132.87Z"/><path class="cls-39" d="M1274.69,119.19c-1.54-7.59-11.4-1.31-13.44-8.06,14.79,1.28,30-3.11,44.39,5,5.76,3.24,9.13,11.49,17.68,9.48q-.13,6.18-.28,12.36l-2.59-.09c-3.26-1.87-7.33-1.76-10.32-4.3C1297.48,130.83,1283.43,131.55,1274.69,119.19Z"/><path class="cls-39" d="M1255.88,111.11c-6.69,2-13.3,3.49-18.83-2.68C1243.33,109.28,1250.15,106.34,1255.88,111.11Z"/><path class="cls-33" d="M1027.31,135.32c2.86-6.47,5.47,2,8.26.15-2.31,2.31-5.23,2.61-8.27,2.48C1027.3,137.07,1027.3,136.2,1027.31,135.32Z"/><path class="cls-40" d="M1038.06,396.14c3.38-3.92,8.29-2,9-4.19a39.3,39.3,0,0,0,1.19-4.47c.43-2.87-.75-4.65-7.68-3.38-15.81,2.9-16.36-6.51-15.92-17.53a8.24,8.24,0,0,1,2.82-2.75c17.13-.36,34.24-2.28,51.41.8,10.09,1.81,20.48.5,30.74.57,23.56.18,47.1,1.5,70.62,2,27.2.57,54.69-4.8,81.68-.31,15.64,2.61,29.61-5.68,44.65-2.7a7.3,7.3,0,0,1,3.11,2.4c1.91,7.9,1.72,8.51-4.38,6.55-7.41-2.38-10.06,6.93-16.65,6.41l13.05,1c-5.43,7.85-3.5,13.21,5.28,15.65-8.2,6.7-17.78,7.21-27.53,5.5-4.44-.78-8.65-1.81-13-.11a17.29,17.29,0,0,1-4.14,1.29c-4.33.38-8.67-.28-13,.17-24.45-1.49-49-1.26-73.42-1.72-19.68-.37-39.88,2.86-59.95,2.68-6.58-.07-13.65.87-18.71-5.11l-13.47.07c-6.27,1.52-12.52-.66-18.78-.07C1056,397.68,1046.58,401.52,1038.06,396.14Z"/><path class="cls-41" d="M1224.21,140.47c31.09-1.79,62.15.76,93.23.7a3.82,3.82,0,0,1,1,1.91c-3.54,5-8.73,5.61-14.15,5-11-1.27-22-.35-33-.65-3-.08-6.13.2-9.21-.25a50.35,50.35,0,0,0,6.61.41c5,.26,12.18,1.7,10.94,6.64s.06,14.46-9.87,14.53c-3.64,0-6.75,2-10.21,2.77a66.75,66.75,0,0,1-16.87,1,72.31,72.31,0,0,0-12.89-1,15.21,15.21,0,0,1-6-1.34c-7.16-14.49-20.27-14.27-33.9-14.69s-26.66,3.49-40.15,1.84c-4.5-.56-7.59,2.67-9.93,6-5.67,8-13.23,9.81-22.45,8.27a42.87,42.87,0,0,0-14.73-.19c-11.07,2-13.64,8.8-7.28,18.31-2.92,9.36-12.42,7.31-18.72,10.82-9.89,2.39-18.89,7.89-29.3,8.44-13.54-3.46-17.7-15.5-8.68-26.34,2.41-2.89,4.71-5.35,4.34-9.2-.47-4.94-1.58-10.05,4.31-12.7,3.62-1.63,6.3-.18,13.32,6.81,6.43-22,25.6-20.59,42.37-22.54,25.47-3,51.13-3.81,76.74-5.54C1194.54,140,1209.44,138,1224.21,140.47Z"/><path class="cls-42" d="M1323.3,183.71c3.85,43.93,2.18,87.85-.17,131.77-3.09,10.24-.45,20.77-1.53,31.1-9.29,7.08-19.92,5.08-30.31,4.33-16.34-1.19-32.64-4.42-49,.11-3.48,1-7.45.66-9.74-2.64-2.88-4.13,1.35-6.24,3.3-8.93,4.81-6.67,11.23-10.51,19.48-9.1,13.61,2.31,22.08-3.9,27.83-15.38,4.12-4.77,10.49-5.15,15.56-8,4.87-4.68,3.42-11.36,5.35-17,2.64-11.45-.15-23.29,2.56-34.72,1.88-5,9.42-7,7.19-14.11,4.43-18.74-.35-38.29,5.22-56.9A3.2,3.2,0,0,1,1323.3,183.71Z"/><path class="cls-43" d="M1319.69,347.66c2.3-10.61-1.92-21.9,3.44-32.18l-.45,37.34c-.17.74-.35,1.48-.52,2.22-5.66,6.42-13.89,5.49-21.14,7.38-23.29.19-46.56,0-69.84.1q-55.58,0-111.13,0c-9.17-.17-18.36.35-27.52-.45-18.65-3.84-38.13-1.44-56.52-7.57-3.32-1.11-7.09-.86-9.24-4.35,3.09-9,11-6.62,17-6.13,49,4,98,3.77,147.09,3.56,23.15-.09,46.43,3.81,69.25,1.83C1280.05,347.68,1300,351.83,1319.69,347.66Z"/><path class="cls-4" d="M1263.93,398.83c14.12-4.47,28.81.25,43-2.69,10,.25,12.71-6.05,17.15-14.18,10.14-18.55,9.73-39.1,15.11-58.42,5.13,16-.29,31.57-2,47.29-.24,2.17-2.18,4.41-1.83,6.35,2.35,13.18-5.55,20.41-15,26.89-8.75.51-17.65-.52-26.08,2.94-4.79,2-8.21,5-9.18,10.31-.42,1-1.07,1.18-2,.58a75.19,75.19,0,0,0-27.4,2.4,7,7,0,0,1-2.5-4.83c3.42-6.75-6.23-.46-5-5-2-4.4-.91-8.21,2.27-11.59l13.41,0c1.63,1.67,3.77,1.25,5.77,1.37C1267.71,400.07,1265.59,400.44,1263.93,398.83Z"/><path class="cls-44" d="M1323.3,183.71h-2.87c-5.44-2.37-3.08-12.28-11.47-11.77-8.25.93-16.48,1.9-24.34-1.84-4.46-3.53-2.15-5.88,1.47-7.87,3.89-2.13,8.73-1.08,12.81-3.34-2-7.55-8.07-6.91-13.54-8.5-6.31-1.82-15.24,2.57-18.67-7l51.71-.35c8.74,6.17,3.85,15.48,5.08,23.3C1324.37,172,1323.43,177.92,1323.3,183.71Z"/><path class="cls-4" d="M1339.22,186.41c.87,2,2.42,4,2.5,6q2.25,59.91,0,119.81c-.07,2-1.63,4-2.5,6-6-8.07-2.65-17.6-2-25.71,2.21-28.87,1.46-57.56-.18-86.35C1336.63,199.61,1338.43,193,1339.22,186.41Z"/><path class="cls-45" d="M1309.65,366.57H1307c-1.71-6.36,1.47-9.06,7.31-9.32,3.68-.17,7.13-.26,8.58-4.47l-.18.05c6.85-1.5,4.43-8.67,7.56-13C1332.15,361.35,1329.16,365.15,1309.65,366.57Z"/><path class="cls-13" d="M1312.33,132.63l8.12,5.24-3,.27c-2.87-.14-5.75-.26-7.91-2.57a2.53,2.53,0,0,1-.88-2.14c.09-.79.22-1.18.41-1.18A2.27,2.27,0,0,1,1312.33,132.63Z"/><path class="cls-46" d="M1283.2,417.9a8.84,8.84,0,0,0,2-.58l5.77-2.4c0,.85-.07,1.7-.08,2.55,2,2.4,2.52,4.89.42,7.52-.12,1.19-.25,2.38-.37,3.56a11.84,11.84,0,0,1-.21,8.19c.09,1.68.17,3.35.25,5l-5.1-2.68c-3.9-1.79-1.24-5.74-2.74-8.33a5,5,0,0,0-.5-2.38Z"/><path class="cls-47" d="M1290.69,436.74c-2.26-2.78-3.53-5.55.2-8.19,4.41,1,11.25-.46,8.09,8.09Z"/><path class="cls-48" d="M1291.27,425l-.42-7.52c2.77.33,6.91-.82,7.06,3.31C1298.05,424.47,1294.36,424.89,1291.27,425Z"/><path class="cls-49" d="M1252.39,454.87h45.29c0,1.05,0,2.09,0,3.13-5.87,0-11.75-.19-17.61,0-24.92,1-49.95-2.25-74.78,2.5-11.61,2.22-22.88-2.82-34.54-2.63-23.51.38-47-.06-70.56.2-8.24.09-18.35,4-24,2.92-11.23-2.16-23.07,1.76-33.78-2.65l.11-3.53h50.12Z"/><path class="cls-20" d="M1283.1,430.76c.91,2.78,1.82,5.55,2.74,8.33-4,3.05-5.5-2-8.39-2.55Z"/><path class="cls-50" d="M1054.18,465.89c45,.67,90.07,1.82,135.1,1.86,35.67,0,71.33-1.32,107-2.05-.27,6.73-5.55,4.19-8.74,4.25-15.45.29-30.9.13-46.35.13-7.77-.13-15.57.3-20,0,4.38,1.2,12.26-.49,20,.06,19.59-.57,39.21,1.19,58.76-1a7.65,7.65,0,0,1,7.22,2.6c-3.81,3.23-8.43,2.4-12.82,2.41q-120.53,0-241,0c-4.39,0-9,.79-12.87-2.31a6.39,6.39,0,0,1,5.78-2.77c22.47,2.38,45.07.15,60.29,1.1-9.12,0-25.51.24-41.9-.19C1061.13,469.8,1055.16,473.55,1054.18,465.89Z"/><path class="cls-51" d="M1043.35,482.09l10.87.19c4.65,2.37,9.65,1.2,14.47,1.2,72.24.09,144.48,0,216.72.17,4.6,0,9.86-2.19,13.84,2.27-1.39,5.18-5.71,2-8.55,3-21.8-.1-43.55,1-65.29,2.56-27.14.23-54.28.19-81.41,0-12.35-2.52-24.85-1.28-37.24-1.08-16.47.26-32.83-1.45-49.25-1.51-2.34,0-4.69,0-7-.06C1047.17,487.59,1042.61,487.64,1043.35,482.09Z"/><path class="cls-52" d="M1298.89,487.58c-4.52-4.23-10.14-2.65-15.32-2.65q-107-.17-214-.16c-5.19,0-10.79,1.6-15.38-2.49l252.44-.29c4-.78,8.52-4.15,10.79,2.47l.42.78C1312.17,491.12,1305.51,489.16,1298.89,487.58Z"/><path class="cls-53" d="M1054.18,465.89c11.42,6,23.68,1.92,35.52,2.82,9.27.71,18.64.14,28,3h-77.18c-5.77-2.08-11.5-4.18-4.76-11.45C1040.77,465.79,1047.79,464.79,1054.18,465.89Z"/><path class="cls-54" d="M1239.78,469.13c14.23-.14,28.46-.18,42.69-.45,4.74-.09,9.92,1.28,13.81-3l12.91-2.83c5.26,4.28,3.14,6.87-2,8.79l-67.46-.25c-1-.53-1.4-1-1-1.54A1.43,1.43,0,0,1,1239.78,469.13Z"/><path class="cls-52" d="M1043.35,482.09l5.43,5.67c-7.12,1.37-14.24,2.85-21.15-.88a4.34,4.34,0,0,0-.54-1.9C1030.87,474.81,1037.82,482.42,1043.35,482.09Z"/><path class="cls-55" d="M1317.45,484.46c-3-3.2-7.13-1.92-10.79-2.47,4.77-2.9,9.5-4.05,14.07.39a10.82,10.82,0,0,1-.4,2.33Z"/><path class="cls-56" d="M1027.63,486.88l21.15.88,4.71.17a1.63,1.63,0,0,1,1.56,1.88l-27.73.45C1027.42,489.13,1027.53,488,1027.63,486.88Z"/><path class="cls-57" d="M1089.12,420.32c0-.88.06-1.76.08-2.64,1.58-2.85,3.73-4.75,7.26-4.33,14.47,5.82,29.8,1.26,44.56,3.7a161.27,161.27,0,0,0,55,0c7.66-.33,15.41-2.37,22.86,1.21,5.5,5.45-.91,5.54-3.35,7.42q-54,0-108,.08C1100.87,425.74,1094.11,426.1,1089.12,420.32Z"/><path class="cls-58" d="M1215.58,425.65l5.34-5.28c.45-.56.89-1.13,1.33-1.7,10.87-4.05,22.41-1.94,33.54-3.59,0,1.74,0,3.48,0,5.22C1243.18,428,1229,424,1215.58,425.65Z"/><path class="cls-59" d="M1220.92,420.37l-24.2.1c-3.74,2.26-7.84.82-11.76,1.14-4.51-7.5,2.39-9.85,6.31-9.76,12.8.28,24.17-6.51,36-6.6a32.19,32.19,0,0,0-19.8,2c-13.51,2.38-27.4-1.16-40.68,2.59,2.58,3.08,6.44,3.09,9.73,4.41,2.59,1.82,6.91,3,2.64,7.28-10.62.28-21.24.14-31.85.08-9.67-4.52-20.2-2.21-30.29-3.55-7.64-1-14.84-2.38-21.68-5.81-4.51-2.24-5.33-4.86-.83-8,.89-1.79,1.78-3.59,2.68-5.38,25.38-2.41,51.11-1.65,76.36-2.4a713.8,713.8,0,0,1,77,2.41l0,13.43c.19,6.37-4.26,6.42-8.83,6.76-6.93.51-14-1.55-20.79,1.25Z"/><path class="cls-60" d="M1065,398.84c6.28-4.39,12.53-1.55,18.78.07,0,.86,0,1.72,0,2.59-.86,1.31-1.75,1.4-2.67.06C1075.68,400.91,1069.74,403.32,1065,398.84Z"/><path class="cls-40" d="M1081.11,401.56q1.34,0,2.67-.06c-.58,3.22,1.51,7.39-2.93,9.21-.75.3-2.64-.73-3.19-1.63C1075.21,405.07,1079.94,404.09,1081.11,401.56Z"/><path class="cls-29" d="M1094.53,404.22c-.51,1.8-2.37,3.59,0,5.41,1.66,1.81,1.46,3.61,0,5.4l-5.26,2.65C1090,412.81,1086.59,406.27,1094.53,404.22Z"/><path class="cls-56" d="M1142.94,490.27c27.78,1.22,55.57.9,83.35-.14,12.57-1.58,25.13-2.65,37.64.47-3.41,2.95-7.56,2.33-11.54,2.33q-84,0-167.91,0c-4,0-8.15.63-11.46-2.52A347.61,347.61,0,0,1,1142.94,490.27Z"/><path class="cls-52" d="M1142.94,490.27l-69.92.14-18-.6c-.55-.6-1.07-1.23-1.56-1.88l82.17-.22C1138.39,487.71,1140.92,488.24,1142.94,490.27Z"/><path class="cls-55" d="M1263.93,490.6l-37.64-.47c21.56-5,43.38-2.05,65.1-2.17.41,1.15,0,1.84-1.21,2Z"/><path class="cls-61" d="M1290.18,489.94a22.29,22.29,0,0,0,1.21-2l7.5-.38c6.52.8,13,1.37,19-2.34C1310.11,495.44,1299.4,488.31,1290.18,489.94Z"/><path class="cls-62" d="M1021.93,312.79l-.4-23.32c-2-19.76-.41-39.58-.92-59.35,1.25-13.78,9.85-20.07,22.58-22.14,13.46,2.05,14.92,4.32,9.25,15.94a35.63,35.63,0,0,0-4,15.37c-.35,23.16.81,45.73,12.33,67,8.55,15.8,22.24,20.76,38.06,23.27,4.83.76,9.9.33,14.28,3,3.13,1.9,6.18,4.51,5.56,8.42-.68,4.22-4.71,5.25-8.32,5.24-14.28-.06-28.7,2.28-42.73.91-14.2-1.39-28.21-1.05-42.32-.87-2-1.28-2-3.27-2-5.3a32.44,32.44,0,0,0,.28-17.24C1022.48,320.18,1024.64,316.11,1021.93,312.79Z"/><path class="cls-63" d="M1021.93,312.79c3.28,3,2.1,7.18,2.81,10.86,2.12,5.15,1.45,10.38.44,15.62,0,1.9,0,3.8.08,5.7,1.29,1.57.72,3.82,2,5.39l64.61,8.06c-6,6.52-13.92,3.58-21,4-8.28.46-16.6.13-24.89.09a72.15,72.15,0,0,1-9.41-.46c-5.41-2.26-12.12-2-15.65-8a6.42,6.42,0,0,1,.84-6.28Q1021.82,330.29,1021.93,312.79Z"/><path class="cls-64" d="M1022.6,226.73q-.54,31.36-1.07,62.74c-3.69-46.78-.14-93.53.69-140.3a4.71,4.71,0,0,0,2.07-.91c5.49,2.46,5.65,7.47,5.69,12.36.1,14.58-.21,29.18,0,43.75C1030.19,212.93,1023.5,218.78,1022.6,226.73Z"/><path class="cls-45" d="M1021.7,347.78l.54,4.5c1.16,5.86,6.06,4.56,10,5.22a4.25,4.25,0,0,1,1.76,3c-.66,3.73-4.47,4-6.65,6h-2.68C1013,360,1012,353.81,1021.7,347.78Z"/><path class="cls-14" d="M1008.46,248.25c-5.4-9.46-1.44-19.75-2.64-29.59C1011.21,228.12,1007.26,238.42,1008.46,248.25Z"/><path class="cls-65" d="M1156.38,113.81c14.51,1.93,28.68-1.71,43-2.68,7.77,3.58,16.43-.87,24.2,2.68h0c9.91,2,18.45,8,29.67,7,9.48-.88,10.46,5.77,4.8,12.87-3.51.23-7.08,1.17-10.39-.89l.1,0c-6.84-3.12-14-1.42-21.07-1.45-33.58-.15-67.16.11-100.75-.15-6.31-9.59-4.89-12.36,8.91-17.36h0C1142,113.9,1149.21,117,1156.38,113.81Z"/><path class="cls-66" d="M1134.87,113.81c-2.93,5.81-12.57,7.14-10.75,16.12-8.68,3.84-18.3-1.25-26.95,2.83l-1.11.17-1.12-.06q-22.77-.12-45.54-.25c-5.35,0-11,.64-14-5.36,18.39,4.7,35.44-2.61,53.14-4.7C1104.37,120.68,1117.85,107.17,1134.87,113.81Z"/><path class="cls-67" d="M1258.42,132.38c-.54-4.69,2.77-10.52-8.1-7.72-9,2.32-19-4.15-26.72-10.85,13.21,2.08,27.28,1,39.26,7.55,5.81,3.21,7.77-2.65,11.83-2.17l37.64,13.44c-.88,0-1.77,0-2.66,0C1292.58,134.69,1275.49,135.13,1258.42,132.38Z"/><path class="cls-66" d="M1156.38,113.81c-7.17,8.89-14.34,6.77-21.51,0C1142,109,1149.21,110.69,1156.38,113.81Z"/><path class="cls-67" d="M1223.6,113.81c-8-1.1-16.62,2.58-24.2-2.68C1207.44,112.23,1216,108.54,1223.6,113.81Z"/><path class="cls-68" d="M1022.6,226.73c2.65-26.11,2.69-52.28,1.69-78.47.8-7.95,7.41-6.94,12.21-7,25.31-.57,50.63-.62,76-.85,20.9-1.06,41.81-2.73,62.65.86-5.46,5.19-14.43,6-18.93,4.48-11.85-4-21.87-1.78-32,3.16-3.32,1.62-6,.84-9,.25-14.66-2.9-28.28,2.62-42,6-7.5,1.84-7,10.5-8.25,16.92-.59,3.12-.7,7.12-4.44,7.25-4.56.15-3.08-4.42-3.84-7.16A31.18,31.18,0,0,0,1055,167c-1.44-3.09-3.67-5.52-7.32-3.65-3.82,2,0,4.37,0,6.54,0,6.91,3.84,16.55-12,15.85,10.88,6,7.51,11.32.13,16.55l10.24,2.92c1.67,3.07-1.15,3.9-2.68,5.37C1035.29,214.42,1027.25,218.38,1022.6,226.73Z"/><path class="cls-67" d="M1097.17,132.76c8.49-5.64,18-1.59,26.95-2.83,37.07-.58,74.16,1.15,111.23-.85,4.18-.23,9.07-.14,12.43,3.69Z"/><path class="cls-64" d="M1175.1,141.22l-62.65-.86c37.25-2.5,74.51-3,111.76.11Z"/><path class="cls-39" d="M1258.42,132.38l51.25.27c0,1-.05,1.94-.08,2.91-20.62-1.33-41.43,1.71-61.91-2.82Z"/><path class="cls-69" d="M1027.3,366.56l5.38-5.37c2.37-1.62,4.77.21,7.15-.05,5.1.93,10-2.06,15.12-.75,6.18,1.67,12.28.5,18.39-.53q21.51,0,43,0c2.2,0,4.41,0,6.6.09a53.93,53.93,0,0,0,23.45.19,18.4,18.4,0,0,1,4.43.73c23.37.16,46.72,1.32,70.06-.65,4-.62,8-.26,12-.36,23.79-1,47.66,1.93,71.4-1.57,5.86-2.9,13.51.22,18.53-5.51-1.35,9.14-15.42,3.63-15.89,13.79-9.71,2.95-20.12,1.68-29.78,7.24-3.49,2-12.53-1.48-19-2.58-13.28-2.27-26.42-4.53-39,1.26-6.69,3.09-10.19-3.41-16.32-2.76-25.7,2.73-51.5-.15-77.26-.55C1092.88,368.66,1060.09,367.46,1027.3,366.56Z"/><path class="cls-70" d="M1172.39,387.79c-3-.57-7.92,2-8.28-2.79-.4-5.21,4.3-5.31,8.35-4.9C1174.47,382.68,1174.87,385.25,1172.39,387.79Z"/><path class="cls-71" d="M1172.39,387.79c0-2.56,0-5.13.07-7.69,2.81,2.44,9.53.88,9,5.65C1181,390,1175.73,388,1172.39,387.79Z"/><path class="cls-72" d="M1043.46,210.62l2.68-5.37c10.23-1.32,18.93-8.23,29.56-8.09,3.46-2.77,7.9-.3,11.59-2.25,3.28-1.74,6.37-1.17,7.48,2.68s-1.77,5.52-4.61,7.14c-22.65,12.92-28.31,34.43-27,57.92,1.83,31.94,22.66,47.56,51.6,54.75a168.86,168.86,0,0,0,34.26,4.74c10.29.32,19.66,1.21,29.23,7.1,10.27,6.32,24,2.83,33.74-1.34,16.52-7.1,35.52-7.52,50.31-20,5.26-4.43,14.93-1.46,22-8,6.08-5.63,6.08-9.48,3.71-15.85-5.89-15.84-3.93-31.68.68-47.44,12.75,4.86,18.43,14.72,16.52,30.93-1,8.17-1.37,16,1.7,23.72-1.66,6.31,4.19,14.77-5.38,18.82-6.08-.31-12.07-.37-16.14,5.38-1.07,12.15-7.18,21.13-19.73,20-12.71-1.15-23.37-.94-30,12.11,27.75-7.39,55.82,1.08,84,.07-1.39,1-2.89,3-4.15,2.83-23.94-2.62-47.8,5.37-71.65.76-8.76-1.69-16.61,2.18-25.13,2-23.64-.56-47.33.64-70.93-.35-34.19-1.43-68.47-1.2-102.57-4.87-5.94-.64-12.52-2.19-18,2.35-1.81-1.37-2.21-3.26-2-5.38,25.13-4.89,50.59-.19,75.82-2.55,4.73-.45,9.53-.07,14.61-.07-.76-4.69-3.58-7.91-6.14-7.32-12.41,2.85-23.32-3.32-34.31-6.21-10.35-2.71-17.13-12.86-20.14-23.61-1.6-5.68-1.95-11.33-8.32-14a4.93,4.93,0,0,1-2.91-5.56c4-17.29-2.75-34.45-.43-51.72.67-4.94,1-10.35,4.63-13.67C1057.9,211.13,1049.54,211.6,1043.46,210.62Z"/><path class="cls-73" d="M1223.6,167.59H1229a2.75,2.75,0,0,1,.08,3.66,10.76,10.76,0,0,1-5.11,2.89c-10.9,1.68-21.79,3.41-28.72,13.56-4.9,3.11-10.52,3-15.63,1.88-12.75-2.72-22.95,2.15-31.09,10.76-6.44,6.81-12.58,7.41-20.21,3.61-7.11.54-12.79,3.39-16.9,9.44a22.82,22.82,0,0,1-6.8,6.42c-15.2,9.45-15.33,9.49-11.1,26.89,1.28,5.27,3.81,10.92,1,15.67-6.51,10.86.63,15.05,7.52,21.58,18.93,17.93,41.32,23.38,66.34,22.18a58.16,58.16,0,0,1,17.24,1.77c11.9,3,23.84,1.93,35.61-1.79,7.15-2.25,13.62-2.27,13.93,8-7.13,11-18.11,15.29-29.81,12.22-14.87-3.89-29.84-1.95-44.69-3.51-15.21-1.59-30.71-1.68-46-3.22-18.57-10.16-31.92-25.16-41.84-43.77-4.72-8.86-7.27-17.21-2.26-26.61A31.27,31.27,0,0,0,1073.8,235c.32-13.48,6.61-23.21,17.12-31.63,5.77-4.62,8.73-11.94,17.79-13.16,4.76-.64-4.25-3.15-1.12-5.94,11.54-10,26.69-9.81,40.17-11.86,19.29-2.94,38.67-6,58.09-8.4C1212.33,163.17,1218.26,163.52,1223.6,167.59Z"/><path class="cls-74" d="M1223.6,167.59c-38.8,4.67-77.75,8.47-115.62,18.82-3.34,6.58-8,6.61-13.44,2.7-5-.25-10.85-.3-12.35-5.88-1.6-5.93,5.31-7.11,8-10.63,9.2-11.86,20.77-5,31.34-5.17,3.87-.06,8.32,2.76,10.85-1.83,5.92-10.73,12.69-13.71,26.39-13s28.22,0,42.25-1.43C1214.35,149.88,1222.5,153.28,1223.6,167.59Z"/><path class="cls-44" d="M1223.62,170.29H1229c4-3.32,9.44.62,13.44-2.68l18.82,0c5.4-2.79,11.26-.53,16.8-1.55,2.21,20.18,14.23,34.87,27.43,48.9,1.88,2,4,4.66,2.82,7-3,6,.39,9.66,3.3,14.25,3.69,5.85,2,12-1.94,17.4.58,10.09-1.35,20.3,1.47,30.3,1,3.67-1.28,5.74-4.16,7.35-14-2.47-8.29-13.19-6.8-19.85,3.23-14.46-.78-25.18-12-33.93-7.89,3.11-13.73,0-15.32-7.57-3.51-16.55-15.61-26-27.64-35.4-5.91-4.63-11.4-9.78-17.59-14.1C1224.42,178.22,1221.5,175,1223.62,170.29Z"/><path class="cls-75" d="M1094.54,189.11c4.71.24,9.27-.27,13.44-2.7,3.13,0,6.26,0,9.38.13,2.69.15,5.9.42,5.7,4-.2,3.82-3.3,2.8-6,3-19.61,1.5-38.29,22-38.67,42.11-.08,4.42,1,9.31-2.21,12.94-8.92,10.12-4,18.8,2.15,27.68,8.75,12.66,14.8,27.62,30.73,33.92,2.86,1.13,4.08,4.61,4.3,7.93.69.6.91,1.2.68,1.8s-.45.9-.69.9c-8.8-3.26-19.94.33-26.8-8.26-7.12-8.92-16.88-15.73-23.45-24.11-6.89-8.77-6.63-23.6-4.91-35.33,2.08-14.12,3.81-28.07,15.44-40.74,6.13-6.66,9.47-12.88,20.36-12.07-6.59-6-12.75-1.85-18.29-3.19C1081.16,192.55,1089.4,194.45,1094.54,189.11Z"/><path class="cls-76" d="M1280.07,167.59h-18.83c3.53-4.51,9.43-1.1,13.57-4-.73-6.78-7.42.15-9.22-4.13,2.56-5.06,8.6-.57,12.15-4.76-4.41-5.39-10.57-2.29-15.7-3.32-3.43-.68-9.2,2.62-9.61-3.67-.44-6.78,5.58-3.59,8.93-4.27a26.34,26.34,0,0,1,5.33,0c7.22,5.12,15.46,1.46,23.11,2.72,3.43.57,8.11-2.43,9.9,3.55,1.43,4.83,9.15,7.84,7.09,12.68-2.32,5.47-9.3,1.74-14.18,2.44-3.46.49-7.12-.16-9.86,2.77A1.74,1.74,0,0,1,1280.07,167.59Z"/><path class="cls-77" d="M1242.42,167.6c-3.85,4-8.87,2.25-13.44,2.68v-2.69Z"/><path class="cls-78" d="M1280.07,167.59h32.27c6,18.77,3.64,38.12,3.89,57.28.08,7-.73,13.91,1.48,20.7,5.52,10.9-7,3.69-8.06,8-.77-7.74,3.35-17.1-8.93-20.58-4.2-1.19-2.78-5.5,1.24-8,6.49-4,4.13-7.38-1.59-8.67-6.46-1.46-6.58-7.68-9.85-10.87-10-9.73-9.86-26.76-24.69-32.75C1269.49,167.86,1276.6,172.51,1280.07,167.59Z"/><path class="cls-79" d="M1317.71,245.58c-4.9-9.78-6.33-20.46-5.39-31,1.41-15.74-5.7-31.39,0-47,12.34.53,6.6,10.14,8.09,16.12C1320.62,204.38,1320.65,225.05,1317.71,245.58Z"/><path class="cls-44" d="M1285.44,315.48c2.64-10,8.71-9.72,16.14-5.38C1296.86,313.87,1290.81,313.65,1285.44,315.48Z"/><path class="cls-63" d="M1148.27,361.06h-2.6c-7.24,2.31-14.46,2.57-21.65-.15l-4.28,0a1.88,1.88,0,0,1-1.77-1.93l114.32-.1a1.7,1.7,0,0,1-1.74,2l-9.53,0C1196.78,363.79,1172.53,363.3,1148.27,361.06Z"/><path class="cls-40" d="M1118,358.94c.57.66,1.16,1.3,1.77,1.93l-49.45.39a22,22,0,0,1-16.08-.06l-16.14,2.68c-1.67-5.25,4.23-3,5.4-5.45h48.39Z"/><path class="cls-80" d="M1230.55,360.85c.6-.65,1.18-1.32,1.73-2l72-.56c-6.68,5.44-14.55,2.62-21.83,2.77C1265.19,361.39,1247.87,361,1230.55,360.85Z"/><path class="cls-29" d="M1220.88,420.29c4.83-4.24,10.71-2.3,16.15-2.58,5.2-.28,10.56.34,13.47-5.43,1.43-2.53,2.87-5.06,5.29-9.32v12.11C1245.21,423.85,1232.63,419.27,1220.88,420.29Z"/><path class="cls-81" d="M1263.93,398.83h12.25c-5.72,3.8-9.08,2.92-12.24,0Z"/><path class="cls-82" d="M1239.78,469.13c0,.76,0,1.52,0,2.28H1219c0-.76,0-1.52,0-2.28Z"/><path class="cls-30" d="M1094.46,415l0-5.4c16.61,5.74,34.16,6.9,51.19,10.62-1.78,1.63-3.6,1.72-5.44.11q-16.41,0-32.81-.11C1102.42,420.23,1097.94,418.87,1094.46,415Z"/><path class="cls-29" d="M1140.24,420.36l5.44-.11h34.86c.93-1.08,1.84-1,2.75,0l13.43.19A127.28,127.28,0,0,1,1140.24,420.36Z"/><path class="cls-40" d="M1183.29,420.27l-2.75,0c-2.1-2.66-5.1-2.58-8-2.62.21-8.48,9.36-5.91,12.81-10.39,7.1-3,14.92-.68,22.1-3,10.6-6.07,21.36.52,32.45,1-7.66,1.62-16.87,1.12-22.64,5.34C1206.64,418.33,1192.33,409.76,1183.29,420.27Z"/><path class="cls-83" d="M1186.09,409.4c-1,8.51-10.3,3.44-13.6,8.23-4-3.54-12.24-.33-13.55-8.33C1168,403.46,1177.06,403.31,1186.09,409.4Z"/><path class="cls-84" d="M1186.09,409.4a33.63,33.63,0,0,0-27.15-.09c-2.91-5.19,1.32-4.94,4.12-5,14.78-.16,29.56-.1,44.34-.11C1201.17,409.56,1192.49,404.76,1186.09,409.4Z"/><path class="cls-72" d="M1036.12,266.8c3.13,4.67,2.3,8.34-2.28,11.52Z"/><path class="cls-85" d="M1025.18,339.27q-.21-7.81-.44-15.62C1028.58,328.75,1028.32,334,1025.18,339.27Z"/><path class="cls-40" d="M1032.51,359c-4.35-.8-10.13.61-10.27-6.67,3.23,5.28,9.57,3.15,13.89,5.83A2.43,2.43,0,0,1,1032.51,359Z"/><path class="cls-86" d="M1032.51,359l3.62-.84,7.34.31-5.4,5.45-5.39-2.69A18.44,18.44,0,0,0,1032.51,359Z"/><path class="cls-80" d="M1148.27,361.06l72.75-.19c-5.68,5.25-12.75,3.19-19,2.81C1184.08,362.59,1165.89,367.27,1148.27,361.06Z"/><path class="cls-80" d="M1124,360.9l21.65.15C1138.42,365.28,1131.2,365.43,1124,360.9Z"/><path class="cls-86" d="M1054.21,361.2l16.08.06C1064.92,365.1,1059.55,365.13,1054.21,361.2Z"/><path class="cls-77" d="M1113.35,320.86c0-.9,0-1.8,0-2.7,5.28-2.45,10.41-4.58,16-.2,2.45,1.92,5.67,1.52,8.93,1.46,23.29-.43,46.78-3.67,69.67,3.66,11.6,3.71,17.49-7.19,26.43-10.29,1.75-2.6,3.78-4.89,6.83-6,5.34-1.44,9.71-4.77,14.42-7.45a14.12,14.12,0,0,1,3.52-1.16c9.67-4.44,16.52-22.41,15.11-34.73-1.54-13.47-5.87-24.78-17-33a15.27,15.27,0,0,1-2-3.09c-4.29-7.44-15.08-8-18.06-16.84-4.33-14.31-17.52-16-28.92-19.87-3.57-1.23-7.86.25-11.57-1.57a7.23,7.23,0,0,1-2.68-2.7c3.76-16.57,17.83-14.22,29.59-16.11,2.38,9.54,12.94,13.4,18.58,16.21,13.24,6.6,18.71,19.92,30.2,27.1,3.37,2.11,5.95,5.31,4.55,8.81-4.68,11.65,4.79,12.08,11.18,15.09,6.68,17.08-4.37,36.39,6.92,53.27,1.79,2.69,7.08,14.79-7.41,11.17-3.65-.92-5,5.61-7.89,8.12-3.29,2.83-6.53,11.24-11,.72-1.25-2.94-3.82-2.14-5,.22-8,15.83-26.09,9.22-37.84,17.19-9.39,6.37-21.12,5.59-32.12,7.09-9.25,1.27-17.42,3.74-23.42-6.25-2-3.4-6.27-2.15-9.87-2.25C1144.59,326.34,1128.71,325.6,1113.35,320.86Z"/><path class="cls-87" d="M1194,186.4h2.68c9.06,4.79,15.63,12,21.11,20.58,5.25,8.21,13.5,12.15,23,13.58a13.21,13.21,0,0,1,4.35,6.44c1.19,6.5,1.28,13.16,4.92,19.21,3.11,5.19,3.11,11.15.61,16.8a47.25,47.25,0,0,0-3.55,14.2c-1.77,15.85-5,17.53-19.62,22.78-29.19,10.45-58.49,7.07-88.15,4.3-11.89-1.12-16.84-5.88-14.22-18.81-7.51,9.77-13.28,10.23-17.43,1.4-6.41-13.62-11.21-28-15.61-42.41-1.11-3.62-1.07-10,3.87-9.71,9.09.59,8.89-4.85,9.74-10.71.66-4.51,2.19-9.57,6.72-10.9,8.65-2.55,12.44-9.53,17-16,6.45,6.61,10.48,7.15,17.28-1.58,9.18-11.79,23.64-12.82,38-10A91.33,91.33,0,0,0,1194,186.4Z"/><path class="cls-73" d="M1129.49,197.17c-1,4.8-2,9.6-2.91,14.4-.66,3.29-2.36,7.19-5.82,5.76-15.09-6.22-10.89,7.87-11.2,12.25-.81,11.33-2.89,13.43-15.58,8.32,1.93,11.08,7,20.82,11.16,29.9,2.95,6.39,2.14,13.66,6.48,19.26,1.77,2.27,3.64,4.37,6.57,3.33s2.17-3.39.79-5.41c-2.88-4.21-2.84-8.08,2.77-9,5.28-.83,6.58,4.06,7.16,7.93.44,2.94-1,6.1-1,9.17-.07,3.88,1.07,6.54,6,6.91,17.26,1.28,34.47,4.12,51.73,4.35,17.89.24,33.93-9.7,51.53-12.1a5,5,0,0,0,2.24-1.42c1.87-1.64,9.2-41.38,7.39-42.57-8.88-5.87-5.24-13.92-4.38-21.54,5.38-4.09,10.76-4.11,16.14,0,6.29,8.07,2.22,18.36,5.82,27.05a26.82,26.82,0,0,1,.92,4.25c2.12,9.76,1.23,19.61,1,29.42-.15,6-1.72,11.54-7.73,14.56h-2.69c-4.65,2.41-10.7,2.47-13.45,8.06l-8.06,2.69c-1.88-3.39-4.43-6-8.6-4.58-34.12,11.24-67,1.89-100.41-4.64-18.4-3.6-25.74-20.91-41.09-27.55-2.81-1.22-2.5-4.65.39-6.49,9.32-5.94,7.27-14,4.88-22.57-1.66-6-3.75-12-3.06-18.39.66-6.13,1.18-12,10-10.16,3.26.66,7-.7,8.21-3.49C1109.56,204,1119.21,200.26,1129.49,197.17Z"/><path class="cls-88" d="M1180.16,411.13c-5.35,1.75-10.43,2.32-16.78-.05A23.12,23.12,0,0,1,1180.16,411.13Z"/><path class="cls-73" d="M1261.24,253.63c-2.26-1.33-5.68-3.52-4.14-5.68,5-7,.91-14.19,1.46-21.2,3.32,2.9,5.22,7.21,9.76,8.95,6.59,2.53,10.69,6.49,7.22,14.38-1.33,3-.29,6,1.62,8.81,4.49,6.64,4,13.23-.38,19.94a12.37,12.37,0,0,0-1.92,7.58c1.44,12.6-6.34,15.16-16.3,15.62C1264.18,286.16,1259.91,269.74,1261.24,253.63Z"/><path class="cls-73" d="M1239.73,221.37c-16.71,8.95-20.35-8.25-28.35-15.19-4.81-4.17-5.43-12.54-14.6-13-3.11-.15-.75-4.4-.07-6.78,10.21.79,22.52-5.76,29,8.32a2.69,2.69,0,0,0,2.25,1.22c18.72-7,9.69,8.34,11.82,14.66C1242,214.2,1243.2,217.79,1239.73,221.37Z"/><path class="cls-73" d="M1239.73,221.37c0-3.59,0-7.17,0-10.76,4.19,7.8,18.23,4.13,18.82,16.14-5.38.21-10.76,1.84-16.14,0C1241.52,225,1240.63,223.16,1239.73,221.37Z"/><path class="cls-73" d="M1242.42,310.1c-.49-11,5.83-10.61,13.45-8.06C1252.94,307.31,1247.94,309.13,1242.42,310.1Z"/><path class="cls-74" d="M1167.45,226.83c-5.1-2.41-15.24,5.84-14.92-4.17.24-7.37,10.23-.45,14.27-2.29,15.28-6.93,24.61.23,33.42,11.15a7.21,7.21,0,0,0,5.94,2.06c5.48-1.17,10.91-.11,12.63,4.71,2.24,6.3-5,5.78-8.37,7.9s-5.54,5.4-5.17,8.85c1.2,11.35-3.7,12.72-14.21,13.13-12.34.48-25.25,2.71-36.58,9-2.53,1.4-4.74,3.2-6.87.37-7.44-9.85-16.42-20-13.83-33,2.3-11.57,14-8.2,22-8.21,7.82,0,15.63,3.33,23.63,1.9,3.19-.57,8.18.06,8.38-4.84.21-5.21-4.1-6.32-8.38-6.48C1175.32,226.71,1171.29,226.83,1167.45,226.83Z"/><path class="cls-77" d="M1265.57,246.87c2.68,0,3.3,1.6,3.17,3.42-.15,2.29-1.2,4.34-3.8,4.21-1.21-.05-3.84.77-3.48-2.13C1261.8,249.67,1263.07,247.56,1265.57,246.87Z"/><rect class="cls-89" width="1439.68" height="586.34"/><path class="cls-90" d="M158.14,198v12h9.57v10.64h-9.57v24.8c0,4,1.93,5.85,6.09,5.85a22.3,22.3,0,0,0,3.44-.24v10.4a32.4,32.4,0,0,1-6.73.58c-12.18,0-16.92-4.06-16.92-14.17V220.54h-7.3V209.9H144V198Z"/><path class="cls-90" d="M222,245.87c-1.55,10.16-10.83,17-23.65,17-16,0-25.53-10.21-25.53-26.79s9.67-27.27,25-27.27c15.09,0,24.62,10.2,24.62,26v4.3H186.72v.88c0,7.39,4.69,12.47,11.9,12.47,5.17,0,9.14-2.56,10.44-6.53ZM186.87,230.4h22c-.29-6.63-4.6-11.17-10.88-11.17S187.35,223.92,186.87,230.4Z"/><path class="cls-90" d="M229.71,209.9h13.64v9.38h.29a15.22,15.22,0,0,1,14.8-10.35c7.49,0,12.71,3.87,14.45,10.64h.3c2.32-6.53,8.51-10.64,16.1-10.64,10.15,0,17,7,17,17.41v35.39H292.14V229.87c0-6-3-9.29-8.46-9.29s-8.9,3.92-8.9,9.67v31.48H261.19v-32.3c0-5.56-3.14-8.85-8.36-8.85-5.37,0-9,4.07-9,9.87v31.28H229.71Z"/><path class="cls-90" d="M313.23,246.84c0-9.43,7.25-14.89,20.17-15.67l13.05-.77V227c0-4.84-3.38-7.64-8.7-7.64s-8.61,2.61-9.29,6.43H315.55c.53-10.06,9.09-17,22.83-17,13.29,0,21.95,6.86,21.95,17.31v35.63H346.69V253.8h-.29c-2.9,5.52-9.33,8.76-15.81,8.76C320.73,262.56,313.23,256.17,313.23,246.84Zm33.22-4.11V239l-10.93.68c-5.27.38-8.27,2.75-8.27,6.43,0,3.86,3.2,6.28,8,6.28C341.37,252.35,346.45,248.34,346.45,242.73Z"/><path class="cls-90" d="M370.83,239.54V227.21H402.6v12.33Z"/><path class="cls-90" d="M412.61,226.72c0-22.53,10.88-36.36,28.48-36.36s28.43,13.78,28.43,36.32-10.73,36.6-28.43,36.6S412.61,249.31,412.61,226.72Zm42.07,0c0-15.9-5-24.66-13.59-24.66s-13.63,8.8-13.63,24.66c0,16,5,24.86,13.63,24.86S454.68,242.73,454.68,226.72Z"/><path class="cls-90" d="M495.45,205.35h-.29l-17.8,12.09v-13l18-12.52h14.51v69.77H495.45Z"/><path class="cls-90" d="M518.37,277.45V266.91h45.89v10.54Z"/><path class="cls-90" d="M566.35,265.41h13.82c1.12,3.58,5.18,6,10.55,6,7.3,0,11.36-4.06,11.36-10.05v-9.1h-.29c-2.42,5.52-8.51,9.29-16,9.29-12.66,0-21-9.77-21-26,0-16.44,8.12-26.54,21.28-26.54,7.44,0,13.29,3.91,16,9.86h.24v-9H616.2V261c0,12.38-10.35,20.26-25.87,20.26C576.69,281.27,567.46,274.64,566.35,265.41Zm35.78-29.69c0-9.33-4.5-15.33-11.56-15.33s-11.36,5.9-11.36,15.33,4.35,15,11.36,15S602.13,245.1,602.13,235.72Z"/><path class="cls-90" d="M625.39,209.9H639v9.33h.29c1.84-6.58,6.24-10.15,12.33-10.15a14.35,14.35,0,0,1,4,.53V222a14.58,14.58,0,0,0-5.12-.82c-7,0-11,4.26-11,11.56v29H625.39Z"/><path class="cls-90" d="M709.29,261.73H695.66V252.4h-.29c-2.57,6.53-7.69,10.3-15.53,10.3-11.21,0-18.66-7.3-18.66-19.39V209.9H675.3v30.46c0,6.92,3.43,10.59,9.67,10.59s10.2-4.5,10.2-11.36V209.9h14.12Z"/><path class="cls-90" d="M718.49,209.9h13.63v9.23h.29c2.76-6.43,8.22-10.2,16.2-10.2,11.51,0,18,7.25,18,19.39v33.41H752.48V231.27c0-6.77-3.19-10.64-9.53-10.64s-10.34,4.64-10.34,11.37v29.73H718.49Z"/><path class="cls-90" d="M773.66,235.72c0-16.44,8.22-26.64,21.23-26.64,7.5,0,13.3,4,15.81,9.71H811V192h14.12v69.77H811.19v-8.89H811c-2.52,5.7-8.51,9.72-16.15,9.72C781.84,262.56,773.66,252.3,773.66,235.72Zm14.46.1c0,9.52,4.35,15.37,11.46,15.37s11.51-5.9,11.51-15.37-4.5-15.43-11.51-15.43S788.12,226.34,788.12,235.82Z"/><path class="cls-90" d="M834.89,192H849v69.77H834.89Z"/><path class="cls-90" d="M895.48,253H895c-3.62,6-10.1,9.58-18.86,9.58-12.23,0-19.77-6.39-19.77-15.72s7.2-14.84,20.5-15.57l12.86-.72v-2.86c0-4.79-3.91-8.36-9.28-8.36-5.08,0-8.8,2.66-9.24,6.48H858.54c.48-10.11,9-17,21.61-17,8.27,0,14.46,3,17.26,7.78h.39c3.48-4.93,9.28-7.78,17.07-7.78,14,0,23.31,10,23.31,26V239h-35.3v.92c0,7.35,4.74,12.47,11.8,12.47,5,0,8.8-2.56,10.15-6.53h13c-1.55,10.16-10.74,17-23.31,17C905.83,262.85,898.77,259,895.48,253Zm-5.71-10.25V239.1l-11.17.73c-5.41.39-8.7,2.61-8.7,6.29s3.48,6.43,8.27,6.43C884.6,252.55,889.77,248.05,889.77,242.73ZM903,230.4h21.57c-.24-6.72-4.35-11.17-10.5-11.17S903.51,223.87,903,230.4Z"/><path class="cls-90" d="M945.2,265.41H959c1.11,3.58,5.17,6,10.54,6,7.3,0,11.36-4.06,11.36-10.05v-9.1h-.29c-2.42,5.52-8.51,9.29-16,9.29-12.66,0-21-9.77-21-26,0-16.44,8.12-26.54,21.28-26.54,7.44,0,13.29,3.91,16,9.86h.24v-9h13.93V261c0,12.38-10.35,20.26-25.87,20.26C955.54,281.27,946.31,274.64,945.2,265.41ZM981,235.72c0-9.33-4.5-15.33-11.56-15.33s-11.36,5.9-11.36,15.33,4.35,15,11.36,15S981,245.1,981,235.72Z"/><path class="cls-90" d="M1004,265.41h13.83c1.11,3.58,5.18,6,10.54,6,7.31,0,11.37-4.06,11.37-10.05v-9.1h-.29c-2.42,5.52-8.51,9.29-16,9.29-12.67,0-21-9.77-21-26,0-16.44,8.12-26.54,21.27-26.54,7.45,0,13.3,3.91,16,9.86h.24v-9h13.93V261c0,12.38-10.35,20.26-25.87,20.26C1014.3,281.27,1005.07,274.64,1004,265.41Zm35.79-29.69c0-9.33-4.5-15.33-11.56-15.33s-11.36,5.9-11.36,15.33,4.35,15,11.36,15S1039.74,245.1,1039.74,235.72Z"/><path class="cls-90" d="M1110.29,245.87c-1.55,10.16-10.83,17-23.64,17-16,0-25.54-10.21-25.54-26.79s9.68-27.27,25-27.27c15.09,0,24.62,10.2,24.62,26v4.3H1075v.88c0,7.39,4.69,12.47,11.9,12.47,5.17,0,9.14-2.56,10.44-6.53Zm-35.15-15.47h22c-.29-6.63-4.59-11.17-10.88-11.17S1075.62,223.92,1075.14,230.4Z"/><path class="cls-90" d="M1118,209.9h13.63v9.23h.29c2.76-6.43,8.22-10.2,16.2-10.2,11.51,0,18,7.25,18,19.39v33.41H1152V231.27c0-6.77-3.19-10.64-9.53-10.64s-10.34,4.64-10.34,11.37v29.73H1118Z"/><path class="cls-90" d="M1173.16,235.72c0-16.44,8.22-26.64,21.23-26.64,7.5,0,13.3,4,15.81,9.71h.29V192h14.12v69.77h-13.92v-8.89h-.24c-2.52,5.7-8.51,9.72-16.15,9.72C1181.34,262.56,1173.16,252.3,1173.16,235.72Zm14.46.1c0,9.52,4.35,15.37,11.46,15.37s11.51-5.9,11.51-15.37-4.5-15.43-11.51-15.43S1187.62,226.34,1187.62,235.82Z"/><path class="cls-90" d="M1281.34,245.87c-1.55,10.16-10.83,17-23.65,17-16,0-25.53-10.21-25.53-26.79s9.67-27.27,25-27.27c15.09,0,24.62,10.2,24.62,26v4.3H1246v.88c0,7.39,4.69,12.47,11.9,12.47,5.17,0,9.14-2.56,10.44-6.53Zm-35.15-15.47h22c-.29-6.63-4.6-11.17-10.88-11.17S1246.67,223.92,1246.19,230.4Z"/><path class="cls-90" d="M199.24,380.58h-15l-9.38-36.65h-.29l-9.33,36.65H150.35l-13.78-51.83h14.22l7.83,38.44h.29l9.19-38.44h13.54l9.24,38.44h.29l7.88-38.44H213Z"/><path class="cls-90" d="M265.06,364.72c-1.55,10.16-10.83,17-23.65,17-15.95,0-25.53-10.21-25.53-26.79s9.67-27.28,25-27.28c15.09,0,24.62,10.21,24.62,26v4.3H229.76v.87c0,7.4,4.69,12.48,11.9,12.48,5.17,0,9.14-2.56,10.44-6.53Zm-35.15-15.47h22c-.29-6.63-4.6-11.17-10.88-11.17S230.39,342.77,229.91,349.25Z"/><path class="cls-90" d="M287.31,371.69H287v8.89H273.09V310.81h14.12v26.93h.29c2.86-6.14,8.61-9.82,16-9.82,13.05,0,21.08,10,21.08,26.74s-8,26.75-21,26.75C296,381.41,290.16,377.73,287.31,371.69Zm-.15-17c0,9.39,4.65,15.38,11.51,15.38,7.06,0,11.46-5.9,11.46-15.38s-4.45-15.42-11.46-15.42C291.85,339.24,287.16,345.38,287.16,354.66Z"/><path class="cls-90" d="M330,354.57c0-16.44,8.22-26.65,21.23-26.65,7.49,0,13.3,4,15.81,9.72h.29V310.81h14.12v69.77H367.54v-8.89h-.25c-2.51,5.7-8.51,9.72-16.15,9.72C338.18,381.41,330,371.15,330,354.57Zm14.46.09c0,9.53,4.35,15.38,11.46,15.38s11.51-5.9,11.51-15.38-4.5-15.42-11.51-15.42S344.47,345.19,344.47,354.66Z"/><path class="cls-90" d="M438.19,364.72c-1.55,10.16-10.83,17-23.65,17-16,0-25.53-10.21-25.53-26.79s9.67-27.28,25-27.28c15.09,0,24.61,10.21,24.61,26v4.3H402.89v.87c0,7.4,4.69,12.48,11.89,12.48,5.18,0,9.14-2.56,10.45-6.53ZM403,349.25h22c-.29-6.63-4.6-11.17-10.88-11.17S403.52,342.77,403,349.25Z"/><path class="cls-90" d="M466.72,327.63c13.3,0,21.52,6.82,21.81,17h-13c-.43-4.21-3.57-7.06-8.8-7.06-4.88,0-8.12,2.22-8.12,5.65,0,2.66,1.93,4.45,7.16,5.56l8.84,1.89c10.84,2.27,15.28,6.53,15.28,14.12,0,10.2-9.33,16.93-22.67,16.93-14.32,0-22.58-6.68-23.5-16.88h13.78c.87,4.54,4.11,7,9.72,7,5.32,0,8.6-2.17,8.6-5.56,0-2.76-1.79-4.3-6.86-5.46l-8.85-1.84c-10-2.13-15.09-7.16-15.09-14.94C445,334.11,453.52,327.63,466.72,327.63Z"/><path class="cls-90" d="M496.76,314.48a7.35,7.35,0,1,1,7.35,7.25A7.26,7.26,0,0,1,496.76,314.48Zm.33,14.27h14.12v51.83H497.09Z"/><path class="cls-90" d="M520.31,384.26h13.83c1.11,3.58,5.17,6,10.54,6,7.3,0,11.36-4.06,11.36-10.06v-9.09h-.29c-2.42,5.52-8.51,9.29-16,9.29-12.67,0-21-9.77-21-26,0-16.44,8.13-26.55,21.28-26.55,7.44,0,13.3,3.92,16,9.87h.25v-9h13.92v51.11c0,12.38-10.35,20.26-25.87,20.26C530.66,400.12,521.42,393.49,520.31,384.26Zm35.78-29.69c0-9.33-4.5-15.33-11.56-15.33s-11.36,5.9-11.36,15.33,4.35,15,11.36,15S556.09,364,556.09,354.57Z"/><path class="cls-90" d="M579.35,328.75H593V338h.29c2.76-6.43,8.22-10.2,16.2-10.2,11.51,0,18,7.25,18,19.39v33.41H613.35V350.12c0-6.77-3.19-10.64-9.53-10.64s-10.35,4.64-10.35,11.36v29.74H579.35Z"/></svg>
