<svg id="Layer_1" data-name="Layer 1" xmlns="http://www.w3.org/2000/svg" width="1439.68" height="586.34" viewBox="0 0 1439.68 586.34"><defs><style>.cls-1{fill:#f0f3ec;}.cls-2{fill:#e9e9e5;}.cls-3{fill:#c5c6c0;}.cls-4{fill:#dde0d8;}.cls-5{fill:#9ea099;}.cls-6{fill:#858680;}.cls-7{fill:#ecefe8;}.cls-8{fill:#f4f6f0;}.cls-9{fill:#edeeec;}.cls-10{fill:#ebeee7;}.cls-11{fill:#edf0e9;}.cls-12{fill:#717172;}.cls-13{fill:#ecede8;}.cls-14{fill:#e2e2df;}.cls-15{fill:#bec0ba;}.cls-16{fill:#f4f3f2;}.cls-17{fill:#ecede9;}.cls-18{fill:#bbbcb5;}.cls-19{fill:#dedfd9;}.cls-20{fill:#d8d9d4;}.cls-21{fill:#e1e2e1;}.cls-22{fill:#f9f9f9;}.cls-23{fill:#fafbf9;}.cls-24{fill:#141511;}.cls-25{fill:#050505;}.cls-26{fill:#090a0c;}.cls-27{fill:#58555a;}.cls-28{fill:#38373c;}.cls-29{fill:#464549;}.cls-30{fill:#565458;}.cls-31{fill:#242328;}.cls-32{fill:#605c5f;}.cls-33{fill:#5b585d;}.cls-34{fill:#757474;}.cls-35{fill:#615e62;}.cls-36{fill:#3a393e;}.cls-37{fill:#161519;}.cls-38{fill:#111113;}.cls-39{fill:#2d2c30;}.cls-40{fill:#0c0d0f;}.cls-41{fill:#403f44;}.cls-42{fill:#444348;}.cls-43{fill:#4b4a4f;}.cls-44{fill:#666366;}.cls-45{fill:#6b696b;}.cls-46{fill:#605f62;}.cls-47{fill:#514e54;}.cls-48{fill:#1e1d22;}.cls-49{fill:#060607;}.cls-50{fill:#0e0f11;}.cls-51{fill:#4a494e;}.cls-52{fill:#302f34;}.cls-53{fill:#323135;}.cls-54{fill:#2b2a2f;}.cls-55{fill:#3e3d42;}.cls-56{fill:#3e3d41;}.cls-57{fill:#252429;}.cls-58{fill:#36353a;}.cls-59{fill:#504e53;}.cls-60{fill:#4b4b4f;}.cls-61{fill:#1c1b20;}.cls-62{fill:#3b3a3f;}.cls-63{fill:#313035;}.cls-64{fill:#1a191d;}.cls-65{fill:#b160c9;opacity:0.7;}.cls-66{fill:#fff;}</style></defs><title>tema_3_button_1</title><path class="cls-1" d="M968.88,396.76q-.35-109.27-.66-218.56c-.05-25.61.34-51.21.53-76.81l10.4-5.77,1.53,1.43a11.14,11.14,0,0,1,1.28,6c-5.35,34.9-3.88,69.72.93,104.49,1,1.7-1.68,0,.09.05.35,0,.36-.33.23-1.07-5-26.92-4.06-54.07-2.38-81.17.22-3.52.65-13.09,9.25-5.43,1.91,5.63,1.22,11.44,1.22,17.17q.09,88.44,0,176.89c0,6.71.09,13.31,3.38,19.35,6.53,6.46,14.74,2.78,22.16,3.58,5.11.54,10.32-.27,15.42.75,7.68,5.73,16.63,4.92,25.39,4.65,17-.52,31.1,3.39,38.26,21.29,5.17,12.94,16.55,17.85,29.78,17.85,6.22,0,10.13,1.94,12.48,8.67,3-6.12,4.43-12,7.76-17,4.64-6.9,9.75-9,15.51-1.11a16.33,16.33,0,0,1,1.31,5.09c.62,4.82.69,10.63,7,11.09,6.67.48,4.86-6.05,6.32-9.74,1.19-3,2.53-5.65,6-6.44,8.84,4.81,6.46,12.79,4.81,19.8-2.11,8.94-10.62,5.77-16.72,7-1.63.55.35,2.4-.31.75-.12-.32.35-.78,1.18-.55,13.85,3.66,22.14-5.79,29.9-14.05,5.34-5.68,11-8.2,18.13-9.6,5.34-1.05,12.45-.2,9.82-10.59-1.34-5.3,5.65-6.35,9.91-5.15,15.29,4.32,27.82-.06,38.82-10.77,3.5-3.41,8-4.57,10.28-4.17-6.84,1.15-16.06,5.64-25.86,2.31-4.62-1.56-10.58-3.72-2.47-9.2a804.59,804.59,0,0,1,82.33,0c4.07,1.68,7.2,4.77,5.64,9.07-2.26,6.2-8.6,4.84-13.63,5.55-8.83-1.65-14.92-.86-16.63,10.63-1.61,10.79-7.61,12.05-18.17,5.77,2.31,9.57,2,17.94-9.67,21-.87.23-2.09.4-2.35,1.09C1278,415,1256,404.83,1239.43,408.5c-6.84,1.51-14.33.47-18.91.24,7.86-.5,18.37.92,28.83-.65,4.51-.68,9.3,1.14,9.27,5.27,0,6.07-6,6.05-10.14,4.72-11.24-3.64-20.74-.54-29.73,6.07-34.85,1-69.68.81-104.47.14-10.11-6.05-21.46-8-32.79-7-8,.68-11.89-2.17-13.45-9.12-1.89-8.45-6-13.2-15.42-12.78-4.09.18-8.42-2.61-9.39-6.44-2.46-9.72-14.09-15.17-11.88-27.05.86-4.61-3.59-5.44-7.1-6.18-6.51-1.37-12.92-3.13-19.36-4.78a19,19,0,0,0-16.39,3.34c-7.37,5.66-9.7.83-10.14-5.16-.49-6.66-2.85-13,1.19-20.33,3.64-6.65,1.13-15.65,1-23.63-.8-4.06.16-8.11,0-12.16,1.68-5.25,1.51-10.67,1.44-16.07-.63-6.22-1.49-12.43-1.71-18.71,0-.21-.6-.57-.89-.55s-.63.42-.9.77c-1.22,3.25.35,6,1.32,8.8,2.25,4.6,2.29,9.52,2.18,14.47a47.37,47.37,0,0,1-.28,5.71c-3.06,6.66-2.55,13.95-3.69,21-2.34,25.14,3.05,50.51-2.43,75.53-.15,1.56-.29,3.11-.39,4.67C974.49,392.37,974.55,396.8,968.88,396.76Z"/><path class="cls-2" d="M1288.12,93.36h8a69.27,69.27,0,0,1,29.27,0l13.31,0c3.55-3.63,7.1-2.62,10.64,0,7.33,1.65,16.07.8,18.76,10.63l-2.49.77c-16.67-6.15-33.84-5.5-51.08-3.75a122.75,122.75,0,0,1-13.28.43c-84.49-.66-169,.24-253.48-.17-19-.1-38-1.54-57.08-1.39-4.06,0-8-.5-11.11-3.49l-.43-.81,5.56-2.08q1.29-2.48,2.63,0l74.54-.11a155,155,0,0,1,45.26,0h16c26.74-3.1,53.57-.77,80.36-1.22,9.57-.16,19.3-1.63,28.79,1.23l5.31,0h8A140.71,140.71,0,0,1,1288.12,93.36Z"/><path class="cls-3" d="M1115.19,434q-63.15,0-126.3-.09c-14.89,0-20-5.51-20.24-21.11a3.3,3.3,0,0,1,3.11-1.11c2.85,1.11,5.43,2.74,8.19,4.07a31.68,31.68,0,0,0,7.8,3,35.59,35.59,0,0,0,6.65.59c71.71-1.75,143.42,5.92,215,2.14,46.45-2.45,92.87-.12,139.2-2.91a23.18,23.18,0,0,0,5.87-2.71c4.69-1.78,7.31-5.36,8.61-10.09,1.94-12.64.45-25.35.9-38-.19-83.06.39-166.11-.31-249.15,0-5.21,0-10.42,3.23-14.93l1.18.34c.58.12,1.16.24,1.75.34.22,42.54.52,85.07.65,127.6q.29,87.75.36,175.48c-1.8,22.76-5.68,26.4-28.45,26.48q-60.26.22-120.53.37c-4.47,4.24-10,5.06-15.87,5.05-25-.07-50.08-.29-75.12,0C1125,439.38,1119.47,438.61,1115.19,434Z"/><path class="cls-4" d="M1110.21,469l5-21.55c3.34-6.39,9.17-7.87,15.68-7.91,25.71-.17,51.41-.1,77.11,0,9.12,0,15.43,3.24,16,13.39q1.33,5.53,2.65,11.07c4.13,1.88,5.57,5.17,5,9.52-3.68,8.09-12.21,6-17.39,5.63-30.76-2.34-61.46-.48-92.19-.55C1116.16,478.5,1107.59,480.18,1110.21,469Z"/><path class="cls-5" d="M1224,452.85c-2.63-4.59-5.06-8.38-11.8-8.28-29,.44-58,.09-87,.29-3.35,0-6.7,1.65-10,2.54l0-13.39,106.69.29C1222.47,440.5,1225.61,446.4,1224,452.85Z"/><path class="cls-6" d="M1229.38,471.43a8.57,8.57,0,0,1,2.61.4c5.35,5.74,10.54,11.53,7.93,20.36a3.21,3.21,0,0,1-4.25,0c-8.9-9.79-20.71-6.46-31.27-5.9-30,1.58-60,1.09-90,.28a35.79,35.79,0,0,0-13,1.7c-10.06-.85-6.8-6.66-4-11.66,2.14-3.85,6.52-5.47,10-7.89l2.77.25c.51,5.54,5.15,6.13,8.8,5.95,35.66-1.79,71.3-.52,107-.18C1228.24,474.74,1228.71,473,1229.38,471.43Z"/><path class="cls-7" d="M971.21,412.92l-2.56-.11.23-16.05c2.59-2.09,2.5-5,2.52-7.95C980.42,395.6,980.34,405.73,971.21,412.92Z"/><path class="cls-8" d="M1160.15,372.77c-6.61-4.54-10.06-.86-12.4,5-1.61,4-2.76,8.2-4.2,12.28-1.26,3.59-2.64,7.14-3.9,10.51-3.21.34-4.93-1.42-5.1-3.58-.63-7.81-.34-11.18-12.19-10.33-15,1.07-29.41-10.61-34.07-25.23-4.55-14.28-14.85-13.09-24.32-14.86-7.67-1.44-15.82-.29-23.75-.31-3.17,0-6.72.3-4.93-4.82,3.66-5.27,9.32-4.38,14.47-4.39q96-.18,192,0c5.15,0,10.82-.89,14.42,4.46,12.68,5,26.15-.06,39.4,3.67-7.81,0-12.34,4.68-17.62,9.42-11.11,10-23.84,16.62-39.37,8.66-1.43-.73-3.44-.51-5.16-.41-.66,0-1.27,1-2,1.56.22,4.15,4.94,3.05,6.57,5.61,2.44,3.81,2.26,8.11-2.52,7.49-6.68-.87-11.82,3-17.88,3.3-5.42.28-12.32-1.65-10.52,8.35.49,2.72-2.57,4.6-5.65,3.88-6.66-1.55-9.27,1.14-8.4,7.64.31,2.35-.59,6.09-2,5.26-9.1-5.18-18.14-2.89-27.36-1.18-1.63.3-3.87-.57-3.48-2.8a7.78,7.78,0,0,1,2.87-4.08c.91-.74,2.49-.71,3.78-1,19.69-3.65,19.73-3.72,14.72-24C1174.41,372.48,1167.25,378.55,1160.15,372.77Z"/><path class="cls-7" d="M1006,346.24c5.08,1.52,10.12,4.17,15.24,4.33,12,.39,20.31,2.56,14.26,17.34-.44,1.08.28,3.75.34,3.74,12.47-.85,7.74,9.17,10,15,1.11,2.92,4.31,7.13,8.09,5.45,15.49-6.85,16.1,5.45,18.18,14.31,1.36,5.8,2.14,8.75,9.08,6.88,8.94-2.42,17.83,3.22,27.4.54,4.51-1.26,1.93,4.2,1.3,6.85-36.49,1.93-73,3.53-109.28-2.19-4.1-2.64-4.25-5.65.07-7.86a20.88,20.88,0,0,1,9.65-1.84c3.41-.63,1.42-3.25,2-1.58.21.6,0,.93-.67,1.06a71.08,71.08,0,0,1-19.46,1c-5.06-.33-9.28-3-9.59-9.06,2.38-6.87.52-13.76,0-20.61-1.45-17.81.44-21.41,16.49-29.79C1001.35,348.59,1003.9,347.87,1006,346.24Z"/><path class="cls-9" d="M1366.92,103.69l.64,13.86c-3.81,4.71-.37,11.39-4.37,16-8.55-5-11.59-15.79-7.82-30-13,7.33-28.25.77-40.53,9.15-37.93.85-75.86,0-113.77.54-6.63.09-13.27-.24-19.64,2.18a59.34,59.34,0,0,1-16.41-.23c-6.36-2.41-13-2.18-19.64-2.19-40.26-.06-80.53,1.45-120.76-.72-4.16-6.36-8.85-9-17.53-7.63-9,1.4-19,2.21-27.71-3.34.06-1.65.13-3.29.2-4.94q184.06-.15,368.13-.4C1355.37,96,1361.38,99,1366.92,103.69Z"/><path class="cls-10" d="M998,415.43c37,8.08,74.5,4.67,111.83,5.28l111.72,0c2.57-2.44,5.13-5.89,8.85-5.23,28.75,5.11,57.56-3.71,84.21.08-9.19-3.51-20.66.26-32-.43a40.6,40.6,0,0,1-10.47-1.61c-2.5-.84-5.62-2-5.17-5.09s3.66-3.23,6.37-3.58c14-1.79,28-3.88,42.1-4.22,8-.19,11.11-3.22,9.48-10.17-2.64-11.21,3-21.81,1.39-32.89-.71-4.76,3.71-6.57,7.06-8.66,2.25-2.82,4.94-2,8-1.53,6.88,1,3.76-3,2.63-5.89,2.82-31.37.69-62.8,1.41-94.2.13-5.68-1-11.56,2.08-16.89,7.59-3.9,7.6,2.9,8.72,6.77,1.73,5.94,1,12.23,1,18.39.09,16.72.38,33.45-.16,50.15a139.63,139.63,0,0,0,5.84,45.39c1.18,7.35,3.07,14.63,2.07,22.18-2,9.16-.43,18.48-1.17,27.68-.48,5.91.66,12.7-6.4,16.06a15.15,15.15,0,0,1-3.21,2,8.3,8.3,0,0,1-3.78.25c1.43.53,3.21.08,4.31,1.53-4.16,3.67-9.22,2.41-14,2.41q-171.1.09-342.21,0c-5.59,0-11.57,1.58-16.66-2.39,3-4.78,8.43-3.38,12.59-5.22C995.68,415.5,996.85,415.45,998,415.43Z"/><path class="cls-11" d="M1333.37,348.89c-.69,1.13-2.22,2.5-2,3.34,3.41,11.35-4.25,21.95-2.24,33.07,3.31,18.3,1.76,17.22-15.55,19.47-14.41,1.88-28.86,1.42-43.17,3.19l0,3.75c16.33,0,32.66.25,49-.17,4.27-.11,9.23-.57,9.14,4.09-.08,4.47-5.45,5.17-9.51,4.22-18-4.19-35.77.81-53.6,1.19-14.66.31-29.27-5.09-43.86-.35,1.3-8.9,8.16-8.12,14.3-7.83,6.47.3,12.92,1.3,19.52.73-14.83-6.41-31.06-1.37-46.38-5.49,20.53,2.45,40-3.9,60-6,3-.31,6-.95,9-1.43-6.93-17.69,20.34-11.87,18.16-26.43-.65-4.35-.41-8.83-.94-13.21-.33-2.67-1.54-5.65,2.43-6,3.1-.32,5,1.67,4.57,5-.64,5.08-1.7,10.62,6.24,9.69,6.58-.77,4.57-5.85,4.64-10.25C1313.34,344.42,1314.32,344,1333.37,348.89Z"/><path class="cls-12" d="M1349.88,229.29c-.11,33.11-.17,66.22-.4,99.33,0,4.88,2.32,11.13-5.48,12.85h-87.83l-220.88-.08-44.89-.58c-1.4-1.26-1.42-2.53-.06-3.84a9.74,9.74,0,0,1,4.08-2.15c7-.94,14.06-.38,21.1-.56h39.14c89.1.92,178.18-2.46,267.28-1.54,18,.18,19.18-1.12,19.25-18.55.07-17.27,2.48-34.48,1.52-51.77q0-12.29,0-24.56c0-5.62,0-11.24,0-16.86-.16-8,.45-16-.62-23.92,1.19-10.28.4-20.61.62-30.92,0-6,.14-12-.17-18-1.24-8.38,3.23-17.47-3.11-25.22-5.5-.79-11.06-.67-16.54-1.58-16,1.51-32-.34-48,1-10,.21-20.11,1.11-30.11-.67-39.46-1.78-78.87,1.83-118.33,1.08-11.4-4-24.18,2.22-35.2-4.71a3.28,3.28,0,0,1,.84-4.57c19.36-3.35,38.93-1.91,58.29-1.38,40.74,1.12,81.44-1.3,122.15-.12,23.05.66,46.06-.78,69.09-1.42,8.84.68,12.33,6.76,12.59,14.32,1.1,31.26.68,62.53.27,93.8A13.87,13.87,0,0,1,1349.88,229.29Z"/><path class="cls-13" d="M979.38,101.36l47-2.27c2.14,6-5.65,5.84-4.45,10.26-4.16,5.48-10.23,3.39-15.61,4-5.75.84-11.94-2-17.28,2a5,5,0,0,1-1.93,2.09c-5.32,18.55-1.67,37.55-2.64,56.32-.8,15.67-.16,31.42-2,47.35,4.85-11.67-13-19.28-4.72-31.42-8.35-21.19-2-43.23-3.52-64.82C973.75,116.92,973.92,108.35,979.38,101.36Z"/><path class="cls-13" d="M1006,346.24c-1.94,2.39-3.4,5.92-5.91,7-17.24,7.25-14.37,21.36-12.19,35,.74,4.6,2.25,8.69-3.18,11.23-2.22,2-1.08,7.81-6.36,6-4.25-1.43-1.35-5.17-1.57-7.81-.38-4.6.89-9.74-5.38-11.52,2.93-27.43,3-55,2.67-82.5,9.1,4.28,1,12.32,4.3,17.49,3.24-4-7.35-14.72,6.3-14.83,3.51,15.7-7.42,30.73-1.8,46.59C987.42,340.21,998.25,348.73,1006,346.24Z"/><path class="cls-14" d="M987.15,117.4c.06-.92.12-1.83.19-2.74l2.15-.68a7.48,7.48,0,0,1,3.27,3c3.24,8.73.19,17.78,1.31,26.63-.05,3.72-.07,7.45,0,11.17.05,4.52,0,9,0,13.55.18,7.65-.61,15.34.89,22.95a19.82,19.82,0,0,1-.26,7.08c1.18,11.16-1,22.27-.43,33.42,2.29,8.83.1,17.75.57,26.62,0,10.55-2.08,21.11.23,31.65.63,11.42-2.41,22.78-.48,34.23-.36,4.95-.4,10-4.33,13.84.06.89.13,1.78.19,2.67-5.32-4.57-3-10.77-3.07-16.22Q987.05,221,987.15,117.4Z"/><path class="cls-2" d="M971.4,386.15c16.1-.81,3.45,12.27,8.44,17,2.89.75.93-5.61,4.87-3.68,2.52,8.51,9.36,5.41,15.12,5.92,5.42.48,10.75,2,17.25,3.34-7.08,2.41-14,2-19.07,6.71v2.66a38.06,38.06,0,0,1-21.52.08c-3.15-.35-4.74-2.28-5.28-5.25,2.32-8,5.24-16,.19-24.11Z"/><path class="cls-15" d="M1160.15,372.77c7.13.56,14.29-6.1,21.38.11-.79,2.52-2.77,5.36-2.18,7.49,2.56,9.22,1.36,15.05-10,13.6-10.77-1.36-12-8.77-10.68-17.52A16.24,16.24,0,0,1,1160.15,372.77Z"/><path class="cls-7" d="M974.07,255.74c.25-2.91-.79-6.44,4.21-6.52,3.9-.06,6,1.83,6.13,5.33.33,6.6.21,13.22.27,19.83-3.36,1.6,1.73,8.8-5.29,8,.77-5.45-1.12-9.85-5.32-13.32A14.77,14.77,0,0,0,974.07,255.74Z"/><path class="cls-7" d="M984.67,306.31c-9.79,3.09-2.49,12.41-6.62,17.93-3.65-6.56,1.57-14.68-4-20.59,2.58-5.06-2.27-12.59,5.31-16,3.19.36,3.53,3.55,5.3,5.32Q984.68,299.65,984.67,306.31Z"/><path class="cls-13" d="M984.68,293l-5.3-5.32c0-1.77,0-3.55,0-5.32l5.29-8Z"/><path class="cls-13" d="M974.07,255.74q5.59,6.64,0,13.29Z"/><path class="cls-13" d="M978,217.27c-5.24-3.88-3.08-6.36-4.23-9.14C978.69,210.53,975.34,213.13,978,217.27Z"/><path class="cls-16" d="M1362.65,133.3c.43-5.63-1.72-12.06,4.91-15.75l0,252.29c-6.6-4.73-3.65-12.25-5.36-18.41-1.35-26.28-5.42-52.29-2.66-78.92,2.88-27.69-3.89-55.48-2-83.43,1-15.37,4.19-30.73,1.55-46.28A9.62,9.62,0,0,1,1362.65,133.3Z"/><path class="cls-9" d="M1365.29,351.54c.77,6.1-1.84,12.62,2.24,18.31-.84,13.39,3.45,27.07-2.31,40.18-4.33-12.15-4.49-24.6-2.57-37.19q-1.34-10.63-2.66-21.29C1361.76,349.83,1363.52,350.08,1365.29,351.54Z"/><path class="cls-17" d="M1362.65,372.84q1.29,18.6,2.57,37.19c-.2,5-2.72,7.7-7.69,8.14a1.69,1.69,0,0,1-2.86-.08c5.15-4,5.11-9.57,5.49-15.46C1360.8,392.7,1357.22,382.36,1362.65,372.84Z"/><path class="cls-11" d="M1354.67,418.09l2.86.08-2.77,2.61a19,19,0,0,1-2.62,0c-4.11-.64-10.2,2.12-11.81-2.75-1.77-5.33,2.28-5.1,6-2.9a44.08,44.08,0,0,0,5.74,2.79A8.48,8.48,0,0,0,1354.67,418.09Z"/><path class="cls-7" d="M976.49,418.17l21.52-.08c-4.76,4.45-10.69,2-16.08,2.71Z"/><path class="cls-18" d="M1237.27,492.25l-5,.53c-1.69-6.14-6.62-5.58-10.59-5.45,2.52,1.16,8.47-2,7.89,5.35l-119.78-.09c-1.76-2-3.53-2-5.3,0-3.83.23-4.74-2.37-5.23-5.38,3-6,8.6-5.07,13.84-5.06,37.4,0,74.8.12,112.19-.07C1232.69,482,1238.9,482.22,1237.27,492.25Z"/><path class="cls-19" d="M1229.57,492.68c-7.1-6-16.23-.38-24.89-4.58,9-5.51,18-3.16,26.5-2.66,4.61.27,1.75,4.65,1.09,7.34Z"/><path class="cls-20" d="M1104.49,492.58c.33-2.82-.78-7.29,3.47-7.06,5.39.3,1,4.7,1.83,7.07Z"/><path class="cls-17" d="M1365.29,351.54H1360c-4.27-7.4-8.09-14.84-8-23.82.16-28.14.11-56.27,0-84.41,0-4.73,1.18-9.74-2.08-14q-.45-51.48-.91-103c0-5.61,1.26-12.11-7.66-12.17a45,45,0,0,0-5.42-1.86c-6.06-1.59-13,2.23-18.49-3,1.15-6.9,9.13-7.5,11.33-6.31,11.4,6.16,25.92-12.19,35.64,5.64-1.84,1.8-11.78-4.35-6.5,5.83,2.86,5.52.86,13.06,4.78,18.8,5.67,21.85-.36,43.71.12,65.56.58,26,4,52.15,1.85,77.88C1362.55,301.91,1367.69,326.63,1365.29,351.54Z"/><path class="cls-21" d="M1338.54,111.92l2.77,2.24q-109.77.24-219.54.51c-10.2,0-20.39.29-30.59.45-4.77,4.3-10.68,3.34-16.33,3.49-23.71.64-47.46-1.21-71.15,1.16a15.6,15.6,0,0,1-13.23-4.65l-.6-.74c3.7-7,10.24-2.22,15.28-3.69,48.68-.22,97.36.36,146-.21,4.73-.06,9.76-.88,14.35,1.44l16.12.09c24.12-3,48.34-1.21,72.49-1.21C1282.27,110.8,1310.45,109.13,1338.54,111.92Z"/><path class="cls-22" d="M1338.54,111.92l-156.88.09c10.88-5.69,22.58-1.13,33.77-2.72,13.86-2,28.59,4.71,42.2-3.92.57-.36,10,4,16,4h43.77C1324.43,110.36,1332,107,1338.54,111.92Z"/><path class="cls-23" d="M1165.54,111.92H1003.42c-1.72-.82-1.73-1.67,0-2.56H1022c37.93,0,75.85-.07,113.78,0C1145.73,109.39,1156.14,105,1165.54,111.92Z"/><path class="cls-24" d="M1171.56,102.55c.59,4.22-1.24,4.85-2.86,4.9-1,0-2.67-1.1-2.78-1.9-.22-1.5-.26-3.63,2.22-3.81C1170,101.6,1171.54,102.16,1171.56,102.55Z"/><path class="cls-25" d="M1346.28,261.21c.16,22.58.07,45.16.63,67.73.2,7.7-2.69,9.79-10,9.76q-141.47-.6-282.94-.81a3,3,0,0,1,.83-4,9.82,9.82,0,0,1,4.15-1.83c9.83-.64,19.64-2.05,29.53-1,5.36-.1,10.68.93,16,.54,6.12,0,12.24,0,18.35,0,7.34-.07,14.68.07,22,0,11.3.52,22.34-1.61,31.82-7.43,11.62-7.12,27.08-6.3,36.29-18.2,1.63-2.11,5.13-2.22,7.53-1.06,10.41,5,18.92.14,27.29-5,4.71-2.9,9.54-4.62,15.06-4.24,6.08.42,11.17-1,15.24-6.14,4.33-5.43,10.63-5.84,17.05-5,11.47,1.58,23,.78,34.53,1.13,3.45.1,7.24,1,9.4-3C1342.79,275.94,1335.31,265.45,1346.28,261.21Z"/><path class="cls-26" d="M1346.28,261.21c-4.59,8.49-1.23,17.66-2.26,26.45-22.64-4-44.51-10.31-67.72,1.84-13.21,6.91-30.3,4-45.65,5.39-8.66.77-17.8-1.25-24.72,6.41-1.46,1.62-4.08,1.74-6.3,1.36-10.15-1.74-17,2.46-21.53,11.42-1.6,3.16-4.57,5.27-7.34,7.53-2.42,2-9.92.95-5.18,8.08.62.94-3,2.17-5.32,2.51a50.89,50.89,0,0,1-18-.75c2.25.63,5.92-.49,4.73,4.11h-24c-1.64-1.33-4.55-3.2-2.53-4.95,3.19-2.76-.83-3.18-.76-4.74,6.85-6.07,12.84-13.19,21.33-17.21,5.44-2.59,8.85-7.12,12-12s7.06-9.59,13.85-8.12c4.33.94,6.48-1.66,9.18-3.88,4.21-3.47,9.31-6.12,14.52-6,24.78.8,46.62-9.81,69.35-17,4.68-1.48,9.76-2.74,14.37-1,13.68,5.09,28,3.09,42,4.64,11.07,1.23,19.18-1.85,22.63-13.25,1.86-4.14.11-9,2.57-13a7,7,0,0,1,2.9-2.56l1.84.71Q1346.29,249.17,1346.28,261.21Z"/><path class="cls-27" d="M990.19,197.22c0-1.8,0-3.6,0-5.4-.2-15,7.22-25.28,19.79-32.46,12.78-7.28,23.81-17.25,38-22.44,15-5.47,28.66-13.84,45.47-15.24,10.67-.88,21.59-2.35,32.3-4.27l119.72,0c4.58,5.9-1,9.88-2.74,14.58a6.55,6.55,0,0,1-6.69,2.62c-3-1.18-3.37-5.93-7.6-5.41-47.43.93-94.52,2.64-141.36,12.63-20.73,4.42-34.45,17.29-51.42,26.33-14.37,7.65-24.7,17.89-31.76,32.09a8.91,8.91,0,0,1-2.63,3.15C995,206.07,992.65,201.5,990.19,197.22Z"/><path class="cls-28" d="M1346.13,146.93q0,9.36,0,18.7c-1.16,2.08-.32,5.18-3.21,6.41-32.62,8.71-64.83,19.16-98,25.48-12,2.28-24.37,2.77-36.09,6.82-4.32-.51-8.31-1.61-10.59-5.82a11.8,11.8,0,0,1-.5-8.29,12.39,12.39,0,0,1,1.88-3.67c2.75-2.67,4.42-7.19,9.62-5.81,9.32,8.91,19.32,3.27,29,1.1,4.11-.93,7.49-4.29,12-4.39,19,.25,35.91-8.25,53.48-13.59,10.1-3.07,20.42-5,30.54-7.79,4.17-1.15,5.85-3.2,7-6.66C1342.47,147.72,1343.84,146.42,1346.13,146.93Z"/><path class="cls-29" d="M1346.13,146.93l-2.11,2.34c-9.32,9.06-22,8.23-33.35,11.2-16.46,2.72-30.65,12.86-47.15,14.92-12.25,1.54-23.65,5.78-35.48,8.58s-15.37.19-18.11-11.92a18.72,18.72,0,0,1,.54-4.28c2.21-4.3,3.34-9.81,10.06-9.11a6.07,6.07,0,0,1,3,2.41c7.79,8.05,19.08,4.5,25.1,1.61,10.5-5,22.15-5.78,32.14-11.41,18-1.51,33.89-10.86,51.45-13.91,7.82-1.36,7.94-6.83,8-12.72.08-3,1.89-5.17,3.83-7.21C1348.8,127,1345.69,137.08,1346.13,146.93Z"/><path class="cls-30" d="M1344.07,117.43l-.06,7.88c-6.81,12.68-20.66,10.21-31.33,14.62-23.93-3.68-44,10.43-66.13,14.85-8.76,1.74-15.65,3-19.4-7a9.72,9.72,0,0,1,3.4-9.58,8.19,8.19,0,0,1,3.75-1.39c12.59,2.55,23.36-5.17,35.46-6.67,18.69-2.31,37.12-8.21,55.64-12.68Z"/><path class="cls-31" d="M1344,170.55l2.11-4.92.12,31.83c-1.91,2.73.58,7.11-3.39,9.08-9.49,1.79-19,3.58-28.72,2.54-8.73-.94-13.82,7.5-21.94,7.8-20.09,3.85-39.86,9.72-60.41,10.46-7.33.26-16,3.93-21.42-5,5-8.33,14.54-7.32,21.26-7.1,17.09.57,31.48-7.58,47-11.75,10-2.7,21.12-2.82,30-9.34a19,19,0,0,1,11.65-3.13c6.24.73,12.7,2.35,17.13-4.27a9.53,9.53,0,0,0,2.65-6.17C1340.18,176.78,1340.57,173.06,1344,170.55Z"/><path class="cls-32" d="M1125.76,117.41c-14-.17-25.14,9.66-40.12,9.2-11.32-.35-22.74,9.1-34.45,13.23-14.74,5.21-26,16.14-39.87,22.74-4.86-6.24-.94-10.1,3.61-14,5.84-5.07,13.86-7.13,18.61-13.65a13.86,13.86,0,0,1,3.36-2c8.93.53,14-7.35,21.53-9.94,5.93-1.67,10.22-7.44,17.06-7,5.22.6,10.62-1.34,15.67,1.24Z"/><path class="cls-33" d="M1325.4,117.43c-9.58,4.17-18.81,10.3-28.81,12.08-18.48,3.3-37.34,4.31-54.54,13-3.61,1.82-5.55-1.13-7.16-3.89-1.6-1.78-1.4-3.54,0-5.3l5.3-2.67c12.74-4.8,25.76-7.7,39.55-6-2.75-1.66-6.63-2.59-4.87-7.23Z"/><path class="cls-34" d="M1091.16,117.25l-18.62.14c-9.56,3.12-19.32,5-29.42,4.66-18.91,0-36,4.51-48.37,20.19a4.24,4.24,0,0,1-4.58,1.68,129.61,129.61,0,0,1,.3-28.8h100.71C1091.17,115.83,1091.17,116.54,1091.16,117.25Z"/><path class="cls-35" d="M1274.9,117.43c1.51,5.06,7.2,4.09,11.62,7.93-16.33,1.73-30.65,8.31-46.3,5.28l5.26-13.2Z"/><path class="cls-36" d="M990.2,338.15q0-6.63,0-13.24c2.56-5.42.53-11.18,1.24-16.73.48-3.73.54-3.72,5.17-1.49.12.06.18.4.18.27-.17-3.38,1-6,4.2-7.47a6.89,6.89,0,0,1,6,1c3.68,4.13,3.21,9.06,2.73,14a124.24,124.24,0,0,1-7.93,21.16c-2.54,2.16-6,.43-8.69,2.08Z"/><path class="cls-37" d="M1054,335.64c0,.75,0,1.5,0,2.25l-39.85-.07a2.53,2.53,0,0,1,.24-3.55,9.65,9.65,0,0,1,3.51-2,51.59,51.59,0,0,1,8.24-.71c3.61-.36,7.2.2,10.81,0C1043,331.24,1049.41,329.62,1054,335.64Z"/><path class="cls-38" d="M1344,205.15c.08-2.76-.17-5.61,2.23-7.69q0,11.85,0,23.69a2.82,2.82,0,0,1-3.71-.69,10.9,10.9,0,0,1-2.17-8A9.25,9.25,0,0,1,1344,205.15Z"/><path class="cls-39" d="M1014.08,335.64c0,.72,0,1.45,0,2.18L993,337.74c2.08-2.35,4.89-2.12,7.62-2.18C1005.15,331.18,1009.62,331.38,1014.08,335.64Z"/><path class="cls-40" d="M1344,221.14h2.2l.06,16-2.28,0c-4.2-3.42-4.29-7.8-2.92-12.52A7.87,7.87,0,0,1,1344,221.14Z"/><path class="cls-9" d="M1003.37,109.36c0,.85,0,1.71,0,2.56-4.57.52-9.53-1.08-13.55,2.46-.84.13-1.69.22-2.53.28-3.44-.75-3.46-2-.49-3.58C992.11,108.34,997.83,109.65,1003.37,109.36Z"/><path class="cls-41" d="M1000.68,301c-6.42,6.7-7.78,15.61-10.52,23.93V290.3c5.3-28.23,14.11-55.9,31.35-78.48,22.69-29.73,52.31-50.49,90.4-59.58,21.08-5,42.42-.87,62.86-7a104,104,0,0,1,34.93-3.91c5.72.25,11-.28,10.24,7.85-8.24,6.5-17.48,8.7-28.1,9.26-41.51,2.19-82.66,7.76-118.82,30.06-20.51,12.65-38.93,27.94-47.78,52.6-5,13.81-11.92,27.31-19.49,40.12C1002,287.58,1007.64,295.83,1000.68,301Z"/><path class="cls-42" d="M1218.92,149.28c-.58-2.86-1.85-5.08-5.23-4.69-36.8,4.31-74,6.53-110.26,13.72-24.61,4.89-43.77,22.79-63.22,38.9-29.65,24.54-33.07,62.28-50.05,93.09l0-31.92c6.32-7,5.69-16.54,8.56-24.78,5.19-14.93,14.34-27,24.32-38.79,12.08-20.47,36.56-24.56,52.59-39.81a4.64,4.64,0,0,1,2.39-1.11c23.76-4,46.8-11.45,70.84-14.21,20.23-2.32,41,.71,60.77-7,5.61-2.18,12.26-.77,18.43-.73,4.28,0,6.89,1.87,4.16,6.66q-1.34,4-2.68,8c-.9,4.58-.32,10.26-7.52,10.19a6.78,6.78,0,0,1-3.72-1.77A4.74,4.74,0,0,1,1218.92,149.28Z"/><path class="cls-43" d="M1024.63,197.18a10.39,10.39,0,0,1-4.08,9.3c-13.35,10.46-17.35,25.56-19.85,41.15-1.06,6.54-5.93,8.24-10.51,10.75q0-13.32,0-26.63a16.32,16.32,0,0,0,4.49-11.34c.25-6.33.71-13,6-17.91h0c4.68-6.48,10.51-11.94,16.26-17.39,4.47-4.23,9.5-8.48,16.41-4.2C1037.37,190,1027.37,191.66,1024.63,197.18Z"/><path class="cls-44" d="M1040.63,117.39h31.91c-5,1.76-5.7,10.62-13.31,7.93-7.3,3.15-14.24,7-21.3,10.64h-2.65c-11.92,10.13-28.24,15.13-35.09,31.27-1.67,3.93-6.25,6.81-10,.7l0-13.36C1001.61,134.88,1022.1,127.47,1040.63,117.39Z"/><path class="cls-45" d="M1040.63,117.39c-14.42,15.65-34.58,23.51-50.46,37.18V143.92C995.88,128,1016.11,117.33,1040.63,117.39Z"/><path class="cls-46" d="M990.15,167.93c11.52,2.32,8.22-10.19,14.1-14.39,9.85-7,19.33-14.06,31-17.58-.33,6.66-6.22,7.73-10.42,10.71-5.78,4.11-14.45,6-13.54,15.91-9,8.31-19.39,15.67-21.15,29.24Z"/><path class="cls-47" d="M1000.68,202.5c.66,7.35-1.81,14.39-2.25,21.53-.39,6.3-4.59,6.16-8.22,7.73l0-34.54C993.68,199,996.26,202.57,1000.68,202.5Z"/><path class="cls-37" d="M1344,223.78V237.1h0c-.64.61-1.37,1.72-2,1.65-20.09-2.23-38.48,12.43-58.94,6-5.89-1.86-10,2.77-15,3.72-26.35,5-52.61,9.47-79.62,10.75-23.73,1.13-45.27,8.34-61.67,29.83-7.67,10-13.89,24.51-29.26,28.63-8.07,2.16-6,11.84-9,17.86l-31.87.09c-.63-5.3,3.24-4.78,6.49-5s-.62-2.21.74-2.9c10.83-20.71,25.12-39.25,36.48-59.72a52.2,52.2,0,0,1,34.65-25.58c7.81-1.72,16.59-5.3,23.39-11.49,6.46-5.88,13.66-6.33,19.53,1.29,4,5.14,9.22,6.76,15.19,6.29,14.44-1.16,28.78-2.83,43.16-4.87,26.82-3.81,52.53-11.79,78.86-17.15C1324,214.67,1337.38,209.94,1344,223.78Z"/><path class="cls-38" d="M1088.45,335.5c-3.67-12.34.18-20.27,12-24.54,1.24-.44,3.49-.26,3.74-.93,4.07-11,13.86-17.26,20.56-25.8,3.45-4.4,6-9,11.13-12.3,13.89-9.14,29.43-19,45-17.35,15.18,1.6,29.84-9.36,44.5-.23,1.21.76,4.55.59,4.81,0,6.52-15.73,20.38-4.14,30.23-8s20.05-7.95,31.91-4.46c6,1.75,14.49,3.8,19.77-5.53,2.57-4.54,10-2.16,15-1.32,5.66,1,11.19,2.5,17,2.09v16c-16.24,3.65-32.77,2.31-48.82.22-15.26-2-27.7,3-40.55,9.17-11.53,5.52-23.26,10.76-36.66,8-7.22-4.06-14.15-3.46-20.82,1.33a28.21,28.21,0,0,1-13.45,1.28c-12.19,1.65-23.49,7.73-36.13,7.23-1.32-.05-3,1.16-3,2.19.11,13.5-15.28,16-18.92,26.81-1.18,3.5-4.71,4.7-7.87,6.42-7.71,4.18-14,9.81-13.38,19.81Z"/><path class="cls-48" d="M1064.56,330.26c1,.52,4.32.79,1.06,2.31-2.79,1.3-6.67-.07-9,3l-2.61.05-18.71-.08c-2.7-2.6-5.46-6.09-2.15-9.11,13.68-12.45,14.82-31.78,26.11-45.78,8.53-10.58,15.47-22.67,23.7-33.59,14.41-19.11,32.95-32.25,57.2-37.32,15.9-3.31,30.64-11.11,46.65-14.61,4.34-.94,8.84-3.53,10.2,3.57a18.14,18.14,0,0,1-2,7.35c-4.91,4.63-2.86,11.9-6.38,17.07a4.39,4.39,0,0,1-3.31,1.44c-15.67-7.08-26.69,4.44-38.75,10.37-6.24,3.06-11.34,7.33-19,7.88-5.84.43-12.88,3-16.29,7.9-7.9,11.4-17.53,21.62-24.53,33.46-6.24,10.54-10,22.47-18.89,31.6C1064.32,319.41,1061.72,324.54,1064.56,330.26Z"/><path class="cls-49" d="M1147,335.56c-3.2-3.89-8.26-1.84-12.18-5.16H1162c0-.72,0-1.43,0-2.15l-12.63-1.4c1.56-5.64,5.83-3.94,9-4.76,7.92-2.08,15.4-4.78,17.8-13.89,1.87-7.1,7.15-10.92,13.72-10.18,13,1.46,22.28-10,36-8.26s28.14-2.23,42.18-1.76c10.66.35,15.68-10.59,26.66-10.18,5,.19,9.52-2.28,15.41.71,4.6,2.34,12,2.51,16.8.43,10.35-4.5,14.94-1.17,17.1,8.7-.56,2.48-1.79,3.66-4.62,3.26-16.15-2.27-32.64,1.81-48.73-2.62-4.9-1.35-8.73.56-10.36,5.66-1.37,4.26-4.2,7.61-8.56,6.74-15.69-3.13-26.7,6.41-38.66,13.44-1.62.95-3.62,2.27-4.67.8-9.49-13.17-13.89.56-21.33,2.61C1186.92,323.11,1169.43,337.93,1147,335.56Z"/><path class="cls-50" d="M1104.44,335.52c-1.79-4.53-4.67-8.17-10.38-9.67,12.17-8.57,27.93-10.24,30.16-27.15.38-2.88,4.12-2.81,6.73-3.13s6.37-1.13,6.51-3.7c1.26-22.22,18.86-16.23,31.33-17.7,5.23-.62,5.91-10.77,12.87-5.13.83,11.32-4.63,18.39-14.65,17.57-10.87-.9-17.1.09-22.18,13.12-5.21,13.35-19,22.68-32.24,25.17a7.07,7.07,0,0,1,7.86,2.7c6.75.71-1.29,6.3,2.62,7.95Z"/><path class="cls-40" d="M1120.45,327.6h-15.86c12.37-10.32,26.69-13.45,33.84-25.74,1.06-1.82,5.58-1.93,4.63-5.28-6-21.3,14-16.34,19.6-14.9,13.55,3.51,14.77-5.52,19-12.64h16c7-1.75,13.93-3.89,21.3-2.66,12.38,4.3,22.16-4.12,32.75-7.48,4.59-1.45,10-3.66,13.91-6.46,13.1-9.46,27.06-2.69,40.4-3.11,8.56-.26,17.52,2.1,26.06,0,5.37-1.35,8.19,1.89,12,3.76-4.1,16.31-15.26,18.85-30.06,16.48-13.72-2.19-28.34,2.26-41.41-5.52a4.57,4.57,0,0,0-3.89,0c-15.2,8.68-34.76,5.72-48.49,18.2-3.55,3.24-7.13,1.79-11.13.86-12.1-2.83-22.2,3.11-33.38,6.18-13.72,3.77-18.64,15-28.54,20.42C1137.51,314.94,1131.1,324.41,1120.45,327.6Z"/><path class="cls-47" d="M1032.61,181.2c-8.1,1.12-12.91,6.31-17.61,12.6a22.39,22.39,0,0,1-14.32,8.7c1.91-17.38,12.3-28.42,27.48-35.18,7.47-3.33,12.65-9.25,19-13.66a84,84,0,0,1,36.19-14.88c26.83-4.2,53-11.64,80.67-11.11,15.77.3,31.69-1.77,47.34-4.14,7.46-1.12,13.83,3.06,20.91,1.8.64,6.43-4,9.32-8.71,9-10.73-.75-20.83,3.05-31.37,3-38.39-.22-75.61,7.74-112.9,15.68-7.09,1.51-8.77,7.91-14.2,10.91C1054.33,169.85,1043.45,175.48,1032.61,181.2Z"/><path class="cls-51" d="M1032.61,181.2c6-11.9,20.58-11.59,29-20.56,15.9-17,38.68-15,59-20.11,30.89-7.69,62.24-7.23,93.62-7.16,7.39,0,14.3-.23,18-8,6.28.85,2,5.24,2.68,8l0,5.3-2.64,0c-6.67-6.21-16.3-4.46-21.45-1.75-16.3,8.56-33.74,5.5-50.17,6.24-26,1.17-51.14,7.59-75.14,14.52-18.3,5.28-39.26,14.09-51.23,32.84-2.32,3.64-6.21,4.77-9.63,6.69C1024.32,190.37,1034.34,188.72,1032.61,181.2Z"/><path class="cls-52" d="M1213.66,168c0,.87,0,1.74,0,2.61-2.9,3,.5,9.13-5.36,10.61q-2.68,4-5.38,7.93c-1.88-1.86-3.69-3.83-6.31-4.7-13.73,5-28.32,4.72-42.35,4.85-14.56.14-26.38,4.07-37,13.41-10-.58-19.85,9.35-30,.51a11.54,11.54,0,0,1-2.32-5.92c0-6.7,3.23-10.4,9.93-11.91,11.42-2.57,23.69-2.89,33-11.56a6.55,6.55,0,0,1,5-1.46c16.06,1.93,30.87-5.45,46.73-6.2,9.66-.46,19.37-4,29.43-4.11C1213.64,162,1216.19,162.86,1213.66,168Z"/><path class="cls-53" d="M1344,170.55q0,6.64,0,13.28c-29.09,5.82-57.93,12.32-86.37,21.1-13.06,4-27.7,4.84-41.87,4.08a8.79,8.79,0,0,1-7.68-4.39c.07-.71.14-1.42.22-2.13,7.69-5.71,16.44-7.12,25.86-8.3,15.7-2,31.69-4.44,46.57-9.59,19.44-6.72,40.21-8.38,59.1-16.78C1340.65,167.45,1342.59,169.58,1344,170.55Z"/><path class="cls-54" d="M1117.78,199.84c7.28-13.73,20-12.76,33.16-15.07,14.36-2.52,30.32,4.9,43.32-6.37,2.73-2.37,4.68.4,6,2.81a10.53,10.53,0,0,0,0,8l0,8a2.63,2.63,0,0,1-3.41-.08c-1.33-3.75-4.47-4-7.63-3.6-22.83,3.07-44.62,10.74-67.13,15.29a17.07,17.07,0,0,0-8,4.58c-7,6.42-14,6.71-20.93-.27C1099,204.22,1108.35,202,1117.78,199.84Z"/><path class="cls-55" d="M1208.26,181.19l5.36-10.61c-.78,11.74,5.81,12.06,14.38,9.26,24.74-8.09,51.28-10.09,74.91-22.12,2.49-1.26,6.09-.36,9.17-.46-2.68,11.54-13.61,10.12-21.4,13.15-12.84,5-26.45,7.53-39.81,10.8-10.75,4.53-21.47,8.82-33.59,8.09C1211.61,189,1208,187.54,1208.26,181.19Z"/><path class="cls-56" d="M1250.87,181.21c1.64-6.92,7.37-4.55,11.85-5.38,17.54-3.25,34.73-7.55,49.36-18.57,10.48-3.34,20.89-6.95,31.94-8,.57,7.3-.25,10.24-10,11.52-18.24,2.37-36.19,8.38-53.67,14.55C1270.57,178.79,1261.15,181.55,1250.87,181.21Z"/><path class="cls-57" d="M1200.31,189.2c-2.51-.55-5-1.24-4.58-4.59.32-2.55,2.53-2.93,4.56-3.4,2.7,2,2.64,5,2.6,7.91Z"/><path class="cls-53" d="M1197.64,197.19l2.64,0,8,5.32,0,0c-4.79,6.33-9.06,7.68-12.25-1.28A7.52,7.52,0,0,1,1197.64,197.19Z"/><path class="cls-58" d="M1213.66,168c-6-2.93-17.28-2.38-18.18-1.66-12,9.72-27.32,6.24-39.47,7.15-21.1,1.57-37.9,14.76-58.28,15.61-5.62.23-9.57,1.5-9.22,8.11-9.63,10.72-20.47,20.24-30.93,30.08-7,6.54-12.27,13.49-15.47,22.43-7.5,20.95-18,40.7-24.45,62.11-1.7,5.68-5.11,9.49-11.66,5.15V301a7,7,0,0,1-1.63-3.55c-.12-8.2,2.12-15.27,8.6-20.94,7.21-6.31,6.23-15.77,8.29-24.05,14.06-43.72,46.64-67.1,88.37-80.43a54.93,54.93,0,0,0,29.16-6.72,16,16,0,0,1,8.13-1.36c18.75-1.1,37.19-5.18,56-5.62,3.22-.07,5.71-2.15,8.2-4,2.66-1.55,5.29-1.9,7.84.23l2.61,0c1.6,1.77,1.42,3.54,0,5.3C1216.26,160,1216.77,165.74,1213.66,168Z"/><path class="cls-59" d="M1221.57,159.89c0-1.77,0-3.53,0-5.3,5.32,0,4.85-5.8,8-8,3.5,6.3,6.86,6.2,14.53,4.3,22.48-5.56,43.52-18.51,68-14.95,1.22,7.51-3.77,9.08-9.53,11-8.8,2.89-19.26,1-26.34,8.95-14.7.8-27.62,9.7-42.64,9.21-4.22-.14-8.7,1.8-12-2.52Z"/><path class="cls-60" d="M1277.47,154.59c2.24-10.18,10.36-10.62,18.29-10.53,7,.07,13-1.19,16.32-8.1,9.87-5.87,22.31-4,31.93-10.65-.47,5.82,2.11,14.31-6,15.38-19.85,2.59-37.2,15.07-57.82,13.91C1279.26,155.65,1278.36,155.71,1277.47,154.59Z"/><path class="cls-43" d="M1277.47,154.59h2.68c-13.14,4.79-25.41,12.24-39.77,13.23-4.4.31-8.72.34-12.81,2.37-2.22,1.1-4.94,3.33-7.16.85-2.55-2.84.18-5.71,1.18-8.48C1240.68,163.16,1258.43,154.36,1277.47,154.59Z"/><path class="cls-54" d="M1197.61,199.82c1.78,7.93,6.47,4.33,10.66,2.7,17,6,33.83.58,50.15-2.19,22.6-3.84,43.44-16.16,67-16.31,6.18,0,12.43-10.86,18.58-.19l-2.63,5.36c-7.28-2-11.52,6.71-18.63,5.33-3.72.19-7.73-.78-10.65,2.65-35.39,8.28-70.09,19.74-106.7,22.32-10.46.73-14.88-3.66-13.09-14.34l2.64-5.35Q1196.29,197.3,1197.61,199.82Z"/><path class="cls-57" d="M1192.29,205.15c-.23,9.07,4.76,10.78,12.84,10.33,33.06-1.84,64.83-10,96.52-18.76,3.19-.88,6.94.25,10.43.45-9.13,8.21-21.53,6.44-32.13,10.42-22.13,8.32-45.12,13.6-69,13.55-7.1,9.72-11,10.15-23.93,2.65C1187.75,217.28,1184.42,209.63,1192.29,205.15Z"/><path class="cls-48" d="M1187,223.79c7.91-1.48,16.72,5.09,23.93-2.65,16.18,6.34,31.94-1.71,48-1.4,11.94.23,22.24-8.6,34.57-6.59l1,1.61a6.22,6.22,0,0,1-1.75,3.31c-6.39,3.13-12.68,6.45-19.11,9.55-19.94,4.45-40,8.12-60.43,9.07-7.44.34-15,1.14-22.21-.92-6.6-1.88-10.41-5.42-4-12Z"/><path class="cls-61" d="M1293.45,215.81v-2.66c15.68-10.05,32.9-10.43,50.56-8q0,4,0,8c-5.27,3.94-11.81,3.67-17.53,3.4-7.94-.38-15.43-.27-22.88,2.69C1299.49,220.84,1295.92,219.64,1293.45,215.81Z"/><path class="cls-57" d="M1322.73,194.52c6-2.54,9.84-12.59,18.63-5.33C1336.18,194.56,1330.78,199.18,1322.73,194.52Z"/><path class="cls-46" d="M1037.93,136c4.65-8.46,12.89-9.7,21.3-10.64C1052.89,130.39,1047.58,137.52,1037.93,136Z"/><path class="cls-62" d="M1006,298.32V301h-5.32c-3.17-19.47,6.7-34.94,15.9-50.43,7.1-12,9-26.5,18.63-37.16,1.12-1.23,1.11-4,2.3-4.54,17.33-7.5,28.45-23.38,46.43-31.17,37-16.05,75.26-22.12,114.89-23.16,7.14-.18,12.43-7.2,20.09-5.24,0,1.76,0,3.51,0,5.27l-5.37,2.7c-19.69,3.29-39.5,5.73-59.33,8-2.68.3-5.24.62-7.21,2.68h-8c-9.5,3.59-19.47,5.51-29.28,8-40.12,12.78-70.21,36.63-85.17,77.18-2.8,9.73-5.56,19.6-13.19,26.79C1005.81,285.15,1008.79,292.48,1006,298.32Z"/><path class="cls-63" d="M1006,317c2.64-.17,6.94-.26,6.77-2.74-.94-13.72,7.32-24.94,12.81-35.36,9.77-18.54,9.68-42,30.32-55.93,11.16-7.53,19.19-20.21,32.61-25.74v5.32c.47,9.06-5.88,15-11.44,19.93-12.69,11.35-19.41,26.66-28.87,40.09-12.75,18.1-15.19,40.74-24.77,60.36-2.12,4.35-4.48,8.5-6.77,12.72-.86,0-1.72,0-2.58,0l-13.43-.08C996.25,327.58,1003.53,323,1006,317Z"/><path class="cls-57" d="M1197.61,199.82l-2.68,0c-2.26-.74-2.09.46-9.5,1.51-17.58,2.5-33.55,9.18-49.42,16.45a5.61,5.61,0,0,1-2.58.5c-14.08-.88-23.41,8.3-32.83,16.32-15.92,13.56-25.11,32.56-37.86,48.68-9,11.31-11.79,25-18.16,37.28-2.78,5.34-13.39,5.81-9.32,15l-10.62,0c-3.39-2-5.51-4.48-3.29-8.66,4.53-8.54,6.92-18,11.36-26.55,6.08-11.66,13.51-22.31,17.09-35.54,4-14.73,16.68-24.63,26.48-35.84,5.1-5.85,6.72-16.19,17.55-15.85,7.49.58,13.23.8,20.27-6,8.56-8.27,23.88-3.78,35-9.84,11.51-6.24,25-3.5,37.09-8.06,5.62-2.13,9.78,2.11,11.42,7.94Z"/><path class="cls-39" d="M1093.83,213.15c-12.73,16.26-29.16,30.89-37.26,49.2-10.28,23.26-24.18,44.6-33.35,68.26-.49,1.28.91,3.3,1.42,5h-8c-.06-13.77,7.66-25.06,12.3-37.28,1.37-3.63,3.39-6.86,3.74-11,1.43-16.49,11.29-28.49,21.87-40,.88-1,2.76-1.68,2.83-2.62,1.57-20.61,23-26.52,31.11-42.2,10.11,2.94,19.23-4.9,29.27-2.66C1109.47,203.68,1103.11,211,1093.83,213.15Z"/><path class="cls-64" d="M1293.45,215.81c16.82-1.46,33.56-4.38,50.54-2.68,0,2.67,0,5.34,0,8,0,.88,0,1.76,0,2.64-16.71-9.59-32.6-1.78-49,1.73-17.19,3.69-33.92,8.84-51.73,10.83-15.29,1.71-30.51,5.83-46.2,6.29-9.53.28-19.21,3-24.14-9.85-2-5.11-9.4-3.75-11.73.77-5.8,11.29-18.25,8-26.75,13.37-4.79,3-32.19,20.3-33.07,26.21-2.09,14-13.38,22.11-19.87,33.22-4.91,8.41-7.07,19-17,23.91-9.45-5.11-6.66-12.32-1-17,8.35-6.9,11.94-15.83,16.15-25.13,3.52-7.76,3.74-19.08,16.36-20.1,3-.24,2.8-4.1,3.49-6.6,3.2-11.63,9.68-19.51,22.55-21.05,18.57-2.22,31.92-16.15,48.85-22.52,9.22-3.48,13.15-2.91,16,5.93-1.92,6.67,1.08,8.24,7.33,8.08,24.43-.63,49.15,2.48,72.83-6.73,3.14-1.22,6.88-.94,10.34-1.36,4.88-3.54,11.56-3.49,16-8Z"/><path class="cls-50" d="M1218.93,266.38c-6.82,3.1-13.69,5.88-21.3,2.66C1203.65,259.51,1211.35,263.44,1218.93,266.38Z"/><path class="cls-28" d="M1147.06,167.9c.54-2.22,1.39-4.75,3.9-4.76,21.07,0,41.33-8.6,62.64-5.89-8.93,10.1-21.72,4.29-32.49,7A133.81,133.81,0,0,1,1147.06,167.9Z"/><path class="cls-36" d="M1006,298.32c-2.81-18.79,12-30.33,18.63-45.25-.45,11.06-2.13,21.76-11.73,29C1007.26,286.27,1010.58,293.89,1006,298.32Z"/><path class="cls-28" d="M1109.8,175.89c9.29-4.39,18.34-9.64,29.28-8C1131,176.62,1120.22,175.66,1109.8,175.89Z"/><path class="cls-61" d="M1293.45,215.81c-3.28,6.76-9,8.63-16,8C1280.37,216.26,1287.47,217.15,1293.45,215.81Z"/><rect class="cls-65" width="1439.68" height="586.34"/><path class="cls-66" d="M158.14,198v12h9.57v10.64h-9.57v24.8c0,4,1.93,5.85,6.09,5.85a22.3,22.3,0,0,0,3.44-.24v10.4a32.4,32.4,0,0,1-6.73.58c-12.18,0-16.92-4.06-16.92-14.17V220.54h-7.3V209.9H144V198Z"/><path class="cls-66" d="M222,245.87c-1.55,10.16-10.83,17-23.65,17-16,0-25.53-10.21-25.53-26.79s9.67-27.27,25-27.27c15.09,0,24.62,10.2,24.62,26v4.31H186.72v.87c0,7.39,4.69,12.47,11.9,12.47,5.17,0,9.14-2.56,10.44-6.53ZM186.87,230.4h22c-.29-6.63-4.6-11.17-10.88-11.17S187.35,223.92,186.87,230.4Z"/><path class="cls-66" d="M229.71,209.9h13.64v9.38h.29a15.22,15.22,0,0,1,14.8-10.35c7.49,0,12.71,3.87,14.45,10.64h.3c2.32-6.53,8.51-10.64,16.1-10.64,10.15,0,17,7,17,17.41v35.39H292.14V229.87c0-6-3-9.29-8.46-9.29s-8.9,3.92-8.9,9.67v31.48H261.19v-32.3c0-5.56-3.14-8.85-8.36-8.85-5.37,0-9,4.07-9,9.87v31.28H229.71Z"/><path class="cls-66" d="M313.23,246.84c0-9.43,7.25-14.89,20.17-15.67l13.05-.77V227c0-4.84-3.38-7.64-8.7-7.64s-8.61,2.61-9.29,6.43H315.55c.53-10.06,9.09-17,22.83-17,13.29,0,21.95,6.86,21.95,17.31v35.63H346.69V253.8h-.29c-2.9,5.52-9.33,8.76-15.81,8.76C320.73,262.56,313.23,256.17,313.23,246.84Zm33.22-4.11V239l-10.93.68c-5.27.38-8.27,2.75-8.27,6.43,0,3.86,3.2,6.28,8,6.28C341.37,252.35,346.45,248.34,346.45,242.73Z"/><path class="cls-66" d="M370.83,239.54V227.21H402.6v12.33Z"/><path class="cls-66" d="M412.61,226.72c0-22.53,10.88-36.36,28.48-36.36s28.43,13.78,28.43,36.32-10.73,36.6-28.43,36.6S412.61,249.31,412.61,226.72Zm42.07,0c0-15.9-5-24.66-13.59-24.66s-13.63,8.8-13.63,24.66c0,16,5,24.86,13.63,24.86S454.68,242.73,454.68,226.72Z"/><path class="cls-66" d="M495.35,220.63h7.79c7.3,0,12-4,12-9.67s-3.92-9.33-10.88-9.33-11.66,3.67-12.09,9.72h-13.4c.73-12.77,10.88-20.94,25.49-20.94S529,197.71,529,208.88c0,8.9-6.34,14.65-14.56,16.35v.29c10.35,1,17.12,7.1,17.12,16.68,0,12.67-11,21.08-27.18,21.08-15.76,0-26.49-8.51-27.12-21.32h13.92c.49,5.7,5.52,9.57,13.2,9.57,7.31,0,12.33-4.06,12.33-10,0-6.77-4.93-10.54-13.39-10.54h-8Z"/><path class="cls-66" d="M533.7,277.45V266.91h45.89v10.54Z"/><path class="cls-66" d="M581.68,265.41h13.83c1.11,3.58,5.17,6,10.54,6,7.3,0,11.36-4.06,11.36-10.05v-9.1h-.29c-2.42,5.52-8.51,9.29-16,9.29-12.66,0-21-9.77-21-26,0-16.44,8.12-26.54,21.28-26.54,7.44,0,13.29,3.91,16,9.86h.24v-9h13.93V261c0,12.38-10.35,20.26-25.87,20.26C592,281.27,582.79,274.64,581.68,265.41Zm35.78-29.69c0-9.33-4.5-15.33-11.56-15.33s-11.36,5.9-11.36,15.33,4.35,15,11.36,15S617.46,245.1,617.46,235.72Z"/><path class="cls-66" d="M640.72,209.9h13.64v9.33h.29c1.84-6.58,6.24-10.15,12.33-10.15a14.35,14.35,0,0,1,4,.53V222a14.58,14.58,0,0,0-5.12-.82c-7,0-11,4.26-11,11.56v29H640.72Z"/><path class="cls-66" d="M724.62,261.73H711V252.4h-.29c-2.57,6.53-7.69,10.3-15.53,10.3-11.21,0-18.66-7.3-18.66-19.39V209.9h14.12v30.46c0,6.92,3.43,10.59,9.67,10.59s10.2-4.5,10.2-11.36V209.9h14.12Z"/><path class="cls-66" d="M733.82,209.9h13.63v9.23h.29c2.76-6.43,8.22-10.2,16.2-10.2,11.51,0,18,7.25,18,19.39v33.41H767.81V231.27c0-6.77-3.19-10.64-9.53-10.64s-10.34,4.64-10.34,11.37v29.73H733.82Z"/><path class="cls-66" d="M789,235.72c0-16.44,8.23-26.64,21.23-26.64,7.5,0,13.3,4,15.81,9.71h.29V192h14.12v69.77H826.52v-8.89h-.24c-2.52,5.7-8.51,9.72-16.15,9.72C797.17,262.56,789,252.3,789,235.72Zm14.46.1c0,9.52,4.35,15.37,11.46,15.37s11.51-5.9,11.51-15.37-4.5-15.43-11.51-15.43S803.45,226.34,803.45,235.82Z"/><path class="cls-66" d="M850.22,192h14.12v69.77H850.22Z"/><path class="cls-66" d="M910.81,253h-.44c-3.62,6-10.1,9.58-18.86,9.58-12.23,0-19.77-6.39-19.77-15.72s7.2-14.84,20.5-15.57l12.86-.73v-2.85c0-4.79-3.91-8.36-9.28-8.36-5.08,0-8.8,2.66-9.24,6.48H873.87c.48-10.11,9-17,21.61-17,8.27,0,14.46,3,17.26,7.78h.39c3.48-4.93,9.28-7.78,17.07-7.78,14,0,23.31,10,23.31,26V239h-35.3v.92c0,7.35,4.74,12.47,11.8,12.47,5,0,8.8-2.56,10.15-6.53h13c-1.55,10.16-10.74,17-23.31,17C921.16,262.85,914.1,259,910.81,253Zm-5.71-10.25V239.1l-11.17.73c-5.41.39-8.7,2.61-8.7,6.29s3.48,6.43,8.27,6.43C899.93,252.55,905.1,248.05,905.1,242.73Zm13.25-12.33h21.57c-.24-6.72-4.35-11.17-10.5-11.17S918.84,223.87,918.35,230.4Z"/><path class="cls-66" d="M960.53,265.41h13.83c1.11,3.58,5.17,6,10.54,6,7.3,0,11.36-4.06,11.36-10.05v-9.1H996c-2.42,5.52-8.51,9.29-16,9.29-12.67,0-21-9.77-21-26,0-16.44,8.12-26.54,21.28-26.54,7.44,0,13.3,3.91,16,9.86h.24v-9h13.93V261c0,12.38-10.35,20.26-25.87,20.26C970.87,281.27,961.64,274.64,960.53,265.41Zm35.78-29.69c0-9.33-4.5-15.33-11.56-15.33s-11.36,5.9-11.36,15.33,4.35,15,11.36,15S996.31,245.1,996.31,235.72Z"/><path class="cls-66" d="M1019.28,265.41h13.83c1.11,3.58,5.18,6,10.54,6,7.31,0,11.37-4.06,11.37-10.05v-9.1h-.29c-2.42,5.52-8.51,9.29-16,9.29-12.67,0-21-9.77-21-26,0-16.44,8.12-26.54,21.27-26.54,7.45,0,13.3,3.91,16,9.86h.24v-9h13.93V261c0,12.38-10.35,20.26-25.87,20.26C1029.63,281.27,1020.4,274.64,1019.28,265.41Zm35.79-29.69c0-9.33-4.5-15.33-11.56-15.33s-11.36,5.9-11.36,15.33,4.35,15,11.36,15S1055.07,245.1,1055.07,235.72Z"/><path class="cls-66" d="M1125.62,245.87c-1.55,10.16-10.83,17-23.64,17-16,0-25.54-10.21-25.54-26.79s9.68-27.27,25-27.27c15.09,0,24.62,10.2,24.62,26v4.31h-35.74v.87c0,7.39,4.69,12.47,11.9,12.47,5.17,0,9.14-2.56,10.44-6.53Zm-35.15-15.47h22c-.29-6.63-4.59-11.17-10.88-11.17S1091,223.92,1090.47,230.4Z"/><path class="cls-66" d="M1133.32,209.9H1147v9.23h.29c2.76-6.43,8.22-10.2,16.2-10.2,11.51,0,18,7.25,18,19.39v33.41h-14.12V231.27c0-6.77-3.19-10.64-9.53-10.64s-10.34,4.64-10.34,11.37v29.73h-14.12Z"/><path class="cls-66" d="M1188.49,235.72c0-16.44,8.23-26.64,21.23-26.64,7.5,0,13.3,4,15.81,9.71h.29V192h14.12v69.77H1226v-8.89h-.24c-2.52,5.7-8.51,9.72-16.15,9.72C1196.67,262.56,1188.49,252.3,1188.49,235.72Zm14.46.1c0,9.52,4.35,15.37,11.46,15.37s11.51-5.9,11.51-15.37-4.5-15.43-11.51-15.43S1203,226.34,1203,235.82Z"/><path class="cls-66" d="M1296.67,245.87c-1.55,10.16-10.83,17-23.65,17-16,0-25.53-10.21-25.53-26.79s9.67-27.27,25-27.27c15.09,0,24.62,10.2,24.62,26v4.31h-35.74v.87c0,7.39,4.69,12.47,11.9,12.47,5.17,0,9.14-2.56,10.44-6.53Zm-35.15-15.47h22c-.29-6.63-4.6-11.17-10.88-11.17S1262,223.92,1261.52,230.4Z"/><path class="cls-66" d="M138.27,365.69c0-9.43,7.25-14.89,20.16-15.67l13.06-.77v-3.43c0-4.84-3.39-7.64-8.71-7.64s-8.61,2.61-9.28,6.43H140.59c.53-10.06,9.09-17,22.82-17,13.3,0,22,6.87,22,17.32v35.63H171.73v-7.93h-.29c-2.9,5.52-9.34,8.76-15.81,8.76C145.76,381.41,138.27,375,138.27,365.69Zm33.22-4.11v-3.77l-10.93.67c-5.27.39-8.27,2.76-8.27,6.44,0,3.86,3.19,6.28,8,6.28C166.41,371.2,171.49,367.19,171.49,361.58Z"/><path class="cls-66" d="M194.46,328.75h13.63V338h.29c2.76-6.43,8.23-10.2,16.2-10.2,11.51,0,18,7.25,18,19.39v33.41H228.45V350.12c0-6.77-3.19-10.64-9.52-10.64s-10.35,4.64-10.35,11.36v29.74H194.46Z"/><path class="cls-66" d="M251.43,314.48a7.35,7.35,0,1,1,7.35,7.25A7.26,7.26,0,0,1,251.43,314.48Zm.34,14.27h14.11v51.83H251.77Z"/><path class="cls-66" d="M275.27,328.75H288.9v9.38h.29A15.22,15.22,0,0,1,304,327.78c7.5,0,12.72,3.87,14.46,10.64h.29c2.32-6.53,8.51-10.64,16.1-10.64,10.16,0,17,7,17,17.41v35.39H337.7V348.72c0-6-3-9.29-8.47-9.29s-8.89,3.92-8.89,9.67v31.48H306.75v-32.3c0-5.56-3.15-8.85-8.37-8.85s-9,4.06-9,9.87v31.28H275.27Z"/><path class="cls-66" d="M358.79,365.69c0-9.43,7.25-14.89,20.16-15.67l13.06-.77v-3.43c0-4.84-3.39-7.64-8.71-7.64s-8.61,2.61-9.28,6.43H361.11c.53-10.06,9.09-17,22.82-17,13.3,0,21.95,6.87,21.95,17.32v35.63H392.25v-7.93H392c-2.9,5.52-9.33,8.76-15.81,8.76C366.28,381.41,358.79,375,358.79,365.69ZM392,361.58v-3.77l-10.93.67c-5.27.39-8.27,2.76-8.27,6.44,0,3.86,3.19,6.28,8,6.28C386.93,371.2,392,367.19,392,361.58Z"/><path class="cls-66" d="M432.87,316.8v11.95h9.58v10.63h-9.58v24.81c0,4,1.93,5.85,6.09,5.85a23.63,23.63,0,0,0,3.44-.24v10.4a33.07,33.07,0,0,1-6.72.58c-12.19,0-16.93-4.07-16.93-14.17V339.38h-7.3V328.75h7.3V316.8Z"/><path class="cls-66" d="M450.09,314.48a7.35,7.35,0,1,1,7.35,7.25A7.26,7.26,0,0,1,450.09,314.48Zm.34,14.27h14.12v51.83H450.43Z"/><path class="cls-66" d="M472.05,354.62c0-16.78,10.15-27,25.67-27s25.68,10.16,25.68,27c0,17.07-10,27.08-25.68,27.08S472.05,371.64,472.05,354.62Zm37,0c0-10.29-4.45-16.24-11.32-16.24s-11.36,5.95-11.36,16.24,4.4,16.25,11.36,16.25S509,365.06,509,354.66Z"/><path class="cls-66" d="M530.66,328.75h13.63V338h.29c2.76-6.43,8.22-10.2,16.2-10.2,11.51,0,18,7.25,18,19.39v33.41H564.65V350.12c0-6.77-3.19-10.64-9.53-10.64s-10.34,4.64-10.34,11.36v29.74H530.66Z"/></svg>
