<svg id="Layer_1" data-name="Layer 1" xmlns="http://www.w3.org/2000/svg" width="749" height="460" viewBox="0 0 749 460"><defs><style>.cls-1{fill:#969795;}.cls-2{fill:#a7a7a5;}.cls-3{fill:#babcb9;}.cls-4{fill:#b0b2af;}.cls-5{fill:#b6b9b2;}.cls-6{fill:#989896;}.cls-7{fill:#8e908b;}.cls-8{fill:#ababa9;}.cls-9{fill:#e3e6de;}.cls-10{fill:#cbcdc6;}.cls-11{fill:#b4b6b0;}.cls-12{fill:#eaeaea;}.cls-13{fill:#e6e7e1;}.cls-14{fill:#ebede7;}.cls-15{fill:#929490;}.cls-16{fill:#8b8c87;}.cls-17{fill:#787875;}.cls-18{fill:#bcbcb8;}.cls-19{fill:#d5d6d1;}.cls-20{fill:#848681;}.cls-21{fill:#f4f6f1;}.cls-22{fill:#ebeee7;}.cls-23{fill:#f2f2f3;}.cls-24{fill:#d3d5cd;}.cls-25{fill:#a1a39d;}.cls-26{fill:#afb2aa;}.cls-27{fill:#f0f1ec;}.cls-28{fill:#e7e9e2;}.cls-29{fill:#dcdfd7;}.cls-30{fill:#d6d8d1;}.cls-31{fill:#f2f4ee;}.cls-32{fill:#1b1b1e;}.cls-33{fill:#5e5d5e;}.cls-34{fill:#fbfdf8;}.cls-35{fill:#08070c;}.cls-36{fill:#e2e4df;}.cls-37{fill:#bdbeb8;}.cls-38{fill:#eeefef;}.cls-39{fill:#a5a7a2;}.cls-40{fill:#d5d6ce;}.cls-41{fill:#d3d2d1;}.cls-42{fill:#f6f5f5;}.cls-43{fill:#ecede6;}.cls-44{fill:#1e1d22;}.cls-45{fill:#141315;}.cls-46{fill:#1b1a1f;}.cls-47{fill:#19181c;}.cls-48{fill:#010104;}.cls-49{fill:#232323;}.cls-50{fill:#18171c;}.cls-51{fill:#222126;}.cls-52{fill:#323136;}.cls-53{fill:#2c2b2f;}.cls-54{fill:#242328;}.cls-55{fill:#28272c;}.cls-56{fill:#3e3d42;}.cls-57{fill:#1e1d21;}.cls-58{fill:#27262b;}.cls-59{fill:#3a393e;}.cls-60{fill:#37363b;}.cls-61{fill:#26252a;}.cls-62{fill:#e86868;opacity:0.8;}.cls-63{fill:#fff;}</style></defs><title>tema_2_button</title><path class="cls-1" d="M370.6,289c-.09-7.49-5.63-6.32-10.25-6.32q-62.67,0-125.35.1c-5.75-1.12-8.7-5.12-10.56-10.24a2.44,2.44,0,0,1,1,.07,5.24,5.24,0,0,1,3.11-1.72,7.08,7.08,0,0,1,5.15,1.51c3.44,2.63,7.44,3.29,11.62,3.28,38.61-.12,77.22.39,115.8-.28,6.28-.7,12.28,0,17.65,3.72l.79,1.14a7.72,7.72,0,0,1,.55,2.55c.12,1.14,10.14-5,11-4,.69.51-2.62,1.42-2.05,2.06s-5.39,8.6-5.37,9.54a4.15,4.15,0,0,1-1.65,2.27,9.45,9.45,0,0,1-7.36.72A6.77,6.77,0,0,1,370.6,289Z"/><path class="cls-2" d="M237,79.2q111.57.1,223.14.21c5.79,0,11.59.18,17.39.27.93,4.54-1,6.9-5.54,7.29-28.71-.92-57.44-.25-86.16-.36-38.82-.15-77.64-1-116.46-.1a24.06,24.06,0,0,1-7.14-.5c-11.89-3.37-22.9-.89-33.47,4.81a4.91,4.91,0,0,1-3.47-1A16.64,16.64,0,0,1,237,79.2Z"/><path class="cls-3" d="M225.26,89.8a6.77,6.77,0,0,0,1.27-.07c4.35,3.16,3.28,7.85,3.29,12.14q.1,37.6,0,75.2c-.19,14.6.32,29.21-.29,43.81a8.6,8.6,0,0,1-1.32,3.53,2.49,2.49,0,0,1-3.29.88C224.6,180.12,223.62,135,225.26,89.8Z"/><path class="cls-4" d="M225,225.29l1.61,0a6.93,6.93,0,0,1,3.17,6c.24,11.41.12,22.82.08,34.22a9.33,9.33,0,0,1-3.37,7l-1,.13C223.69,256.84,224.57,241.06,225,225.29Z"/><path class="cls-5" d="M473,85.28c2.59-1,3.21-3.58,4.55-5.6l34.8-.08q5.18,4.07,10.36,8.12c.11,1.15.22,2.29.34,3.44,1.64,21.43.42,42.89.69,64.33.21,16.36.15,32.73-.05,49.09,0,3,2,7-2.65,8.79-4-2.81-3.28-7.15-3.34-11.1-.16-10.48,0-21-.06-31.44-1.46-17.09,2.53-34,2.11-50.25-2.46,5.48,4.28,13.32-3.38,18.7-4.6-4.87-2.37-10.93-2.78-16.49-.48-6.4.51-12.87-.72-19.23-.59-2.61-1.14-5.25-1.68-7.87-1.09-6.16-6-3.37-9.49-4-5.11-1.16-10.19-.21-15.29-.15-53.05.59-106.1.79-159.15,0-14.69-.23-29.36-.9-44-.16A94.94,94.94,0,0,1,259.59,91c-7.23.32-14.89,3.11-20.87-3.66,2.6-5.21,7.58-3.91,11.64-3.66,22.08,1.33,44.17.74,66.25.8,50.1.12,100.2.26,150.3.12C468.94,84.55,471,84.34,473,85.28Z"/><path class="cls-6" d="M522.47,272.44c-.38,4.85-3.34,7.34-7.77,8.49-7.06,1.93-14.27.8-21.4.83-31.84.15-63.68.1-95.52,0-3.52,0-7.28.78-10.5-2.62,36.16-1.45,72.29-1.44,108.41-1.43-33.41-.05-66.82,0-100.23-.06-3.39,0-6.85.65-10.18-.57.76-7.34,6.68-5.36,10.74-5.39,31.77-.26,63.54-.17,95.32-.12,5.13,0,10.24-.07,15.24-1.29a26.22,26.22,0,0,1,4.92-.41c2.78.23,5.58-.22,8.39-.27C521.42,270,521.78,271.34,522.47,272.44Z"/><path class="cls-7" d="M384.82,276.62H505.51v2.15H389.91c0,.72,0,1.44,0,2.16H514.7c-5.93,3.53-12.51,1-18.71,2l-117.16-.13c0-.66,0-1.32,0-2C379.52,277.57,381.12,275.61,384.82,276.62Z"/><path class="cls-8" d="M522.47,272.44l-1.87-1.92c-4.87-5.14-2.6-11.56-2.93-17.44-.35-6.41-.08-12.86-.08-19.28,1-7-2.4-14.6,3.14-20.88,3.06-3.56,1.83-7.85,1.86-11.84q.3-55,.4-109.92c2.35,3.4,1.53,7.28,1.53,11q0,78.09-.1,156.17C524.42,263.11,524.42,267.91,522.47,272.44Z"/><path class="cls-9" d="M424.22,309.25a6.36,6.36,0,0,1,4.18,3.95c3.81,5.67,5.73,12.35,9.64,18a8.09,8.09,0,0,1-.51,5.82C397.8,380.67,355.3,380.75,314,340.73c.25-7.49-.74-15.14,2.92-22.17,1.35-3.56,4.61-5.74,6.41-9,3.39-3.85,7.22-7.09,12.22-8.68,1.91,2.4,1,4.81,0,7.23-10.37,15-7.91,23.91,8.2,32.72,14.5,7.93,30.21,7.09,45.61,6.44,11.19-.46,27.63-18.36,29.86-29.89C419.94,314.1,420.06,310.44,424.22,309.25Z"/><path class="cls-10" d="M323.37,309.58c.14,3.5-2.82,5.43-4.14,8.18-5.36,6.48-2.5,15.56-7.05,22.3a31,31,0,0,0-.44,5.1c.18,23.42,4.7,27.22,28.93,24.18,7.36-.21,14.67-.35,22,.79,3.48.54,6.53,1.26,8.29,4.63.29,4.92-3.53,4.27-6.37,4.4a251.22,251.22,0,0,1-56-4.15c-7.15-1.28-9.59-7.08-9.78-13.82-.23-8,1.86-15.55,3.86-23.15C306.76,326.53,313.42,316.86,323.37,309.58Z"/><path class="cls-11" d="M302.62,338c1.44,7.26-2.66,14-1.88,21.27.84,7.88,3.13,13.5,12.55,14.26,19.12,1.53,38.11,5.71,57.39,1.84,5.72-4.35,12.24-3.13,18.65-2.68,4.63,2.09,9.55,1.55,14.41,1.61,3.9.27,8-.68,11.53,1.89a1.94,1.94,0,0,1,.23,3l.3-.07c-4.78,2.83-10,1.19-15,1.25-18.12.23-36.24,0-54.36.12-11.22.05-22.19-2.45-33.34-3-8.48-.16-15-3-16.59-12.36C297.49,355.85,297.17,346.29,302.62,338Z"/><path class="cls-12" d="M333.62,307.52l2-6.62,3.57-1.84c2.38-.54,4.21-2.64,6.84-2.47,4.39-.32,8.77.53,13.14.23,3.56-.24,6.17.75,6.76,4.43.69,4.27-2.17,6.34-5.76,7-6.65,1.22-13.2,3.21-20.06,3.13C337.48,310.83,335,310.09,333.62,307.52Z"/><path class="cls-13" d="M346.15,297.37l-7,1.69c8.92-8.22,21.23-5.86,31.44-10.08l4.16,2.32c1.89,2.22,1.91,4.33-.35,6.3-2.86.25-5.78,0-8.62.81C359.44,294.25,352.6,299.48,346.15,297.37Z"/><path class="cls-13" d="M384.82,276.62l-6,4.23c-4.35-2.69-10.59.65-14.17-4.46-40.38.7-80.77.06-121.15.37a14.07,14.07,0,0,1-12.21-6.16c-2.17-3.45-1.44-7.31-1.44-11q0-77.5,0-155c0-4.58-1.51-9.8,3.58-13.07,7.09,3,5.46,9.5,5.48,14.92.12,37.22.27,74.44-.75,111.66-.25,8.92-.44,18.15,3.9,26.52.24.55.22,1.25.63,1.55-1.18-41.89-.25-83.6-.52-125.31a74.81,74.81,0,0,0-1.15-15.31c-.64-9.26,5-11.5,12.73-11.35,11.05,1,22.17-1.92,33.2.57,60.9-1.42,121.82-1,182.73-1.08A172.21,172.21,0,0,1,494.3,94.9a13.42,13.42,0,0,1,5.88,1.33c1.82,1.42,2.71,3,.66,4.92-4.73,2.87-10,1.82-15,1.82q-108.76.12-217.54.09c-5.06,0-10.32-1-15,2a11,11,0,0,0-2.23,2.92c.95,44.07-1.69,88.11-.64,132.16.11,4.72-.83,9.66,2.56,13.77,4.63,4,10.27,3.21,15.68,3.21q105.62,0,211.23.07c5.06,0,10.29-1,15.1,1.6,1.36,9-6.21,7.62-10.19,7.19-11.26-1.22-22.35.51-33.51.41-21.06-.18-42.13.56-63.18-.47-3.62-.18-4.8,1.11-5.81,3.8-1.05.82-2.12,1.75-3.55.86a3.84,3.84,0,0,1-1.15-1.6,4.94,4.94,0,0,0,1.12,2.1c19.9-4.75,40.08-1.76,60.1-2.52,9.51-.37,19-1.59,28.38-2.15,14.52-.87,29.65-.18,43.51,6.25-3.43,3.28-7.74,2.06-11.71,2.07-34.45.1-68.91,0-103.36.13C392,274.92,388.06,273.81,384.82,276.62Z"/><path class="cls-14" d="M372.71,297.21c2-1.5,2-3.71,2.05-5.91l8.31-.38c15.71,1.64,29.75,7,41.15,18.33a13,13,0,0,0-1.26,6.84c.35,4.65-2.39,12-5.65,13.9-5.6,3.33-7.35,9.58-13.06,13.71-13.29,9.62-25.8,5.2-39.28,6.09-14.44,1-22.41-6.64-32.34-12.88-10.43-6.55-10.49-21.51,1-29.39,2.29,0,4.6,0,6.19,2.08,1.71,17.14,15.61,20.49,28.32,22.68,15.05,2.59,28.19-2.31,35.29-18.57-7.37-.55-13.61-12.06-21.65-.9-3.72,1-7.47-.49-11.2.07-7.21-4,.39-7.26.55-10.9C371.17,300.23,371.32,298.51,372.71,297.21Z"/><path class="cls-15" d="M234.83,91.28c-2.24,2.1-2.27,4.9-2.27,7.63q.23,85.77.51,171.55a2.36,2.36,0,0,1-2.21,2.14l-4.42-.14.12-47.21.36-2.13a215.19,215.19,0,0,0,0-44.89l-.42-88.5c8.5-7.75,19-9.5,29.62-8C275,84.32,294,82.83,312.82,83.15c49.76.86,99.55.28,149.32.36,3.64,0,7.6-1.16,10.81,1.77q-110.52.19-221,.46c-4.33,0-8.93-1.18-12.91,1.73A4.14,4.14,0,0,1,234.83,91.28Z"/><path class="cls-16" d="M230.86,272.6l2.21-2.14c4.2,4.32,9.49,4.59,15.11,4.58q52.76-.15,105.52,0c3.67,0,7.55-.93,11,1.31-3,3.27-6.93,2.32-10.57,2.33-36.46.06-72.92,0-109.38.08C239,278.82,233.75,278.57,230.86,272.6Z"/><path class="cls-17" d="M379,283q0,3-.08,6c-1.61-.29-3.37-.47-3.59-2.56C375,283.78,376.88,283.22,379,283Z"/><path class="cls-10" d="M403.41,377.16c-4.81-.43-9.91,1.64-14.38-1.69,4.17-8.05,11.67-5.63,18.31-5.86,8.72,1.64,17-1.24,25.16-3.27,7.06-1.75,5.59-8.38,6.38-13.61A14.89,14.89,0,0,0,436.72,342a9,9,0,0,1-.27-5.7q0-3.07-.07-6.15c-1.17-2.32.47-3.26,2.09-4.19,6.79,3.61,3.83,12,8.15,16.77,2.06,6.59,2.11,13.37,2.09,20.18,0,7.32-3.51,11.53-10.81,12.42-7.75.94-15.37,2.94-23.38,1.26A18.9,18.9,0,0,0,403.41,377.16Z"/><path class="cls-18" d="M403.41,377.16c10-3.19,20.62-2.56,30.91-3.52,8.81-.83,12.09-4.73,12.3-12.63.16-6.09,0-12.19,0-18.29,5.74,8.85,4.29,18.71,4,28.41-4.44,2.72-8.43,6.48-14.19,6.19-6.66,1.89-13.36,1.42-20.06.34Z"/><path class="cls-19" d="M438.47,326q-1,2.1-2.09,4.19c-7.83-3.21-5.47-11.22-8-16.94C433.79,315.84,435.78,321.17,438.47,326Z"/><path class="cls-20" d="M227,178.23c3.3,15,3.61,29.93,0,44.89Z"/><path class="cls-21" d="M495.9,97.81l-209.42,0c0-1,0-2.35,1.18-2.46,10.24-1,20.43-.23,28.68-.49-7.09,0-16.18,0-25.28,0-4.77,0-9.06-.54-8.71-6.94l223.92-.26a15.73,15.73,0,0,1,8.25,6.18c.66,2,1.33,4.09,2,6.14-2,3.43-.5,7.2-1,10.78-2.23,4.79-5.18,1-7.85.67a12,12,0,0,1-4.89-4.6,8.13,8.13,0,0,1-1.05-5.26l.21-1.34-1.8-2.36C498.71,97.31,497.31,94.53,495.9,97.81Z"/><path class="cls-22" d="M234.83,91.28,239,87.47l20.62.46c4.25,8,4.25,8-6,9.83-4,1-11.54-2.65-8.79,6.89-1.55,30.44-.08,60.9-.76,91.35-2,13.41-.35,26.9-1,40.33-.17,3.92,1.17,8.17-2,11.57-9.37-8.27-5.6-19.67-5.8-29.42C234.49,176.09,234.89,133.68,234.83,91.28Z"/><path class="cls-23" d="M253.67,97.76c6-.86,6-5.31,6-9.83l22.73-.06c2.58,4.89,6.83,6.11,12,6,8.73-.22,17.47-.06,26.21.57-11.23,3.41-23.07-1.27-34.12,3.35Z"/><path class="cls-24" d="M514.52,112.31c.63-4.13-1.37-8.69,2-12.38q.12,19.51.25,39c3.78,8.43,1.3,17.32,1.75,26,.43,8.43.09,16.9.09,25.35,0,24.46,0,48.92,0,73.39-.73,2.76,1.12,7.31-4.59,6.63-3.54-3.43-4.05-7.88-3.43-12.28,1.62-11.5.47-23,.87-34.54-1-11.16-1.38-22.33,0-33.5-.5-22.13-.75-44.26,0-66.39C511.56,119.6,510.47,115.24,514.52,112.31Z"/><path class="cls-25" d="M516.73,264.36q0-37,0-74c1.72-5.18.32-10.52.85-15.76.2-2-1-5.09,3-4.73l.09,43-.12,20.72c-2.18,8.07-.3,16.31-1.06,24.43C519.34,260.34,521.34,264,516.73,264.36Z"/><path class="cls-26" d="M520.64,169.87c-4.89,6.15.68,14.28-3.88,20.49q0-25.71,0-51.41c4.18-7.56.22-16.09,3.89-23.86Z"/><path class="cls-27" d="M514.52,93.79c-3.87-.57-5.69-3.87-8.25-6.18C510.82,87.27,514,88.69,514.52,93.79Z"/><path class="cls-28" d="M514.42,223.28q0,23.55,0,47.09c.53.49.67.91.4,1.26a1,1,0,0,1-.71.47l-3.4.61c-12.16-.54-24.51,1.16-36.26-3.93-6.11-2.65-10.45,3.8-16.37,3.9-26.56.44-53.15-1.49-79.68,1.1-3.08.3-3.68-1.18-1.31-3.4l1.29-.1c7.94-3.43-.09-4.87-1.26-8,35.93,0,71.51,0,107.08-.05,4,0,8.23,1.11,11.81-1.78.59-1.84,2.11-2.68,3.66-3.51,1.82-1.41,2.43-3.69,3.82-5.42,3.35-7.8,1.8-15.86,1.12-23.81-.26-3-1.52-5.84-.4-8.87A7,7,0,0,1,506,216.5c4.54-1.34,6.84,1.08,5.93,5C510.92,225.84,514.6,221.43,514.42,223.28Z"/><path class="cls-7" d="M514.1,272.1c.11-.57.21-1.15.31-1.73,2.2-1.45,2-3.83,2.32-6,3.66-6,1.13-12.67,1.88-19,.48-3.95-1.18-8.26,2-11.75q0,18.45,0,36.89C518.56,271.56,517.39,276.19,514.1,272.1Z"/><path class="cls-29" d="M436.45,336.29l2,4.11c0,12.27-6.48,22.05-17.65,23.52-6.66.87-7,6.84-11.16,9.34-6.89.58-14.07-1.48-20.63,2.21l-18.35-.06c-10.74-4.25-22-1.12-32.92-2.19-12.19-1.29-16.49-13.88-26.46-18.85-3.17-1.58-2.09-10,2.45-14.31l1.4.35c8.7,5.2,19.84,6.9,24.87,17.41a3.57,3.57,0,0,0,2.33,1.88c13,.86,24.39,11.3,38,7.24,8.57-2.56,16.64-6.73,25.91-6.22,3-13.36,21.66-9.21,24.92-22.37C431.84,335.79,434.51,336.54,436.45,336.29Z"/><path class="cls-29" d="M309,338.33c2.43-3.62,5.31-7.24,4.82-11.84s2.16-6.72,5.4-8.73c-2.31,7.38-.53,15.5-4.08,22.65h0C313.28,339.15,310.46,340.75,309,338.33Z"/><path class="cls-30" d="M309,338.33c2.26,0,4.55,0,6.11,2.07-1.86,5.65-8.83,11.12,4,14.7,7.5,2.09,10.83,13.46,18.62,18.12-8-.82-16-1.89-24-2.34-3.28-.18-3.53-1.3-4-4.19C308.06,357.23,308.52,347.8,309,338.33Z"/><path class="cls-31" d="M380.77,311.66c1.69-1.44,1.4-2.9,0-4.32s-1.95-3-.7-4.53a3.86,3.86,0,0,1,4.72-.8c7.45,3.23,14.86,6.55,22.32,9.78,2.33,1,4.55,2.24,4,5.13-.59,3.19-3,1.74-4.91,1.42s-3.8,0-3.92,2.08c-.74,12.13-11.4,12.81-19.07,14.77A34.65,34.65,0,0,1,359,333.14c-7.24-3.38-15.41-3.86-19.82-12-2.28-4.2-4.11-8,.65-11.57a53.87,53.87,0,0,1,19.51-4.22c2.49,0,5.58-.88,4.47-3.84-2.92-7.82-2,1.88-4,1-4.48-1.93-9.12-3.5-13.69-5.22,6.79-.59,13.54-6.69,20.37-.12a22.08,22.08,0,0,0,8.22,4.1c3.38,5-7.37,5-3.57,10.14C374.4,309.9,377.49,316,380.77,311.66Z"/><path class="cls-12" d="M374.74,301.34c-4.7,2.57-7.52,1.36-8.22-4.1,2.06-1.7,4.11-4.71,6.19,0Z"/><path class="cls-32" d="M247.5,258.09c-.19-30.26-.49-60.53-.53-90.79,0-21.08.3-42.17.47-63.25a5.2,5.2,0,0,1,5.78-1.21c8,7.06,8.2,17.18,10.35,26.55a9.3,9.3,0,0,1-.6,3.13c-4.7,13.1-1.56,26.59-1.94,39.89-.07,2.24,2.42,3,3.69,4.54,3.58,5.65,2.85,11.86,2,17.94a188.86,188.86,0,0,0-1.31,19.44c-.34,8.09,1,14.89,9.59,18.34a12.2,12.2,0,0,1,5.81,5.69c7.22,13.88,19.77,12.91,32.19,11.4,5.45-.67,10.64-1.63,16.2-.41,4.94,1.09,9.11-1.79,13.42-4,12.39-6.33,21.57-3.5,25.87,7.5.88,2.27.6,3.95-1.83,4.95-34.51.86-69,.35-103.52.26-10.6,0-12.76-4.92-12.64-17.46.25-26.05,0-52.11-.6-78.16-.84-1.33-1.61.93-.52.1.48-.37.8-.16.8.62.16,31.3.71,62.6.45,93.9A2.09,2.09,0,0,1,247.5,258.09Z"/><path class="cls-33" d="M247.5,258.09a10.65,10.65,0,0,1,1.93-.32c4.42-4,9.19-.45,13.76-.48,33.15-.21,66.4,1.56,99.42-.54,39.6-2.53,79.13-.62,118.68-1.58,15-.37,15.73-.84,15.74-15.42q0-36.39,0-72.78c0-16,.2-31.95,0-47.93-.19-11.81-1.89-13.3-13.6-14q-12.42,0-24.83,0-29.71,0-59.43,0-63.35,0-126.67,0c-8.52,0-16.93-.23-25.06-3.08,1-3.33,3.78-2.31,6-2.31q124.29.18,248.56.44l-.14,0c2.79,6.31,3.59,13,3.47,19.8-.59,33.42.67,66.84-.73,100.28-.52,12.49,1.89,25.09-1.35,37.54-.33,1.27-1.18,1.5-1.87,2.14l-5.29.52q-90.3-.24-180.59-.46c-19.49,0-39,.13-58.49,0C253.77,260,250,261.69,247.5,258.09Z"/><path class="cls-34" d="M243.17,196.61c0-27,0-54.09.1-81.13,0-3.63-1.23-7.58,1.61-10.83q.06,71.34.1,142.66c0,3,.59,6.23-1.74,8.81A356.19,356.19,0,0,1,243.17,196.61Z"/><path class="cls-35" d="M247.39,102.05l152.05.32a2.55,2.55,0,0,1-1,3.22c-2.22,1.61-4.8,1.48-7.34,1.52a715.07,715.07,0,0,1-80.19.39c-14.37-1.31-28.66,1.75-43,.81-5.14-.34-10.34,0-14.35-4.09l-6.05-.17C247.42,103.38,247.4,102.72,247.39,102.05Z"/><path class="cls-36" d="M243.17,196.61q0,29.76.07,59.51c-4.14-1.86-1.2-5.53-2.1-8.21,0-13.55,0-27.1.07-40.65C241.24,203.64,240.19,199.73,243.17,196.61Z"/><path class="cls-37" d="M378.37,270.28a9.1,9.1,0,0,0-1.29.1l-6.82-2.92C373.76,266.35,377.53,264.44,378.37,270.28Z"/><path class="cls-38" d="M495.9,97.81l-4-3.14c4.06-1.79,6.37.14,8.26,3.15Z"/><path class="cls-39" d="M380.77,311.66c-.07,1.83,1.18,4.82-.85,5.19-4,.74-5.57-3.91-8.76-5.37C374.43,307.9,377.6,309.59,380.77,311.66Z"/><path class="cls-40" d="M409.66,373.26c.89-7.89,4.28-11.38,13.12-13.1,8.65-1.69,12-11.8,15.69-19.76,7,8.62,4.63,17.44,0,25.93-4.33,8-13.47,3.46-19.84,6.71C416.26,374.28,412.7,373.26,409.66,373.26Z"/><path class="cls-27" d="M514.52,112.31q0,39-.08,78.07c-2.26,2.84-4.55,3.91-4.93-.95a111.47,111.47,0,0,1-.11-14.64c-1.54,8.62,1.71,19.33,1,30.11-.32,4.47-.58,8.85-4.08,12.2h0a1.84,1.84,0,0,1-2.91-1.11c-.35-17.64-.11-35.29-.13-52.93a263.77,263.77,0,0,0,1.93-42.88c-.12-3.76-1-7.62,3.16-10C511.27,108.27,512.69,110.92,514.52,112.31Z"/><path class="cls-41" d="M504.34,161.5q0,27.8,0,55.57c2.06,12.33,3.77,24.66,0,37-.2,2.39,0,4.95-3,5.91a17.9,17.9,0,0,0,.92-4q-.18-77.88-.44-155.78c2.68,1.2,2.35,3.7,2.57,6,3,12.65,2.17,25.53,1.52,38.27C505.57,150.08,506.34,156,504.34,161.5Z"/><path class="cls-42" d="M504.34,161.5V106.17l4,4.06c-.84,14.87,1.47,29.87-2,44.64C505.81,157.15,506.27,159.66,504.34,161.5Z"/><path class="cls-43" d="M506.27,217.1c-1.17-15.54,4-30.7,4.11-46.31,0,5,0,10.05,0,15.08,0,2.62-.63,6,4,4.51q0,16.45,0,32.9l-3,3.9C508.92,224.08,512.48,218,506.27,217.1Z"/><path class="cls-43" d="M504.32,254.05q0-18.48,0-37c.64,0,1.29,0,1.94,0,1.37,9.59,2.72,19.18,2.06,28.92C508.11,249.28,508.94,253,504.32,254.05Z"/><path class="cls-44" d="M311,104.09l82.14,0c1.66,1-2,3.76.57,3.49,6.95-.73,11.39,3.73,16.37,7,3.08,2,5.32,4.77,9.85,3.64s6.56,2.54,8.22,6a61.58,61.58,0,0,1,5.37,19.48c-5.78,12.88-10.73,26.37-24.6,33.27-7.67-5.89-8.8-14-7.79-22.88.24-2.13,2.69-5.19-1.17-5.84-7.87-1.32-12.91-7.53-19.48-10.5-9.56-4.31-19.17-9.54-31.2-6.08-8.65,2.49-18.34.89-27.54-.48-11.83-1.76-21.79.88-27.72,12.44-1.27,2.47-2.92,5-5.57,5.82-10,3.23-11,11.09-10.77,19.76.42,14.64-1.6,29.44,2.95,43.82.81,2.55.37,6.21,4,6.23,12.51.06,20.53,10.25,31.6,13.66,4.34,1.33,7.33,2.27,11.06-1.05,6.19-5.5,14.6-5.47,22.06-7.63,13.95-4.06,26-9.52,31.16-24.88,2.65-7.93,8-8.43,14.51-2.65a9.76,9.76,0,0,1,.21,3c-1.3,5.38-5,9.45-7.78,14a39,39,0,0,0-6.3,8.72c-.94,1.55-1.8,3.13-2.58,4.76-1.41,3.85-4.13,7-5.67,10.83,7.32,5,16.82,4.67,23.92,10a5.07,5.07,0,0,0,4.8.69c4.19-1.25,9.25-1.69,9.89,3.52s-5.18,3.77-8.4,4.86c-11.52-.78-23.1,1.07-34.56-1.05-2.77-2.59-7.84-3.12-7.14-8.85.22-1.76-14.57-1.34-17,.91-6,5.45-12.18,5.63-20.29,4.4-7.37-1.11-15.59,1.68-23.61,1.62-7.79-.06-14.08-.38-18.79-8.89-2.66-4.81-6.22-11.53-14.62-12.25-4.15-.36-5.15-6.23-5.52-11.05-1.11-14.77,2.86-29.24,2.18-43.95-.44-.51-1.17-1-1.27-1.57-2.4-15.19-5.41-30.38-.78-45.7v-2.05c13-10.64,24.67-23.71,43.77-22.47A6.66,6.66,0,0,0,311,104.09Z"/><path class="cls-45" d="M368.59,256.11l37,0c12.09-4.95,24.83-3.89,37.42-4.11,13.26,2.71,26.56,0,39.83-.16,8.69-.12,11-8.5,11.24-14.54.31-9.17,1.1-18.39.89-27.62-.76-14.36-2.36-28.73,1.48-42.93a2.62,2.62,0,0,1,3.34-1c.17,28,.22,56.05.61,84.08.08,6-1.4,8.42-8,8.39q-121.5-.45-243-.45V158.36l2,0c0,15.16.68,30.36-.21,45.47-.82,13.94,2.53,27.62.87,41.75-.74,6.33,7,10.64,14.78,10.62C300.78,256.08,334.69,256.12,368.59,256.11Z"/><path class="cls-46" d="M311,104.09c-4.57,8.7-13.78,5.84-20.84,7.78-5,1.37-10.49,3.51-11.71,7.11-3.05,9-10.1,8.48-16.78,9.75-5-7.41-4.8-16.57-8.22-24.51Z"/><path class="cls-46" d="M261.71,130.78c-1.34,15.85,2.83,31.45,2.05,47.27-2.84-.13-5.9-.5-5.9-4.1q0-19.78.54-39.58C258.44,133.15,260.56,132,261.71,130.78Z"/><path class="cls-47" d="M499.79,165.75l-1.72,0a6.3,6.3,0,0,1-2.28-2.67c-.94-2.87-.71-5.85-.81-8.79,0-9.23,0-18.46,0-27.67-1.47-6.29,2.49-13.68-3.81-19-2.55-.28-5.06-.66-7.09-2.42a2.05,2.05,0,0,1-.35-2.78c1.35-.09,2.72-.06,4-.28,9.45-1.61,13.16,1.51,12.56,11.82C499.34,131.16,499.89,148.48,499.79,165.75Z"/><path class="cls-48" d="M399.44,104q0-.81,0-1.62l59.45-.16a3.77,3.77,0,0,1-1.54,3.47c-13.38,5.24-27.31,1.66-41,2.44C410.52,108.45,404.06,109.52,399.44,104Z"/><path class="cls-49" d="M458.86,104a9,9,0,0,0,0-1.8l24.84.19c0,.54,0,1.09,0,1.63-2.5,3.44-6.1,3.49-9.81,3.16-4.65-.46-9.63,1.55-13.92-1.77C459.59,105,459.23,104.48,458.86,104Z"/><path class="cls-50" d="M399.44,104l59.42,0,.43.18c2.54,4.27-.38,7.14-2.75,10a55.19,55.19,0,0,0-7.44,11,53.64,53.64,0,0,1-6.54,9.22c-2.93,2.25-4.48,5.9-7.78,7.78a7,7,0,0,1-2.58.93c-4.06-5.54-4.53-12.44-7.05-18.58-1.53-3.72-2.55-6.89-6.51-2-1.17,1.45-3.22,4.07-4.74,1.52-6.58-11-16.89-14.43-29.11-14.38,1.41-5.07,6.66-2.41,8.39-5.59Z"/><path class="cls-51" d="M393.24,198.61c-5.13-7-8.38-3.16-10,2.32-4.4,14.62-17.34,23.43-31.38,27.2-7.82,2.09-18.81-.95-24.22,9.45-1.8,3.46-7.86,3.5-10.17,1.08-3.65-3.84-8.84-3.56-12-5.91-7.8-5.74-14.79-11.55-25.35-9.39-.81.17-2.93-2.21-3.14-3.61a274,274,0,0,1-2.27-62.36c.26-3.38,2.22-7.73,5.35-8.22,7.77-1.23,10.51-6.84,14-12.49,5.8-9.31,15.43-10.5,25.11-9.76,14,1.07,28.17,5.87,41.45-3a2.25,2.25,0,0,1,.9-.37c5.88,8.79,18.7,5.8,24.07,12.46s11.6,7.26,18.22,9c2.22.58,5.26-.23,6.1,2.64.78,2.66-2,3-3.66,4-4.13,2.62-3,6.73-2.08,10.16,1.34,4.85,3.62,9.44,5.5,14.14,1.38,1.81.61,3.58-.05,5.37-2.45,4.48-4.89,9-8.34,12.81C398.67,195.82,397.49,200,393.24,198.61Z"/><path class="cls-52" d="M446.52,124.56c1.67-8.4,10.17-12.54,12.76-20.37l14.09-.11c8.38,5.3,9.37,13.16,10.45,22.52,1.61,14.05.27,27.67-.75,41.47-.31,4.2-2.16,7.89-3.7,11.67-2.82,6.92-6.59,13.52-5.41,21.49a8,8,0,0,1-1.44,5.89C463.18,219,452.83,231,437.43,233.34c-15.55,2.38-31.64,2.14-46.77-5.12C381.9,224,380.5,221.79,385,213a44.24,44.24,0,0,1,8.21-12.34c.4.27.8.55,1.2.81,5.81,11.24,6.37,11.58,19.12,9.23,9.26-1.71,19.18,1.4,27.95-4.34,3.2-2.1,6.68-3.66,7.86-7.56,3.77-12.53,11.9-23.34,14-36.59,1.81-11.53,3.78-22.91-1.85-33.92-1.93-3.78-4.12-7.61-9.35-4C450.3,125.13,448.46,125.83,446.52,124.56Z"/><path class="cls-53" d="M385,213c-3.13,7.37.27,10.84,7.26,12.12,1.67.3,3.91-.21,5,.71,12.12,10.26,26.73,1,39.61,5.13,1.26.4,3.1-1,4.66-1.57,10.18-3.7,15.49-14,25.14-18.63,2.35-1.13,4.84-6.47,4.06-8.83-4-12.12,5.69-20.12,7.92-30.2,1.91-8.62,3.47-17.62,3.07-26.35-.44-9.43-3.4-18.83-1.81-28.36.78-4.67-2.75-4.7-4.93-6.38s-6-3.16-1.62-6.55l10.33,0,8.16.09c4.16,8.37,2.55,17.42,3.08,26.22-.27,11.09.54,21.84-5,32.75-4.1,8.08-1.28,18.7-2.94,28.19-2.15,12.29-7.11,22-14.6,32.45-13,18.16-29.34,20.05-48.26,18.59-5.9-.46-10.5,3.83-17.52,1.87-8-2.24-15.05-5.73-22.38-9.09-6.53-3-8.54-7.34-5.4-13.89C380.51,218.17,381.44,214.59,385,213Z"/><path class="cls-54" d="M498,163.66l.06,2.07L498,210.88c-4.62,3.41-4.11,9.12-5.68,13.72-6.88,20.23-21.26,29.51-41.9,30.52-2,.1-4.1-.56-5.81,1h-39c1.45-1.27,3.93-2.41,4.11-3.83.23-1.83-2.52-2.59-3.95-1.8-10.56,5.86-17-5.74-26.12-6.1-1.52-.06-3-2.76-5.33-1.77-2.17.9-4.48,5.2-6.45,1.11-1-2.13.15-6.61,1.94-8.55,2.83-3.05,4.55-6.69,7-9.88,3.51,12.16,14.94,15,24.37,17.34,13.83,3.43,28.6,1.29,42.89.73,9-.36,18.06-3.3,22.07-13.3a12.28,12.28,0,0,1,3.66-4.88c15.09-12.36,17.92-29,17.11-47.25-.26-6,0-12.47,6.8-15.75A5.34,5.34,0,0,1,498,163.66Z"/><path class="cls-55" d="M493.94,163.66c-3.42,6-9.33,11.52-2.83,19.13.7.82-.26,3.25-.73,4.86C486,203,484.83,219.74,469.48,230c-4,2.68-3.85,9.05-9.59,12.22-16.42,9.06-33.14,4.15-49.88,3.43-8.52-.37-16.58-1.25-24.24-5.8-5.9-3.5-9.66-7.38-9-14.51l2.06-4.1c-.23,5.14.68,8.66,6.77,10.75,7.7,2.64,13.82,8.69,23,9,3.66.13,6.35,2,9.42-1.62,2.27-2.65,5.61-1.16,8.67-.58,12.54,2.39,26.85,1.42,34.62-7.05,11.31-12.33,25.15-25.32,23.26-45.22-1.83-19.15,10.06-36.47,7.32-55.73,2.93-1.16,1-7.16,6.13-6.14q0,15.4,0,30.8C495.23,157.47,496.75,161.64,493.94,163.66Z"/><path class="cls-56" d="M407.61,180.08c.67-1.37,1.35-2.73,2-4.1,8.66-10.18,15.29-21.75,22.57-32.88q.21-.94.33-1.89c3-.2,4.94-3.29,8.15-2.87,7,3.46,8.75,8.89,6.66,16.22-1.86,6.58-2.35,13.46-3.51,20.19-2.19,12.74-7.88,18.62-20.39,21.11-2.7.53-5.43.69-8.15,1-4.43.54-9.5,2.13-12.72-1.48-3.79-4.25,2.66-6.81,3.3-10.59C406.14,183.24,406.41,181.42,407.61,180.08Z"/><path class="cls-52" d="M393.24,198.61l6.16-6.18c2,2.6,1.44,5.08-.3,7.53-1.75,1.67-3.62,2.45-5.81.75l-.06-.06C393.23,200,393.24,199.29,393.24,198.61Z"/><path class="cls-57" d="M444.62,256.14c10.57-1.24,19.21-7.76,29.17-10.85,5.12-1.59,8.9-7.14,11.14-12.46,3.52-8.36,8.43-16.33,8-25.82,4.11-1.19,2.84,3.42,5.1,3.87,0,7.83-.79,15.76.26,23.45s-5.75,12.39-5.91,19.58c-.08,3.46-4.43,2.13-6.91,2.16C471.84,256.2,458.23,256.13,444.62,256.14Z"/><path class="cls-58" d="M498,124.64c-3.34.75.3,8.47-6.13,6.14.48-8.89-3.25-17.77,0-26.66,4.8-.28,6.34,2.32,6.2,6.71C497.92,115.43,498,120,498,124.64Z"/><path class="cls-58" d="M493.94,163.66c.24-3.3-.92-7.29,4.08-8.22q0,4.11,0,8.22Z"/><path class="cls-59" d="M397.36,198.6l2-6.17,8.21-12.35c.75,5.12-3.25,8.78-4.49,13.94a69.07,69.07,0,0,0,26.27-3.34c7.05-2.18,9.83-8,11-14.77,1.48-8.51,0-17.28,4.83-25.6,2.23-3.84-3-8.32-6.77-11.31-1.12-2.66,1.05-4.29,2-6.31l6.09-8.12,4.26-2c4.6,0,4.16,3.78,4.55,6.55a151,151,0,0,1,.54,41.7C452.72,193.78,438,205.67,414,206a38.48,38.48,0,0,0-6,.92C401.37,208,397.3,206,397.36,198.6Z"/><path class="cls-60" d="M440.43,132.69l-2,6.31c-1.18,2.88-3.13,3.68-5.92,2.21Z"/><path class="cls-61" d="M364.39,183.61a91.64,91.64,0,0,1-.06,10.22c-.76,6.62-4.8,10.69-11.15,7.93-9.1-3.95-18.08-4.13-27.64-3.36-8.28.68-12.59-2.83-12.72-12.59-.38-26.79-.15-27.61,26.26-29.55C353.36,155.2,364.46,167.17,364.39,183.61Z"/><path class="cls-60" d="M397.36,198.6c2.27,1.47,2.52,6.74,5.13,5.59,11.3-5,25.59,2.8,34.83-6.68,7.75-7.94,15.1-17.51,15.41-29.7.38-15.1.72-30.26-2-45.25,3.28-7.6,8.63-5.64,11.38-.82a51,51,0,0,1,7,24c.43,12.15-4.4,22.94-7.07,33.88-2.15,8.8-8.32,17.6-12.51,26.52-1.89,4-7.27,2.89-10.81,5-10.91,6.63-23.63,1.18-35.58,4.6-6.5,1.86-11.8-6.42-9.95-15.07Z"/><rect class="cls-62" width="749" height="460"/><path class="cls-63" d="M62.57,177.12v6.63h5.32v5.91H62.57v13.78c0,2.2,1.08,3.25,3.39,3.25a12.54,12.54,0,0,0,1.9-.14v5.78a17.81,17.81,0,0,1-3.73.32c-6.77,0-9.4-2.26-9.4-7.87V189.66h-4v-5.91h4v-6.63Z"/><path class="cls-63" d="M98.05,203.73c-.86,5.64-6,9.43-13.13,9.43-8.86,0-14.18-5.67-14.18-14.88s5.37-15.14,13.88-15.14,13.67,5.66,13.67,14.42V200H78.45v.48c0,4.11,2.6,6.93,6.6,6.93,2.88,0,5.08-1.42,5.8-3.63Zm-19.52-8.59H90.75c-.17-3.68-2.56-6.2-6-6.2S78.79,191.54,78.53,195.14Z"/><path class="cls-63" d="M102.32,183.75h7.57V189h.16a8.46,8.46,0,0,1,8.22-5.74c4.16,0,7.06,2.14,8,5.9h.16a9.13,9.13,0,0,1,9-5.9c5.63,0,9.42,3.86,9.42,9.66v19.66H137v-17.7c0-3.33-1.66-5.15-4.7-5.15s-4.94,2.17-4.94,5.37v17.48H119.8V194.6c0-3.09-1.74-4.91-4.64-4.91s-5,2.25-5,5.48v17.37h-7.84Z"/><path class="cls-63" d="M148.7,204.27c0-5.24,4-8.27,11.2-8.7l7.25-.43v-1.91c0-2.68-1.88-4.24-4.84-4.24s-4.77,1.45-5.15,3.57H150c.29-5.58,5-9.42,12.67-9.42,7.39,0,12.2,3.81,12.2,9.61v19.79h-7.58v-4.4h-.16a9.9,9.9,0,0,1-8.78,4.86C152.86,213,148.7,209.45,148.7,204.27ZM167.15,202v-2.1l-6.07.38c-2.93.21-4.59,1.53-4.59,3.57s1.77,3.49,4.43,3.49C164.33,207.33,167.15,205.1,167.15,202Z"/><path class="cls-63" d="M180.68,200.22v-6.85h17.65v6.85Z"/><path class="cls-63" d="M203.89,193.1c0-12.52,6-20.2,15.82-20.2s15.79,7.66,15.79,20.17-6,20.33-15.79,20.33S203.89,205.64,203.89,193.1Zm23.36,0c0-8.84-2.79-13.7-7.54-13.7s-7.58,4.89-7.58,13.7,2.79,13.8,7.58,13.8S227.25,202,227.25,193.1Z"/><path class="cls-63" d="M254.05,172.93c8.3,0,13.78,4.83,13.78,11.28,0,4.75-2.34,7.68-8.89,13.94l-8.14,7.79v.16h17.57v6.44H240.2V207l13.72-13c4.91-4.73,6-6.58,6-9.27,0-3.12-2.4-5.48-5.89-5.48-3.86,0-6.79,2.61-6.79,6.34h-7.52C239.74,178.11,245.65,172.93,254.05,172.93Z"/><path class="cls-63" d="M269.39,221.27v-5.85h25.48v5.85Z"/><path class="cls-63" d="M296,214.58h7.68c.62,2,2.87,3.36,5.85,3.36,4.06,0,6.32-2.26,6.32-5.59v-5h-.17c-1.34,3.06-4.72,5.15-8.89,5.15-7,0-11.68-5.42-11.68-14.42S299.65,183.3,307,183.3a9.45,9.45,0,0,1,8.89,5.48H316v-5h7.74v28.39c0,6.87-5.75,11.25-14.37,11.25C301.78,223.39,296.65,219.71,296,214.58Zm19.87-16.49c0-5.18-2.5-8.51-6.42-8.51s-6.31,3.28-6.31,8.51,2.42,8.33,6.31,8.33S315.9,203.3,315.9,198.09Z"/><path class="cls-63" d="M328.82,183.75h7.57v5.19h.16c1-3.66,3.47-5.64,6.85-5.64a8.1,8.1,0,0,1,2.23.29v6.9a8.28,8.28,0,0,0-2.85-.45c-3.86,0-6.12,2.36-6.12,6.42v16.08h-7.84Z"/><path class="cls-63" d="M375.41,212.54h-7.57v-5.18h-.16c-1.42,3.62-4.27,5.72-8.62,5.72-6.23,0-10.37-4.06-10.37-10.77V183.75h7.84v16.92c0,3.84,1.91,5.88,5.38,5.88s5.66-2.49,5.66-6.31V183.75h7.84Z"/><path class="cls-63" d="M380.52,183.75h7.57v5.13h.16c1.53-3.57,4.57-5.66,9-5.66,6.39,0,10,4,10,10.77v18.55H399.4V195.62c0-3.76-1.78-5.9-5.29-5.9s-5.75,2.57-5.75,6.31v16.51h-7.84Z"/><path class="cls-63" d="M411.16,198.09c0-9.13,4.56-14.79,11.79-14.79a9.26,9.26,0,0,1,8.78,5.39h.16v-14.9h7.84v38.75H432V207.6h-.14a9.48,9.48,0,0,1-9,5.4C415.7,213,411.16,207.31,411.16,198.09Zm8,.06c0,5.29,2.42,8.54,6.36,8.54s6.39-3.28,6.39-8.54-2.49-8.57-6.39-8.57S419.19,192.88,419.19,198.15Z"/><path class="cls-63" d="M445.16,173.79H453v38.75h-7.84Z"/><path class="cls-63" d="M478.81,207.68h-.24c-2,3.3-5.62,5.32-10.48,5.32-6.79,0-11-3.55-11-8.73s4-8.24,11.38-8.65l7.15-.4v-1.58c0-2.66-2.18-4.65-5.16-4.65-2.82,0-4.89,1.48-5.13,3.6h-7.06c.27-5.61,5-9.45,12-9.45,4.6,0,8,1.69,9.59,4.32h.22c1.93-2.74,5.15-4.32,9.48-4.32,7.76,0,12.94,5.53,12.94,14.42v2.36h-19.6v.51c0,4.08,2.63,6.93,6.55,6.93a5.6,5.6,0,0,0,5.64-3.63h7.2c-.86,5.64-6,9.43-12.95,9.43C484.55,213.16,480.63,211,478.81,207.68ZM475.64,202v-2l-6.21.41c-3,.21-4.83,1.45-4.83,3.49s1.93,3.57,4.59,3.57C472.76,207.44,475.64,204.94,475.64,202Zm7.36-6.85h12c-.13-3.73-2.41-6.2-5.82-6.2S483.27,191.51,483,195.14Z"/><path class="cls-63" d="M506.41,214.58h7.68c.62,2,2.88,3.36,5.86,3.36,4,0,6.31-2.26,6.31-5.59v-5h-.16c-1.34,3.06-4.73,5.15-8.89,5.15-7,0-11.68-5.42-11.68-14.42S510,183.3,517.34,183.3a9.43,9.43,0,0,1,8.89,5.48h.14v-5h7.73v28.39c0,6.87-5.75,11.25-14.37,11.25C512.16,223.39,507,219.71,506.41,214.58Zm19.88-16.49c0-5.18-2.5-8.51-6.42-8.51s-6.31,3.28-6.31,8.51,2.41,8.33,6.31,8.33S526.29,203.3,526.29,198.09Z"/><path class="cls-63" d="M539,214.58h7.68c.62,2,2.88,3.36,5.86,3.36,4,0,6.31-2.26,6.31-5.59v-5h-.16c-1.34,3.06-4.73,5.15-8.89,5.15-7,0-11.68-5.42-11.68-14.42S542.67,183.3,550,183.3a9.43,9.43,0,0,1,8.89,5.48H559v-5h7.73v28.39c0,6.87-5.75,11.25-14.37,11.25C544.79,223.39,539.66,219.71,539,214.58Zm19.88-16.49c0-5.18-2.5-8.51-6.42-8.51s-6.31,3.28-6.31,8.51,2.41,8.33,6.31,8.33S558.92,203.3,558.92,198.09Z"/><path class="cls-63" d="M598.1,203.73c-.86,5.64-6,9.43-13.13,9.43-8.87,0-14.18-5.67-14.18-14.88s5.37-15.14,13.88-15.14,13.67,5.66,13.67,14.42V200H578.49v.48c0,4.11,2.61,6.93,6.61,6.93,2.87,0,5.08-1.42,5.8-3.63Zm-19.52-8.59h12.21c-.16-3.68-2.55-6.2-6-6.2S578.84,191.54,578.58,195.14Z"/><path class="cls-63" d="M602.37,183.75h7.57v5.13h.16c1.53-3.57,4.57-5.66,9-5.66,6.39,0,10,4,10,10.77v18.55h-7.84V195.62c0-3.76-1.77-5.9-5.29-5.9s-5.75,2.57-5.75,6.31v16.51h-7.84Z"/><path class="cls-63" d="M633,198.09c0-9.13,4.57-14.79,11.79-14.79a9.25,9.25,0,0,1,8.78,5.39h.16v-14.9h7.84v38.75h-7.73V207.6h-.13a9.5,9.5,0,0,1-9,5.4C637.55,213,633,207.31,633,198.09Zm8,.06c0,5.29,2.42,8.54,6.37,8.54s6.39-3.28,6.39-8.54-2.5-8.57-6.39-8.57S641,192.88,641,198.15Z"/><path class="cls-63" d="M693.09,203.73c-.86,5.64-6,9.43-13.14,9.43-8.86,0-14.18-5.67-14.18-14.88s5.38-15.14,13.89-15.14,13.67,5.66,13.67,14.42V200H673.48v.48c0,4.11,2.61,6.93,6.61,6.93,2.87,0,5.07-1.42,5.8-3.63Zm-19.53-8.59h12.22c-.16-3.68-2.55-6.2-6-6.2S673.83,191.54,673.56,195.14Z"/><path class="cls-63" d="M52.58,241.83a4.09,4.09,0,1,1,4.09,4A4,4,0,0,1,52.58,241.83Zm.19,7.92h7.84v28.79H52.77Z"/><path class="cls-63" d="M65.82,249.75H73.4v5.13h.16c1.53-3.57,4.56-5.66,9-5.66,6.4,0,10,4,10,10.77v18.55H84.7V261.62c0-3.76-1.77-5.9-5.29-5.9s-5.75,2.57-5.75,6.31v16.51H65.82Z"/><path class="cls-63" d="M96.46,264.09c0-9.13,4.57-14.79,11.79-14.79a9.27,9.27,0,0,1,8.79,5.39h.16v-14.9H125v38.75H117.3V273.6h-.13a9.5,9.5,0,0,1-9,5.4C101,279,96.46,273.31,96.46,264.09Zm8,.06c0,5.29,2.42,8.54,6.37,8.54s6.39-3.28,6.39-8.54-2.5-8.57-6.39-8.57S104.49,258.88,104.49,264.15Z"/><path class="cls-63" d="M130.46,239.79h7.71v15.09h.16c1.53-3.62,4.68-5.66,9-5.66,6.39,0,10.05,4.13,10.05,10.79v18.53h-7.85V261.68c0-3.71-1.82-6-5.39-6s-5.88,2.6-5.88,6.39v16.43h-7.85Z"/><path class="cls-63" d="M161.38,264.12c0-9.32,5.63-15,14.25-15s14.27,5.64,14.27,15-5.56,15-14.27,15S161.38,273.57,161.38,264.12Zm20.54,0c0-5.72-2.47-9-6.29-9s-6.31,3.31-6.31,9,2.45,9,6.31,9S181.92,269.92,181.92,264.15Z"/><path class="cls-63" d="M194.11,239.79H202v38.75h-7.84Z"/><path class="cls-63" d="M206.2,264.09c0-9.13,4.56-14.79,11.79-14.79a9.26,9.26,0,0,1,8.78,5.39h.16v-14.9h7.84v38.75H227V273.6h-.14a9.48,9.48,0,0,1-9,5.4C210.74,279,206.2,273.31,206.2,264.09Zm8,.06c0,5.29,2.41,8.54,6.36,8.54s6.39-3.28,6.39-8.54-2.49-8.57-6.39-8.57S214.23,258.88,214.23,264.15Z"/></svg>
