<svg id="Layer_1" data-name="Layer 1" xmlns="http://www.w3.org/2000/svg" width="749" height="460" viewBox="0 0 749 460"><defs><style>.cls-1,.cls-120{opacity:0.7;}.cls-2{fill:#f7f3d3;}.cls-3{fill:#917850;}.cls-4{fill:#a3926b;}.cls-5{fill:#bcad8a;}.cls-6{fill:#a18e6b;}.cls-7{fill:#2f271a;}.cls-8{fill:#a69472;}.cls-9{fill:#f2e6b5;}.cls-10{fill:#f2dfa3;}.cls-11{fill:#f2ebc2;}.cls-12{fill:#e4cb8f;}.cls-13{fill:#ecd39a;}.cls-14{fill:#bfad7f;}.cls-15{fill:#d7c398;}.cls-16{fill:#b2a27e;}.cls-17{fill:#eeebd6;}.cls-18{fill:#3e3e3e;}.cls-19{fill:#9a7e51;}.cls-20{fill:#826436;}.cls-21{fill:#8c7243;}.cls-22{fill:#715738;}.cls-23{fill:#524e49;}.cls-24{fill:#ba9c63;}.cls-25{fill:#c3a669;}.cls-26{fill:#d4b67b;}.cls-27{fill:#ddc388;}.cls-28{fill:#d1b578;}.cls-29{fill:#bc9f69;}.cls-30{fill:#b1935d;}.cls-31{fill:#5a4c33;}.cls-32{fill:#f1dfad;}.cls-33{fill:#eee8c5;}.cls-34{fill:#e5d49a;}.cls-35{fill:#dfc889;}.cls-36{fill:#e1ce98;}.cls-37{fill:#e1cb8e;}.cls-38{fill:#dbc185;}.cls-39{fill:#ead5a9;}.cls-40{fill:#daba75;}.cls-41{fill:#ad9c69;}.cls-42{fill:#c8b88d;}.cls-43{fill:#9d8353;}.cls-44{fill:#94764b;}.cls-45{fill:#977b4f;}.cls-46{fill:#8c6f43;}.cls-47{fill:#866b3a;}.cls-48{fill:#402b0b;}.cls-49{fill:#4d381a;}.cls-50{fill:#ac8e57;}.cls-51{fill:#ead5a2;}.cls-52{fill:#bfa264;}.cls-53{fill:#b5975c;}.cls-54{fill:#806c4a;}.cls-55{fill:#bda779;}.cls-56{fill:#d3b576;}.cls-57{fill:#cbaf72;}.cls-58{fill:#6b593d;}.cls-59{fill:#584830;}.cls-60{fill:#c9ac69;}.cls-61{fill:#d0b36f;}.cls-62{fill:#c3a667;}.cls-63{fill:#b69761;}.cls-64{fill:#b79d62;}.cls-65{fill:#bfa265;}.cls-66{fill:#bb9e62;}.cls-67{fill:#d5ba72;}.cls-68{fill:#1d1512;}.cls-69{fill:#1e100a;}.cls-70{fill:#30231b;}.cls-71{fill:#271c16;}.cls-72{fill:#817557;}.cls-73{fill:#574724;}.cls-74{fill:#cab376;}.cls-75{fill:#271e12;}.cls-76{fill:#c0a15c;}.cls-77{fill:#a3732d;}.cls-78{fill:#c6a052;}.cls-79{fill:#a59156;}.cls-80{fill:#cfb26c;}.cls-81{fill:#2c2212;}.cls-82{fill:#e1cea3;}.cls-83{fill:#dec89c;}.cls-84{fill:#20140a;}.cls-85{fill:#c2a768;}.cls-86{fill:#cfbb8e;}.cls-87{fill:#1e130c;}.cls-88{fill:#292010;}.cls-89{fill:#362308;}.cls-90{fill:#8c7445;}.cls-91{fill:#3b2c19;}.cls-92{fill:#e2ce97;}.cls-93{fill:#211308;}.cls-94{fill:#9a886c;}.cls-95{fill:#130400;}.cls-96{fill:#836b2f;}.cls-97{fill:#2d1e11;}.cls-98{fill:#68522d;}.cls-99{fill:#392928;}.cls-100{fill:#41302c;}.cls-101{fill:#312523;}.cls-102{fill:#968353;}.cls-103{fill:#d1bf8f;}.cls-104{fill:#c1a562;}.cls-105{fill:#af904b;}.cls-106{fill:#bfa96f;}.cls-107{fill:#251b19;}.cls-108{fill:#281e1c;}.cls-109{fill:#1f1715;}.cls-110{fill:#2d2220;}.cls-111{fill:#352a28;}.cls-112{fill:#af9b6e;}.cls-113{fill:#b1924d;}.cls-114{fill:#463433;}.cls-115{fill:#40302e;}.cls-116{fill:#3a2e2c;}.cls-117{fill:#2c211f;}.cls-118{fill:#4e3a38;}.cls-119{fill:#544040;}.cls-120{fill:#b160c9;}.cls-121{fill:#fff;}</style></defs><title>tema_0_button</title><g class="cls-1"><path class="cls-2" d="M243.87,56.19l2-2.6,38.66-.44,11.23.82c-2.68,8.68-10.58,10.57-17.67,13.25-6.57,2.48-13.79,2.71-20.34,5.41-8.47,4.89-7.22,13.66-8.88,21.4-.56,2.63,1.31,10.56-6.45,5.28C243.2,84.93,240.69,70.46,243.87,56.19Z"/><path class="cls-3" d="M497.09,367.9l-.77,2.48c-3.6,6.62-1.28,14-2.77,20.94-.93,4.31-.38,9.11-4.06,12.53l-.12,1a126,126,0,0,0-14.28-.51c-7.23-.14-14.47.3-21.68-.29a6.47,6.47,0,0,1-2.84-1.62c-1.6-6,9.36-3.3,6.86-9.92,3.36-4.08,8.89-1.8,12.76-4.36,2.58-1.73,2.6-5.28,5-7.13,10,1.6,11.29-6.46,14.15-12.75,1.44-1.78,1.47-4.45,3.61-5.81a3.22,3.22,0,0,1,3.8,1.11Z"/><path class="cls-4" d="M505.18,108.19c1.42,59.27-1.61,118.48-2.12,177.73a2.67,2.67,0,0,1-3.53-.78c-3.41-6.22-1.39-13-2-19.5-.45-30.4-.2-60.76,1.34-91.16.44-8.81.26-17.81.92-26.73.06-9.65-.2-19.29.14-28.92C500.1,114.69,498.89,109.48,505.18,108.19Z"/><path class="cls-5" d="M505.18,108.19c-4.39,13.43-.66,27.31-2.23,40.9-2.61.34-3.73-1.42-4.73-3.36-1.35-16.11-1-32.26-.7-48.4.14-7.9.05-15.78-2.15-23.46-.09-2-.11-4.08-.36-6.1a11.68,11.68,0,0,1,2.61-9.5,2.44,2.44,0,0,1,3.53-.27l4.44,2.16.1.22c1.85,9.75.88,19.55.57,29.33Z"/><path class="cls-6" d="M501,285.93h2.09c-.05,21.79-.2,43.59-.06,65.38,0,5.4-1.56,9.52-6.24,12.31l-5,0c-.23-.41-.45-.82-.69-1.23a44.63,44.63,0,0,1,.7-9.79,9,9,0,0,1,3.37-4.58c5-8.46,1.3-17.69,2.4-26.51,0-8.16-.1-16.28.06-24.4C497.69,293.1,497.1,288.81,501,285.93Z"/><path class="cls-7" d="M476,402.5c4.6,0,9.35-.83,13.38,2.39-3.73,2.7-8,1.79-12.13,1.79q-106.29.09-212.59,0c-4,0-8.43,1.14-11.9-2.22.72-.05,1.43-.1,2.15-.17,4.24-4.5,9.82-3.22,15-3.24q61.69-.17,123.4,0a115.7,115.7,0,0,0,21.37-1.62c5.27-.91,10.59-.71,15.89-.46,5.14,1.35,10.28,2.76,15.63,1a6.55,6.55,0,0,1,4.7,2.07l-.1.46A90.12,90.12,0,0,0,476,402.5Z"/><path class="cls-8" d="M489.49,403.85c1.61-11.29-.33-23.31,6.83-33.48-.31,10.62,2.48,21.42-1.83,31.81C493.25,404,491.45,404.16,489.49,403.85Z"/><path class="cls-9" d="M380.27,55.56l13.63.18c.55,1.62.18,3.39-1.3,3.83-13.2,3.93-24.68,13.18-39.08,13.23-11.4,0-21.27,6.15-33.21,7.37,8.5.3,8.5.3,8.8,6.94-10.29,3.48-20.9,1-31.34,1.73-8.59.62-17.32-1.34-25.76,1.46a14,14,0,0,0-2.58,2.21c-3.63,5.67-1.24,12.08-2.24,18.07a8.39,8.39,0,0,1-1.89,4.5c-5.29,1.91-9.76,4.29-11.87,10.38-1.42,4.09-4.93,6.91-9.29,2.11-2.51-11.92,2.61-22.92,4.06-34.36,1.16-5.49,1.75-15,5.77-14.79,7.31.47,7.07-7,12-7.54,10.47-4.38,21.35.85,32.28-2,14.73-3.82,30.44-2.76,44.55-10.72,7.09-4,16.19-2.66,24.48-1.84C371.66,56.77,376.07,58.21,380.27,55.56Z"/><path class="cls-10" d="M330.06,85c-3.59-3.76-8.71-3.78-14.55-5.07,26-11.63,54.05-12,78.39-24.19l4.56-.09c2.32,14.4,2.32,14.4-15.53,19.28-5.68.06-11.34,1.28-17,.29-6.12-.18-11.62.92-15.63,6.31s-10.33,5-16.07,6A4.94,4.94,0,0,1,330.06,85Z"/><path class="cls-11" d="M380.27,55.56c-2.91,3.38-6.88,2.35-10.56,2.55-11.39.62-23.07-1-32.63,8.32-3.24,3.14-9.12,2.65-14,3.23-18.86,2.21-37.74,4-56.73,4.39a3.57,3.57,0,0,1-.8-3.43c6.58-5.68,15-3.93,22.57-5.15,8.21-1.32,16.15-1.73,23.41-7,5.2-3.75,12.43-2.38,18.68-3.78,13.14.52,26.31-1.1,39.4.86A20.76,20.76,0,0,1,380.27,55.56Z"/><path class="cls-12" d="M407.56,55.9a44.35,44.35,0,0,1,22.24,1.86c2.15-1,4.41-.8,6.66-.57,1,.72,1.48,2.56.85,2.73-7.26,1.9-7.76,9.51-12,13.92a16.17,16.17,0,0,1-8.7,1.82c-4-1-8.48.56-12.26-1.92C400.93,67,409.51,62.4,407.56,55.9Z"/><path class="cls-13" d="M407.56,55.9c4.28,3.87,1.75,12.6-4.59,15.86-3.6,4.44-8.32,4.14-13.22,3.16a7.15,7.15,0,0,1-5-3.21c10.15-.58,9.75-10.2,13.74-16.06Z"/><path class="cls-14" d="M437.14,58.16l-7.33-.39c5.72-4.61,12.4-2.17,18.48-1.92,17.62.74,35.39-2,52.86,2.15l-2.89.36a12.54,12.54,0,0,1-9.05,4.16c-14.39.43-28.78.5-43.17-.05A11,11,0,0,1,437.14,58.16Z"/><path class="cls-9" d="M369.57,55.58,327.64,56c-1.22,1.16-2.65,1-4.12.64a1.69,1.69,0,0,1-.67-1.63c.12-.59.26-.89.43-.89l44.67,0A12.3,12.3,0,0,1,369.57,55.58Z"/><path class="cls-2" d="M323.28,55.81l4.37.15c-17.21,9.27-34.85,16.71-55.13,13.65a7.24,7.24,0,0,0-6.23,2.14,9,9,0,0,1-8.65.92,2.2,2.2,0,0,1-.46-3.18c13.4-3.83,27-7.25,38.58-15.52l13.93.05C314,56,319,53.17,323.28,55.81Z"/><path class="cls-11" d="M323.28,55.81c-4.56-.39-9.39,1.29-13.59-1.79l13.59.06C323.27,54.66,323.27,55.24,323.28,55.81Z"/><path class="cls-15" d="M243.3,358.91l.21-52.48A2.64,2.64,0,0,1,247,307c4,7.27,1.41,15.17,2.17,22.74-1.85,8.17,3.43,14.52,5.6,21.67a13.57,13.57,0,0,1-3.38,11.54c-2.67,1.94-4.28.13-5.9-1.66Z"/><path class="cls-16" d="M245.52,361.24l4.71,2c.43.36.87.71,1.31,1.06a8.87,8.87,0,0,1,1.21,6.41c-2,5.9-.73,12.44-3.36,17.19.2-1.75,1.45-3.06,4.35-1.83,4.53,4.36,5.52,9.35,2.7,15L255,402.35c-8.72.64-9.14-5.53-9.58-11.69Q245.49,375.95,245.52,361.24Z"/><path class="cls-17" d="M243.27,137.9a230.26,230.26,0,0,1,0-36.39c4.85-6.9,1.5-15.4,4.55-22.82,2-4.76,2.82-9.52,9.33-9.2l0,2.28c-4.59,6.07-5.59,13.33-6.84,20.51-.47,12.28-5.29,24-4.51,36.47,2.31,2.76,2.9,5.69.84,8.86A2.46,2.46,0,0,1,243.27,137.9Z"/><path class="cls-18" d="M416.77,402.53c-3.36,2.45-7.25,1.76-11,1.76q-75.43,0-150.88,0c0-.64.07-1.29.11-1.93l-.27-.73a25.09,25.09,0,0,1,3.72-2.23c17.23-4,34.54-1.36,51.84-.7,30.34.6,60.63-2.37,91-1.14C406.91,397.78,412.86,397,416.77,402.53Z"/><path class="cls-19" d="M416.77,402.53l-107.22-.85c-1.84-2.46-8-1.21-6.37-6.19,1.23-3.68,5.31-3.41,8.87-2.84,8.22,1.32,16.52-1.87,22.37,0-15.54,4.72-31-5.9-47.81-8.11-4.75-.62-5.1-4.89-4.6-9,1.76-5.33,6-6.78,10.82-6,22.89,3.51,46.19-.33,69,4a10.66,10.66,0,0,0,3.36-.29,38.35,38.35,0,0,1,27.12,9c4.9,4.06,11.1,5.36,17.72,6.29,7.85,1.11,16.52-1.35,23.74,4.91,2.57,2.23,7.27-.21,10.86-1.18,4-1.09,7.87-2.9,12-.6l1.11,1.23c5.68,9.08-4.86,5.92-6.91,9.17l-4.51.42a26.66,26.66,0,0,1-13.82,0Z"/><path class="cls-20" d="M475.91,381.6c-.2,3.22.61,6.67-2.17,9.27a6.57,6.57,0,0,1-2.39-2.35c-1.34-3.61-1.28-7.42-1.64-11.17a6,6,0,0,0-1.14-2.73c-21.43-3.64-43-3.19-64.56-3.38-5.07,0-10.61,1.45-14.94-2.9a3.44,3.44,0,0,1,.47-3.65c5.46-3.16,11.62-3.55,17.63-4.59,23.37-2.21,46.78-1.28,70.18-1.26,5.28,0,10.71-.34,14.57,4.42l-.15.33c.59,1.44,2,2.87.07,4.35C489.46,375.9,481.9,377.84,475.91,381.6Z"/><path class="cls-21" d="M475.91,381.6c0-3.64.81-6.93,5.26-6.7,5.44.27,6.74-5.25,10.67-7-.79,2.81-1.6,5.63-2.37,8.45C486.66,386.66,484.41,387.53,475.91,381.6Z"/><path class="cls-22" d="M473.62,372.47c0,.83-.07,1.65-.1,2.47a16,16,0,0,1-6.45,3.94c-3.8,2.07-5.18,4.12,0,6.26a10.2,10.2,0,0,1,6.49,3.15l.21,2.58c-4.93,3.74-10.63,1.42-16,2l0,0c-5.23-4.74-3.49-10.71-2.93-16.48C459.35,366.91,467,372.06,473.62,372.47Z"/><path class="cls-23" d="M476,402.5a40,40,0,0,1-25.25,0Z"/><path class="cls-24" d="M501,285.93l-.11,38.58a4,4,0,0,1-4.91.67c-5.13-5.83-3.11-12.79-3-19.42.09-4.88.75-9.76,0-14.62-1-6,.32-12.17-1.24-18.08-1.14-4.35-3.05-7-7.8-2.73-8.47,7.62-19.13,7.6-29.5,7.78l-.46-.07s.36.1.52.12c3.48,1.4,8.42,2.15,7.68,6.68-.85,5.16-6.12,4.14-10,4.41s-8.15-.58-11.86,1.67c-2.56,1.91-4.14,5.24-7.88,5.44-8.71-1.3-17.75,1.61-26.29-2-1.65-1.51-2-3.53-.3-4.82,8.55-6.48,15.48-15.5,26.55-18.15,8.89-2.12,13.06-8,14.52-16.47,4.95-3.29,10.9-1.17,16.09-3.07a15.8,15.8,0,0,1,3.22-.14c4.52.61,9.1,2.45,13.41-.81a16.21,16.21,0,0,0,2.65-2,18,18,0,0,1,6.19-4.65c7.65-3.34,10.93-1.29,11.45,6.87.3,4.73-1.13,9.59,1,14.2Z"/><path class="cls-25" d="M500.82,265.32c-2.7-2.69-1.86-6.17-2.2-9.42-.36-3.46,1.74-8.25-2.64-9.89-4.2-1.57-7.61,1.52-10.37,4.7-1,1.11-2,2.18-2.95,3.27-3.53-2.76-6-6.2-4.57-10.78,2-6.31.43-12.9,2-19.18,2.37-7,1.19-14.25,1.54-21.4.14-3,0-6.12,2.06-8.64,1-1.19,2.38-2,3.73-.67a4,4,0,0,1,1.16,2.58c-.23-4.11-4-9.2-1.91-14.73.83-2.16,1.88-4.8,4.37-4.43,2.34.34,3.66,3.09,3.07,5.38-2.07,8,.27,15.7.68,23.53,1.18,4.67-.44,9.57.79,13.37-1-5,.37-11.08-1.4-16.87.84-6.21-3-12.47.23-18.64,1.7-8.64.31-17.39.94-26.06.31-4.19-1.12-9.57,5.53-10.55.69.73,1.37,1.47,2.05,2.2Z"/><path class="cls-26" d="M416.67,71.82l9.09-.06C429,70,432.09,67.51,436,67.48c20.85-.17,41.71-.89,62.57-.26,0,1.52,0,3,0,4.57-1.54,2.79-3.5,5-6.85,5.6-13.62,2.57-27.66-1.9-41.17,2.44a5.78,5.78,0,0,1-3.16.34c1,.93,2,.24,2.94,0,1.41-.28,2.78-.76,4.24-.94C463.23,78,472.45,75,476.37,87c-2.51,4.53-7,3.85-11.06,4.14-41.84.11-83.68,0-125.52,0-23.1-.42-46.21.86-69.3-.62a10.35,10.35,0,0,1-3.68-2.28c2.69-4.81,7.33-3,11.19-3,17.35-.23,34.7-.18,52.06-.23l4.54.19a135.14,135.14,0,0,1,45.91-3.14h5.82a85.16,85.16,0,0,1,32.91,2.31c3.29.28,1.82-2.47,2-1,.05.37-.17.54-.65.49-4.27-.4-9.8,1-11.09-4.84C408.42,74.05,413.47,73.47,416.67,71.82Z"/><path class="cls-27" d="M498.57,67.22c-4.27,3.57-9.13,4.73-14.74,4.66-19.35-.26-38.71-.12-58.07-.12-2.8-10.06,4.29-11.83,11.39-13.6l61.12.19C498.36,61.31,498.47,64.26,498.57,67.22Z"/><path class="cls-28" d="M491.84,74.07l6.77-2.28c4.7,24.92,1.33,50.07,2.29,75.1-4.47,7.21-1.28,15.17-2.23,22.73-.67,5.35,1.73,11.15-2.28,16-7-10-4.57-21.76-5.72-32.78-2.58-24.84-1.57-49.74-.53-74.63C490.2,76.73,491.13,75.4,491.84,74.07Z"/><path class="cls-29" d="M491.92,363.26l-86.56.3c-31.51,4.74-63.18,3.48-94.81,2.57-4.1-1.91-5.53-4.3-.65-6.91,3.1-1.66,6.76-1.48,9-1.8-12.44,3.71-25.65-2.48-39.24-1.66-9.31.56-17.92.86-24.4,8.55a4.7,4.7,0,0,1-4.8-.88l-.27-.16L252.75,352c.74-3,2.84-4.51,5.67-5.23,6.74-.86,13.52-.33,20.28-.49,13.26.87,26.42-1.48,39.66-1.16,9.5,2.26,19,.83,28.54.11a72.78,72.78,0,0,0,23.52.27,22.32,22.32,0,0,1,14.23,2.12c8.5,4,17.25,6.65,26.81,5,4.1-2.09,8.13-4.4,13-4,7.18.23,13.95-3.26,21.19-2.32,10.51-.08,21-.23,31.51,1.45,7.68-3,13.21-.58,16.92,6.54C495.06,357.7,495.14,360.88,491.92,363.26Z"/><path class="cls-4" d="M496.4,324.61l4.46-.1c0,8,0,15.91.08,23.87,0,5.78-2.49,2.68-4.52,1.32-2.47-1.83-3.11-4.53-3.51-7.35C491.6,336,491,329.68,496.4,324.61Z"/><path class="cls-30" d="M496.36,342.86l.06,6.84-2.34,4.61c-5.58-3.45-11.47-5.68-18.19-4.6a2.54,2.54,0,0,1,.25-3.27C482.53,343.26,488.89,339.93,496.36,342.86Z"/><path class="cls-23" d="M432.52,402.44l13.82,0A13.42,13.42,0,0,1,432.52,402.44Z"/><path class="cls-31" d="M266.81,88.24a13.52,13.52,0,0,0,1.8,0c11.65,3.81,8.93,13,8.05,21.53-.25,15.39-.06,30.77-.11,46.15,0,7.63.06,15.25,0,22.87-.71,12.39,1.83,24.68,1.12,37.07a51.52,51.52,0,0,0-.36,19.45,7.61,7.61,0,0,1-2.16,5.66c-2.58,2.32-3.86,7.51-8.33,5.91-4.7-1.67-3.57-6.7-3.76-10.65a19.69,19.69,0,0,1,.74-6.6c2.16-27.42,2.61-54.83-.34-82.22-.93-6.89-.38-13.82-.54-20.73-1-5.65,2.39-10.69,2.26-16.23.49-6.79-1-13.68.93-20.41A3.61,3.61,0,0,0,266.81,88.24Z"/><path class="cls-32" d="M245.78,137.81q0-4.53.08-9.06c4.86-.71,5.81-5.12,5.92-8.36.37-11.08,5.46-9.63,12.16-5.33,2.37,3.62.74,7.66,1.23,11.47-.24,3.82.57,7.7-.63,11.46-9.09.84-10.48,7.4-11.87,14.81-6,32.09-2.52,64.47-3.46,96.72-.41,5.16,1.06,10.56-2.13,15.32a2.68,2.68,0,0,1-3.57.58q-.13-50-.26-100.08C247.14,156.44,242.44,146.76,245.78,137.81Z"/><path class="cls-33" d="M250.37,92.28c1.11-7.22-3.39-16.32,6.84-20.51l9.08,0c0,.77,0,1.53,0,2.3C257.37,77,252.76,83.64,250.37,92.28Z"/><path class="cls-34" d="M266.11,90.05l-.1,20.49c-.58,1.17-1.18,1.24-1.82,0C264.74,103.73,262.09,96.58,266.11,90.05Z"/><path class="cls-35" d="M264.19,110.59c.6,0,1.21-.06,1.82,0L266,126.41c-.49,1.25-1.07,1.29-1.72.11q-.14-5.73-.29-11.46C264,113.57,264.11,112.08,264.19,110.59Z"/><path class="cls-36" d="M382.41,85.33l-47.81-.14c5.88-3.14,14.61-1.54,16.13-12.06.43-2.95,8.81-.86,13.53-1.28,3.65,3.88,8.93,4.87,13.28,7.5C379.86,80.74,383.51,81.13,382.41,85.33Z"/><path class="cls-37" d="M382.41,85.33c-4-1.68-8.24-2.93-11.87-5.19-2.92-1.81-8.45-2.37-6.28-8.29l20.46-.14,4.62.13c-1.94,7.22-6.09,4.12-9.46,3,1.27,2,4.29,1.22,6.94,1.52s5.36.95,5.65,4.33c.33,3.92-3.66,3-5.43,4.63Z"/><path class="cls-38" d="M387,85.36c.95-2.22,7.27-4.66-.1-6.57-3.11-.8-6.7-.13-8.86-3.58,3.41-2.5,8.34.35,11.26-3.37L403,71.76l13.7.06c-7.53,8.69-7.36,8.94,8,13.54Z"/><path class="cls-39" d="M243.51,265.42l2.24,0a53.25,53.25,0,0,1,0,41l-2.27.05Z"/><path class="cls-35" d="M245.78,306.38l0-41q0-8,.1-15.91c2.44-15,.86-30.1,1-45.14.08-11,.77-21.89,1.47-32.81.33-5.09.28-11.6,7.7-11.75s9,5.57,9.14,11.75a28.3,28.3,0,0,0,.88,6.73c.48,4.12.23,8.27.3,12.41-.07,10.22.16,20.44-.14,30.66-2.92,8.84-1.19,18.22-3.1,27.17-5.68,3-6.34-1.92-7-5.09-1.81-9-2.56-18.18-.47-28.56-2.87,10-.27,19-1.09,27.75-1.91,20.56.36,41.19-1.52,61.73a24.19,24.19,0,0,1,.58,6.94,26.43,26.43,0,0,1-.27,3.44,15.31,15.31,0,0,1-.94,3.27c-2.48,4.35,2.2,12.17-6.49,13.53Q245.83,318.94,245.78,306.38Z"/><path class="cls-40" d="M245.89,331.51c4.58-4.46-.25-11.56,4.47-16,2.37,2.71,5.52,3.72,9,3.94-3.45-.35-6.66-1.2-9-3.94l0-2.29c5.37-4.86,4.27-15.29,14.08-16.34a7.46,7.46,0,0,1,2.73,3.67c2.41,5.66,4.9,5.64,7.45.07,3.72-6.85,8.61-3.67,13.39-1.57,2.81,5.05,9.72,2.77,12.91,7.16.49,2.77-1.23,4.36-3.35,5.23-6.26,2.59-12.19,4.67-7.79,13.79,1.9,3.93-2.51,7.36-5.63,5.81-6.17-3.06-10.41-.51-15.34,2.19-4.26,2.33-9.43-3-14.12.89,13.8,4.34,27.16,8.55,41.49,8.2,2.26,0,5.46,1.19,4.33,5.08-7.33,2.49-14.87.51-22.28,1.14-7,.61-14.15-1.28-21.06,1.13L252.75,352C247.6,346.15,244.67,339.53,245.89,331.51Z"/><path class="cls-41" d="M250.5,363.43l4.42-.08,1.15,1.2c3.15,10.52,4.3,21.36,5,32.27,0,2.62-1.62,4-3.86,4.88l-2.48-.08c.92-5.37-.88-10.36-2.15-15.43-4.14-4.85-4.32-10.25-2.26-16Z"/><path class="cls-42" d="M250.34,370.22c-.52,5.5,1,10.72,2.26,16-3.34,1.56-.43,5.58-3.6,8.35C248.23,385.79,246.1,377.91,250.34,370.22Z"/><path class="cls-43" d="M257.23,401.7l2.24-4.21c.22-7-2.28-13.89-1.17-20.93.73-4.6.07-10,5.72-12.32a8,8,0,0,1,3.18.3c6.32,3.4,13.74,5.28,17.33,12.48.18,1.79.55,5.34,1.57,4.73,8.91-5.37,15.58,1,21.64,4.84,10.21,6.55,21.44-.73,31.46,4,2.15,1,5.27-.68,8.27,3.42H304.83c2.22,3.61,3.47,5.63,4.72,7.65Z"/><path class="cls-44" d="M284.53,377c-6.34-3.33-13.89-4.72-18.19-11.34,2.51-3.16,5.93-3.19,9.48-2.75,13.78,2.72,27.8,2.19,41.71,2.55,22.62.6,45.27.28,67.9.59,10.4,6.9,22.12,3.38,33.26,3.73,4.07.13,8.07-.06,12.07.91,7,1.7,9.37,5.61,5.91,12.32-13.25,8.77-25.67.34-38.29-2.09-10.55-2-20.6-7.58-31.83-3.91-16.86.15-33.47-3.21-50.67-1.72-5.91.51-15.2,1.85-22.51-2.19C290.25,371.39,285.71,371.7,284.53,377Z"/><path class="cls-45" d="M366.55,377c9.27-4.13,19.07-4,28.29-1.16,6.39,2,12.26,4.66,19.21,3.62,2.36-.36,6.18-1.26,5.5,4.17-.24,1.91,2,2.5,2.93.61,4.09-8.68,8.26-2.41,12.44-.42,3.81-3.76,9.15-5,12.5-10.29,3.26-5.17,7.65-.76,10.1,3.49q.11,7.93.22,15.87c-8.62,0-17.23,9.22-24.61,4-6.57-4.63-12.77-4-19-4.18-12.29-.3-22.54-3.88-31.27-12.69C378.45,375.62,372.15,377.24,366.55,377Z"/><path class="cls-45" d="M422.75,397.41a34.54,34.54,0,0,1-5.11-.39c-.95-.2-.84-1.28.21-1.41a41.1,41.1,0,0,1,5.09-.06Z"/><path class="cls-46" d="M457.52,377.05l-12.45-5.51c7.95,7.9,7.05,11.38.08,12.08-3.39.34-6.82.17-10.23.23,2.36-11.37-6.2-13.37-13.21-12.12-9.87,1.76-19.48-2-29.14.54-2.89.76-5-1.2-5.55-4.31a1.42,1.42,0,0,1,2.32,0c27.21.18,54.44-.54,81.57,2.31,1.34.14,3.33-.32,2.71,2.25C468.19,373.77,461,369,457.52,377.05Z"/><path class="cls-43" d="M275.53,365.71l-9.19,0-.06-.06a3,3,0,0,1,1-3.85c13.53-3.95,27-6.22,40.1,1.52l98,.26c-5,3.53-10.7,1.36-16,2.1-14.54,2.4-29.18,1.37-43.78,1.08C322.21,366.28,298.83,368.1,275.53,365.71Z"/><path class="cls-47" d="M275.53,365.71l113.8-.06c0,.76,0,1.51,0,2.26L387,368c-32.81,0-65.63,0-98.44-.09C284.18,367.85,279.4,369.24,275.53,365.71Z"/><path class="cls-48" d="M473.52,388.29l-9,.23c-2.91-1.07,3.93-2.62-.52-4.72-4.2-2-2.11-6.07.58-9l9,.11Z"/><path class="cls-49" d="M464.53,374.83c.1,2.76-2.85,6.32,1,8.09,8.44,3.84-2.41,3.45-1.09,5.6C458.15,386,458.17,380.84,464.53,374.83Z"/><path class="cls-50" d="M496.36,342.86c-6.11,4.73-13.2,5.07-20.48,4.58-5,2.33-10.37.55-15.52,1.12-3.31.18-5.41-2.27-5.07-4.69,1.32-9.27-1-18.08-2.35-27,3.52-2.94,7.57-2.31,11.59-1.61A14.06,14.06,0,0,0,476,312.59c3.55-2.38,3.79-6,4.26-9.85,1.43-11.53,3.57-13.05,16.13-12.24,2.23,11.37-1,22.75,0,34.11Q496.39,333.75,496.36,342.86Z"/><path class="cls-51" d="M466.77,254.18l-1.13,0-1.13,0c-8,2.39-16.74-.79-24.44,3.51-4.81,1.3-9.68,1.06-14.56.57-12.83-1.95-25.77-.13-38.62-1.05-5-1.39-10-2.11-15,.14-8.59,2.83-17.4-.41-26,1.06a91.92,91.92,0,0,1-21-.93c-7.61-.63-15.05,1.68-22.67,1.18-4.94-.33-9.91-.27-13.75-4.14-2.84-7.91,1.7-10.2,8.28-10.53,9.34-.46,18.7-.13,28-.2,10.74.19,21.5-.38,32.24.39,23.84,3.36,47.73,2.48,71.6.52,5.44-1.59,11.34,0,16.67-2.42,6.07-1.74,12.72.77,18.59-2.5,2.4-1.62,4.82-3.17,7.77-3.59a7,7,0,0,1,4.93,1.41c1.25,5.77,4.48,11.47.62,17.43C473.7,254.9,470.12,256,466.77,254.18Z"/><path class="cls-52" d="M425.77,254.1l13.67,0c1.81,2.17,5,.07,6.83,2.24,3.18,8-.11,17.74-7.37,17.83-10.42.13-16.37,6.19-23,12.31-3,2.7-7,4.2-10.57,6.24-5.51,5.39-12,3.36-18.33,2.46-1.49-1-3.35-1.91-2.21-4.34.35-.74,1.67-1.33,1.59-1.39-6.37-5.12-6.27-9.5.39-13.61,2-1.2,4.21-1.63,6.38-2.28,11.26-3.39,14-6.47,14.82-16.09.08-1,1.48-1.62,2.55-2.07C415.53,254.42,420.83,256.48,425.77,254.1Z"/><path class="cls-53" d="M496.36,290.5c-1.8,1.22-3.91,3.78-5.35,3.44-8.31-1.92-7.09,3.21-7.38,8.38-.26,4.81,1.44,10.95-5.37,13.32-.32-.4-.65-.79-1-1.18-.64-6.83,1.32-14.48-6.16-19.11-4-5.66-10.08-3-15.32-3.8-6.26-.92-13.39,2.61-18.67-3.54,7-4.49,14.91-.5,22.37-2.68-1.44-5.69-7.84-5.05-10.95-8.52a1.49,1.49,0,0,1,2.28,0c9.08.25,16.79-6.8,26.27-4.91a3.5,3.5,0,0,0,4-3.27c.2-3.64-1.37-8.39,5.26-6.89,5.12,1.16,9.4,3.62,9.74,9.5C496.44,277.64,496.28,284.08,496.36,290.5Z"/><path class="cls-54" d="M437.13,288c9.72.07,19.44.17,29.16.2,4.92,0,9.3.48,8,7.27.55,1.55.79,3.07-.38,4.47a4.28,4.28,0,0,1-3,.17,41.28,41.28,0,0,1-4.68-3.85c-5.68-4.16-12.2-1.84-18.32-2.38a15,15,0,0,0-4,.61c-2.07,1.39-2.46,4-4.22,5.68a9.36,9.36,0,0,1-8.41,1.77c-15-2.6-30.16-.63-45.22-1.24-2.05,0-4.09,0-6.13-.06-3.53-.21-7.15-.15-9.39-3.66a3.67,3.67,0,0,1,1.75-3.66c7.83-3.76,15.35,1.26,23.21.85,12.32-.63,24.77-1.18,37.13.46Z"/><path class="cls-55" d="M432.61,294.64l-61.46.62c-2.28,1.68-4.6,1.92-7,.2-1.13-3,.33-4.87,2.65-6.43,6.61-1.79,12.71-1.09,18,3.68l20.48,0C414.35,293.91,423.75,290.44,432.61,294.64Z"/><path class="cls-56" d="M477.87,253.85c-1.85-5.1-3.45-10.23-2-15.74-.35-4,.92-7.66,2.23-11.32a5.23,5.23,0,0,1,3.3-2.85l1.41.52c1.48,9.85-3.47,19.66-.14,29.52l-2.17.09C479.52,255.18,478.64,255.11,477.87,253.85Z"/><path class="cls-57" d="M446.27,256.29c-2.51,0-5.06,0-6.83-2.24l25.07.13C458.81,258.18,452.34,255.49,446.27,256.29Z"/><path class="cls-57" d="M477.87,253.85l2.62.22c-4.55,3.27-9.12,3.17-13.72.1Z"/><path class="cls-52" d="M450.83,276.8h-2.28c-1.16-1-2-2.25-.6-3.47.6-.53,1.88-.28,2.85-.39Z"/><path class="cls-56" d="M491.84,74.07c4.63,8.56,2.06,17.93,1.88,26.66-.42,19.52.7,38.82,2.12,58.25.64,8.72-.83,17.78.55,26.67-4.56,5.32,1.79,10.67,0,16-1.49,1.13-.59,3.44-2.22,4.49-5.23-8.28-.21-17.83-4.07-29.32v23.72c-4.67.36-1-5.06-4.53-4.9-2.15,9.5,2,19.58-2.73,28.82l-.2-.13c-3.81-3.08-5.83-7.29-5.13-11.94,3.89-25.88,1-51.88,1.72-77.8.17-6,1.76-12.06,1-18-.5-3.93-1.95.43-3.09.51a3.76,3.76,0,0,1-3.33.81c-2.35-1.47-3.08-3.78-3.37-6.31a47.87,47.87,0,0,1-.36-5.48c.23-7,3.95-11.73,9.59-15.23,3.12-4.79-3.74-2.82-3.75-5.46-7.28-3.93-14.73-6.09-22.78-2.29-1.5-1.53-4.25-1.82-4.56-4.55,1.37-7,6.43-2.46,9.83-3.24C469.47,72.84,480.69,74.62,491.84,74.07Z"/><path class="cls-28" d="M494.13,206.14l2.22-4.49v20.17C493.11,215,494.59,210.47,494.13,206.14Z"/><path class="cls-58" d="M339.12,87.94q57.87.19,115.73.37c3.78,0,7.56-.23,11.33-.35,1.17.93,1.21,1.9.14,2.91-4.73,2.92-9.6-1-14,.32,2.31.7,6.65-1.81,7.41,2.29.51,2.76-3.07,3.94-5.78,4.18-6.79.6-13.61.21-20.44.31-10.94-.22-21.87.46-32.79-.46-16.43-3.77-33.11-1-49.65-1.83-3.75-.19-7.65.48-11.17-1.18S335.27,90.61,339.12,87.94Z"/><path class="cls-59" d="M339.12,87.94c-1.32,6.69,3.93,4.14,6.5,4.19,14.37.28,28.76.14,43.14.27,4.08,0,8.4-.94,12.06,1.9-3.17,4.44-8,3.53-12.36,3.6-11.26.2-22.53,0-33.78.07-4,0-8-.15-12,.25-3.11.29-6.16-.43-9.24-.61-5-1.83-9.93-2.57-14.95-.15a30.87,30.87,0,0,1-5.26.45c-4.13.06-8.26,0-12.38,0-3.93.07-7.86-.19-11.77.27-6.62,0-9.28,7.75-15.75,8,5-7.73-4.65-11.61-4.73-18C292.11,86.22,315.61,87.42,339.12,87.94Z"/><path class="cls-28" d="M467.35,89.69c-.37-.59-.76-1.16-1.16-1.73,3.31-.51,7,.51,9.7-2.5l6.73-.81c2.44-.3,5,.27,5.61,2.64,1,3.55-2.1,4.25-4.67,5a39.94,39.94,0,0,0-8.58.83C471.91,93.15,469,92.82,467.35,89.69Z"/><path class="cls-28" d="M448.55,78.62l4.56,4.55c-1.79,0-3.59,0-5.38-.18s-4.13-.78-3.79-2.79S446.86,78.84,448.55,78.62Z"/><path class="cls-60" d="M366.55,290.47l-2.11,5c2.7,3.32,5.69,6.1,10.49,5.34,3.41.16,6.95-.21,9.74,2.44a3.64,3.64,0,0,1,.67,3.26c-3.79,5.17-11,1.75-15.13,6.1-3.86,2.12-5.16,5.21-3.74,9.45.72,2.14,1.67,4.19,2.39,6.33,1.95,5.79-.29,11.36-1.82,16.55-2.1,7.09-8.89,2.38-13.44,3.6-1.73.47-3.76-.32-5.28,1.2H318.7c.72-5.82,4.09-5,7.86-3.14-3.2-3-3.68-6.19-.86-9.67,1.42-1.76,3.59-2.84,4.88-4.64,4-5.56,10.26-10.65,2.27-18.14-4.3-4,.79-6.38,3-9-4.44-3.52-1.93,3.6-4.49,2.86-3.16,2-6.38,1.8-9.67.4A7.86,7.86,0,0,1,319,306.1a7.68,7.68,0,0,1-1.09-6.65c5.46-4,9.35-10.28,17.74-10,4.81.15,3.9-5.59,4.86-8.86,1.87-6.35,1.72-13.71,9.63-16.48,9,4.71,16.33,1.24,23.05-4.93,5-.91,9.65.59,7.13,6.13C376.37,274,375.47,284.5,366.55,290.47Z"/><path class="cls-61" d="M341.48,306.44l-7.72,4.05c1.35,4,5.36,2.26,7.64,4,1.47,1.1,4.24,3.16,2.93,3.84-7.32,3.79-3.82,13.61-10.63,17.76-2.64,1.6-9,1.47-7,6.93,1.63,4.3,6.82.46,11.46,2.17-6.65,4.84-14.36-.5-19.49,4.54l-41,0c-1.39-.75-1.39-1.49,0-2.22,7.57-1,15.56,2.29,22.77-2.29-2.77-3.33,0-5.54,1.72-7.82,2.76-3.58,3.26-7.37,2.05-11.69-3.32-11.88.47-17.41,13.86-20.63A5.75,5.75,0,0,1,321,306.4h11.43C335.44,301.58,338.47,301.27,341.48,306.44Z"/><path class="cls-62" d="M348.32,349.7a21.53,21.53,0,0,1,3.94-2c4.23-1.16,9.29,2.48,11-6.89,1.16-6.4,4.18-10.51-.95-16.6-4.22-5,.24-12.72,6.82-13.39a9,9,0,0,1,3.2-1.79c6.6.06,13.19-1.5,19.79-.2,5.68,3.8-1.24,7.31-.29,10.8,1.92,7.08-.34,15.14,5.27,21.38,2.57,2.87,4.57,6.2,1.1,9.94-4.38,1.52-8.89,1.32-13.4,1.05C373,346.06,360.4,351.56,348.32,349.7Z"/><path class="cls-63" d="M457.67,347.42l18.21,0c0,.76,0,1.52,0,2.27-.06,1.46,2.37,4.37,1.26,3.68-9.9-6.16-20.61-2.76-30.87-3.69-7.74-3.66-15.35,1.43-23.23.23-6.59-1-8.85-3.31-6.66-9.56,2.53-7.21,2-16,8.55-18.7-5.82-.31-9.18-3.76-8.32-11.53,4.21-4,10-1.57,14.65-3.57a8.29,8.29,0,0,1,4.79.61c.66,3.8,4,3.52,6.66,4.3a8.49,8.49,0,0,1,4.61,4.19c.2,3.64-2.23,6.72.41,11.11,3.81,6.35,2.9,13.12-5.19,16.12C447.76,342.52,453.52,342.21,457.67,347.42Z"/><path class="cls-64" d="M307.4,363.29l-41.08.1c-3.79,1.46-7.58,3.59-11.38,0l0-.06c1.18-10.25,7.62-12.55,16.73-11.41,12.16,1.53,24.3-1.4,36.83,3.2,6.67,2.45,16.27-4.11,25.17,1.31C326.32,365.45,315,357.46,307.4,363.29Z"/><path class="cls-65" d="M398.43,349.7c-.13-.73-.05-1.93-.44-2.12-11.9-5.66-6.3-18.49-11.06-27.18-3.25-5.94,4.39-6.36,7-9.4,4-4.57,8.91-3.48,13.83-2.37,2.06,5.39,2.06,5.39-5.57,4.94,2.69,1.53,5.23.81,7.71.37,4.66-.83,8.67.61,9.76,5.18,1.2,5-3.62,4.55-6.67,5.33-4.73,1.22-4,5-3.48,8.18,1.16,6.58,2.09,13.59,10.07,15.88,2,.57,4.85-.24,4,3.47-4.84-1.09-7.19,4.06-11.4,4.56C408.74,351.88,401.05,355.86,398.43,349.7Z"/><path class="cls-66" d="M423.5,352c-8.82-3.57-17.91-5.41-18.06-18.94-.13-12.18,0-14.31,12.64-12.68-5.12-7.18-12.74-3.55-19.55-5.62,3.71-2.76,8.68-.1,11.3-3.74q3.41-3,6.83,0c4.71,3.3,5,13.28,15.77,8.67-15.34,4.3-6.05,19.56-14.25,26,8.79,6.26,19.45-2,28.1,4.05Z"/><path class="cls-66" d="M398.43,349.7C403,352,411.16,347,412.1,356.54c-9.63,1.65-18.38-2-27.32-4.55C389,349.42,393.74,349.64,398.43,349.7Z"/><path class="cls-67" d="M277.71,347.44c0,.74,0,1.48,0,2.22l-20.49,0C263.63,345.26,270.89,348.35,277.71,347.44Z"/><path class="cls-68" d="M273.25,217.62q0-19.38-.08-38.77c1.58-1.33.63-4.88,3.65-4.69,1.92.11,3,2,3.48,3.83,1.26,4.86,0,10.38,3.82,14.57a14.44,14.44,0,0,1,1.43,6.29c1.5,16.61,7.19,23.43,23.54,28.37,2.85.86,5.47,2.39,8.31,3.37,6.41,3,13.43,2.45,20,2,15.43-1,30.52,2.75,45.87,2.23,5.36-.19,10.56.72,13.2,6.48-1.3,4.1-4.83,4.76-8.2,4.52-34.06-2.45-68.49.86-102.25-6.56-5.28-1.16-9.11-3.32-10.77-8.6C273.16,226.54,275.6,221.72,273.25,217.62Z"/><path class="cls-69" d="M275.42,229c8.5,9.92,21.28,10.51,32,10.67,27.17.41,54.23,3.3,81.39,3,2.68,0,5.31-.15,7.34-2.26l1.24-1.28c4-2.08,8.14-1.06,12.24-.32,9.51,2,18.69-.88,28-1.92,4-.91,8.17-.2,12.24-.75,7.45-1,12.35-3,10.54-12.79a20.3,20.3,0,0,1,7.14-20c5.18,1.47,4.89,6.51,6.71,10.18.83,5.14.08,10.35.9,15.49.28,3.56-1.13,6.5-3.38,9.13-.31,3.3-4.15,2.36-5.42,4.51-10.11,2.39-20.72.13-30.75,3.37-36,3.16-72.07-.06-108.1.05-3.44,0-6.88.09-10.32-.11-7.85-1.95-15.85-.65-23.79-1-6.81-.37-15.65,5-18.49-6.55l.44-2.44A5.93,5.93,0,0,1,275.42,229Z"/><path class="cls-70" d="M273.34,106.25c3.68-4.83,5.68-11.6,13.49-11.66,3.4,3.25,9.29-1.7,12.06,3.65-1.17,7.21-10,6.43-12.6,12.16-7.43,6.44-4.56,15.27-5.4,23.25a14.29,14.29,0,0,1-.69,3.5c-1.46,3.55-1.15,7.31-1.55,11-.37,3.49.15,7.9-5.45,7.91Q273.26,131.16,273.34,106.25Z"/><path class="cls-71" d="M273.2,156.06c5.25-6-.81-14.49,4.5-20.48,1.69,1.07,3.08,2.71,2.91,4.58-1.21,13.4,3.61,25.91,5.61,38.82-.66,3.12,1.73,5.54,2,8.41.41,4.31-.53,7.44-6,5.13-8.9-.2-2.94-7-4.43-10.41-1-2.37,1.32-8.27-4.66-3.26Z"/><path class="cls-72" d="M274.9,238.39c4.7,6.82,11.85,3.92,18.11,4.58q1.94,1.09.36,2.65c-3.49.27-6.52,2.34-10,2.57-7.77-2.49-11.52,6.88-18.64,6.32a4.67,4.67,0,0,1-2-4.85c1-9.15-1.2-18.44,1.26-27.52l.31-31.57c1.46-1,2.47-.63,3,1.05-.09,13.12.95,26.26-.58,39.36v13.41C270.91,244.19,270.46,237.88,274.9,238.39Z"/><path class="cls-73" d="M266.71,231q-.4-20.52-.8-41c-1.65-10.47-1.7-21.09-2.74-31.62-.41-4.07-.64-8.48,3.55-11.29,3.82,9.07,1.9,18.61,1.67,27.85C267.92,193.57,270.93,212.4,266.71,231Z"/><path class="cls-74" d="M266.72,147l-.81,42.91c-.55.2-1.1.42-1.64.64q-.28-6-.58-12.07c-1.28-7.62-1.2-15.34-3.67-22.93-1.92-5.92-1.13-12.66,3.85-17.78l.36-11.27c.58,0,1.15-.08,1.72-.11Q266.34,136.72,266.72,147Z"/><path class="cls-75" d="M275.42,229c0,2.33-.05,4.65-.08,7-3.73-5.77-1.79-12.18-2.09-18.33C276.53,220.91,275.06,225.12,275.42,229Z"/><path class="cls-34" d="M263.87,137.79l-.18,40.71c-2.15-2.09-1.93-4.81-1.93-7.45,0-4.39-.27-9.05-6.11-8.78-5,.24-4.83,4.58-5.35,8.5-2.94,22.2-2.1,44.5-2.28,66.78,0,4.06,1.08,8.42-2.17,11.93.92-39.48-3.66-79.3,7.39-118.67C258.19,131.35,258.51,138.7,263.87,137.79Z"/><path class="cls-40" d="M264.17,251.73l1.86,1.73c5.92-1.66,10.16-7.16,16.75-7.28,4.12.88,5.39,3.67,5.08,7.54-1.56,9.82-5.1,19.24-3.76,29.65,1.07,8.24-7.73,7.55-12.27,10.69-7.57-.88-12.79,1.63-14.86,9.56-.83,3.17-2.84,5.57-6.61,2.81-4.9-7.33,1.36-14.66,0-22-3.76-20.19,1.84-40.39,0-60.57-.54-5.73,1-10,6.22-12.6,4.38,12.37-.27,26,5.19,38.19C263.09,249.6,263.25,251.08,264.17,251.73Z"/><path class="cls-67" d="M250.36,306.43c7.67-3.84,7.22-12.8,11.95-18.88,2.44,2.37,4.1,6.25,8.53,5.18.16.48.33,1,.49,1.46-1.44,3.31-3.63,4.92-7.27,3.13-6,4.06-3.86,15.12-13.67,15.92Z"/><path class="cls-74" d="M264.17,251.73l-2.46-2.29c1.17-9.07-2.31-18.52,2.26-27.3Q264.08,236.93,264.17,251.73Z"/><path class="cls-67" d="M270.84,292.73c2.51-2.53,6.65-16.59,8.62-22.07,2-5.65.91-13,7.46-16.69.58-1.23,1.31-1.27,2.19-.29l36.48.43c3,1.68,3.62,3.95.79,6.09-9.3,7-9.3,17.27-9.71,27.31-.22,5.33.38,10.71-6.25,12.75-5,0-9.66,2.3-14.68,2.05-3.2-.31-5.95-2.14-9.08-2.71-2,4.51-8.13-4.93-9.2,2.72a3,3,0,0,1-2.79-.2c-3.19-2.32-1.71-6.53-3.77-9.31Z"/><path class="cls-67" d="M318.68,306.5c-6.18.83-7.92,7.69-13.22,9.81-.57.24-1.16,2.32-.83,2.65,10.51,10.66,3.68,18.5-4.15,26.19-8.3,0-16.6,0-24.91,0-3.34,0-6.67.28-9.37-2.73s-5.56-10.38-9-.29c-.73,2.11-2.34.34-3.47-.62-3.41-2.87-4.33-6.32-1.69-9.93,1.31-1.78,2.27-6.34,5.39-4,11.51,8.46,15.43-1,19.95-8.71,4.31,2.75.81,12.81,9.92,9.18-7.78-10.79-6-15.27,7.23-18.68,2.1-.54,4-1.86,6-2.83Q309.59,299.29,318.68,306.5Z"/><path class="cls-76" d="M318.68,306.5l-18.2,0c-5.13-1.24-13.24,3.49-13.82-6.88,2.32-2.63,4.69-2.73,7.12-.15.21.43.42.87.64,1.3,6.88,2.24,13.88-1.45,20.76.43a27.36,27.36,0,0,1,5.76,2.92c0,.77,0,1.53,0,2.3C320.2,306.42,319.44,306.45,318.68,306.5Z"/><path class="cls-77" d="M275.53,301.72l1.93.6c-.38,3.68-1.9,6.28-6.07,6.29-4.36,0-6.79-2.15-7.17-6.53C267.88,298.57,271.66,298.6,275.53,301.72Z"/><path class="cls-78" d="M275.53,301.72l-11.31.36c-.05-1.59-.11-3.18-.16-4.76l6.84-4.51C276.46,293.69,275.21,298.11,275.53,301.72Z"/><path class="cls-67" d="M250.36,315.53l12.77,3c-4.81,1.54-10.22,5.82-12.77-3Z"/><path class="cls-79" d="M254.94,363.41l11.38,0c0,.74,0,1.49,0,2.23-4.4,6.77-7.44,14.07-5.69,22.22a13,13,0,0,1-1.12,9.65C256.77,386.29,253.28,375.2,254.94,363.41Z"/><path class="cls-30" d="M457.67,347.42l-22.17-2.83c14.55-11.23,14.73-16,1.05-24.58,1.61-5.16,8.57,1.88,9.75-4.28a3.38,3.38,0,0,1,2.47-1.2,5.11,5.11,0,0,1,4.36,3.31C467.17,325.78,457.08,337.42,457.67,347.42Z"/><path class="cls-63" d="M453.13,317.84l-4.6-2.08c9.82-5.58,19.69-5.32,29.6-.26l.13.14C470.43,322.59,461.47,316.66,453.13,317.84Z"/><path class="cls-80" d="M309.54,297.35c4.91-1,3.95-4,3.33-7.69-1.58-9.45,2.52-18,4.32-27,1.27-6.33,11.32-.73,8.4-8.56l20.55.1c6,1.93,9.14,5,4.45,11.2-7.87,7.19-4.72,18.25-9.34,26.59-1.49,2.69-2.23,7.4-5.79,1.34-1.82-3.11-4.86-3.22-6,0-1.95,5.65-6.93,4.79-10.84,6.31a6.11,6.11,0,0,1-4.38,2.08,6.77,6.77,0,0,1-4.72-1.34A2.46,2.46,0,0,1,309.54,297.35Z"/><path class="cls-57" d="M350.59,265.41a11.36,11.36,0,0,0-4.45-11.2l27.35-.43a15.77,15.77,0,0,1,11.18,0l41.1.3c-4.87,4-10.62,1.51-15.94,2.21-7.89,5.83-16.87,4.95-25.72,3.84-3.73-.46-7.27-1.42-10.73.72C364.29,274.2,358.18,275.41,350.59,265.41Z"/><path class="cls-81" d="M325,245.18l112.42-.76c3.24-.62,6.52-1.66,9.49.85l-16.61,1.91a479.6,479.6,0,0,1-72.91.07c-10.19-.68-20.39-1.5-30.6-.39A1.75,1.75,0,0,1,325,245.18Z"/><path class="cls-82" d="M357.43,247.25l72.91-.07c-4.18,3.74-9.32,2.41-14,2.17C396.72,248.34,376.91,252.14,357.43,247.25Z"/><path class="cls-83" d="M471.77,238.12l-.38-9c2.31-3.58.3-7.7,1.42-11.43a4.75,4.75,0,0,1,3.77-3.07c5.73,2.62,2.6,8,3.81,12.07.09,4.44.52,9-4.53,11.44Z"/><path class="cls-82" d="M325,245.18l1.79,1.68c-9.81.12-19.63.33-29.44.33-4.61,0-8.43.61-8.28,6.49a14.94,14.94,0,0,1-2.19.29,7.6,7.6,0,0,0-4.55-6.71q-2.1-1.23.23-1.95l11.24-.64c7.55-1.31,15.09-1.72,22.6.24Z"/><path class="cls-84" d="M447,245.27l-9.49-.85c9.44-3.73,19.28-.92,28.89-1.79C460.35,246.92,453.49,244.92,447,245.27Z"/><path class="cls-82" d="M384.67,253.8l-11.18,0C377.22,251,381,251,384.67,253.8Z"/><path class="cls-85" d="M373.38,260.87c11.24-8.77,24.33-2.84,36.45-4.56-.82,2.51-.72,4.32,2.65,4.55,3.63.26,7.57-1,14,4.84C409,260.77,404.69,280.39,390.08,278c-4.25-.69-6.05,3.17-6.32,6.5-.47,5.66,5.34,2.25,7.51,4.55l-6.47,3.62a47.84,47.84,0,0,1-18.25-2.24c3.11-8.06,4.31-16.9,9.91-24C379.7,262.42,378.38,260.58,373.38,260.87Z"/><path class="cls-86" d="M478.13,315.5l-29.6.26-1.12-.09-1.11.06-4.71-2.55a5.89,5.89,0,0,1,2.7-4.1c4.53-2.38,9.53-1.83,14.2-1.36,7.1.73,12.06-1.37,14.92-8,.3-1.42.59-2.83.89-4.25C484.24,300.5,480.7,308.09,478.13,315.5Z"/><path class="cls-87" d="M441.81,290.65l4.46,0c8.23,2.76,17-.82,25.18,2.06.08,2.09.15,4.18.23,6.28,2,7.38-3,8.25-8.22,8.51-6.37.32-12.75.5-19.12,1.08-3.94.25-7.15-2.56-11-2.6-18.59-1.83-37.43,1-55.9-3a13.64,13.64,0,0,1-3.66-.38c-2.13-7.06,5.39-2.33,6.55-5.36l4.44.17c11.91,2.23,23.93.41,35.89,1.05,4.08.22,8.27-.88,12.23.92,2.47,0,5,.17,6.79-2C441.88,295.61,439.3,292.31,441.81,290.65Z"/><path class="cls-88" d="M443.3,306.72c6.34-2.9,13.17-2.13,19.82-2.52,3.95-.23,7.62-.33,8.56-5.23a5,5,0,0,0,1.73.76c2.69,8.57-.29,11.78-9.29,10.93-6.63-.63-13.39.1-20.09.22A3.27,3.27,0,0,1,443.3,306.72Z"/><path class="cls-89" d="M432.86,299.4c-16-.84-32.25,2.73-48.12-2C400.78,298,417,295.13,432.86,299.4Z"/><path class="cls-90" d="M373.63,303.9c-6.92,1.36-10.26-1.17-9.19-8.48l6.71-.16c0,.71,0,1.43,0,2.14,1.66,1,1,3.2,2.31,4.39h0c.75.41,1,.86.82,1.35S373.87,303.9,373.63,303.9Z"/><path class="cls-91" d="M471.45,292.69c-8.37-.94-17.06,2-25.18-2.06C454.68,291.14,463.35,288.41,471.45,292.69Z"/><path class="cls-91" d="M441.81,290.65c-.54,2.3,3.06,5.93-2.16,6.72C440.28,295.1,435.25,291,441.81,290.65Z"/><path class="cls-89" d="M373.48,301.79c-1.87-.88-2.32-2.52-2.31-4.39l9.13-.14Z"/><path class="cls-92" d="M480.39,226.67c-3.77-2.92-.69-8.52-4.48-11.43-5.12-5.55-2.82-12.46-3.42-18.84,0-21.59-.05-43.17,0-64.76,0-4.84-.82-9.94,2.79-14.12,1.95-4.82-2.35-14.38,4.74-14.07s5.38,9.79,4.57,15.2c-3.78,25.53-1.19,51.16-1.88,76.72-.26,9.64-3.34,19.3-.14,29C481.86,225.11,481.13,225.89,480.39,226.67Z"/><path class="cls-93" d="M473.45,105.81c-.05,1.58-.09,3.15-.13,4.73a8.43,8.43,0,0,1-7.07,2.66c-14.11-7.81-29.62-8.31-45.15-8.35-10.27,0-20.24-1.9-30.24-3.86A3.89,3.89,0,0,1,389,97.64c10.69-4.18,21.81-.94,32.69-1.87,4.05-.35,8.15-.06,12.23-.06,9.37-.56,18.81,1.1,28.16-1.06,3.6-.83,6.61.87,8.82,3.82C472.31,100.71,472.12,103.53,473.45,105.81Z"/><path class="cls-94" d="M475.32,117.52q.12,39.67.25,79.36A2.51,2.51,0,0,1,472,196c-2.67-4.55-1.54-9.57-1.8-14.43,0-17.37-.09-34.73.07-52.09,0-4.4-.83-9.25,3.68-12.39A5.49,5.49,0,0,1,475.32,117.52Z"/><path class="cls-95" d="M474,117.1q-.37,33.06-.76,66.13c-6.42-1.29-5.05-6.61-5.14-10.72-.3-14.58-.11-29.17-.12-43.76,0-4.87.05-9.74-1.91-14.35a4.77,4.77,0,0,1,.75-3.89l6.54,0Z"/><path class="cls-96" d="M473.45,105.81l-2.28-4.15c-5.89-7,.32-9,4.75-11.77,3-.54,5.62-.08,7.63,2.41C478.69,95.68,473.06,98.49,473.45,105.81Z"/><path class="cls-97" d="M435.21,96.65c-11.72.06-23.43.09-35.14.23-3.7,0-7.65-.85-10.74,2.24-5.08,7-12.05,3.88-18.51,3.43-3.67.07-7.34.31-10.94-.68-3-1.79-7.56-2.08-7-7.28l47.94-.29,33.76.48c.85.17,1.23.51,1.13,1S435.43,96.65,435.21,96.65Z"/><path class="cls-98" d="M435.21,96.65c-.21-.63-.41-1.25-.63-1.87h24.56c-6.51-4.07-11.67-1.2-16.21-5.09h24.42l8.57.2c-.33,4.43-8,5.88-4.75,11.77C460.16,92.94,447.18,98.4,435.21,96.65Z"/><path class="cls-99" d="M298.22,99.12c-2.87-3.83-8.5-.73-11.39-4.53h13.66a18.16,18.16,0,0,0,13.65,0h4.64a17.81,17.81,0,0,1,13.55,0l9.16,0c5.12,2.65,11,2.23,16.32,4.1,3.51,3.28,8.14,3.7,12.43,5.13,16.54,5.5,22.3,20,13.72,35.23-4.06,7.2-5.87,15.91-12.87,21.23-6.4,4.87-13.19,9.07-21.86,7.7a8.18,8.18,0,0,1-3.05-1.69c-3.84-7,3.52-9.79,5.53-14.59a50.73,50.73,0,0,1,11.21-13.88c7.67-7,7.1-14-1-20.35-5.6-4.4-9-12.72-18.4-10.44a15.78,15.78,0,0,1-4.92-1.16c-3.07-1.75-6.15-3.46-9.88-3.3C318.6,101,307.75,105.88,298.22,99.12Z"/><path class="cls-70" d="M357.42,99.15c-5.75,0-11.62.46-15.93-4.56h11.39l6.83,4.53C359,100.17,358.2,100.13,357.42,99.15Z"/><path class="cls-100" d="M314.14,94.59q-6.83,5-13.65,0Z"/><path class="cls-101" d="M332.33,94.57H318.78C323.29,91.26,327.81,91.58,332.33,94.57Z"/><path class="cls-102" d="M443.3,306.72c.24,1.39.49,2.77.73,4.16l-2.44,2.3c-2.78-.12-6.65.88-4.44-4.33-13.6-.92-27.21.41-40.8-.2C392.45,308.47,388,310,385,306a9.57,9.57,0,0,1-.38-1.58c16.7-2.7,33.44-1.51,50.19-.58C437.78,304.35,441,304.33,443.3,306.72Z"/><path class="cls-103" d="M385,306c14.68.1,29.36,0,44,.48,2.62.08,6.79-2.8,8.16,2.38l-4.55.14c-16.47,1.9-33,.28-49.47.88-4.07.15-8.27-1-12.2,1l-.92,0h-.91C372.39,302.58,379.89,308.26,385,306Z"/><path class="cls-89" d="M434.79,303.83l-50.19.58-11-.51a13.47,13.47,0,0,1-.14-2.1c16.46,0,32.93,0,49.4.11C426.91,301.94,431.2,300.91,434.79,303.83Z"/><path class="cls-104" d="M341.48,306.44a7.79,7.79,0,0,0-9.09,0L327,302.62C339.58,297.61,342.32,298.33,341.48,306.44Z"/><path class="cls-105" d="M314.16,299.76l4.49-.14c.77,1.49,1.53,3,2.29,4.48h-6.78A2.81,2.81,0,0,1,314.16,299.76Z"/><path class="cls-106" d="M370.94,310.85c12.43-4.48,25.3-1.25,37.94-2,7.88-.48,15.82.07,23.73.16-5,3.56-10.63,1.35-15.95,2H393.89Z"/><path class="cls-107" d="M314.15,233.53c-4.92-1.64-9.19-7.35-15.18-2.22-1.18,1-3.49,1-3.86-.6-2.63-11.16-16.61-17.65-12.85-31.36,1.63-3.6,3.43-8,7.3-2.11,4.31,6.55,11.24,10,16.45,15.5,6.8,7.11,14.93,7,22.82,2.49,6.47-3.72,12.86-6.35,20.42-5a12.4,12.4,0,0,0,11.5-3.71c12-13.56,27.9-13.26,44.9-12.76-1.23-5.3-2.78-10.24-2.7-15.33.1-6.9,1.81-13.86,9.76-14.34,8.32-.51,7,7.19,7.74,12.54.22,1.47-.11,3,.62,4.42,3.63-6.64,3.64-6.64-2.11-16.16-2.54-4.21-5.92-8.42-1.84-13.4,3.72-4.55,8.69-5.57,14.36-4.48,3.8.74,8.22,5.49,11.32.94s1.45-10.07-1-14.64c-3.39-.71-4.38,1.85-6.14,3.06-6.88,4.7-12.27,2.62-12-5.55.38-11-3.06-18-14.48-20.52-3-.65-6.43-3.26-3.13-7.58,6.4-1.1,12.79,1.25,19.2,0,2.93-.58,4.22,1.34,6.29,3.23,4.38,4,9.46,7.31,16,7.71,8.87.54,13,6.65,12.51,14.69-1.44,24.94,4.58,49.74-.23,74.84-3.44,17.91-11.62,26.63-29.57,25.6-11-.64-21.84-1.29-31.85,5-4.23,2.68-9.77,2.05-14.45,1.91C360.7,235,337.38,235.63,314.15,233.53Z"/><path class="cls-108" d="M405.27,103.69a8.51,8.51,0,0,0,6.2,4.42c12.76,2.54,17.23,8.8,15.15,21.34-.47,2.84-.83,5.58,2.13,6.85,3.68,1.58,4.1-2.18,5.56-4.12,2.11-2.8,2.85-7.73,8.13-5.8,4.66,1.71,5.41,5.32,4.86,10-.38,3.26,1.27,6.73,1.07,10-.52,8.72-5.16,11-12.89,6.73a12.48,12.48,0,0,1-1.73-1.47c-5.22-4.26-10.35-2.4-14.33,1.39-4.65,4.42,1.05,8.57,3.1,10.3,10.14,8.58,6.69,16.56.45,25-1.12,1.51-2.11,3.59-4.3,2.41-1-.54-1.77-2.39-1.84-3.7-.25-4.53,0-9.09-.25-13.62-.17-2.67,1.34-6.83-3.43-6.91-3.43-.05-5.44,2.65-5.95,5.89-1.18,7.49-1,14.91,3.58,21.4,1.25,1.77,3.64,2.78,2.21,6.63-10.52-7.8-22.21.21-33.44-2.94-4.14-1.16-5.84,4.17-8.76,6.4-8,6.09-14.9,14.41-27,9.39-3.73-1.55-7.12,1.4-10.28,3.62-11.84,8.32-21,7.49-31.41-2.86-5.28-5.26-12.45-8.52-15.66-16.06-1.21-2.86-2.65,1.14-4.21,1.33v-6.83c11.31-3.8-4.28-7.6,0-11.39,7.94-3.3,10.27,2.32,11.49,8,2.14,9.87,8.22,11.63,16.92,9.85,6.3-1.29,12.57-2.87,19.07-2.86,9.54,1.46,18.53-3.56,28.1-2.35,2.27.29,4-1.85,5.56-3.57,1.26-1.41,1.93-3.72,3.44-4.44,12.15-5.84,17.25-19.11,27.91-26.3,7-4.7,5.62-11.92,7-18.3,1.16-5.41,0-11.21,4.93-15.75,2.72-2.5-1.34-9.9-5.23-9.78-7.74.24-13.24-2.42-15.34-10.36a4.21,4.21,0,0,1,1.53-2.87C393.69,100.38,399.71,99,405.27,103.69Z"/><path class="cls-109" d="M405.27,103.69a41.79,41.79,0,0,0-18.22,0c-1.3-4.34,3.43-2.63,4.54-4.54,19.83,1.17,39.65,2.5,59.49,3.42,6.64.31,11.47,3.32,15.7,8,0,.75,0,1.51,0,2.26,4.94,12.23,2.12,25.19,2.94,37.73.95,14.43-.9,29,1.2,43.56a9.62,9.62,0,0,1-4.17,9.85c1.11,9.14-7.18,18-.47,27.59,1.54,2.2-1.68,4.66-4.93,6.08-7.17,3.11-14.52,2.71-21.93,2.76-4.16-2.6-8.4-.36-12.6-.17-6.39-1.68-13.09-.81-19.57-2.69-3.62-1-8.23-1.16-11.12,2.88h0c-23.25-3.9-46.77-3.52-70.2-4.57-4-.19-8.38,1.09-11.81-2.26,7.26-3.23,14.33-1.18,21.82-.39,14.27,1.52,29,2.3,43.11.42,7.75-1,16.57-.73,24-6.37,6.76-5.16,15.74-4.18,23.71-2.77,18.14,3.2,25.6-4.81,29.22-22.67,5-24.75-3.1-48.95.52-73.39,1-6.84-2.63-12.26-11.63-11.17-5.2.63-9.24.67-12.8-6.65C427.12,100.37,414.66,104.84,405.27,103.69Z"/><path class="cls-93" d="M466.78,203.91c2.85-30.38-.08-60.76,0-91.14,5.79,1.46,4.44,6.22,4.47,10.11.11,16.13,0,32.27.08,48.4,0,4-1,8.32,1.84,11.95q.39,7,.77,14c1.34,2.69.63,5.54.65,8.33-1.12,2.5-.57,5.76-3.41,7.49Q469,208.49,466.78,203.91Z"/><path class="cls-68" d="M396.16,240.36c.42-3.75,2.32-6.69,6.2-6.54,8,.31,16,.89,23.41,4.27.17,5.32-4,2.9-6.32,3.33-3.91.72-8.09-1-11.89,1.17Z"/><path class="cls-84" d="M407.56,242.59c5.21-5,13,.55,18.21-4.5,4.6.54,9.62-1.51,13.68,2.26C428.88,241.85,418.31,243.42,407.56,242.59Z"/><path class="cls-81" d="M316.44,244.91l-22.6-.24A4.65,4.65,0,0,0,293,243C300.85,243.18,308.94,240.5,316.44,244.91Z"/><path class="cls-84" d="M471.21,213.06c.16-2.44,0-4.95,2-6.87,2.78,3.61,1.7,7.43.63,11.26-1.59,3.72.58,8.22-2.42,11.65Z"/><path class="cls-110" d="M330.1,199.36c-7.48,2.08-15.37,1.64-22.78,5-6.7,3-17.8-4.84-17.16-12.22.61-6.92-1.84-9.77-7.9-11-2.79-15.06-6.31-30-4.56-45.55,0-.77,0-1.54,0-2.3,2.53-1.2,4.21.21,5.83,1.86a9.41,9.41,0,0,1,2.29,7.3c-2.1,11.57,6,19.94,8.77,29.94,1.47,5.3,6.05,6.07,10.21,7.55,15.83.21,31.83,4,46-8.26,6.73-5.86,16.09-6.76,23.25,1.76,2.57,9.38-5.28,11.5-10.75,12.31-7.51,1.12-13.79,3.43-18.75,8.83C340.47,199,334.33,196.08,330.1,199.36Z"/><path class="cls-100" d="M298.22,99.12h34.16a4.16,4.16,0,0,1,.22,5.35c-1.88,2-4.47,2.31-6.91,3-5.3-.4-10.63,1-15.92-.07-8.09-2.26-13.64,1.6-18.27,7.67a8.4,8.4,0,0,1-2.75,1.62,6.52,6.52,0,0,1-4.72-.58c-2.9-2.8-3.25-5.46.5-7.84C286.15,100.77,293.73,102.27,298.22,99.12Z"/><path class="cls-111" d="M284.53,108.23a6.49,6.49,0,0,0,0,6.84,6.39,6.39,0,0,1,2,4.28c-1.75,4.93-.42,10.49-3,15.27l-1.27,1-4.52-2.31C278.63,124.56,274.69,114.52,284.53,108.23Z"/><path class="cls-112" d="M282.6,245.31a11.78,11.78,0,0,0-.23,1.95c-5.16,2.83-9.53,7.71-16.33,6.2C270.4,248.4,274.77,243.33,282.6,245.31Z"/><path class="cls-76" d="M309.54,297.35c0,.74,0,1.49.06,2.24-5.32,3.41-10.63,6.75-16,0l.16-.18Z"/><path class="cls-113" d="M293.62,299.63c5.34,4.8,10.65.6,16,0l4.56.17v4.34c-6.63,0-13.29.31-19.89-.15C290.31,303.68,288,302,293.62,299.63Z"/><path class="cls-56" d="M473.81,217.45l-.63-11.26q.4-4.49.79-8.95c.54-.1,1.07-.22,1.6-.36q.17,9.18.34,18.36Z"/><path class="cls-108" d="M391.59,99.14l-4.54,4.54h0a9.12,9.12,0,0,1-4.88,3.18,17,17,0,0,1-11.54-2.13c-3.63-2.09-1.85-3.9.46-5.59a42.55,42.55,0,0,0,18.25,0Z"/><path class="cls-101" d="M371.08,99.15c.6,9.56,7.86,2.37,11.41,4.54,7.44,3.88,10.05,12.4,16.67,17.28,3.08,2.28,3.53,7.37,1.48,10.61-7.17,11.35-9.22,24.9-16.26,36.23-2.5,4-5.62,7.24-11,6.49-11.13-5.83-20.14-2.29-28.5,5.91-3.72,3.65-9.07,3.35-13.93,3.43-9.39.16-18.82,2.23-28.19-.23,3.36-5.79,9.16-6.22,14.8-6.25,11.86-.06,22-4.21,30.77-12,12.93-1,23.31-5.48,27.45-19.28,1.06-3.51,3.58-6.6,5.52-9.82,7-11.6,1.23-27.27-12.07-28.74-6.7-.74-8.89-4-11.81-8.2l2.29,0Z"/><path class="cls-114" d="M325.54,103.68h6.83c2.28-1.92,4.56-1.64,6.85,0h4.54c8.25,3.45,12.75,10.88,16.68,17.93,4.22,7.56-.68,14.85-5.29,20.79-5,6.45-12.44,9.15-20.37,11.42-7.59,2.18-13.95,6.51-22.11.32-5.51-4.18-11.18,2.25-16.92,3.32a5.51,5.51,0,0,1-3.18-1.32c-2.66-7-5.83-14-4.79-21.86,4-4.26,7.85-1.63,10.79,1.06,5.95,5.44,12.49,4.31,19,2.43,4-1.14,7.67-3.1,11.83-3.65,4.81-.64,9-2.74,10.4-7.49,1.64-5.42-2.36-9-5.47-12.77C331.49,110.39,324.52,110.48,325.54,103.68Z"/><path class="cls-115" d="M295.93,156.08c4.94-9.42,13-8.94,19.91-4.2,6.12,4.18,9.76,4.46,13.86-1.61.72-1.06,2.51-2.32,3.54-2.12,15.83,3,19.85-8.91,25-19.47,1.36-2.78,1.19-5-1.4-6.93-6.24-4.65-8.62-12.13-13.11-18.07,7.42-.51,14.56-.48,17.18,8.59.45,1.59,1.56,2.13,3.07,2.78,10.06,4.3,11.94,19.63,2.37,25.48-5.66,3.46-8.68,7.84-11.23,13.27-4.37,2.16-9.13,3.69-13.11,6.48-14.18,10-28.59,2.53-42.89.8A3.73,3.73,0,0,1,295.93,156.08Z"/><path class="cls-111" d="M348.33,165.19c-4.3,12.17-14.53,15.1-25.67,15.79-6.72.41-13.42.32-19.9,2.43-7-1.62-13.92-3.27-12.18-13.11a3.84,3.84,0,0,0-1-3.1c-10.64-8.67-6.18-20.79-7.36-31.61l0,0c10.37,2.31,7,11.6,9.17,18.06,6.24,10.43,22.94,16.73,34.2,12.21a28.33,28.33,0,0,1,20.39-.65Z"/><path class="cls-116" d="M346,165.18c-16.57,2-33.16,10.62-49.66-1-3.27-2.3-5.08-5.22-7.28-8.12a3.07,3.07,0,0,1,4.55,0h2.28c3.39,3,7.26,4.25,11.44,2.13,4.35-2.2,7.7-2.23,10.56,2.37s6,3.83,10.52,1.39c8.23-4.49,16.86-8.55,26.7-8.17C352.72,158.08,347.32,160,346,165.18Z"/><path class="cls-115" d="M339.22,103.67h-6.85c0-1.51,0-3,0-4.54A7.4,7.4,0,0,1,339.22,103.67Z"/><path class="cls-117" d="M373.38,174.3c8.41-4.65,10.51-13.56,13.88-21.38,3.05-7.08,3-15.3,9.9-20.95,2.72-2.21,2.49-8.62-1-10.16-8.29-3.7-7.82-13.17-13.71-18.12H387c7.66,9.42,7.66,9.42,24.9,7.25-12.86,11,9.61,8.12,5,16.45-9.55-2.23-11.22,1.47-11,11.92.14,9.14,1.74,22.85-13.49,25.51-3.18,12.23-15.32,15.61-22.59,23.52-5.81,6.33-8.74,12.12-18.74,9.15-6.78-2-13.6,4.91-21,1.87,12.4-2,16-20.56,32.13-16.49C367,184.09,372.47,180.84,373.38,174.3Z"/><path class="cls-118" d="M325.54,103.68c5,4.54,11.95,6.59,15.64,12.82,2,3.44,6.78,6.26,3.85,10.82s-5.28,10.57-12.23,10.44c-5.09-.1-9.62,1.32-14.19,3.38-11.86,5.35-20.53-1.94-29.49-7.87A6.36,6.36,0,0,1,287,130.8c-1.07-5.47-1.06-10.82,2.14-15.72h0c1.64-2.46,3.55-4.33,6.84-2.95,2,2.13,1.81,4.86,1.88,7.46.22,7.82,4.27,11.52,12,12,8.1.53,12.8-4.08,15.76-10.55,2.37-5.18-2.74-4.19-5.17-4.61-7.24-1.26-15.29.36-20.91-6.3-1.31-6.92,5.37-4.13,7.84-6.46Z"/><path class="cls-114" d="M295.93,112.8l-6.83,2.27c2.78-9,8.74-13,18.22-11.39-1.88,2.68-6.84,2.28-6.83,6.84C300.51,114.35,298.56,114.26,295.93,112.8Z"/><path class="cls-114" d="M289.1,115.08q0,8,0,15.93c-7.88-1.25-3-7.6-4.55-11.38,0-1.52,0-3,0-4.56Z"/><path class="cls-115" d="M284.54,119.63c3.84,2.86.7,8.52,4.55,11.38l0,2.26c1.49,7.61,5.66,14.67,4.53,22.8H289.1c-.79-7.33-.3-15.09-6.82-20.51C283.5,130.32,277.93,124.11,284.54,119.63Z"/><path class="cls-119" d="M295.93,112.8l4.56-2.28c9.18,1.14,18.39,2,27.52,3.53,4.72.77,6.55,2.65,2.18,7.31-5.34,5.7-6.77,14.83-18,14.46C295.9,135.28,290.73,128.84,295.93,112.8Z"/></g><rect class="cls-120" width="749" height="460"/><path class="cls-121" d="M206.13,210.12v6.63h5.32v5.91h-5.32v13.78c0,2.2,1.07,3.25,3.38,3.25a12.68,12.68,0,0,0,1.91-.14v5.78a18,18,0,0,1-3.73.32c-6.77,0-9.4-2.26-9.4-7.87V222.66h-4.06v-5.91h4.06v-6.63Z"/><path class="cls-121" d="M241.61,236.73c-.86,5.64-6,9.43-13.14,9.43-8.86,0-14.18-5.67-14.18-14.88s5.38-15.14,13.89-15.14,13.67,5.66,13.67,14.42V233H222v.48c0,4.11,2.61,6.93,6.61,6.93,2.87,0,5.07-1.42,5.8-3.63Zm-19.53-8.59H234.3c-.16-3.68-2.55-6.2-6-6.2S222.35,224.54,222.08,228.14Z"/><path class="cls-121" d="M245.88,216.75h7.57V222h.16a8.46,8.46,0,0,1,8.22-5.74c4.16,0,7.06,2.14,8,5.9H270a9.12,9.12,0,0,1,8.94-5.9c5.64,0,9.43,3.86,9.43,9.66v19.66h-7.84v-17.7c0-3.33-1.67-5.15-4.7-5.15s-4.94,2.17-4.94,5.37v17.48h-7.55V227.6c0-3.09-1.75-4.91-4.65-4.91s-5,2.25-5,5.48v17.37h-7.84Z"/><path class="cls-121" d="M292.25,237.27c0-5.24,4-8.27,11.2-8.7l7.25-.43v-1.91c0-2.68-1.87-4.24-4.83-4.24s-4.78,1.45-5.16,3.57h-7.17c.3-5.58,5-9.42,12.68-9.42,7.38,0,12.19,3.81,12.19,9.61v19.79h-7.57v-4.4h-.16A9.9,9.9,0,0,1,301.9,246C296.42,246,292.25,242.45,292.25,237.27ZM310.7,235v-2.1l-6.06.38c-2.93.21-4.6,1.53-4.6,3.57s1.78,3.49,4.43,3.49C307.88,240.33,310.7,238.1,310.7,235Z"/><path class="cls-121" d="M324.24,233.22v-6.85h17.64v6.85Z"/><path class="cls-121" d="M347.44,226.1c0-12.52,6.05-20.2,15.82-20.2s15.79,7.66,15.79,20.17-6,20.33-15.79,20.33S347.44,238.64,347.44,226.1Zm23.37,0c0-8.84-2.8-13.7-7.55-13.7s-7.57,4.89-7.57,13.7,2.79,13.8,7.57,13.8S370.81,235,370.81,226.1Z"/><path class="cls-121" d="M383.51,226.1c0-12.52,6-20.2,15.82-20.2s15.79,7.66,15.79,20.17-6,20.33-15.79,20.33S383.51,238.64,383.51,226.1Zm23.36,0c0-8.84-2.79-13.7-7.54-13.7s-7.58,4.89-7.58,13.7,2.8,13.8,7.58,13.8S406.87,235,406.87,226.1Z"/><path class="cls-121" d="M416.11,254.27v-5.85H441.6v5.85Z"/><path class="cls-121" d="M442.86,208.83a4.08,4.08,0,1,1,4.08,4A4,4,0,0,1,442.86,208.83Zm.19,7.92h7.84v28.79h-7.84Z"/><path class="cls-121" d="M456.1,216.75h7.57v5.13h.16c1.54-3.57,4.57-5.66,9-5.66,6.39,0,10,4,10,10.77v18.55H475V228.62c0-3.76-1.77-5.9-5.29-5.9s-5.75,2.57-5.75,6.31v16.51H456.1Z"/><path class="cls-121" d="M497.73,210.12v6.63H503v5.91h-5.31v13.78c0,2.2,1.07,3.25,3.38,3.25a12.79,12.79,0,0,0,1.91-.14v5.78a18,18,0,0,1-3.74.32c-6.76,0-9.4-2.26-9.4-7.87V222.66h-4.05v-5.91h4.05v-6.63Z"/><path class="cls-121" d="M507.34,216.75h7.57v5.19h.17c1-3.66,3.46-5.64,6.84-5.64a8,8,0,0,1,2.23.29v6.9a8.26,8.26,0,0,0-2.84-.45c-3.87,0-6.13,2.36-6.13,6.42v16.08h-7.84Z"/><path class="cls-121" d="M525.36,231.12c0-9.32,5.64-15,14.26-15s14.26,5.64,14.26,15-5.56,15-14.26,15S525.36,240.57,525.36,231.12Zm20.55,0c0-5.72-2.48-9-6.29-9s-6.31,3.31-6.31,9,2.44,9,6.31,9S545.91,236.92,545.91,231.15Z"/></svg>
