<svg id="Layer_1" data-name="Layer 1" xmlns="http://www.w3.org/2000/svg" width="1440" height="587" viewBox="0 0 1440 587"><defs><style>.cls-1{fill:#969795;}.cls-2{fill:#a7a7a5;}.cls-3{fill:#babcb9;}.cls-4{fill:#b0b2af;}.cls-5{fill:#b6b9b2;}.cls-6{fill:#989896;}.cls-7{fill:#8e908b;}.cls-8{fill:#ababa9;}.cls-9{fill:#e3e6de;}.cls-10{fill:#cbcdc6;}.cls-11{fill:#b4b6b0;}.cls-12{fill:#eaeaea;}.cls-13{fill:#e6e7e1;}.cls-14{fill:#ebede7;}.cls-15{fill:#929490;}.cls-16{fill:#8b8c87;}.cls-17{fill:#787875;}.cls-18{fill:#bcbcb8;}.cls-19{fill:#d5d6d1;}.cls-20{fill:#848681;}.cls-21{fill:#f4f6f1;}.cls-22{fill:#ebeee7;}.cls-23{fill:#f2f2f3;}.cls-24{fill:#d3d5cd;}.cls-25{fill:#a1a39d;}.cls-26{fill:#afb2aa;}.cls-27{fill:#f0f1ec;}.cls-28{fill:#e7e9e2;}.cls-29{fill:#dcdfd7;}.cls-30{fill:#d6d8d1;}.cls-31{fill:#f2f4ee;}.cls-32{fill:#1b1b1e;}.cls-33{fill:#5e5d5e;}.cls-34{fill:#fbfdf8;}.cls-35{fill:#08070c;}.cls-36{fill:#e2e4df;}.cls-37{fill:#bdbeb8;}.cls-38{fill:#eeefef;}.cls-39{fill:#a5a7a2;}.cls-40{fill:#d5d6ce;}.cls-41{fill:#d3d2d1;}.cls-42{fill:#f6f5f5;}.cls-43{fill:#ecede6;}.cls-44{fill:#1e1d22;}.cls-45{fill:#141315;}.cls-46{fill:#1b1a1f;}.cls-47{fill:#19181c;}.cls-48{fill:#010104;}.cls-49{fill:#232323;}.cls-50{fill:#18171c;}.cls-51{fill:#222126;}.cls-52{fill:#323136;}.cls-53{fill:#2c2b2f;}.cls-54{fill:#242328;}.cls-55{fill:#28272c;}.cls-56{fill:#3e3d42;}.cls-57{fill:#1e1d21;}.cls-58{fill:#27262b;}.cls-59{fill:#3a393e;}.cls-60{fill:#37363b;}.cls-61{fill:#26252a;}.cls-62{fill:#e86868;opacity:0.8;}.cls-63{fill:#fff;}</style></defs><title>tema_2_button_1</title><path class="cls-1" d="M1169.26,389.76c-.12-10-7.56-8.49-13.75-8.49q-84.12,0-168.25.15c-7.71-1.51-11.66-6.87-14.16-13.75a3.27,3.27,0,0,1,1.39.09,7.11,7.11,0,0,1,4.18-2.31,9.52,9.52,0,0,1,6.91,2c4.61,3.53,10,4.41,15.59,4.4,51.82-.16,103.64.53,155.43-.37,8.43-.94,16.48,0,23.68,5,.36.5.71,1,1.07,1.54a10.51,10.51,0,0,1,.73,3.42c.16,1.52,13.61-6.72,14.81-5.43.93.68-3.52,1.91-2.76,2.76.75,1-7.23,11.55-7.2,12.81a5.6,5.6,0,0,1-2.21,3,12.71,12.71,0,0,1-9.88,1C1171.93,394.67,1170.35,392.45,1169.26,389.76Z"/><path class="cls-2" d="M989.92,108.2q149.75.14,299.48.28c7.78,0,15.56.24,23.34.37,1.25,6.09-1.35,9.25-7.42,9.78-38.55-1.24-77.1-.34-115.65-.49-52.1-.2-104.21-1.31-156.31-.13-3.21.07-6.48.21-9.59-.67-15.95-4.53-30.74-1.2-44.92,6.45a6.61,6.61,0,0,1-4.66-1.36C977.08,115.08,982.24,110.25,989.92,108.2Z"/><path class="cls-3" d="M974.19,122.43a8.93,8.93,0,0,0,1.71-.1c5.83,4.24,4.4,10.54,4.42,16.3q.13,50.46,0,100.92c-.25,19.6.43,39.21-.39,58.81a11.73,11.73,0,0,1-1.78,4.74,3.32,3.32,0,0,1-4.41,1.17C973.3,243.66,972,183,974.19,122.43Z"/><path class="cls-4" d="M973.78,304.27c.72,0,1.44,0,2.16,0a9.33,9.33,0,0,1,4.25,8c.33,15.31.16,30.62.11,45.93a12.49,12.49,0,0,1-4.52,9.43l-1.29.17C972.09,346.62,973.26,325.44,973.78,304.27Z"/><path class="cls-5" d="M1306.63,116.36c3.49-1.33,4.32-4.81,6.11-7.51l46.71-.12,13.9,10.91c.15,1.54.31,3.08.46,4.61,2.21,28.76.56,57.56.93,86.34.28,22,.19,43.93-.07,65.9-.05,4,2.62,9.4-3.55,11.79-5.43-3.77-4.4-9.59-4.48-14.9-.22-14.07-.07-28.14-.09-42.2-2-22.94,3.4-45.6,2.84-67.45-3.31,7.37,5.74,17.89-4.54,25.1-6.18-6.53-3.18-14.66-3.74-22.13-.64-8.59.7-17.26-1-25.8-.8-3.51-1.53-7.05-2.25-10.57-1.46-8.27-8.09-4.52-12.74-5.42-6.87-1.56-13.68-.28-20.52-.21-71.2.81-142.41,1.07-213.61,0-19.71-.31-39.4-1.22-59.11-.22a128,128,0,0,1-31.65-.45c-9.7.43-20,4.18-28-4.9,3.48-7,10.17-5.26,15.62-4.93,29.63,1.79,59.29,1,88.92,1.08,67.24.16,134.48.36,201.72.16C1301.26,115.38,1304,115.1,1306.63,116.36Z"/><path class="cls-6" d="M1373.1,367.57c-.51,6.5-4.48,9.85-10.42,11.38-9.48,2.59-19.16,1.08-28.73,1.13-42.73.2-85.46.12-128.2,0-4.73,0-9.77,1.05-14.1-3.51,48.54-1.94,97-1.93,145.51-1.93-44.84-.07-89.69,0-134.53-.07-4.55,0-9.19.87-13.66-.77,1-9.85,9-7.19,14.41-7.23,42.64-.35,85.29-.23,127.94-.17,6.89,0,13.74-.09,20.46-1.73a33.89,33.89,0,0,1,6.59-.54c3.74.3,7.5-.31,11.26-.37C1371.69,364.22,1372.18,366.09,1373.1,367.57Z"/><path class="cls-7" d="M1188.36,373.17h162l0,2.88H1195.18c0,1,0,1.94,0,2.9h167.48c-8,4.75-16.8,1.33-25.12,2.72l-157.25-.18c0-.88,0-1.76,0-2.64C1181.24,374.45,1183.39,371.82,1188.36,373.17Z"/><path class="cls-8" d="M1373.1,367.57l-2.51-2.58c-6.54-6.91-3.49-15.52-3.93-23.42-.47-8.6-.11-17.25-.11-25.87,1.29-9.36-3.22-19.59,4.22-28,4.1-4.78,2.46-10.55,2.49-15.9q.4-73.75.55-147.52c3.15,4.56,2,9.77,2,14.73q0,104.81-.14,209.6C1375.72,355.05,1375.72,361.48,1373.1,367.57Z"/><path class="cls-9" d="M1241.24,417a8.54,8.54,0,0,1,5.6,5.29c5.11,7.62,7.7,16.59,12.94,24.15a10.84,10.84,0,0,1-.69,7.81c-53.32,58.6-110.36,58.72-165.74,5,.34-10.05-1-20.32,3.92-29.76,1.81-4.77,6.19-7.71,8.6-12,4.55-5.17,9.69-9.51,16.4-11.65,2.57,3.23,1.38,6.46.06,9.71-13.92,20.14-10.61,32.09,11,43.91,19.46,10.64,40.54,9.51,61.21,8.65,15-.63,37.09-24.65,40.08-40.13C1235.49,423.48,1235.65,418.56,1241.24,417Z"/><path class="cls-10" d="M1105.87,417.41c.19,4.7-3.79,7.28-5.56,11-7.19,8.7-3.35,20.89-9.45,29.93a41.2,41.2,0,0,0-.59,6.84c.23,31.43,6.31,36.54,38.82,32.46,9.88-.28,19.7-.48,29.52,1.06,4.68.73,8.77,1.69,11.13,6.21.39,6.61-4.74,5.73-8.55,5.91-25.29,1.18-50.37-1.13-75.22-5.58-9.59-1.71-12.87-9.49-13.13-18.54-.31-10.69,2.51-20.88,5.19-31.07C1083.58,440.16,1092.53,427.18,1105.87,417.41Z"/><path class="cls-11" d="M1078,455.61c1.93,9.74-3.58,18.79-2.53,28.54,1.13,10.59,4.2,18.13,16.85,19.14,25.65,2.06,51.14,7.67,77,2.47,7.68-5.84,16.43-4.2,25-3.6,6.2,2.81,12.81,2.09,19.33,2.17,5.24.36,10.74-.92,15.48,2.53a2.6,2.6,0,0,1,.3,4l.42-.09c-6.42,3.8-13.43,1.6-20.13,1.68-24.31.31-48.64,0-73,.15-15,.07-29.78-3.28-44.74-4.05-11.39-.21-20.14-4-22.27-16.59C1071.14,479.51,1070.71,466.69,1078,455.61Z"/><path class="cls-12" d="M1119.63,414.64l2.64-8.88,4.79-2.47c3.2-.73,5.65-3.54,9.19-3.32,5.89-.42,11.77.71,17.63.32,4.79-.32,8.29,1,9.08,5.95.93,5.72-2.92,8.49-7.74,9.38-8.92,1.64-17.7,4.32-26.92,4.2C1124.82,419.08,1121.49,418.09,1119.63,414.64Z"/><path class="cls-13" d="M1136.45,401l-9.39,2.27c12-11,28.51-7.87,42.2-13.53l5.59,3.11c2.53,3,2.56,5.82-.48,8.46-3.83.34-7.75,0-11.55,1.09C1154.29,396.84,1145.11,403.85,1136.45,401Z"/><path class="cls-13" d="M1188.36,373.17l-8,5.68c-5.83-3.62-14.21.87-19-6-54.2.94-108.41.09-162.61.49-7.23.06-12.29-2.78-16.39-8.26-2.92-4.62-1.93-9.81-1.94-14.79q0-104,0-208.07c0-6.15-2-13.16,4.8-17.55,9.51,4,7.33,12.75,7.36,20,.15,49.95.36,99.91-1,149.86-.33,12-.59,24.37,5.23,35.59.33.75.3,1.68.85,2.09C996.08,276,997.33,220,997,164.06c0-6.89-.09-13.76-1.54-20.55-.86-12.42,6.67-15.44,17.08-15.24,14.83,1.34,29.76-2.57,44.56.77,81.74-1.91,163.5-1.29,245.25-1.44,11,0,22,.12,33,1.68a17.75,17.75,0,0,1,7.88,1.78c2.45,1.91,3.65,4,.89,6.6-6.35,3.85-13.41,2.44-20.18,2.45q-146,.15-292,.11c-6.79,0-13.85-1.29-20.1,2.76a14.55,14.55,0,0,0-3,3.92c1.27,59.15-2.27,118.25-.87,177.38.15,6.33-1.1,13,3.44,18.48,6.22,5.37,13.78,4.3,21.05,4.31q141.75.06,283.51.09c6.79,0,13.81-1.29,20.26,2.15,1.83,12.06-8.33,10.22-13.67,9.65-15.11-1.64-30,.69-45,.55-28.27-.25-56.56.76-84.8-.63-4.86-.24-6.45,1.49-7.8,5.1-1.42,1.1-2.85,2.35-4.77,1.15a5.25,5.25,0,0,1-1.55-2.14,6.66,6.66,0,0,0,1.51,2.81c26.71-6.37,53.8-2.35,80.67-3.38,12.76-.49,25.51-2.13,38.08-2.88,19.5-1.17,39.8-.25,58.41,8.39-4.61,4.39-10.4,2.76-15.72,2.78-46.24.12-92.49,0-138.74.17C1198,370.89,1192.7,369.4,1188.36,373.17Z"/><path class="cls-14" d="M1172.1,400.81c2.74-2,2.73-5,2.75-7.94l11.15-.5c21.09,2.19,39.93,9.42,55.24,24.6a17.34,17.34,0,0,0-1.7,9.17c.47,6.25-3.2,16.06-7.58,18.66-7.51,4.47-9.86,12.86-17.53,18.41-17.83,12.9-34.63,7-52.72,8.18-19.38,1.29-30.08-8.92-43.4-17.29-14-8.81-14.09-28.88,1.32-39.46,3.08,0,6.18,0,8.31,2.8,2.29,23,21,27.5,38,30.44,20.19,3.47,37.83-3.1,47.36-24.92-9.88-.74-18.26-16.2-29-1.22-5,1.35-10-.65-15,.1-9.68-5.39.51-9.74.74-14.63C1170,404.86,1170.24,402.55,1172.1,400.81Z"/><path class="cls-15" d="M987,124.41c-3,2.82-3,6.58-3,10.24q.3,115.13.68,230.26a3.16,3.16,0,0,1-3,2.86l-5.93-.18q.08-31.68.16-63.36c.16-1,.32-1.92.49-2.87,2.29-20.08,1.94-40.16,0-60.25q-.27-59.38-.56-118.78c11.4-10.39,25.44-12.75,39.76-10.77,25.33,3.51,50.74,1.51,76.06,1.94,66.79,1.15,133.61.37,200.41.49,4.88,0,10.2-1.56,14.51,2.37q-148.35.27-296.68.62c-5.81,0-12-1.59-17.32,2.32C992.1,122.45,990.27,124.2,987,124.41Z"/><path class="cls-16" d="M981.71,367.77l3-2.86c5.63,5.79,12.73,6.16,20.27,6.14q70.82-.21,141.63.06c4.94,0,10.13-1.26,14.76,1.75-4,4.4-9.3,3.12-14.19,3.13-48.93.08-97.87,0-146.8.11C992.68,376.13,985.58,375.79,981.71,367.77Z"/><path class="cls-17" d="M1180.5,381.73c0,2.68-.08,5.37-.11,8-2.15-.39-4.52-.63-4.81-3.44C1175.21,382.78,1177.69,382,1180.5,381.73Z"/><path class="cls-10" d="M1213.3,508.12c-6.45-.58-13.3,2.2-19.29-2.27,5.58-10.81,15.65-7.56,24.57-7.87,11.7,2.2,22.75-1.66,33.76-4.39,9.48-2.35,7.51-11.25,8.57-18.27a20,20,0,0,0-2.9-14.41,12,12,0,0,1-.37-7.64l-.09-8.26c-1.56-3.12.63-4.38,2.81-5.63,9.11,4.85,5.15,16.05,10.93,22.52,2.78,8.83,2.84,17.93,2.82,27.07,0,9.84-4.72,15.48-14.52,16.68-10.4,1.26-20.63,3.94-31.37,1.68C1223.49,506.34,1218.18,506.11,1213.3,508.12Z"/><path class="cls-18" d="M1213.3,508.12c13.5-4.29,27.68-3.44,41.48-4.74,11.84-1.1,16.23-6.34,16.51-16.94.22-8.18,0-16.36,0-24.55,7.71,11.88,5.76,25.11,5.36,38.13-6,3.65-11.32,8.69-19,8.31-8.94,2.54-17.93,1.91-26.93.45Z"/><path class="cls-19" d="M1260.36,439.38c-.93,1.88-1.87,3.75-2.8,5.63-10.51-4.31-7.34-15.07-10.72-22.74C1254.07,425.82,1256.75,433,1260.36,439.38Z"/><path class="cls-20" d="M976.46,241.11c4.43,20.09,4.85,40.17,0,60.25Z"/><path class="cls-21" d="M1337.44,133.18l-281.08-.05c.06-1.34,0-3.16,1.59-3.31,13.74-1.35,27.42-.31,38.48-.65-9.5,0-21.71,0-33.92,0-6.41,0-12.15-.73-11.69-9.32l300.53-.35a21.08,21.08,0,0,1,11.08,8.29l2.67,8.24c-2.76,4.61-.67,9.67-1.37,14.47-3,6.43-7,1.32-10.53.91a16.23,16.23,0,0,1-6.57-6.18,11,11,0,0,1-1.41-7.06c.09-.6.19-1.2.29-1.8l-2.41-3.17C1341.21,132.51,1339.33,128.77,1337.44,133.18Z"/><path class="cls-22" d="M987,124.41l5.6-5.11,27.67.62c5.71,10.73,5.71,10.73-8,13.19-5.33,1.3-15.49-3.56-11.8,9.25-2.08,40.85-.11,81.74-1,122.6-2.64,18-.46,36.11-1.26,54.14-.24,5.26,1.57,11-2.73,15.53-12.57-11.11-7.52-26.4-7.78-39.49C986.58,238.25,987.11,181.32,987,124.41Z"/><path class="cls-23" d="M1012.33,133.11c8-1.16,8.09-7.12,8-13.2l30.51-.07c3.46,6.56,9.16,8.19,16.16,8,11.72-.29,23.45-.08,35.17.77-15.06,4.57-31-1.7-45.79,4.5Z"/><path class="cls-24" d="M1362.43,152.63c.84-5.54-1.84-11.65,2.67-16.61l.33,52.37c5.08,11.32,1.76,23.24,2.35,34.87.58,11.31.13,22.68.13,34,0,32.84.06,65.67-.05,98.51-1,3.71,1.51,9.81-6.16,8.89-4.74-4.59-5.43-10.56-4.6-16.48,2.17-15.43.63-30.91,1.17-46.35-1.35-15-1.85-30,0-45-.67-29.71-1-59.41,0-89.11C1358.46,162.43,1357,156.57,1362.43,152.63Z"/><path class="cls-25" d="M1365.39,356.71l.06-99.32c2.31-6.94.43-14.12,1.14-21.14.27-2.68-1.34-6.83,4.05-6.35q.06,28.89.13,57.78-.09,13.9-.16,27.8c-2.94,10.83-.4,21.9-1.43,32.8C1368.9,351.32,1371.59,356.16,1365.39,356.71Z"/><path class="cls-26" d="M1370.64,229.9c-6.56,8.25.91,19.16-5.2,27.5q0-34.51,0-69c5.61-10.15.29-21.59,5.21-32Z"/><path class="cls-27" d="M1362.43,127.78c-5.19-.76-7.63-5.19-11.08-8.29C1357.46,119,1361.79,120.94,1362.43,127.78Z"/><path class="cls-28" d="M1362.3,301.58q0,31.6,0,63.21c.72.66.9,1.22.54,1.69a1.32,1.32,0,0,1-1,.62l-4.56.83c-16.33-.73-32.91,1.55-48.67-5.28-8.2-3.56-14,5.11-22,5.24-35.64.59-71.33-2-106.94,1.47-4.14.4-4.94-1.58-1.76-4.57l1.73-.13c10.66-4.6-.11-6.54-1.69-10.69,48.23,0,96,0,143.73-.07,5.33,0,11,1.5,15.84-2.4.79-2.46,2.84-3.59,4.91-4.69,2.45-1.91,3.26-5,5.13-7.29,4.5-10.46,2.42-21.29,1.5-31.95-.34-4-2-7.84-.52-11.91a9.11,9.11,0,0,1,2.39-3.18c6.09-1.8,9.19,1.45,8,6.74C1357.6,305,1362.54,299.1,1362.3,301.58Z"/><path class="cls-7" d="M1361.87,367.1c.15-.77.28-1.54.41-2.31,3-2,2.71-5.14,3.11-8.08,4.92-8.08,1.52-17,2.54-25.47.63-5.3-1.59-11.08,2.68-15.76q0,24.75,0,49.51C1367.85,366.38,1366.28,372.59,1361.87,367.1Z"/><path class="cls-29" d="M1257.64,453.27c.91,1.83,1.82,3.67,2.72,5.5,0,16.47-8.7,29.6-23.69,31.57-8.94,1.17-9.42,9.19-15,12.55-9.25.77-18.88-2-27.68,3l-24.64-.09c-14.41-5.7-29.48-1.5-44.18-2.93-16.36-1.73-22.13-18.63-35.52-25.31-4.25-2.11-2.8-13.42,3.29-19.19l1.88.46c11.68,7,26.63,9.27,33.38,23.36a4.79,4.79,0,0,0,3.12,2.53c17.47,1.16,32.75,15.17,51,9.71,11.5-3.42,22.33-9,34.78-8.35,4-17.92,29.06-12.36,33.44-30C1251.45,452.59,1255,453.59,1257.64,453.27Z"/><path class="cls-29" d="M1086.61,456c3.26-4.87,7.12-9.73,6.47-15.9s2.89-9,7.23-11.71c-3.09,9.91-.7,20.8-5.47,30.4h0C1092.33,457.1,1088.55,459.25,1086.61,456Z"/><path class="cls-30" d="M1086.61,456c3,.05,6.1,0,8.2,2.78-2.5,7.58-11.86,14.91,5.39,19.73,10.06,2.81,14.53,18.07,25,24.32-10.75-1.1-21.48-2.55-32.26-3.14-4.42-.24-4.74-1.75-5.41-5.63C1085.32,481.36,1086,468.7,1086.61,456Z"/><path class="cls-31" d="M1182.91,420.2c2.27-1.93,1.88-3.89,0-5.79s-2.62-4.05-.94-6.09,4.09-2.05,6.34-1.07c10,4.33,20,8.8,30,13.13,3.13,1.35,6.1,3,5.38,6.89-.8,4.28-4.07,2.33-6.59,1.9s-5.1,0-5.27,2.79c-1,16.28-15.3,17.2-25.59,19.82s-21,2.66-32.53-2.75c-9.7-4.54-20.67-5.18-26.59-16.06-3.07-5.64-5.51-10.68.87-15.54,8.43-3.3,17-5.62,26.19-5.66,3.34,0,7.48-1.18,6-5.15-3.92-10.49-2.71,2.52-5.31,1.4-6-2.59-12.24-4.7-18.38-7,9.12-.8,18.18-9,27.35-.17a29.73,29.73,0,0,0,11,5.5c4.54,6.7-9.88,6.72-4.79,13.61C1174.36,417.84,1178.51,426,1182.91,420.2Z"/><path class="cls-12" d="M1174.82,406.35c-6.31,3.45-10.09,1.82-11-5.5,2.76-2.29,5.51-6.33,8.31,0Z"/><path class="cls-32" d="M1004.05,348.3c-.26-40.62-.66-81.23-.72-121.85,0-28.3.41-56.6.64-84.89a7,7,0,0,1,7.75-1.63c10.79,9.47,11,23.06,13.89,35.63a12,12,0,0,1-.81,4.2c-6.3,17.58-2.08,35.69-2.6,53.55-.09,3,3.25,4.08,5,6.09,4.8,7.58,3.83,15.91,2.65,24.08-1.24,8.68-1.4,17.37-1.76,26.09-.45,10.86,1.38,20,12.88,24.62a16.34,16.34,0,0,1,7.79,7.63c9.7,18.63,26.54,17.32,43.2,15.3,7.33-.9,14.3-2.19,21.75-.55,6.63,1.47,12.23-2.4,18-5.36,16.62-8.48,28.94-4.69,34.71,10.07,1.19,3.06.81,5.31-2.44,6.64-46.33,1.16-92.64.47-139,.36-14.22,0-17.12-6.61-17-23.44.33-35,0-69.94-.81-104.91-1.12-1.78-2.16,1.25-.7.14.64-.49,1.07-.21,1.08.84.21,42,.94,84,.59,126A2.8,2.8,0,0,1,1004.05,348.3Z"/><path class="cls-33" d="M1004.05,348.3a14.16,14.16,0,0,1,2.58-.42c5.94-5.36,12.34-.61,18.47-.65,44.49-.28,89.13,2.09,133.44-.73,53.15-3.39,106.21-.83,159.29-2.12,20.18-.49,21.11-1.13,21.13-20.69q0-48.85,0-97.69c0-21.43.26-42.88-.07-64.33-.25-15.85-2.54-17.85-18.26-18.73q-16.67,0-33.32,0h-79.77q-85,0-170,.06c-11.44,0-22.73-.31-33.64-4.13,1.33-4.47,5.09-3.1,8-3.1q166.8.22,333.61.59l-.2,0c3.75,8.47,4.83,17.38,4.66,26.57-.78,44.86.91,89.72-1,134.6-.7,16.76,2.53,33.67-1.82,50.38-.44,1.7-1.58,2-2.51,2.87l-7.1.69q-121.18-.31-242.37-.61c-26.17-.06-52.34.18-78.51,0C1012.46,350.85,1007.42,353.14,1004.05,348.3Z"/><path class="cls-34" d="M998.23,265.78c0-36.29,0-72.59.14-108.88,0-4.88-1.65-10.18,2.16-14.55q.08,95.76.14,191.49c0,4.05.79,8.35-2.34,11.82A477.73,477.73,0,0,1,998.23,265.78Z"/><path class="cls-35" d="M1003.89,138.87l204.08.42a3.41,3.41,0,0,1-1.4,4.33c-3,2.16-6.43,2-9.85,2a958.93,958.93,0,0,1-107.63.53c-19.28-1.77-38.45,2.34-57.74,1.08-6.91-.45-13.89,0-19.27-5.48l-8.11-.23C1003.94,140.66,1003.92,139.76,1003.89,138.87Z"/><path class="cls-36" d="M998.23,265.78q0,39.95.1,79.88c-5.56-2.5-1.61-7.42-2.82-11,0-18.18-.06-36.37.09-54.55C995.64,275.22,994.24,270,998.23,265.78Z"/><path class="cls-37" d="M1179.69,364.66a11.11,11.11,0,0,0-1.73.14l-9.15-3.92C1173.5,359.39,1178.57,356.83,1179.69,364.66Z"/><path class="cls-38" d="M1337.44,133.18,1332,129c5.46-2.42,8.56.18,11.1,4.22Z"/><path class="cls-39" d="M1182.91,420.2c-.09,2.46,1.59,6.47-1.14,7-5.36,1-7.48-5.25-11.75-7.21C1174.41,415.15,1178.67,417.43,1182.91,420.2Z"/><path class="cls-40" d="M1221.69,502.89c1.2-10.6,5.75-15.28,17.61-17.59,11.61-2.27,16.14-15.84,21.06-26.53,9.42,11.58,6.21,23.42.05,34.8-5.81,10.73-18.08,4.65-26.63,9C1230.55,504.24,1225.77,502.88,1221.69,502.89Z"/><path class="cls-27" d="M1362.43,152.63q0,52.4-.1,104.79c-3,3.81-6.11,5.26-6.62-1.27a148.36,148.36,0,0,1-.15-19.65c-2.07,11.57,2.29,25.94,1.27,40.42-.43,6-.77,11.86-5.47,16.36h0c-1.85.93-3.15.44-3.91-1.49-.47-23.69-.15-47.37-.17-71.05a354.79,354.79,0,0,0,2.59-57.55c-.16-5-1.37-10.23,4.24-13.36C1358.07,147.22,1360,150.77,1362.43,152.63Z"/><path class="cls-41" d="M1348.77,218.66q0,37.31,0,74.59c2.78,16.54,5.07,33.09,0,49.63-.27,3.2-.07,6.65-4.07,7.93.42-1.78,1.23-3.56,1.22-5.34q-.23-104.54-.59-209.08c3.61,1.61,3.16,5,3.46,8,4.08,17,2.91,34.27,2,51.37C1350.42,203.33,1351.45,211.23,1348.77,218.66Z"/><path class="cls-42" d="M1348.77,218.66V144.39l5.34,5.45c-1.13,20,2,40.09-2.65,59.93C1350.74,212.82,1351.36,216.19,1348.77,218.66Z"/><path class="cls-43" d="M1351.36,293.28c-1.57-20.85,5.42-41.2,5.52-62.15,0,6.74-.06,13.5,0,20.24,0,3.51-.85,8.06,5.43,6.05l0,44.16-4.09,5.24C1354.91,302.66,1359.7,294.49,1351.36,293.28Z"/><path class="cls-43" d="M1348.75,342.88V293.25l2.61,0c1.83,12.87,3.65,25.74,2.76,38.81C1353.83,336.48,1354.94,341.48,1348.75,342.88Z"/><path class="cls-44" d="M1089.32,141.6l110.25.05c2.23,1.32-2.69,5,.77,4.68,9.33-1,15.29,5,22,9.37,4.13,2.69,7.14,6.4,13.21,4.89s8.82,3.4,11,8.1a82.53,82.53,0,0,1,7.2,26.15c-7.75,17.28-14.39,35.39-33,44.65-10.3-7.9-11.82-18.83-10.47-30.7.33-2.87,3.61-7-1.57-7.84-10.55-1.77-17.32-10.12-26.14-14.1-12.83-5.78-25.73-12.8-41.88-8.15-11.6,3.33-24.61,1.18-37-.65-15.87-2.37-29.25,1.18-37.21,16.69-1.7,3.32-3.91,6.67-7.47,7.82-13.36,4.34-14.78,14.88-14.45,26.51.56,19.66-2.15,39.51,4,58.82,1.08,3.42.49,8.33,5.37,8.36,16.79.08,27.55,13.75,42.41,18.33,5.83,1.8,9.84,3.05,14.85-1.4,8.3-7.39,19.59-7.34,29.59-10.25,18.74-5.44,34.93-12.77,41.83-33.39,3.56-10.64,10.8-11.31,19.48-3.55a12.93,12.93,0,0,1,.27,4c-1.74,7.23-6.69,12.68-10.43,18.8a52,52,0,0,0-8.46,11.71,71.61,71.61,0,0,0-3.46,6.4c-1.89,5.16-5.55,9.4-7.61,14.53,9.83,6.77,22.57,6.26,32.1,13.43a6.83,6.83,0,0,0,6.45.93c5.62-1.68,12.41-2.27,13.26,4.72s-6.94,5.06-11.27,6.53c-15.46-1.06-31,1.43-46.39-1.41-3.71-3.49-10.51-4.19-9.57-11.88.29-2.37-19.56-1.81-22.88,1.21-8,7.33-16.35,7.56-27.23,5.91-9.89-1.49-20.93,2.26-31.68,2.18-10.46-.08-18.91-.51-25.23-11.94-3.57-6.46-8.34-15.48-19.62-16.44-5.57-.48-6.92-8.36-7.4-14.83-1.5-19.83,3.83-39.24,2.92-59-.6-.7-1.58-1.34-1.7-2.12-3.23-20.39-7.27-40.77-1.05-61.33v-2.75c17.4-14.29,33.11-31.83,58.75-30.16A9,9,0,0,0,1089.32,141.6Z"/><path class="cls-45" d="M1166.56,345.65l49.67,0c16.22-6.64,33.33-5.22,50.22-5.52,17.8,3.64,35.65,0,53.46-.21,11.67-.17,14.8-11.4,15.08-19.52.43-12.3,1.48-24.68,1.2-37.06-1-19.28-3.17-38.57,2-57.62a3.5,3.5,0,0,1,4.48-1.37c.23,37.61.29,75.23.82,112.84.11,8-1.88,11.3-10.68,11.27q-163.08-.6-326.17-.6V214.44l2.7,0c0,20.35.92,40.76-.28,61-1.1,18.72,3.39,37.08,1.17,56-1,8.5,9.4,14.28,19.84,14.25C1075.56,345.61,1121.06,345.66,1166.56,345.65Z"/><path class="cls-46" d="M1089.32,141.6c-6.13,11.68-18.49,7.85-28,10.44-6.72,1.84-14.09,4.72-15.73,9.56-4.08,12-13.55,11.38-22.51,13.08-6.71-10-6.45-22.24-11-32.9Q1050.71,141.7,1089.32,141.6Z"/><path class="cls-46" d="M1023.12,177.43c-1.8,21.27,3.79,42.21,2.75,63.45-3.81-.18-7.92-.68-7.92-5.51q0-26.55.73-53.12C1018.72,180.6,1021.57,179,1023.12,177.43Z"/><path class="cls-47" d="M1342.66,224.37c-.77,0-1.53,0-2.3,0a8.36,8.36,0,0,1-3.07-3.59c-1.26-3.85-1-7.84-1.08-11.79-.06-12.39,0-24.78,0-37.14-2-8.45,3.35-18.36-5.11-25.51-3.42-.36-6.79-.88-9.52-3.24a2.76,2.76,0,0,1-.46-3.73,54.4,54.4,0,0,0,5.43-.38c12.68-2.16,17.66,2,16.86,15.87C1342.05,177.94,1342.8,201.18,1342.66,224.37Z"/><path class="cls-48" d="M1208,141.47v-2.18l79.79-.2a5,5,0,0,1-2.06,4.65c-18,7-36.66,2.23-55,3.27C1222.85,147.46,1214.17,148.89,1208,141.47Z"/><path class="cls-49" d="M1287.72,141.5a11.42,11.42,0,0,0,0-2.41l33.35.25c0,.73,0,1.46,0,2.18-3.35,4.63-8.18,4.69-13.16,4.25-6.25-.62-12.92,2.08-18.69-2.37Z"/><path class="cls-50" d="M1208,141.47l79.75,0,.58.25c3.42,5.73-.51,9.58-3.69,13.38a73.29,73.29,0,0,0-10,14.77,71.59,71.59,0,0,1-8.79,12.38c-3.93,3-6,7.91-10.43,10.44a9.5,9.5,0,0,1-3.47,1.24c-5.45-7.43-6.07-16.7-9.46-24.93-2-5-3.42-9.25-8.74-2.62-1.57,2-4.32,5.46-6.36,2-8.84-14.81-22.67-19.37-39.07-19.31,1.9-6.8,8.93-3.23,11.26-7.49Z"/><path class="cls-51" d="M1199.66,268.47c-6.9-9.41-11.25-4.24-13.47,3.12-5.91,19.62-23.27,31.45-42.11,36.49-10.5,2.82-25.25-1.27-32.52,12.69-2.41,4.64-10.54,4.71-13.64,1.45-4.9-5.14-11.87-4.78-16.17-7.93-10.46-7.7-19.85-15.49-34-12.6-1.08.22-3.93-3-4.21-4.85a367.47,367.47,0,0,1-3-83.7c.34-4.53,3-10.36,7.19-11,10.42-1.65,14.1-9.18,18.82-16.77,7.78-12.49,20.72-14.08,33.71-13.09,18.81,1.44,37.8,7.88,55.62-4a3.46,3.46,0,0,1,1.21-.5c7.9,11.79,25.1,7.79,32.31,16.73s15.57,9.74,24.45,12.07c3,.78,7.06-.3,8.19,3.55,1.06,3.57-2.72,4-4.91,5.34-5.54,3.51-4.06,9-2.79,13.63,1.8,6.51,4.86,12.67,7.38,19,1.85,2.42.82,4.8-.07,7.2-3.28,6-6.55,12.05-11.19,17.2C1206.94,264.72,1205.36,270.32,1199.66,268.47Z"/><path class="cls-52" d="M1271.17,169.09c2.24-11.29,13.64-16.84,17.12-27.35l18.92-.15c11.23,7.12,12.56,17.67,14,30.24,2.17,18.85.37,37.13-1,55.65-.42,5.63-2.9,10.6-5,15.66-3.79,9.29-8.85,18.15-7.26,28.84a10.84,10.84,0,0,1-1.94,7.91c-12.53,16-26.43,32-47.09,35.19-20.87,3.19-42.48,2.87-62.77-6.86-11.76-5.65-13.65-8.64-7.58-20.45a59.61,59.61,0,0,1,11-16.57l1.61,1.1c7.79,15.09,8.54,15.53,25.66,12.38,12.43-2.29,25.75,1.88,37.52-5.82,4.29-2.81,9-4.91,10.54-10.15,5.07-16.82,16-31.32,18.76-49.11,2.42-15.47,5.07-30.75-2.49-45.53-2.59-5.07-5.53-10.21-12.55-5.38C1276.24,169.84,1273.76,170.78,1271.17,169.09Z"/><path class="cls-53" d="M1188.62,287.77c-4.2,9.89.36,14.55,9.74,16.26,2.25.41,5.25-.28,6.7,1,16.27,13.78,35.87,1.36,53.17,6.89,1.68.54,4.15-1.34,6.25-2.1,13.66-5,20.79-18.75,33.74-25,3.15-1.53,6.49-8.7,5.45-11.86-5.36-16.27,7.64-27,10.64-40.54,2.56-11.56,4.65-23.64,4.11-35.36-.59-12.66-4.56-25.27-2.43-38.06,1-6.26-3.69-6.3-6.62-8.57s-8-4.24-2.16-8.79l13.85-.06c3.66,0,7.31.08,11,.12,5.58,11.23,3.42,23.38,4.14,35.19-.37,14.89.72,29.32-6.7,43.95-5.51,10.86-1.72,25.11-4,37.85-2.89,16.49-9.54,29.49-19.59,43.55-17.42,24.37-39.39,26.9-64.78,24.94-7.92-.61-14.1,5.15-23.51,2.51-10.75-3-20.21-7.68-30.05-12.2-8.75-4-11.45-9.85-7.24-18.64C1182.57,294.72,1183.82,289.91,1188.62,287.77Z"/><path class="cls-54" d="M1340.28,221.55c0,.93,0,1.86.08,2.79l-.09,60.6c-6.2,4.58-5.52,12.24-7.62,18.42-9.23,27.15-28.54,39.6-56.24,41-2.64.13-5.5-.76-7.8,1.36h-52.38c2-1.7,5.27-3.23,5.51-5.14.31-2.46-3.38-3.48-5.3-2.42-14.17,7.88-22.82-7.7-35.06-8.18-2-.08-4-3.7-7.15-2.38-2.91,1.21-6,7-8.65,1.5-1.39-2.87.2-8.88,2.6-11.48,3.8-4.1,6.1-9,9.4-13.26,4.7,16.32,20.05,20.13,32.7,23.27,18.57,4.61,38.39,1.73,57.57,1,12.05-.47,24.23-4.42,29.62-17.85a16.44,16.44,0,0,1,4.91-6.54c20.25-16.6,24-39,23-63.42-.35-8.09,0-16.74,9.12-21.14A7.23,7.23,0,0,1,1340.28,221.55Z"/><path class="cls-55" d="M1334.81,221.56c-4.58,8-12.52,15.46-3.8,25.68.94,1.1-.35,4.36-1,6.52-5.92,20.58-7.45,43.07-28.06,56.8-5.4,3.6-5.17,12.15-12.87,16.4-22,12.16-44.49,5.57-66.95,4.6-11.43-.49-22.25-1.67-32.53-7.78-7.92-4.7-13-9.91-12.05-19.47l2.76-5.51c-.31,6.9.91,11.63,9.08,14.43,10.33,3.54,18.56,11.67,30.84,12.11,4.91.18,8.52,2.63,12.63-2.17,3.06-3.56,7.53-1.57,11.65-.78,16.83,3.21,36,1.9,46.46-9.46,15.18-16.56,33.76-34,31.22-60.7-2.45-25.7,13.51-48.95,9.83-74.8,3.93-1.56,1.35-9.62,8.23-8.24q0,20.67,0,41.34C1336.55,213.26,1338.59,218.85,1334.81,221.56Z"/><path class="cls-56" d="M1218.94,243.6l2.71-5.5c11.63-13.67,20.53-29.2,30.3-44.14.18-.84.33-1.68.44-2.53,4-.26,6.63-4.42,10.94-3.85,9.34,4.65,11.74,11.92,8.94,21.77-2.51,8.83-3.15,18.06-4.71,27.09-3,17.11-10.59,25-27.38,28.33-3.61.72-7.29.93-10.93,1.38-5.94.73-12.75,2.86-17.08-2-5.09-5.7,3.57-9.14,4.44-14.22C1217,247.83,1217.33,245.4,1218.94,243.6Z"/><path class="cls-52" d="M1199.66,268.47q4.13-4.14,8.26-8.29c2.73,3.48,1.94,6.82-.4,10.1-2.35,2.25-4.87,3.29-7.8,1l-.08-.08C1199.64,270.29,1199.65,269.38,1199.66,268.47Z"/><path class="cls-57" d="M1268.61,345.68c14.19-1.65,25.78-10.41,39.15-14.55,6.87-2.14,12-9.59,15-16.73,4.73-11.22,11.31-21.92,10.71-34.66,5.51-1.6,3.81,4.59,6.84,5.2,0,10.5-1.06,21.16.35,31.47s-7.71,16.63-7.93,26.29c-.1,4.63-6,2.85-9.28,2.88C1305.14,345.76,1286.88,345.68,1268.61,345.68Z"/><path class="cls-58" d="M1340.28,169.19c-4.49,1,.39,11.36-8.23,8.24.64-11.93-4.37-23.85,0-35.79,6.44-.37,8.5,3.13,8.32,9C1340.15,156.83,1340.28,163,1340.28,169.19Z"/><path class="cls-58" d="M1334.81,221.56c.32-4.43-1.23-9.78,5.48-11q0,5.52,0,11Z"/><path class="cls-59" d="M1205.18,268.46c.91-2.76,1.83-5.52,2.74-8.28l11-16.58c1,6.88-4.37,11.78-6,18.71,12.38,1,24-1,35.26-4.48,9.46-2.94,13.19-10.79,14.76-19.83,2-11.42,0-23.2,6.49-34.36,3-5.15-4-11.17-9.09-15.17-1.5-3.58,1.41-5.77,2.66-8.48l8.18-10.9,5.71-2.7c6.18,0,5.58,5.08,6.1,8.79,2.64,18.62,3.29,37.43.74,56-4.24,30.82-24,46.78-56.22,47.17a50.34,50.34,0,0,0-8.1,1.25C1210.57,281.09,1205.1,278.32,1205.18,268.46Z"/><path class="cls-60" d="M1263,180c-.88,2.83-1.77,5.65-2.66,8.48-1.58,3.86-4.2,4.92-7.94,3Q1257.7,185.72,1263,180Z"/><path class="cls-61" d="M1160.93,248.33c0,4.58.43,9.21-.09,13.72-1,8.89-6.43,14.35-15,10.65-12.22-5.31-24.26-5.55-37.09-4.51-11.11.9-16.9-3.8-17.08-16.9-.5-36-.2-37,35.25-39.67C1146.12,210.21,1161,226.27,1160.93,248.33Z"/><path class="cls-60" d="M1205.18,268.46c3.06,2,3.39,9.05,6.89,7.5,15.17-6.67,34.34,3.76,46.75-9,10.4-10.66,20.26-23.5,20.67-39.86.52-20.28,1-40.62-2.61-60.75,4.4-10.2,11.59-7.56,15.27-1.09a68.33,68.33,0,0,1,9.47,32.2c.57,16.31-5.91,30.78-9.5,45.47-2.87,11.8-11.16,23.62-16.78,35.59-2.53,5.4-9.76,3.88-14.51,6.76-14.64,8.91-31.72,1.6-47.75,6.18-8.73,2.49-15.85-8.61-13.36-20.22Z"/><rect class="cls-62" width="1440" height="587"/><path class="cls-63" d="M158.1,199v11.95h9.58v10.63H158.1v24.81c0,4,1.94,5.85,6.1,5.85a23.59,23.59,0,0,0,3.43-.24v10.4a33.07,33.07,0,0,1-6.72.58c-12.19,0-16.93-4.07-16.93-14.17V221.55h-7.3V210.92H144V199Z"/><path class="cls-63" d="M222,246.89c-1.54,10.16-10.83,17-23.64,17-16,0-25.53-10.2-25.53-26.78s9.67-27.28,25-27.28c15.08,0,24.61,10.21,24.61,26v4.3H186.69v.87c0,7.4,4.69,12.48,11.89,12.48,5.17,0,9.14-2.56,10.45-6.53Zm-35.15-15.47h22c-.29-6.63-4.59-11.17-10.88-11.17S187.31,224.94,186.83,231.42Z"/><path class="cls-63" d="M229.68,210.92h13.63v9.38h.29A15.22,15.22,0,0,1,258.4,210c7.5,0,12.72,3.87,14.46,10.64h.29c2.32-6.53,8.51-10.64,16.1-10.64,10.16,0,17,7,17,17.41v35.39H292.11V230.89c0-6-3-9.29-8.47-9.29s-8.89,3.92-8.89,9.67v31.48H261.16v-32.3c0-5.56-3.15-8.85-8.37-8.85-5.37,0-9,4.06-9,9.87v31.28H229.68Z"/><path class="cls-63" d="M313.2,247.86c0-9.43,7.25-14.89,20.16-15.67l13.06-.77V228c0-4.84-3.39-7.65-8.71-7.65s-8.61,2.62-9.28,6.44H315.52c.53-10.06,9.09-17,22.82-17,13.3,0,22,6.87,22,17.31v35.64H346.66v-7.93h-.29c-2.9,5.51-9.33,8.75-15.81,8.75C320.69,263.57,313.2,257.19,313.2,247.86Zm33.22-4.11V240l-10.93.67c-5.27.39-8.27,2.76-8.27,6.43,0,3.87,3.19,6.29,8,6.29C341.34,253.37,346.42,249.36,346.42,243.75Z"/><path class="cls-63" d="M370.79,240.56V228.23h31.77v12.33Z"/><path class="cls-63" d="M412.58,227.74c0-22.53,10.88-36.36,28.48-36.36s28.43,13.78,28.43,36.31-10.74,36.61-28.43,36.61S412.58,250.33,412.58,227.74Zm42.06,0c0-15.91-5-24.66-13.58-24.66s-13.64,8.8-13.64,24.66,5,24.86,13.64,24.86S454.64,243.75,454.64,227.74Z"/><path class="cls-63" d="M502.91,191.43c14.94,0,24.8,8.7,24.8,20.31,0,8.56-4.2,13.83-16,25.09l-14.65,14v.29h31.62v11.6H478v-10l24.71-23.4c8.85-8.51,10.83-11.85,10.83-16.68,0-5.61-4.3-9.87-10.59-9.87-7,0-12.24,4.69-12.24,11.41H477.14C477.14,200.76,487.77,191.43,502.91,191.43Z"/><path class="cls-63" d="M530.52,278.47V267.93h45.89v10.54Z"/><path class="cls-63" d="M578.5,266.43h13.83c1.11,3.58,5.17,6,10.54,6,7.3,0,11.36-4.06,11.36-10.06v-9.09h-.29c-2.42,5.51-8.51,9.29-16,9.29-12.67,0-21-9.77-21-26,0-16.44,8.13-26.55,21.28-26.55,7.44,0,13.3,3.92,16,9.87h.24v-9h13.93V262c0,12.38-10.35,20.26-25.87,20.26C588.84,282.29,579.61,275.66,578.5,266.43Zm35.78-29.69c0-9.34-4.5-15.33-11.56-15.33s-11.36,5.9-11.36,15.33,4.35,15,11.36,15S614.28,246.12,614.28,236.74Z"/><path class="cls-63" d="M637.54,210.92h13.64v9.33h.29c1.84-6.58,6.24-10.16,12.33-10.16a14.43,14.43,0,0,1,4,.53v12.43a14.69,14.69,0,0,0-5.13-.82c-7,0-11,4.26-11,11.56v29H637.54Z"/><path class="cls-63" d="M721.44,262.75H707.81v-9.33h-.29c-2.56,6.53-7.69,10.3-15.52,10.3-11.22,0-18.67-7.3-18.67-19.39V210.92h14.12v30.46c0,6.91,3.43,10.59,9.67,10.59s10.2-4.5,10.2-11.36V210.92h14.12Z"/><path class="cls-63" d="M730.64,210.92h13.63v9.23h.29c2.76-6.43,8.22-10.2,16.2-10.2,11.51,0,18,7.25,18,19.39v33.41H764.63V232.29c0-6.77-3.19-10.64-9.53-10.64s-10.34,4.64-10.34,11.36v29.74H730.64Z"/><path class="cls-63" d="M785.82,236.74c0-16.44,8.22-26.65,21.22-26.65,7.5,0,13.3,4,15.82,9.72h.29V193h14.12v69.77H823.34v-8.9h-.24c-2.52,5.71-8.51,9.72-16.15,9.72C794,263.57,785.82,253.32,785.82,236.74Zm14.45.09c0,9.53,4.35,15.38,11.46,15.38s11.51-5.9,11.51-15.38-4.49-15.42-11.51-15.42S800.27,227.36,800.27,236.83Z"/><path class="cls-63" d="M847,193h14.12v69.77H847Z"/><path class="cls-63" d="M907.63,254h-.44c-3.62,5.95-10.1,9.57-18.85,9.57-12.24,0-19.78-6.38-19.78-15.71s7.2-14.85,20.5-15.57l12.86-.73v-2.85c0-4.79-3.91-8.37-9.28-8.37-5.08,0-8.8,2.66-9.24,6.48H870.69c.48-10.1,9-17,21.61-17,8.27,0,14.46,3,17.26,7.79H910c3.48-4.93,9.29-7.79,17.07-7.79,14,0,23.31,10,23.31,26V240H915v.91c0,7.35,4.74,12.48,11.8,12.48,5,0,8.8-2.56,10.15-6.53h13c-1.55,10.16-10.73,17-23.31,17C918,263.86,910.92,260,907.63,254Zm-5.71-10.25v-3.63l-11.17.73c-5.41.38-8.7,2.61-8.7,6.28s3.48,6.43,8.27,6.43C896.75,253.56,901.92,249.07,901.92,243.75Zm13.25-12.33h21.57c-.24-6.72-4.35-11.17-10.49-11.17S915.66,224.89,915.17,231.42Z"/><path class="cls-63" d="M957.35,266.43h13.83c1.11,3.58,5.17,6,10.54,6,7.3,0,11.36-4.06,11.36-10.06v-9.09h-.29c-2.42,5.51-8.51,9.29-16,9.29-12.67,0-21-9.77-21-26,0-16.44,8.13-26.55,21.28-26.55,7.44,0,13.3,3.92,16,9.87h.25v-9h13.92V262c0,12.38-10.35,20.26-25.87,20.26C967.7,282.29,958.46,275.66,957.35,266.43Zm35.78-29.69c0-9.34-4.5-15.33-11.56-15.33s-11.36,5.9-11.36,15.33,4.35,15,11.36,15S993.13,246.12,993.13,236.74Z"/><path class="cls-63" d="M1016.1,266.43h13.83c1.12,3.58,5.18,6,10.55,6,7.3,0,11.36-4.06,11.36-10.06v-9.09h-.29c-2.42,5.51-8.51,9.29-16,9.29-12.67,0-21-9.77-21-26,0-16.44,8.12-26.55,21.28-26.55,7.44,0,13.29,3.92,16,9.87h.24v-9H1066V262c0,12.38-10.35,20.26-25.87,20.26C1026.45,282.29,1017.22,275.66,1016.1,266.43Zm35.79-29.69c0-9.34-4.5-15.33-11.56-15.33s-11.36,5.9-11.36,15.33,4.35,15,11.36,15S1051.89,246.12,1051.89,236.74Z"/><path class="cls-63" d="M1122.44,246.89c-1.54,10.16-10.83,17-23.64,17-16,0-25.53-10.2-25.53-26.78s9.67-27.28,25-27.28c15.08,0,24.61,10.21,24.61,26v4.3h-35.74v.87c0,7.4,4.69,12.48,11.9,12.48,5.17,0,9.14-2.56,10.44-6.53Zm-35.15-15.47h22c-.29-6.63-4.59-11.17-10.88-11.17S1087.77,224.94,1087.29,231.42Z"/><path class="cls-63" d="M1130.14,210.92h13.63v9.23h.29c2.76-6.43,8.22-10.2,16.2-10.2,11.51,0,18,7.25,18,19.39v33.41h-14.12V232.29c0-6.77-3.19-10.64-9.53-10.64s-10.34,4.64-10.34,11.36v29.74h-14.12Z"/><path class="cls-63" d="M1185.32,236.74c0-16.44,8.22-26.65,21.22-26.65,7.5,0,13.3,4,15.82,9.72h.29V193h14.12v69.77h-13.93v-8.9h-.24c-2.52,5.71-8.51,9.72-16.15,9.72C1193.49,263.57,1185.32,253.32,1185.32,236.74Zm14.45.09c0,9.53,4.35,15.38,11.46,15.38s11.51-5.9,11.51-15.38-4.49-15.42-11.51-15.42S1199.77,227.36,1199.77,236.83Z"/><path class="cls-63" d="M1293.49,246.89c-1.55,10.16-10.83,17-23.64,17-16,0-25.54-10.2-25.54-26.78s9.68-27.28,25-27.28c15.09,0,24.62,10.21,24.62,26v4.3h-35.74v.87c0,7.4,4.69,12.48,11.9,12.48,5.17,0,9.14-2.56,10.44-6.53Zm-35.15-15.47h22c-.29-6.63-4.59-11.17-10.88-11.17S1258.82,224.94,1258.34,231.42Z"/><path class="cls-63" d="M140.12,315.5a7.35,7.35,0,1,1,7.35,7.25A7.26,7.26,0,0,1,140.12,315.5Zm.34,14.26h14.11V381.6H140.46Z"/><path class="cls-63" d="M164,329.76h13.63V339h.29c2.76-6.43,8.22-10.2,16.2-10.2,11.51,0,18,7.25,18,19.39V381.6H198V351.14c0-6.77-3.19-10.64-9.53-10.64s-10.34,4.64-10.34,11.36V381.6H164Z"/><path class="cls-63" d="M219.14,355.59c0-16.44,8.22-26.65,21.22-26.65,7.5,0,13.3,4,15.82,9.72h.29V311.83h14.12V381.6H256.66v-8.9h-.24c-2.52,5.71-8.51,9.72-16.15,9.72C227.31,382.42,219.14,372.17,219.14,355.59Zm14.45.09c0,9.53,4.36,15.38,11.46,15.38s11.51-5.9,11.51-15.38-4.49-15.42-11.51-15.42S233.59,346.21,233.59,355.68Z"/><path class="cls-63" d="M280.36,311.83h13.88V339h.29c2.75-6.53,8.41-10.2,16.29-10.2,11.51,0,18.09,7.44,18.09,19.44V381.6H314.79V351.23c0-6.67-3.29-10.73-9.72-10.73-6.67,0-10.59,4.69-10.59,11.51V381.6H280.36Z"/><path class="cls-63" d="M336,355.63c0-16.77,10.16-27,25.68-27s25.67,10.16,25.67,27c0,17.07-10,27.08-25.67,27.08S336,372.66,336,355.63Zm37,.05c0-10.3-4.45-16.24-11.31-16.24s-11.37,5.94-11.37,16.24,4.4,16.25,11.37,16.25S373,366.08,373,355.68Z"/><path class="cls-63" d="M395,311.83h14.12V381.6H395Z"/><path class="cls-63" d="M416.73,355.59c0-16.44,8.23-26.65,21.23-26.65,7.5,0,13.3,4,15.81,9.72h.29V311.83h14.12V381.6H454.26v-8.9H454c-2.52,5.71-8.51,9.72-16.15,9.72C424.91,382.42,416.73,372.17,416.73,355.59Zm14.46.09c0,9.53,4.35,15.38,11.46,15.38s11.51-5.9,11.51-15.38-4.5-15.42-11.51-15.42S431.19,346.21,431.19,355.68Z"/></svg>
