<svg id="Layer_1" data-name="Layer 1" xmlns="http://www.w3.org/2000/svg" width="749" height="460" viewBox="0 0 749 460"><defs><style>.cls-1{fill:#aab4ae;}.cls-2{fill:#d6d8d3;}.cls-3{fill:#98a9a5;}.cls-4{fill:#d3d6cf;}.cls-5{fill:#a8b0aa;}.cls-6{fill:#406764;}.cls-7{fill:#7a8787;}.cls-8{fill:#96a9a4;}.cls-9{fill:#436c6a;}.cls-10{fill:#658b86;}.cls-11{fill:#cbcfc7;}.cls-12{fill:#b1bbb3;}.cls-13{fill:#e5e8e2;}.cls-14{fill:#d7d9d4;}.cls-15{fill:#a7b4ad;}.cls-16{fill:#dbddd7;}.cls-17{fill:#c6d2ca;}.cls-18{fill:#498280;}.cls-19{fill:#436263;}.cls-20{fill:#94b7b1;}.cls-21{fill:#81817e;}.cls-22{fill:#446c6b;}.cls-23{fill:#081413;}.cls-24{fill:#95b9b2;}.cls-25{fill:#40837f;}.cls-26{fill:#2f6b6d;}.cls-27{fill:#6a6f71;}.cls-28{fill:#b3b6b0;}.cls-29{fill:#cbcdc6;}.cls-30{fill:#d3dad2;}.cls-31{fill:#4a8d8d;}.cls-32{fill:#daddd5;}.cls-33{fill:#dfe2dc;}.cls-34{fill:#bec4bb;}.cls-35{fill:#d5d8cf;}.cls-36{fill:#f2f5ee;}.cls-37{fill:#b2b2b1;}.cls-38{fill:#ecefe8;}.cls-39{fill:#f1f3ed;}.cls-40{fill:#dfe2db;}.cls-41{fill:#333035;}.cls-42{fill:#262427;}.cls-43{fill:#4b484a;}.cls-44{fill:#2a252b;}.cls-45{fill:#e7e9e3;}.cls-46{fill:#687c7c;}.cls-47{fill:#072b2b;}.cls-48{fill:#0e3732;}.cls-49{fill:#070807;}.cls-50{fill:#658685;}.cls-51{fill:#90adac;}.cls-52{fill:#809c97;}.cls-53{fill:#749997;}.cls-54{fill:#729692;}.cls-55{fill:#77938f;}.cls-56{fill:#1e201f;}.cls-57{fill:#c1c3bb;}.cls-58{fill:#c1c2b9;}.cls-59{fill:#dde0d9;}.cls-60{fill:#cdd0c9;}.cls-61{fill:#272727;}.cls-62{fill:#242025;}.cls-63{fill:#585457;}.cls-64{fill:#3b383c;}.cls-65{fill:#fafbf7;}.cls-66{fill:#f7f9f3;}.cls-67{fill:#f3f4f1;}.cls-68{fill:#2e2e2f;}.cls-69{fill:#e1e1df;}.cls-70{fill:#90938c;}.cls-71{fill:#a6a9a2;}.cls-72{fill:#29252b;}.cls-73{fill:#312c32;}.cls-74{fill:#363338;}.cls-75{fill:#2d282e;}.cls-76{fill:#2e2b30;}.cls-77{fill:#2e292f;}.cls-78{fill:#241f25;}.cls-79{fill:#1f1e1d;}.cls-80{fill:#e0e2dc;}.cls-81{fill:#c5c8c1;}.cls-82{fill:#729191;}.cls-83{fill:#cddcd5;}.cls-84{fill:#e8f1ea;}.cls-85{fill:#171415;}.cls-86{fill:#e1e1e0;}.cls-87{fill:#353036;}.cls-88{fill:#84938c;}.cls-89{fill:#edde41;opacity:0.7;}.cls-90{fill:#fff;}</style></defs><title>tema_1_button</title><path class="cls-1" d="M235.85,93.36c5-8.88,13.16-11.16,22.55-10.94l.75,1.54c-1.34,4.11-5.36,3.69-8.38,5-6.71,2.42-8.74,7.14-6.87,13.83a36.14,36.14,0,0,1-.26,20.3c-4.53,15.49-1.78,31.43-2.75,47.14-.25,4.06,2.14,10.35-5.82,10.41-6.21-8.89-2.25-18.76-2-28,.39-16.12,1.17-32.27,1.77-48.41C235.23,100.59,233.85,96.81,235.85,93.36Z"/><path class="cls-2" d="M325.33,76.73l109.76.15,4.67,1.62a3,3,0,0,1-.22,3.58c-7.06,7.17-15.61,2.27-22.7,1.35-20-2.57-40-.88-60-1.56-5.88-.19-11.77-.05-17.64,0-5.93.17-11.95-.7-17.7,1.56-4.1.7-8.23.43-12.36.48-2.95-.12-6,.09-8.47-2a2.46,2.46,0,0,1-.36-3.21L315,77C318.38,74.59,321.84,75.2,325.33,76.73Z"/><path class="cls-1" d="M300.3,78.63l-.16,2.08c-8.75,6-19.34,1.91-28.58,5.23-4.29-.3-8.92,1-12.53-2.59l-.63-.93C272.23,79.6,286.15,77.87,300.3,78.63Z"/><path class="cls-3" d="M516.59,110.08c2.32,40.48,2.86,81,2.07,121.51-.51,26-1.46,51.89-2.22,77.84-1.78,1.52-3.48,1.34-5.09-.28-3.71-7.2-2-14.94-1.47-22.28,2.26-29.75,4.12-59.5,3.75-89.35-.74-16,1.64-32-1.45-47.9-1.52-14.23,0-28.65-2.5-42.83-.15-2.12-.13-4.25-.19-6.38a10.75,10.75,0,0,1,.57-4.67,6.9,6.9,0,0,1,1.74-2.56,2,2,0,0,1,2.7.33l-.06-.09c2.59,3.77,4.26,7.72,2.38,12.35C516.74,107.21,516.67,108.65,516.59,110.08Z"/><path class="cls-4" d="M439.75,80.82V78.5c18.19-.44,36.18,1.48,54.1,4.38,1.26,1.05,2.85,1.5,4.27,2.27A8.7,8.7,0,0,1,501.38,89c5.43,19.08,9,38.26,3.33,58-7,.3-5.75-5.44-6.37-9.25a183.39,183.39,0,0,1-1.95-34.49c-.33-1-.67-2-1-3-2.79-13.08-13.94-11.31-23.16-13-5.89-1.67-11.68-3.86-18-3.28C449.08,84.38,443.24,88,439.75,80.82Z"/><path class="cls-5" d="M512.7,93.11c-.1.73-.21,1.47-.32,2.2-6-.28-7.93-4.39-8.75-9.48.28-.4.57-.79.86-1.18l5.29.55C514,86.63,514.4,89.49,512.7,93.11Z"/><path class="cls-5" d="M496,85l-2.11-2.08c3.73-.51,7.34-.33,10.63,1.77l-.34.47C501.37,87.75,498.67,86.57,496,85Z"/><path class="cls-6" d="M508.42,340.92c-3.72,1.66-5.75,6.13-10.4,6.25-5.35,5.24-11.64,2.89-17.73,2.22A7.13,7.13,0,0,1,476.1,344c.41-5.21,4.72-5.45,8.27-5.89,6.9-.85,13.46-1.52,17.53-8.54,1.55-2.67,5-3.52,8.28-2a1.86,1.86,0,0,1,.48,2.75C510.64,334,510.33,337.64,508.42,340.92Z"/><path class="cls-7" d="M510.66,330.33q-.2-.91-.33-1.86c-3.16-2.63-9,1.91-10.91-4-.25-6,6.46-5.93,8.51-9.92,1.32-1.84,2.48-3.85,4.79-4.66l3.72-.44C519.65,317.82,516.09,324.33,510.66,330.33Z"/><path class="cls-8" d="M234,103.85l1.69-.5c-.14,16.93,1.06,33.81-1.39,50.78-1.25,8.59,1,17.68,1.62,26.54,4.3,4.1,2.81,9.29,2.71,14.22-2.71,12.81-2.45,25.67-.41,38.54.85,22.27,2.71,44.51,3.51,66.8.2,5.58,1.12,10.23,6.79,12.6a8.38,8.38,0,0,1,3.89,2.05c.71,3.27,2,6.42,2.49,9.75-4.52,4.84-8.61-1-12.95-.52-7.49-3.14-1.68-12.77-8.05-16.45C230.66,239.72,227,171.78,234,103.85Z"/><path class="cls-9" d="M256.65,347.25l-8.3-.13a22.92,22.92,0,0,0-8.34-8.31c.23-4.55-1.21-9.66,4.11-12.54.48,0,.95.05,1.43.06s.84,0,1,.2c7.49,10,18.37,11.94,29.78,12.52,3.31.23,3.73-2.15,4.29-4.58.67-2.89.78-6.4,5.3-6,4.57,5.9,3.56,11.73-.14,17.55a10.49,10.49,0,0,1-4.36,3.26c-4.77,1.36-9.67.72-14.53.91C263.18,350.23,259.64,349.7,256.65,347.25Z"/><path class="cls-10" d="M283.71,345c2.37-5.52,3.92-11,0-16.53l-1.68.39c-9.21,1.24-18.49-.11-27.71.88-3.62-.32-6.67-2.33-10.06-3.34l-.09-.17-2.22-2.16c4.11-6,8.34,3,12.48-.1,10.72-5.6,21.79-6,33.16-2.29a11.36,11.36,0,0,1,4.59,5.42,15.77,15.77,0,0,1,.8,5.1c0,2.77.33,5.59-.71,8.28s-2.64,4.78-5.57,5.55A3.94,3.94,0,0,1,283.71,345Z"/><path class="cls-11" d="M252.38,316.09l-3.93-.36c-2.53-2-4.7-4.32-5.08-7.77-3.7-22.18-1.73-44.72-4.32-67-1.52-13-4-26.17-1.81-39.12,3-18.53,2.63-37.08,2.77-55.66-.9-16.13,4.87-31.8,3.22-48-.58-5.76,4.55-8.9,7.52-13,2.86-.2,5.8,0,8.28-1.87l12.21-.43a2.44,2.44,0,0,1,.15,2.81c-3.36,3.34-8.22,3.72-12.07,6.12a9.55,9.55,0,0,0-6.25,7.55c-1.69,9.61-4.47,19.18-2.06,29.1a16.19,16.19,0,0,1-.26,4.76c-2.31,5.8-1,11.92-1.6,17.88a18.57,18.57,0,0,1-.38,3.5c-2.78,10.14-1.42,20.49-1.41,30.72,0,18.84-.78,37.7.48,56.51a32.36,32.36,0,0,1,.87,3.21c.51,20.72.82,41.48,6.29,61.71a15.54,15.54,0,0,1,1.83,2.44c1.28,2.44,2,4.88-.07,7.27A3.76,3.76,0,0,1,252.38,316.09Z"/><path class="cls-12" d="M250.75,85.22c-8,19.28-7.38,39.82-8.69,60.08-.41,29.86-5.17,59.61-1.88,89.57,2.07,18.83,1.67,37.8,2.91,56.69.4,6.18.29,12.39,3.15,18.13.74,2,1.47,4,2.21,6-8.31,0-9.78-6.8-10.1-12.29-1.31-22.85-1.75-45.77-2.51-68.66a155.43,155.43,0,0,1,0-39.56q0-7.28,0-14.55c3.23-3.52,1.86-7.87,2-11.9.66-17.18-1.83-34.53,3.74-51.43,1.11-3.37.71-7.69-.26-11.23C238.32,95,240.14,90.38,250.75,85.22Z"/><path class="cls-13" d="M439.75,80.82c4.69,3.82,9.49-.22,14.23.22,5.39,3.38,11.84,1.58,17.53,3.57,4.54,2.47,9.77,2.45,14.6,3.83,6.38,1.8,9.85,5.33,11.88,11.1h0c-.1,5,3.24,12.11-6.78,11C483,97.43,471,91.74,455.71,92.2c-4.12.12-8.24,0-12.37,0a15.64,15.64,0,0,1-4.66-.67c-4.79-2-9.84-1.18-14.8-1.35-25.5-3.64-51.33-.22-76.82-3.67-18.15,1.12-36.4,1.11-54.34,4.69-8,1.6-16.5.75-24,5.33-4.23,2.59-7.55,5-5,10.54a4.92,4.92,0,0,1-.5,3.22,5.92,5.92,0,0,1-3,1.48c-9.19-.72-8.55-7.41-8.38-13.81-.17-4,2.57-5.6,5.78-6.76,4.59-2.86,9.88-3.9,14.89-5.69,11.62-5,24.43-.64,36.17-4.62l12.41-.06c5.37-2.67,11.39.48,16.79-1.86,30.93.58,62-2.4,92.75,3.16C433.55,82.61,436.73,81.29,439.75,80.82Z"/><path class="cls-14" d="M308.75,80.86c-11.72,6.82-25.35,2.21-37.54,6.22-.52-.47-.7-.94-.52-1.41s.35-.7.53-.7c0-.68,0-1.37,0-2,9.53-2,19.2-2.38,28.91-2.21Z"/><path class="cls-14" d="M338,78.94c-5.28,3.46-11.19,1.23-16.79,1.86C326.4,77,332.33,79.33,338,78.94Z"/><path class="cls-15" d="M512.72,309.87c-.26,2.25-.29,4.6-2.46,6.08-3.34,4.27-6.5,5-9.39-.44,6-24.27,4.42-49.22,6.81-73.81,2.53-26.11.27-52-.48-78-.57-20.17.19-40.45-2.95-60.52-.92-5.87-2-11.56-6.23-16.07L496,85l8.18.16,8.23,10.19c0,1.4.11,2.81.16,4.21-1.51,2.1-2.65,4.19.05,6.25,2.76,13.77,1.55,27.74,2.08,41.62.77,16.62.48,33.28,2,49.88C517.82,234.89,513,272.3,512.72,309.87Z"/><path class="cls-5" d="M516.64,197.27c-1.9-16.58-5.14-33.11-2-49.88C518.92,163.87,515.78,180.65,516.64,197.27Z"/><path class="cls-5" d="M512.59,105.77c-1.18,0-3.24.29-3.41-.14-1.31-3.21,1.1-4.68,3.36-6.11C512.56,101.61,512.57,103.69,512.59,105.77Z"/><path class="cls-16" d="M491.74,109.9c6.68-.68,4.26-6.85,6.25-10.36,3.95,12.09,1.6,24.88,4.12,37.14.73,3.56-.91,7.59,2.15,10.7l1.19,1.14c1.38,20.14,1.53,40.31,1.6,60.5,0,13.29-3.22,26.54-.48,39.85a14.54,14.54,0,0,1,.16,5c-2.4,6.57-2.64,13.77-2.84,20.38-.32,11-7,19.36-9.49,29.33-1.46,5.8-7,9.3-13.82,8.73-5.25-1.39-11-2.15-10.75-9.8.05-1.21.58.2-.2-.95-5.91-8.78-5.94-8.86,5.34-12.71,2.3-.78,4.48-1.53,6.22-3.28,7-3,15.17-4.76,15.84-16.31,0,.17-1.78,1.74-.39,1.65-.44,5.38-1.77,8.72-7,3-2.14-8.93.26-18.16-2-27.06.72-24.68,3.85-49.24,3.21-74-.23-8.58-.06-17.15-2.08-25.56-.05-10.16,0-20.35-2.41-30.34a11.15,11.15,0,0,1-.63-3.23,7.51,7.51,0,0,1,.67-3.16,3.65,3.65,0,0,1,2.5-1.78A3.77,3.77,0,0,1,491.74,109.9Z"/><path class="cls-17" d="M504.25,253.49v-4.15c1.71-32.33.83-64.69,1.05-97,0-1.71.08-3.44-1-4.91h0c0-20.31.7-40.69-6.24-60.29,3.87,1.45,6,3.84,6.46,8.33,1.87,17.67,5,35.06,4.83,53.1-.14,13.87.92,28,2.1,42,2.14,25.4-.47,50.71-1.87,76-.47,8.59-1,17.19-1,25.79s-1.85,16.35-6.32,23.58c-3.35,3.77-7.25,3.52-11.37,1.61-1.62-1.13-2.32-2.92-1.21-4.4C503,295.32,502.79,274.21,504.25,253.49Z"/><path class="cls-16" d="M498,99.54c-5.91-10.6-18.36-9.06-27-14.57.68-.83,1.38-.88,2.08,0C490.29,85.1,495.48,88.14,498,99.54Z"/><path class="cls-2" d="M473.05,85,471,85c-4.69,0-9.39-.09-14.08,0C454,85,453.56,83.37,454,81A31.27,31.27,0,0,1,473.05,85Z"/><path class="cls-18" d="M500.25,324.21c2.25,4,8.59-1.59,10.08,4.26-1.6.51-4.33.65-4.64,1.59-4.95,14.65-18.51,9.78-28.52,12.83-1.8,1.87-3.41,1.06-5-.33a24.06,24.06,0,0,0-5.88-7.39,5.47,5.47,0,0,1-.42-2.68c1.4-2.61,0-5.33.28-8a5,5,0,0,1,2.25-2.14C479.09,321.89,489.8,320.91,500.25,324.21Z"/><path class="cls-19" d="M473.12,341l4.05,1.88,2.1,4.21c-4.39.77-8.28-1.27-12.38-2.15l-.95-1.24a3.43,3.43,0,0,1,1.54-4C469.65,338.9,471.57,339.15,473.12,341Z"/><path class="cls-20" d="M500.25,324.21c-11.12,4.56-22.24.89-33.36,0-1.49,2.06-3,4.1-5.29.79,3.23-11.93,15.55-15.95,28.11-9.18l12.47.12c2.69,3.23,5.38,1.35,8.08,0C509.7,322.07,502.25,319.84,500.25,324.21Z"/><path class="cls-21" d="M285.82,345.09l3.61-4.12a15.94,15.94,0,0,1,8.91-2.12c22,1.67,44,.13,66,1.42,23.25,1.37,46.78,1.74,70.1-.87,6.2-.7,12.38,1.63,18.47-.42,3.63-.43,6.92.82,10.19,2.15,1.81.74,2.48,2.61,3.8,3.85v0c.94,3,1.12,6.31,4.06,8.3-3,4-7.42,3-11.45,3.17-7.57.27-15.23-.63-22.62,1.84-40.83.54-81.66.39-122.47.09-11.16-3.51-22.77-.79-34.05-2.42-3.58-1.64-5.18-3.9-.76-6.15C282,348.53,284.52,347.71,285.82,345.09Z"/><path class="cls-22" d="M482.91,353.75l7.16-.14c5.12,7.58,8,15.26,1.1,23.42a107.1,107.1,0,0,0-14.55,2.18c-63.54.34-127.07.06-190.58.15-3,0-6,0-9-.05-5.32-.22-10.58-2.65-16-.42-6.7-7.68-6.8-14.78-.36-25.43l0-.72c2.5-2.18,5.2-2.12,8-.74,1.95,1.37,2.62,3.39,2.82,5.63-1.59,5.77,1.5,8.07,6.65,8.85,37.69,1,75.35.33,113,.37,27.64,0,55.28.6,82.88-.36,2.94-.66,5.53-1.68,5-5.53A9.38,9.38,0,0,1,482.91,353.75Z"/><path class="cls-23" d="M482.91,353.75,481,361.31c-2.17,5.41-6.95,5.34-11.61,5.53-61.31.59-122.62,1.26-183.92,0-6.37-.38-13.48.82-16.09-7.55l0-5.82c2.6-2.72,5.33-2.79,8.18-.38,11.93,1.6,24.07-.75,35.93,2-10.87,3.81-22.27.08-30.54,2,58.76-1.42,120.26.64,178.52-.8-6-.75-15.32,1.85-24.39-1.16,11.18-2.7,22.64-.23,33.88-1.87Z"/><path class="cls-24" d="M252.38,316.09l4.31-.39c9.55-6,18.82-2.48,27.86,1.2a5.46,5.46,0,0,1,3.06,7.59c-11-4.15-22.18,2.09-33.22-.48C250.64,322.15,248.53,319.87,252.38,316.09Z"/><path class="cls-1" d="M235.83,195.22q0,19.78,0,39.56A81.35,81.35,0,0,1,235.83,195.22Z"/><path class="cls-25" d="M244.21,326.44l10.31,0c8.2,1.86,16.85.58,24.92,3.58,1.72,4.07,1.26,7.7-2.06,10.79C263.22,343.19,251,341.13,244.21,326.44Z"/><path class="cls-26" d="M277.38,340.78l.12-12.36c2-1.5,4.06-1.35,6.14-.15l0,.23c.45,5.49,0,10.66-4.76,14.43-.13.11-.74-.08-.85-.28A14.29,14.29,0,0,1,277.38,340.78Z"/><path class="cls-27" d="M281.6,347.1c-4.76,3.22-9.58,2.87-14.44.27Q274.39,347.25,281.6,347.1Z"/><path class="cls-28" d="M456.46,340.94a210.3,210.3,0,0,1-44.86,3.82c-8.15-.18-16.32.26-24.46-.14-32.55-1.59-65.24.42-97.7-3.65l1-8.4c5-2.16,10.26-1.2,15.37-1.12,40.77.69,81.54,0,122.31.1,10.58,0,21.2-1.35,31.72.92a5.79,5.79,0,0,1,1.91,2.89C462.15,339.28,459.31,340.11,456.46,340.94Z"/><path class="cls-29" d="M460.44,334.62c-23.84.24-47.68.7-71.52.65-31.24-.06-62.48-.5-93.71-.9-1.61,0-3.21-1.17-4.81-1.8l-.36-4.13c8.13-7.13,16.52-4.72,25-.68,4.2,2.3,8.78,1.66,13.22,1.67,25.93.07,51.87,0,77.78,0,10.42.2,20.76-1,31.07-2.3,5-2.89,10.7-3.34,16.17-4.72s7.39,1.11,9,5.28C463.1,330.4,462.91,332.81,460.44,334.62Z"/><path class="cls-30" d="M310.73,328.39c-6.91-2.28-13.8,0-20.69.05l-2.43-3.95c-3.28-8.11-11-7.16-17.52-8.28-4.36-.76-8.93-.38-13.4-.51l-2.13-6c4.54-4.9,10.21-4,15.86-3.14C277,310,284.15,307.81,291,308.7c3.81,1.75,8.07,1.85,12,3,1,.42,1.54,1.57,2.54,2.13a4.74,4.74,0,0,1,.14-2,5.46,5.46,0,0,1,1.94-1.91,8.88,8.88,0,0,1,8.82.51c1.94,1.71,1.33,3.66.56,5.64-2.66,2.91-3.16,6.73-4.22,10.32A5.4,5.4,0,0,1,310.73,328.39Z"/><path class="cls-31" d="M283.64,328.27l-6.14.15c-3.78.45-2.31,6.95-7.1,6.18-2-.31-5-.2-5.63-1.34-1.82-3.3,3.84-1.61,3.65-4.4-4.53-1.51-9.78,1.21-13.9-2.45C264.22,327.16,274.15,324.24,283.64,328.27Z"/><path class="cls-32" d="M271.22,309.68H254.56l-2.05,0c2.78-8.07-2.07-15.2-3.06-22.79-1.82-13.87.47-28-3.19-41.7,0-2.88-.71-6.1,3.61-6.58a4.12,4.12,0,0,1,1.66,2.45,4.21,4.21,0,0,0-.76-2.77c-1.42-2.92-1.39-6-1.35-9.13.45-33.81-1.35-67.66,1.17-101.43.39-5.31-2.56-14.44,8.52-14a7.66,7.66,0,0,1,2.45,4.94c2.18,28.94-2.73,57.72-1.89,86.64.2,6.91.4,13.74,2.35,20.42,1.08,6.34,1,12.72.8,19.11-1.85,8.15-.37,16.49-1.35,24.68-3.7,5.91-6.81,11.82,1,17.12,1.69,6.6,4.94,11.06,12.72,11,2.93,0,5.3,1.67,6.81,5.21,1.95,4.57,2.08,6.76-3.49,6.86C276.06,309.69,273.64,309.67,271.22,309.68Z"/><path class="cls-33" d="M258.53,114.06c-6.82,4.59-5.73,12.15-5.82,18.47-.44,33.46-.11,66.93-.29,100.4,0,6.7,4.08,13.1,1.34,20.15-4.54-3.85-1.66-10.26-5.43-14.14-4.09-8.62-2.66-17.87-2.51-26.83.1-5.76.2-11.57.43-17.36-.38-7.73.9-15.52-.94-23.18.39-6.68-1.26-13.44.93-20h0c2.78-6-.66-12.72,2.08-18.73,0-1.39,0-2.77,0-4.16,1.25-10.43-1.35-21.37,4.17-31.22,3.77,3.62.11,12.27,8.61,12.68C261.67,112.36,260.63,113.55,258.53,114.06Z"/><path class="cls-34" d="M246.24,309.69c-3.13-1.66-4.26-4.41-4.11-7.77.39-8.67-1.9-17.26-1.8-25.73.31-27.67-4.7-55.27-2-82.81,1.55-16-.56-32.32,3.76-48.08A1309.19,1309.19,0,0,0,246.24,309.69Z"/><path class="cls-35" d="M248.31,195.23c-.64,14.57-1.21,29.14,0,43.71l-2.07,6.24c-2.24-2.15-2.08-4.94-2.08-7.69q0-39.12,0-78.25c0-2.75-.17-5.54,2.05-7.7l0,20.8C249.05,179.79,245.52,187.79,248.31,195.23Z"/><path class="cls-35" d="M246.26,245.18c5.61,9.38,3.87,19.79,4.15,29.92.22,7.83.35,15.62,4,22.88,2.14,4.21,2.85,8.48-1.94,11.69-5.67-4.34-3-11.4-3.79-16.54C246.21,277.42,244.86,261.27,246.26,245.18Z"/><path class="cls-14" d="M252.51,97.44c-4.56,10,.64,21.27-4.17,31.22-3.11-11.91-.41-23.36,3.16-34.62.93-3,3.86-4.67,7.22-4.94,1.35,1.39,1.18,2.78,0,4.16A6.75,6.75,0,0,0,252.51,97.44Z"/><path class="cls-33" d="M258.7,93.26c0-1.39,0-2.77,0-4.16,3.66-2.9,7.93-4,12.5-4.13,0,.7,0,1.41,0,2.11Z"/><path class="cls-14" d="M248.33,132.82c-.83,6.23,2,12.86-2.08,18.73C247.09,145.32,244.29,138.69,248.33,132.82Z"/><path class="cls-36" d="M439.77,89.11l4.15,0c2.81,3.58,12.17-2.46,10.78,7.34-2.63,4-5.94,5.46-10.61,3.35-8.92-4-18.85-3.3-28.11-5.77a19.68,19.68,0,0,1-2.94-.52c-5.25-1.8-10.64-1.51-16-1-11.39,1.14-22.75,3.35-34.27,1.3a26.06,26.06,0,0,0-15.91-.74,9.34,9.34,0,0,1-3.12,0c-11.55,1.16-21.72,7.32-33.32,8.69-8.06,1-16.09,3-24.13,4.43-6.4,1.16-13.06,1.1-17.7-5,3.32-7.71,10.2-8.61,17.44-10.24,19.85-4.47,40.38-3.5,60.16-8.09,8,3.14,16.37,1.88,24.45,1.79,18.27-.19,36.41,1.35,54.59,2.32C429.76,89.75,435,87.75,439.77,89.11Z"/><path class="cls-37" d="M258.53,114.06l2.59-4a7.54,7.54,0,0,0,1.77-.23c2.24-2.08,4.49-4.17,7.7-4.67,14.74.69,29.43.42,44-2.61a11.9,11.9,0,0,1,3.86,0c37.37.34,74.75-.13,112.11.2a26.64,26.64,0,0,1,3.77.4c15.1,3.41,30.5.43,45.69,2,3,.81,5.82,2,7.46,4.9,0,.78,0,1.56-.05,2.35a9.08,9.08,0,0,1-6.53,2.55c-21.89-.26-43.75,1-65.64.67-28.28-4.43-56.58-3.54-84.9-.57-17.88.31-35.74,1.75-53.64,1.18a37.06,37.06,0,0,0-14.12,2.62,4.76,4.76,0,0,1-3.61-.26Z"/><path class="cls-38" d="M315.23,106c-15.19,3.48-30.63,1.19-45.94,2-2.17,1.83-4.26,0-6.39-.12-6.57-5.91-5.09-10.19,3.15-14.58,8.93-4.74,18.63-4.2,27.94-5.5,17.28-2.42,34.76-3.31,52.16-4.84-1.36,5.3-5.82,4.44-9.29,4-18.21-2.27-35.16,5.08-52.79,7.14-4.23.49-10.63,3.61-14.92,7.53,10.37,6.3,21.28,1.51,31.94,1.49C306.06,103.09,311.33,100.93,315.23,106Z"/><path class="cls-39" d="M454.32,95.37c-1.19-5.87-8.82-1-10.4-6.24,11.45,1,23.21-2.4,34.35,3.86,4.46,2.51,7.06,8.89,13.68,7.34l-.21,9.57c-.67,0-1.34,0-2-.08-2.52-1.44-5.67-1.36-8-3.32C472,104.38,461.09,104.93,454.32,95.37Z"/><path class="cls-39" d="M439.77,89.11c-5.18,1.54-10.3,2.7-14.58-2.07C430.06,87.7,435.34,85.42,439.77,89.11Z"/><path class="cls-33" d="M262.9,107.85c2.21-5,4.23,1.58,6.39.12-1.79,1.79-4,2-6.4,1.91C262.89,109.21,262.89,108.53,262.9,107.85Z"/><path class="cls-40" d="M271.22,309.68c2.61-3,6.41-1.56,6.94-3.25a32.07,32.07,0,0,0,.92-3.46c.33-2.22-.58-3.6-5.95-2.61-12.23,2.24-12.65-5-12.31-13.57a6.26,6.26,0,0,1,2.18-2.13c13.25-.27,26.49-1.76,39.78.62,7.81,1.4,15.85.39,23.78.45,18.23.14,36.45,1.15,54.65,1.53,21.05.45,42.32-3.71,63.21-.23,12.1,2,22.91-4.4,34.55-2.09a5.5,5.5,0,0,1,2.4,1.86c1.48,6.11,1.33,6.58-3.38,5.06-5.74-1.84-7.79,5.36-12.89,5l10.1.74c-4.2,6.08-2.71,10.23,4.09,12.11-6.35,5.19-13.76,5.59-21.31,4.26-3.43-.6-6.69-1.4-10.07-.08a13.65,13.65,0,0,1-3.2,1c-3.35.3-6.7-.21-10,.14-18.92-1.16-37.93-1-56.81-1.34-15.23-.28-30.87,2.22-46.39,2.07-5.1,0-10.56.68-14.48-3.94l-10.43,0c-4.84,1.19-9.68-.51-14.52-.05C285.11,310.87,277.81,313.84,271.22,309.68Z"/><path class="cls-41" d="M415.26,111.84c24.06-1.39,48.09.58,72.14.54a3,3,0,0,1,.75,1.47c-2.75,3.86-6.76,4.35-11,3.86-8.51-1-17-.27-25.52-.51a58.66,58.66,0,0,1-7.13-.19,39.73,39.73,0,0,0,5.11.32c3.92.2,9.43,1.31,8.47,5.14s.05,11.19-7.64,11.24c-2.81,0-5.22,1.53-7.89,2.14a51.09,51.09,0,0,1-13.06.75,55.56,55.56,0,0,0-10-.79,11.72,11.72,0,0,1-4.66-1c-5.54-11.21-15.68-11-26.23-11.36s-20.62,2.7-31.07,1.42c-3.48-.43-5.87,2.07-7.68,4.61-4.39,6.18-10.24,7.59-17.37,6.39a33.32,33.32,0,0,0-11.4-.14c-8.57,1.58-10.55,6.81-5.63,14.17-2.26,7.24-9.62,5.65-14.49,8.37-7.65,1.85-14.62,6.1-22.67,6.54-10.48-2.68-13.7-12-6.72-20.39,1.86-2.23,3.65-4.14,3.36-7.12-.36-3.82-1.22-7.77,3.33-9.82,2.81-1.27,4.88-.15,10.31,5.26,5-17,19.81-15.93,32.79-17.44C341.14,113,361,112.32,380.81,111,392.3,111.51,403.83,109.89,415.26,111.84Z"/><path class="cls-42" d="M491.94,145.3c3,34,1.69,68-.14,102-2.39,7.93-.35,16.07-1.18,24.06-7.19,5.48-15.41,3.94-23.45,3.35-12.65-.91-25.26-3.41-37.92.09-2.7.75-5.77.51-7.55-2-2.22-3.2,1.05-4.83,2.56-6.92,3.72-5.15,8.69-8.12,15.07-7,10.53,1.8,17.09-3,21.54-11.9,3.19-3.68,8.12-4,12-6.22,3.76-3.61,2.64-8.79,4.14-13.12,2-8.86-.12-18,2-26.87,1.45-3.83,7.29-5.42,5.56-10.92,3.43-14.5-.27-29.63,4-44A2.47,2.47,0,0,1,491.94,145.3Z"/><path class="cls-43" d="M489.14,272.16c1.78-8.21-1.48-17,2.66-24.9q-.17,14.44-.34,28.89c-.14.57-.28,1.14-.41,1.72-4.38,5-10.74,4.25-16.36,5.71-18,.15-36,0-54,.08q-43,0-86,0c-7.1-.13-14.21.27-21.29-.35-14.43-3-29.51-1.11-43.74-5.85-2.57-.86-5.49-.67-7.15-3.37,2.39-7,8.52-5.13,13.14-4.75,37.89,3.11,75.86,2.92,113.81,2.76,17.92-.07,35.93,2.95,53.59,1.42C458.47,272.18,473.89,275.39,489.14,272.16Z"/><path class="cls-4" d="M446,311.76c10.92-3.47,22.29.19,33.29-2.09,7.71.19,9.83-4.68,13.27-11,7.84-14.35,7.52-30.25,11.69-45.21,4,12.39-.23,24.44-1.55,36.6-.19,1.68-1.69,3.41-1.42,4.92,1.82,10.19-4.29,15.78-11.57,20.8-6.77.39-13.66-.4-20.18,2.27-3.71,1.52-6.36,3.88-7.11,8-.32.77-.83.92-1.51.45a58.09,58.09,0,0,0-21.2,1.86,5.42,5.42,0,0,1-1.94-3.73c2.65-5.23-4.82-.36-3.9-3.9-1.51-3.41-.71-6.35,1.75-9H446c1.27,1.29,2.92,1,4.47,1.06C448.92,312.71,447.28,313,446,311.76Z"/><path class="cls-44" d="M491.94,145.3h-2.23c-4.2-1.83-2.38-9.5-8.87-9.11-6.39.73-12.76,1.48-18.84-1.42-3.45-2.73-1.66-4.55,1.15-6.09,3-1.65,6.75-.83,9.91-2.58-1.54-5.85-6.25-5.35-10.48-6.58-4.89-1.41-11.8,2-14.45-5.39l40-.28c6.76,4.78,3,12,3.93,18C492.77,136.24,492,140.82,491.94,145.3Z"/><path class="cls-4" d="M504.26,147.39c.67,1.54,1.87,3.06,1.93,4.62q1.74,46.35,0,92.71c-.06,1.56-1.27,3.08-1.94,4.62-4.67-6.24-2.05-13.62-1.57-19.9,1.7-22.33,1.13-44.53-.14-66.81C502.25,157.6,503.64,152.47,504.26,147.39Z"/><path class="cls-45" d="M481.37,286.8H479.3c-1.33-4.93,1.13-7,5.66-7.22,2.84-.13,5.51-.2,6.63-3.46l-.13,0c5.3-1.16,3.42-6.71,5.84-10C498.79,282.75,496.47,285.69,481.37,286.8Z"/><path class="cls-13" d="M483.45,105.77l6.28,4.06-2.28.2c-2.22-.11-4.45-.2-6.12-2a1.94,1.94,0,0,1-.68-1.65c.06-.61.17-.92.31-.92A1.77,1.77,0,0,1,483.45,105.77Z"/><path class="cls-46" d="M460.91,326.51a6.57,6.57,0,0,0,1.51-.45l4.47-1.86c0,.66-.06,1.32-.06,2,1.55,1.86,1.95,3.78.32,5.82-.09.92-.19,1.84-.29,2.76a9.13,9.13,0,0,1-.16,6.33c.07,1.3.13,2.6.2,3.89L463,342.91c-3-1.39-1-4.45-2.12-6.45a3.91,3.91,0,0,0-.39-1.84C460.6,331.91,460.75,329.21,460.91,326.51Z"/><path class="cls-47" d="M466.7,341.09c-1.75-2.15-2.73-4.29.16-6.33,3.41.76,8.7-.36,6.26,6.25Z"/><path class="cls-48" d="M467.15,332q-.16-2.91-.32-5.82c2.14.25,5.34-.64,5.46,2.56C472.4,331.6,469.54,331.92,467.15,332Z"/><path class="cls-49" d="M437.07,355.12h35c0,.81,0,1.62,0,2.42-4.54,0-9.09-.14-13.63,0-19.28.73-38.65-1.74-57.86,1.93-9,1.72-17.71-2.18-26.73-2-18.19.3-36.4,0-54.6.16-6.37.07-14.2,3.1-18.58,2.26-8.69-1.67-17.85,1.36-26.13-2.05l.08-2.73h38.78Z"/><path class="cls-20" d="M460.83,336.46q1.05,3.23,2.12,6.45c-3.08,2.36-4.25-1.56-6.49-2Z"/><path class="cls-50" d="M283.69,363.65c34.85.52,69.69,1.41,104.54,1.43,27.6,0,55.2-1,82.8-1.58-.21,5.21-4.3,3.24-6.76,3.29-12,.22-23.92.1-35.87.1-6-.1-12,.23-15.48,0,3.4.93,9.49-.38,15.5,0,15.16-.44,30.34.93,45.47-.8a5.92,5.92,0,0,1,5.59,2c-3,2.5-6.53,1.86-9.92,1.86q-93.27,0-186.52,0c-3.4,0-7,.61-10-1.79a4.94,4.94,0,0,1,4.48-2.14c17.38,1.84,34.87.12,46.65.85-7.06,0-19.75.19-32.42-.15C289.07,366.67,284.45,369.57,283.69,363.65Z"/><path class="cls-51" d="M275.31,376.18l8.41.15c3.6,1.83,7.47.93,11.2.93,55.9.07,111.8,0,167.7.13,3.56,0,7.62-1.7,10.71,1.75-1.08,4-4.42,1.53-6.62,2.31-16.87-.07-33.7.78-50.52,2-21,.18-42,.15-63,0-9.55-1.94-19.22-1-28.82-.83-12.74.2-25.4-1.13-38.11-1.17-1.8,0-3.62,0-5.43-.05C278.27,380.44,274.74,380.48,275.31,376.18Z"/><path class="cls-52" d="M473.05,380.43c-3.5-3.27-7.85-2.05-11.86-2.05q-82.79-.12-165.57-.12c-4,0-8.35,1.24-11.9-1.93l195.34-.23c3.06-.59,6.59-3.2,8.35,1.91l.32.61C483.33,383.17,478.17,381.65,473.05,380.43Z"/><path class="cls-53" d="M283.69,363.65c8.83,4.65,18.32,1.48,27.48,2.18,7.18.55,14.43.11,21.63,2.35H273.08c-4.47-1.61-8.9-3.23-3.68-8.86C273.31,363.57,278.75,362.79,283.69,363.65Z"/><path class="cls-54" d="M427.3,366.15c11-.1,22-.14,33-.35,3.67-.07,7.68,1,10.69-2.3l10-2.19c4.07,3.31,2.43,5.32-1.54,6.8l-52.2-.19c-.82-.41-1.09-.8-.81-1.19S427,366.15,427.3,366.15Z"/><path class="cls-52" d="M275.31,376.18c1.4,1.46,2.8,2.93,4.21,4.39-5.52,1.06-11,2.21-16.38-.68a3.31,3.31,0,0,0-.41-1.47C265.66,370.55,271,376.44,275.31,376.18Z"/><path class="cls-55" d="M487.41,378c-2.36-2.47-5.52-1.48-8.35-1.9,3.69-2.25,7.35-3.14,10.89.29a9.14,9.14,0,0,1-.31,1.81Z"/><path class="cls-56" d="M263.14,379.89l16.38.68,3.63.13a1.26,1.26,0,0,1,1.21,1.45l-21.45.35C263,381.63,263.06,380.76,263.14,379.89Z"/><path class="cls-57" d="M310.73,328.39l.06-2.05c1.22-2.21,2.88-3.67,5.62-3.35,11.19,4.5,23.06,1,34.48,2.86a124.62,124.62,0,0,0,42.6,0c5.92-.25,11.92-1.83,17.68.94,4.26,4.22-.7,4.28-2.59,5.74q-41.79,0-83.57.06C319.81,332.58,314.59,332.85,310.73,328.39Z"/><path class="cls-58" d="M408.58,332.51l4.14-4.08,1-1.33c8.41-3.12,17.34-1.49,26-2.77,0,1.34,0,2.69,0,4C429.94,334.33,419,331.21,408.58,332.51Z"/><path class="cls-59" d="M412.72,328.43,394,328.5c-2.9,1.75-6.07.64-9.1.88-3.49-5.8,1.85-7.62,4.88-7.55,9.9.22,18.7-5,27.87-5.1a24.88,24.88,0,0,0-15.32,1.55c-10.45,1.84-21.2-.9-31.47,2,2,2.39,5,2.4,7.52,3.41,2,1.41,5.35,2.34,2,5.64-8.22.21-16.43.11-24.64.06-7.48-3.5-15.63-1.71-23.44-2.74-5.91-.79-11.48-1.85-16.77-4.5-3.49-1.73-4.13-3.76-.65-6.22l2.07-4.16c19.64-1.87,39.56-1.29,59.1-1.86a551.76,551.76,0,0,1,59.54,1.86q0,5.21,0,10.39c.15,4.93-3.29,5-6.83,5.23-5.36.4-10.84-1.19-16.08,1Z"/><path class="cls-60" d="M292,311.76c4.85-3.39,9.69-1.2,14.52.05,0,.67,0,1.34,0,2-.66,1-1.35,1.08-2.06,0C300.33,313.36,295.73,315.23,292,311.76Z"/><path class="cls-40" d="M304.53,313.86l2.06,0c-.45,2.5,1.17,5.72-2.26,7.13-.58.23-2.05-.56-2.47-1.27C300,316.58,303.63,315.82,304.53,313.86Z"/><path class="cls-29" d="M314.91,315.93c-.39,1.39-1.83,2.77,0,4.18,1.28,1.4,1.13,2.79,0,4.18l-4.07,2C311.41,322.57,308.77,317.51,314.91,315.93Z"/><path class="cls-56" d="M352.37,382.51c21.5.95,43,.7,64.5-.1,9.72-1.23,19.45-2.06,29.13.36-2.64,2.28-5.85,1.8-8.93,1.8q-65,0-129.94,0c-3.07,0-6.3.49-8.86-1.95A269.44,269.44,0,0,1,352.37,382.51Z"/><path class="cls-52" d="M352.37,382.51l-54.1.11-13.91-.47c-.42-.46-.83-.95-1.21-1.45l63.59-.17A7.45,7.45,0,0,1,352.37,382.51Z"/><path class="cls-55" d="M446,382.77l-29.13-.36c16.68-3.85,33.57-1.6,50.38-1.68.31.89,0,1.42-.94,1.53Z"/><path class="cls-61" d="M466.31,382.26a17.34,17.34,0,0,0,.93-1.53l5.81-.3c5,.62,10.07,1.06,14.68-1.81C481.73,386.51,473.44,381,466.31,382.26Z"/><path class="cls-62" d="M258.73,245.18l-.3-18.05c-1.59-15.29-.32-30.62-.72-45.93,1-10.66,7.63-15.53,17.48-17.12,10.41,1.58,11.54,3.34,7.16,12.33a27.62,27.62,0,0,0-3.07,11.89c-.27,17.92.64,35.39,9.55,51.87,6.62,12.22,17.2,16.06,29.45,18,3.73.59,7.66.26,11.05,2.31,2.42,1.48,4.78,3.49,4.3,6.52-.52,3.26-3.64,4.06-6.44,4.05-11.05,0-22.2,1.77-33.06.7s-21.83-.81-32.75-.67c-1.52-1-1.58-2.52-1.53-4.09a25.07,25.07,0,0,0,.22-13.34C259.16,250.9,260.83,247.74,258.73,245.18Z"/><path class="cls-63" d="M258.73,245.18c2.55,2.33,1.63,5.55,2.18,8.4,1.64,4,1.12,8,.34,12.09l.06,4.41c1,1.21.56,2.95,1.54,4.17l50,6.24c-4.65,5-10.77,2.76-16.28,3.07-6.41.36-12.84.1-19.26.07a55.29,55.29,0,0,1-7.28-.35c-4.19-1.75-9.38-1.54-12.11-6.17a5,5,0,0,1,.65-4.86Q258.65,258.72,258.73,245.18Z"/><path class="cls-64" d="M259.25,178.59q-.4,24.27-.82,48.54c-2.86-36.2-.11-72.37.53-108.56a3.67,3.67,0,0,0,1.6-.71c4.25,1.91,4.37,5.78,4.4,9.57.08,11.28-.16,22.57.05,33.85C265.13,167.91,260,172.43,259.25,178.59Z"/><path class="cls-45" d="M258.56,272.25l.42,3.49c.89,4.53,4.69,3.53,7.7,4a3.29,3.29,0,0,1,1.35,2.36c-.51,2.88-3.46,3.07-5.14,4.65h-2.07C251.81,281.72,251.07,276.92,258.56,272.25Z"/><path class="cls-14" d="M248.31,195.23c-4.18-7.31-1.11-15.28-2-22.89C250.44,179.66,247.38,187.63,248.31,195.23Z"/><path class="cls-65" d="M362.77,91.21C374,92.7,385,89.88,396.06,89.13c6,2.77,12.71-.67,18.73,2.08h0c7.67,1.55,14.28,6.17,22.95,5.37,7.34-.68,8.1,4.47,3.72,10-2.72.18-5.48.91-8-.68l.08,0c-5.29-2.42-10.86-1.1-16.3-1.13-26-.11-52,.09-78-.11-4.89-7.42-3.79-9.56,6.88-13.44h0C351.67,91.27,357.22,93.69,362.77,91.21Z"/><path class="cls-66" d="M346.12,91.2c-2.26,4.5-9.72,5.53-8.31,12.48-6.72,3-14.16-1-20.86,2.19l-.86.13-.86,0L280,105.76c-4.14,0-8.47.5-10.84-4.15,14.23,3.64,27.42-2,41.12-3.64C322.52,96.52,333,86.07,346.12,91.2Z"/><path class="cls-67" d="M441.73,105.58c-.42-3.64,2.15-8.14-6.27-6-7,1.8-14.67-3.21-20.67-8.39,10.22,1.6,21.11.73,30.38,5.84,4.5,2.48,6-2,9.15-1.68l29.13,10.4-2.06,0C468.16,107.36,454.94,107.7,441.73,105.58Z"/><path class="cls-66" d="M362.77,91.21c-5.55,6.87-11.1,5.23-16.64,0C351.68,87.5,357.22,88.79,362.77,91.21Z"/><path class="cls-67" d="M414.79,91.21c-6.23-.86-12.86,2-18.73-2.08C402.28,90,408.92,87.13,414.79,91.21Z"/><path class="cls-68" d="M259.25,178.59c2.05-20.21,2.09-40.46,1.31-60.73.62-6.15,5.74-5.37,9.45-5.45,19.59-.44,39.18-.48,58.77-.66,16.17-.82,32.35-2.11,48.47.66-4.22,4-11.16,4.64-14.64,3.47-9.17-3.08-16.92-1.37-24.77,2.45-2.57,1.25-4.62.65-6.94.19-11.34-2.24-21.88,2-32.48,4.63-5.8,1.42-5.43,8.12-6.38,13.09-.46,2.42-.55,5.51-3.44,5.61-3.52.12-2.38-3.42-3-5.54a24.92,24.92,0,0,0-1.27-3.92c-1.12-2.39-2.85-4.27-5.67-2.82s0,3.38,0,5.06c0,5.35,3,12.81-9.24,12.26,8.41,4.64,5.8,8.76.09,12.81l7.93,2.26c1.29,2.38-.89,3-2.08,4.16C269.07,169.05,262.85,172.12,259.25,178.59Z"/><path class="cls-67" d="M317,105.87c6.57-4.37,13.93-1.23,20.86-2.19,28.69-.45,57.39.89,86.07-.66,3.23-.18,7-.11,9.62,2.86Z"/><path class="cls-64" d="M377.25,112.41l-48.47-.66c28.83-1.94,57.65-2.34,86.48.09Z"/><path class="cls-39" d="M441.73,105.58l39.66.21-.06,2.25c-16-1-32.06,1.32-47.91-2.18Z"/><path class="cls-69" d="M262.89,286.78l4.17-4.15c1.83-1.25,3.68.16,5.52,0,3.95.72,7.74-1.6,11.7-.58,4.79,1.29,9.51.39,14.24-.41,11.1,0,22.19,0,33.27,0,1.7,0,3.41,0,5.11.07a41.73,41.73,0,0,0,18.14.15,14.14,14.14,0,0,1,3.43.57c18.08.12,36.16,1,54.21-.51,3.1-.48,6.22-.2,9.32-.28,18.42-.73,36.89,1.5,55.26-1.21,4.53-2.24,10.45.17,14.33-4.27-1,7.08-11.93,2.81-12.29,10.68-7.51,2.28-15.57,1.29-23.05,5.6-2.7,1.56-9.69-1.15-14.67-2-10.27-1.76-20.44-3.51-30.15,1-5.18,2.39-7.89-2.64-12.63-2.13-19.89,2.11-39.85-.12-59.78-.43C313.64,288.41,288.27,287.48,262.89,286.78Z"/><path class="cls-70" d="M375.16,303.21c-2.29-.44-6.13,1.53-6.41-2.16-.31-4,3.34-4.11,6.47-3.78C376.77,299.26,377.08,301.25,375.16,303.21Z"/><path class="cls-71" d="M375.16,303.21l.06-5.95c2.17,1.89,7.37.68,7,4.37C381.82,304.89,377.74,303.34,375.16,303.21Z"/><path class="cls-72" d="M275.39,166.12l2.08-4.16c7.92-1,14.65-6.37,22.87-6.26,2.68-2.14,6.12-.23,9-1.74,2.54-1.35,4.93-.9,5.79,2.07s-1.37,4.28-3.57,5.53c-17.53,10-21.9,26.64-20.86,44.82,1.41,24.72,17.53,36.8,39.93,42.37a131.19,131.19,0,0,0,26.51,3.66c8,.25,15.21.94,22.62,5.5,7.94,4.89,18.6,2.19,26.1-1,12.79-5.5,27.49-5.82,38.94-15.45,4.07-3.43,11.55-1.13,17-6.2,4.71-4.36,4.71-7.34,2.88-12.27-4.56-12.25-3-24.51.52-36.7,9.87,3.75,14.27,11.38,12.79,23.93-.75,6.32-1.07,12.37,1.31,18.35-1.28,4.89,3.24,11.43-4.16,14.57-4.71-.25-9.34-.29-12.49,4.16-.83,9.4-5.55,16.35-15.27,15.47s-18.08-.72-23.21,9.37c21.47-5.71,43.19.84,65,.06-1.08.76-2.23,2.29-3.21,2.19-18.53-2-37,4.15-55.44.59-6.78-1.31-12.85,1.69-19.45,1.53-18.29-.44-36.62.49-54.89-.27-26.46-1.11-53-.93-79.37-3.77-4.59-.49-9.69-1.69-13.94,1.82a4.25,4.25,0,0,1-1.54-4.17c19.45-3.78,39.15-.14,58.67-2,3.66-.34,7.38-.05,11.31-.05-.59-3.63-2.77-6.12-4.75-5.66-9.61,2.2-18.05-2.57-26.56-4.81-8-2.1-13.25-9.95-15.58-18.27-1.24-4.4-1.51-8.77-6.43-10.86a3.83,3.83,0,0,1-2.26-4.31c3.11-13.38-2.12-26.66-.33-40,.52-3.82.8-8,3.58-10.58C286.57,166.51,280.1,166.88,275.39,166.12Z"/><path class="cls-73" d="M414.79,132.82H419a2.13,2.13,0,0,1,.06,2.84,8.35,8.35,0,0,1-3.95,2.23c-8.43,1.3-16.86,2.64-22.23,10.5-3.79,2.4-8.14,2.29-12.09,1.45-9.87-2.11-17.76,1.66-24.06,8.32-5,5.27-9.73,5.74-15.64,2.8-5.5.41-9.89,2.62-13.08,7.3a17.49,17.49,0,0,1-5.26,5c-11.76,7.31-11.86,7.34-8.59,20.81,1,4.07,3,8.45.75,12.12-5,8.41.49,11.65,5.83,16.7,14.64,13.87,32,18.1,51.33,17.16a45.22,45.22,0,0,1,13.34,1.37c9.21,2.33,18.45,1.5,27.56-1.38,5.53-1.75,10.54-1.75,10.77,6.18-5.51,8.47-14,11.82-23.06,9.45-11.51-3-23.09-1.51-34.58-2.71-11.77-1.24-23.77-1.31-35.62-2.5-14.36-7.86-24.69-19.47-32.37-33.87-3.65-6.86-5.63-13.31-1.75-20.59a24.21,24.21,0,0,0,2.56-11c.25-10.43,5.11-17.95,13.25-24.47,4.46-3.58,6.75-9.24,13.76-10.18,3.69-.5-3.28-2.44-.86-4.6,8.93-7.75,20.65-7.59,31.08-9.18,14.93-2.28,29.92-4.65,44.95-6.5C406.07,129.4,410.66,129.67,414.79,132.82Z"/><path class="cls-74" d="M414.79,132.82c-30,3.61-60.16,6.56-89.47,14.56-2.58,5.09-6.19,5.12-10.4,2.09-3.85-.19-8.4-.23-9.56-4.55-1.23-4.59,4.11-5.5,6.23-8.22,7.12-9.18,16.07-3.89,24.24-4,3,0,6.44,2.13,8.4-1.42,4.58-8.3,9.82-10.61,20.42-10a219.63,219.63,0,0,0,32.7-1.11C407.63,119.12,413.93,121.75,414.79,132.82Z"/><path class="cls-44" d="M414.8,134.91H419c3.09-2.56,7.31.48,10.4-2.07l14.57,0c4.17-2.15,8.71-.41,13-1.19,1.7,15.61,11,27,21.22,37.83,1.46,1.56,3.1,3.61,2.18,5.46-2.3,4.64.31,7.47,2.55,11,2.86,4.53,1.55,9.26-1.5,13.47.45,7.81-1,15.7,1.14,23.44.8,2.85-1,4.45-3.22,5.69-10.79-1.91-6.41-10.21-5.26-15.35,2.5-11.2-.6-19.49-9.31-26.26-6.11,2.4-10.62,0-11.85-5.86-2.72-12.8-12.08-20.09-21.39-27.39-4.57-3.59-8.82-7.57-13.61-10.92C415.42,141,413.16,138.56,414.8,134.91Z"/><path class="cls-75" d="M314.92,149.47a18.15,18.15,0,0,0,10.4-2.09c2.42,0,4.85,0,7.26.1,2.08.12,4.56.33,4.41,3.13-.16,3-2.55,2.17-4.64,2.32-15.18,1.16-29.63,17-29.93,32.59-.06,3.42.77,7.2-1.7,10-6.91,7.83-3.09,14.55,1.66,21.42,6.77,9.79,11.45,21.37,23.77,26.25,2.22.87,3.17,3.56,3.33,6.14.53.46.71.92.53,1.39s-.35.69-.53.69c-6.81-2.52-15.43.26-20.74-6.39-5.51-6.9-13.06-12.17-18.15-18.65-5.33-6.79-5.13-18.27-3.8-27.34,1.61-10.93,2.95-21.73,11.95-31.53,4.74-5.15,7.33-10,15.76-9.34-5.11-4.61-9.87-1.43-14.16-2.47C304.57,152.13,310.94,153.61,314.92,149.47Z"/><path class="cls-76" d="M458.48,132.82H443.92c2.73-3.48,7.29-.84,10.49-3.07-.56-5.24-5.74.12-7.13-3.2,2-3.91,6.66-.44,9.4-3.68-3.41-4.17-8.17-1.77-12.15-2.57-2.65-.53-7.11,2-7.43-2.84-.34-5.24,4.32-2.78,6.91-3.3a20.24,20.24,0,0,1,4.12,0c5.59,4,12,1.12,17.89,2.1,2.65.44,6.27-1.88,7.65,2.75,1.11,3.73,7.08,6.06,5.49,9.81-1.79,4.23-7.2,1.35-11,1.89-2.68.38-5.51-.13-7.63,2.14A1.35,1.35,0,0,1,458.48,132.82Z"/><path class="cls-77" d="M429.35,132.83c-3,3.12-6.86,1.74-10.4,2.07v-2.08Z"/><path class="cls-78" d="M458.48,132.82h25c4.63,14.52,2.81,29.5,3,44.32.07,5.38-.56,10.77,1.15,16,4.27,8.43-5.46,2.85-6.24,6.23-.59-6,2.59-13.24-6.91-15.92-3.25-.92-2.15-4.27,1-6.17,5-3.07,3.19-5.71-1.24-6.7-5-1.13-5.09-6-7.62-8.41-7.71-7.53-7.63-20.71-19.1-25.35C450.3,133,455.8,136.63,458.48,132.82Z"/><path class="cls-79" d="M487.61,193.17a44.19,44.19,0,0,1-4.17-24c1.09-12.17-4.41-24.28,0-36.38,9.54.41,5.1,7.84,6.25,12.47C489.87,161.29,489.89,177.28,487.61,193.17Z"/><path class="cls-44" d="M462.64,247.26c2.05-7.75,6.74-7.53,12.49-4.16C471.48,246,466.79,245.84,462.64,247.26Z"/><path class="cls-63" d="M356.5,282.53h-2a24.71,24.71,0,0,1-16.75-.12l-3.31,0a1.45,1.45,0,0,1-1.37-1.49l88.46-.08a1.32,1.32,0,0,1-1.34,1.56h-7.38C394,284.64,375.27,284.26,356.5,282.53Z"/><path class="cls-40" d="M333.05,280.89c.44.51.9,1,1.37,1.49l-38.26.3a17,17,0,0,1-12.45,0l-12.49,2.07c-1.29-4.06,3.28-2.33,4.18-4.22h37.44Z"/><path class="cls-80" d="M420.17,282.37c.46-.51.91-1,1.34-1.56l55.75-.43c-5.17,4.21-11.26,2-16.9,2.14C447,282.79,433.56,282.45,420.17,282.37Z"/><path class="cls-29" d="M412.69,328.36c3.73-3.28,8.28-1.78,12.49-2,4-.21,8.17.27,10.42-4.2l4.1-7.21v9.38C431.51,331.11,421.77,327.57,412.69,328.36Z"/><path class="cls-81" d="M446,311.76h9.47c-4.42,2.94-7,2.26-9.47,0Z"/><path class="cls-82" d="M427.3,366.15c0,.59,0,1.18,0,1.77h-16v-1.77Z"/><path class="cls-30" d="M314.86,324.29c0-1.39,0-2.79,0-4.18,12.85,4.44,26.44,5.35,39.61,8.22a2.83,2.83,0,0,1-4.21.09q-12.69,0-25.39-.09C321,328.31,317.55,327.26,314.86,324.29Z"/><path class="cls-29" d="M350.28,328.42l4.21-.09h27a1.23,1.23,0,0,1,2.13,0l10.39.16A98.75,98.75,0,0,1,350.28,328.42Z"/><path class="cls-40" d="M383.6,328.34h-2.13c-1.63-2.06-4-2-6.23-2,.16-6.56,7.24-4.57,9.92-8,5.49-2.32,11.53-.52,17.09-2.33,8.2-4.69,16.53.41,25.11.79-5.92,1.26-13.06.87-17.51,4.14C401.66,326.85,390.59,320.21,383.6,328.34Z"/><path class="cls-83" d="M385.76,319.93c-.81,6.59-8,2.67-10.52,6.37-3.14-2.73-9.47-.25-10.49-6.44C371.77,315.34,378.78,315.22,385.76,319.93Z"/><path class="cls-84" d="M385.76,319.93a26,26,0,0,0-21-.07c-2.25-4,1-3.82,3.19-3.84,11.44-.13,22.88-.08,34.31-.09C397.43,320.06,390.71,316.34,385.76,319.93Z"/><path class="cls-72" d="M269.71,209.59c2.43,3.61,1.79,6.46-1.76,8.91Q268.84,214,269.71,209.59Z"/><path class="cls-85" d="M261.25,265.67q-.17-6-.34-12.09C263.88,257.53,263.68,261.57,261.25,265.67Z"/><path class="cls-40" d="M266.92,280.91c-3.37-.62-7.84.46-7.94-5.17,2.49,4.09,7.4,2.44,10.74,4.51A1.89,1.89,0,0,1,266.92,280.91Z"/><path class="cls-86" d="M266.92,280.91l2.8-.65,5.68.23-4.18,4.22-4.16-2.08A16.39,16.39,0,0,0,266.92,280.91Z"/><path class="cls-80" d="M356.5,282.53l56.29-.15c-4.4,4.07-9.87,2.47-14.74,2.17C384.2,283.71,370.13,287.33,356.5,282.53Z"/><path class="cls-80" d="M337.73,282.4l16.75.12C348.87,285.79,343.29,285.91,337.73,282.4Z"/><path class="cls-86" d="M283.71,282.64l12.45,0C292,285.66,287.85,285.67,283.71,282.64Z"/><path class="cls-77" d="M329.48,251.42v-2.08c4.09-1.91,8.06-3.55,12.36-.17,1.89,1.5,4.39,1.19,6.91,1.14,18-.34,36.2-2.84,53.91,2.83,9,2.87,13.54-5.56,20.45-8a11.06,11.06,0,0,1,5.29-4.64c4.13-1.12,7.51-3.7,11.16-5.77a11,11,0,0,1,2.72-.9c7.48-3.43,12.78-17.34,11.69-26.87-1.19-10.43-4.54-19.18-13.14-25.52a12,12,0,0,1-1.54-2.39c-3.33-5.76-11.67-6.17-14-13C422,155,411.75,153.7,402.93,150.68c-2.76-1-6.08.19-8.95-1.21a5.79,5.79,0,0,1-2.08-2.09c2.91-12.83,13.8-11,22.9-12.47,1.84,7.38,10,10.37,14.38,12.54,10.24,5.11,14.48,15.42,23.37,21,2.61,1.63,4.61,4.11,3.52,6.82-3.62,9,3.71,9.35,8.65,11.68,5.17,13.21-3.38,28.16,5.35,41.22,1.39,2.08,5.49,11.44-5.73,8.64-2.82-.71-3.84,4.34-6.1,6.29-2.55,2.18-5.05,8.69-8.53.55-1-2.27-3-1.66-3.89.17-6.18,12.25-20.18,7.14-29.27,13.3-7.27,4.93-16.35,4.33-24.86,5.49-7.16,1-13.48,2.9-18.12-4.83-1.58-2.64-4.85-1.67-7.64-1.74C353.65,255.66,341.36,255.09,329.48,251.42Z"/><path class="cls-87" d="M391.9,147.38H394c7,3.7,12.09,9.27,16.34,15.92,4.06,6.35,10.44,9.4,17.8,10.51a10.26,10.26,0,0,1,3.37,5c.92,5,1,10.18,3.8,14.87a13.78,13.78,0,0,1,.48,13,36.45,36.45,0,0,0-2.75,11c-1.37,12.27-3.85,13.57-15.19,17.63-22.58,8.09-45.26,5.47-68.2,3.33-9.2-.87-13-4.55-11-14.56-5.81,7.56-10.27,7.92-13.48,1.09-5-10.55-8.68-21.66-12.08-32.82-.86-2.8-.83-7.76,3-7.51,7,.45,6.88-3.76,7.54-8.29.5-3.5,1.69-7.41,5.2-8.44,6.69-2,9.63-7.37,13.18-12.37,5,5.12,8.11,5.53,13.37-1.22,7.1-9.13,18.29-9.92,29.41-7.77A70.87,70.87,0,0,0,391.9,147.38Z"/><path class="cls-73" d="M342,155.71q-1.14,5.56-2.26,11.14c-.51,2.55-1.82,5.57-4.5,4.46-11.67-4.82-8.42,6.09-8.67,9.48-.63,8.77-2.23,10.39-12.06,6.43,1.5,8.58,5.39,16.11,8.64,23.14,2.29,4.95,1.66,10.58,5,14.9,1.37,1.76,2.81,3.39,5.08,2.58s1.68-2.62.61-4.18c-2.23-3.26-2.19-6.26,2.15-6.94,4.08-.64,5.09,3.14,5.54,6.14.33,2.27-.75,4.72-.8,7.1-.05,3,.84,5.06,4.66,5.34,13.36,1,26.68,3.19,40,3.37,13.85.18,26.26-7.51,39.88-9.36a4,4,0,0,0,1.74-1.1c1.44-1.27,7.11-32,5.71-33-6.87-4.53-4.05-10.77-3.39-16.66,4.16-3.16,8.32-3.18,12.49,0,4.87,6.25,1.72,14.21,4.51,20.93a21.66,21.66,0,0,1,.71,3.29c1.64,7.55.95,15.17.76,22.76-.11,4.69-1.33,8.93-6,11.27h-2.08c-3.6,1.86-8.28,1.91-10.41,6.24l-6.24,2.08c-1.45-2.63-3.43-4.61-6.65-3.55-26.4,8.7-51.84,1.46-77.7-3.59-14.24-2.78-19.91-16.18-31.79-21.32-2.18-.94-1.94-3.59.29-5,7.22-4.59,5.63-10.82,3.78-17.47-1.28-4.6-2.9-9.24-2.36-14.22.51-4.74.91-9.25,7.73-7.87,2.53.51,5.39-.54,6.35-2.7C326.54,161,334,158.1,342,155.71Z"/><path class="cls-88" d="M381.18,321.27a18.16,18.16,0,0,1-13,0A18,18,0,0,1,381.18,321.27Z"/><path class="cls-73" d="M443.92,199.4c-1.76-1-4.4-2.73-3.21-4.4,3.9-5.43.71-11,1.13-16.4,2.57,2.24,4,5.58,7.55,6.93,5.1,2,8.27,5,5.59,11.12-1,2.35-.23,4.63,1.25,6.82,3.47,5.14,3.13,10.24-.29,15.43a9.6,9.6,0,0,0-1.49,5.86c1.11,9.76-4.9,11.73-12.61,12.09C446.19,224.57,442.88,211.87,443.92,199.4Z"/><path class="cls-73" d="M427.27,174.44c-12.93,6.92-15.75-6.39-21.94-11.76-3.72-3.23-4.2-9.7-11.3-10.05-2.4-.12-.57-3.4,0-5.24,7.9.6,17.43-4.46,22.41,6.43.23.5,1.32,1.1,1.74.94,14.49-5.39,7.5,6.46,9.14,11.35C429,168.89,430,171.66,427.27,174.44Z"/><path class="cls-73" d="M427.27,174.44v-8.33c3.25,6,14.11,3.19,14.57,12.49-4.17.16-8.33,1.42-12.49,0C428.66,177.21,428,175.82,427.27,174.44Z"/><path class="cls-73" d="M429.35,243.1c-.38-8.5,4.51-8.21,10.41-6.24C437.49,240.94,433.62,242.35,429.35,243.1Z"/><path class="cls-74" d="M371.34,178.66c-3.95-1.86-11.79,4.52-11.55-3.22.19-5.71,7.92-.35,11-1.78,11.82-5.36,19,.18,25.86,8.63a5.61,5.61,0,0,0,4.59,1.6c4.24-.91,8.45-.09,9.78,3.64,1.73,4.87-3.89,4.47-6.48,6.11s-4.29,4.18-4,6.85c.93,8.78-2.87,9.84-11,10.16-9.55.37-19.55,2.1-28.32,6.95-1.95,1.09-3.66,2.48-5.31.29-5.76-7.62-12.71-15.47-10.7-25.56,1.78-9,10.82-6.35,17-6.35s12.09,2.57,18.28,1.46c2.47-.44,6.33.05,6.48-3.74.17-4-3.17-4.89-6.48-5C377.43,178.57,374.31,178.66,371.34,178.66Z"/><path class="cls-77" d="M447.27,194.17c2.07,0,2.54,1.24,2.45,2.64-.12,1.78-.93,3.36-2.94,3.26-.94,0-3,.59-2.69-1.65C444.35,196.34,445.33,194.7,447.27,194.17Z"/><rect class="cls-89" width="749" height="460"/><path class="cls-90" d="M62.57,177.12v6.63h5.32v5.91H62.57v13.78c0,2.2,1.08,3.25,3.39,3.25a12.54,12.54,0,0,0,1.9-.14v5.78a17.81,17.81,0,0,1-3.73.32c-6.77,0-9.4-2.26-9.4-7.87V189.66h-4v-5.91h4v-6.63Z"/><path class="cls-90" d="M98.05,203.73c-.86,5.64-6,9.43-13.13,9.43-8.86,0-14.18-5.67-14.18-14.88s5.37-15.14,13.88-15.14,13.67,5.66,13.67,14.42V200H78.45v.48c0,4.11,2.6,6.93,6.6,6.93,2.88,0,5.08-1.42,5.8-3.63Zm-19.52-8.59H90.75c-.17-3.68-2.56-6.2-6-6.2S78.79,191.54,78.53,195.14Z"/><path class="cls-90" d="M102.32,183.75h7.57V189h.16a8.46,8.46,0,0,1,8.22-5.74c4.16,0,7.06,2.14,8,5.9h.16a9.13,9.13,0,0,1,9-5.9c5.63,0,9.42,3.86,9.42,9.66v19.66H137v-17.7c0-3.33-1.66-5.15-4.7-5.15s-4.94,2.17-4.94,5.37v17.48H119.8V194.6c0-3.09-1.74-4.91-4.64-4.91s-5,2.25-5,5.48v17.37h-7.84Z"/><path class="cls-90" d="M148.7,204.27c0-5.24,4-8.27,11.2-8.7l7.25-.43v-1.91c0-2.68-1.88-4.24-4.84-4.24s-4.77,1.45-5.15,3.57H150c.29-5.58,5-9.42,12.67-9.42,7.39,0,12.2,3.81,12.2,9.61v19.79h-7.58v-4.4h-.16a9.9,9.9,0,0,1-8.78,4.86C152.86,213,148.7,209.45,148.7,204.27ZM167.15,202v-2.1l-6.07.38c-2.93.21-4.59,1.53-4.59,3.57s1.77,3.49,4.43,3.49C164.33,207.33,167.15,205.1,167.15,202Z"/><path class="cls-90" d="M180.68,200.22v-6.85h17.65v6.85Z"/><path class="cls-90" d="M203.89,193.1c0-12.52,6-20.2,15.82-20.2s15.79,7.66,15.79,20.17-6,20.33-15.79,20.33S203.89,205.64,203.89,193.1Zm23.36,0c0-8.84-2.79-13.7-7.54-13.7s-7.58,4.89-7.58,13.7,2.79,13.8,7.58,13.8S227.25,202,227.25,193.1Z"/><path class="cls-90" d="M249.89,181.23h-.16l-9.88,6.71v-7.19l10-7h8.06v38.75h-8Z"/><path class="cls-90" d="M262.62,221.27v-5.85h25.49v5.85Z"/><path class="cls-90" d="M289.26,214.58h7.68c.62,2,2.88,3.36,5.86,3.36,4.05,0,6.31-2.26,6.31-5.59v-5H309c-1.35,3.06-4.73,5.15-8.89,5.15-7,0-11.68-5.42-11.68-14.42s4.51-14.74,11.81-14.74a9.43,9.43,0,0,1,8.89,5.48h.13v-5H317v28.39c0,6.87-5.75,11.25-14.37,11.25C295,223.39,289.88,219.71,289.26,214.58Zm19.87-16.49c0-5.18-2.49-8.51-6.41-8.51s-6.32,3.28-6.32,8.51,2.42,8.33,6.32,8.33S309.13,203.3,309.13,198.09Z"/><path class="cls-90" d="M322.05,183.75h7.57v5.19h.17c1-3.66,3.46-5.64,6.84-5.64a8,8,0,0,1,2.23.29v6.9A8.26,8.26,0,0,0,336,190c-3.87,0-6.13,2.36-6.13,6.42v16.08h-7.84Z"/><path class="cls-90" d="M368.65,212.54h-7.58v-5.18h-.16c-1.42,3.62-4.27,5.72-8.62,5.72-6.23,0-10.37-4.06-10.37-10.77V183.75h7.85v16.92c0,3.84,1.9,5.88,5.37,5.88s5.66-2.49,5.66-6.31V183.75h7.85Z"/><path class="cls-90" d="M373.75,183.75h7.57v5.13h.16c1.53-3.57,4.57-5.66,9-5.66,6.39,0,10,4,10,10.77v18.55h-7.84V195.62c0-3.76-1.77-5.9-5.29-5.9s-5.75,2.57-5.75,6.31v16.51h-7.84Z"/><path class="cls-90" d="M404.39,198.09c0-9.13,4.57-14.79,11.79-14.79a9.25,9.25,0,0,1,8.78,5.39h.16v-14.9H433v38.75h-7.73V207.6h-.13a9.5,9.5,0,0,1-9,5.4C408.93,213,404.39,207.31,404.39,198.09Zm8,.06c0,5.29,2.42,8.54,6.37,8.54s6.39-3.28,6.39-8.54-2.5-8.57-6.39-8.57S412.42,192.88,412.42,198.15Z"/><path class="cls-90" d="M438.39,173.79h7.84v38.75h-7.84Z"/><path class="cls-90" d="M472,207.68h-.24c-2,3.3-5.61,5.32-10.48,5.32-6.79,0-11-3.55-11-8.73s4-8.24,11.39-8.65l7.14-.4v-1.58c0-2.66-2.17-4.65-5.16-4.65-2.82,0-4.88,1.48-5.13,3.6h-7.06c.27-5.61,5-9.45,12-9.45,4.59,0,8,1.69,9.58,4.32h.22c1.93-2.74,5.15-4.32,9.48-4.32,7.76,0,12.94,5.53,12.94,14.42v2.36h-19.6v.51c0,4.08,2.63,6.93,6.55,6.93a5.6,5.6,0,0,0,5.64-3.63h7.2c-.86,5.64-6,9.43-13,9.43C477.79,213.16,473.87,211,472,207.68ZM468.87,202v-2l-6.2.41c-3,.21-4.84,1.45-4.84,3.49s1.94,3.57,4.6,3.57C466,207.44,468.87,204.94,468.87,202Zm7.36-6.85h12c-.14-3.73-2.42-6.2-5.83-6.2S476.5,191.51,476.23,195.14Z"/><path class="cls-90" d="M499.65,214.58h7.68c.61,2,2.87,3.36,5.85,3.36,4.06,0,6.31-2.26,6.31-5.59v-5h-.16c-1.34,3.06-4.73,5.15-8.89,5.15-7,0-11.68-5.42-11.68-14.42s4.51-14.74,11.82-14.74a9.42,9.42,0,0,1,8.88,5.48h.14v-5h7.73v28.39c0,6.87-5.74,11.25-14.36,11.25C505.39,223.39,500.26,219.71,499.65,214.58Zm19.87-16.49c0-5.18-2.5-8.51-6.42-8.51s-6.31,3.28-6.31,8.51,2.42,8.33,6.31,8.33S519.52,203.3,519.52,198.09Z"/><path class="cls-90" d="M532.28,214.58H540c.61,2,2.87,3.36,5.85,3.36,4.06,0,6.31-2.26,6.31-5.59v-5H552c-1.34,3.06-4.73,5.15-8.89,5.15-7,0-11.68-5.42-11.68-14.42s4.51-14.74,11.82-14.74a9.45,9.45,0,0,1,8.89,5.48h.13v-5H560v28.39c0,6.87-5.74,11.25-14.36,11.25C538,223.39,532.89,219.71,532.28,214.58Zm19.87-16.49c0-5.18-2.5-8.51-6.42-8.51s-6.31,3.28-6.31,8.51,2.42,8.33,6.31,8.33S552.15,203.3,552.15,198.09Z"/><path class="cls-90" d="M591.33,203.73c-.86,5.64-6,9.43-13.13,9.43-8.86,0-14.18-5.67-14.18-14.88s5.37-15.14,13.88-15.14,13.67,5.66,13.67,14.42V200H571.73v.48c0,4.11,2.6,6.93,6.6,6.93,2.88,0,5.08-1.42,5.8-3.63Zm-19.52-8.59H584c-.16-3.68-2.55-6.2-6-6.2S572.08,191.54,571.81,195.14Z"/><path class="cls-90" d="M595.6,183.75h7.57v5.13h.17c1.53-3.57,4.56-5.66,9-5.66,6.39,0,10,4,10,10.77v18.55h-7.84V195.62c0-3.76-1.77-5.9-5.29-5.9s-5.75,2.57-5.75,6.31v16.51H595.6Z"/><path class="cls-90" d="M626.24,198.09c0-9.13,4.57-14.79,11.79-14.79a9.24,9.24,0,0,1,8.78,5.39H647v-14.9h7.84v38.75h-7.74V207.6H647a9.5,9.5,0,0,1-9,5.4C630.78,213,626.24,207.31,626.24,198.09Zm8,.06c0,5.29,2.42,8.54,6.37,8.54s6.39-3.28,6.39-8.54-2.5-8.57-6.39-8.57S634.27,192.88,634.27,198.15Z"/><path class="cls-90" d="M686.32,203.73c-.86,5.64-6,9.43-13.13,9.43-8.87,0-14.18-5.67-14.18-14.88s5.37-15.14,13.88-15.14,13.67,5.66,13.67,14.42V200H666.71v.48c0,4.11,2.61,6.93,6.61,6.93,2.87,0,5.08-1.42,5.8-3.63Zm-19.53-8.59H679c-.16-3.68-2.55-6.2-6-6.2S667.06,191.54,666.79,195.14Z"/><path class="cls-90" d="M85.4,278.54H77.05l-5.21-20.35h-.16l-5.19,20.35H58.25L50.6,249.75h7.89l4.35,21.35H63l5.11-21.35h7.51l5.13,21.35h.17l4.37-21.35H93Z"/><path class="cls-90" d="M122,269.73c-.86,5.64-6,9.43-13.13,9.43-8.86,0-14.18-5.67-14.18-14.88s5.37-15.14,13.88-15.14,13.67,5.66,13.67,14.42V266H102.35v.48c0,4.11,2.6,6.93,6.6,6.93,2.88,0,5.08-1.42,5.8-3.63Zm-19.52-8.59h12.22c-.17-3.68-2.56-6.2-6.05-6.2S102.7,257.54,102.43,261.14Z"/><path class="cls-90" d="M134.3,273.6h-.16v4.94h-7.73V239.79h7.84v15h.16a9.37,9.37,0,0,1,8.89-5.45c7.25,0,11.71,5.56,11.71,14.85S150.58,279,143.33,279A9.5,9.5,0,0,1,134.3,273.6Zm-.08-9.45c0,5.21,2.58,8.54,6.4,8.54s6.36-3.28,6.36-8.54-2.47-8.57-6.36-8.57S134.22,259,134.22,264.15Z"/><path class="cls-90" d="M158,264.09c0-9.13,4.56-14.79,11.79-14.79a9.26,9.26,0,0,1,8.78,5.39h.16v-14.9h7.84v38.75h-7.73V273.6h-.14a9.48,9.48,0,0,1-9,5.4C162.56,279,158,273.31,158,264.09Zm8,.06c0,5.29,2.41,8.54,6.36,8.54s6.39-3.28,6.39-8.54-2.49-8.57-6.39-8.57S166.05,258.88,166.05,264.15Z"/><path class="cls-90" d="M218.09,269.73c-.86,5.64-6,9.43-13.13,9.43-8.86,0-14.18-5.67-14.18-14.88s5.37-15.14,13.89-15.14,13.66,5.66,13.66,14.42V266H198.49v.48c0,4.11,2.6,6.93,6.61,6.93,2.87,0,5.07-1.42,5.8-3.63Zm-19.52-8.59h12.22c-.16-3.68-2.55-6.2-6-6.2S198.84,257.54,198.57,261.14Z"/><path class="cls-90" d="M233.94,249.14c7.38,0,11.95,3.78,12.11,9.42h-7.22c-.25-2.33-2-3.92-4.89-3.92-2.71,0-4.51,1.24-4.51,3.14,0,1.48,1.07,2.47,4,3.09l4.92,1.05c6,1.26,8.48,3.62,8.48,7.84,0,5.67-5.18,9.4-12.59,9.4-8,0-12.54-3.71-13.05-9.37h7.65c.48,2.52,2.28,3.86,5.4,3.86,2.95,0,4.78-1.2,4.78-3.08,0-1.53-1-2.39-3.82-3l-4.91-1c-5.56-1.18-8.38-4-8.38-8.3C221.88,252.73,226.61,249.14,233.94,249.14Z"/><path class="cls-90" d="M250.62,241.83a4.08,4.08,0,1,1,4.08,4A4,4,0,0,1,250.62,241.83Zm.18,7.92h7.85v28.79H250.8Z"/><path class="cls-90" d="M263.7,280.58h7.68c.61,2,2.87,3.36,5.85,3.36,4.06,0,6.31-2.26,6.31-5.59v-5h-.16c-1.34,3.06-4.73,5.15-8.89,5.15-7,0-11.68-5.42-11.68-14.42s4.51-14.74,11.81-14.74a9.43,9.43,0,0,1,8.89,5.48h.14v-5h7.73v28.39c0,6.87-5.74,11.25-14.36,11.25C269.44,289.39,264.31,285.71,263.7,280.58Zm19.87-16.49c0-5.18-2.5-8.51-6.42-8.51s-6.31,3.28-6.31,8.51,2.42,8.33,6.31,8.33S283.57,269.3,283.57,264.09Z"/><path class="cls-90" d="M296.48,249.75h7.58v5.13h.16c1.53-3.57,4.57-5.66,9-5.66,6.39,0,10,4,10,10.77v18.55h-7.85V261.62c0-3.76-1.77-5.9-5.29-5.9s-5.74,2.57-5.74,6.31v16.51h-7.85Z"/></svg>
