<svg id="Layer_1" data-name="Layer 1" xmlns="http://www.w3.org/2000/svg" width="1439.68" height="586.34" viewBox="0 0 1439.68 586.34"><defs><style>.cls-1,.cls-120{opacity:0.7;}.cls-2{fill:#f7f3d3;}.cls-3{fill:#917850;}.cls-4{fill:#a3926b;}.cls-5{fill:#bcad8a;}.cls-6{fill:#a18e6b;}.cls-7{fill:#2f271a;}.cls-8{fill:#a69472;}.cls-9{fill:#f2e6b5;}.cls-10{fill:#f2dfa3;}.cls-11{fill:#f2ebc2;}.cls-12{fill:#e4cb8f;}.cls-13{fill:#ecd39a;}.cls-14{fill:#bfad7f;}.cls-15{fill:#d7c398;}.cls-16{fill:#b2a27e;}.cls-17{fill:#eeebd6;}.cls-18{fill:#3e3e3e;}.cls-19{fill:#9a7e51;}.cls-20{fill:#826436;}.cls-21{fill:#8c7243;}.cls-22{fill:#715738;}.cls-23{fill:#524e49;}.cls-24{fill:#ba9c63;}.cls-25{fill:#c3a669;}.cls-26{fill:#d4b67b;}.cls-27{fill:#ddc388;}.cls-28{fill:#d1b578;}.cls-29{fill:#bc9f69;}.cls-30{fill:#b1935d;}.cls-31{fill:#5a4c33;}.cls-32{fill:#f1dfad;}.cls-33{fill:#eee8c5;}.cls-34{fill:#e5d49a;}.cls-35{fill:#dfc889;}.cls-36{fill:#e1ce98;}.cls-37{fill:#e1cb8e;}.cls-38{fill:#dbc185;}.cls-39{fill:#ead5a9;}.cls-40{fill:#daba75;}.cls-41{fill:#ad9c69;}.cls-42{fill:#c8b88d;}.cls-43{fill:#9d8353;}.cls-44{fill:#94764b;}.cls-45{fill:#977b4f;}.cls-46{fill:#8c6f43;}.cls-47{fill:#866b3a;}.cls-48{fill:#402b0b;}.cls-49{fill:#4d381a;}.cls-50{fill:#ac8e57;}.cls-51{fill:#ead5a2;}.cls-52{fill:#bfa264;}.cls-53{fill:#b5975c;}.cls-54{fill:#806c4a;}.cls-55{fill:#bda779;}.cls-56{fill:#d3b576;}.cls-57{fill:#cbaf72;}.cls-58{fill:#6b593d;}.cls-59{fill:#584830;}.cls-60{fill:#c9ac69;}.cls-61{fill:#d0b36f;}.cls-62{fill:#c3a667;}.cls-63{fill:#b69761;}.cls-64{fill:#b79d62;}.cls-65{fill:#bfa265;}.cls-66{fill:#bb9e62;}.cls-67{fill:#d5ba72;}.cls-68{fill:#1d1512;}.cls-69{fill:#1e100a;}.cls-70{fill:#30231b;}.cls-71{fill:#271c16;}.cls-72{fill:#817557;}.cls-73{fill:#574724;}.cls-74{fill:#cab376;}.cls-75{fill:#271e12;}.cls-76{fill:#c0a15c;}.cls-77{fill:#a3732d;}.cls-78{fill:#c6a052;}.cls-79{fill:#a59156;}.cls-80{fill:#cfb26c;}.cls-81{fill:#2c2212;}.cls-82{fill:#e1cea3;}.cls-83{fill:#dec89c;}.cls-84{fill:#20140a;}.cls-85{fill:#c2a768;}.cls-86{fill:#cfbb8e;}.cls-87{fill:#1e130c;}.cls-88{fill:#292010;}.cls-89{fill:#362308;}.cls-90{fill:#8c7445;}.cls-91{fill:#3b2c19;}.cls-92{fill:#e2ce97;}.cls-93{fill:#211308;}.cls-94{fill:#9a886c;}.cls-95{fill:#130400;}.cls-96{fill:#836b2f;}.cls-97{fill:#2d1e11;}.cls-98{fill:#68522d;}.cls-99{fill:#392928;}.cls-100{fill:#41302c;}.cls-101{fill:#312523;}.cls-102{fill:#968353;}.cls-103{fill:#d1bf8f;}.cls-104{fill:#c1a562;}.cls-105{fill:#af904b;}.cls-106{fill:#bfa96f;}.cls-107{fill:#251b19;}.cls-108{fill:#281e1c;}.cls-109{fill:#1f1715;}.cls-110{fill:#2d2220;}.cls-111{fill:#352a28;}.cls-112{fill:#af9b6e;}.cls-113{fill:#b1924d;}.cls-114{fill:#463433;}.cls-115{fill:#40302e;}.cls-116{fill:#3a2e2c;}.cls-117{fill:#2c211f;}.cls-118{fill:#4e3a38;}.cls-119{fill:#544040;}.cls-120{fill:#b160c9;}.cls-121{fill:#fff;}</style></defs><title>tema_0_button_big</title><g class="cls-1"><path class="cls-2" d="M1002.38,76.85l2.49-3.22,48.07-.55,14,1c-3.33,10.8-13.15,13.15-22,16.49-8.17,3.08-17.16,3.37-25.3,6.72-10.54,6.09-9,17-11,26.62-.69,3.26,1.63,13.13-8,6.56C1001.55,112.6,998.43,94.61,1002.38,76.85Z"/><path class="cls-3" d="M1317.27,464.49c-.31,1-.63,2.05-1,3.08-4.48,8.24-1.6,17.45-3.44,26-1.16,5.36-.47,11.33-5.06,15.59l-.14,1.29a159.48,159.48,0,0,0-17.76-.64c-9-.17-18,.38-27-.36a8,8,0,0,1-3.53-2c-2-7.43,11.63-4.1,8.52-12.33,4.19-5.09,11.06-2.25,15.88-5.42,3.21-2.16,3.23-6.57,6.23-8.88,12.41,2,14-8,17.59-15.86,1.79-2.2,1.83-5.53,4.49-7.22a4,4,0,0,1,4.73,1.39C1317,460.93,1317.14,462.71,1317.27,464.49Z"/><path class="cls-4" d="M1327.33,141.52c1.77,73.71-2,147.34-2.63,221a3.31,3.31,0,0,1-4.38-1c-4.24-7.74-1.74-16.17-2.47-24.26-.57-37.8-.25-75.56,1.66-113.36.56-11,.33-22.15,1.15-33.24.07-12-.24-24,.18-36C1321,149.61,1319.51,143.13,1327.33,141.52Z"/><path class="cls-5" d="M1327.33,141.52c-5.46,16.71-.81,34-2.76,50.86-3.26.43-4.65-1.77-5.89-4.17-1.68-20-1.21-40.12-.87-60.2.17-9.82.06-19.62-2.67-29.17-.11-2.53-.14-5.07-.45-7.59-.51-4.37.27-8.4,3.25-11.81a3,3,0,0,1,4.38-.33l5.52,2.69.13.27c2.3,12.12,1.09,24.3.71,36.48Z"/><path class="cls-6" d="M1322.1,362.55h2.6c-.06,27.1-.25,54.2-.08,81.3.05,6.72-1.94,11.84-7.76,15.31l-6.2,0c-.28-.51-.56-1-.86-1.53a55.32,55.32,0,0,1,.88-12.18,11.05,11.05,0,0,1,4.18-5.69c6.22-10.52,1.62-22,3-33,0-10.14-.12-20.24.08-30.34C1318,371.46,1317.29,366.14,1322.1,362.55Z"/><path class="cls-7" d="M1291.05,507.52c5.72,0,11.63-1,16.63,3-4.63,3.35-10,2.22-15.07,2.22q-132.18.12-264.37,0c-5,0-10.49,1.42-14.81-2.76.9-.06,1.79-.13,2.68-.21,5.27-5.6,12.21-4,18.59-4q76.74-.21,153.46,0a145,145,0,0,0,26.58-2c6.55-1.13,13.16-.88,19.76-.57,6.38,1.68,12.77,3.43,19.43,1.29a8.17,8.17,0,0,1,5.85,2.58l-.13.56A112,112,0,0,0,1291.05,507.52Z"/><path class="cls-8" d="M1307.82,509.2c2-14.05-.4-29,8.5-41.63-.39,13.2,3.08,26.63-2.28,39.55C1312.5,509.37,1310.26,509.59,1307.82,509.2Z"/><path class="cls-9" d="M1172,76.07l17,.23c.68,2,.22,4.22-1.62,4.76-16.42,4.88-30.69,16.39-48.6,16.46-14.18,0-26.46,7.65-41.3,9.15,10.57.38,10.57.38,10.94,8.64-12.79,4.33-26,1.21-39,2.15-10.68.77-21.54-1.67-32,1.82a17.56,17.56,0,0,0-3.22,2.74c-4.51,7-1.54,15-2.78,22.47a10.46,10.46,0,0,1-2.34,5.6c-6.58,2.37-12.15,5.33-14.77,12.91-1.76,5.08-6.13,8.59-11.55,2.62-3.13-14.82,3.24-28.5,5-42.72,1.43-6.84,2.17-18.72,7.17-18.4,9.09.59,8.79-8.66,14.91-9.37,13-5.45,26.54,1.06,40.13-2.47,18.32-4.76,37.86-3.44,55.41-13.34,8.81-5,20.13-3.31,30.43-2.29C1161.3,77.57,1166.79,79.37,1172,76.07Z"/><path class="cls-10" d="M1109.56,112.68c-4.45-4.68-10.83-4.69-18.09-6.31,32.36-14.45,67.21-14.88,97.49-30.07l5.67-.11c2.88,17.9,2.88,17.9-19.32,24-7.07.06-14.1,1.58-21.16.36-7.62-.23-14.45,1.13-19.44,7.84s-12.85,6.16-20,7.43C1112.53,115.55,1110.66,114.75,1109.56,112.68Z"/><path class="cls-11" d="M1172,76.07c-3.62,4.2-8.57,2.92-13.14,3.17-14.16.78-28.69-1.18-40.57,10.35-4,3.91-11.35,3.3-17.47,4-23.45,2.75-46.93,4.91-70.54,5.45a4.41,4.41,0,0,1-1-4.26c8.19-7.06,18.67-4.88,28.07-6.4,10.21-1.64,20.09-2.16,29.11-8.67,6.47-4.66,15.46-3,23.23-4.7,16.34.64,32.72-1.37,49,1.07A25.89,25.89,0,0,1,1172,76.07Z"/><path class="cls-12" d="M1205.94,76.5a54.88,54.88,0,0,1,27.66,2.32c2.68-1.26,5.48-1,8.27-.72,1.26.9,1.85,3.19,1.07,3.39-9,2.37-9.65,11.84-15,17.31a20,20,0,0,1-10.82,2.26c-5-1.29-10.54.7-15.25-2.38C1197.69,90.29,1208.37,84.58,1205.94,76.5Z"/><path class="cls-13" d="M1205.94,76.5c5.32,4.81,2.18,15.67-5.7,19.72-4.48,5.52-10.36,5.14-16.44,3.92a8.89,8.89,0,0,1-6.27-4c12.63-.72,12.13-12.69,17.1-20Z"/><path class="cls-14" d="M1242.73,79.3l-9.13-.48c7.12-5.73,15.43-2.7,23-2.38,21.9.91,44-2.51,65.72,2.67l-3.59.44a15.54,15.54,0,0,1-11.25,5.17c-17.9.54-35.79.63-53.68,0C1249.46,84.5,1245.48,83,1242.73,79.3Z"/><path class="cls-9" d="M1158.7,76.1l-52.14.47c-1.53,1.45-3.31,1.26-5.13.8a2.1,2.1,0,0,1-.83-2c.15-.73.32-1.1.53-1.1l55.55,0A16.52,16.52,0,0,1,1158.7,76.1Z"/><path class="cls-2" d="M1101.13,76.39l5.43.18c-21.39,11.53-43.34,20.78-68.55,17a8.93,8.93,0,0,0-7.74,2.66,11.27,11.27,0,0,1-10.76,1.14,2.74,2.74,0,0,1-.58-4c16.67-4.76,33.54-9,48-19.3l17.32.07C1089.64,76.6,1095.83,73.1,1101.13,76.39Z"/><path class="cls-11" d="M1101.13,76.39c-5.67-.49-11.67,1.6-16.9-2.23l16.9.08C1101.12,75,1101.12,75.67,1101.13,76.39Z"/><path class="cls-15" d="M1001.67,453.3l.27-65.26a3.28,3.28,0,0,1,4.37.66c5,9,1.75,18.86,2.71,28.27-2.31,10.16,4.26,18,7,26.94.94,5.47-.68,10.2-4.21,14.36-3.31,2.42-5.32.17-7.33-2.06Z"/><path class="cls-16" d="M1004.44,456.21l5.85,2.52,1.63,1.32a11,11,0,0,1,1.51,8c-2.46,7.34-.92,15.47-4.18,21.38.25-2.18,1.8-3.81,5.41-2.28,5.62,5.42,6.86,11.63,3.35,18.68l-1.76,1.53c-10.85.79-11.37-6.88-11.91-14.54Q1004.39,474.49,1004.44,456.21Z"/><path class="cls-17" d="M1001.64,178.47a284.83,284.83,0,0,1,0-45.25c6-8.58,1.87-19.16,5.65-28.38,2.43-5.92,3.52-11.84,11.61-11.45,0,1,0,1.9,0,2.85-5.7,7.54-7,16.57-8.5,25.5-.59,15.27-6.58,29.88-5.61,45.35,2.87,3.44,3.6,7.07,1,11A3.05,3.05,0,0,1,1001.64,178.47Z"/><path class="cls-18" d="M1217.39,507.56c-4.17,3-9,2.19-13.64,2.19q-93.82,0-187.64,0c0-.8.09-1.6.14-2.4l-.34-.9a30.21,30.21,0,0,1,4.63-2.78c21.42-4.92,43-1.7,64.46-.88,37.73.76,75.4-2.94,113.14-1.41C1205.14,501.65,1212.53,500.66,1217.39,507.56Z"/><path class="cls-19" d="M1217.39,507.56l-133.33-1.06c-2.29-3.06-10-1.51-7.93-7.7,1.53-4.58,6.61-4.24,11-3.53,10.23,1.64,20.54-2.33,27.81,0-19.32,5.88-38.51-7.34-59.45-10.08-5.91-.77-6.34-6.09-5.72-11.15,2.2-6.62,7.48-8.42,13.46-7.51,28.46,4.36,57.44-.4,85.83,5a13,13,0,0,0,4.18-.37c12.63-.49,23.73,2.92,33.72,11.19,6.09,5,13.81,6.66,22,7.82,9.76,1.38,20.56-1.68,29.53,6.11,3.2,2.78,9-.26,13.51-1.48,5-1.34,9.78-3.6,14.91-.73.47.5.93,1,1.39,1.53,7.06,11.28-6,7.36-8.59,11.4l-5.62.52a33.32,33.32,0,0,1-17.17,0Z"/><path class="cls-20" d="M1290.94,481.53c-.25,4,.76,8.29-2.71,11.53a8.23,8.23,0,0,1-3-2.93c-1.67-4.49-1.59-9.23-2-13.89a7.51,7.51,0,0,0-1.42-3.39c-26.65-4.53-53.48-4-80.28-4.2-6.31-.06-13.2,1.8-18.58-3.62a4.31,4.31,0,0,1,.58-4.54c6.79-3.92,14.45-4.41,21.92-5.7,29.06-2.75,58.18-1.59,87.28-1.56,6.57,0,13.31-.43,18.12,5.49l-.19.41c.73,1.79,2.5,3.56.08,5.4C1307.79,474.44,1298.39,476.85,1290.94,481.53Z"/><path class="cls-21" d="M1290.94,481.53c0-4.54,1-8.62,6.54-8.34,6.77.34,8.38-6.53,13.26-8.66-1,3.51-2,7-2.94,10.52C1304.31,487.82,1301.5,488.9,1290.94,481.53Z"/><path class="cls-22" d="M1288.1,470.18c0,1-.09,2-.14,3.06a19.8,19.8,0,0,1-8,4.9c-4.73,2.57-6.45,5.13,0,7.79a12.67,12.67,0,0,1,8.07,3.91c.09,1.07.17,2.14.26,3.22-6.14,4.65-13.23,1.76-19.86,2.5l0,0c-6.51-5.89-4.35-13.32-3.65-20.49C1270.34,463.25,1279.84,469.66,1288.1,470.18Z"/><path class="cls-23" d="M1291.05,507.52a49.88,49.88,0,0,1-31.4,0Z"/><path class="cls-24" d="M1322.1,362.55l-.14,48c-1.82,1.82-3.89,1.86-6.1.83-6.38-7.25-3.87-15.9-3.72-24.15.11-6.07.93-12.13-.06-18.18-1.27-7.44.39-15.13-1.54-22.48-1.42-5.41-3.8-8.72-9.71-3.4-10.52,9.49-23.78,9.46-36.68,9.68.18,0-.57-.09-.57-.09a5.53,5.53,0,0,0,.65.15c4.32,1.74,10.47,2.67,9.54,8.31-1,6.42-7.6,5.14-12.46,5.49s-10.13-.73-14.74,2.07c-3.19,2.37-5.15,6.52-9.8,6.76-10.83-1.61-22.07,2-32.69-2.47-2.06-1.88-2.49-4.39-.38-6,10.64-8.06,19.25-19.28,33-22.58,11-2.63,16.24-9.93,18.06-20.48,6.15-4.08,13.55-1.46,20-3.82a19.12,19.12,0,0,1,4-.17c5.62.76,11.32,3.05,16.68-1a21.06,21.06,0,0,0,3.3-2.5,22.26,22.26,0,0,1,7.68-5.79c9.52-4.16,13.59-1.6,14.24,8.54.38,5.89-1.4,11.93,1.22,17.66Q1322,349.73,1322.1,362.55Z"/><path class="cls-25" d="M1321.91,336.92c-3.35-3.34-2.31-7.67-2.73-11.71-.45-4.31,2.17-10.26-3.28-12.3-5.23-2-9.46,1.9-12.9,5.85-1.19,1.38-2.45,2.71-3.67,4.06-4.39-3.42-7.47-7.71-5.68-13.41,2.47-7.84.53-16,2.52-23.84,2.94-8.7,1.48-17.73,1.9-26.61.18-3.76,0-7.62,2.57-10.75,1.22-1.48,2.95-2.55,4.64-.83a5,5,0,0,1,1.44,3.21c-.28-5.12-5-11.45-2.38-18.32,1-2.69,2.34-6,5.44-5.52,2.9.43,4.56,3.85,3.82,6.69-2.58,9.91.34,19.53.84,29.27,1.46,5.8-.54,11.9,1,16.63-1.25-6.2.46-13.79-1.75-21,1-7.72-3.75-15.51.29-23.19,2.11-10.75.38-21.62,1.17-32.4.38-5.21-1.4-11.9,6.87-13.12.86.91,1.71,1.83,2.56,2.74Q1323.24,264.65,1321.91,336.92Z"/><path class="cls-26" d="M1217.27,96.29l11.31-.08c4.05-2.24,7.86-5.27,12.72-5.31,25.94-.21,51.88-1.11,77.82-.33,0,1.9,0,3.8.05,5.69-1.92,3.46-4.36,6.28-8.53,7-16.93,3.2-34.39-2.36-51.19,3a7.13,7.13,0,0,1-3.93.42c1.19,1.17,2.47.31,3.66.07,1.75-.35,3.46-.94,5.27-1.17,10.72-1.6,22.18-5.36,27.06,9.55-3.12,5.63-8.66,4.79-13.75,5.15-52,.14-104.07,0-156.09,0-28.73-.52-57.47,1.07-86.19-.78a12.6,12.6,0,0,1-4.57-2.82c3.34-6,9.12-3.69,13.91-3.75,21.58-.29,43.16-.22,64.74-.28l5.65.23a168.25,168.25,0,0,1,57.09-3.9c2.41,0,4.84,0,7.24,0a106,106,0,0,1,40.93,2.88c4.08.34,2.26-3.07,2.52-1.2.06.46-.21.68-.81.62-5.31-.5-12.18,1.24-13.8-6C1207,99.07,1213.29,98.35,1217.27,96.29Z"/><path class="cls-27" d="M1319.12,90.57c-5.32,4.45-11.35,5.89-18.33,5.8-24.07-.33-48.14-.14-72.21-.16-3.49-12.5,5.33-14.7,14.15-16.91l76,.25C1318.86,83.22,1319,86.9,1319.12,90.57Z"/><path class="cls-28" d="M1310.74,99.09l8.43-2.83c5.84,31,1.65,62.27,2.84,93.39-5.55,9-1.59,18.86-2.77,28.26-.84,6.66,2.16,13.87-2.84,19.94-8.75-12.46-5.68-27.06-7.1-40.77-3.22-30.88-2-61.85-.66-92.8C1308.71,102.4,1309.87,100.75,1310.74,99.09Z"/><path class="cls-29" d="M1310.85,458.72l-107.65.37c-39.18,5.9-78.57,4.33-117.89,3.19-5.11-2.37-6.88-5.34-.81-8.59,3.85-2.06,8.39-1.84,11.24-2.23-15.47,4.6-31.9-3.09-48.8-2.07-11.58.69-22.29,1.08-30.35,10.63a5.82,5.82,0,0,1-6-1.09l-.34-.19q1.56-7,3.14-14c.92-3.72,3.52-5.61,7-6.51,8.38-1.07,16.81-.41,25.23-.62,16.48,1.1,32.85-1.83,49.31-1.44,11.82,2.81,23.67,1,35.5.15a90.49,90.49,0,0,0,29.24.33,27.61,27.61,0,0,1,17.7,2.64c10.57,4.94,21.46,8.26,33.35,6.26,5.1-2.6,10.1-5.48,16.14-5,8.93.28,17.35-4.06,26.35-2.89,13.07-.1,26.17-.28,39.19,1.81,9.55-3.77,16.43-.72,21,8.12C1314.76,451.81,1314.86,455.76,1310.85,458.72Z"/><path class="cls-4" d="M1316.42,410.66l5.55-.13c0,9.89,0,19.79.1,29.69,0,7.18-3.1,3.33-5.63,1.64-3.07-2.28-3.86-5.64-4.36-9.15C1310.45,424.76,1309.67,417,1316.42,410.66Z"/><path class="cls-30" d="M1316.37,433.35c0,2.84.05,5.68.07,8.51l-2.91,5.72c-6.94-4.28-14.26-7.06-22.61-5.71a3.16,3.16,0,0,1,.3-4.07C1299.16,433.84,1307.08,429.7,1316.37,433.35Z"/><path class="cls-23" d="M1237,507.45l17.18,0A16.66,16.66,0,0,1,1237,507.45Z"/><path class="cls-31" d="M1030.91,116.72a16.74,16.74,0,0,0,2.24,0c14.48,4.75,11.1,16.17,10,26.77-.31,19.15-.06,38.27-.13,57.4,0,9.48.08,19,0,28.44-.88,15.41,2.27,30.7,1.39,46.1-1.49,8-2,16.08-.44,24.18a9.53,9.53,0,0,1-2.69,7.05c-3.21,2.89-4.8,9.34-10.35,7.35-5.85-2.09-4.45-8.34-4.68-13.25a24.33,24.33,0,0,1,.92-8.21c2.69-34.1,3.24-68.18-.43-102.25-1.16-8.56-.48-17.18-.66-25.77-1.23-7,3-13.3,2.8-20.18.61-8.45-1.29-17,1.16-25.39A4.59,4.59,0,0,0,1030.91,116.72Z"/><path class="cls-32" d="M1004.75,178.35q.06-5.62.1-11.26c6-.89,7.23-6.36,7.36-10.39.47-13.79,6.8-12,15.13-6.63,3,4.49.92,9.52,1.53,14.26-.3,4.75.71,9.58-.78,14.25-11.3,1-13,9.2-14.76,18.42-7.46,39.9-3.14,80.17-4.31,120.28-.51,6.41,1.32,13.13-2.65,19.05a3.33,3.33,0,0,1-4.44.72q-.15-62.24-.32-124.46C1006.44,201.53,1000.6,189.48,1004.75,178.35Z"/><path class="cls-33" d="M1010.47,121.74c1.38-9-4.22-20.3,8.5-25.5l11.3,0c0,1,0,1.9,0,2.85C1019.16,102.67,1013.43,111,1010.47,121.74Z"/><path class="cls-34" d="M1030,119l-.13,25.48c-.71,1.46-1.47,1.55-2.26.07C1028.33,136,1025,127.08,1030,119Z"/><path class="cls-35" d="M1027.65,144.51c.75,0,1.51-.07,2.26-.07q0,9.87-.07,19.75c-.61,1.55-1.33,1.59-2.14.13l-.36-14.25C1027.45,148.21,1027.55,146.36,1027.65,144.51Z"/><path class="cls-36" d="M1174.67,113.1l-59.46-.17c7.31-3.92,18.17-1.93,20.06-15,.53-3.66,11-1.06,16.82-1.59,4.54,4.83,11.1,6.06,16.52,9.32C1171.49,107.39,1176,107.87,1174.67,113.1Z"/><path class="cls-37" d="M1174.67,113.1c-5-2.1-10.25-3.65-14.76-6.46-3.64-2.25-10.52-3-7.82-10.31l25.45-.17,5.74.16c-2.41,9-7.57,5.12-11.76,3.78,1.58,2.49,5.34,1.52,8.62,1.89,3.48.39,6.67,1.19,7,5.39.41,4.87-4.54,3.77-6.75,5.76Z"/><path class="cls-38" d="M1180.42,113.14c1.19-2.77,9-5.81-.12-8.17-3.87-1-8.34-.17-11-4.46,4.24-3.11,10.38.44,14-4.19l17-.1,17,.07c-9.36,10.81-9.16,11.12,10,16.85Z"/><path class="cls-39" d="M1001.93,337.05l2.79,0c6.86,17,6.78,34,0,51l-2.82.05Q1001.93,362.56,1001.93,337.05Z"/><path class="cls-35" d="M1004.76,388q0-25.49,0-51l.12-19.79c3-18.65,1.08-37.43,1.21-56.13.11-13.64,1-27.22,1.83-40.79.4-6.34.35-14.44,9.58-14.62s11.14,6.93,11.36,14.61a35.85,35.85,0,0,0,1.09,8.37c.6,5.13.3,10.28.38,15.43-.09,12.71.19,25.42-.17,38.12-3.64,11-1.48,22.66-3.86,33.8-7.07,3.69-7.88-2.39-8.68-6.34-2.25-11.22-3.19-22.6-.59-35.51-3.57,12.4-.34,23.58-1.35,34.51-2.38,25.57.44,51.23-1.9,76.77a29.47,29.47,0,0,1,.72,8.63,30.46,30.46,0,0,1-.33,4.27,19.23,19.23,0,0,1-1.17,4.08c-3.08,5.4,2.75,15.12-8.07,16.82Q1004.83,403.61,1004.76,388Z"/><path class="cls-40" d="M1004.89,419.24c5.7-5.55-.31-14.38,5.56-19.88,2.95,3.38,6.86,4.63,11.21,4.9-4.28-.43-8.27-1.49-11.21-4.9l0-2.84c6.68-6,5.31-19,17.51-20.33a9.43,9.43,0,0,1,3.39,4.57c3,7,6.09,7,9.27.09,4.63-8.52,10.7-4.57,16.65-2,3.49,6.29,12.09,3.45,16.06,8.91.61,3.45-1.53,5.42-4.17,6.51-7.78,3.21-15.16,5.8-9.68,17.14,2.35,4.89-3.13,9.15-7,7.22-7.67-3.8-12.94-.63-19.08,2.73-5.29,2.89-11.72-3.72-17.56,1.1,17.16,5.4,33.78,10.64,51.6,10.21,2.81-.07,6.79,1.47,5.38,6.31-9.11,3.1-18.49.64-27.7,1.42-8.72.76-17.6-1.59-26.19,1.4l-5.53,2.92C1007,437.44,1003.37,429.2,1004.89,419.24Z"/><path class="cls-41" d="M1010.63,458.93l5.49-.1c.47.5.94,1,1.43,1.49,3.92,13.08,5.36,26.56,6.25,40.13,0,3.26-2,5-4.81,6.08l-3.08-.1c1.15-6.69-1.09-12.89-2.67-19.19-5.15-6-5.38-12.75-2.81-19.87Z"/><path class="cls-42" d="M1010.43,467.37c-.65,6.84,1.2,13.34,2.81,19.87-4.16,1.93-.53,6.93-4.48,10.38C1007.8,486.74,1005.15,476.94,1010.43,467.37Z"/><path class="cls-43" d="M1019,506.53l2.8-5.24c.27-8.72-2.84-17.28-1.46-26,.9-5.72.09-12.38,7.11-15.33a10,10,0,0,1,4,.38c7.86,4.23,17.09,6.57,21.56,15.52.22,2.22.68,6.64,1.94,5.88,11.09-6.67,19.39,1.2,26.92,6,12.7,8.13,26.66-.92,39.13,5,2.66,1.26,6.55-.84,10.27,4.26h-53l5.87,9.51Z"/><path class="cls-44" d="M1053,475.83c-7.89-4.14-17.28-5.88-22.62-14.1,3.12-3.94,7.37-4,11.78-3.42,17.14,3.38,34.58,2.72,51.87,3.17,28.13.74,56.3.35,84.43.73,12.95,8.58,27.52,4.21,41.37,4.64,5.06.16,10-.07,15,1.13,8.75,2.12,11.65,7,7.35,15.32-16.47,10.91-31.92.42-47.62-2.6-13.12-2.53-25.61-9.43-39.58-4.85-21,.17-41.62-4-63-2.15-7.33.64-18.9,2.3-28-2.72C1060.05,468.83,1054.41,469.21,1053,475.83Z"/><path class="cls-45" d="M1154.94,475.85c11.53-5.15,23.71-5,35.18-1.45,8,2.47,15.25,5.8,23.9,4.5,2.93-.44,7.68-1.57,6.83,5.19-.3,2.37,2.54,3.11,3.65.75,5.09-10.79,10.26-3,15.46-.52,4.74-4.67,11.39-6.17,15.55-12.79,4-6.43,9.52-.95,12.56,4.34q.14,9.87.28,19.73c-10.73,0-21.43,11.47-30.61,5-8.18-5.76-15.88-5-23.64-5.2-15.28-.37-28-4.82-38.89-15.78C1169.74,474.09,1161.9,476.11,1154.94,475.85Z"/><path class="cls-45" d="M1224.82,501.19a43.16,43.16,0,0,1-6.35-.49c-1.17-.25-1-1.59.26-1.76a51.52,51.52,0,0,1,6.34-.07Z"/><path class="cls-46" d="M1268.07,475.87,1252.59,469c9.89,9.82,8.77,14.15.09,15-4.21.42-8.48.21-12.72.28,2.93-14.13-7.7-16.62-16.43-15.07-12.27,2.19-24.22-2.49-36.23.67-3.59.94-6.2-1.49-6.9-5.35a1.76,1.76,0,0,1,2.88-.07c33.84.22,67.7-.68,101.44,2.88,1.66.17,4.14-.41,3.38,2.8C1281.34,471.79,1272.44,465.86,1268.07,475.87Z"/><path class="cls-43" d="M1041.75,461.77l-11.43,0-.07-.07a3.72,3.72,0,0,1,1.27-4.79c16.82-4.92,33.58-7.73,49.86,1.88l121.82.33c-6.18,4.39-13.3,1.69-19.93,2.62-18.09,3-36.29,1.69-54.45,1.34C1099.8,462.47,1070.73,464.74,1041.75,461.77Z"/><path class="cls-47" d="M1041.75,461.77l141.52-.07c0,.93,0,1.87,0,2.8l-2.88.07c-40.81,0-81.61,0-122.42-.12C1052.51,464.43,1046.57,466.15,1041.75,461.77Z"/><path class="cls-48" d="M1288,489.84l-11.26.29c-3.61-1.33,4.89-3.26-.64-5.86-5.22-2.46-2.63-7.55.72-11.16l11.17.13Q1288,481.55,1288,489.84Z"/><path class="cls-49" d="M1276.79,473.11c.11,3.43-3.55,7.85,1.28,10.05,10.49,4.79-3,4.29-1.36,7C1268.85,487.05,1268.88,480.58,1276.79,473.11Z"/><path class="cls-50" d="M1316.37,433.35c-7.6,5.88-16.42,6.3-25.47,5.7-6.27,2.9-12.9.68-19.3,1.38-4.12.23-6.73-2.81-6.3-5.83,1.64-11.52-1.27-22.48-2.93-33.62,4.38-3.66,9.41-2.87,14.41-2a17.49,17.49,0,0,0,14.23-3.27c4.41-3,4.72-7.53,5.3-12.25,1.77-14.34,4.44-16.23,20.06-15.22,2.77,14.14-1.21,28.28.05,42.42Q1316.39,422,1316.37,433.35Z"/><path class="cls-51" d="M1279.57,323.06l-1.4,0-1.41,0c-9.91,3-20.81-1-30.39,4.35-6,1.62-12,1.32-18.11.71-16-2.42-32-.16-48-1.3-6.23-1.74-12.46-2.62-18.67.17-10.68,3.52-21.64-.51-32.38,1.32-8.74.78-17.41.05-26.06-1.15-9.47-.79-18.72,2.08-28.19,1.46-6.15-.4-12.32-.34-17.1-5.15-3.53-9.83,2.12-12.68,10.3-13.09,11.61-.58,23.25-.16,34.87-.25,13.36.23,26.74-.48,40.09.49,29.65,4.17,59.35,3.08,89,.64,6.77-2,14.11,0,20.73-3,7.55-2.16,15.82,1,23.12-3.11,3-2,6-3.94,9.66-4.46a8.66,8.66,0,0,1,6.13,1.75c1.56,7.17,5.57,14.27.77,21.68C1288.19,324,1283.73,325.34,1279.57,323.06Z"/><path class="cls-52" d="M1228.58,323l17-.07c2.25,2.7,6.24.1,8.49,2.79,4,10-.14,22.07-9.17,22.18-13,.16-20.35,7.69-28.66,15.3-3.68,3.36-8.72,5.23-13.14,7.77-6.86,6.7-14.94,4.17-22.8,3.06-1.86-1.3-4.17-2.38-2.74-5.4.43-.92,2.07-1.65,2-1.74-7.91-6.36-7.79-11.8.5-16.91,2.43-1.5,5.23-2,7.92-2.84,14-4.22,17.42-8.05,18.43-20,.11-1.23,1.85-2,3.17-2.57C1215.85,323.37,1222.44,325.93,1228.58,323Z"/><path class="cls-53" d="M1316.37,368.24c-2.24,1.52-4.87,4.7-6.66,4.28-10.33-2.4-8.81,4-9.17,10.41-.33,6,1.79,13.62-6.68,16.57-.4-.49-.8-1-1.21-1.47-.8-8.49,1.63-18-7.67-23.76-5-7-12.54-3.78-19-4.73-7.79-1.14-16.65,3.25-23.21-4.4,8.65-5.59,18.53-.62,27.81-3.34-1.79-7.07-9.75-6.28-13.61-10.59a1.85,1.85,0,0,1,2.83,0c11.3.3,20.88-8.45,32.67-6.11a4.36,4.36,0,0,0,4.93-4.06c.25-4.53-1.71-10.44,6.54-8.57,6.36,1.44,11.68,4.51,12.11,11.81C1316.46,352.24,1316.27,360.25,1316.37,368.24Z"/><path class="cls-54" d="M1242.72,365.14c12.08.09,24.17.22,36.25.24,6.13,0,11.58.6,10,9.05.68,1.93,1,3.82-.48,5.56a5.28,5.28,0,0,1-3.77.21c-2.17-1.31-3.88-3.2-5.82-4.79-7.06-5.17-15.16-2.28-22.78-3a18.52,18.52,0,0,0-5,.75c-2.58,1.73-3.06,5-5.25,7.06-3.11,2.58-6.65,3-10.46,2.21-18.68-3.24-37.5-.79-56.24-1.55-2.54,0-5.07,0-7.62-.07-4.38-.26-8.89-.19-11.67-4.56a4.55,4.55,0,0,1,2.17-4.54c9.74-4.68,19.09,1.56,28.87,1.06,15.32-.79,30.81-1.47,46.17.57Z"/><path class="cls-55" d="M1237.09,373.39l-76.42.77c-2.84,2.09-5.73,2.38-8.69.25-1.41-3.7.41-6.07,3.29-8,8.22-2.23,15.82-1.35,22.37,4.57l25.47,0C1214.38,372.47,1226.08,368.16,1237.09,373.39Z"/><path class="cls-56" d="M1293.37,322.66c-2.3-6.34-4.29-12.72-2.49-19.58-.44-5,1.14-9.51,2.77-14.08a6.54,6.54,0,0,1,4.1-3.54l1.76.65c1.83,12.25-4.32,24.45-.18,36.71-.9.05-1.8.09-2.69.11Q1294.83,325,1293.37,322.66Z"/><path class="cls-57" d="M1254.08,325.69c-3.12,0-6.29.05-8.49-2.79l31.17.18C1269.68,328.05,1261.63,324.71,1254.08,325.69Z"/><path class="cls-57" d="M1293.37,322.66l3.27.27c-5.66,4.07-11.35,3.95-17.07.13Z"/><path class="cls-52" d="M1259.75,351.2h-2.83c-1.45-1.25-2.48-2.79-.75-4.32.74-.65,2.33-.34,3.54-.47Z"/><path class="cls-56" d="M1310.74,99.09c5.76,10.64,2.57,22.3,2.34,33.16-.51,24.27.88,48.27,2.64,72.43.79,10.84-1,22.11.68,33.17-5.67,6.62,2.23,13.27-.05,19.9-1.85,1.4-.72,4.27-2.76,5.58-6.5-10.3-.25-22.17-5-36.46v29.5c-5.81.45-1.21-6.3-5.64-6.09-2.67,11.81,2.53,24.34-3.39,35.83l-.25-.16c-4.74-3.83-7.26-9.07-6.39-14.85,4.85-32.18,1.24-64.51,2.15-96.75.21-7.51,2.18-15,1.25-22.34-.62-4.9-2.42.53-3.84.63a4.68,4.68,0,0,1-4.14,1c-2.93-1.83-3.83-4.7-4.2-7.85a62.11,62.11,0,0,1-.44-6.81c.29-8.66,4.92-14.6,11.93-19,3.87-6-4.65-3.5-4.67-6.79-9.05-4.88-18.31-7.57-28.33-2.84-1.87-1.9-5.28-2.26-5.66-5.66,1.7-8.65,8-3,12.22-4C1282.93,97.56,1296.88,99.77,1310.74,99.09Z"/><path class="cls-28" d="M1313.59,263.33l2.77-5.58c0,7.26,0,14.52,0,25.07C1312.32,274.33,1314.17,268.72,1313.59,263.33Z"/><path class="cls-58" d="M1120.83,116.34q72,.24,143.92.46c4.7,0,9.4-.28,14.09-.43,1.45,1.15,1.5,2.36.17,3.62-5.88,3.62-11.93-1.3-17.41.4,2.88.86,8.28-2.25,9.21,2.84.64,3.44-3.81,4.9-7.19,5.2-8.44.74-16.91.25-25.41.38-13.61-.27-27.2.58-40.77-.56-20.44-4.69-41.18-1.21-61.74-2.28-4.67-.24-9.52.59-13.9-1.47S1116.05,119.67,1120.83,116.34Z"/><path class="cls-59" d="M1120.83,116.34c-1.64,8.31,4.89,5.15,8.08,5.21,17.88.35,35.77.17,53.66.34,5.07,0,10.43-1.17,15,2.36-3.94,5.52-9.92,4.38-15.37,4.48-14,.24-28,.05-42,.08-5,.06-10-.18-14.91.32-3.86.35-7.66-.54-11.49-.76-6.16-2.28-12.35-3.21-18.59-.18a38.74,38.74,0,0,1-6.54.54c-5.13.08-10.27.05-15.4.07-4.88.08-9.78-.23-14.64.33-8.23,0-11.54,9.64-19.58,10,6.23-9.61-5.78-14.44-5.88-22.39C1062.37,114.2,1091.6,115.7,1120.83,116.34Z"/><path class="cls-28" d="M1280.3,118.52c-.47-.73-1-1.45-1.45-2.15,4.12-.64,8.74.63,12.06-3.12l8.37-1c3-.37,6.17.34,7,3.28,1.23,4.42-2.61,5.29-5.81,6.23-3.61-.21-7.13.48-10.67,1C1286,122.82,1282.35,122.4,1280.3,118.52Z"/><path class="cls-28" d="M1256.92,104.75l5.66,5.66c-2.22-.06-4.46,0-6.68-.23s-5.14-1-4.72-3.46S1254.81,105,1256.92,104.75Z"/><path class="cls-60" d="M1154.94,368.2c-.87,2.06-1.75,4.11-2.62,6.16,3.36,4.14,7.07,7.6,13,6.65,4.25.2,8.65-.26,12.11,3a4.5,4.5,0,0,1,.84,4.06c-4.72,6.42-13.71,2.17-18.82,7.58-4.79,2.64-6.42,6.49-4.64,11.75.89,2.66,2.07,5.21,3,7.87,2.43,7.2-.35,14.13-2.26,20.59-2.62,8.81-11,3-16.71,4.48-2.15.57-4.68-.4-6.57,1.49l-36.83,0c.89-7.23,5.08-6.2,9.77-3.9-4-3.68-4.58-7.7-1.07-12,1.77-2.18,4.46-3.53,6.07-5.77,4.92-6.91,12.75-13.24,2.82-22.56-5.34-5,1-7.93,3.68-11.15-5.52-4.38-2.39,4.47-5.58,3.56-3.93,2.46-7.94,2.23-12,.49a9.69,9.69,0,0,1-3.32-2.85,9.49,9.49,0,0,1-1.36-8.26c6.79-5,11.62-12.79,22.06-12.45,6,.19,4.85-6.95,6-11,2.32-7.9,2.14-17,12-20.5,11.23,5.86,20.31,1.55,28.67-6.13,6.2-1.13,12,.74,8.86,7.63C1167.15,347.66,1166,360.78,1154.94,368.2Z"/><path class="cls-61" d="M1123.77,388.06l-9.6,5c1.68,5,6.66,2.8,9.5,4.92,1.82,1.36,5.27,3.93,3.64,4.78-9.1,4.71-4.75,16.92-13.22,22.08-3.29,2-11.23,1.82-8.66,8.62,2,5.34,8.48.57,14.24,2.7-8.27,6-17.85-.63-24.23,5.64l-51,0q-2.58-1.41,0-2.76c9.41-1.25,19.36,2.84,28.32-2.85-3.44-4.15,0-6.89,2.14-9.72,3.43-4.46,4-9.17,2.55-14.54-4.13-14.77.58-21.66,17.23-25.65a7.13,7.13,0,0,1,3.55,1.72h14.21C1116.25,382,1120,381.63,1123.77,388.06Z"/><path class="cls-62" d="M1132.27,441.86c1.63-.86,3.17-2,4.9-2.51,5.26-1.44,11.55,3.1,13.66-8.56,1.44-8,5.2-13.08-1.19-20.64-5.24-6.22.31-15.82,8.48-16.66a11.37,11.37,0,0,1,4-2.22c8.21.08,16.4-1.86,24.61-.25,7,4.72-1.55,9.09-.37,13.43,2.4,8.8-.41,18.83,6.55,26.59,3.2,3.56,5.69,7.71,1.38,12.36-5.45,1.89-11.06,1.64-16.67,1.3C1162.9,437.33,1147.3,444.17,1132.27,441.86Z"/><path class="cls-63" d="M1268.26,439l22.64,0c0,.94,0,1.88,0,2.82-.08,1.81,2.95,5.43,1.56,4.57-12.31-7.65-25.63-3.42-38.39-4.59-9.62-4.54-19.09,1.78-28.89.29-8.19-1.24-11-4.12-8.27-11.89,3.14-9,2.43-19.95,10.63-23.26-7.24-.37-11.43-4.67-10.36-14.33,5.25-4.93,12.4-2,18.23-4.44a10.28,10.28,0,0,1,6,.76c.83,4.73,5,4.38,8.28,5.34,2.46,1.15,4.61,2.62,5.74,5.22.25,4.52-2.77,8.35.51,13.81,4.74,7.89,3.6,16.32-6.45,20C1255.93,432.93,1263.1,432.54,1268.26,439Z"/><path class="cls-64" d="M1081.38,458.75l-51.08.13c-4.71,1.82-9.42,4.47-14.15,0l0-.08c1.47-12.75,9.48-15.61,20.8-14.19,15.12,1.9,30.23-1.74,45.81,4,8.29,3,20.23-5.12,31.3,1.63C1104.91,461.44,1090.77,451.51,1081.38,458.75Z"/><path class="cls-65" d="M1194.59,441.86c-.17-.91-.06-2.41-.55-2.64-14.79-7-7.84-23-13.75-33.8-4-7.39,5.46-7.91,8.65-11.69,4.94-5.69,11.08-4.33,17.2-3,2.56,6.71,2.56,6.71-6.92,6.15,3.34,1.9,6.5,1,9.58.46,5.8-1,10.78.76,12.13,6.44,1.5,6.26-4.5,5.65-8.29,6.63-5.87,1.52-5,6.23-4.32,10.17,1.44,8.18,2.59,16.9,12.51,19.75,2.45.7,6-.3,4.93,4.31-6-1.35-8.94,5.06-14.17,5.67C1207.4,444.56,1197.84,449.52,1194.59,441.86Z"/><path class="cls-66" d="M1225.76,444.69c-11-4.44-22.27-6.72-22.45-23.55-.17-15.14,0-17.8,15.71-15.78-6.36-8.92-15.83-4.41-24.31-7,4.61-3.44,10.8-.13,14-4.67q4.24-3.75,8.5,0c5.85,4.1,6.28,16.52,19.61,10.77-19.08,5.35-7.52,24.33-17.73,32.34,10.94,7.77,24.19-2.45,34.95,5Z"/><path class="cls-66" d="M1194.59,441.86c5.64,2.89,15.83-3.34,17,8.5-12,2.05-22.86-2.53-34-5.66C1182.89,441.5,1188.76,441.79,1194.59,441.86Z"/><path class="cls-67" d="M1044.46,439.05c0,.92,0,1.84,0,2.76l-25.48,0C1027,436.33,1036,440.18,1044.46,439.05Z"/><path class="cls-68" d="M1038.92,277.6q0-24.11-.1-48.21c2-1.65.78-6.06,4.54-5.83,2.38.14,3.73,2.49,4.32,4.77,1.57,6,0,12.91,4.75,18.12a18,18,0,0,1,1.79,7.82c1.85,20.65,8.93,29.13,29.27,35.27,3.55,1.07,6.79,3,10.33,4.19,8,3.8,16.71,3,24.81,2.52,19.19-1.27,37.95,3.42,57,2.76,6.67-.22,13.13.91,16.42,8.06-1.62,5.1-6,5.93-10.19,5.63-42.36-3.05-85.18,1.06-127.16-8.15-6.57-1.45-11.33-4.14-13.4-10.7C1038.8,288.7,1041.84,282.71,1038.92,277.6Z"/><path class="cls-69" d="M1041.62,291.72c10.56,12.34,26.46,13.07,39.8,13.27,33.79.51,67.43,4.1,101.22,3.71,3.34,0,6.6-.19,9.12-2.81.52-.53,1-1.06,1.54-1.6,5-2.58,10.12-1.31,15.23-.39,11.82,2.45,23.24-1.1,34.79-2.4,5-1.13,10.16-.25,15.22-.93,9.27-1.25,15.36-3.75,13.11-15.9-1.65-8.87.86-18.36,8.89-24.85,6.43,1.83,6.07,8.1,8.34,12.67,1,6.38.09,12.87,1.11,19.26.35,4.43-1.4,8.08-4.2,11.35-.39,4.1-5.16,2.93-6.74,5.61-12.57,3-25.77.16-38.24,4.19-44.81,3.92-89.63-.07-134.43.06-4.28,0-8.56.11-12.83-.14-9.77-2.42-19.72-.81-29.58-1.24-8.47-.45-19.46,6.22-23-8.14l.54-3A7.38,7.38,0,0,1,1041.62,291.72Z"/><path class="cls-70" d="M1039,139.11c4.57-6,7.07-14.42,16.77-14.5,4.24,4,11.56-2.11,15,4.54-1.45,9-12.45,8-15.66,15.12-9.24,8-5.67,19-6.72,28.92a18.43,18.43,0,0,1-.86,4.35c-1.82,4.41-1.43,9.09-1.92,13.67-.47,4.35.18,9.83-6.79,9.84Z"/><path class="cls-71" d="M1038.85,201.05c6.53-7.46-1-18,5.6-25.47,2.11,1.34,3.84,3.38,3.63,5.7-1.51,16.67,4.48,32.22,7,48.28-.82,3.88,2.16,6.89,2.5,10.45.52,5.37-.65,9.25-7.41,6.38-11.08-.25-3.66-8.64-5.52-12.95-1.28-2.95,1.64-10.28-5.79-4.05Z"/><path class="cls-72" d="M1041,303.44c5.84,8.48,14.74,4.87,22.52,5.69q2.41,1.35.44,3.3c-4.33.34-8.1,2.9-12.45,3.19-9.66-3.09-14.32,8.56-23.19,7.87a5.83,5.83,0,0,1-2.48-6c1.29-11.38-1.49-22.94,1.57-34.22l.38-39.26c1.82-1.22,3.07-.78,3.74,1.3-.11,16.32,1.19,32.66-.72,49V310.9C1036,310.65,1035.45,302.8,1041,303.44Z"/><path class="cls-73" d="M1030.78,294.22q-.49-25.52-1-51.05c-2-13-2.11-26.22-3.4-39.32-.5-5.07-.8-10.55,4.41-14,4.76,11.27,2.37,23.14,2.09,34.63C1032.29,247.7,1036,271.11,1030.78,294.22Z"/><path class="cls-74" d="M1030.79,189.81q-.49,26.67-1,53.36c-.69.25-1.36.52-2,.8q-.37-7.51-.73-15c-1.6-9.48-1.49-19.07-4.56-28.52-2.4-7.36-1.41-15.74,4.79-22.11q.23-7,.44-14c.72-.06,1.43-.11,2.14-.13Q1030.32,177,1030.79,189.81Z"/><path class="cls-75" d="M1041.62,291.72c0,2.89-.07,5.78-.1,8.68-4.64-7.17-2.23-15.14-2.6-22.8C1043,281.7,1041.17,286.93,1041.62,291.72Z"/><path class="cls-34" d="M1027.26,178.33q-.12,25.32-.23,50.63c-2.67-2.6-2.41-6-2.41-9.26,0-5.46-.32-11.26-7.58-10.92-6.19.29-6,5.69-6.66,10.56-3.65,27.61-2.62,55.35-2.83,83,0,5.05,1.34,10.47-2.71,14.83,1.15-49.08-4.55-98.61,9.19-147.57C1020.19,170.33,1020.58,179.46,1027.26,178.33Z"/><path class="cls-40" d="M1027.63,320l2.31,2.15c7.36-2.07,12.64-8.91,20.82-9.05,5.13,1.09,6.72,4.56,6.33,9.36-1.94,12.22-6.34,23.94-4.67,36.88,1.32,10.25-9.62,9.39-15.27,13.3-9.41-1.1-15.9,2-18.48,11.89-1,3.93-3.53,6.92-8.21,3.48-6.1-9.11,1.68-18.23,0-27.36-4.68-25.11,2.29-50.23-.06-75.32-.67-7.14,1.22-12.39,7.73-15.68,5.45,15.39-.33,32.29,6.46,47.49C1026.28,317.38,1026.48,319.21,1027.63,320Z"/><path class="cls-67" d="M1010.46,388c9.54-4.76,9-15.91,14.85-23.48,3,2.95,5.1,7.78,10.61,6.44.2.61.41,1.21.61,1.82-1.8,4.13-4.51,6.12-9,3.89-7.47,5.06-4.81,18.81-17,19.81Z"/><path class="cls-74" d="M1027.63,320l-3.06-2.86c1.45-11.27-2.87-23,2.81-33.94Q1027.5,301.62,1027.63,320Z"/><path class="cls-67" d="M1035.92,371c3.12-3.13,8.27-20.62,10.72-27.44,2.54-7,1.13-16.18,9.28-20.75.71-1.53,1.63-1.58,2.72-.36L1104,323c3.71,2.08,4.51,4.91,1,7.56-11.57,8.71-11.56,21.49-12.08,34-.28,6.62.47,13.32-7.77,15.86-6.2,0-12,2.86-18.26,2.54-4-.38-7.39-2.66-11.29-3.37-2.49,5.61-10.11-6.12-11.44,3.39a3.66,3.66,0,0,1-3.47-.26c-4-2.88-2.12-8.12-4.68-11.57Z"/><path class="cls-67" d="M1095.42,388.13c-7.69,1-9.86,9.57-16.44,12.21-.72.29-1.45,2.88-1,3.29,13.08,13.26,4.59,23-5.15,32.57-10.32,0-20.65,0-31,0-4.17,0-8.3.35-11.66-3.4s-6.91-12.9-11.25-.36c-.9,2.63-2.9.43-4.31-.76-4.24-3.57-5.38-7.86-2.1-12.35,1.63-2.22,2.82-7.88,6.71-5,14.31,10.52,19.18-1.23,24.81-10.83,5.35,3.43,1,15.93,12.33,11.42-9.67-13.43-7.42-19,9-23.23,2.61-.67,5-2.32,7.44-3.52Q1084.11,379.17,1095.42,388.13Z"/><path class="cls-76" d="M1095.42,388.13l-22.64,0c-6.38-1.54-16.46,4.34-17.18-8.56,2.88-3.26,5.83-3.4,8.85-.19.26.54.52,1.08.8,1.62,8.55,2.79,17.25-1.79,25.82.53a35,35,0,0,1,7.16,3.64c0,1,0,1.91,0,2.86C1097.3,388,1096.36,388.07,1095.42,388.13Z"/><path class="cls-77" d="M1041.76,382.18l2.39.76c-.48,4.57-2.36,7.81-7.54,7.82-5.43,0-8.44-2.67-8.92-8.12C1032.24,378.27,1036.94,378.31,1041.76,382.18Z"/><path class="cls-78" d="M1041.76,382.18l-14.07.46c-.07-2-.13-3.95-.2-5.93l8.5-5.6C1042.91,372.2,1041.36,377.7,1041.76,382.18Z"/><path class="cls-67" d="M1010.45,399.36l15.89,3.67c-6,1.92-12.71,7.24-15.89-3.67Z"/><path class="cls-79" d="M1016.15,458.91l14.15,0c0,.93,0,1.85,0,2.78-5.47,8.42-9.25,17.48-7.08,27.62,1,4.49.71,8.19-1.38,12C1018.42,487.36,1014.08,473.56,1016.15,458.91Z"/><path class="cls-30" d="M1268.26,439l-27.58-3.53c18.1-14,18.32-20,1.32-30.56,2-6.43,10.65,2.33,12.11-5.33a4.18,4.18,0,0,1,3.08-1.49c2.53.43,4.5,1.59,5.43,4.12C1280.07,412.11,1267.52,426.59,1268.26,439Z"/><path class="cls-63" d="M1262.62,402.24l-5.73-2.59c12.21-6.94,24.48-6.62,36.81-.33l.16.18C1284.13,408.14,1273,400.77,1262.62,402.24Z"/><path class="cls-80" d="M1084.05,376.75c6.1-1.18,4.91-5,4.14-9.56-2-11.74,3.13-22.4,5.37-33.56,1.58-7.88,14.08-.91,10.44-10.64l25.57.12c7.49,2.4,11.36,6.24,5.53,13.93-9.79,8.94-5.88,22.69-11.62,33.06-1.85,3.34-2.78,9.21-7.2,1.66-2.26-3.86-6-4-7.42,0-2.43,7-8.62,5.95-13.48,7.85a7.58,7.58,0,0,1-5.46,2.58,8.39,8.39,0,0,1-5.86-1.66A3.08,3.08,0,0,1,1084.05,376.75Z"/><path class="cls-57" d="M1135.1,337c.75-5.68-1-10.38-5.54-13.93l34-.54a19.72,19.72,0,0,1,13.91,0l51.1.38c-6,4.91-13.2,1.87-19.82,2.75-9.8,7.25-21,6.15-32,4.78-4.64-.58-9-1.77-13.35.88C1152.13,348,1144.53,349.48,1135.1,337Z"/><path class="cls-81" d="M1103.33,311.88l139.79-.95c4-.77,8.12-2.07,11.8,1.06l-20.66,2.38a596.46,596.46,0,0,1-90.66.08c-12.68-.84-25.35-1.86-38-.48A2.18,2.18,0,0,1,1103.33,311.88Z"/><path class="cls-82" d="M1143.6,314.45l90.66-.08c-5.19,4.65-11.58,3-17.38,2.69C1192.46,315.81,1167.83,320.54,1143.6,314.45Z"/><path class="cls-83" d="M1285.79,303.1l-.48-11.22c2.87-4.45.38-9.57,1.78-14.22a5.89,5.89,0,0,1,4.69-3.81c7.12,3.26,3.23,10,4.72,15,.13,5.53.65,11.22-5.62,14.22Z"/><path class="cls-82" d="M1103.33,311.88l2.21,2.09c-12.2.15-24.4.41-36.6.4-5.74,0-10.49.76-10.3,8.08a19.25,19.25,0,0,1-2.73.36c-.36-3.81-2.07-6.71-5.65-8.34q-2.61-1.55.29-2.42l14-.81c9.39-1.63,18.76-2.13,28.11.3Z"/><path class="cls-84" d="M1254.92,312l-11.8-1.06c11.74-4.63,24-1.14,35.93-2.22C1271.59,314,1263.05,311.56,1254.92,312Z"/><path class="cls-82" d="M1177.48,322.59l-13.91,0C1168.21,319.08,1172.85,319.07,1177.48,322.59Z"/><path class="cls-85" d="M1163.43,331.38c14-10.89,30.26-3.52,45.33-5.66-1,3.12-.89,5.37,3.3,5.66,4.51.32,9.42-1.28,17.45,6-21.84-6.13-27.14,18.26-45.3,15.34-5.29-.86-7.53,3.94-7.87,8.09-.58,7,6.65,2.8,9.35,5.66l-8,4.49a59.64,59.64,0,0,1-22.7-2.78c3.86-10,5.36-21,12.32-29.8C1171.29,333.32,1169.65,331,1163.43,331.38Z"/><path class="cls-86" d="M1293.7,399.32l-36.81.33-1.39-.11-1.39.07-5.85-3.17a7.3,7.3,0,0,1,3.36-5.09c5.63-3,11.84-2.29,17.65-1.69,8.84.9,15-1.72,18.56-10l1.11-5.28C1301.3,380.67,1296.89,390.11,1293.7,399.32Z"/><path class="cls-87" d="M1248.54,368.43l5.54,0c10.23,3.44,21.1-1,31.31,2.57q.15,3.9.28,7.8c2.48,9.19-3.75,10.27-10.21,10.59-7.93.4-15.86.62-23.77,1.34-4.91.32-8.91-3.18-13.73-3.22-23.12-2.29-46.55,1.21-69.52-3.69a16.93,16.93,0,0,1-4.54-.47c-2.66-8.78,6.7-2.9,8.14-6.67l5.52.22c14.81,2.77,29.76.5,44.63,1.3,5.07.27,10.28-1.1,15.21,1.15,3.08,0,6.2.21,8.45-2.53C1248.61,374.6,1245.41,370.49,1248.54,368.43Z"/><path class="cls-88" d="M1250.39,388.41c7.88-3.61,16.37-2.65,24.64-3.13,4.92-.29,9.48-.42,10.64-6.51a6.13,6.13,0,0,0,2.16.94c3.35,10.66-.36,14.66-11.56,13.6-8.24-.79-16.65.12-25,.27A4.07,4.07,0,0,1,1250.39,388.41Z"/><path class="cls-89" d="M1237.4,379.31c-19.94-1.05-40.1,3.39-59.84-2.45C1197.51,377.6,1217.64,374,1237.4,379.31Z"/><path class="cls-90" d="M1163.75,384.9c-8.61,1.69-12.77-1.45-11.43-10.54l8.35-.2c0,.89,0,1.77,0,2.65,2.07,1.24,1.28,4,2.88,5.47h0c.94.52,1.28,1.08,1,1.69S1164.05,384.9,1163.75,384.9Z"/><path class="cls-91" d="M1285.39,371c-10.41-1.17-21.22,2.5-31.31-2.57C1264.54,369,1275.32,365.64,1285.39,371Z"/><path class="cls-91" d="M1248.54,368.43c-.67,2.86,3.8,7.37-2.69,8.35C1246.63,374,1240.38,368.87,1248.54,368.43Z"/><path class="cls-89" d="M1163.56,382.28c-2.32-1.1-2.89-3.13-2.88-5.47l11.36-.17Z"/><path class="cls-92" d="M1296.5,288.86c-4.68-3.63-.85-10.59-5.56-14.21-6.37-6.91-3.51-15.5-4.26-23.43,0-26.85-.06-53.69.06-80.53,0-6-1-12.37,3.46-17.57,2.43-6-2.92-17.88,5.89-17.49s6.69,12.18,5.7,18.91c-4.71,31.74-1.48,63.61-2.35,95.4-.32,12-4.15,24-.18,36Z"/><path class="cls-93" d="M1287.88,138.56c-.06,2-.11,3.92-.17,5.88a10.44,10.44,0,0,1-8.78,3.31c-17.55-9.71-36.84-10.33-56.15-10.39-12.77,0-25.17-2.35-37.61-4.79a4.81,4.81,0,0,1-2.33-4.17c13.29-5.19,27.11-1.16,40.65-2.32,5-.43,10.14-.07,15.2-.07,11.66-.7,23.4,1.36,35-1.32,4.48-1,8.22,1.08,11,4.75C1286.46,132.22,1286.22,135.72,1287.88,138.56Z"/><path class="cls-94" d="M1290.2,153.12q.16,49.35.32,98.69a3.13,3.13,0,0,1-4.43-1.07c-3.32-5.66-1.91-11.91-2.25-18,0-21.6-.11-43.19.1-64.78,0-5.47-1-11.5,4.58-15.41A7.61,7.61,0,0,1,1290.2,153.12Z"/><path class="cls-95" d="M1288.52,152.6q-.48,41.11-1,82.24c-8-1.61-6.28-8.22-6.39-13.33-.38-18.14-.14-36.28-.15-54.42,0-6.05,0-12.11-2.38-17.84a5.91,5.91,0,0,1,.94-4.84l8.12,0Z"/><path class="cls-96" d="M1287.88,138.56q-1.43-2.58-2.84-5.16c-7.32-8.64.4-11.19,5.92-14.64,3.68-.67,7-.1,9.48,3C1294.4,126,1287.4,129.46,1287.88,138.56Z"/><path class="cls-97" d="M1240.32,127.17c-14.56.08-29.13.11-43.7.28-4.59.06-9.51-1-13.35,2.79-6.32,8.72-15,4.83-23,4.27-4.56.09-9.13.39-13.61-.85-3.72-2.22-9.39-2.59-8.7-9l59.62-.36,42,.59c1.06.22,1.53.64,1.41,1.25S1240.6,127.17,1240.32,127.17Z"/><path class="cls-98" d="M1240.32,127.17c-.25-.78-.51-1.56-.78-2.33h30.55c-8.1-5-14.52-1.48-20.17-6.32h30.37l10.67.24c-.42,5.51-10,7.32-5.92,14.64C1271.36,122.56,1255.21,129.35,1240.32,127.17Z"/><path class="cls-99" d="M1070,130.25c-3.57-4.77-10.58-.92-14.17-5.64h17a22.57,22.57,0,0,0,17,0l5.76,0a22.15,22.15,0,0,1,16.85,0l11.4,0c6.36,3.29,13.68,2.78,20.3,5.1,4.36,4.08,10.11,4.6,15.46,6.38,20.57,6.84,27.72,24.87,17,43.81-5,8.95-7.29,19.78-16,26.4-8,6-16.4,11.28-27.19,9.57a10,10,0,0,1-3.79-2.1c-4.78-8.73,4.37-12.16,6.88-18.14,3.49-6.68,8.33-12.13,13.94-17.26,9.54-8.73,8.83-17.39-1.24-25.31-7-5.47-11.18-15.81-22.88-13a19.83,19.83,0,0,1-6.11-1.45c-3.82-2.17-7.65-4.31-12.29-4.1C1095.32,132.52,1081.82,138.65,1070,130.25Z"/><path class="cls-70" d="M1143.59,130.28c-7.15,0-14.45.58-19.81-5.67h14.16l8.5,5.63C1145.51,131.55,1144.56,131.5,1143.59,130.28Z"/><path class="cls-100" d="M1089.77,124.61q-8.49,6.17-17,0Z"/><path class="cls-101" d="M1112.38,124.59h-16.85C1101.15,120.48,1106.77,120.87,1112.38,124.59Z"/><path class="cls-102" d="M1250.39,388.41l.9,5.17-3,2.86c-3.45-.15-8.27,1.1-5.52-5.39-16.91-1.14-33.84.52-50.74-.24-4.85-.22-10.35,1.7-14.14-3.31a10.27,10.27,0,0,1-.47-2c20.77-3.35,41.59-1.87,62.41-.72C1243.52,385.46,1247.46,385.44,1250.39,388.41Z"/><path class="cls-103" d="M1177.86,387.5c18.25.13,36.51,0,54.74.59,3.27.1,8.44-3.47,10.14,3l-5.65.18c-20.47,2.37-41,.35-61.52,1.09-5.06.19-10.28-1.19-15.17,1.23l-1.14-.05h-1.14C1162.2,383.25,1171.53,390.32,1177.86,387.5Z"/><path class="cls-89" d="M1239.8,384.81l-62.41.72-13.64-.63a16.33,16.33,0,0,1-.18-2.62c20.48,0,41,0,61.44.14C1230,382.46,1235.33,381.18,1239.8,384.81Z"/><path class="cls-104" d="M1123.77,388.06a9.7,9.7,0,0,0-11.31-.05l-6.75-4.7C1121.4,377.07,1124.81,378,1123.77,388.06Z"/><path class="cls-105" d="M1089.8,379.75l5.58-.17,2.85,5.57h-8.44C1088.12,383.34,1088.11,381.54,1089.8,379.75Z"/><path class="cls-106" d="M1160.4,393.55c15.46-5.58,31.46-1.56,47.18-2.51,9.8-.6,19.67.08,29.51.19-6.16,4.42-13.22,1.68-19.83,2.49h-28.32Z"/><path class="cls-107" d="M1089.78,297.39c-6.11-2-11.43-9.14-18.88-2.76-1.47,1.25-4.34,1.19-4.8-.75-3.27-13.87-20.65-21.94-16-39,2-4.48,4.26-9.95,9.07-2.63,5.36,8.15,14,12.5,20.46,19.28,8.46,8.84,18.56,8.73,28.37,3.09,8-4.62,16-7.89,25.4-6.27a15.41,15.41,0,0,0,14.3-4.61c15-16.86,34.7-16.49,55.84-15.87-1.54-6.59-3.46-12.74-3.36-19.06.12-8.58,2.25-17.23,12.14-17.83,10.35-.63,8.64,8.94,9.62,15.59.27,1.83-.14,3.76.77,5.5,4.52-8.25,4.52-8.25-2.62-20.09-3.16-5.24-7.37-10.48-2.29-16.67,4.63-5.66,10.81-6.92,17.86-5.57,4.72.91,10.22,6.82,14.07,1.17s1.81-12.52-1.26-18.21c-4.2-.88-5.44,2.3-7.63,3.8-8.55,5.85-15.26,3.27-14.92-6.89.47-13.74-3.8-22.43-18-25.53-3.7-.8-8-4.05-3.89-9.41,8-1.38,15.91,1.55,23.87,0,3.65-.72,5.26,1.66,7.83,4,5.44,5,11.76,9.09,19.93,9.59,11,.67,16.13,8.27,15.56,18.27-1.79,31,5.7,61.85-.29,93.07-4.27,22.27-14.45,33.12-36.76,31.83-13.73-.79-27.16-1.6-39.61,6.28-5.27,3.34-12.15,2.55-18,2.38C1147.67,299.23,1118.66,300,1089.78,297.39Z"/><path class="cls-108" d="M1203.09,135.92a10.54,10.54,0,0,0,7.71,5.5c15.87,3.16,21.43,10.94,18.84,26.54-.58,3.54-1,6.94,2.65,8.52,4.57,2,5.11-2.72,6.91-5.12,2.63-3.49,3.55-9.62,10.11-7.22,5.81,2.13,6.73,6.62,6,12.46-.48,4.05,1.58,8.36,1.33,12.48-.65,10.84-6.41,13.69-16,8.37a16.8,16.8,0,0,1-2.15-1.83c-6.49-5.3-12.87-3-17.82,1.72-5.78,5.51,1.3,10.66,3.85,12.81,12.61,10.67,8.32,20.59.56,31.08-1.39,1.87-2.62,4.47-5.34,3-1.26-.67-2.21-3-2.3-4.6-.3-5.64,0-11.31-.3-16.94-.21-3.32,1.66-8.49-4.26-8.59-4.27-.07-6.77,3.29-7.4,7.32-1.47,9.32-1.27,18.54,4.44,26.61,1.56,2.2,4.53,3.46,2.75,8.25-13.08-9.71-27.62.26-41.59-3.66-5.14-1.44-7.26,5.19-10.88,8-9.9,7.57-18.54,17.92-33.54,11.68-4.64-1.93-8.86,1.74-12.79,4.5-14.72,10.35-26.14,9.32-39.06-3.56-6.56-6.54-15.48-10.59-19.47-20-1.51-3.56-3.3,1.42-5.23,1.66v-8.5c14.06-4.72-5.33-9.44,0-14.17,9.86-4.1,12.76,2.89,14.28,9.91,2.66,12.27,10.22,14.46,21,12.25,7.82-1.6,15.62-3.57,23.7-3.56,11.87,1.82,23-4.43,35-2.92,2.81.36,5-2.31,6.9-4.44,1.58-1.76,2.4-4.63,4.28-5.53,15.12-7.26,21.46-23.75,34.71-32.7,8.66-5.85,7-14.82,8.69-22.75,1.45-6.73,0-13.95,6.13-19.59,3.38-3.12-1.66-12.32-6.5-12.17-9.63.3-16.47-3-19.07-12.88a5.16,5.16,0,0,1,1.89-3.56C1188.69,131.81,1196.18,130.08,1203.09,135.92Z"/><path class="cls-109" d="M1203.09,135.92a52.13,52.13,0,0,0-22.65,0c-1.63-5.39,4.25-3.27,5.65-5.64,24.65,1.45,49.3,3.1,74,4.26,8.26.38,14.26,4.12,19.53,9.88,0,.93,0,1.87,0,2.81,6.15,15.2,2.64,31.32,3.66,46.92,1.18,17.94-1.12,36.12,1.49,54.17.68,4.71-.77,9.3-5.19,12.24,1.39,11.38-8.92,22.37-.58,34.31,1.91,2.74-2.09,5.81-6.13,7.56-8.92,3.87-18,3.38-27.27,3.45-5.18-3.25-10.44-.45-15.67-.22-8-2.09-16.28-1-24.34-3.34-4.5-1.3-10.23-1.46-13.82,3.58h0c-28.9-4.85-58.16-4.38-87.3-5.69-5-.23-10.41,1.36-14.68-2.81,9-4,17.82-1.47,27.14-.48,17.74,1.89,36,2.86,53.6.52,9.64-1.29,20.61-.9,29.81-7.92,8.41-6.42,19.58-5.2,29.48-3.45,22.57,4,31.85-6,36.34-28.19,6.23-30.78-3.85-60.87.65-91.27,1.26-8.51-3.27-15.24-14.46-13.88-6.47.78-11.49.83-15.92-8.28C1230.26,131.79,1214.77,137.35,1203.09,135.92Z"/><path class="cls-93" d="M1279.58,260.55c3.55-37.77-.09-75.55,0-113.33,7.2,1.81,5.52,7.73,5.56,12.57.13,20.06,0,40.13.11,60.19,0,5-1.3,10.35,2.28,14.86q.48,8.72,1,17.42c1.67,3.35.79,6.89.81,10.36-1.39,3.11-.71,7.17-4.23,9.31Z"/><path class="cls-68" d="M1191.77,305.89c.52-4.67,2.87-8.33,7.7-8.14,9.91.38,19.86,1.11,29.12,5.31.2,6.62-4.93,3.61-7.86,4.15-4.86.89-10.06-1.25-14.78,1.45Z"/><path class="cls-84" d="M1206,308.66c6.47-6.21,16.19.69,22.64-5.6,5.72.67,12-1.87,17,2.81C1232.45,307.73,1219.3,309.69,1206,308.66Z"/><path class="cls-81" d="M1092.63,311.54l-28.11-.3a5.77,5.77,0,0,0-1-2.11C1073.25,309.39,1083.3,306.06,1092.63,311.54Z"/><path class="cls-84" d="M1285.1,271.93c.19-3,0-6.15,2.45-8.54,3.45,4.49,2.1,9.25.78,14-2,4.63.71,10.23-3,14.49Z"/><path class="cls-110" d="M1109.61,254.89c-9.3,2.6-19.1,2-28.33,6.18-8.32,3.74-22.14-6-21.33-15.2.75-8.6-2.3-12.15-9.82-13.65-3.47-18.72-7.86-37.35-5.68-56.64,0-1,0-1.91,0-2.86,3.15-1.49,5.25.27,7.26,2.32,2.21,2.63,3.37,6.19,2.85,9.07-2.62,14.39,7.46,24.8,10.9,37.24,1.83,6.59,7.52,7.54,12.69,9.38,19.69.27,39.6,5,57.19-10.26,8.38-7.29,20-8.42,28.92,2.18,3.2,11.67-6.57,14.31-13.36,15.31-9.35,1.39-17.16,4.27-23.32,11C1122.51,254.48,1114.88,250.81,1109.61,254.89Z"/><path class="cls-100" d="M1070,130.25h42.48c1.8,2.15,1.71,4.37.27,6.66-2.34,2.46-5.55,2.86-8.59,3.66-6.59-.5-13.21,1.26-19.79-.09-10.07-2.81-17,2-22.72,9.54a11,11,0,0,1-3.42,2,8.1,8.1,0,0,1-5.87-.73c-3.61-3.49-4-6.78.62-9.75C1055,132.29,1064.39,134.17,1070,130.25Z"/><path class="cls-111" d="M1053,141.57a8.08,8.08,0,0,0,0,8.51,7.94,7.94,0,0,1,2.48,5.32c-2.18,6.14-.53,13-3.77,19l-1.57,1.2-5.63-2.87C1045.61,161.88,1040.71,149.39,1053,141.57Z"/><path class="cls-112" d="M1050.55,312.05a13,13,0,0,0-.29,2.42c-6.41,3.52-11.85,9.59-20.31,7.71C1035.38,315.88,1040.81,309.57,1050.55,312.05Z"/><path class="cls-76" d="M1084.05,376.75c0,.93,0,1.86.07,2.79-6.61,4.24-13.22,8.39-19.87.06l.2-.23Z"/><path class="cls-113" d="M1064.25,379.6c6.64,6,13.25.74,19.87-.06l5.68.21c0,1.8,0,3.6,0,5.39-8.25,0-16.53.4-24.74-.17C1060.13,384.62,1057.2,382.48,1064.25,379.6Z"/><path class="cls-56" d="M1288.33,277.39l-.78-14q.48-5.56,1-11.13c.67-.12,1.34-.27,2-.45l.42,22.84Z"/><path class="cls-108" d="M1186.09,130.27l-5.65,5.64h0a11.37,11.37,0,0,1-6.07,4,21.18,21.18,0,0,1-14.34-2.66c-4.52-2.6-2.3-4.85.57-6.95a52.94,52.94,0,0,0,22.69,0Z"/><path class="cls-101" d="M1160.58,130.28c.74,11.89,9.78,2.95,14.18,5.64,9.26,4.84,12.51,15.43,20.73,21.49,3.84,2.84,4.39,9.17,1.85,13.2-8.92,14.11-11.47,31-20.22,45-3.12,5-7,9-13.69,8.07-13.83-7.24-25-2.84-35.44,7.36-4.62,4.53-11.27,4.16-17.32,4.27-11.68.19-23.4,2.76-35.05-.3,4.17-7.2,11.39-7.73,18.4-7.77,14.75-.07,27.33-5.24,38.26-14.88,16.08-1.29,29-6.82,34.15-24,1.31-4.36,4.44-8.2,6.86-12.21,8.72-14.43,1.52-33.91-15-35.74-8.33-.93-11.06-5-14.68-10.2l2.85,0Z"/><path class="cls-114" d="M1103.94,135.92h8.5c2.84-2.4,5.67-2,8.51,0l5.65,0c10.27,4.28,15.85,13.53,20.74,22.29,5.25,9.41-.84,18.46-6.57,25.85-6.22,8-15.48,11.38-25.34,14.21-9.44,2.71-17.35,8.09-27.49.4-6.85-5.2-13.9,2.8-21,4.13a7,7,0,0,1-4-1.64c-3.31-8.78-7.24-17.42-6-27.19,5-5.3,9.75-2,13.42,1.32,7.39,6.77,15.53,5.35,23.65,3,4.91-1.41,9.54-3.84,14.7-4.53,6-.8,11.15-3.41,12.94-9.32,2-6.74-2.93-11.19-6.8-15.88C1111.35,144.26,1102.68,144.37,1103.94,135.92Z"/><path class="cls-115" d="M1067.12,201.07c6.14-11.7,16.16-11.11,24.77-5.22,7.6,5.21,12.13,5.55,17.23-2,.9-1.32,3.11-2.88,4.39-2.63,19.7,3.75,24.69-11.08,31.13-24.22,1.69-3.45,1.48-6.22-1.73-8.61-7.77-5.79-10.73-15.08-16.31-22.47,9.23-.64,18.11-.6,21.36,10.68.57,2,1.94,2.65,3.82,3.45,12.52,5.35,14.85,24.42,3,31.68-7,4.31-10.8,9.76-14,16.51-5.44,2.69-11.36,4.59-16.3,8.06-17.64,12.39-35.56,3.15-53.34,1A4.64,4.64,0,0,1,1067.12,201.07Z"/><path class="cls-111" d="M1132.28,212.41c-5.34,15.13-18.07,18.78-31.92,19.63-8.36.51-16.69.4-24.74,3-8.71-2-17.32-4.07-15.16-16.29a4.75,4.75,0,0,0-1.21-3.86c-13.24-10.79-7.68-25.86-9.15-39.32l0,0c12.9,2.87,8.7,14.42,11.41,22.45,7.76,13,28.53,20.82,42.53,15.19a35.22,35.22,0,0,1,25.36-.8Z"/><path class="cls-116" d="M1129.44,212.4c-20.61,2.51-41.24,13.2-61.76-1.23-4.06-2.86-6.31-6.5-9-10.11a3.82,3.82,0,0,1,5.66,0h2.83c4.22,3.73,9,5.29,14.22,2.66,5.42-2.74,9.58-2.78,13.14,3,3.46,5.56,7.51,4.76,13.09,1.72,10.23-5.58,21-10.63,33.2-10.16C1137.74,203.56,1131,205.93,1129.44,212.4Z"/><path class="cls-115" d="M1121,135.9h-8.51c0-1.88,0-3.77,0-5.65A9.19,9.19,0,0,1,1121,135.9Z"/><path class="cls-117" d="M1163.43,223.73c10.46-5.77,13.08-16.86,17.26-26.58,3.8-8.81,3.69-19,12.32-26.06,3.38-2.75,3.1-10.71-1.2-12.63-10.3-4.6-9.73-16.38-17-22.54h5.66c9.52,11.72,9.52,11.72,31,9-16,13.7,12,10.1,6.25,20.46-11.88-2.78-14,1.83-13.74,14.82.19,11.36,2.17,28.42-16.76,31.73-4,15.2-19.05,19.4-28.1,29.25-7.22,7.86-10.87,15.06-23.3,11.37-8.43-2.5-16.91,6.12-26.12,2.32,15.42-2.45,19.93-25.55,40-20.49C1155.53,235.9,1162.3,231.86,1163.43,223.73Z"/><path class="cls-118" d="M1103.94,135.92c6.2,5.64,14.86,8.18,19.45,15.93,2.53,4.28,8.43,7.79,4.79,13.46s-6.56,13.15-15.21,13c-6.33-.12-12,1.65-17.64,4.21-14.76,6.65-25.54-2.41-36.68-9.78a8,8,0,0,1-2.68-3.07c-1.33-6.82-1.33-13.46,2.66-19.56h0c2-3.06,4.41-5.38,8.51-3.67,2.49,2.65,2.25,6,2.33,9.28.27,9.72,5.31,14.32,14.9,14.95,10.08.65,15.91-5.08,19.59-13.12,3-6.45-3.39-5.21-6.42-5.74-9-1.56-19,.45-26-7.83-1.64-8.61,6.67-5.13,9.74-8Z"/><path class="cls-114" d="M1067.12,147.26l-8.49,2.82c3.46-11.26,10.87-16.21,22.65-14.16-2.33,3.33-8.49,2.83-8.49,8.5C1072.81,149.18,1070.39,149.07,1067.12,147.26Z"/><path class="cls-114" d="M1058.63,150.09q0,9.9,0,19.81c-9.8-1.55-3.73-9.45-5.66-14.16v-5.66Z"/><path class="cls-115" d="M1053,155.74c4.78,3.57.87,10.6,5.66,14.16l0,2.82c1.85,9.45,7,18.24,5.64,28.34h-5.66c-1-9.11-.37-18.76-8.49-25.5C1051.67,169,1044.74,161.31,1053,155.74Z"/><path class="cls-119" d="M1067.12,147.26l5.67-2.84c11.41,1.42,22.88,2.55,34.22,4.39,5.87,1,8.15,3.3,2.71,9.1-6.64,7.08-8.41,18.43-22.32,18C1067.08,175.21,1060.66,167.21,1067.12,147.26Z"/></g><rect class="cls-120" x="0.11" y="5.25" width="1434" height="581"/><path class="cls-121" d="M157.23,260V271.9h9.58v10.64h-9.58v24.8c0,4,1.94,5.86,6.1,5.86a22.14,22.14,0,0,0,3.43-.25v10.4a32.36,32.36,0,0,1-6.72.58c-12.19,0-16.93-4.06-16.93-14.17V282.54h-7.3V271.9h7.3V260Z"/><path class="cls-121" d="M221.11,307.88c-1.54,10.15-10.83,17-23.64,17-16,0-25.53-10.2-25.53-26.79s9.67-27.27,25-27.27c15.08,0,24.61,10.2,24.61,26v4.3H185.82v.87c0,7.4,4.69,12.47,11.89,12.47,5.17,0,9.14-2.56,10.45-6.52ZM186,292.4h22c-.29-6.62-4.59-11.17-10.88-11.17S186.44,285.92,186,292.4Z"/><path class="cls-121" d="M228.81,271.9h13.63v9.38h.29a15.22,15.22,0,0,1,14.8-10.35c7.5,0,12.72,3.87,14.46,10.64h.29c2.32-6.53,8.51-10.64,16.1-10.64,10.16,0,17,7,17,17.41v35.4H291.24V291.87c0-6-3-9.28-8.47-9.28s-8.89,3.91-8.89,9.67v31.48H260.29v-32.3c0-5.56-3.15-8.85-8.37-8.85s-9,4.06-9,9.86v31.29H228.81Z"/><path class="cls-121" d="M312.33,308.84c0-9.43,7.25-14.89,20.16-15.66l13.06-.78V289c0-4.84-3.39-7.64-8.71-7.64s-8.61,2.61-9.28,6.43H314.65c.53-10.06,9.09-17,22.82-17,13.3,0,21.95,6.86,21.95,17.31v35.64H345.79v-7.93h-.29c-2.9,5.51-9.34,8.75-15.81,8.75C319.82,324.56,312.33,318.18,312.33,308.84Zm33.22-4.11V301l-10.93.68c-5.27.39-8.27,2.76-8.27,6.43,0,3.87,3.19,6.29,8,6.29C340.47,314.36,345.55,310.34,345.55,304.73Z"/><path class="cls-121" d="M369.92,301.54V289.21h31.77v12.33Z"/><path class="cls-121" d="M411.7,288.73c0-22.54,10.88-36.36,28.49-36.36s28.43,13.78,28.43,36.31-10.74,36.6-28.43,36.6S411.7,311.31,411.7,288.73Zm42.07,0c0-15.91-5-24.66-13.58-24.66s-13.64,8.8-13.64,24.66,5,24.85,13.64,24.85S453.77,304.73,453.77,288.73Z"/><path class="cls-121" d="M476.65,288.73c0-22.54,10.88-36.36,28.48-36.36s28.44,13.78,28.44,36.31-10.74,36.6-28.44,36.6S476.65,311.31,476.65,288.73Zm42.07,0c0-15.91-5-24.66-13.59-24.66s-13.63,8.8-13.63,24.66,5,24.85,13.63,24.85S518.72,304.73,518.72,288.73Z"/><path class="cls-121" d="M535.36,339.45V328.91h45.89v10.54Z"/><path class="cls-121" d="M583.53,257.64a7.35,7.35,0,1,1,7.35,7.25A7.27,7.27,0,0,1,583.53,257.64Zm.34,14.26H598v51.84H583.87Z"/><path class="cls-121" d="M607.37,271.9H621v9.24h.29c2.76-6.44,8.22-10.21,16.2-10.21,11.51,0,18,7.26,18,19.39v33.42H641.36V293.27c0-6.77-3.19-10.63-9.52-10.63s-10.35,4.64-10.35,11.36v29.74H607.37Z"/><path class="cls-121" d="M682.32,260V271.9h9.58v10.64h-9.58v24.8c0,4,1.94,5.86,6.1,5.86a22.14,22.14,0,0,0,3.43-.25v10.4a32.36,32.36,0,0,1-6.72.58c-12.19,0-16.93-4.06-16.93-14.17V282.54h-7.3V271.9h7.3V260Z"/><path class="cls-121" d="M699.64,271.9h13.63v9.33h.29c1.84-6.57,6.24-10.15,12.34-10.15a14.41,14.41,0,0,1,4,.53V284a14.42,14.42,0,0,0-5.13-.82c-7,0-11,4.25-11,11.55v29H699.64Z"/><path class="cls-121" d="M732.09,297.77c0-16.78,10.15-27,25.68-27s25.67,10.15,25.67,27c0,17.07-10,27.08-25.67,27.08S732.09,314.79,732.09,297.77Zm37,.05c0-10.3-4.45-16.25-11.31-16.25s-11.37,5.95-11.37,16.25,4.4,16.25,11.37,16.25S769.08,308.22,769.08,297.82Z"/></svg>
