<svg id="Layer_1" data-name="Layer 1" xmlns="http://www.w3.org/2000/svg" width="749" height="460" viewBox="0 0 749 460"><defs><style>.cls-1{fill:#f0f3ec;}.cls-2{fill:#e9e9e5;}.cls-3{fill:#c5c6c0;}.cls-4{fill:#dde0d8;}.cls-5{fill:#9ea099;}.cls-6{fill:#858680;}.cls-7{fill:#ecefe8;}.cls-8{fill:#f4f6f0;}.cls-9{fill:#edeeec;}.cls-10{fill:#ebeee7;}.cls-11{fill:#edf0e9;}.cls-12{fill:#717172;}.cls-13{fill:#ecede8;}.cls-14{fill:#e2e2df;}.cls-15{fill:#bec0ba;}.cls-16{fill:#f4f3f2;}.cls-17{fill:#ecede9;}.cls-18{fill:#bbbcb5;}.cls-19{fill:#dedfd9;}.cls-20{fill:#d8d9d4;}.cls-21{fill:#e1e2e1;}.cls-22{fill:#f9f9f9;}.cls-23{fill:#fafbf9;}.cls-24{fill:#141511;}.cls-25{fill:#050505;}.cls-26{fill:#090a0c;}.cls-27{fill:#58555a;}.cls-28{fill:#38373c;}.cls-29{fill:#464549;}.cls-30{fill:#565458;}.cls-31{fill:#242328;}.cls-32{fill:#605c5f;}.cls-33{fill:#5b585d;}.cls-34{fill:#757474;}.cls-35{fill:#615e62;}.cls-36{fill:#3a393e;}.cls-37{fill:#161519;}.cls-38{fill:#111113;}.cls-39{fill:#2d2c30;}.cls-40{fill:#0c0d0f;}.cls-41{fill:#403f44;}.cls-42{fill:#444348;}.cls-43{fill:#4b4a4f;}.cls-44{fill:#666366;}.cls-45{fill:#6b696b;}.cls-46{fill:#605f62;}.cls-47{fill:#514e54;}.cls-48{fill:#1e1d22;}.cls-49{fill:#060607;}.cls-50{fill:#0e0f11;}.cls-51{fill:#4a494e;}.cls-52{fill:#302f34;}.cls-53{fill:#323135;}.cls-54{fill:#2b2a2f;}.cls-55{fill:#3e3d42;}.cls-56{fill:#3e3d41;}.cls-57{fill:#252429;}.cls-58{fill:#36353a;}.cls-59{fill:#504e53;}.cls-60{fill:#4b4b4f;}.cls-61{fill:#1c1b20;}.cls-62{fill:#3b3a3f;}.cls-63{fill:#313035;}.cls-64{fill:#1a191d;}.cls-65{fill:#b160c9;opacity:0.7;}.cls-66{fill:#fff;}</style></defs><title>tema_3_button</title><path class="cls-1" d="M208.82,316.49q-.28-90.23-.55-180.47c0-21.14.28-42.28.44-63.42l8.59-4.76L218.57,69a9.16,9.16,0,0,1,1.05,4.92c-4.42,28.82-3.2,57.57.77,86.28.82,1.4-1.39,0,.07,0,.29,0,.3-.27.19-.88-4.13-22.23-3.35-44.65-2-67,.18-2.9.53-10.8,7.63-4.48,1.58,4.65,1,9.45,1,14.18q.09,73,0,146.05c0,5.54.08,11,2.79,16,5.39,5.34,12.17,2.3,18.3,2.95,4.22.46,8.52-.21,12.74.63,6.34,4.73,13.72,4.06,20.95,3.84,14.08-.43,25.68,2.79,31.6,17.57,4.27,10.69,13.66,14.75,24.59,14.75,5.13,0,8.36,1.6,10.3,7.15,2.44-5.05,3.66-9.93,6.41-14,3.83-5.7,8.05-7.39,12.81-.91a13.48,13.48,0,0,1,1.08,4.2c.51,4,.57,8.78,5.79,9.16,5.51.39,4-5,5.22-8,1-2.46,2.09-4.66,4.95-5.31,7.31,4,5.34,10.56,4,16.35-1.74,7.38-8.77,4.76-13.81,5.79-1.35.45.29,2-.25.62-.1-.26.28-.64,1-.46,11.44,3,18.28-4.77,24.69-11.59,4.41-4.7,9.08-6.77,15-7.93,4.4-.87,10.28-.17,8.11-8.74-1.11-4.38,4.66-5.25,8.18-4.26,12.62,3.57,23-.05,32.05-8.89,2.9-2.82,6.64-3.78,8.49-3.44-5.65.95-13.26,4.65-21.35,1.91-3.82-1.3-8.74-3.08-2-7.61a664.41,664.41,0,0,1,68,0c3.36,1.39,5.94,3.94,4.65,7.48-1.86,5.12-7.09,4-11.25,4.59-7.29-1.36-12.32-.72-13.73,8.77-1.33,8.92-6.28,9.95-15,4.77,1.9,7.9,1.68,14.81-8,17.31-.72.18-1.73.33-1.94.89-7.5,19.9-25.66,11.52-39.36,14.55-5.64,1.25-11.83.39-15.61.2,6.48-.41,15.17.76,23.8-.54,3.72-.56,7.68,1,7.66,4.35,0,5-5,5-8.38,3.91-9.28-3-17.12-.45-24.54,5-28.78.82-57.54.67-86.27.12-8.34-5-17.71-6.58-27.07-5.78-6.64.56-9.82-1.8-11.1-7.53-1.56-7-5-10.91-12.74-10.56-3.37.15-6.95-2.16-7.75-5.32-2-8-11.63-12.53-9.81-22.33.71-3.81-3-4.5-5.86-5.11-5.37-1.13-10.67-2.58-16-3.94A15.72,15.72,0,0,0,225,281.41c-6.09,4.67-8,.68-8.37-4.26-.4-5.5-2.35-10.72,1-16.79,3-5.5.93-12.92.83-19.51-.66-3.36.13-6.7,0-10,1.39-4.34,1.24-8.82,1.19-13.27-.52-5.14-1.23-10.27-1.41-15.45,0-.17-.5-.47-.74-.45s-.52.34-.74.63c-1,2.68.29,4.94,1.09,7.26,1.86,3.81,1.89,7.87,1.8,11.95a39.16,39.16,0,0,1-.23,4.72c-2.53,5.5-2.11,11.52-3,17.31-1.93,20.76,2.52,41.71-2,62.37-.12,1.28-.24,2.57-.32,3.85C213.45,312.87,213.5,316.52,208.82,316.49Z"/><path class="cls-2" d="M472.42,66H479a57.09,57.09,0,0,1,24.17,0l11,0c2.93-3,5.86-2.17,8.79,0,6,1.36,13.26.66,15.48,8.77l-2.05.64c-13.76-5.08-27.95-4.54-42.18-3.1a98,98,0,0,1-11,.36c-69.77-.55-139.54.2-209.3-.14-15.7-.08-31.41-1.27-47.13-1.15-3.35,0-6.59-.41-9.17-2.88l-.36-.67,4.59-1.72c.71-1.36,1.44-1.37,2.17,0L285.61,66A128.57,128.57,0,0,1,323,66l13.18,0c22.08-2.57,44.23-.64,66.35-1,7.9-.13,15.94-1.35,23.77,1l4.39,0h6.59A116.42,116.42,0,0,1,472.42,66Z"/><path class="cls-3" d="M329.63,347.25q-52.15,0-104.29-.08c-12.29,0-16.5-4.54-16.71-17.43a2.74,2.74,0,0,1,2.57-.92c2.35.92,4.48,2.26,6.76,3.36a26.37,26.37,0,0,0,6.44,2.49,29.19,29.19,0,0,0,5.49.49c59.22-1.45,118.42,4.88,177.54,1.76,38.36-2,76.69-.1,114.94-2.4a18.69,18.69,0,0,0,4.84-2.24c3.88-1.46,6-4.42,7.11-8.33,1.61-10.44.37-20.93.75-31.39-.16-68.59.32-137.16-.26-205.73,0-4.3,0-8.6,2.67-12.32l1,.27c.48.11,1,.2,1.45.29.18,35.12.43,70.24.54,105.35q.22,72.45.29,144.9c-1.48,18.79-4.69,21.8-23.49,21.86q-49.75.18-99.52.31c-3.69,3.5-8.25,4.17-13.1,4.16-20.68,0-41.35-.23-62,0C337.75,351.68,333.16,351,329.63,347.25Z"/><path class="cls-4" d="M325.52,376.09l4.08-17.79c2.76-5.27,7.57-6.5,12.95-6.53,21.22-.14,42.45-.08,63.67,0,7.53,0,12.74,2.67,13.23,11.05q1.1,4.57,2.18,9.15c3.42,1.55,4.6,4.26,4.12,7.85-3,6.68-10.07,5-14.35,4.65-25.4-1.93-50.76-.4-76.12-.46C330.43,384,323.36,385.36,325.52,376.09Z"/><path class="cls-5" d="M419.45,362.8c-2.18-3.79-4.18-6.92-9.75-6.83-23.93.36-47.86.07-71.8.24-2.77,0-5.53,1.36-8.3,2.09l0-11.05,88.09.24C418.21,352.6,420.8,357.48,419.45,362.8Z"/><path class="cls-6" d="M423.92,378.15a6.84,6.84,0,0,1,2.15.33c4.41,4.73,8.7,9.52,6.55,16.81a2.66,2.66,0,0,1-3.51,0c-7.36-8.08-17.1-5.33-25.82-4.88-24.79,1.31-49.55.91-74.33.24a29.65,29.65,0,0,0-10.71,1.4c-8.3-.7-5.61-5.5-3.31-9.63,1.77-3.18,5.38-4.51,8.29-6.51l2.29.2c.41,4.58,4.25,5.07,7.26,4.92,29.44-1.48,58.87-.43,88.31-.15C423,380.88,423.36,379.45,423.92,378.15Z"/><path class="cls-7" d="M210.74,329.84l-2.11-.1.19-13.25c2.14-1.73,2.07-4.16,2.09-6.56C218.35,315.53,218.28,323.9,210.74,329.84Z"/><path class="cls-8" d="M366.75,296.68c-5.46-3.75-8.3-.71-10.24,4.11-1.32,3.31-2.28,6.76-3.46,10.13-1.05,3-2.19,5.9-3.22,8.68-2.66.28-4.08-1.17-4.22-3-.52-6.45-.27-9.24-10.07-8.54-12.36.89-24.28-8.75-28.13-20.82-3.75-11.8-12.25-10.81-20.07-12.28-6.34-1.18-13.06-.23-19.62-.25-2.61,0-5.55.25-4.06-4,3-4.35,7.69-3.61,11.95-3.62q79.26-.17,158.51,0c4.26,0,8.94-.74,11.91,3.68,10.47,4.15,21.59,0,32.53,3-6.44,0-10.18,3.87-14.55,7.79-9.17,8.23-19.68,13.71-32.5,7.14-1.18-.6-2.84-.42-4.26-.33-.55,0-1.05.79-1.65,1.28.19,3.43,4.08,2.52,5.43,4.64,2,3.14,1.86,6.69-2.08,6.18-5.51-.72-9.76,2.47-14.76,2.73-4.48.23-10.18-1.37-8.69,6.89.41,2.25-2.12,3.8-4.67,3.21-5.5-1.28-7.65.93-6.93,6.3.26,1.94-.49,5-1.68,4.35-7.51-4.28-15-2.39-22.58-1-1.36.25-3.21-.47-2.88-2.31a6.39,6.39,0,0,1,2.37-3.37c.75-.61,2.05-.58,3.12-.78,16.26-3,16.29-3.07,12.16-19.84C378.52,296.44,372.61,301.45,366.75,296.68Z"/><path class="cls-7" d="M239.46,274.78c4.2,1.25,8.36,3.44,12.59,3.57,9.87.32,16.76,2.11,11.77,14.32a6.52,6.52,0,0,0,.28,3.09c10.3-.71,6.39,7.57,8.23,12.4.91,2.41,3.56,5.88,6.68,4.5,12.78-5.66,13.29,4.49,15,11.81,1.12,4.79,1.78,7.23,7.5,5.68,7.39-2,14.72,2.66,22.63.45,3.72-1,1.59,3.47,1.07,5.66-30.13,1.59-60.25,2.92-90.23-1.81-3.39-2.18-3.51-4.66.05-6.49a17.25,17.25,0,0,1,8-1.52c2.82-.52,1.18-2.69,1.67-1.31.18.5,0,.77-.55.88a59,59,0,0,1-16.07.8c-4.18-.27-7.66-2.47-7.92-7.48,2-5.67.43-11.36,0-17-1.19-14.71.37-17.67,13.63-24.6C235.63,276.72,237.74,276.12,239.46,274.78Z"/><path class="cls-9" d="M537.48,74.51,538,86c-3.15,3.88-.31,9.4-3.61,13.25-7.06-4.16-9.57-13-6.46-24.77-10.77,6-23.32.64-33.47,7.55-31.31.71-62.63,0-93.93.45-5.48.08-11-.2-16.22,1.8A48.81,48.81,0,0,1,370.77,84c-5.25-2-10.7-1.8-16.21-1.81-33.25,0-66.5,1.2-99.71-.59-3.44-5.25-7.32-7.42-14.48-6.3-7.4,1.16-15.72,1.83-22.88-2.76,0-1.36.11-2.72.17-4.07q152-.14,304-.34C527.94,68.16,532.91,70.6,537.48,74.51Z"/><path class="cls-10" d="M232.88,331.9c30.53,6.68,61.51,3.86,92.33,4.36h92.25c2.12-2,4.23-4.87,7.31-4.32,23.73,4.22,47.52-3.07,69.52.07-7.59-2.9-17.06.21-26.43-.36a33.12,33.12,0,0,1-8.64-1.33c-2.07-.69-4.64-1.67-4.27-4.2s3-2.67,5.26-3c11.56-1.48,23.14-3.2,34.77-3.48,6.56-.16,9.17-2.66,7.82-8.4-2.18-9.25,2.52-18,1.15-27.16-.59-3.93,3.06-5.42,5.83-7.15,1.85-2.32,4.08-1.64,6.6-1.26,5.68.86,3.11-2.48,2.17-4.86,2.33-25.9.58-51.86,1.17-77.78.11-4.69-.79-9.55,1.71-13.95,6.27-3.22,6.28,2.39,7.21,5.59,1.43,4.91.83,10.1.86,15.18.08,13.81.31,27.63-.13,41.42a115.7,115.7,0,0,0,4.82,37.48c1,6.06,2.54,12.07,1.71,18.3-1.64,7.57-.35,15.26-1,22.86-.39,4.88.55,10.49-5.27,13.26a13.27,13.27,0,0,1-2.66,1.65,6.84,6.84,0,0,1-3.12.21c1.18.44,2.65.06,3.56,1.26-3.44,3-7.62,2-11.54,2q-141.27.06-282.55,0c-4.62,0-9.56,1.3-13.76-2,2.43-3.94,7-2.79,10.4-4.31C231,332,231.91,331.92,232.88,331.9Z"/><path class="cls-11" d="M509.78,277c-.58.93-1.84,2.07-1.63,2.76,2.82,9.38-3.51,18.12-1.85,27.31,2.73,15.1,1.45,14.21-12.84,16.08-11.9,1.55-23.83,1.16-35.64,2.63l0,3.09c13.49,0,27,.21,40.44-.14,3.53-.09,7.62-.47,7.55,3.38-.07,3.69-4.5,4.26-7.86,3.48-14.81-3.46-29.53.67-44.25,1-12.1.25-24.17-4.2-36.21-.29,1.07-7.35,6.73-6.71,11.8-6.47,5.35.25,10.67,1.08,16.12.6-12.24-5.29-25.64-1.13-38.3-4.52,17,2,33.06-3.22,49.54-5,2.5-.26,5-.78,7.45-1.18-5.73-14.61,16.79-9.8,15-21.83-.54-3.59-.34-7.29-.78-10.9-.27-2.2-1.27-4.67,2-5,2.56-.26,4.11,1.39,3.77,4.1-.52,4.19-1.4,8.77,5.16,8,5.43-.64,3.77-4.83,3.83-8.46C493.24,273.27,494.05,272.94,509.78,277Z"/><path class="cls-12" d="M523.41,178.21c-.09,27.34-.14,54.68-.33,82,0,4,1.91,9.19-4.53,10.61H446l-182.37-.06-37.07-.48a1.9,1.9,0,0,1-.05-3.17,8,8,0,0,1,3.37-1.77c5.79-.78,11.61-.32,17.42-.47h32.32c73.57.76,147.12-2,220.69-1.27,14.9.15,15.83-.93,15.89-15.31s2-28.47,1.26-42.76V171.36c-.13-6.59.37-13.19-.52-19.75,1-8.49.34-17,.52-25.53,0-5,.11-9.92-.14-14.86-1-6.92,2.66-14.42-2.57-20.82-4.54-.66-9.13-.55-13.66-1.31-13.19,1.25-26.41-.28-39.59.85-8.29.17-16.6.91-24.86-.56-32.58-1.47-65.13,1.52-97.7.89-9.42-3.29-20,1.84-29.07-3.88a2.72,2.72,0,0,1,.7-3.78c16-2.77,32.14-1.58,48.13-1.14,33.63.92,67.24-1.07,100.85-.1,19,.55,38-.64,57.05-1.17,7.3.56,10.18,5.58,10.4,11.83.9,25.81.56,51.63.22,77.45A11.41,11.41,0,0,1,523.41,178.21Z"/><path class="cls-13" d="M217.49,72.58l38.84-1.88c1.77,5-4.66,4.83-3.67,8.48-3.44,4.52-8.45,2.79-12.9,3.26-4.74.69-9.85-1.64-14.26,1.66a4.18,4.18,0,0,1-1.59,1.72c-4.39,15.32-1.38,31-2.18,46.51-.67,12.94-.14,25.94-1.62,39.1,4-9.64-10.75-15.92-3.9-26-6.9-17.5-1.65-35.69-2.91-53.52C212.84,85.43,213,78.36,217.49,72.58Z"/><path class="cls-13" d="M239.46,274.78c-1.6,2-2.81,4.88-4.88,5.75-14.24,6-11.86,17.64-10.06,28.92.61,3.8,1.86,7.17-2.63,9.27-1.83,1.6-.89,6.45-5.25,5-3.51-1.18-1.12-4.27-1.3-6.45-.31-3.8.73-8-4.43-9.51,2.41-22.65,2.46-45.38,2.19-68.12,7.52,3.53.87,10.17,3.56,14.44,2.67-3.32-6.08-12.15,5.2-12.24,2.9,13-6.13,25.37-1.48,38.46C224.13,269.8,233.07,276.83,239.46,274.78Z"/><path class="cls-14" d="M223.91,85.82l.15-2.26,1.78-.56a6.08,6.08,0,0,1,2.69,2.5c2.69,7.21.17,14.69,1.09,22q-.08,4.62,0,9.22c0,3.73,0,7.46,0,11.19.15,6.32-.5,12.67.74,18.95a16.43,16.43,0,0,1-.22,5.85c1,9.22-.79,18.39-.35,27.59,1.89,7.3.08,14.66.47,22,0,8.71-1.72,17.43.18,26.13.53,9.43-2,18.82-.39,28.27-.3,4.08-.33,8.26-3.58,11.42.06.74.11,1.47.17,2.21-4.4-3.78-2.53-8.89-2.54-13.4Q223.83,171.37,223.91,85.82Z"/><path class="cls-2" d="M210.91,307.73c13.29-.67,2.84,10.13,7,14,2.38.62.77-4.63,4-3,2.08,7,7.73,4.47,12.48,4.89,4.48.4,8.88,1.68,14.25,2.76-5.85,2-11.6,1.62-15.74,5.53v2.2a31.45,31.45,0,0,1-17.78.06c-2.6-.29-3.91-1.87-4.35-4.33,1.91-6.62,4.32-13.23.16-19.9C210.9,309.2,210.9,308.46,210.91,307.73Z"/><path class="cls-15" d="M366.75,296.68c5.89.46,11.8-5,17.66.09-.66,2.08-2.29,4.43-1.8,6.19,2.11,7.61,1.12,12.42-8.27,11.23-8.9-1.13-9.88-7.25-8.82-14.47A13.56,13.56,0,0,1,366.75,296.68Z"/><path class="cls-7" d="M213.1,200.05c.21-2.4-.64-5.32,3.48-5.38,3.23,0,4.92,1.5,5.07,4.4.27,5.45.16,10.92.21,16.37-2.77,1.32,1.43,7.27-4.36,6.58a11.45,11.45,0,0,0-4.39-11A12.18,12.18,0,0,0,213.1,200.05Z"/><path class="cls-7" d="M221.86,241.81c-8.08,2.54-2.06,10.24-5.47,14.8-3-5.42,1.29-12.12-3.29-17,2.13-4.18-1.87-10.39,4.39-13.19,2.63.29,2.91,2.93,4.38,4.38C221.87,234.47,221.86,238.14,221.86,241.81Z"/><path class="cls-13" d="M221.87,230.8l-4.38-4.38c0-1.47,0-2.93,0-4.4l4.37-6.58Z"/><path class="cls-13" d="M213.1,200.05q4.62,5.49,0,11Q213.11,205.54,213.1,200.05Z"/><path class="cls-13" d="M216.38,168.29c-4.33-3.2-2.55-5.26-3.5-7.55C216.92,162.72,214.15,164.87,216.38,168.29Z"/><path class="cls-16" d="M534,99c.36-4.64-1.41-10,4.06-13l0,208.31c-5.45-3.9-3-10.11-4.43-15.2-1.11-21.7-4.47-43.17-2.19-65.16,2.37-22.86-3.21-45.81-1.65-68.89.86-12.69,3.46-25.37,1.28-38.22A7.94,7.94,0,0,1,534,99Z"/><path class="cls-9" d="M536.14,279.16c.63,5-1.53,10.41,1.84,15.11-.69,11.05,2.85,22.35-1.91,33.18-3.57-10-3.71-20.31-2.12-30.71l-2.19-17.58C533.21,277.74,534.67,278,536.14,279.16Z"/><path class="cls-17" d="M534,296.74q1.06,15.36,2.12,30.71c-.16,4.08-2.24,6.35-6.34,6.71a1.4,1.4,0,0,1-2.37-.06c4.26-3.3,4.22-7.9,4.53-12.76C532.42,313.14,529.47,304.6,534,296.74Z"/><path class="cls-11" d="M527.36,334.1l2.37.06-2.3,2.16a14.14,14.14,0,0,1-2.16,0c-3.39-.53-8.42,1.75-9.75-2.27-1.45-4.4,1.89-4.21,5-2.4a36.4,36.4,0,0,0,4.74,2.31A6.91,6.91,0,0,0,527.36,334.1Z"/><path class="cls-7" d="M215.1,334.16l17.78-.06c-3.94,3.68-8.84,1.63-13.29,2.24Z"/><path class="cls-18" d="M430.43,395.34l-4.13.44c-1.4-5.08-5.46-4.62-8.75-4.51,2.09,1,7-1.65,6.52,4.42l-98.9-.07c-1.46-1.65-2.92-1.64-4.38,0-3.16.19-3.91-2-4.32-4.44,2.51-4.95,7.11-4.19,11.43-4.19,30.88,0,61.76.11,92.64-.05C426.65,386.9,431.77,387.05,430.43,395.34Z"/><path class="cls-19" d="M424.07,395.69c-5.86-5-13.4-.31-20.55-3.78,7.41-4.55,14.89-2.61,21.88-2.2,3.8.22,1.45,3.84.9,6.07Z"/><path class="cls-20" d="M320.79,395.61c.28-2.33-.64-6,2.87-5.83,4.45.24.8,3.88,1.51,5.84Z"/><path class="cls-17" d="M536.14,279.16h-4.38c-3.53-6.11-6.69-12.26-6.64-19.67.13-23.23.09-46.46,0-69.69,0-3.91,1-8.05-1.71-11.59q-.37-42.51-.76-85c0-4.64,1-10-6.32-10a35.2,35.2,0,0,0-4.47-1.54c-5-1.31-10.73,1.84-15.27-2.44,1-5.7,7.54-6.19,9.35-5.21,9.42,5.08,21.41-10.07,29.44,4.66-1.52,1.48-9.74-3.6-5.37,4.81C532.37,88,530.72,94.21,534,99c4.69,18-.29,36.1.1,54.13.48,21.46,3.27,43.06,1.53,64.31C533.87,238.17,538.11,258.58,536.14,279.16Z"/><path class="cls-21" d="M514.05,81.3l2.28,1.85q-90.63.19-181.27.42c-8.42,0-16.84.24-25.25.37-3.94,3.55-8.83,2.76-13.49,2.89-19.58.52-39.19-1-58.75,1a12.89,12.89,0,0,1-10.92-3.84l-.5-.61c3.06-5.76,8.46-1.83,12.62-3,40.19-.18,80.39.3,120.58-.17,3.91,0,8.06-.73,11.85,1.19l13.31.07c19.91-2.49,39.91-1,59.85-1C467.59,80.37,490.85,79,514.05,81.3Z"/><path class="cls-22" d="M514.05,81.3l-129.54.07c9-4.69,18.65-.93,27.88-2.24C423.84,77.51,436,83,447.24,75.89c.47-.3,8.3,3.27,13.21,3.27h36.14C502.4,80,508.64,77.27,514.05,81.3Z"/><path class="cls-23" d="M371.2,81.3H237.34q-2.13-1,0-2.11h15.36c31.31,0,62.63-.06,94,0C354.85,79.21,363.44,75.58,371.2,81.3Z"/><path class="cls-24" d="M376.17,73.57c.49,3.48-1,4-2.36,4-.79,0-2.21-.91-2.3-1.57-.17-1.24-.21-3,1.84-3.15C374.92,72.78,376.16,73.24,376.17,73.57Z"/><path class="cls-25" d="M520.43,204.57c.14,18.64.07,37.29.53,55.92.16,6.36-2.23,8.09-8.25,8.06q-116.81-.49-233.63-.67a2.48,2.48,0,0,1,.69-3.31,8.21,8.21,0,0,1,3.43-1.51c8.12-.53,16.22-1.69,24.38-.83,4.43-.08,8.82.77,13.25.45q7.57,0,15.14,0c6.06-.06,12.13.05,18.18,0,9.33.43,18.45-1.33,26.28-6.14,9.59-5.88,22.35-5.21,30-15,1.35-1.74,4.24-1.83,6.22-.87,8.59,4.14,15.62.12,22.53-4.13,3.89-2.39,7.88-3.81,12.43-3.5,5,.35,9.22-.84,12.59-5.07,3.57-4.49,8.77-4.82,14.07-4.09,9.47,1.3,19,.64,28.51.92,2.85.09,6,.86,7.77-2.48C517.56,216.73,511.38,208.07,520.43,204.57Z"/><path class="cls-26" d="M520.43,204.57c-3.78,7-1,14.58-1.86,21.84-18.69-3.3-36.75-8.51-55.92,1.51-10.9,5.71-25,3.33-37.69,4.46-7.15.63-14.7-1-20.41,5.29-1.21,1.34-3.37,1.44-5.2,1.12-8.38-1.44-14,2-17.78,9.43-1.32,2.61-3.77,4.35-6.06,6.22-2,1.63-8.19.79-4.28,6.67.52.77-2.5,1.79-4.39,2.07a42,42,0,0,1-14.83-.62c1.86.52,4.89-.4,3.91,3.4l-19.79,0c-1.35-1.09-3.75-2.64-2.08-4.08,2.63-2.28-.69-2.62-.63-3.91,5.65-5,10.6-10.89,17.61-14.22,4.49-2.13,7.3-5.87,9.88-9.94s5.84-7.92,11.44-6.7c3.57.77,5.35-1.38,7.57-3.21,3.48-2.86,7.69-5,12-4.91,20.46.66,38.49-8.11,57.26-14.06,3.87-1.22,8.06-2.26,11.86-.84,11.3,4.2,23.13,2.54,34.68,3.83,9.14,1,15.84-1.53,18.69-11,1.54-3.41.09-7.43,2.12-10.75a5.77,5.77,0,0,1,2.4-2.11l1.52.58Q520.44,194.63,520.43,204.57Z"/><path class="cls-27" d="M226.42,151.73c0-1.49,0-3,0-4.45-.16-12.36,6-20.88,16.34-26.81,10.55-6,19.66-14.25,31.4-18.53,12.4-4.52,23.66-11.43,37.55-12.58,8.81-.73,17.82-1.94,26.66-3.53l98.85,0c3.79,4.87-.78,8.16-2.26,12a5.38,5.38,0,0,1-5.52,2.16c-2.44-1-2.78-4.9-6.27-4.47-39.17.77-78,2.18-116.73,10.43C289.31,109.67,278,120.3,264,127.76c-11.87,6.32-20.4,14.77-26.23,26.49a7.13,7.13,0,0,1-2.17,2.61C230.34,159,228.45,155.26,226.42,151.73Z"/><path class="cls-28" d="M520.31,110.21v15.44c-1,1.72-.27,4.28-2.66,5.29-26.93,7.19-53.53,15.82-80.93,21-9.91,1.89-20.12,2.29-29.8,5.64-3.57-.42-6.86-1.33-8.75-4.81a9.72,9.72,0,0,1-.4-6.84,9.88,9.88,0,0,1,1.55-3c2.26-2.21,3.64-5.94,7.94-4.8,7.69,7.36,15.95,2.7,24,.91,3.39-.77,6.19-3.54,9.92-3.62,15.7.2,29.65-6.82,44.16-11.23,8.33-2.53,16.86-4.11,25.21-6.43a7.48,7.48,0,0,0,5.81-5.5C517.29,110.86,518.42,109.79,520.31,110.21Z"/><path class="cls-29" d="M520.31,110.21l-1.74,1.93c-7.7,7.48-18.14,6.79-27.53,9.24-13.59,2.25-25.32,10.62-38.94,12.33-10.12,1.26-19.52,4.77-29.29,7.08s-12.69.16-15-9.84a15.68,15.68,0,0,1,.45-3.54c1.82-3.54,2.76-8.09,8.3-7.52a5,5,0,0,1,2.51,2c6.44,6.65,15.76,3.72,20.73,1.33,8.67-4.15,18.29-4.77,26.54-9.42,14.87-1.25,28-9,42.48-11.48,6.46-1.12,6.56-5.65,6.59-10.51.06-2.51,1.56-4.26,3.16-6C522.52,93.73,520,102.07,520.31,110.21Z"/><path class="cls-30" d="M518.61,85.85c0,2.17,0,4.34-.05,6.51-5.62,10.47-17.06,8.42-25.86,12.06-19.77-3-36.3,8.62-54.61,12.26-7.23,1.44-12.92,2.47-16-5.8a8,8,0,0,1,2.81-7.9,6.69,6.69,0,0,1,3.1-1.15c10.39,2.11,19.28-4.27,29.27-5.51,15.44-1.91,30.66-6.78,45.95-10.47Z"/><path class="cls-31" d="M518.56,129.71l1.75-4.06.09,26.28c-1.58,2.25.48,5.87-2.8,7.5-7.84,1.48-15.72,2.95-23.71,2.09-7.21-.77-11.41,6.19-18.12,6.45-16.58,3.17-32.91,8-49.88,8.63-6.05.22-13.21,3.25-17.68-4.1,4.13-6.88,12-6.05,17.56-5.86,14.11.46,26-6.26,38.77-9.71,8.29-2.23,17.44-2.33,24.8-7.71a15.62,15.62,0,0,1,9.61-2.59c5.15.61,10.49,2,14.14-3.52a7.9,7.9,0,0,0,2.19-5.1C515.4,134.85,515.72,131.78,518.56,129.71Z"/><path class="cls-32" d="M338.35,85.83c-11.52-.14-20.75,8-33.12,7.6-9.35-.29-18.78,7.51-28.45,10.92-12.17,4.3-21.49,13.33-32.92,18.78-4-5.16-.77-8.34,3-11.59,4.83-4.18,11.45-5.89,15.37-11.27A11.9,11.9,0,0,1,265,98.63c7.38.44,11.58-6.07,17.78-8.21,4.9-1.38,8.44-6.14,14.08-5.74,4.32.49,8.78-1.11,12.94,1Z"/><path class="cls-33" d="M503.2,85.85c-7.91,3.44-15.53,8.5-23.79,10-15.26,2.73-30.83,3.56-45,10.73-3,1.5-4.59-.94-5.92-3.21-1.32-1.47-1.16-2.93,0-4.38l4.37-2.2c10.52-4,21.28-6.36,32.66-4.94-2.27-1.37-5.47-2.14-4-6Z"/><path class="cls-34" d="M309.78,85.7l-15.37.12a69.51,69.51,0,0,1-24.29,3.84c-15.62,0-29.7,3.72-39.94,16.67a3.51,3.51,0,0,1-3.78,1.39,106.84,106.84,0,0,1,.25-23.78h83.16Z"/><path class="cls-35" d="M461.5,85.85c1.24,4.18,5.94,3.38,9.6,6.55-13.49,1.43-25.32,6.86-38.24,4.36q2.17-5.46,4.34-10.9Z"/><path class="cls-36" d="M226.42,268.09l0-10.93c2.12-4.47.44-9.23,1-13.81.39-3.08.44-3.07,4.27-1.23.09,0,.15.33.14.22-.13-2.79.85-4.92,3.47-6.17a5.68,5.68,0,0,1,4.92.86c3,3.4,2.65,7.47,2.25,11.54A102.07,102.07,0,0,1,235.93,266c-2.1,1.78-5,.35-7.17,1.72Z"/><path class="cls-37" d="M279.08,266v1.86l-32.9-.06a2.09,2.09,0,0,1,.2-2.93,8.18,8.18,0,0,1,2.9-1.67,44.29,44.29,0,0,1,6.81-.59c3-.29,5.94.18,8.92,0C270,262.39,275.31,261.05,279.08,266Z"/><path class="cls-38" d="M518.56,158.28c.07-2.28-.13-4.63,1.84-6.35v19.56a2.32,2.32,0,0,1-3.07-.57,9,9,0,0,1-1.79-6.58A7.66,7.66,0,0,1,518.56,158.28Z"/><path class="cls-39" d="M246.14,266c0,.6,0,1.2,0,1.8l-17.42-.06c1.71-1.94,4-1.75,6.29-1.8C238.77,262.34,242.46,262.51,246.14,266Z"/><path class="cls-40" d="M518.58,171.48h1.82q0,6.6.05,13.18h-1.88c-3.48-2.83-3.55-6.44-2.42-10.34A6.57,6.57,0,0,1,518.58,171.48Z"/><path class="cls-9" d="M237.3,79.19c0,.7,0,1.41,0,2.11-3.78.42-7.87-.89-11.19,2a20.86,20.86,0,0,1-2.09.23c-2.84-.62-2.85-1.69-.4-3C228,78.34,232.73,79.42,237.3,79.19Z"/><path class="cls-41" d="M235.07,237.41c-5.3,5.52-6.42,12.89-8.68,19.75V228.59c4.38-23.32,11.65-46.16,25.88-64.81,18.74-24.54,43.19-41.69,74.65-49.19,17.4-4.15,35-.71,51.9-5.77a86.17,86.17,0,0,1,28.85-3.22c4.71.2,9.09-.23,8.45,6.48-6.81,5.37-14.44,7.18-23.2,7.64-34.28,1.81-68.25,6.42-98.11,24.83C277.87,155,262.66,167.62,255.36,188a196.5,196.5,0,0,1-16.1,33.12C236.16,226.34,240.83,233.15,235.07,237.41Z"/><path class="cls-42" d="M415.28,112.14c-.48-2.36-1.53-4.19-4.32-3.87-30.39,3.56-61.12,5.4-91,11.33-20.32,4-36.14,18.82-52.21,32.12-24.47,20.27-27.29,51.43-41.32,76.87l0-26.36c5.23-5.81,4.71-13.65,7.08-20.46,4.28-12.33,11.84-22.32,20.08-32,10-16.9,30.18-20.28,43.42-32.87a3.82,3.82,0,0,1,2-.91c19.62-3.29,38.64-9.46,58.49-11.74,16.71-1.92,33.88.58,50.18-5.76,4.63-1.8,10.12-.63,15.21-.6,3.54,0,5.7,1.55,3.44,5.51q-1.09,3.28-2.21,6.57c-.74,3.78-.26,8.48-6.21,8.42a5.62,5.62,0,0,1-3.07-1.46A3.92,3.92,0,0,1,415.28,112.14Z"/><path class="cls-43" d="M254.85,151.7a8.55,8.55,0,0,1-3.37,7.67c-11,8.64-14.32,21.11-16.39,34-.87,5.4-4.89,6.8-8.68,8.87q0-11,0-22a13.5,13.5,0,0,0,3.71-9.37c.21-5.23.59-10.77,4.93-14.79h0c3.87-5.35,8.69-9.86,13.43-14.36,3.69-3.49,7.85-7,13.55-3.47C265.38,145.8,257.11,147.14,254.85,151.7Z"/><path class="cls-44" d="M268.06,85.82h26.35c-4.1,1.45-4.7,8.77-11,6.55-6,2.6-11.76,5.78-17.58,8.78h-2.2c-9.83,8.36-23.31,12.49-29,25.82-1.37,3.24-5.16,5.62-8.28.58v-11C235.85,100.26,252.77,94.14,268.06,85.82Z"/><path class="cls-45" d="M268.06,85.82c-11.9,12.92-28.55,19.41-41.66,30.7v-8.8C231.11,94.54,247.81,85.76,268.06,85.82Z"/><path class="cls-46" d="M226.39,127.55c9.51,1.91,6.78-8.42,11.63-11.89,8.14-5.81,16-11.6,25.62-14.51-.27,5.5-5.13,6.38-8.59,8.84-4.78,3.39-11.94,5-11.19,13.14-7.45,6.86-16,12.94-17.46,24.15Z"/><path class="cls-47" d="M235.07,156.09c.55,6.07-1.49,11.88-1.85,17.78-.32,5.2-3.79,5.08-6.79,6.38V151.73C229.3,153.2,231.43,156.15,235.07,156.09Z"/><path class="cls-37" d="M518.56,173.66c0,3.67,0,7.33,0,11h0c-.52.51-1.13,1.42-1.65,1.36-16.59-1.83-31.78,10.27-48.67,4.93-4.86-1.53-8.23,2.29-12.41,3.08-21.75,4.09-43.43,7.81-65.74,8.87-19.59.93-37.38,6.89-50.92,24.63-6.33,8.29-11.47,20.24-24.16,23.64-6.66,1.78-4.94,9.78-7.45,14.75l-26.32.07c-.51-4.37,2.68-3.94,5.36-4.11s-.51-1.83.62-2.39c8.94-17.1,20.74-32.41,30.11-49.32A43.1,43.1,0,0,1,345.94,189c6.44-1.42,13.69-4.37,19.31-9.49,5.33-4.85,11.27-5.22,16.12,1.07,3.27,4.25,7.61,5.59,12.55,5.19,11.91-.95,23.76-2.33,35.63-4,22.15-3.14,43.38-9.73,65.12-14.16C502,166.14,513.09,162.24,518.56,173.66Z"/><path class="cls-38" d="M307.55,265.91c-3-10.19.15-16.74,9.89-20.26,1-.37,2.88-.22,3.09-.78,3.36-9.11,11.44-14.24,17-21.3,2.84-3.63,5-7.38,9.19-10.16,11.46-7.54,24.3-15.67,37.11-14.32,12.54,1.33,24.65-7.73,36.75-.18,1,.62,3.76.48,4,0,5.38-13,16.83-3.42,25-6.63s16.56-6.56,26.35-3.68c4.92,1.45,12,3.14,16.33-4.56,2.12-3.75,8.22-1.79,12.34-1.09,4.67.79,9.24,2.06,14,1.72q0,6.58,0,13.18c-13.42,3-27.06,1.91-40.31.18-12.6-1.65-22.88,2.49-33.49,7.58-9.52,4.55-19.2,8.88-30.27,6.6-6-3.35-11.68-2.85-17.19,1.1a23.4,23.4,0,0,1-11.1,1.07c-10.07,1.35-19.4,6.37-29.84,6-1.08,0-2.45,1-2.44,1.81.09,11.14-12.62,13.19-15.63,22.14-1,2.89-3.88,3.88-6.49,5.29-6.37,3.46-11.53,8.11-11.05,16.36Z"/><path class="cls-48" d="M287.82,261.58c.87.43,3.57.65.87,1.91-2.3,1.07-5.5-.06-7.46,2.49l-2.15,0L263.63,266c-2.23-2.15-4.51-5-1.77-7.53,11.29-10.27,12.23-26.24,21.55-37.79,7-8.74,12.78-18.73,19.57-27.74,11.9-15.78,27.21-26.63,47.23-30.81,13.13-2.74,25.3-9.18,38.52-12.07,3.59-.78,7.3-2.92,8.42,2.95a15,15,0,0,1-1.61,6.07c-4.05,3.82-2.36,9.82-5.27,14.09a3.62,3.62,0,0,1-2.73,1.19c-12.94-5.85-22,3.67-32,8.57-5.14,2.52-9.36,6-15.68,6.5-4.82.35-10.64,2.45-13.45,6.52-6.53,9.42-14.48,17.86-20.26,27.63-5.15,8.7-8.21,18.55-15.59,26.09C287.63,252.62,285.48,256.86,287.82,261.58Z"/><path class="cls-49" d="M355.92,266c-2.65-3.21-6.82-1.52-10.06-4.26h22.45c0-.59,0-1.19,0-1.78l-10.43-1.15c1.29-4.66,4.81-3.26,7.39-3.93,6.53-1.72,12.71-4,14.7-11.48,1.54-5.86,5.9-9,11.33-8.4,10.76,1.21,18.39-8.23,29.7-6.82s23.23-1.84,34.82-1.46c8.8.3,13-8.74,22-8.4,4.14.16,7.87-1.88,12.73.59a18.25,18.25,0,0,0,13.87.35c8.55-3.72,12.34-1,14.12,7.19-.46,2-1.48,3-3.81,2.69-13.34-1.88-27,1.49-40.24-2.17-4-1.11-7.21.47-8.56,4.68-1.12,3.52-3.46,6.28-7.07,5.56-12.95-2.58-22,5.29-31.91,11.1-1.34.78-3,1.87-3.86.66-7.83-10.88-11.47.46-17.61,2.16C388.86,255.68,374.42,267.92,355.92,266Z"/><path class="cls-50" d="M320.75,265.92c-1.48-3.73-3.85-6.74-8.57-8,10.05-7.07,23.06-8.46,24.9-22.42.32-2.38,3.41-2.32,5.56-2.59s5.26-.92,5.38-3c1-18.35,15.57-13.41,25.86-14.62,4.33-.51,4.89-8.9,10.63-4.24.69,9.35-3.82,15.18-12.09,14.51-9-.74-14.13.07-18.32,10.83-4.3,11-15.69,18.73-26.62,20.79a5.82,5.82,0,0,1,6.49,2.22c5.57.59-1.07,5.21,2.17,6.57Z"/><path class="cls-40" d="M334,259.38H320.88c10.21-8.52,22-11.1,27.93-21.25.88-1.5,4.62-1.59,3.83-4.36-5-17.59,11.57-13.49,16.18-12.3,11.19,2.9,12.2-4.56,15.69-10.44H397.7c5.77-1.45,11.5-3.21,17.58-2.2,10.23,3.56,18.3-3.39,27.05-6.17a42.63,42.63,0,0,0,11.48-5.33c10.82-7.81,22.34-2.23,33.36-2.57,7.07-.22,14.46,1.73,21.51,0,4.44-1.11,6.77,1.56,9.88,3.11-3.4,13.46-12.61,15.56-24.83,13.61-11.33-1.81-23.4,1.86-34.19-4.56a3.79,3.79,0,0,0-3.21,0c-12.55,7.18-28.7,4.73-40,15-2.94,2.68-5.89,1.48-9.2.71-10-2.33-18.33,2.57-27.56,5.11-11.33,3.11-15.39,12.38-23.56,16.86C348.06,248.93,342.76,256.75,334,259.38Z"/><path class="cls-47" d="M261.44,138.51c-6.68.92-10.66,5.2-14.54,10.39a18.47,18.47,0,0,1-11.83,7.19c1.59-14.35,10.16-23.46,22.7-29,6.17-2.75,10.44-7.63,15.66-11.28a69.35,69.35,0,0,1,29.88-12.28c22.16-3.47,43.77-9.61,66.62-9.17,13,.24,26.16-1.47,39.08-3.42,6.16-.93,11.42,2.52,17.27,1.48.52,5.32-3.26,7.69-7.2,7.42-8.85-.61-17.19,2.53-25.9,2.48-31.7-.19-62.43,6.39-93.22,12.94-5.85,1.25-7.24,6.53-11.72,9C279.38,129.13,270.39,133.78,261.44,138.51Z"/><path class="cls-51" d="M261.44,138.51c5-9.83,17-9.57,23.92-17,13.13-14,31.94-12.42,48.72-16.6,25.51-6.36,51.39-6,77.31-5.92,6.1,0,11.8-.19,14.89-6.64,5.18.7,1.66,4.33,2.21,6.59l0,4.38-2.18,0c-5.5-5.13-13.46-3.69-17.71-1.46-13.46,7.08-27.86,4.55-41.43,5.16-21.48,1-42.22,6.27-62,12-15.1,4.36-32.41,11.63-42.3,27.12-1.91,3-5.12,3.94-8,5.52C254.59,146.08,262.87,144.71,261.44,138.51Z"/><path class="cls-52" d="M410.94,127.58c0,.72,0,1.43,0,2.15-2.4,2.46.42,7.54-4.43,8.76q-2.21,3.28-4.43,6.55c-1.56-1.53-3.05-3.16-5.22-3.88-11.34,4.09-23.38,3.9-35,4-12,.11-21.78,3.36-30.51,11.07-8.26-.48-16.39,7.72-24.77.42a9.48,9.48,0,0,1-1.91-4.89c0-5.53,2.66-8.58,8.2-9.83,9.43-2.13,19.56-2.39,27.29-9.54a5.39,5.39,0,0,1,4.13-1.21c13.27,1.59,25.49-4.5,38.59-5.12,8-.38,16-3.34,24.3-3.4C410.91,122.65,413,123.36,410.94,127.58Z"/><path class="cls-53" d="M518.56,129.71c0,3.66,0,7.31,0,11-24,4.81-47.84,10.18-71.32,17.43-10.79,3.32-22.87,4-34.57,3.36a7.23,7.23,0,0,1-6.34-3.62l.18-1.76c6.35-4.71,13.57-5.88,21.35-6.85,13-1.62,26.17-3.67,38.45-7.92,16.05-5.55,33.21-6.92,48.81-13.85C515.79,127.15,517.39,128.91,518.56,129.71Z"/><path class="cls-54" d="M331.77,153.89c6-11.33,16.48-10.53,27.37-12.44,11.87-2.08,25,4,35.78-5.26,2.25-2,3.86.33,5,2.32a8.76,8.76,0,0,0,0,6.6l0,6.58a2.18,2.18,0,0,1-2.81-.06c-1.1-3.11-3.69-3.33-6.3-3-18.85,2.53-36.85,8.87-55.43,12.63a14.1,14.1,0,0,0-6.57,3.78c-5.78,5.3-11.59,5.54-17.29-.23C316.26,157.51,324,155.64,331.77,153.89Z"/><path class="cls-55" d="M406.47,138.49l4.43-8.76c-.64,9.69,4.8,10,11.87,7.65,20.43-6.68,42.34-8.33,61.85-18.26,2.06-1.05,5-.3,7.58-.39-2.22,9.53-11.24,8.36-17.68,10.86-10.59,4.13-21.83,6.22-32.87,8.92-8.87,3.75-17.72,7.29-27.73,6.68C409.24,144.91,406.26,143.74,406.47,138.49Z"/><path class="cls-56" d="M441.65,138.51c1.36-5.72,6.09-3.76,9.79-4.44,14.48-2.68,28.68-6.24,40.76-15.34,8.65-2.75,17.25-5.73,26.37-6.59.47,6-.21,8.46-8.29,9.51-15,2-29.87,6.92-44.3,12C457.92,136.51,450.15,138.79,441.65,138.51Z"/><path class="cls-57" d="M399.91,145.11c-2.08-.46-4.14-1-3.78-3.79.27-2.1,2.09-2.42,3.76-2.81,2.23,1.68,2.19,4.11,2.15,6.53Z"/><path class="cls-53" d="M397.71,151.71l2.17,0,6.62,4.39v0c-4,5.23-7.49,6.35-10.12-1A6.11,6.11,0,0,1,397.71,151.71Z"/><path class="cls-58" d="M410.94,127.58c-4.95-2.42-14.28-2-15-1.37-9.9,8-22.56,5.15-32.6,5.9C345.91,133.41,332,144.3,315.21,145c-4.64.2-7.9,1.24-7.61,6.7-8,8.85-16.9,16.71-25.54,24.83-5.75,5.4-10.13,11.14-12.77,18.52-6.2,17.3-14.91,33.61-20.19,51.29-1.4,4.69-4.22,7.83-9.63,4.25V237.41a6,6,0,0,1-1.35-2.93c-.09-6.78,1.76-12.61,7.11-17.3,6-5.2,5.14-13,6.84-19.85,11.61-36.1,38.51-55.41,73-66.42a45.34,45.34,0,0,0,24.08-5.54,13.17,13.17,0,0,1,6.72-1.12c15.48-.91,30.71-4.29,46.25-4.65,2.65-.06,4.71-1.77,6.76-3.29,2.2-1.28,4.37-1.57,6.48.19l2.16,0c1.32,1.47,1.16,2.92,0,4.38C413.08,121,413.5,125.73,410.94,127.58Z"/><path class="cls-59" d="M417.46,120.91c0-1.46,0-2.92,0-4.38,4.38,0,4-4.79,6.59-6.59,2.89,5.2,5.66,5.12,12,3.55,18.56-4.58,35.93-15.28,56.13-12.34,1,6.2-3.12,7.5-7.87,9.06-7.27,2.38-15.9.87-21.75,7.39-12.14.66-22.81,8-35.21,7.6-3.48-.12-7.18,1.49-9.89-2.08Z"/><path class="cls-60" d="M463.62,116.53c1.85-8.41,8.55-8.77,15.1-8.69,5.81.06,10.7-1,13.48-6.69,8.15-4.85,18.41-3.34,26.36-8.79-.39,4.8,1.75,11.81-5,12.69-16.38,2.14-30.71,12.45-47.74,11.49C465.09,117.41,464.36,117.45,463.62,116.53Z"/><path class="cls-43" d="M463.62,116.53h2.21c-10.84,4-21,10.11-32.84,10.93-3.63.25-7.2.27-10.57,1.95-1.84.91-4.08,2.75-5.92.7-2.1-2.35.15-4.71,1-7C433.25,123.61,447.9,116.34,463.62,116.53Z"/><path class="cls-54" d="M397.68,153.88c1.47,6.55,5.34,3.57,8.81,2.22,14,5,27.93.48,41.4-1.8,18.66-3.17,35.87-13.35,55.32-13.47,5.09,0,10.26-9,15.34-.16-.73,1.48-1.45,3-2.17,4.43-6-1.64-9.51,5.54-15.39,4.4-3.07.16-6.39-.64-8.79,2.19-29.22,6.83-57.88,16.3-88.1,18.43-8.64.6-12.29-3-10.81-11.84.73-1.47,1.45-2.95,2.18-4.42S397,152.49,397.68,153.88Z"/><path class="cls-57" d="M393.29,158.28c-.19,7.48,3.93,8.9,10.6,8.53,27.3-1.52,53.53-8.25,79.7-15.49,2.63-.73,5.73.21,8.61.37-7.54,6.78-17.78,5.31-26.54,8.61-18.26,6.86-37.25,11.22-57,11.18-5.86,8-9.05,8.38-19.76,2.19C389.54,168.3,386.79,162,393.29,158.28Z"/><path class="cls-48" d="M388.92,173.67c6.53-1.22,13.8,4.2,19.76-2.19,13.36,5.23,26.37-1.41,39.59-1.15,9.86.19,18.36-7.11,28.55-5.45.27.44.54.89.82,1.33A5.18,5.18,0,0,1,476.2,169c-5.28,2.58-10.47,5.32-15.78,7.88-16.47,3.68-33,6.71-49.9,7.49-6.15.28-12.36,1-18.34-.76-5.45-1.55-8.59-4.47-3.28-9.88Z"/><path class="cls-61" d="M476.82,167.08v-2.2c12.95-8.3,27.16-8.61,41.74-6.6,0,2.2,0,4.39,0,6.59-4.35,3.25-9.75,3-14.46,2.8-6.57-.31-12.75-.22-18.9,2.22C481.8,171.24,478.86,170.25,476.82,167.08Z"/><path class="cls-57" d="M501,149.5c4.95-2.1,8.12-10.39,15.39-4.4C512.1,149.53,507.64,153.35,501,149.5Z"/><path class="cls-46" d="M265.84,101.15c3.83-7,10.64-8,17.58-8.78C278.19,96.55,273.8,102.44,265.84,101.15Z"/><path class="cls-62" d="M239.47,235.21v2.2h-4.4c-2.61-16.08,5.54-28.86,13.13-41.65,5.87-9.88,7.42-21.87,15.39-30.68.92-1,.92-3.32,1.89-3.75,14.32-6.19,23.5-19.3,38.34-25.73,30.58-13.26,62.14-18.27,94.86-19.12,5.91-.16,10.27-6,16.6-4.34,0,1.46,0,2.91,0,4.36l-4.43,2.23c-16.26,2.71-32.62,4.73-49,6.58-2.22.25-4.33.51-6,2.21h-6.59c-7.84,3-16.07,4.55-24.17,6.59-33.13,10.55-58,30.24-70.33,63.73-2.31,8-4.59,16.18-10.89,22.11C239.31,224.33,241.78,230.39,239.47,235.21Z"/><path class="cls-63" d="M239.47,250.59c2.18-.14,5.73-.22,5.59-2.26-.78-11.33,6-20.6,10.58-29.2,8.07-15.31,8-34.66,25-46.18,9.21-6.22,15.84-16.69,26.92-21.25v4.39c.39,7.48-4.86,12.35-9.44,16.45-10.49,9.37-16,22-23.85,33.11-10.52,14.94-12.54,33.64-20.45,49.84-1.75,3.59-3.69,7-5.59,10.5q-1.07,0-2.13,0L235.05,266C231.42,259.37,237.43,255.55,239.47,250.59Z"/><path class="cls-57" d="M397.68,153.88l-2.21,0c-1.87-.61-1.73.38-7.85,1.25-14.51,2.06-27.7,7.57-40.8,13.58a4.62,4.62,0,0,1-2.14.41c-11.62-.72-19.32,6.85-27.1,13.48-13.14,11.19-20.74,26.89-31.26,40.2-7.39,9.33-9.73,20.66-15,30.77-2.3,4.41-11.06,4.8-7.7,12.41l-8.77,0c-2.8-1.66-4.55-3.7-2.72-7.15,3.75-7,5.72-14.9,9.38-21.92,5-9.63,11.16-18.42,14.12-29.35,3.29-12.16,13.77-20.33,21.86-29.59,4.21-4.83,5.55-13.37,14.49-13.08,6.19.48,10.93.66,16.74-5,7.06-6.83,19.71-3.12,28.93-8.12,9.5-5.16,20.65-2.9,30.61-6.66,4.64-1.76,8.08,1.74,9.44,6.56Z"/><path class="cls-39" d="M312,164.89c-10.51,13.42-24.08,25.5-30.76,40.62-8.49,19.21-20,36.83-27.54,56.36-.41,1.06.75,2.73,1.17,4.11h-6.59c-.05-11.37,6.33-20.69,10.15-30.78,1.14-3,2.8-5.67,3.1-9.06,1.18-13.6,9.32-23.51,18.05-33.05.73-.8,2.28-1.39,2.34-2.17,1.29-17,19-21.89,25.69-34.84,8.34,2.43,15.88-4,24.17-2.2C324.9,157.06,319.65,163.15,312,164.89Z"/><path class="cls-64" d="M476.82,167.08c13.88-1.2,27.7-3.62,41.72-2.21,0,2.2,0,4.41,0,6.61,0,.73,0,1.46,0,2.18-13.8-7.92-26.92-1.47-40.43,1.43-14.18,3-28,7.3-42.71,8.94-12.62,1.41-25.19,4.81-38.14,5.19-7.87.24-15.86,2.49-19.94-8.13-1.61-4.22-7.76-3.09-9.68.64-4.79,9.32-15.07,6.61-22.09,11-3.95,2.5-26.58,16.77-27.31,21.65-1.72,11.58-11,18.25-16.4,27.43-4.05,6.94-5.83,15.69-14,19.74-7.8-4.22-5.5-10.17-.83-14,6.89-5.7,9.85-13.07,13.34-20.75,2.9-6.41,3.08-15.75,13.5-16.59,2.45-.2,2.32-3.39,2.88-5.45,2.64-9.61,8-16.11,18.62-17.38,15.34-1.83,26.36-13.34,40.34-18.6,7.61-2.87,10.86-2.4,13.23,4.9-1.58,5.5.89,6.8,6.06,6.67,20.17-.52,40.58,2,60.13-5.56,2.6-1,5.68-.77,8.54-1.12,4-2.92,9.55-2.88,13.19-6.59Z"/><path class="cls-50" d="M415.28,208.83c-5.63,2.57-11.3,4.86-17.58,2.2C402.67,203.17,409,206.4,415.28,208.83Z"/><path class="cls-28" d="M355.94,127.52c.45-1.83,1.15-3.92,3.22-3.92,17.4,0,34.13-7.11,51.73-4.87-7.38,8.34-17.94,3.54-26.83,5.79A110.66,110.66,0,0,1,355.94,127.52Z"/><path class="cls-36" d="M239.47,235.21c-2.32-15.52,9.93-25,15.38-37.36-.37,9.13-1.75,18-9.68,23.91C240.51,225.26,243.25,231.55,239.47,235.21Z"/><path class="cls-28" d="M325.18,134.12c7.67-3.62,15.14-8,24.17-6.59C342.66,134.72,333.78,133.93,325.18,134.12Z"/><path class="cls-61" d="M476.82,167.08c-2.71,5.58-7.43,7.12-13.19,6.59C466,167.45,471.88,168.19,476.82,167.08Z"/><rect class="cls-65" width="749" height="460"/><path class="cls-66" d="M58.32,177.12v6.63h5.31v5.91H58.32v13.78c0,2.2,1.07,3.25,3.38,3.25a12.79,12.79,0,0,0,1.91-.14v5.78a18,18,0,0,1-3.74.32c-6.76,0-9.39-2.26-9.39-7.87V189.66H46.42v-5.91h4.06v-6.63Z"/><path class="cls-66" d="M93.79,203.73c-.86,5.64-6,9.43-13.13,9.43-8.86,0-14.18-5.67-14.18-14.88s5.37-15.14,13.89-15.14S94,188.8,94,197.56V200H74.19v.48c0,4.11,2.6,6.93,6.61,6.93,2.87,0,5.07-1.42,5.8-3.63Zm-19.52-8.59H86.49c-.16-3.68-2.55-6.2-6-6.2S74.54,191.54,74.27,195.14Z"/><path class="cls-66" d="M98.06,183.75h7.58V189h.16a8.44,8.44,0,0,1,8.21-5.74c4.17,0,7.07,2.15,8,5.9h.17a9.11,9.11,0,0,1,8.94-5.9c5.64,0,9.43,3.86,9.43,9.66v19.66h-7.85v-17.7c0-3.33-1.66-5.15-4.7-5.15s-4.94,2.17-4.94,5.37v17.48h-7.54V194.6c0-3.09-1.75-4.91-4.65-4.91s-5,2.25-5,5.48v17.37H98.06Z"/><path class="cls-66" d="M144.44,204.27c0-5.24,4-8.27,11.2-8.7l7.25-.43v-1.91c0-2.68-1.88-4.24-4.83-4.24s-4.78,1.45-5.16,3.57h-7.17c.3-5.58,5.05-9.42,12.68-9.42,7.38,0,12.19,3.81,12.19,9.61v19.79H163v-4.4h-.16a9.93,9.93,0,0,1-8.79,4.86C148.6,213,144.44,209.45,144.44,204.27ZM162.89,202v-2.1l-6.07.38c-2.92.21-4.59,1.53-4.59,3.57s1.77,3.49,4.43,3.49C160.07,207.33,162.89,205.1,162.89,202Z"/><path class="cls-66" d="M176.43,200.22v-6.85h17.64v6.85Z"/><path class="cls-66" d="M199.63,193.1c0-12.52,6-20.2,15.82-20.2s15.79,7.66,15.79,20.17-6,20.33-15.79,20.33S199.63,205.64,199.63,193.1Zm23.37,0c0-8.84-2.8-13.7-7.55-13.7s-7.57,4.89-7.57,13.7,2.79,13.8,7.57,13.8S223,202,223,193.1Z"/><path class="cls-66" d="M245.58,189.71h4.32c4.06,0,6.69-2.2,6.69-5.37s-2.17-5.18-6-5.18-6.47,2-6.72,5.4H236.4c.4-7.09,6-11.63,14.15-11.63s13.72,4.06,13.72,10.26c0,4.94-3.52,8.14-8.08,9.08v.16c5.74.53,9.5,3.95,9.5,9.26,0,7-6.09,11.71-15.09,11.71-8.75,0-14.72-4.72-15.06-11.84h7.73c.27,3.17,3.06,5.32,7.33,5.32,4.06,0,6.85-2.26,6.85-5.54,0-3.76-2.74-5.85-7.44-5.85h-4.43Z"/><path class="cls-66" d="M266.88,221.27v-5.85h25.48v5.85Z"/><path class="cls-66" d="M293.52,214.58h7.68c.62,2,2.87,3.36,5.85,3.36,4.06,0,6.31-2.26,6.31-5.59v-5h-.16c-1.34,3.06-4.72,5.15-8.89,5.15-7,0-11.68-5.42-11.68-14.42s4.51-14.74,11.82-14.74a9.45,9.45,0,0,1,8.89,5.48h.13v-5h7.74v28.39c0,6.87-5.75,11.25-14.37,11.25C299.26,223.39,294.13,219.71,293.52,214.58Zm19.87-16.49c0-5.18-2.5-8.51-6.42-8.51s-6.31,3.28-6.31,8.51,2.42,8.33,6.31,8.33S313.39,203.3,313.39,198.09Z"/><path class="cls-66" d="M326.31,183.75h7.57v5.19H334c1-3.66,3.47-5.64,6.85-5.64a8.1,8.1,0,0,1,2.23.29v6.9a8.28,8.28,0,0,0-2.85-.45c-3.86,0-6.12,2.36-6.12,6.42v16.08h-7.84Z"/><path class="cls-66" d="M372.9,212.54h-7.57v-5.18h-.16c-1.43,3.62-4.27,5.72-8.62,5.72-6.23,0-10.37-4.06-10.37-10.77V183.75H354v16.92c0,3.84,1.91,5.88,5.37,5.88s5.67-2.49,5.67-6.31V183.75h7.84Z"/><path class="cls-66" d="M378,183.75h7.58v5.13h.16c1.53-3.57,4.56-5.66,9-5.66,6.39,0,10,4,10,10.77v18.55h-7.85V195.62c0-3.76-1.77-5.91-5.29-5.91s-5.74,2.58-5.74,6.32v16.51H378Z"/><path class="cls-66" d="M408.65,198.09c0-9.13,4.56-14.79,11.79-14.79a9.25,9.25,0,0,1,8.78,5.4h.16V173.79h7.84v38.75h-7.73V207.6h-.14a9.48,9.48,0,0,1-9,5.4C413.18,213,408.65,207.31,408.65,198.09Zm8,.06c0,5.29,2.41,8.54,6.36,8.54s6.39-3.28,6.39-8.54-2.5-8.57-6.39-8.57S416.68,192.88,416.68,198.15Z"/><path class="cls-66" d="M442.65,173.79h7.84v38.75h-7.84Z"/><path class="cls-66" d="M476.3,207.68h-.25c-2,3.3-5.61,5.32-10.47,5.32-6.79,0-11-3.55-11-8.73s4-8.24,11.38-8.65l7.15-.4v-1.58C473.13,191,471,189,468,189c-2.82,0-4.89,1.48-5.13,3.6h-7.06c.27-5.61,5-9.45,12-9.45,4.59,0,8,1.69,9.59,4.32h.21c1.94-2.74,5.16-4.32,9.48-4.32,7.77,0,12.95,5.53,12.95,14.42v2.36H480.4v.51c0,4.08,2.64,6.93,6.56,6.93a5.61,5.61,0,0,0,5.64-3.63h7.19c-.86,5.64-6,9.43-12.94,9.43C482,213.16,478.12,211,476.3,207.68ZM473.13,202v-2l-6.21.41c-3,.21-4.83,1.45-4.83,3.49s1.93,3.57,4.59,3.57C470.25,207.44,473.13,204.94,473.13,202Zm7.36-6.85h12c-.13-3.73-2.41-6.2-5.83-6.2S480.75,191.51,480.49,195.14Z"/><path class="cls-66" d="M503.9,214.58h7.68c.62,2,2.88,3.36,5.86,3.36,4,0,6.31-2.26,6.31-5.59v-5h-.16c-1.34,3.06-4.73,5.15-8.89,5.15-7,0-11.68-5.42-11.68-14.42s4.51-14.74,11.81-14.74a9.43,9.43,0,0,1,8.89,5.48h.14v-5h7.73v28.39c0,6.87-5.75,11.25-14.37,11.25C509.65,223.39,504.52,219.71,503.9,214.58Zm19.88-16.49c0-5.18-2.5-8.51-6.42-8.51s-6.31,3.28-6.31,8.51,2.41,8.33,6.31,8.33S523.78,203.3,523.78,198.09Z"/><path class="cls-66" d="M536.53,214.58h7.68c.62,2,2.88,3.36,5.86,3.36,4,0,6.31-2.26,6.31-5.59v-5h-.16c-1.35,3.06-4.73,5.15-8.89,5.15-7,0-11.68-5.42-11.68-14.42s4.51-14.74,11.81-14.74a9.43,9.43,0,0,1,8.89,5.48h.14v-5h7.73v28.39c0,6.87-5.75,11.25-14.37,11.25C542.28,223.39,537.15,219.71,536.53,214.58Zm19.88-16.49c0-5.18-2.5-8.51-6.42-8.51s-6.32,3.28-6.32,8.51,2.42,8.33,6.32,8.33S556.41,203.3,556.41,198.09Z"/><path class="cls-66" d="M595.59,203.73c-.86,5.64-6,9.43-13.13,9.43-8.87,0-14.18-5.67-14.18-14.88s5.37-15.14,13.88-15.14,13.67,5.66,13.67,14.42V200H576v.48c0,4.11,2.61,6.93,6.61,6.93,2.87,0,5.08-1.42,5.8-3.63Zm-19.53-8.59h12.22c-.16-3.68-2.55-6.2-6-6.2S576.33,191.54,576.06,195.14Z"/><path class="cls-66" d="M599.86,183.75h7.57v5.13h.16c1.53-3.57,4.57-5.66,9-5.66,6.39,0,10,4,10,10.77v18.55h-7.84V195.62c0-3.76-1.78-5.91-5.29-5.91s-5.75,2.58-5.75,6.32v16.51h-7.84Z"/><path class="cls-66" d="M630.5,198.09c0-9.13,4.56-14.79,11.79-14.79a9.25,9.25,0,0,1,8.78,5.4h.16V173.79h7.84v38.75h-7.73V207.6h-.14a9.48,9.48,0,0,1-9,5.4C635,213,630.5,207.31,630.5,198.09Zm8,.06c0,5.29,2.42,8.54,6.36,8.54s6.4-3.28,6.4-8.54-2.5-8.57-6.4-8.57S638.53,192.88,638.53,198.15Z"/><path class="cls-66" d="M690.58,203.73c-.86,5.64-6,9.43-13.14,9.43-8.86,0-14.18-5.67-14.18-14.88s5.37-15.14,13.89-15.14,13.67,5.66,13.67,14.42V200H671v.48c0,4.11,2.61,6.93,6.61,6.93,2.87,0,5.07-1.42,5.8-3.63Zm-19.53-8.59h12.22c-.16-3.68-2.55-6.2-6-6.2S671.32,191.54,671.05,195.14Z"/><path class="cls-66" d="M47.28,270.27c0-5.24,4-8.27,11.2-8.7l7.25-.43v-1.91c0-2.68-1.88-4.24-4.83-4.24s-4.79,1.45-5.16,3.57H48.57c.29-5.58,5-9.42,12.67-9.42,7.39,0,12.2,3.81,12.2,9.61v19.79H65.86v-4.4H65.7A9.9,9.9,0,0,1,56.92,279C51.44,279,47.28,275.45,47.28,270.27ZM65.73,268v-2.1l-6.07.38c-2.93.21-4.59,1.53-4.59,3.57s1.77,3.49,4.43,3.49C62.91,273.33,65.73,271.1,65.73,268Z"/><path class="cls-66" d="M78.49,249.75h7.57v5.13h.16c1.53-3.57,4.57-5.66,9-5.66,6.39,0,10,4,10,10.77v18.55H97.37V261.62c0-3.76-1.78-5.91-5.29-5.91s-5.75,2.58-5.75,6.32v16.51H78.49Z"/><path class="cls-66" d="M110.12,241.83a4.09,4.09,0,1,1,4.08,4A4,4,0,0,1,110.12,241.83Zm.19,7.92h7.84v28.79h-7.84Z"/><path class="cls-66" d="M123.36,249.75h7.57V255h.16a8.46,8.46,0,0,1,8.22-5.74c4.17,0,7.07,2.15,8,5.9h.16a9.13,9.13,0,0,1,8.95-5.9c5.64,0,9.42,3.86,9.42,9.66v19.66H158v-17.7c0-3.33-1.66-5.15-4.7-5.15s-4.94,2.17-4.94,5.37v17.48h-7.55V260.6c0-3.09-1.74-4.91-4.64-4.91s-5,2.25-5,5.48v17.37h-7.84Z"/><path class="cls-66" d="M169.74,270.27c0-5.24,4-8.27,11.2-8.7l7.25-.43v-1.91c0-2.68-1.88-4.24-4.83-4.24s-4.78,1.45-5.16,3.57H171c.3-5.58,5.05-9.42,12.68-9.42,7.38,0,12.19,3.81,12.19,9.61v19.79h-7.58v-4.4h-.16a9.9,9.9,0,0,1-8.78,4.86C173.9,279,169.74,275.45,169.74,270.27ZM188.19,268v-2.1l-6.07.38c-2.93.21-4.59,1.53-4.59,3.57s1.77,3.49,4.43,3.49C185.37,273.33,188.19,271.1,188.19,268Z"/><path class="cls-66" d="M210.88,243.12v6.63h5.32v5.91h-5.32v13.78c0,2.2,1.08,3.25,3.39,3.25a12.54,12.54,0,0,0,1.9-.14v5.78a17.81,17.81,0,0,1-3.73.32c-6.77,0-9.4-2.26-9.4-7.87V255.66h-4v-5.91h4v-6.63Z"/><path class="cls-66" d="M220.44,241.83a4.09,4.09,0,1,1,4.09,4A4,4,0,0,1,220.44,241.83Zm.19,7.92h7.84v28.79h-7.84Z"/><path class="cls-66" d="M232.64,264.12c0-9.32,5.64-15,14.26-15s14.26,5.64,14.26,15-5.56,15-14.26,15S232.64,273.57,232.64,264.12Zm20.54,0c0-5.72-2.47-9-6.28-9s-6.32,3.31-6.32,9,2.45,9,6.32,9S253.18,269.92,253.18,264.15Z"/><path class="cls-66" d="M265.18,249.75h7.58v5.13h.16c1.53-3.57,4.57-5.66,9-5.66,6.39,0,10,4,10,10.77v18.55h-7.85V261.62c0-3.76-1.77-5.91-5.29-5.91S273,258.29,273,262v16.51h-7.85Z"/></svg>
